<svg xmlns="http://www.w3.org/2000/svg" viewBox="0 0 101.59 76.42"><title>Element 216</title><g id="Ebene_2" data-name="Ebene 2"><g id="Ebene_2-2" data-name="Ebene 2"><path d="M71.17,1c-.17.05-.13.26.29.32l.37-.25Z"/><path d="M73.81,2.26c.53,0,1.16-.18.92-.55-.56.19-.65,0-1.26.28-.42-.07-.7-.28-.6-.39-.17,0-.63-.22-.9-.07a2.9,2.9,0,0,0,1.93.52C74,2.16,73.86,2.21,73.81,2.26Z"/><path d="M99.68,31.91l-.05-.27A1.57,1.57,0,0,0,99.68,31.91Z"/><path d="M96.11,56c0-.19,0-.27,0-.28C96.08,55.88,96.07,56,96.11,56Z"/><path d="M94.73,60l.11-.22A.41.41,0,0,0,94.73,60Z"/><path d="M99.68,31.91l.1.69C99.9,32.61,99.76,32.24,99.68,31.91Z"/><path d="M79.52,3.83a1.19,1.19,0,0,0-.38-.12,2,2,0,0,1,.33.15Z"/><path d="M93.43,23.12,93.26,23l-.21,0Z"/><path d="M87.47,17.21c0,.18.32.18.45.23a.71.71,0,0,1-.28-.37A.29.29,0,0,0,87.47,17.21Z"/><path d="M80.51,5.9l-.22-.11Z"/><path d="M97.47,27.49a.18.18,0,0,0,0,.12S97.46,27.55,97.47,27.49Z"/><path d="M60.57,1.39s0,0,0,0S60.64,1.36,60.57,1.39Z"/><path d="M71,1.7h-.14a.44.44,0,0,0,0,.15Z"/><path d="M90.14,65.82h0C90.29,65.65,90.21,65.73,90.14,65.82Z"/><path d="M23.67,67.45c.83.07-1.2.6,0,.61C23.58,68,24.66,67.4,23.67,67.45Z"/><path d="M79.7,4,80,4.2A2.84,2.84,0,0,0,79.7,4Z"/><path d="M23.7,68.06Z"/><path d="M74.05,68.66a.38.38,0,0,0,.12.18S74.15,68.77,74.05,68.66Z"/><path d="M86.73,68.71l-.31.11Z"/><path d="M67.49,71.16a1.38,1.38,0,0,0-.41.26l.08,0A.73.73,0,0,1,67.49,71.16Z"/><path d="M61,73.94l.14,0,.21-.06Z"/><path d="M39.92,1.29a1.18,1.18,0,0,1,.42.07C40.15,1.23,41.11.69,39.92,1.29Z"/><path d="M79.44,4a.27.27,0,0,1,.26,0l-.23-.13S79.41,3.92,79.44,4Z"/><path d="M68.52,73.15c-.37.23-.73.46-1.11.66A8,8,0,0,0,68.52,73.15Z"/><path d="M.66,32.43l0-.29A.59.59,0,0,0,.66,32.43Z"/><path d="M64,75.45a3.14,3.14,0,0,0-.75,0,.44.44,0,0,0-.12.11Z"/><path d="M40.35,1.37h0Z"/><path d="M48.84.25c-1.23-.29-.65.23-1,.38C46.44.5,47.26.26,46.78,0c-.94,0-1.65.34-2.33.35-.05-.06-.19-.07,0-.15-.48.16-1.19.24-1.91.39a4.28,4.28,0,0,0-2,.8.51.51,0,0,1-.16,0,.55.55,0,0,1,.36.38c-.45.23-.75.62-1,.49.28-.13.26-.23.36-.36l-.44.33c-.58-.11.61-.43.5-.66a17.44,17.44,0,0,1-2.62,1.6c-.29-.24,1.63-.92.54-.72L39.2,2c-1.08-.08.69-.3-.34-.44a10.42,10.42,0,0,0-1.53.78c-.21.13-.35.22-.67.39a1.87,1.87,0,0,0-.32.2l-.21.15-.48.35c-.19.39.27.13.09.52a7.87,7.87,0,0,1-.58.58,1.66,1.66,0,0,1-.38.3.29.29,0,0,1-.32-.06c-.09-.12-.13-.23-.17-.27s0,0-.11,0a3.37,3.37,0,0,0-.57,0,2.32,2.32,0,0,1-2,.16l.47-.34a2.15,2.15,0,0,0-1.34.14,2.59,2.59,0,0,1-1.37.09c.3-.17,1.3-.17,1.05-.21-1.14-.27-.8.25-1.65.28l-.21-.33A18.55,18.55,0,0,0,23.2,6c.05-.14.32-.37-.14-.28A26.5,26.5,0,0,0,16.65,10l-.39.89c-.14.15-.34.23-.25,0-.65.7.12.16-.06.59s-.55.47-.42.15c-.2.36-.43.81-.65,1.32l-.37.76-.33.81c-.24.54-.44,1.09-.64,1.61s-.38,1-.58,1.38v-.35c-.51,1.23.22,1.85-.2,2.22,0,0,0-.09,0-.13s-.12.09-.19.12l-.25.07a7.57,7.57,0,0,0-1,.39,18.07,18.07,0,0,0-2,1C8.12,21.59,7,22.36,6.05,23c0,.29-.55.77-1,1.26s-.89,1-.72,1.28a9.29,9.29,0,0,0-2.36,2.7c-.3.56-.08,1-.29,1.75l-.29-.09a10.11,10.11,0,0,0,0,1.1l-.51.44a5.84,5.84,0,0,0-.11.73c.07-.28.29-.57.36-.5A9.67,9.67,0,0,1,.59,33.4c-.16.53-.34.94-.42.94a19.07,19.07,0,0,0,.18,2.73C.21,37,.16,36.56.08,36.2c.35,1.44-.34.28,0,1.6.06-.18.2.08.26.11a7.54,7.54,0,0,0,.5,3.24L.6,41a13.69,13.69,0,0,0,1.12,3c.24.48.51,1,.8,1.44.14.24.3.47.46.71l.07.1v0l0,0a.33.33,0,0,1,.53-.06.11.11,0,0,1,0,0l-.38.09c.15.17.23-.26.35.11a.47.47,0,0,1-.07.12.56.56,0,0,1-.09.14c-.07.07-.12.08-.17.05a.27.27,0,0,1-.09-.18.68.68,0,0,1,0-.15l0,0s0,.22-.06.37l-.1.51c-.11,0-.09-.21-.19-.31.06.45-.78,1.67-.51,2.36l-.11,0a17,17,0,0,0,.07,5.18c.29,0,.33.72.64,1.21A13.53,13.53,0,0,0,4,60c.62,1,.36.19.73.57-.19.19.68,1.57.08.94a13.31,13.31,0,0,0,3.31,3.67C8,64.9,7.8,64.67,8,64.71c.35.26.67.75.54.8l-.1-.06c1.13.79,2.31,1.82,3.59,2.68A10.74,10.74,0,0,0,14,69.2a7.68,7.68,0,0,0,1,.33,4.77,4.77,0,0,0,.9.1h-.13c.39,0,.76.11,1.15.13l1.14,0c1,.2-.65.09.1.37,1.26-.09,2.22,0,3.14-.08.46,0,.91,0,1.37-.07A5.39,5.39,0,0,0,24,69.66a2.73,2.73,0,0,0,.73.06c.13,0,0,0,.09,0s0,0,.06,0,0,0,.05,0l.4.24c.3.16.63.33,1,.48,1.36.62,2.85,1,3.85,1.48l-.08-.2c.58,0,.63.24,1,.35,0-.14-.56-.27-.2-.3a23.67,23.67,0,0,0,7.13,0A19.13,19.13,0,0,0,41.54,71a17,17,0,0,0,1.69-.74l.41-.22.2-.11s0,0,0,0,0,0,0,0v0a.68.68,0,0,1,.26-.36l.11,0c.05,0,.05,0,.16.1a7,7,0,0,1,.66.89l-.67-.24a30.41,30.41,0,0,0,4.25,3.33,13.7,13.7,0,0,0,4.93,1.94c-.22,0-.25.11-.58,0a4.11,4.11,0,0,0,2.7.38c.52.09.1.19.42.32.73.23,1.86-.18,2.24,0,.07,0-.2.09-.34.1.24,0,.8-.06,1.24-.1s.76-.11.52-.22a22,22,0,0,0,3.46-.62c.55-.47,2.15-.59,2.17-1.11.11.49,2.22-.67,2.74-1.35-.15.26.68-.29.52,0,.77-.56,1.37-1.2,1.09-1.27a3.68,3.68,0,0,0,1.45-1.18c.25-.31.18-.29.23-.4a.91.91,0,0,1,.13-.22.47.47,0,0,1,.19.4h0s0,0,0,0l.11,0,.48.19c.32.12.65.23,1,.33a19.31,19.31,0,0,0,1.92.49,20.22,20.22,0,0,0,3.74.39c-.05.22-.74.2-1.4.12s-1.29-.18-1.28.06c2.4.26,3.76-.14,6-.28.6,0-.31.24-.51.35A16.31,16.31,0,0,0,88.14,70s-.17.18-.35.3c.37-.19.9-.36.76-.52l-.33.23c-.37,0-.06-.29.29-.66s.77-.77.75-.86c-.13.41.34.22.73,0s.77-.41.54.22c.2-.19.41-.47.28-.54.34-.21.5-.23.27.14,1.07-1,.51-.86,1.48-1.75.07.08-.09.29-.11.46.19-.28.33-.62.55-.94A11.79,11.79,0,0,1,93.86,65c0,.09.15,0,0,.3a12.68,12.68,0,0,0,.73-1.14c.21-.38.36-.77.54-1.15s.34-.77.5-1.18.41-.82.61-1.29c.19.73.38-.62.77-.6a8.7,8.7,0,0,0,.23-1.13l-.29.39a12.52,12.52,0,0,0,.24-1.38,6,6,0,0,1,.18-1.29l0,.75a16.11,16.11,0,0,0,.15-1.84,6.28,6.28,0,0,1-.24,1c-.06-1-.44.05-.26-1.21,0,.26.08-1,.28-1.46h0A5.32,5.32,0,0,1,97,52.08c.1-.2.43.1.49,0-.33-.44-.46-2.27-1-2.75.13.17.32.13.34.06L96.51,49c0-.34,0-.35.19-.33-.07-.24-.15-.3-.22-.31h0c-.08,0-.14.07-.21,0A1.57,1.57,0,0,1,96.6,48c0,.07,0,.06-.06.21.1-.1.2-.18.29-.28l.37-.43c.26-.3.47-.62.69-.93.42-.64.82-1.27,1.22-1.9.55-.19-.59,1.18-.06.9a21.55,21.55,0,0,0,2-6.23l-.11.38c-.47-.37.55-1.48.34-2.57,0,.26.27.36.22.29a8.35,8.35,0,0,0,0-2.28c-.06-.41-.14-.84-.24-1.3l-.18-.71c-.11-.32-.19-.48-.29-.75l.2.21c-.12-.81-.57-2.07-.77-2.92-.21-.21-.34-.7-.44-.34a6.44,6.44,0,0,0-1.85-3.59A27.78,27.78,0,0,1,95.4,23c.23.19.6.39.43.23A20.93,20.93,0,0,0,94.11,22c0,.29.14.29.38.69a4.41,4.41,0,0,1-1.25-.59c.86.39.21-.31-.07-.65,0,.1-.14.09-.15.17-.74-.9-.38.28-1.54-.64l.12-.08c-.52-.18-1-.25-1.58-.49-.13-.34.59.09.71-.09a4.42,4.42,0,0,0-1.21-.22A2.71,2.71,0,0,1,89,20c-.12,0-.1-.12-.11-.21a1.36,1.36,0,0,1,0-.29c0,.07,0,.14.08.22l0,.12c0,.05.09,0,.12.05a4.07,4.07,0,0,0,.52.09l-.24-.26c-.06-.06-.14-.07-.11-.17s0-.25,0-.45v0a2.07,2.07,0,0,0,0-.25l0-.37c0-.24,0-.48-.07-.72v.38c-.9-.89-.59-2.09-1.53-3.26.89,1.13.32.12.64.12-.05-.37-.16-.93,0-.82-.47-.54-.27-1.14-1-1.85.07-.08-.34-.64,0-.62-.5-.75,0,.26-.19.26-.91-1-1.33-3-3-4.17a20.26,20.26,0,0,0-3-1.89c-.32-.44.56,0,.56,0a5.22,5.22,0,0,0-1.83-1.33c.18,0,.08-.14-.06-.36-.55-.34-.55.07-1.2-.47a2.19,2.19,0,0,1,.75,0A22.76,22.76,0,0,0,76.94,3c-.11-.24.54,0,.84,0a5.92,5.92,0,0,0-2.51-.62l.49.29c-.3-.1-.07-.27.17-.23.79.07,1,.51,1,.61l-.53-.17c.15.37.64.59,1.24.77a8.47,8.47,0,0,1,1.73.72l-.61.11c.39.09.75.21,1.13.32.15.23.15.5-.34.26.54.59.67.26,1.06.85,0,.08,0,.07-.06,0l.68.37c-.18,0-.09.3-.42,0,.89,1,1.85,1.21,2,1.81L82.65,8c1.39,1.28.36-.09,1.58.75,0,.4,0,.81,0,1.22l.36,0c.1.17.32.49.17.5.6.47,0-.18.45.05a8,8,0,0,0,.8,1.48c.28.49.48.91.32,1.11.36.19-.27-.87.34-.06-.37.49.61,1,.67,1.92-.35-.15-.5-.95-.42-.07a1.27,1.27,0,0,1,.5,1,5.4,5.4,0,0,0,.22,1.24c.19,0,.3.34.43.87s.19,1.16.37,1.92c0,0-.06.19,0,.45l1.06.43a12.38,12.38,0,0,1,1.87,1l-.06,0c.36-.24,1.34.37,2.06.8-.15.16-.32.15-.75,0l.64.43a2,2,0,0,1,.88.38l-.33.1a8.44,8.44,0,0,1,2.53,2.25c.26-.1-.17-1.3.91-.29-.07.13-.22.31-.5.06a1.69,1.69,0,0,1,.47.51l-.54-.31c.3.55.35.13.64.54-.16.1.1.38-.07.41s-.18-.39-.36-.49a3.06,3.06,0,0,1,.58,1.33c.07-.1.22-.15.45.18.54.89,0,.43.18,1,.25.15.4.8.68.69.08.19,0,.33-.07.46.29.49.8,2.46.92,1.77l0-.14,0,.08h0a8.55,8.55,0,0,1,.51,1.3,2.72,2.72,0,0,1,.16.64q0,.35.06.69c.06.93,0,1.84,0,2.72h-.1c.08,1.05-.16,2.32-.14,3.1-.06.31-.35.67-.43.51a4.18,4.18,0,0,1-.63,1.93c.13-.81-.23.21.17-.81a8.22,8.22,0,0,0-.92,2.18c0-.44-.63.53-.83,1l.52-.52a6.94,6.94,0,0,1-.82,1.27l-.12-.4a8.06,8.06,0,0,0-1,1.29l-.22.32-.11.16a.39.39,0,0,1-.08.11l-.1.13-.74.93c.14.29.26.57.37.84s.2.56.24.69a2.52,2.52,0,0,1,0,1.06c.36.48-.11-1.13.27-.72a7.91,7.91,0,0,1-.08,2.3c-.07,1.29.63,1.18.44,2.56.13-.16.45-.34.51.74-.13,1-.66,1.13-.65.52,0-.23.08-.34.11-.32,0-.32,0-.73-.2-.36l.11.13c-.14.47-.36,1.76-.5,1.42,0,.72.15.34.29-.18-.15.6-.3,1.05-.41,1.52a6.11,6.11,0,0,1-.52,1.5c.13-.17.32-.29.25-.11-.37.86-.44,1-.42,1.2s.09.25-.16.83c-.49.57-.24-.41-.75.75-.51.6-.35,0-.28-.33a3.12,3.12,0,0,1-.86,1.3c-.34.32-.64.6-.88.81a4.27,4.27,0,0,0,.3-.51,3.12,3.12,0,0,1-.56.73l.4-.09c-.26.23-.46.45-.53.38-.13.37.48.06.14.75-.42.25-1,1.08-1.31,1,1.17-.92-.32-.13.56-1a3.19,3.19,0,0,1-.65.58c-.06,0,0-.08,0-.16-1.24.67-.26.69-1.45,1.55.06-.24-.47-.11-.65,0,.5-.3.4.1,0,.5a9,9,0,0,0-1.31.79l.54-.19c-.09.23-.53.45-1.13.76-.1-.1.52-.33.28-.29-.58.56-1.66.33-2.59.75-.49,0-.13-.32-.54-.29a2.23,2.23,0,0,1-1.16.18,4.67,4.67,0,0,0-1.21.08c.35.22.42.16-.42.43l1-.13c.33-.06.65-.15,1-.22a10.21,10.21,0,0,1-1.23.5c.61,0,1.25-.33,1.61-.32-.57.28-.52.22-.2.37-.87-.2-1.63.39-2.62.2L80,70c-1.37-.28-2.53.2-4.3-.41l.55.24c-.3.18-1.12-.25-1.72-.37.12-.17-.21-.36-.39-.57-.06.15-1.18-.51-1.58-.3l-1.11-.92-.4-.24a8.67,8.67,0,0,0-.81,1.09,8.33,8.33,0,0,0-.45.78,2.84,2.84,0,0,1-.9,1.21c.18-.45-.39-.12.2-.89-.34.34-.69.59-.61.69-.28.09-.86,1.06-1.35,1.14-.12.18,0,.41-.53.68-.07,0,0-.08,0-.08s-.67.55-.15.49a14.77,14.77,0,0,0-2.69,1,5.23,5.23,0,0,1-2.62.51,13.89,13.89,0,0,1-3.26.42c.06-.06,0-.1.18-.07-1.31-.23-.85.57-2.36.18-.73-.43.82,0,.36-.24-.11-.66-1.82-.17-2.69-.87l.24,0c-.65-.42-1.86-.34-3-1,0,0,.08,0,.05-.09a8.38,8.38,0,0,1-3.38-1.65c.46.05.51.25.5-.1-.44-.33-.15.45-1-.25-.18-.34-.64-1-.51-1.27.24.24.47.49.73.72-.13-.61-.94-.93-1.23-1.39l.16,0-.9-1c-.25-.27-.45-.47-.63-.63-.29.27-.56.53-.88.79a7.23,7.23,0,0,1-1.12.78h.21c-.63.81-.78.2-1.49.87l-.42-.25a11.34,11.34,0,0,1-3,1.43c.57-.4,1.75-.91,2.41-1.37a15,15,0,0,0-2.17.92,2.2,2.2,0,0,1,.74-.27,5.23,5.23,0,0,1-2.81,1c.07-.39-.71-.34-1.63-.37a4.32,4.32,0,0,1-2.35-.5A8,8,0,0,1,28.86,69c-.5-.22-1-.46-1.48-.73-.25-.13-.49-.28-.75-.42l-1.05-.64c.55.7.25.51-.11.3-.09,0-.18-.17-.3-.12l-.31.11c-.17.08-.28.18-.21.32-.45.12-.56.15-.72.18a.51.51,0,0,1-.23,0A8.87,8.87,0,0,1,21.92,68c-.42-.15.53-.17.46-.31-1.23,0-.54-.22-1.35-.32.18.18-.4.39-1.09.27a5.42,5.42,0,0,0,1,.25,2.07,2.07,0,0,1-1.6-.1,2.32,2.32,0,0,0-.61-.18,2.92,2.92,0,0,0-1-.09l.56-.11c-.91.07-3.11-.68-4.1-.59-.12-.12-.24-.36.13-.25-.48-.22-1-.46-1.51-.66s-1-.49-1.52-.77A7.34,7.34,0,0,1,9,63.19l.21,0c-.29-.26-.67-.32-.89-.79.06,0,.22,0,.1-.12a3.75,3.75,0,0,1-1.1-1.14l.4.26c-.28-.43-.52-.81-.76-1.16s-.51-.64-.72-.95l-.69-.93A10.43,10.43,0,0,1,5,57.27c.39-.14.07-1.73,0-2.54l.07,0a21.28,21.28,0,0,1-.36-6.29,6.36,6.36,0,0,0,.44-.87L5.4,47l.46-1.12-.6-.9-.15-.24L5,44.59l-.16-.26q-.3-.53-.57-1.08a8.94,8.94,0,0,1-.76-2.19c0,.34-.36.06-.51-.31-.07-.53-.65-1.36-.24-1.36l0,.18c.3-.46,0-1.48,0-2.31l-.54-.11a31,31,0,0,0,.49-3.86,4.77,4.77,0,0,1,1-2.92c.06-.54.37-1.12.49-1.66l.23.16a29.06,29.06,0,0,1,2.34-3.21l-.1.4c.69-.71.28-1.51,1-2.17l.48.13c1.41-1.16,3.13-1.72,4.64-2.67,0,.07,0,.2-.28.31l.36-.11.8-.25.49-.15.25-.08c.06,0,.21,0,.2-.13l.19-1A4.24,4.24,0,0,0,15,18.81c0-.2-.07-.31-.24-.27.19,0,.32-.41.42-1s.26-1.27.37-1.76l.19.25a3.47,3.47,0,0,1,.42-2c.18-.22.32-.09.07.19.61-.71.12-.78.91-1.6l-.1.44a2.67,2.67,0,0,0,.63-1.28,3.59,3.59,0,0,1,.78-.85c.34-.23.66-.39.79-.34a1.39,1.39,0,0,1,.72-1c.12,0,0,.2-.06.29a7.05,7.05,0,0,0,.84-.63c.25-.19.46-.37.66-.55a3,3,0,0,1,1.34-.77A.23.23,0,0,0,23,8c-1.12.56-1.94,1.15-1.88,1.07.15.21,1-.3.54.43l.46-.52.62-.56a3.89,3.89,0,0,1,1.42-.82.42.42,0,0,1,.15,0l-.08.06a3.51,3.51,0,0,0,.55-.26,6.1,6.1,0,0,0,.79-.18c.16.14,1.12-.18,1.6-.28-.1-.28.56-.36-.09-.46.08,0-.09,0-.41.14a1.38,1.38,0,0,0-.2.08l0,0A10.34,10.34,0,0,0,25.3,7a1.71,1.71,0,0,1,1.29-.47A6.65,6.65,0,0,1,27.2,6a8.09,8.09,0,0,0,1.37.29,2.14,2.14,0,0,1,.93.31A11.87,11.87,0,0,1,32,6.44l1.18,0a4.12,4.12,0,0,0,.51,0c.13,0,.41,0,.55,0a1.46,1.46,0,0,1,.81.38.38.38,0,0,0,.13,0l-.1.15a4.66,4.66,0,0,0-.89-.14l.9.18c.23-.27.48-.57.73-.84l.51-.56c.29-.31.5-.57.48-.75.49-.27.42-.1.37,0s0,.1,0,.06a.91.91,0,0,0,.16-.11l.15-.11.12-.09a.94.94,0,0,0,0,.16l.16,0L38,4.55l.52-.2a9.15,9.15,0,0,0,.94-.47c.59-.34,1.12-.72,1.67-1.1l.2-.15.13-.09.44-.19a6.08,6.08,0,0,1,1-.3,5,5,0,0,1,2.28,0c-.23,0-.35-.06-.39-.13A18.5,18.5,0,0,1,50.28,3,11.24,11.24,0,0,1,52.8,4.32a10.3,10.3,0,0,1,1.08.9c.42.42.87.91,1.35,1.49l.35-.21a6.9,6.9,0,0,0,1.25-1c.17-.2.27-.39.51-.64L57.7,5c.26-.3.52-.58.8-.87,1.36-1,2.79-.52,4.57-1.5l-.31-.12c.71-.17,2.25-.62,2.17-.35a.56.56,0,0,1,.5-.18l0,.16a16.72,16.72,0,0,1,1.76-.42c1.39.1-.18.58,1.78.67.73,0,2.17-.23,1.9-.37s-.76-.2-.77-.36h.71c.18-.44.83-.86-.93-1.39-.43,0-.86.12-1.29.2L68.23.28q.54,0,1.08,0a1.75,1.75,0,0,0-1.43.06.88.88,0,0,0-.54-.24c-.42.16-.82.34-1.22.52C66,.48,66.65.23,65.8.22c-.56.26.59.34-.34.58C64.84.67,65,.47,64.3.77c-.11-.1,0-.21.29-.3-.61.23-1.65.38-1.9.7-.69-.1-2,.68-2.1.26a8.1,8.1,0,0,1-1.44,1c.37-.46-.12-.24-.72,0s-1.24.63-1.26.32a4.19,4.19,0,0,1-1.07,1L55.73,4l-.12.1-.21.2a1.12,1.12,0,0,0-.26-.11s.13,0,.14,0a1,1,0,0,1-.19-.33,4.83,4.83,0,0,0-.41-.54c-.32.23-1.37-.45-2.07-.56-.65-.82.74-.09.67-.55-.12.27-1.67-.58-1.5-.17-.57-.53-.53-.39-.76-.83-.31.39-.7-.2-1.39-.11-1-.53-.14-.54-1.36-.67C47.73.18,48.84.24,48.84.25ZM23.23,6.08h0l.52-.24ZM21.16,7.14l.89-.48c.11,0,.08.18-.12.29C22,6.83,21.5,7,21.16,7.14Zm5,0c-.31.11-.42.11-.49.06.15-.06.32-.11.55-.18l0,0A.37.37,0,0,1,26.18,7.11Z"/><path d="M26.67,6.62l.13,0-.21,0-.09.12Z"/><path d="M99.63,31.59v.05a.37.37,0,0,1,0-.11S99.63,31.57,99.63,31.59Z"/><polygon points="1.27 29.85 1.34 29.87 1.36 29.65 1.27 29.85"/><path d="M93.17,21.4a.35.35,0,0,0-.11-.14Z"/><path d="M89.25,19.06c0-.12,0-.45,0-.69Z"/><path d="M88.4,15a.31.31,0,0,0-.14,0h0Z"/><path d="M87.79,70.28l-.14.09C87.32,70.59,87.55,70.45,87.79,70.28Z"/><path d="M97.29,53.74a3.44,3.44,0,0,1,.12.64C97.46,54,97.44,53.75,97.29,53.74Z"/><polygon points="68.64 73.07 68.64 73.07 68.52 73.15 68.64 73.07"/><path d="M97.36,55.3a2.68,2.68,0,0,0,0-.92A4.73,4.73,0,0,0,97.36,55.3Z"/><path d="M76.16,2.11,76,2s0,0,0,0Z"/><path d="M75.93,2.06,75.71,2C75.8,2,75.89,2.08,75.93,2.06Z"/><path d="M75.22,1.89l.49.12A1,1,0,0,0,75.22,1.89Z"/><path d="M81,5l.11,0A.15.15,0,0,0,81,5Z"/><path d="M82.31,6a5.52,5.52,0,0,0-1.14-1.12l-.09,0C81.39,5,81.92,5.86,82.31,6Z"/><path d="M85.7,12.09c-.19-.41-.43-.79-.64-1.19,0,.26.08.6-.27.1C85.41,12.59,84.82,10.57,85.7,12.09Z"/><path d="M87.24,15.93c-.28-.66-.14.06-.22,0C87.25,16.37,87.3,16.47,87.24,15.93Z"/><path d="M99.56,40.74l-.22-.14C99.23,41.13,99.43,40.63,99.56,40.74Z"/><path d="M98.15,46.57l.47-.38-.05-.36C98.45,46.09,98.29,46.33,98.15,46.57Z"/><polygon points="94.92 49.14 94.74 48.74 95.21 49.91 94.92 49.14"/><path d="M62.15,73.42l.24.26C62.73,73.53,62.7,73.17,62.15,73.42Z"/><path d="M42.46,68a1.71,1.71,0,0,0-1.1.49A7.75,7.75,0,0,0,42.46,68Z"/><path d="M2.63,36.09c0,.14.08.28.11.42,0-.26-.05-.52-.07-.78Z"/><path d="M47,36.29H45v-3h2Zm0-6H45v-3h2ZM42,28.1l-1.45-1.38,2-2,1.45,1.38ZM47,24.29H45V23l0-1.26,2,.69Z"/><path d="M80.89,36.29h-2v-3h2Zm0-6h-2v-3h2ZM75.83,28.1l-1.44-1.38,2-2,1.44,1.38Zm5.06-3.81h-2V23l0-1.26,2,.69Z"/><path d="M63.07,36.5l-.42-2a5.65,5.65,0,0,0,2.28-1.08L66.17,35A7.7,7.7,0,0,1,63.07,36.5Zm-3.42,0A7.73,7.73,0,0,1,56.59,35l1.27-1.55a5.67,5.67,0,0,0,2.26,1.13Zm8.66-4.1-1.8-.87A5.52,5.52,0,0,0,67.08,29h2A7.5,7.5,0,0,1,68.31,32.37ZM54.5,32.24a7.5,7.5,0,0,1-.7-3.2V28.9l2,0V29a5.63,5.63,0,0,0,.51,2.36Zm12.11-5.47a5.89,5.89,0,0,0-1.51-2l1.3-1.53a7.79,7.79,0,0,1,2,2.75Zm-10.2-.29-1.78-.91A7.7,7.7,0,0,1,56.82,23L58,24.54A5.71,5.71,0,0,0,56.41,26.48Zm6.45-2.9a5.64,5.64,0,0,0-1.42-.18,3.41,3.41,0,0,0-1.11.11l-.39-2a8.26,8.26,0,0,1,1.49-.14h0a7.71,7.71,0,0,1,1.92.24Z"/><path d="M61.27,57.67h-2v-3h2Zm0-6h-2v-3h2Zm-5.06-2.2-1.45-1.38,2-2,1.45,1.38Zm5.06-3.8h-2V43.08l2,.69Z"/><path d="M26.89,57.67h-2v-3h2Zm0-6h-2v-3h2Zm-5.06-2.2-1.44-1.38,1.95-2,1.44,1.38Zm5.06-3.8h-2V44.34l.05-1.26,1.95.69Z"/><path d="M43.45,57.88l-.43-2a5.53,5.53,0,0,0,2.28-1.08l1.24,1.57A7.62,7.62,0,0,1,43.45,57.88Zm-3.42,0A7.72,7.72,0,0,1,37,56.32l1.27-1.54a5.72,5.72,0,0,0,2.26,1.12Zm8.66-4.1-1.8-.87a5.66,5.66,0,0,0,.56-2.47h2A7.53,7.53,0,0,1,48.69,53.75Zm-13.82-.13a7.7,7.7,0,0,1-.7-3.21v-.14l2,0v.11a5.53,5.53,0,0,0,.52,2.37ZM47,48.15a5.6,5.6,0,0,0-1.51-2l1.3-1.52a7.84,7.84,0,0,1,2,2.74Zm-10.2-.3L35,47a7.75,7.75,0,0,1,2.2-2.63l1.2,1.6A5.81,5.81,0,0,0,36.78,47.85ZM43.23,45a5.34,5.34,0,0,0-1.43-.18,5.76,5.76,0,0,0-1.09.11l-.39-2a7.43,7.43,0,0,1,1.48-.15h0a7.41,7.41,0,0,1,1.93.25Z"/><path d="M77.53,57.88l-.43-2a5.53,5.53,0,0,0,2.28-1.08l1.24,1.57A7.62,7.62,0,0,1,77.53,57.88Zm-3.42,0a7.75,7.75,0,0,1-3.06-1.53l1.27-1.54a5.59,5.59,0,0,0,2.26,1.12Zm8.66-4.1L81,52.88a5.66,5.66,0,0,0,.56-2.47h2A7.53,7.53,0,0,1,82.77,53.75ZM69,53.62a7.7,7.7,0,0,1-.7-3.21v-.13l2,0v.11a5.5,5.5,0,0,0,.52,2.37Zm12.11-5.47a5.6,5.6,0,0,0-1.51-2l1.3-1.52a7.63,7.63,0,0,1,2,2.74Zm-10.2-.29L69.08,47a7.75,7.75,0,0,1,2.2-2.63l1.21,1.6A5.66,5.66,0,0,0,70.86,47.86ZM77.31,45a5.79,5.79,0,0,0-2.52-.07l-.39-2a7.75,7.75,0,0,1,3.42.1Z"/><path d="M29.14,36.5l-.43-2A5.53,5.53,0,0,0,31,33.47L32.23,35A7.6,7.6,0,0,1,29.14,36.5Zm-3.42,0A7.7,7.7,0,0,1,22.65,35l1.27-1.55a5.74,5.74,0,0,0,2.26,1.13Zm8.66-4.1-1.8-.87A5.64,5.64,0,0,0,33.14,29h2A7.63,7.63,0,0,1,34.38,32.37Zm-13.82-.13a7.5,7.5,0,0,1-.7-3.2V28.9l2,0V29a5.49,5.49,0,0,0,.52,2.36Zm12.11-5.47a5.65,5.65,0,0,0-1.51-2l1.3-1.53a7.79,7.79,0,0,1,2,2.75Zm-10.2-.29-1.78-.91A7.7,7.7,0,0,1,22.88,23l1.21,1.59A5.94,5.94,0,0,0,22.47,26.48Zm6.45-2.9a5.68,5.68,0,0,0-2.53-.07l-.38-2a7.7,7.7,0,0,1,3.41.1Z"/></g></g></svg>