<?xml version="1.0" encoding="utf-8"?>
<!-- Generator: Adobe Illustrator 22.1.0, SVG Export Plug-In . SVG Version: 6.00 Build 0)  -->
<!DOCTYPE svg PUBLIC "-//W3C//DTD SVG 1.1//EN" "http://www.w3.org/Graphics/SVG/1.1/DTD/svg11.dtd">
<svg version="1.1" id="Ebene_1" xmlns="http://www.w3.org/2000/svg" xmlns:xlink="http://www.w3.org/1999/xlink" x="0px" y="0px"
	 viewBox="0 0 76.1 84.6" style="enable-background:new 0 0 76.1 84.6;" xml:space="preserve">
<title>Element 258</title>
<g id="Ebene_2_1_">
	<g id="Ebene_2-2">
		<g>
			<polygon points="2.4,78.3 0,78.3 0,74.8 3.5,74.8 3.5,77.2 2.4,77.2 			"/>
		</g>
		<g>
			<path d="M67.9,77.2h-4.6v-2.4h4.6V77.2z M58.7,77.2h-4.6v-2.4h4.6V77.2z M49.5,77.2h-4.6v-2.4h4.6V77.2z M40.3,77.2h-4.6v-2.4
				h4.6V77.2z M31.1,77.2h-4.6v-2.4h4.6V77.2z M21.9,77.2h-4.6v-2.4h4.6V77.2z M12.7,77.2H8.1v-2.4h4.6V77.2z"/>
		</g>
		<g>
			<polygon points="76.1,78.3 73.7,78.3 73.7,77.2 72.6,77.2 72.6,74.8 76.1,74.8 			"/>
		</g>
		<g>
			<polygon points="76.1,84.6 72.6,84.6 72.6,82.2 73.7,82.2 73.7,81 76.1,81 			"/>
		</g>
		<g>
			<path d="M68,84.6h-4.6v-2.4H68V84.6z M58.8,84.6h-4.6v-2.4h4.6V84.6z M49.6,84.6H45v-2.4h4.6V84.6z M40.4,84.6h-4.6v-2.4h4.6
				V84.6z M31.2,84.6h-4.6v-2.4h4.6V84.6z M22,84.6h-4.6v-2.4H22V84.6z M12.8,84.6H8.2v-2.4h4.6V84.6z"/>
		</g>
		<g>
			<polygon points="3.5,84.6 0,84.6 0,81 2.4,81 2.4,82.2 3.5,82.2 			"/>
		</g>
		<g>
			<polygon points="10.3,33.7 7.9,33.7 7.9,30.1 11.4,30.1 11.4,32.5 10.3,32.5 			"/>
		</g>
		<g>
			<path d="M59.7,32.5h-4.8v-2.4h4.8V32.5z M50,32.5h-4.8v-2.4H50V32.5z M40.4,32.5h-4.8v-2.4h4.8V32.5z M30.7,32.5h-4.8v-2.4h4.8
				V32.5z M21,32.5h-4.8v-2.4H21V32.5z"/>
		</g>
		<g>
			<polygon points="68.1,33.7 65.7,33.7 65.7,32.5 64.5,32.5 64.5,30.1 68.1,30.1 			"/>
		</g>
		<g>
			<path d="M68.1,69.2h-2.4v-4.4h2.4V69.2z M68.1,60.3h-2.4v-4.4h2.4V60.3z M68.1,51.4h-2.4V47h2.4V51.4z M68.1,42.5h-2.4v-4.4h2.4
				V42.5z"/>
		</g>
		<g>
			<polygon points="68.1,77.2 64.5,77.2 64.5,74.8 65.7,74.8 65.7,73.6 68.1,73.6 			"/>
		</g>
		<g>
			<path d="M59.7,77.2h-4.8v-2.4h4.8V77.2z M50,77.2h-4.8v-2.4H50V77.2z M40.4,77.2h-4.8v-2.4h4.8V77.2z M30.7,77.2h-4.8v-2.4h4.8
				V77.2z M21.1,77.2h-4.8v-2.4h4.8V77.2z"/>
		</g>
		<g>
			<polygon points="11.4,77.2 7.9,77.2 7.9,73.6 10.3,73.6 10.3,74.8 11.4,74.8 			"/>
		</g>
		<g>
			<path d="M10.3,69.2H7.9v-4.4h2.4V69.2z M10.3,60.3H7.9v-4.4h2.4V60.3z M10.3,51.4H7.9V47h2.4V51.4z M10.3,42.6H7.9v-4.4h2.4V42.6
				z"/>
		</g>
		<g>
			<path d="M39.2,18.3c-0.3,0.9,0.2,0.5,0.3,0.8c-0.2,1-0.4,0.4-0.7,0.7c0,0.6,0,1.1-0.1,1.7c-0.1,0-0.1,0.1-0.2,0
				c0,0.5-0.1,0.9-0.3,1.4l-0.1,0.4c-0.1,0.2-0.1,0.4-0.2,0.6c-0.1,0.3-0.1,0.7-0.2,1c0,0.1-0.1,0.1-0.2,0.2
				c0.2-0.2,0.4-0.3,0.6-0.4c-0.2,0.5,0,0.7-0.3,1.1c0.1-0.3,0-0.2,0-0.4v0.5l0,0c0,0.1-0.1,0.2-0.3,0.2c0-0.2,0.2-0.8,0-0.7
				c0,0.3-0.1,0.5-0.1,0.8c0.9-0.1,1.8-0.2,2.7-0.2c0.2,0.3-2.2,0.1-1.1,0.4l-1.4-0.1c0.6,0.5-1,0-0.5,0.5c0.8,0,1.7,0,2.5,0h0.9
				c0.3,0,0.5,0,0.8,0c0.3-0.2-0.1-0.3,0.2-0.5c1.8-0.3,1.4,0.8,2.8,0.4c0.3-0.2,0.5-0.6,1.4-0.4l-0.3,0.4c1.2,0,0.7-0.5,2-0.3
				c-0.2,0.1-1,0.1-0.8,0.2c0.8,0.3,0.6-0.2,1.2-0.2l0.1,0.3c1.3,0,2.8-0.3,4.2-0.3c-0.1,0.1-0.3,0.2,0,0.3c1.9-0.1,3.8,0,5.7,0.2
				l0.7-0.3c0.2,0,0.3,0.1,0.1,0.2c0.7,0.1,0-0.2,0.4-0.3s0.5,0.2,0.3,0.2c1.6-0.3,3.2-0.4,4.8-0.2l-0.2,0.1c1,0.1,1.1-0.6,2.1-0.3
				h-0.2h0.6h1.1c0.3,0,0.7,0,1,0c-0.2,0.2-0.5,0.4-0.8,0.5c0.3,0,0.1,0.2-0.1,0.3s-0.3,0.2-0.1,0.5c-0.8,0.4-1.6,0.9-2.2,1.5
				c-0.3,0.3-0.2,0.7-0.6,1.2L64.6,30l-0.3,0.8h-0.5l-0.3,0.4c0.2-0.1,0.4-0.2,0.5-0.2c-0.4,0.6-1,1-1.7,1.2l-1.2,1.6
				c-0.1-0.1,0.2-0.4,0.3-0.6c-0.5,1-0.4-0.1-0.9,0.8c0.1,0,0.1,0.2,0.1,0.2c-0.7,0.4-1.3,1-1.8,1.6v-0.2c-1.1,1-2.1,2.3-3.3,3.5
				c0.5-0.3,0.6,0,0.3,0.4l-0.4-0.1c-0.1,0.4,0.4-0.3,0.2,0.3c-0.5,0.4-0.5,0-0.4-0.3L54.7,40c-0.1,0,0-0.2-0.1-0.3
				c-0.1,0.3-1.1,0.7-1.2,1.2h-0.1c-1.2,1.2-1.6,1.8-2.6,2.8c0.2,0.2-0.2,0.5-0.4,1c-0.9,0.7-1.7,1.4-2.5,2.1
				c-0.5,0.7,0,0.3-0.2,0.7c-0.2-0.1-1,0.7-0.7,0.2c-0.9,0.9-1.7,1.8-2.4,2.8c0.2-0.1,0.4-0.2,0.4-0.1c-0.2,0.3-0.6,0.5-0.7,0.3
				v-0.1c-1.2,1.8-3.8,2.9-4.6,4.4v-0.1l-1,1.4c-0.6,0.7,0.2-0.3-0.4,0c-1,1.6-2.1,2-2.9,3.2c-0.1,0-0.2,0-0.3,0.1
				c-0.1,0-0.1,0-0.1,0h-0.1c-0.1,0-0.1,0.1-0.2,0.2s-0.5,0.7-0.1,0l-0.3,0.5c-0.3,0.5,0,0,0.1-0.3l0.1-0.1l-0.2,0.3
				c-0.1,0.2-0.1,0.2-0.3,0.5l0,0c0.1-0.5,0.2-0.9,0.5-1.3l0.1-0.1c0-0.1,0.1-0.2,0.1-0.2l0.1-0.3l0.5-1.2c0.3-0.8,0.6-1.7,0.9-2.5
				c0.4-1.2-0.6-1,0.2-2.4l0.2,0.5c0.4-2.6,1.5-5.1,1.9-7.6c0,0.2,0.1,0.2,0,0.4c0.4-0.5,0.6-1.9,0.4-2c0.1-0.4,0.2,0,0.3-0.2
				c0.3-0.5,0.1-1.4,0.4-1.6c0,0,0,0.2,0,0.3c0-0.4,0.5-1.6,0.1-1.3c0.1-0.2,0.2-0.4,0.2-0.7l0.2-0.8c0.2-0.7,0.4-1.3,0.6-2
				c0-0.3,0.1-0.7,0.2-1c-0.8,0-1.7-0.1-2,0.2c0.2-0.2-0.5-0.3-1.4-0.3c-0.5,0-1,0-1.4,0.2c0.2-0.1-0.5-0.1-0.3-0.3
				c-0.7,0-1.3,0.1-1.2,0.3c-1.3-0.5-2.5,0.4-3.3-0.2c-2,0.2-3.9,0.4-5.8,0.5c0.1-0.4,2,0,2-0.5c-1.5,0.3-3,0.4-4.5,0.4
				c-0.4-0.1,0.3-0.2,0.4-0.3c-1.7,0.2-3.4,0-4.9,0.2c0,0,0.2-0.1,0.3-0.1c-0.3,0-0.7-0.1-0.7,0.1h0.3c0.5,0.3-1.2,0.6-1.3,0.7
				c0.5-0.6-1.5-0.1-0.7-0.8c-0.2,0-0.5,0.1-0.4,0.3c-0.3,0-0.4-0.1-0.1-0.3c-1.1,0.1-0.7,0.3-1.7,0.3c0-0.1,0.2-0.1,0.3-0.2
				c-0.6,0.3-1.2,0.4-1.8,0.3c0,0-0.1-0.1,0.2-0.1c-0.7,0-1.3,0.1-2,0.2c-0.3,0-0.6,0.1-1,0.1H9.5c-0.1,0-0.3,0-0.4,0
				c0.4-0.4-0.3-0.1,0-0.5L8.7,37c0,0.1,0,0.1,0,0.2c-0.3,0-0.5,0.1-0.8,0.1s-0.6,0.1-0.7,0L7.9,37H7.4l0.2-0.2L7,37.2l0,0l-0.3,0.1
				c-0.2,0-1,0.5-0.3-0.1c0.3-0.3,0.7-0.5,1.1-0.7l0,0c0-0.2,0.1-0.4,0.6-0.7c0.2,0,0.4,0.2,0.5,0.2c-0.1-0.1,0-0.1,0-0.2
				c0.1-0.1,0.2-0.3,0.3-0.4c0.3-0.3,0.5-0.6,0.7-0.9c-0.1,0.2,0.1,0.3,0.1,0.3l0.1-0.4c0.3-0.2,0.4-0.2,0.4,0
				c0.8-0.7-0.5-0.1,0.5-0.8c-0.1,0.1,0,0.1-0.1,0.2c1-0.8,1.7-1.7,2.6-2.4c0.5,0-0.7,0.7-0.2,0.7c1.2-1.2,2.2-2.6,3.4-3.6l-0.2,0.2
				c-0.2-0.5,1-0.6,1.5-1.3c-0.1,0.2,0,0.4,0,0.3c1-0.9,1.8-1.8,2.6-2.9L20.2,25c0.5-0.3,1.3-1.1,1.8-1.5c0.1-0.2,0.4-0.5,0.1-0.5
				c2.1-0.9,2.7-3,4.5-3.9c-0.2,0.2-0.3,0.5-0.2,0.3l1.1-1.2c-0.2-0.1-0.2,0-0.6,0.1c0.1-0.3,0.3-0.6,0.6-0.9
				c-0.4,0.6,0.2,0.3,0.6,0.1c-0.1,0-0.1-0.1-0.1-0.2c0.9-0.3-0.2-0.4,0.8-1v0.1c0.2-0.4,0.5-0.7,0.8-1c0.3,0.1-0.3,0.4-0.1,0.6
				c0.5-0.5,0.6-1.2,1.2-1.4c-0.1,0.2-0.5,0.5-0.6,0.8c0.4-0.1,0.8-0.3,1.1-0.6l0,0l0.9-0.6l-0.3,0.1c0.2-1,1.1-1.2,1.7-2.3
				c-0.5,1,0,0.3,0.2,0.6c0.3-0.1,0.6-0.4,0.6-0.2c0.2-0.5,0.8-0.4,1.1-1.2c0.1,0,0.4-0.4,0.5-0.1c0.5-0.5-0.2,0-0.3-0.1
				c0.5-0.9,2.1-1.4,2.9-2.7c0.8-1,0.8-1.4,1.6-2.3c0.4-0.2,0,0.5,0,0.5c0.5-0.3,0.9-0.7,1.3-1.2c0,0.2,0.1,0.1,0.3,0.1
				c0.3-0.3,0-0.5,0.6-0.8c0,0.2,0,0.4-0.1,0.6c0.4-0.4,0.7-1,1.1-1.4c0.2,0-0.1,0.4-0.2,0.7c0.5-0.5,1.2-1.3,1.2-1.6l-0.4,0.2
				C44,2.8,44,3,43.9,3.2c-0.3,0.5-0.7,0.5-0.8,0.4l0.3-0.3c-0.7-0.1-1.2,1.2-1.9,1.8V4.5l-0.4,0.8C41,5.4,40.7,5.4,41,5
				c-0.6,0.3-0.3,0.5-0.8,0.7c-0.1,0-0.1,0,0-0.1l-0.4,0.5c0-0.1-0.3-0.1,0-0.3c-1,0.6-1.1,1.4-1.6,1.5V7.2c-1,1.1,0.1,0.3-0.5,1.3
				h-1l0.1,0.3c-0.1,0.1-0.4,0.3-0.4,0.2c-0.3,0.5,0.2,0,0,0.4c-0.7,0.3-1.4,1.5-1.9,1.2c0,0.4,0.6-0.4,0.2,0.3
				c-0.5-0.2-0.6,0.7-1.3,1c0-0.3,0.5-0.7-0.1-0.4c0,0.6-1,0.8-1.4,1.3c0.2,0.3-0.8,0.9-1.5,1.7c-0.8,0.5-1.5,1-2.2,1.6V16
				c0.1,0.4-0.6,1-1.1,1.5c-0.1-0.2-0.1-0.3,0.1-0.6l-0.5,0.4c-0.1,0.3-0.2,0.5-0.4,0.7l-0.1-0.3c-0.6,0.7-1.3,1.4-2,2
				c0.1,0.2,1.1-0.1,0.4,0.8c-0.1-0.1-0.3-0.2-0.1-0.5c-0.1,0.2-0.2,0.3-0.4,0.4l0.2-0.5c-0.4,0.3-0.1,0.3-0.4,0.6
				c-0.1-0.1-0.3,0.1-0.4,0s0.3-0.2,0.4-0.3c-0.3,0.3-0.7,0.4-1.1,0.5c0.1,0,0.2,0.2,0,0.4c-0.6,0.6-0.4,0-0.8,0.3
				c-0.1,0.2-0.5,0.5-0.4,0.7c-0.1,0.1-0.3,0.1-0.4,0.1c-0.2,0.4-1.5,1.4-0.9,1.3l0.1-0.1l0,0l0,0c-0.9,1.2-2.3,1.9-3.3,2.9L17,26.2
				c-0.6,0.6-1.2,1.2-1.7,1.9c-0.2,0.2-0.6,0.3-0.6,0.1c-0.3,0.5-0.7,0.8-1.2,1.1c0.4-0.6-0.3,0,0.4-0.5c-0.7,0.5-0.9,0.5-1.4,1.3
				c0.1-0.4-0.7,0.2-0.9,0.5l0.6-0.3c-0.3,0.3-0.6,0.6-0.9,0.8V31c-1.5,0.9-1.9,2.6-3.2,3c-0.2,0.5,0.8-0.5,0.7,0
				c-0.3,0.2-0.7,0.4-1.1,0.6C7.3,34.8,7,35,6.6,35.3c-0.8,0.6-1,0.9-1.1,1.2c-0.2,0.4-0.5,0.8-0.9,1.1c0.4-0.2,1.1-0.4,0.6,0.1
				C5,37.9,4.8,38,4.6,38.1c0.1,0.1-0.4,0.4-1.2,0.5l0,0c0.1-0.1,0.3-0.2,0.4-0.3c0.2-0.2,0.4-0.5-0.2-0.1h0.1
				c-0.2,0.1-0.4,0.3-0.7,0.5c0.6,0.1,1.4,0.1,0.8,0.2C5,38.8,4.6,38.7,4,38.7c0.6,0.1,1.3,0.1,1.9,0.1c0.7,0,1.3,0,2.1,0
				c-0.2-0.1-0.4-0.2-0.1-0.2c0.4,0,0.8,0,1.1,0c0.2,0,0.2,0,0.3-0.1s0.1-0.2,0.7-0.2c0.6,0.2-0.2,0.4,0.8,0.3
				c0.6,0.1,0.1,0.3-0.1,0.4c0.8-0.1,1.6,0,2.3,0.2l0-0.1c0.3,0,0.5-0.1,0.8,0l-0.3-0.2c0.3,0,0.5,0,0.5,0.1
				c0.3-0.2-0.2-0.4,0.4-0.6c0.4,0.1,1.2-0.1,1.3,0.2c-1.2-0.1,0.1,0.3-0.9,0.3c0.2,0,0.5,0,0.7,0c0.1,0,0,0.1-0.1,0.1
				c1.2,0.3,0.5-0.3,1.8-0.3C17,38.9,17.5,39,17.7,39c-0.5,0-0.2-0.3,0.2-0.4c0.8,0.1,0.9-0.1,1.3-0.1l-0.5-0.1
				c0.2-0.2,0.5-0.1,1.1-0.2c0,0.1-0.5,0.1-0.3,0.2c0.6-0.3,1.4,0.3,2.2,0.1c0.4,0.1,0,0.3,0.4,0.4c1-0.2,1,0.2,2,0
				c-0.3-0.2-0.3-0.2,0.4-0.4l-1.8,0.2l1-0.3c-0.5,0-1,0.2-1.3,0.1c0.5-0.2,0.5-0.1,0.2-0.3c0.7,0.3,1.4-0.2,2.1,0v0.6
				c1.2,0.2,2.1-0.3,3.6-0.1l-0.5-0.1c0.2-0.2,1,0,1.5-0.1c0,0.2,0.3,0.2,0.5,0.4c0-0.1,1.1,0,1.3-0.4l0.7,0.2
				c1.2,0.1,1.4-0.5,2.6-0.5c-0.4,0.2,0.2,0.3-0.6,0.5c0.4,0,0.8,0,0.8-0.1c0.2,0.1,1.1-0.2,1.5-0.1c0.2-0.1,0.2-0.3,0.7-0.3v0.1
				c0,0,0.7-0.1,0.3-0.3c0.2,0.1,0.3,0.1,0.5,0.2c0.1,0,0.3,0.1,0.4,0.1c0.3,0,0.6,0,0.9,0c-0.1,0.5-0.3,0.9-0.6,1.2
				c-0.2,0.8-0.4,1.8-0.6,2.6c0-0.1-0.1,0,0-0.2c-0.5,1,0.3,0.8-0.2,1.9c-0.5,0.5,0-0.7-0.2-0.3c-0.6,0-0.3,1.5-0.9,2.2v-0.2
				C36,46,36.2,47,35.9,48c0,0,0-0.1-0.1,0c0,1-0.1,2.1-0.4,3.1c-0.2-0.4,0-0.5-0.3-0.4c-0.1,0.4,0.4,0,0.2,0.9
				c-0.2,0.2-0.5,0.8-0.8,0.8l0.2-0.8c-0.4,0.3-0.3,1-0.5,1.5L34.1,53c-0.3,1.2,0,1.4-0.4,2.7l0.2-0.1c0.1,0.8-0.4,0.6-0.3,1.4
				l-0.4,0.1c0,0.2-0.1,0.7-0.1,1.2L33,58.9c0,0.3-0.1,0.6-0.2,0.8c0-0.2,0-0.4,0-0.6c0-0.2,0-0.4,0-0.7c0-0.4,0.1-0.8,0.1-1.2
				c-0.1,0.2-0.2,0.6-0.3,1s-0.1,0.7-0.1,1.1c0-0.1,0-0.3,0.1-0.5s0-0.2,0-0.2c0-0.1,0-0.1,0.1-0.2c0,0.2,0,0.4,0,0.6
				c0,0.2,0,0.5-0.1,0.7c-0.1,0.5-0.2,1-0.3,1.5c-0.6,0.7-1,1.5-1.1,2.3c-0.4,1.3-0.9,2.6-1.4,3.8c0,0.2-0.1,0.4-0.1,0.6
				c1.1-1.2,1.9-1.9,2.8-2.8s2-1.8,3.1-3c-1,0.2,0.7-0.7,0.3-1.1c0.2-0.2,0.4-0.4,0.5-0.5s0.1-0.1,0.2-0.1l1.3-0.8
				c0.4-0.1-0.2,0.4-0.1,0.5c0.8-0.7,0.5-0.1,1.1-0.5c-0.2,0,0-0.5,0.5-0.8l-0.8,0.4c0.8-1.2,1.2-0.5,2-1.8L40.2,58
				c0.5-0.6,2-2,2.2-2.8c0.1,0,0.4-0.1,0.2,0.2c1.3-1.2,2.5-3.2,3.7-4v0.2c0.2-0.3,0.2-0.6,0.6-0.8c0,0.1,0,0.2,0.1,0.1
				c0.2-0.4,0.5-0.8,0.8-1.1l-0.2,0.4c1.4-1.1,1.6-2.2,2.6-3.3c0.3,0.3,1.4-0.6,1.9-1V46c1.2-1.3,2.4-2.7,3.4-4.2
				c1.2-0.5,2.9-2.7,4.5-3.8c-0.2,0.2-0.2-0.3,0-0.5c0.4-0.2,0.7-1.1,0.9-0.8l-0.1,0.1c0.5,0,1.1-0.7,1.6-1.2l-0.3-0.4
				c1.8-0.8,3.2-3.6,4.4-3.9c0.2-0.4,0.6-0.8,0.8-1.2l0.2,0.2c0.5-0.4,0.8-0.7,1.2-1.1l0.7-0.7l1.3-1.3c-0.1,0.1-0.1,0.3-0.2,0.5
				c0.6-0.6,0.7-1,0.7-1.3s-0.1-0.5,0.3-0.9l1.1-0.5l0.8-0.8c-1,0-2-0.1-3.1-0.1c-0.6,0-1.1,0-1.7,0c-0.3,0-0.6,0-0.9,0
				c-0.2,0-0.5,0-0.7,0.1c0,0,0-0.1,0.1-0.1c0,0,0.1-0.1,0.4-0.1H67h-0.4c-0.3,0-0.6,0-0.9,0c-0.6,0-1,0.1-0.9,0.4
				c0-0.4-1.6,0-2.4,0.1l0.1-0.3c-0.5,0.3-1.1,0.5-1.7,0.5c-0.2,0-0.2-0.2,0.1-0.1c-0.8-0.1-0.6,0.2-1.5,0.1l0.3-0.2
				c-0.4-0.1-0.8,0-1.2,0.3c-0.5,0.1-1.5-0.1-1.6-0.3c-0.3,0.2-0.6,0.3-1,0.3c-0.1-0.1,0.1-0.1,0.2-0.2c-1.3-0.2-1.9,0.3-2.8,0
				c0-0.1-0.1-0.1-0.2-0.2c1,0,1.9,0,1.8,0c0-0.2-0.8-0.3-0.2-0.6c-0.8,0.3-1.7,0.5-2.6,0.5c0,0-0.1,0-0.1-0.1h0.1
				c-0.2,0-0.3,0-0.5,0s-0.4-0.1-0.7-0.1c-0.1-0.2-1-0.1-1.4-0.1c0,0.3-0.5,0.2,0,0.4c-0.1,0,0.1,0,0.4,0c0.1,0,0.1,0,0.2,0l0,0h1
				c-0.3,0.2-0.8,0.2-1.1,0.1c-0.2,0.2-0.4,0.3-0.6,0.4c-0.6-0.4-1.7-0.6-1.8-0.8c-1.3,0.1-3,0.1-3.8,0.6c-0.4,0.1-0.4-0.1-0.5-0.2
				c0.2,0,0.4-0.1,0.6-0.1c-0.7,0.1-2.1,0-2.3,0.4c-0.9-0.2,0.5-0.3-0.7-0.3h0.2h-0.3h-0.1c-0.1,0-0.2,0-0.2,0
				c-0.2,0-0.4,0.1-0.6,0.1c-0.1-0.3-0.1-0.7-0.1-1c0.1-0.8,0.4-1.5,0.8-2.2c-0.1,0.2-0.2,0.2-0.2,0.3c1.2-2.9,1.6-6.2,3-9
				c0.2-0.5,0.3-1,0.2-1.5l0.3-0.1v-1c0.2-1.3,1.3-1.9,1.4-3.6L45,6.6c0.2-0.6,0.4-1.8,0.6-1.7c-0.1-0.1-0.1-0.3,0-0.4h0.2L46,3
				c0.4-1,0.5,0.3,1-1.2c0.1-0.6,0.1-1.8-0.1-1.6s-0.3,0.6-0.4,0.5l0.1-0.5C46,0.1,45.7-0.5,45,0.7v1L44.7,2L45,1.2
				c-0.2,0.3-0.3,0.7-0.2,1c-0.2,0.1-0.3,0.2-0.3,0.3l0.1,1c-0.2,0.1-0.2-0.5-0.5,0.1c0.1,0.5,0.5-0.3,0.4,0.4
				C44.2,4.4,44,4.2,44,4.8c-0.1,0-0.2-0.1-0.2-0.3c0,0.5-0.3,1.2-0.2,1.5c-0.4,0.4-0.4,1.6-0.8,1.4c0.1,0.4,0,0.9,0,1.3
				c-0.2-0.9-0.5,1.6-1,1.2c0.3,0.7-0.4,2.1-0.5,3.2c0-0.1,0-0.2,0-0.3c-0.2,0.4-0.4,0.7-0.6,1c0.3,0.2,0.2,1.1,0.2,1.6
				c-0.6,0.6-0.3-0.5-0.7-0.4c0.3,0-0.1,1.3,0.2,1.1c-0.4,0.5-0.2,0.4-0.6,0.6c0.4,0.2-0.1,0.5,0.1,1c-0.5,0.7-0.5,0.1-0.6,0.9
				C39.1,19.1,39.2,18.3,39.2,18.3z M52.5,26.2L52.5,26.2H52H52.5z M54.2,26.2h-0.8c-0.1-0.1,0-0.2,0.2-0.2
				C53.6,26,54,26.1,54.2,26.2L54.2,26.2z M50.5,24.3c0.3,0,0.4,0,0.4,0.1L50.5,24.3L50.5,24.3C50.5,24.4,50.5,24.3,50.5,24.3
				L50.5,24.3z"/>
		</g>
	</g>
</g>
</svg>
