<svg xmlns="http://www.w3.org/2000/svg" viewBox="0 0 97 97.01"><title>Element 213</title><g id="Ebene_2" data-name="Ebene 2"><g id="Ebene_2-2" data-name="Ebene 2"><path d="M63.86,48.58c.08,0,.28,0,.23-.1l-.33-.07Z"/><path d="M64.41,47.76a.76.76,0,0,0-.76-.11c.33.08.2.13.59.24,0,.11-.09.21-.22.2.09,0-.06.18.16.24a.31.31,0,0,0,0-.56A.28.28,0,0,1,64.41,47.76Z"/><path d="M56.82,38.9l0,.07A.18.18,0,0,0,56.82,38.9Z"/><path d="M49.38,37.21c.06,0,.09,0,.09-.07S49.37,37.18,49.38,37.21Z"/><path d="M48.07,36.83l.08,0S48.09,36.8,48.07,36.83Z"/><path d="M56.82,38.9l-.16-.17C56.61,38.83,56.73,38.84,56.82,38.9Z"/><path d="M63.29,46.41a.35.35,0,0,0,.12.07l-.07-.08Z"/><path d="M60,40.21l.06,0,.12-.08Z"/><path d="M62.11,41.81c0-.05-.25.14-.35.21A.28.28,0,0,1,62,42,.74.74,0,0,0,62.11,41.81Z"/><path d="M64.15,45.49l.07.06Z"/><path d="M58.35,39.23a.93.93,0,0,0,0-.1A.17.17,0,0,0,58.35,39.23Z"/><path d="M62.71,50.93l0,0S62.72,50.92,62.71,50.93Z"/><polygon points="64.6 48.58 64.61 48.62 64.77 48.63 64.6 48.58"/><path d="M45.6,36.63h0C45.67,36.59,45.64,36.6,45.6,36.63Z"/><path d="M31.89,51.82c.14-.34.46.29.57-.19C32.38,51.71,31.92,51.44,31.89,51.82Z"/><path d="M63.3,46.35l0-.09A.19.19,0,0,0,63.3,46.35Z"/><path d="M32.46,51.63h0v-.05Z"/><path d="M40.11,38.11a.28.28,0,0,0,.1.09A.48.48,0,0,0,40.11,38.11Z"/><path d="M44.26,37.39h-.11A.22.22,0,0,0,44.26,37.39Z"/><path d="M38.27,39.37c-.06,0-.1,0-.15.05l0,0S38.19,39.36,38.27,39.37Z"/><path d="M36.33,40.55l.06,0,0,0Z"/><path d="M59,55.29a1.84,1.84,0,0,1,.22.17C59.08,55.31,59.3,55.1,59,55.29Z"/><path d="M63.44,46.36a.2.2,0,0,1-.14,0l0,0A.23.23,0,0,0,63.44,46.36Z"/><path d="M39.22,41.37l-.3.11A1.38,1.38,0,0,0,39.22,41.37Z"/><path d="M44.87,57.89l.08,0A.06.06,0,0,0,44.87,57.89Z"/><path d="M38.14,42a.48.48,0,0,0-.26-.08.22.22,0,0,0,0,.08Z"/><path d="M59.22,55.46Z"/><path d="M60.42,53.67c-.22.18.14.35.24.55-.2.32-.3-.09-.52-.15-.09.22,0,.59-.16.67s-.08,0-.1-.12c0,.38-.55.43-.58.9l-.08-.06a1.81,1.81,0,0,1,.32.4c-.12.08-.1.33-.28.16.08,0,0-.13,0-.21l-.07.16c-.3-.22.11-.2,0-.42-.18.24-.32.67-.56.7-.21-.27.38-.37,0-.48l.36-.06c-.5-.32.19-.07-.31-.44-.42.13-.32.41-.75.53,0,.21.16.23.16.44-.41.59-.82-.55-1,.06,0,.26.12.67-.28.59l0-.39c-.41.12,0,.6-.53.53,0-.17.26-.25.19-.27-.38-.17-.11.28-.32.37l-.17-.3c-.4.22-.81.58-1.28.81,0-.11,0-.24-.09-.3a3.09,3.09,0,0,1-2,.21l-.18.33a.13.13,0,0,1-.07-.18c-.26-.07,0,.18-.08.32s-.2-.14-.13-.24a1.65,1.65,0,0,1-1.62.43l.08-.1c-.36-.09-.35.66-.7.39l.06-.06c-.77-.09-1.62.21-2.2-.27-.12.41-.74-.22-.82.37-.42-.34-.29-.43-.87-.69-.16,0-.28.35-.49.39l0-.31-.31.28-.09-.38-.2,0a.24.24,0,0,1,.11.25c-.32.09-.68-.33-.65-.49a6.17,6.17,0,0,1-.73.12c0-.11.16-.13.26-.18-.42.22,0-.34-.38-.14,0,.08-.06.18-.09.24a.88.88,0,0,0-.79-.31l.11-.19c-.47-.18-1-.22-1.59-.4.16.16,0,.49-.18.47l0-.33c-.17.14.12.18-.17.32-.19-.11,0-.4.14-.45h-.28c0-.1.1-.12.16-.23-.18.14-.29-.47-.56-.21l0-.09c-.52-.21-.78-.25-1.2-.43-.14.24-.27.11-.51.24-.25-.26-.45-.64-.81-.83s-.2.15-.41.21c.13-.22-.21-.44.07-.47a6.78,6.78,0,0,0-1.14-.55c0,.12,0,.21-.07.25a.22.22,0,0,1,0-.34h0c-.39-.09-.57-.49-.68-.89s-.24-.73-.6-.79h0l-.55-.29c-.11-.23.25,0,.28-.22a.8.8,0,0,1-.51-.55A1.14,1.14,0,0,0,34,51c.3-.32.13-.58,0-.89s-.31-.62-.06-.89l-.17,0c-.18-.1.09-.16.12-.25-.13,0-.15.15-.25.08a3.7,3.7,0,0,1,.93-3c.21-.32-.72-.61-.1-.87l.22.29c0-.93.94-1.36,1.26-2.18,0,.09.09.16,0,.22.28,0,.49-.43.36-.58.11-.07.14.11.27.13s.12-.54.36-.41c0,0,0,.09,0,.13,0-.16.45-.3.2-.45.33-.08.41-.48.72-.48,0-.34.55-.16.37-.56.22.4.66,0,.76-.25,0,.15.22,0,.24.25.2-.11.36-.28.22-.47.61.28.62-.77,1.12-.23a8.2,8.2,0,0,1,1.72-1.15c.11.44-.67.26-.49.71.5-.37.74-.85,1.37-.88.16,0,0,.22-.08.3.55-.34,1.15-.22,1.64-.55,0,0,0,.1-.09.14.1,0,.26,0,.21-.17l-.09.07c-.22-.26.32-.69.32-.85-.1.61.57.07.38.85a.27.27,0,0,0,.1-.29c.11,0,.16.11.07.27.37-.14.21-.35.56-.38,0,.1-.06.15-.08.27.15-.22.31-.43.62-.37,0,.06,0,.13-.06.14.5-.07.84-.55,1.42-.39-.16.44.19.14.22.51a1.82,1.82,0,0,1,.3-.11l-.12-.19c.26,0,.5-.25.73-.12l-.2.15.5,0-.28-.15c.28-.19,0-.48.34-.36-.07,0,.28,0,.4.24h0c.14-.12.29-.22.48-.11s-.08.41,0,.49c.16-.3.62,0,.83-.34a.51.51,0,0,0-.08.31l.14-.24c.11.09.13.13.09.29.36.08-.06-.49.35-.23,0,0,0,.06-.1.08.42.18.87,0,1.25.18.05.39-.37,0-.29.37a5.42,5.42,0,0,1,1.8,0l-.09-.06c.22-.5.34.36.68.21-.08,0-.17.25-.14.2.34.21.79.1,1.4.17l-.12.1c.17.2.53.29.73.44.13-.1.25,0,.25-.24.34,1,1.51.25,1.77,1.18-.07,0-.23,0-.17,0l.55.19c.08-.22,0-.16,0-.37a.5.5,0,0,1,.46,0c-.31,0-.2.31-.18.48,0-.07.1-.11.13-.18,0,.52.31-.35.48.13l-.09.08c.16,0,.38,0,.49.13-.1.25-.21,0-.35.17.19.12.7-.13.68.22-.12,0-.23-.1-.36-.1,0,.38.05.35.14.49h0l.19.36,0-.13c.68-.32.54.28,1.11.26-.57,0-.22.13-.46.31,0,.13,0,.31-.06.33.31,0,.05.34.49.3-.06.07.12.14-.09.27.18.13.1-.15.2-.21.47.1.18.88.8,1.07.37.3.73.21,1,.55-.09.2-.36,0-.36,0a.54.54,0,0,0,.21.58c-.09,0-.14.06-.22.16.08.14.37,0,.32.24a1.59,1.59,0,0,1-.43,0,3.67,3.67,0,0,1,.5.47c-.16.09-.28-.06-.4-.1.12.2.27.53.56.56l.06-.17c0,.09-.22.09-.28,0-.25-.15,0-.3.12-.33l.09.13c.52-.28-.2-.59-.3-.86h.44L63.76,46c.08-.1.28-.23.39-.1.11-.29-.21-.13-.07-.41,0,0,0,0,.07,0L64,45.33c.09,0,.25-.16.25,0,0-.49-.59-.45-.38-.73h0c-.4-.43-.3.1-.8-.07.17-.21.32-.42.47-.64l-.29.12c0-.05-.07-.16,0-.21-.29-.06-.08.1-.32.12.07-.4-.54-.54-.22-.88-.25.07,0,.31-.28.19.34-.4-.3-.19-.29-.54.25-.12.31.16.31-.2-.43.2-.26-.45-.5-.53-.26.26-.46-.21-.81-.36.11-.09-.41-.57-.61-.88l0,0c-.27.27-.5,0-.76-.08a.43.43,0,0,1,.38-.23l-.2-.13a.43.43,0,0,1-.37,0l.2-.2c-.29-.16-.72-.07-1-.43-.14.22-.06.77-.51.73,0-.12.14-.34.27-.34,0,0-.17,0-.21,0l.27-.13c-.12-.17-.18.13-.3,0,.09-.17,0-.17,0-.3s.08.13.17.09a.72.72,0,0,1-.26-.47c0,.11-.12.24-.24.21-.29-.13,0-.27-.12-.44-.13.09-.25-.14-.38.14-.08,0,0-.17,0-.26-.2.06-.73-.26-.67.1l0,0h0c-.6.06-1-.55-1.54-.59l0-.1c-.33,0-.69-.15-1,0a.25.25,0,0,1-.1-.33c-.25,0-.3.12-.61-.13.28-.11-.05-.16.27-.06-.28-.15-.32-.34-.71-.14.16-.23-.18-.35-.34-.3l.18.21a1.18,1.18,0,0,1-.46-.09l.14-.31c-.59-.52-1.26.49-1.67-.22-.2.21.33.19.15.45-.29-.08-.56-.58-.66-.59-.4-.23-.42.44-.84.3a.39.39,0,0,1-.24.54c-.29-.06-.34-.51-.15-.6s.11,0,.1.07.23-.09.12-.22l-.05.12c-.14-.13-.56-.13-.46-.32-.23.11-.1.19.07.26-.38-.18-.6,0-1-.13.06.06.12.2.06.2-.59-.13-.25.23-.64.3-.23-.18.06-.44-.33-.27-.25-.12-.07-.32,0-.42-.36.24-.7-.12-.91-.13l.18-.12a.61.61,0,0,1-.3.09l.13.22c-.12,0-.21,0-.22-.12-.1.17.12.39-.08.62-.16-.1-.44.18-.53-.13.48.06-.09-.31.31-.4a.35.35,0,0,1-.29,0s0-.06,0-.08c-.49-.23-.17.36-.63.42,0-.19-.16-.31-.23-.26.19,0,.13.27,0,.44-.32-.09-.3.15-.46.16l.19,0c0,.18-.18.19-.38.28,0-.14.17-.13.09-.18-.17.36-.58-.24-.85,0-.17-.08-.09-.32-.24-.37-.3.31-.44-.14-.77.14.17.2.17.14,0,.43l.57-.31-.31.43c.18,0,.35-.24.47-.23-.14.24-.14.17,0,.34-.34-.28-.44.33-.79.16l-.15-.57c-.51-.13-.68.53-1.28.57l.21,0c0,.24-.33.13-.48.29,0-.19-.18-.21-.3-.3.06.13-.41.15-.31.54l-.35-.14c-.48.08-.27.71-.69.86,0-.26-.22-.29,0-.57-.14.07-.28.1-.22.22-.14-.07-.26.43-.47.33,0,.1.06.29-.1.35a.14.14,0,0,1,0-.08c0,.08-.17.24.06.36-.69-.28-1.08.68-1.69.5a10.32,10.32,0,0,1-.74.74c0-.06-.06-.08,0-.1-.43.14.18.6-.3.75-.4-.07.07-.29-.13-.28-.48-.43-.38.43-.85.41l0-.09c-.33,0-.23.63-.54.9,0,0,0-.06-.07-.07a2.6,2.6,0,0,1-.27,1.27c-.15-.24,0-.22-.27-.3-.07.16.37.19.24.5-.17,0-.4.18-.65.08l.15-.31c-.39,0-.2.39-.34.52l-.13-.1c-.21.49.14.66-.07,1.16h.13c.26.4-.3.15-.13.52l-.41,0a7.11,7.11,0,0,1,.2,1.12,2.66,2.66,0,0,1-.4-1c-.05.2-.13.69,0,.82,0-.08-.09-.2,0-.27a1.37,1.37,0,0,1,.29,1c-.76-.14-.28,1-.81,1.3.32.7.07,1.47.39,2.29.45-.47.1.23.66,0,.1.16.12.22.08.26a4.92,4.92,0,0,0-.1.67c-.1.2-.21-.1-.33,0,.16.4-.15.27-.15.61.17-.15.35,0,.4.25l.08-.45c.58.35-.22.75.41,1.07l-.27,0c.29.18.67,1,1.26.86,0,.09-.09.25-.22.18a3,3,0,0,0,.93.71,1.42,1.42,0,0,1,.77.66l-.13.08c.13.05.34-.06.38.15,0,0-.13.09-.09.13s.45,0,.53.18l-.22,0c.45.59,1.1.29,1.64.49-.23.36.15.79.37,1l0,.05a4.88,4.88,0,0,0,2.12.4c.24.64,1.37.72,2,1.19-.08-.11.11-.32.25-.33s.53-.19.4.2l0,0c0,.41.4.39.66.47l.16-.51c.55.91,1.87.07,2.15.79.19-.12.4-.09.58-.21l0,.28a3,3,0,0,0,1.3.14l-.13.2c.34,0,.46-.8.76-.81l.08.43c.57,0,1.18.35,1.73,0,0,.06,0,.18-.11.2.28,0,1.09.24.94-.34,0,.37.6,0,.89-.22l0,.28c.22-.39.22-.47.56-.62.09,0,.11.2,0,.15.31.1.18-.3.55-.21l-.1.2c.3,0,.26-.12.38-.35a.49.49,0,0,1,.66.21c0-.15.12-.4.3-.36a.17.17,0,0,1,0,.19c.53.07.64-.49,1-.3a.28.28,0,0,0,.1.14,4.08,4.08,0,0,1-.67.13c.06.25.39.21.22.62.21-.26.53-.75.86-.74l.07.07,0,0a.22.22,0,0,0,.18-.1.6.6,0,0,0,.27,0c.1.2.39,0,.55,0-.1-.26.11-.28-.15-.44,0,0,0,0-.12.08l-.05,0v0l-.37.14c.08-.17.16-.33.38-.23,0-.2,0-.4.06-.5.33.32.8.35.94.55.4-.33,1-.53,1.09-1.16.09-.12.21.07.29.12s-.14.12-.14.21c.19-.25.71-.42.59-.77.39,0,0,.39.39.1v.14c.55,0,.77-.41,1-.79s.41-.8,1.06-.81A.21.21,0,0,1,61,56a3.62,3.62,0,0,0,1.38-1.2,6.81,6.81,0,0,1,.59-.7,2.67,2.67,0,0,1,.71-.62c.29-.22.11-.38.06-.66l.29.09-.13-.48c0-.52,1-.49.84-1.28h-.22c.14-.2.07-.73.3-.63,0,0-.19-.12-.07-.19l.16,0-.15-.6c.15-.42.62.16.7-.51,0-.26-.41-.72-.52-.62a.3.3,0,0,1-.27.24l-.07-.21c-.46,0-.93-.16-1.29.25l.26.32-.23.07V49c-.22.13,0,.23.08.34a.39.39,0,0,0-.25.09c.14.12.25.24.38.37-.19,0-.33-.2-.47,0,.17.18.43-.05.51.21-.24.1-.4,0-.26.22a.23.23,0,0,1-.22-.14c.1.18,0,.4.17.55-.31.05-.13.51-.53.33.08.08.24.39.18.52-.35-.45-.29.45-.75.12a.49.49,0,0,1,.06.55,1.08,1.08,0,0,0-.2.55s-.06-.11,0-.12c-.14.13-.29.09-.43.13.31.27.18.56.24.84-.44-.07-.24-.41-.57-.59.25.2,0,.51.21.63-.29,0-.19,0-.49-.11.33.36,0,.18.05.5-.36,0-.36-.29-.48,0C60.35,54,60.42,53.67,60.42,53.67Zm-5.79,4.06h0l.14-.06Zm-.6.16.26-.06c.05.09.05.2,0,.21S54.14,58,54,57.89Zm1.87,1.48c-.09.07-.15,0-.18,0l.17-.09v0A.86.86,0,0,1,55.9,59.37Z"/><path d="M56,59l0,0-.08,0V59Z"/><path d="M56.89,39h0s0,0,0,.05S56.89,39,56.89,39Z"/><polygon points="45.56 57.86 45.55 57.93 45.61 57.87 45.56 57.86"/><path d="M59.56,41.46a.22.22,0,0,0,0,.09A.22.22,0,0,0,59.56,41.46Z"/><path d="M60.68,42.4l.09.21A.87.87,0,0,0,60.68,42.4Z"/><path d="M61.4,43.26a.29.29,0,0,0,.1-.07h0Z"/><path d="M44.66,39.23l0,0C44.53,39.33,44.59,39.29,44.66,39.23Z"/><path d="M50,38.3a.63.63,0,0,1-.18.12C49.91,38.45,50,38.46,50,38.3Z"/><polygon points="39.25 41.36 39.25 41.36 39.22 41.37 39.25 41.36"/><path d="M49.56,38.41a.25.25,0,0,0,.26,0A.39.39,0,0,0,49.56,38.41Z"/><path d="M63.51,47.32v0h0Z"/><path d="M63.55,47.37l.05,0S63.58,47.37,63.55,47.37Z"/><path d="M63.69,47.52l-.09-.11A.1.1,0,0,0,63.69,47.52Z"/><path d="M63.22,46l-.1,0A.22.22,0,0,0,63.22,46Z"/><path d="M63,45.57c0,.1-.08.32,0,.42l.08,0C63,46,63.24,45.58,63,45.57Z"/><path d="M63,43.26l.18.39c.05-.13.11-.29.24-.15C63.41,42.87,63.33,43.73,63,43.26Z"/><path d="M62.3,42.19c.19.13.11-.11.17-.15C62.3,42,62.26,42,62.3,42.19Z"/><path d="M54.25,37.89l.08-.24C54.16,37.64,54.31,37.75,54.25,37.89Z"/><polygon points="52.31 38.84 52.44 39.02 52.55 38.8 52.31 38.84"/><polygon points="51.58 36.88 51.66 36.85 51.36 36.92 51.58 36.88"/><path d="M36.52,40.1l.21.24C36.8,40.23,36.63,39.92,36.52,40.1Z"/><path d="M32.28,45.52c-.17,0-.34.17-.24.34C32.12,45.71,32.29,45.61,32.28,45.52Z"/><path d="M43.46,60.07l-.16.07.27,0Z"/><path d="M30.91,71.21c-.09,0-.29,0-.24.08l.34.06Z"/><path d="M30.35,71.91a.85.85,0,0,0,.75.1c-.32-.08-.19-.12-.58-.21-.05-.1.09-.19.22-.18-.09,0,.06-.15-.15-.2-.25.14-.25.32,0,.47C30.5,71.94,30.41,71.91,30.35,71.91Z"/><path d="M35.67,80.43l0-.06A.07.07,0,0,0,35.67,80.43Z"/><path d="M41.58,83.16s-.08,0-.09,0S41.58,83.19,41.58,83.16Z"/><path d="M42.58,83.78l-.06,0S42.56,83.8,42.58,83.78Z"/><path d="M35.67,80.43l.1.18C35.84,80.53,35.73,80.5,35.67,80.43Z"/><path d="M31.35,73.09a.17.17,0,0,0-.1-.06.18.18,0,0,1,.05.07Z"/><path d="M33.21,78.88l-.05,0-.12.07Z"/><path d="M31.63,77.23s.25-.1.36-.16c-.11.05-.17.05-.22,0A1.84,1.84,0,0,0,31.63,77.23Z"/><path d="M30.38,73.85l-.06,0Z"/><path d="M34.41,80a.23.23,0,0,0,0,.09A.36.36,0,0,0,34.41,80Z"/><path d="M50.83,60.45V60.4S50.81,60.44,50.83,60.45Z"/><polygon points="48.46 58.93 48.5 58.92 48.5 58.76 48.46 58.93"/><path d="M44.56,84.51h0S44.53,84.52,44.56,84.51Z"/><path d="M62.82,80.19c-.33-.07.09-.47-.34-.5C62.57,79.76,62.5,80.22,62.82,80.19Z"/><path d="M31.33,73.15s0,0,0,.07A.12.12,0,0,0,31.33,73.15Z"/><path d="M62.48,79.69Z"/><path d="M49.35,84.58a.33.33,0,0,0-.05-.12A.42.42,0,0,0,49.35,84.58Z"/><path d="M45.84,84.07l.08.05A.25.25,0,0,0,45.84,84.07Z"/><path d="M51.16,84.07c.05,0,.07.05.13,0s0,0,0,0S51.22,84.1,51.16,84.07Z"/><path d="M53,83.82l0,0-.06,0Z"/><path d="M56.06,61.37a1.13,1.13,0,0,1,0-.26C56,61.31,55.76,61.29,56.06,61.37Z"/><path d="M31.2,73.13c.07,0,.11,0,.13,0l0-.05A.15.15,0,0,0,31.2,73.13Z"/><path d="M51,81.85h.28A1.26,1.26,0,0,0,51,81.85Z"/><path d="M65.12,68.83l-.06,0S65.08,68.82,65.12,68.83Z"/><path d="M52.11,81.73a.37.37,0,0,0,.18.16.14.14,0,0,0,0-.07Z"/><path d="M56.06,61.1h0Z"/><path d="M54.12,61.26c.25.07.21-.32.31-.52.34,0,.08.3.13.51.22,0,.45-.34.59-.29s0,.09,0,.15c.28-.23.59.18.94-.1v.09a2,2,0,0,1,.12-.49c.12,0,.29-.15.26.09-.07,0-.11.06-.17.12l.16-.06c0,.37-.21.06-.29.31.27,0,.64-.22.79-.07-.07.34-.46,0-.32.34l-.23-.21c0,.57-.16-.09-.15.51.32.21.46,0,.77.2.15-.15.08-.27.22-.42.64-.11.07.95.61.68.18-.16.4-.55.56-.22l-.24.3c.31.2.42-.4.65,0-.13.11-.31,0-.28,0,.09.39.25-.11.42,0l-.11.33a10.57,10.57,0,0,1,1.26.27c-.07.08-.19.13-.15.27a1.75,1.75,0,0,1,.72.42,3.67,3.67,0,0,1,.51.7l.33-.12s0,.15-.08.17c.09.2.12-.14.27-.18s0,.23-.1.25c.43,0,1.11.27,1.18.74h-.12c.14.27.66-.19.65.2h-.07a6.21,6.21,0,0,0,.61.73,1.14,1.14,0,0,1,.27.84c.43-.17.17.6.68.33-.08.46-.22.42-.17.93,0,.12.41,0,.53.14l-.29.13.38.08-.3.24.12.1a.25.25,0,0,1,.18-.18c.22.18,0,.6-.17.65l.37.46c-.12,0-.18-.07-.28-.12.37.21-.3.12,0,.31.06-.05.18,0,.24,0a.7.7,0,0,0,0,.66l-.21,0a1.82,1.82,0,0,0,.07.6,2.28,2.28,0,0,1,0,.64c.11-.15.48-.09.5,0l-.32,0c.19.1.13-.13.36.07,0,.17-.38.07-.47,0l.09.21c-.09,0-.14,0-.26-.08.2.12-.35.29,0,.46h-.1c-.11.41,0,.64-.12,1,.27.1.16.21.33.39a4.42,4.42,0,0,0-.62.73c0,.27.18.17.27.34-.23-.1-.37.2-.45,0a6.24,6.24,0,0,0-.32,1c.11,0,.19,0,.24.07s-.21.11-.31,0v0c0,.75-1.42.54-1.32,1.24v0c0,.18-.11.35-.17.52s0-.23-.26-.23c-.11.66-.64.51-.82,1-.71-.41-.93.75-1.6.56l.12.14c0,.21-.18,0-.27,0,.08.11.19.07.18.19-.76.71-2,.75-2.95,1-.36.09.13,1-.47.71l0-.36c-.6.61-1.48.48-2.13,1,0-.08,0-.18.07-.19-.21-.2-.57.12-.53.32-.12,0-.06-.17-.15-.25s-.33.38-.46.16c0,0,0-.08,0-.1s-.48,0-.33.3c-.31-.08-.52.22-.77.09-.1.34-.5-.07-.49.37,0-.45-.54-.32-.7-.08,0-.15-.17-.13-.11-.33-.21,0-.38.13-.33.36-.41-.49-.74.49-1-.19a6.64,6.64,0,0,1-1.72.53c0-.45.61,0,.59-.5-.52.18-.83.55-1.35.42-.13-.06.08-.19.13-.27-.53.19-1-.09-1.48.1,0,0,.06-.08.11-.11-.1,0-.21-.09-.22.12l.1,0c.11.31-.44.58-.47.74.22-.57-.45-.2-.11-.91a.3.3,0,0,0-.16.26c-.08,0-.1-.13,0-.28-.34.08-.25.3-.55.25,0-.1.08-.13.13-.24-.18.17-.36.33-.6.21,0-.06,0-.14.09-.13-.43,0-.84.4-1.27.1.23-.39-.13-.18-.07-.55l-.27.05.06.2c-.22-.06-.48.16-.64,0l.2-.1-.42,0L42,82c-.27.13-.1.46-.37.29.07,0-.22-.06-.27-.32h0c-.14.08-.29.17-.42,0s.15-.39.15-.47c-.2.26-.53-.08-.77.19a.6.6,0,0,0,.14-.29l-.18.22c-.07-.11-.07-.16,0-.3-.29-.14-.07.48-.35.17,0,0,0,0,.1-.07-.31-.23-.73-.12-1-.36.05-.39.32,0,.33-.31-.48-.11-1.12,0-1.51-.29l.06.07c-.3.45-.21-.39-.54-.28.08,0,.21-.22.17-.18a3,3,0,0,0-1.16-.33l.13-.08c-.1-.21-.4-.32-.54-.49-.12.08-.21,0-.26.2,0-1-1.27-.39-1.27-1.29,0,0,.19,0,.15,0l-.44-.23c-.12.2,0,.15-.09.35a.42.42,0,0,1-.41,0c.28,0,.26-.27.28-.43,0,.06-.12.1-.16.16.1-.47-.37.31-.41-.15l.1-.07c-.14-.06-.34,0-.41-.17.16-.22.19,0,.36-.12-.15-.13-.65,0-.57-.26.12,0,.2.1.31.11.1-.35,0-.31,0-.45v0a2.19,2.19,0,0,1-.1-.34l0,.12c-.69.23-.39-.32-1-.33.54,0,.23-.1.5-.25,0-.11,0-.27.11-.29-.28,0,0-.29-.39-.29.08-.06-.07-.15.16-.24-.16-.13-.13.12-.24.17-.43-.11,0-.79-.57-1-.31-.27-.64-.22-.93-.52.1-.17.37,0,.37,0a.48.48,0,0,0-.15-.51c.09,0,.15,0,.25-.12-.06-.13-.37,0-.27-.23a2,2,0,0,1,.41,0c-.12-.14-.34-.26-.47-.42.16-.08.28,0,.4.09-.12-.17-.26-.46-.51-.49l-.09.14c0-.07.23-.07.28,0,.23.13,0,.25-.14.28l-.09-.12c-.53.23.21.5.23.75h-.43l.4.18c-.09.09-.31.19-.4.08-.15.25.17.13,0,.35,0,0-.05,0-.07,0l.18.15c-.09,0-.26.12-.25,0-.1.41.49.42.25.66l0,0c.31.4.3-.07.76.11l-.57.53.3-.09s0,.14-.08.18c.28.07.1-.08.33-.08-.13.34.42.5,0,.8.24,0,.05-.3.3-.16-.41.35.24.19.17.5-.27.1-.27-.16-.34.16.45-.15.17.41.35.51.3-.21.35.25.67.39-.11.06.24.56.34.88l-.05,0c.3-.21.46,0,.68.13a.44.44,0,0,1-.4.18l.15.14a.4.4,0,0,1,.34,0l-.22.17c.22.18.62.13.77.5.17-.19.23-.72.63-.64-.08.12-.22.31-.33.3s.16,0,.18.06l-.27.09c.07.18.19-.1.28,0-.13.16,0,.17-.12.28s0-.13-.13-.1a.6.6,0,0,1,.12.47c.06-.1.16-.22.26-.17s-.07.24,0,.42c.14-.07.2.15.37-.09.06,0,0,.17,0,.25.18,0,.58.33.61,0l0,0h0c.54,0,.71.65,1.18.75l0,.09c.3,0,.58.21.84.1a.28.28,0,0,1,0,.34c.22,0,.28-.06.48.21-.26.07,0,.18-.24,0,.2.2.21.35.58.22-.19.19.07.37.22.35l-.11-.24a.89.89,0,0,1,.37.16l-.19.28c.38.6,1.17-.28,1.36.48.21-.17-.24-.24,0-.46.23.12.34.66.41.68.29.29.46-.36.77-.14,0-.12,0-.44.32-.48s.18.56,0,.61-.08,0-.06-.09-.21.05-.15.2l.06-.11c.1.15.44.22.31.39.22-.07.13-.17,0-.26.28.24.5.12.8.32,0-.08-.06-.23,0-.22.45.26.25-.15.59-.15.15.21-.15.41.21.32.18.16,0,.32-.12.4.35-.17.55.25.72.32l-.18.07a.42.42,0,0,1,.27,0l0-.25c.09,0,.17.07.15.17.12-.14,0-.41.21-.58.11.14.4-.06.4.25-.38-.17,0,.32-.35.32a.24.24,0,0,1,.24,0s0,.06,0,.08c.35.32.23-.33.62-.29-.07.18,0,.35.12.32-.16,0,0-.3.12-.43.24.17.29-.07.42,0L45.69,84c.07-.17.19-.14.37-.17,0,.14-.16.07-.11.14.22-.29.41.38.7.18.12.12,0,.33.1.42.32-.22.33.25.66.07-.08-.24-.1-.18.13-.4l-.53.14.35-.33c-.16,0-.34.14-.43.09.17-.18.15-.13.08-.33.2.37.44-.19.68.06l0,.59c.38.27.69-.26,1.18-.14l-.16-.1c.06-.23.3,0,.46-.14,0,.2.09.27.16.39,0-.15.37,0,.39-.4l.24.25c.4.1.42-.57.79-.54-.09.22.09.34-.15.52.13,0,.24,0,.23-.12.09.11.33-.3.47-.13,0-.09,0-.3.18-.29a.16.16,0,0,1,0,.09c0-.09.21-.15.06-.36.46.59,1.06-.17,1.48.29a4.26,4.26,0,0,1,.82-.29c0,.06,0,.09,0,.08.38.12.1-.59.52-.48.26.26-.17.22,0,.31.2.62.44-.2.79.1l0,.05c.25.17.43-.35.76-.39a.2.2,0,0,0,0,.09,1.73,1.73,0,0,1,.78-.8c0,.27-.1.17,0,.39.12-.07-.17-.38.08-.53.13.1.36.15.48.4l-.25.1c.25.3.33-.12.48-.1l0,.15c.38-.2.24-.58.66-.72L58,82c.08-.45.27.13.39-.23l.22.34a6.19,6.19,0,0,1,.58-.77,2.11,2.11,0,0,1-.38.86c.15,0,.48-.26.47-.47,0,.06-.07.18-.15.16a.88.88,0,0,1,.49-.76c.3.71.82-.19,1.31.19.34-.55,1.06-.48,1.58-.94-.55-.34.15-.13-.25-.6.1-.12.15-.15.19-.13h.6c.2.07,0,.2.06.29.31-.17.28.12.56.09-.17-.14-.11-.32.1-.4l-.39,0c.14-.57.65.1.81-.47v.24c.13-.23.7-.66.5-1.19.08,0,.25.08.2.2.5-.4.47-1.37,1-1.59L66,77c0-.12-.12-.32.09-.36.05,0,.1.12.14.08s-.07-.4.08-.49l.08.21c.46-.46.12-1,.2-1.51.41.19.72-.22.87-.43l.06,0a1.48,1.48,0,0,0,.1-1c0-.33-.12-.64-.15-1,.5-.35.36-1.37.52-2-.07.11-.34,0-.39-.11s-.34-.38.06-.41V70c.39-.17.23-.49.18-.74l-.53.07a1,1,0,0,0-.06-1.15c-.21-.34-.42-.62-.17-.93-.17-.1-.25-.27-.45-.35l.26-.11a3.17,3.17,0,0,0-.54-1.07h.23c-.15-.28-.91.13-1.07-.08l.3-.31a5.21,5.21,0,0,1-.35-.71.9.9,0,0,0-.63-.48s.15-.11.22,0c-.15-.19-.43-.91-.78-.43.26-.27-.37-.38-.68-.43l.22-.18c-.41.11-.47.18-.77.05,0-.08.09-.22.12-.1-.09-.28-.31.07-.45-.22l.2-.07c-.2-.17-.24-.08-.48,0s-.34-.34-.22-.57c-.12.11-.35.19-.43,0a.2.2,0,0,1,.15-.11c-.23-.41-.7-.07-.8-.45a.45.45,0,0,0,0-.17,2.1,2.1,0,0,1,.47.34c.15-.21-.07-.4.31-.58-.3,0-.84.2-1,0a.37.37,0,0,1,0-.09h0a.16.16,0,0,0-.17-.06.68.68,0,0,0-.15-.18c.08-.21-.23-.25-.35-.32-.12.25-.26.13-.22.41,0,0,0,0,.13,0h.06l0,0a1.71,1.71,0,0,1,.31.15c-.16.06-.32.12-.38-.09l-.38.32c0-.43-.2-.78-.14-1-.44-.06-.94-.33-1.39.07-.13,0-.06-.19-.07-.29s.15,0,.21,0c-.26,0-.66-.21-.84.11-.22-.27.27-.25-.13-.35l.09-.09c-.57-.82-1.51.48-2.12-.48,0,.06.07.09.06.15a3.54,3.54,0,0,0-1.47-.4,2.53,2.53,0,0,1-1.46-.44c-.26-.15-.33.07-.52.24l0-.31-.33.32c-.43.21-.64-.81-1.21-.39l.06.21c-.19-.06-.6.09-.56-.14,0,0-.07.2-.14.1v-.16l-.48.25c-.35-.12.08-.62-.45-.67-.2,0-.56.44-.48.55a.26.26,0,0,1,.2.26l-.17.08c0,.46-.16.94.24,1.28l.29-.28.09.23h-.24c.13.21.22,0,.32-.1a.49.49,0,0,0,.11.26l.3-.44c0,.18-.14.36,0,.46.14-.2-.1-.41.12-.54.13.22.08.39.25.22a.24.24,0,0,1-.09.24c.15-.14.38,0,.47-.28.12.27.49,0,.43.42a.86.86,0,0,1,.42-.33c-.29.5.49.08.35.64.24-.46.66-.13,1-.33,0,0-.07.1-.1.07.17.07.2.22.29.33.09-.38.38-.42.57-.64.14.41-.22.43-.22.8.05-.31.43-.25.41-.52.12.26.12.14.13.48.13-.48.17,0,.37-.31.18.29-.05.46.24.38C54.38,61.14,54.12,61.26,54.12,61.26Zm6,1.46h0l-.12,0Zm.45.27a1,1,0,0,0-.19-.12c0-.1.11-.17.15-.14S60.57,62.88,60.59,63Zm0-2.28c.1,0,.1.08.08.13l-.15-.05,0,0Z"/><path d="M60.26,61h0s0,.06,0,.08L60.3,61Z"/><path d="M35.63,80.35v0a0,0,0,0,1,0-.05S35.63,80.34,35.63,80.35Z"/><polygon points="64.8 68.39 64.86 68.36 64.79 68.34 64.8 68.39"/><path d="M33.87,77.75a.14.14,0,0,0,0-.07A.12.12,0,0,0,33.87,77.75Z"/><path d="M33.06,76.8l0-.19A1.18,1.18,0,0,0,33.06,76.8Z"/><path d="M32.61,76l-.11,0h0Z"/><path d="M46,82.19h0C46.08,82.14,46,82.15,46,82.19Z"/><path d="M41.31,82l.18-.08C41.42,81.86,41.36,81.83,41.31,82Z"/><polygon points="50.99 81.85 50.99 81.85 51.02 81.85 50.99 81.85"/><path d="M41.7,82a.2.2,0,0,0-.21-.06A.26.26,0,0,0,41.7,82Z"/><path d="M31.2,72.3v0h-.05Z"/><path d="M31.16,72.26l0-.05S31.13,72.26,31.16,72.26Z"/><path d="M31.05,72.12l.08.09S31.13,72.13,31.05,72.12Z"/><path d="M31.35,73.5l.1,0Z"/><path d="M31.51,73.83c0-.09.12-.27,0-.36h-.08C31.61,73.49,31.31,73.81,31.51,73.83Z"/><path d="M31.07,75.86l-.1-.35c-.06.11-.15.25-.25.12C30.65,76.18,30.88,75.43,31.07,75.86Z"/><path d="M31.54,76.87c-.15-.13-.13.09-.18.12C31.51,77,31.55,77,31.54,76.87Z"/><path d="M37.65,81.73l-.13.22C37.66,82,37.56,81.86,37.65,81.73Z"/><polygon points="39.5 81.09 39.44 80.89 39.29 81.08 39.5 81.09"/><polygon points="39.67 83.1 39.6 83.11 39.86 83.1 39.67 83.1"/><path d="M52.75,84.12l-.09-.31C52.57,83.89,52.6,84.24,52.75,84.12Z"/><path d="M58.14,82.32c.12.12.3.15.34,0C58.35,82.32,58.18,82.26,58.14,82.32Z"/><polygon points="67.64 68.98 67.77 69.08 67.63 68.87 67.64 68.98"/><path d="M66,25.61c.08,0,.28,0,.23-.09l-.33-.06Z"/><path d="M66.58,24.91a.9.9,0,0,0-.76-.11c.33.08.19.12.58.22,0,.1-.09.18-.21.17.08,0-.06.15.15.2.24-.14.24-.32,0-.47A.28.28,0,0,1,66.58,24.91Z"/><path d="M61.25,16.38l0,.07A.16.16,0,0,0,61.25,16.38Z"/><path d="M55.35,13.65s.08,0,.09-.05S55.34,13.62,55.35,13.65Z"/><path d="M54.34,13l.06,0S54.36,13,54.34,13Z"/><path d="M61.25,16.38l-.09-.18C61.09,16.28,61.19,16.31,61.25,16.38Z"/><path d="M65.57,23.72a.17.17,0,0,0,.1.06l0-.07Z"/><path d="M63.72,17.93l0,0,.12-.07Z"/><path d="M65.29,19.58s-.25.1-.36.16c.11,0,.18,0,.22,0Z"/><path d="M66.55,23l.06,0Z"/><path d="M62.51,16.86l.05-.1A.31.31,0,0,0,62.51,16.86Z"/><path d="M46.09,36.36v0S46.11,36.37,46.09,36.36Z"/><polygon points="48.46 37.88 48.43 37.89 48.42 38.05 48.46 37.88"/><path d="M52.36,12.3h0C52.43,12.29,52.4,12.29,52.36,12.3Z"/><path d="M34.1,16.62c.33.07-.09.47.34.5C34.35,17.05,34.42,16.59,34.1,16.62Z"/><path d="M65.6,23.66a.19.19,0,0,1,0-.07S65.58,23.65,65.6,23.66Z"/><path d="M34.44,17.12h0Z"/><path d="M47.57,12.23a.5.5,0,0,0,0,.13A.24.24,0,0,0,47.57,12.23Z"/><path d="M51.09,12.74l-.09,0S51.06,12.74,51.09,12.74Z"/><path d="M45.76,12.75s-.07-.06-.13,0l0,0S45.71,12.71,45.76,12.75Z"/><path d="M43.88,13s0,0,0,.05l0,0Z"/><path d="M40.87,35.44a1.22,1.22,0,0,1,0,.27C40.9,35.51,41.17,35.52,40.87,35.44Z"/><path d="M65.72,23.68c-.07,0-.1,0-.12,0l0,.05A.15.15,0,0,0,65.72,23.68Z"/><path d="M45.91,15h-.28A.86.86,0,0,0,45.91,15Z"/><path d="M31.8,28l.06.05S31.84,28,31.8,28Z"/><path d="M44.81,15.08a.43.43,0,0,0-.18-.16.15.15,0,0,0,0,.08Z"/><path d="M40.86,35.71Z"/><path d="M42.8,35.55c-.25-.07-.2.33-.31.52-.33,0-.07-.3-.13-.51-.22,0-.45.34-.59.29s0-.09,0-.15c-.28.23-.59-.17-.93.11a.38.38,0,0,1,0-.1,1.88,1.88,0,0,1-.11.49c-.12,0-.3.15-.26-.09.07,0,.1-.06.16-.12l-.16.06c0-.37.21-.06.29-.31-.27,0-.64.22-.79.07.08-.33.46,0,.32-.34l.23.22c0-.58.16.08.15-.52-.32-.21-.46,0-.77-.2-.15.15-.07.27-.22.42-.63.11-.07-1-.61-.68-.18.17-.4.55-.56.22l.24-.3c-.3-.2-.42.4-.65,0,.13-.11.31,0,.28-.05-.09-.39-.25.11-.42,0l.12-.32A10.82,10.82,0,0,1,36.83,34c.07-.08.19-.13.16-.27a1.73,1.73,0,0,1-.73-.42,5.32,5.32,0,0,1-.51-.69l-.33.11s0-.15.09-.17c-.1-.2-.13.14-.28.18s0-.22.1-.25c-.43,0-1.11-.26-1.18-.73l.12,0c-.14-.27-.65.19-.65-.2h.08a7.58,7.58,0,0,0-.62-.74,1.13,1.13,0,0,1-.27-.83c-.42.16-.17-.6-.68-.34.08-.46.22-.42.17-.92,0-.12-.41,0-.52-.15l.28-.12-.38-.09.31-.23L31.86,28a.25.25,0,0,1-.17.18c-.23-.17,0-.6.16-.65l-.37-.46c.13,0,.19.07.28.12-.37-.21.31-.12,0-.31-.06.05-.19,0-.25,0a.67.67,0,0,0,0-.66l.22,0a2.16,2.16,0,0,0-.08-.6,2.7,2.7,0,0,1,0-.64c-.11.15-.48.09-.5-.05l.33,0c-.2-.11-.14.13-.37-.08.05-.17.38-.07.48,0l-.1-.21c.1,0,.14.05.27.08-.21-.11.35-.29,0-.45h.1c.11-.41,0-.64.12-1-.26-.1-.15-.21-.33-.39a4.47,4.47,0,0,0,.63-.73c0-.26-.18-.16-.28-.34.24.11.37-.2.45,0a7.3,7.3,0,0,0,.33-1c-.12,0-.2,0-.25-.06s.22-.12.31,0v0c0-.75,1.42-.54,1.32-1.24v0c0-.18.11-.35.16-.53.2-.12,0,.23.26.23.11-.66.64-.51.82-1,.72.4.93-.76,1.6-.57l-.11-.14c0-.21.17,0,.26,0-.08-.12-.19-.08-.17-.2.75-.71,1.95-.75,2.94-1,.36-.08-.13-1,.47-.71v.36c.6-.61,1.47-.48,2.12-1,0,.08,0,.18-.07.2.21.19.57-.13.53-.32.12,0,.07.16.16.24s.33-.38.46-.16c0,0,0,.08-.06.11.08-.14.48-.06.34-.31.3.08.51-.22.76-.09.1-.34.5.07.49-.37,0,.46.54.32.7.09,0,.14.17.12.12.32.2,0,.38-.13.32-.36.42.49.74-.49,1,.2A6.42,6.42,0,0,1,49,14.26c0,.45-.61,0-.59.5.52-.18.84-.54,1.36-.42.13.07-.09.19-.14.27.53-.18,1,.09,1.49-.1,0,0-.06.08-.11.11s.2.09.21-.12l-.09.05c-.12-.31.43-.58.47-.73-.23.56.45.19.1.9a.28.28,0,0,0,.16-.26c.09,0,.1.13,0,.28.34-.08.26-.3.55-.25,0,.1-.08.13-.13.24.18-.17.36-.33.6-.21,0,.06,0,.14-.08.13.42,0,.83-.4,1.26-.1-.23.39.13.18.07.55l.27,0,0-.2c.21.06.47-.16.63,0l-.2.11.43,0-.2-.2c.27-.13.1-.46.37-.28-.07,0,.22.05.27.31h0c.14-.08.29-.17.42,0s-.15.38-.15.46c.2-.26.53.08.77-.19a.61.61,0,0,0-.13.29l.17-.21c.07.11.07.15,0,.29.28.14.06-.48.35-.17,0,0,0,.05-.11.07.31.23.73.12,1,.37-.05.38-.31,0-.33.3.49.11,1.13,0,1.52.3l-.06-.08c.29-.44.2.39.53.28-.07,0-.21.22-.17.18A3,3,0,0,0,60.6,17l-.12.08c.09.21.4.32.53.49.13-.08.21,0,.26-.19.06,1,1.27.38,1.28,1.28-.06,0-.2,0-.16,0l.44.23c.13-.2.05-.14.09-.35a.42.42,0,0,1,.41,0c-.27,0-.25.27-.27.43,0-.06.11-.1.16-.15-.1.46.36-.31.41.14l-.1.07c.13.06.33,0,.4.17-.16.22-.19,0-.35.12.14.13.64,0,.56.27-.11,0-.2-.11-.31-.12-.1.35,0,.31,0,.45h0a1.83,1.83,0,0,1,.11.33v-.12c.69-.23.39.32,1,.33-.55,0-.24.1-.5.25,0,.12,0,.27-.12.29.28,0,0,.29.39.29-.08.06.07.15-.16.24.16.13.13-.12.24-.17.43.11,0,.79.57,1,.31.28.65.23.93.52-.1.17-.37,0-.37,0a.48.48,0,0,0,.15.51c-.09,0-.15,0-.24.12s.36,0,.27.23a2,2,0,0,1-.42,0c.13.14.34.27.47.43-.16.07-.28-.06-.4-.1.13.17.26.46.52.49l.08-.14c0,.07-.22.07-.28,0-.23-.13,0-.25.14-.28l.09.12c.53-.23-.21-.5-.23-.75h.43l-.39-.18c.09-.08.3-.19.39-.07.15-.25-.17-.13,0-.36,0,0,0,0,.07,0l-.19-.14c.1,0,.27-.13.25,0,.1-.41-.49-.42-.25-.65h0c-.31-.39-.3.07-.75-.1l.56-.54-.3.09c0-.05,0-.14.08-.18-.27-.07-.1.09-.33.08.13-.34-.42-.49,0-.79-.24,0,0,.29-.3.15.41-.35-.24-.19-.16-.5.26-.1.26.16.33-.16-.45.15-.17-.41-.35-.51-.3.21-.35-.25-.66-.39.1-.06-.25-.56-.35-.87l0,0c-.3.21-.46,0-.68-.13a.47.47,0,0,1,.4-.18L63.76,18a.37.37,0,0,1-.34,0l.23-.17c-.22-.17-.62-.13-.78-.5-.17.19-.23.72-.62.64.07-.12.21-.31.32-.3s-.16,0-.17-.06l.26-.09c-.06-.18-.19.1-.28,0,.13-.15,0-.17.13-.28s0,.13.12.1a.58.58,0,0,1-.12-.46c0,.09-.16.21-.26.17s.07-.25,0-.43c-.14.07-.2-.15-.37.09-.06-.05,0-.17,0-.25-.19,0-.59-.32-.62,0l0,0h0c-.55,0-.72-.64-1.19-.75l0-.08c-.3,0-.57-.22-.84-.11a.28.28,0,0,1,0-.34c-.21,0-.28.06-.48-.21.26-.07,0-.18.24,0-.2-.21-.2-.36-.58-.23.19-.19-.06-.37-.21-.35l.1.24a.9.9,0,0,1-.36-.16l.19-.28c-.39-.6-1.18.28-1.36-.48-.22.17.23.25,0,.46-.22-.12-.33-.65-.41-.68-.29-.28-.45.36-.77.14a.42.42,0,0,1-.32.48c-.23-.1-.17-.55,0-.61s.08.05.07.09.21,0,.14-.19l-.06.1c-.09-.14-.44-.22-.31-.39-.22.07-.13.17,0,.27-.27-.25-.49-.13-.8-.32,0,.07.06.22,0,.21-.45-.26-.26.16-.6.15-.15-.21.15-.41-.21-.32-.18-.16,0-.32.12-.4-.35.17-.55-.25-.72-.32l.18-.06a.49.49,0,0,1-.27,0l.06.26c-.09-.06-.17-.08-.16-.17-.12.13,0,.4-.21.58-.1-.14-.39.06-.39-.26.38.17,0-.32.34-.31a.28.28,0,0,1-.24,0s0-.06,0-.08c-.35-.32-.22.34-.62.29.07-.17-.05-.35-.12-.32.16,0,0,.31-.12.43-.24-.17-.28.07-.41,0l.14.08c-.07.17-.19.14-.37.18,0-.14.17-.08.11-.15-.22.29-.41-.37-.7-.18-.12-.12,0-.33-.1-.42-.32.22-.32-.25-.66-.07.09.24.1.18-.13.41l.54-.15-.36.33c.16,0,.34-.14.44-.09-.17.19-.15.13-.09.33-.2-.37-.43.19-.67-.06l0-.59c-.38-.27-.68.26-1.17.14l.16.1c-.07.24-.31,0-.46.14,0-.19-.1-.26-.17-.38,0,.14-.36,0-.39.39L47,12.5c-.41-.1-.42.57-.8.55.1-.23-.09-.35.16-.53-.13,0-.25,0-.24.12-.09-.11-.33.3-.46.13,0,.09,0,.3-.19.3a.19.19,0,0,1,0-.1c0,.1-.2.15-.06.36-.46-.59-1.06.17-1.47-.28a5.41,5.41,0,0,1-.83.28c0-.06,0-.09,0-.08-.38-.12-.09.59-.51.48-.27-.26.16-.22,0-.3-.19-.62-.44.2-.79-.11l0-.05c-.25-.17-.42.35-.76.39a.2.2,0,0,0,0-.09,1.78,1.78,0,0,1-.77.81c0-.27.09-.18-.05-.4-.12.08.17.38-.07.53-.13-.1-.37-.15-.49-.4L40,14c-.25-.29-.34.12-.49.11l0-.16c-.37.21-.24.58-.66.72l.09.09c-.07.45-.27-.13-.38.23l-.23-.33a6,6,0,0,1-.58.77,2.11,2.11,0,0,1,.39-.87c-.16,0-.49.26-.48.48,0-.07.07-.19.15-.17a.89.89,0,0,1-.48.76c-.3-.71-.83.19-1.32-.18-.34.54-1.05.47-1.57.94.54.33-.15.13.24.59-.1.13-.15.15-.18.13h-.61c-.2-.07,0-.19-.06-.29-.31.17-.28-.11-.56-.09.18.14.11.33-.1.4l.4,0c-.15.57-.66-.1-.82.48v-.25c-.12.24-.7.67-.5,1.19-.08,0-.24-.08-.2-.19-.5.4-.47,1.37-1,1.58l-.1-.13c0,.12.12.32-.09.36-.05,0-.1-.12-.13-.08s.06.4-.09.49l-.08-.2c-.46.45-.12,1-.2,1.5-.4-.18-.71.22-.87.43l-.05,0a1.56,1.56,0,0,0-.11,1c.05.33.13.64.15,1-.49.35-.36,1.37-.52,2,.07-.11.34,0,.4.11s.33.39-.07.41v0c-.39.17-.23.48-.17.73l.52-.06a1,1,0,0,0,.06,1.15c.22.34.42.62.17.92.17.1.25.27.45.35L30,30a3.09,3.09,0,0,0,.54,1.07h-.22c.14.28.9-.12,1.06.08l-.3.31a5.21,5.21,0,0,1,.35.71.92.92,0,0,0,.63.48s-.15.11-.22.06c.15.18.44.9.78.42-.26.28.37.38.68.44l-.22.17c.41-.11.48-.18.77,0,0,.07-.09.21-.12.09.1.28.31-.07.46.22l-.2.07c.19.17.23.09.47,0s.34.34.23.57c.11-.1.34-.19.42,0a.19.19,0,0,1-.15.11c.24.42.71.07.8.46a.24.24,0,0,0,0,.16,2,2,0,0,1-.48-.34c-.14.22.07.4-.31.58.3,0,.84-.2,1,0a.38.38,0,0,1,0,.1h0a.16.16,0,0,0,.16.05.57.57,0,0,0,.16.18c-.08.21.22.25.34.33.12-.26.26-.14.22-.42,0,0,0,0-.12,0H36.6l0,0a2.1,2.1,0,0,1-.31-.15c.17-.06.32-.11.38.09l.38-.32c0,.43.21.78.15,1,.43.06.93.34,1.38-.06.14,0,.07.19.08.28s-.16,0-.22,0c.27,0,.66.22.85-.11.21.27-.28.26.12.35l-.09.09c.58.82,1.51-.48,2.13.48a.21.21,0,0,1-.07-.15,3.54,3.54,0,0,0,1.47.4,2.48,2.48,0,0,1,1.46.44c.27.15.33-.07.52-.23l0,.3L45.2,38c.43-.22.64.81,1.21.38l0-.21c.18.07.59-.09.55.15,0,0,.07-.21.14-.1v.15l.47-.25c.35.12-.08.62.45.67.2-.05.56-.44.48-.55a.28.28,0,0,1-.2-.26l.18-.08c0-.46.15-.93-.25-1.27l-.29.27-.09-.23H48c-.13-.22-.22,0-.32.09a.42.42,0,0,0-.11-.25l-.3.43c0-.18.14-.36,0-.46-.14.2.11.41-.12.54-.13-.22-.08-.39-.25-.21a.28.28,0,0,1,.09-.25c-.15.14-.38.05-.47.28-.12-.27-.49,0-.43-.42a.78.78,0,0,1-.42.33c.3-.5-.48-.08-.35-.64-.24.47-.65.13-1,.33,0,0,.07-.1.09-.07-.17-.07-.19-.22-.29-.33-.09.38-.37.43-.57.64-.14-.41.22-.43.22-.8-.05.31-.43.25-.41.52-.11-.26-.12-.14-.13-.47-.13.47-.17,0-.36.3-.18-.29,0-.46-.25-.38C42.54,35.67,42.8,35.55,42.8,35.55Zm-6-1.46h0l.12.06Zm-.45-.27.19.13c0,.09-.11.16-.15.13S36.35,33.93,36.33,33.82Zm0,2.28c-.1,0-.1-.08-.08-.13a.5.5,0,0,0,.16.05l0,0A.27.27,0,0,1,36.34,36.1Z"/><path d="M36.67,35.85h0s0-.06,0-.08l-.07.06Z"/><path d="M61.29,16.46h0v0Z"/><polygon points="32.12 28.43 32.06 28.45 32.13 28.47 32.12 28.43"/><path d="M63.06,19.06a.11.11,0,0,0,0,.08S63.05,19.09,63.06,19.06Z"/><path d="M63.86,20l0,.19A.61.61,0,0,0,63.86,20Z"/><path d="M64.32,20.84a.28.28,0,0,0,.11-.05h0Z"/><path d="M51,14.62h0C50.85,14.68,50.91,14.66,51,14.62Z"/><path d="M55.61,14.83a.71.71,0,0,1-.18.08C55.51,15,55.56,15,55.61,14.83Z"/><polygon points="45.94 14.96 45.94 14.96 45.91 14.96 45.94 14.96"/><path d="M55.23,14.85a.17.17,0,0,0,.2.06A.25.25,0,0,0,55.23,14.85Z"/><path d="M65.72,24.51v0h.05Z"/><path d="M65.76,24.55l0,.05S65.79,24.56,65.76,24.55Z"/><path d="M65.87,24.69l-.07-.09S65.79,24.68,65.87,24.69Z"/><path d="M65.58,23.31l-.11,0A.26.26,0,0,0,65.58,23.31Z"/><path d="M65.42,23c0,.09-.13.27,0,.37l.08,0C65.31,23.33,65.61,23,65.42,23Z"/><path d="M65.85,21l.1.35c.07-.1.16-.25.26-.12C66.27,20.63,66,21.38,65.85,21Z"/><path d="M65.38,20c.16.12.13-.1.19-.13C65.41,19.78,65.38,19.77,65.38,20Z"/><path d="M59.28,15.09l.12-.23C59.26,14.83,59.36,15,59.28,15.09Z"/><polygon points="57.42 15.73 57.49 15.92 57.63 15.73 57.42 15.73"/><polygon points="57.25 13.71 57.33 13.7 57.06 13.71 57.25 13.71"/><path d="M44.18,12.69l.09.31C44.35,12.93,44.32,12.57,44.18,12.69Z"/><path d="M38.78,14.49c-.11-.12-.3-.15-.33,0C38.57,14.49,38.74,14.56,38.78,14.49Z"/><polygon points="29.28 27.83 29.15 27.73 29.29 27.95 29.28 27.83"/><path d="M48.5,97h-.37l0-2h.35c.86,0,1.73,0,2.59-.08l.11,2C50.3,97,49.39,97,48.5,97Zm-3.42-.12c-1-.07-2-.18-3-.31l.26-2c1,.12,2,.22,2.92.29Zm9.17-.22-.24-2c1-.11,2-.26,2.9-.43l.36,2C56.28,96.4,55.26,96.55,54.25,96.67ZM39,96.08c-1-.2-2-.43-3-.69l.52-1.94c.94.25,1.9.48,2.86.67Zm21.26-.51-.49-1.94c.95-.24,1.9-.51,2.83-.8l.6,1.9C62.24,95,61.25,95.32,60.27,95.57ZM33.09,94.51c-1-.33-1.93-.69-2.87-1.07L31,91.59c.9.37,1.83.71,2.75,1Zm33-.8-.73-1.86c.91-.35,1.82-.74,2.7-1.15l.84,1.81C68,92.94,67.05,93.34,66.1,93.71ZM27.42,92.2c-.46-.23-.92-.45-1.37-.69l-1.35-.73,1-1.74c.42.24.85.47,1.29.7l1.31.66Zm44.22-1.06-1-1.76c.86-.47,1.71-1,2.53-1.48l1.06,1.69C73.43,90.13,72.54,90.65,71.64,91.14Zm-49.56-2c-.85-.55-1.69-1.14-2.51-1.75l1.2-1.61c.78.59,1.59,1.15,2.4,1.68Zm54.74-1.31-1.17-1.62c.79-.57,1.57-1.17,2.33-1.79L79.25,86C78.46,86.66,77.64,87.29,76.82,87.88ZM17.17,85.53c-.77-.65-1.54-1.34-2.27-2L16.28,82c.71.68,1.44,1.34,2.18,2ZM81.55,84l-1.36-1.46c.71-.67,1.41-1.36,2.08-2.07l1.45,1.37C83,82.58,82.29,83.31,81.55,84ZM12.76,81.29c-.69-.74-1.36-1.52-2-2.32l1.55-1.25c.62.76,1.26,1.51,1.92,2.22Zm73-1.74-1.54-1.28c.63-.75,1.24-1.53,1.81-2.31l1.62,1.18C87.05,78,86.41,78.77,85.76,79.55Zm-76.85-3C8.32,75.7,7.75,74.84,7.22,74l1.7-1c.51.83,1.06,1.65,1.62,2.45Zm80.47-1.91-1.69-1.08c.53-.83,1-1.68,1.51-2.53L91,72C90.46,72.87,89.93,73.76,89.38,74.62ZM5.69,71.33c-.48-.9-.94-1.82-1.36-2.75l1.82-.83c.41.89.85,1.78,1.3,2.64Zm86.66-2.07-1.81-.86c.42-.88.81-1.79,1.17-2.69l1.86.74C93.2,67.39,92.79,68.33,92.35,69.26Zm-89.2-3.5c-.36-1-.69-1.93-1-2.9l1.91-.59c.28.93.61,1.86.95,2.78Zm91.47-2.2-1.9-.62c.3-.93.58-1.88.82-2.82l1.93.5C95.22,61.6,94.93,62.59,94.62,63.56ZM1.34,59.91c-.23-1-.44-2-.62-3l2-.34c.17,1,.37,1.92.6,2.87Zm94.8-2.28-2-.37c.18-1,.33-1.93.46-2.9l2,.25C96.49,55.62,96.33,56.64,96.14,57.63ZM.29,53.88c-.11-1-.19-2-.24-3.05l2-.1c0,1,.12,2,.23,2.93Zm96.62-2.32-2-.12c.06-1,.09-2,.09-2.94h2C97,49.52,97,50.55,96.91,51.56ZM2,47.8l-2,0c0-1,.06-2.05.14-3.06l2,.15C2.06,45.84,2,46.82,2,47.8ZM2.45,42l-2-.28c.14-1,.32-2,.53-3l2,.4C2.76,40,2.59,41,2.45,42ZM3.64,36.2l-1.93-.53c.27-1,.57-2,.9-2.92l1.89.65C4.19,34.31,3.9,35.26,3.64,36.2Zm1.91-5.55L3.7,29.88c.39-.94.82-1.88,1.27-2.79L6.76,28C6.33,28.85,5.92,29.75,5.55,30.65Zm2.59-5.27-1.73-1c.5-.88,1-1.75,1.61-2.61l1.67,1.11C9.15,23.69,8.63,24.54,8.14,25.38Zm3.24-4.9L9.79,19.27c.61-.81,1.26-1.61,1.92-2.38l1.52,1.3C12.59,18.93,12,19.7,11.38,20.48ZM15.21,16l-1.43-1.4c.71-.72,1.45-1.44,2.2-2.12L17.33,14C16.6,14.65,15.89,15.33,15.21,16Zm4.35-3.94-1.24-1.56c.79-.63,1.62-1.25,2.45-1.83l1.15,1.64C21.12,10.9,20.33,11.49,19.56,12.09Zm58.31-3c-.78-.5-1.63-1-2.52-1.44l.9-1.78c1,.48,1.86,1,2.69,1.53Zm-53.5-.32L23.34,7C24.21,6.5,25.1,6,26,5.52l.93,1.77C26.07,7.75,25.21,8.23,24.37,8.74ZM72.69,6.41c-.87-.36-1.8-.7-2.75-1l.63-1.9c1,.34,2,.69,2.88,1.07ZM29.57,6l-.82-1.83c.92-.41,1.88-.8,2.83-1.16l.7,1.88C31.36,5.25,30.45,5.62,29.57,6ZM67.12,4.53c-.92-.25-1.89-.49-2.87-.7l.43-2c1,.23,2,.47,3,.74ZM35.06,4l-.58-1.91c1-.3,2-.56,3-.79l.46,1.94C37,3.43,36,3.69,35.06,4Zm26.29-.72c-1-.18-2-.34-2.93-.47l.27-2c1,.13,2,.29,3,.48ZM40.77,2.64l-.33-2c1-.17,2-.31,3-.41l.2,2C42.71,2.35,41.73,2.48,40.77,2.64Zm14.7-.22c-1.08-.11-2.08-.19-3-.25l.14-2c.9.06,1.92.15,3,.26ZM46.61,2l-.08-2c.65,0,1.31,0,2,0l1.1,0-.05,2-1,0C47.87,2,47.24,2,46.61,2Z"/><polygon points="71.68 13.32 71.42 11.33 81.19 10.06 79.21 0.4 81.17 0 83.59 11.77 71.68 13.32"/></g></g></svg>