<svg xmlns="http://www.w3.org/2000/svg" viewBox="0 0 258.19 258.35"><defs><style>.cls-1{fill:#aacbeb;}</style></defs><title>Element 131</title><g id="Ebene_2" data-name="Ebene 2"><g id="Ebene_2-2" data-name="Ebene 2"><path class="cls-1" d="M256.35,256.88c.08.54.28.24.24-1.25l-.33-1Z"/><path class="cls-1" d="M257,246.91c-.16-1.74-.44-3.75-.75-2.62.32,1.73.19,2.14.57,4,0,1.48-.11,2.59-.23,2.34a29.81,29.81,0,0,0,.14,3.1,34.39,34.39,0,0,0,.05-6.93C256.81,246.26,256.9,246.79,257,246.91Z"/><path class="cls-1" d="M257.48,102l0,.93C257.46,102.72,257.47,102.4,257.48,102Z"/><path class="cls-1" d="M257.66,12.28a3.94,3.94,0,0,0,.07,1C257.71,12.65,257.69,12.12,257.66,12.28Z"/><path class="cls-1" d="M252.48.48l.9,0A4.69,4.69,0,0,0,252.48.48Z"/><path class="cls-1" d="M257.48,102l.1-2.4A11,11,0,0,0,257.48,102Z"/><path class="cls-1" d="M256.16,226.94c0,.5,0,.92.09,1.3,0-.41,0-.81,0-1.23Z"/><path class="cls-1" d="M257.75,141.61v.73a5.29,5.29,0,0,0,.13.6Z"/><path class="cls-1" d="M257.8,172a1.91,1.91,0,0,0-.4-1.19,5.92,5.92,0,0,1,.2,1.5S257.71,172.21,257.8,172Z"/><path class="cls-1" d="M257.3,220.13l0,.85Z"/><path class="cls-1" d="M257.81,119.87a.9.9,0,0,0,.1-.27S257.84,119.71,257.81,119.87Z"/><path class="cls-1" d="M221.81,255.56s0,0,0,.05C222,255.58,222.05,255.56,221.81,255.56Z"/><path class="cls-1" d="M257,257h-.48a.26.26,0,0,0-.11.16Z"/><path class="cls-1" d="M224.43.12h.13C225.29.09,224.88.1,224.43.12Z"/><path class="cls-1" d="M.45,36.15c.26-2.91.33,4.75.61.36C1,36.92.62,32.52.45,36.15Z"/><path class="cls-1" d="M256.2,226.15V224.9C256.19,225.47,256.19,225.85,256.2,226.15Z"/><path class="cls-1" d="M1.06,36.51h0l0-.45Z"/><path class="cls-1" d="M159.81.29a4.27,4.27,0,0,0,.65.12S160.29.34,159.81.29Z"/><path class="cls-1" d="M208,.69l-1.19,0Z"/><path class="cls-1" d="M134.81.68a16.16,16.16,0,0,0-1.75,0l.27,0A9.59,9.59,0,0,1,134.81.68Z"/><path class="cls-1" d="M108.79.68l.48.06h.83Z"/><path class="cls-1" d="M142.74,255.7a6.85,6.85,0,0,1,1.2.25C143.54,255.75,147.36,255.68,142.74,255.7Z"/><path class="cls-1" d="M256.32,226.92a2,2,0,0,1-.12-.77V227C256.26,227.09,256.3,227.11,256.32,226.92Z"/><path class="cls-1" d="M133.75,2.9l-4.13,0C130.77,2.89,132.28,2.9,133.75,2.9Z"/><path class="cls-1" d="M2.76,211.35l0,1A8.54,8.54,0,0,0,2.76,211.35Z"/><path class="cls-1" d="M117.35,2.9c-.74-.1-1.52-.16-2.33-.19a4.56,4.56,0,0,0-.48.07Z"/><path class="cls-1" d="M144,256h0Z"/><path class="cls-1" d="M171.18,255.29c-3.94,0-1.85.36-2.69.57-4.7.1-2.17-.27-3.77-.46-2.94.1-5.19.44-7.38.42-.16-.06-.59-.08-.09-.16-3.1.3-9.21,0-12.83.39a2.19,2.19,0,0,1-.47-.1c.59.19.68.38.56.51a19.61,19.61,0,0,1-3.94,0,6.53,6.53,0,0,0,1.67-.16l-1.85.1c-1.66-.35,2.53-.12,2.53-.38-3.61.12-7.81.4-10.58.31-.58-.34,6.47-.12,2.78-.42l4.28.13c-3.27-.54,2.6,0-.41-.54-5.63-.09-6.3.18-11.91.08-1.26.19.42.28-.85.47-8,.34-6.28-.86-12.15-.41a18.78,18.78,0,0,1-6.28.43l1.42-.38c-5.45,0-3.11.55-8.82.29,1-.15,4.29-.12,3.46-.17-3.7-.3-2.61.22-5.46.22l-.59-.34L79.19,256c.36-.1,1.46-.21,0-.31-8.11.17-17.31,0-25.12-.25l-3,.3c-.7,0-1.29-.13-.54-.19-3-.11-.16.18-1.62.3-1.73,0-2.29-.17-1.19-.26-5.38.25-15.32.54-21,.22l1.1-.08c-4.41-.12-5,.6-9.07.33l.79-.06c-3,0-6,0-9,0h-8c0-1.45,0-2.84.07-4.16,0-1.6.1-3.11.19-4.51-.42-1.39.19-9.47-.4-10.09.29-5.47.39-3.9.59-11.6,0-2.06-.37-3.06-.43-5.61l.31-.06-.32-3.45.36-1.84L2.8,212.3c0,.95-.14,2-.23,1.87-.07-1.86,0-4.13.07-5.95a19,19,0,0,1,.3-3.22l-.26-8.81A20.33,20.33,0,0,1,2.93,199c-.32-4.71.32-.86,0-5.17-.07.58-.18-.31-.24-.41.18-2.15.18-7,.11-10.66l.21.7c0-6.54-.1-13.78-.1-21.12-.1,2.64-.47,2-.5-.12l.32-.86c-.2-1.39-.12,2.25-.37-.6,0-2.75.37-1.85.48-.27l-.11-3.34c.09-.19.15.59.27.79-.2-1.36.33-5.75,0-7.72l.09-.19c0-7.33-.11-10.66-.12-16.63-.28-.12-.22-2.45-.45-4.23.09-4.39.31-9.26.29-14.55-.14-3.72-.24-1.09-.41-2.76.26-.27.23-5.55.42-2.81,0-6.35-.05-8.11-.26-16.14-.11.87-.15,1.85-.24,1.34a9.69,9.69,0,0,1,.23-3.1l0,.38c-.39-9,.75-20.8.21-28l0,.4-.28-7.44c0-3.43.19,2.05.35-.48-.43-8,.06-12.69-.22-19.3.75-5.11-.06-18.15.43-25.06l-.18.4a16.82,16.82,0,0,1,.14-3.48c-.14.19-.16,1.94-.26.83,0-2.25,0-4.52-.05-6.83l8.47.05L21,2.82l19.41.28c5.67,0,3.22-.92,10.37-.49l-2,.33c11.44-.4,23.39,0,34.6-.32a9.46,9.46,0,0,1-1.78.17,52,52,0,0,0,8.79-.18c1.74,0,.4.17,1.47.27,2.38.14,6-.3,7.22-.06a5.11,5.11,0,0,1-1.1.09c1.55-.11,7.21,0,5.73-.25,4.2.14,8-.12,11.39,0,2.19-.31,7.2.14,7.89-.29-.3.45,7.37.36,10,.15-.89.14,2.31.14,1.27.33,3,0,5.82-.09,5.29-.32,5.59.54,11.23-.44,14.38.26,9-.25,17.35-.41,25.45-.52-.29.45-9,.05-8.61.52,7.69-.19,12.13-.57,19.75-.46,2,.06-1.12.19-1.78.27,7.68-.19,14.85,0,21.69-.21a9,9,0,0,1-1.46.13c1.35,0,3.14.06,3-.14l-1.32,0c-2.15-.29,5.35-.62,5.59-.78-2.28.59,6.76.15,3.12.89.89,0,2-.13,1.8-.27,1.32,0,1.73.12.4.28,4.82-.11,3.11-.33,7.48-.33a9.36,9.36,0,0,1-1.35.26,64.58,64.58,0,0,1,8.13-.31c-.22.06.21.14-.89.14,6.35,0,10.82-.52,17.78-.33-2.06.43,2.36.14,2.73.52l.62,0,0,.38,0,.21V3.6a6.73,6.73,0,0,1,.19-1c0,.65,0,1.29,0,1.91,0,.78.06,1.54.08,2.28.05,1.49.09,2.92,0,4.32l-.15-2.43.07,6.14.14-3.48c.19,3.32.47-.35.37,4,0-.88,0,3.28-.23,5h0a46.73,46.73,0,0,1,.15,5.72c-.12.63-.41-.51-.49-.1.31,1.6.09,7.68.42,9.71-.08-.68-.28-.71-.32-.49l.26,1.34c-.08,1.52-.12,1.74-.28,1.5,0,4.57.47-1.45.27,4,0-.43-.06-.22-.1-1.11-.1,5.45.16,10.52,0,15.53-.38,1.47-.09-4.38-.41-2.69.07,7.22.45,15,.36,21.93l0-1.3c.53,1-.26,5.2,0,8.73,0-.87-.29-1.13-.23-.9-.09,4.78.13,9.78.29,17l-.13-.9c-.12,2.82-.07,7.43-.13,10.47.13.9.11,2.65.31,1.59-.78,9.38.41,17.9-.23,26.23,0-1-.12-2.37-.12-1.58l.12,7.09a10.7,10.7,0,0,0,.32-2.42,38.36,38.36,0,0,1,.25,4.66c-.16-3.19-.37,0-.5,1.41.07-.24.15.24.22.12-.41,3.71.46.62.19,5.68l-.13-.27c.07,1.9.23,3.64.19,5.68-.27.85-.12-2-.34-2.14,0,2.87.5,5.66.24,8.25-.08-1.22-.08-3-.15-4.19a39.92,39.92,0,0,0-.29,5.26v-.21l-.14,4.86.08-1.24c.7,3.59.13,7.31.59,12.14-.43-4.69-.25-.77-.56-1.13-.08,1.23-.17,3.11-.26,2.57.25,2.29-.19,3.82.17,7-.1.15,0,2.45-.26,1.93.08,3,.17-.7.29-.45.34,4.58-.4,10.76.06,17.35.18,5.68.51,6.73.68,12-.16,1.78-.36-1.45-.36-1.45a76.63,76.63,0,0,0,0,7.73c-.09-.55-.16,0-.27.84,0,2.17.36,1.45.21,4.32a16.43,16.43,0,0,1-.39-2.17c.12,2.55.24,5.08.36,7.73-.17.7-.26-1.6-.37-2.53a83.34,83.34,0,0,0,.42,8.63l.1-1.91c0,1.08-.23.56-.28-.24a9.08,9.08,0,0,1,.19-3.83l.06,1.89c.57-1.94-.09-7.57-.06-11.37l.42,1.58-.34-3.89c.1-.83.34-1.4.4.48.2-2.72-.15-2.41.08-4.75,0-.26.06-.14.07.1l-.12-2.66c.09.52.29-.44.23,1.19.24-4.77-.31-7.69,0-9.49l0,.4c-.14-6.62-.31-.64-.66-5.61l.75-3.34-.31-.65c0-.69,0-2,.16-1.79-.21-2.54-.13.44-.33-1,.28-3.29-.13-9.07.36-9.81-.24-1.18-.18,3.15-.34-.36.52-1-.09-4.06.15-7.06.27.92.12,3.76.36.76-.45-1.81.1-5.85,0-8.38-.37-.12-.15-5.51-.28-9.77.13.27.2-8,.34-12l.06.12c-.37-.77-.3-4.85-.38-7.82.22.12.31.65.41,2.26v-2.79a23.49,23.49,0,0,1-.23-3.34l.28.7c0-3.72-.32-7.49-.14-12.27-.26-.27-.71,3.81-.89-1.25.14-.19.38-.38.44.95a21.19,21.19,0,0,1-.06-2.42l.23,2c.11-2.18-.19-1.14-.17-2.88.2,0,.14-1.29.3-1,0,.44-.08,1.52,0,2.18a47.22,47.22,0,0,1,.31-5.12c-.12.17-.27,0-.3-1.43,0-3.72.24-1.28.34-3.44-.13-.9,0-3.28-.29-3.34a5.56,5.56,0,0,1,.22-1.71c-.13-1.92,0-9-.35-6.81l0,.49v-.32c-.3-6.3.16-13.09,0-19.35h.1c-.12-3.73-.07-8.31-.28-11,0-1.1.18-2.6.3-2.13a71.29,71.29,0,0,1,0-7.3c.18,2.87.16-1,.13,2.94a67.58,67.58,0,0,0,0-8.53c.26,1.36.32-2.79.25-4.56L257.7,56c0-2,0-3.71,0-5.47l.34,1c.4-7.59-.69-13.69,0-19.47-.23-2-.16,4.12-.43,2.33,0-3.49.52-7.13.52-8.22.19-4.79-.48-4.47-.36-9.47-.12.64-.43,1.24-.55-2.5.05-3.49.5-4.29.6-2.09a3.47,3.47,0,0,1-.07,1.21c0,1.13.09,2.61.22,1.23l-.12-.46c.12-1.73.11-6.54.31-5.41-.12-2.64-.2-1.13-.26.83.06-1.58.08-2.91.08-4.18V.54H255.3l-1.92,0c.73.06,1.41.2.68.2-6.77-.14-3,.23-7.56.28-2.61-.18.93-.43-3.68-.28-2.82-.12-.6-.32.52-.41-4.21.23-7.86-.15-10.26-.19L235.3,0c-1.33.06-2.41.06-3.52.05l1.27.24a11.47,11.47,0,0,1-2.38-.14c-1.34.16,1,.4-1.63.61-1.74-.12-5.28.13-5.88-.19,5.45.11-.6-.31,4-.36-.89,0-2,0-3.28,0-.19,0,.19-.07.54-.08-5.22-.28-2.4.35-7.8.35.68-.18-1.26-.34-2.14-.3,2.18,0,1,.29-1,.43-3.46-.14-3.76.1-5.58.09L210,.75a37.64,37.64,0,0,1-4.85.21C205,.82,207.36.87,206.5.8c-2.68.32-6.06-.32-9.8-.11C195,.57,196.53.36,195,.28c-4.2.23-4.54-.25-8.95-.06,1.27.24,1.49.18-1.61.42l7.24-.17L187,.82c2.19,0,4.62-.15,5.93-.11-2.22.19-2,.13-.94.33-3-.36-5.94.21-9.4,0l.11-.59c-5.2-.27-9.24.3-16,.15l2.17.1c-.91.24-4.17,0-6.36.13.2-.2-1.16-.27-2.1-.39.12.15-4.94,0-5.55.38l-3-.26c-5.45-.11-6.22.56-11.46.49,1.58-.21-.8-.35,2.71-.5a15.86,15.86,0,0,0-3.35.1c-1-.13-4.86.26-6.46.07a11.79,11.79,0,0,1-3,.28c-.21,0,0-.1,0-.1s-3.08.14-1.36.35C123.64.61,114,1.27,109.27.74c-3.82.07-8.42.13-11.89.14.23-.05,0-.09.67-.07-4.78-.19-2.94.56-8.38.36C86.89.85,92.56,1,90.82.88,90.07.23,84.26,1,80.59.58l.89,0c-2.8-.22-6.83.24-11.4.2,0,0,.22-.06,0-.1-3.13.33-9,.44-13.45.53,1.37-.25,2-.13,1.17-.39-2,0,.57.41-3.36.49C53.18,1.14,50.34,1,50,.74l3.71,0c-1.9-.35-4.8,0-6.76,0l.25-.15c-5.69,0-5.77.44-11.89.41l.64.12c-3.35.39-2.81-.22-6.14.07l-1-.39c-2.21.09-7.73.38-11.68.45C19.32.89,24,.74,26.81.57c-2.19,0-7.43,0-8.57.22A27.38,27.38,0,0,1,21.1.72a94.13,94.13,0,0,1-10.57.45C10.79.92,9.66.82,7.92.76l-3,0L.82.69c0,.86,0,1.7,0,2.5,0,.55,0,1.08-.06,1.56A18.6,18.6,0,0,1,.52,7.09C.8,14.79.4,22.38.44,31.36c.6-3.19,0,2.62.63,2.07a28.62,28.62,0,0,1,0,3.07L.69,42.84c-.17,1.5-.13-2-.27-1.8C.37,45.62.16,43,0,46c.22-.62.31,1.6.23,4.21l.28-3.68c.33,6.4-.51,5.53-.19,12l-.19-2c.11,3.31,0,12.21.49,15.46-.07.58-.24,1.36-.29-.1C.26,79.73.86,89.43.55,95.58L.4,95a29.31,29.31,0,0,1,.13,4.41c-.06-.09-.14-.59-.15.09s.26,3.92.17,5.88l-.17-1.67C.19,111.4.79,115.53.9,122c-.44,0-.59,6.05-.66,9.08L.18,131c-.06,9,.36,15.26.54,23.58-.48,5.17-.2,17.5-.47,25.8.08-1.27.34.2.39,1.68-.09,2,.3,5.38-.1,5.08v-.7c-.4,1.47-.3,5.47-.31,8.6l.53.51c-.77,8.18.28,21.43-.4,25.89.13,2,.13,4.42.26,6.37l-.28-.1c-.08,5.46-.11,8.19,0,14.95l-.2-1.38c0,3.81.82,4.81.84,8.33l-.43,1.06q0,3.69-.07,7.41l8.06.08c2.29,0,4.57,0,6.83-.17-.11.06-.3.18-1.38.2,3.13,0,12.11.29,11-.29.08.37,6.86,0,10.45-.13l-.55.27a52.77,52.77,0,0,1,7.36-.55c1,0,.88.23-.46.15,3.35.15,2.61-.26,6.66-.11l-1.51.18a26.66,26.66,0,0,0,5.06-.28,36.09,36.09,0,0,1,7,.32,18,18,0,0,1,4.37-.29c.28.1-.46.16-.83.18,5.75.19,8.55-.32,12.5-.05a1.21,1.21,0,0,0,.67.17c-4.57,0-8.25,0-7.9,0,0,.26,3.69.3.75.65,3-.19,8-.61,11.63-.49a4.39,4.39,0,0,1,.47.09l-.37,0c.83,0,1.57,0,2.27,0,1.15,0,1.88.07,3,.07a49.67,49.67,0,0,0,6.07.13c-.15-.28,2.26-.24,0-.47.3,0-.34,0-1.57.05-.27,0-.6,0-.78,0l.12,0-4.57,0a27.48,27.48,0,0,1,5-.11c.94-.18,2-.36,2.57-.45,2.51.39,7.37.6,8,.85,5.62-.16,13.24-.11,16.77-.64a7.43,7.43,0,0,1,2.44.24c-.93.05-2,0-2.52.12,3.19-.14,9.46-.05,10.22-.42,4,.16-2.26.34,3.27.28l-.75.11c10.89.59,17.7-.94,29.76-.19a6.56,6.56,0,0,1-1.42-.13c13.75.34,28.34-.31,41.91.22a39.67,39.67,0,0,0,6.63-.31l.84.3,4-.34c5.71-.26,9.89.74,17.11.25l-.93-.2c2.6,0,8.22-.12,7.79.12a5.55,5.55,0,0,1,1.87-.11l.08.16,6.37-.27c4.94.11-.77.62,6.44.65,2.68-.06,7.64-.46,6.63-.56a10.66,10.66,0,0,1-2.85-.26l2.46-.08c.44-.47,2.33-.94-3.69-1.27l-4.2.29-1.35-.23h3.53a20.15,20.15,0,0,0-4.69.1,7.34,7.34,0,0,0-1.76-.25l-4.12.45c-.5-.18,1.85-.36-.92-.46-1.92.2,1.85.4-1.34.54a11.69,11.69,0,0,0-3.77-.2c-.34-.12.16-.2,1.1-.25-2.1.14-5.55.06-6.63.31-2.1-.27-7.08.06-6.88-.38-.65.11-3.69.35-5.61.37,3.51-.53-7.21,0-6.28-.6-2.61.47-9.41.21-14,.47a7.53,7.53,0,0,1,1.17-.09c-2.59,0-3.35-.18-5-.27-.33.39-4.37.48-6.55.73-3.18-.38,1.93-.46.93-.83.16.32-5.52.32-4.44.58a14.78,14.78,0,0,1-3.35-.43c-.43.49-2.27.08-4.29.38-3.52-.24-.9-.46-4.77-.31C167.74,255.46,171.18,255.29,171.18,255.29Zm-92,.84h0l1.9,0Zm-7.73,0H74.8c.27.1,0,.2-.8.19A16.58,16.58,0,0,0,71.45,256.14Zm16.35,1.95A6,6,0,0,1,86,258l2.14,0,.15,0A1.58,1.58,0,0,1,87.8,258.09Z"/><path class="cls-1" d="M90,257.72l.51,0-.73-.07-.44.09Z"/><path class="cls-1" d="M257.43,103.14V103a2.27,2.27,0,0,1,0,.34C257.41,103.21,257.42,103.21,257.43,103.14Z"/><polygon class="cls-1" points="2.9 219.96 2.83 219.97 2.89 220.65 2.9 219.96"/><path class="cls-1" d="M256.47,145.72a2.82,2.82,0,0,0-.08.55A3.09,3.09,0,0,0,256.47,145.72Z"/><path class="cls-1" d="M256.4,164.11l-.1,2.6C256.36,165.58,256.39,164.76,256.4,164.11Z"/><path class="cls-1" d="M256.26,178.25a.86.86,0,0,0,.12.28v0Z"/><path class="cls-1" d="M208.92,2.57h-.54C207.1,2.63,208,2.61,208.92,2.57Z"/><path class="cls-1" d="M256.59,20.31c0-.71-.1-1.41-.13-2.15C256.44,19.35,256.43,20.28,256.59,20.31Z"/><path class="cls-1" d="M134.2,2.9h0Z"/><path class="cls-1" d="M256.46,15.05c0,1.19,0,2.19,0,3.11C256.48,17.18,256.51,16,256.46,15.05Z"/><path class="cls-1" d="M256.14,239.54l0,.69s0,0,.05.08Z"/><path class="cls-1" d="M256.17,240.31l0,.75A4.48,4.48,0,0,0,256.17,240.31Z"/><path class="cls-1" d="M256.27,242.66l-.07-1.6A9.69,9.69,0,0,0,256.27,242.66Z"/><path class="cls-1" d="M256.27,220.82l-.11-.21C256.19,220.73,256.22,220.8,256.27,220.82Z"/><path class="cls-1" d="M256.24,215.13c0,1.36-.22,3.41-.16,5.3l.08.18C256,219.72,256.41,216.42,256.24,215.13Z"/><path class="cls-1" d="M257.5,191.39l-.08,4.77c.1-.84.25-1.93.28.23C258,190.39,257.45,197.63,257.5,191.39Z"/><path class="cls-1" d="M257.65,176.61c.05,2.56.16,0,.22.1C257.77,175.09,257.75,174.69,257.65,176.61Z"/><path class="cls-1" d="M257.66,69.78l.25.26C257.87,68.07,257.81,70,257.66,69.78Z"/><polygon class="cls-1" points="256.33 49.36 256.17 51.28 256.41 52.2 256.33 49.36"/><polygon class="cls-1" points="258.15 37.3 258.19 38.16 258.1 34.87 258.15 37.3"/><path class="cls-1" d="M113.42.44l.6.31C115.35.69,115.63.34,113.42.44Z"/><path class="cls-1" d="M36,.76A19.67,19.67,0,0,0,31.6.65C33.34.67,35.08.8,36,.76Z"/><polygon class="cls-1" points="0.37 199.42 0.27 197.86 0.36 200.8 0.37 199.42"/></g></g></svg>