<svg xmlns="http://www.w3.org/2000/svg" viewBox="0 0 567.29 568.9"><defs><style>.cls-1{fill:#aacbeb;}</style></defs><title>Element 132</title><g id="Ebene_2" data-name="Ebene 2"><g id="Ebene_2-2" data-name="Ebene 2"><path class="cls-1" d="M493.52,510c3.44,1,11.25.42,9.71-2.21L490,505.91Z"/><path class="cls-1" d="M518,492.31c-6.41-3.09-17.69-6.65-29.85-4.65,12.72,3.06,7.41,3.8,22.56,7.1,1.54,2.63-4.25,4.59-9.12,4.14,3.39.93-2.92,4.09,5.4,5.5,10.25-3.42,10.66-7.75,2.2-12.28C512.14,491.15,515.6,492.09,518,492.31Z"/><path class="cls-1" d="M538.69,235.36,537.11,237A3,3,0,0,0,538.69,235.36Z"/><path class="cls-1" d="M546,57c.32,1.45,1.63,1.23,2.83.47C547.91,56.46,547.1,55.76,546,57Z"/><path class="cls-1" d="M543.49,19.07a11.38,11.38,0,0,0,1.82.9C545.38,18.75,544.93,18.08,543.49,19.07Z"/><path class="cls-1" d="M538.69,235.36l4.16-4.25C538.53,230.81,539.64,233.29,538.69,235.36Z"/><path class="cls-1" d="M486.11,456.88a8.19,8.19,0,0,0,3.48,2.31,12,12,0,0,1-1.4-2.17C487.47,457,486.85,457,486.11,456.88Z"/><path class="cls-1" d="M549.42,305.54l0,1.3c1.5.38,3.33.73,5.38,1.07Z"/><path class="cls-1" d="M551.45,359.4c.49-1.21-10.75-1.64-15.66-2.11,4.62.69,6.83,1.59,7.7,2.66A59.69,59.69,0,0,0,551.45,359.4Z"/><path class="cls-1" d="M531.67,444.81l1.55,1.51C532.74,445.93,532.29,445.26,531.67,444.81Z"/><path class="cls-1" d="M551.85,267a25,25,0,0,0,4-.49A18,18,0,0,0,551.85,267Z"/><path class="cls-1" d="M457.7,457.22c0,.8,0,1.3,0,2C458,458.08,458.12,457.28,457.7,457.22Z"/><path class="cls-1" d="M520.14,512.9l-.87.6c-.09,2.13-.19,4.22-.19,6.3Z"/><path class="cls-1" d="M463.68,4.67a1.49,1.49,0,0,0,.39.21C466.59,3.6,465.2,3.83,463.68,4.67Z"/><path class="cls-1" d="M18.19,118.65c2.51-2.09,4.58-2.09,6.43-1.28s3.51,2.44,5.19,3.85,3.4,2.63,5.39,2.77,4.26-.77,7-3.29c-2.19.42-6.58-2.19-11.23-4.2S21.46,113.28,18.19,118.65Z"/><path class="cls-1" d="M487.58,455.48a6.76,6.76,0,0,1-.11-2.2C487.1,454.28,487.13,455,487.58,455.48Z"/><path class="cls-1" d="M42.25,120.7h.1l1.06-1Z"/><path class="cls-1" d="M345.27,11.43a24.4,24.4,0,0,0,1.17,4.92A15.6,15.6,0,0,0,345.27,11.43Z"/><path class="cls-1" d="M430.66,27.42l-2.11-1.5A3.75,3.75,0,0,0,430.66,27.42Z"/><path class="cls-1" d="M300.94,27.3c-1.15-.86-1.54-2.42-3.11-.9a7.6,7.6,0,0,0,.48,1.36C298.88,26.22,299.63,25.51,300.94,27.3Z"/><path class="cls-1" d="M254.79,27.36c.25.86.57,1.51.85,2.27.46-.23,1-.41,1.47-.61Z"/><path class="cls-1" d="M317.46,462.62a62.9,62.9,0,0,1,2.13,10.11C318.88,464.74,325.66,461.88,317.46,462.62Z"/><path class="cls-1" d="M492.43,456.85c-2.84-.27-4.24-.66-4.85-1.37a7,7,0,0,0,.61,1.54A12.25,12.25,0,0,0,492.43,456.85Z"/><path class="cls-1" d="M299.06,116l-7.33-1.66A16.2,16.2,0,0,0,299.06,116Z"/><path class="cls-1" d="M110.48,431.69l1.34,1.68C112.08,432.73,111.76,432.13,110.48,431.69Z"/><path class="cls-1" d="M270,116c-1.31-4-2.69-6.27-4.13-7.78a14.14,14.14,0,0,0-.85,2.9Z"/><path class="cls-1" d="M319.61,472.85a.39.39,0,0,1,0-.12A.39.39,0,0,0,319.61,472.85Z"/><path class="cls-1" d="M367.9,446.14c-7-.32-3.28,14.46-4.76,22.95-8.34,4.19-3.86-10.89-6.7-18.44-5.21,3.91-9.2,17.47-13.08,16.9-.29-2.43-1.05-3.32-.16-6.37-5.51,11.75-16.34.58-22.75,15.33a15.37,15.37,0,0,1-.84-3.66,117.89,117.89,0,0,1,1,20.27c-3.13.26-5.81,9.34-7-.32,1.92.28,2.08-3.61,3-6.63l-3.28,4.2c-2.95-13.89,4.48-4.81,4.48-15.09-6.4,4.52-13.86,16-18.76,12.09-1-13.58,11.47-4.57,4.92-16.65l7.59,5.19c-5.8-21.43,4.61,1.5-.72-21.43-10-3.94-11.17,6.92-21.12,3-2.25,7.55.74,11.17-1.51,18.72C274,489.72,277,442,266.63,460.1c-2.69,9-3.73,26.24-11.14,17.14L258,461.88c-9.66-1.51-5.52,22.08-15.64,11.75,1.8-6,7.6-5.09,6.13-6.91-6.55-12.13-4.63,8.71-9.68,8.71l-1-13.61c-10.29,2.14-21.63,12-33,14.45.63-4,2.59-8.3-.08-12.46-14.37,6.79-30.69-1.66-44.55-9.73l-5.3,11.74c-1.23-.14-2.29-5.3-.95-7.58-5.41-4.45-.28,7.44-2.88,12.06-3.07.82-4.06-6.75-2.11-10.27-4.77,5-11.56,10.33-18.42,12.88l-.64.23a1.51,1.51,0,0,0-.51.21c-.18.14-.37.26-.56.38a5.62,5.62,0,0,1-1.16.51,3.34,3.34,0,0,1-2.21,0c-1.37-.53-2.39-2.17-2.44-5.31.56-1.17,1.08-2.33,1.57-3.49-.31-1.19-1-.29-2,1.58s-2.41,4.67-3.87,7.29a30.28,30.28,0,0,1-4.1,6.14c-1.12,1.09-1.9.84-1.5-1.9.58-.69,1.15-1.38,1.7-2.08-1.91-1.7-4.47-1.63-7.3-1.44s-5.8.48-7-.78c1.24-3.6,4-8.3,9.83-14.11-8.46,6.21-6.57,2.8-5.52.68s1.27-3.44-10.52,2a57.48,57.48,0,0,1,7.53-6.06c2.16-1.46,4-2.55,5.78-3.56l5.06-2.92c1.68-1,3.42-2,5.39-2.95.54-.4-3.14,0-7.27,0s-8.69-.26-9.92-1.25l12.33-.37c-1.08-.1-2.16-.23-3.23-.38a2,2,0,0,1-.41-.07l-.4-.19-.81-.38-1.62-.77-6.47-3.06L115,437.6l-3.17-4.23c-.72,1.69-5.53,3.58-9.09,3.33-5.57-6.61,8.6-16.1,14.91-16.27L107.22,404.8c5,.35,6.66,3,9.82,5-12.58-8.35,13-1.52,1.46-9.16-2.8,1-7.35-.56-9.84-.73,7.45-3.81,7.52-12.49,4.38-18.9l8.5,1.23c2.16-11.59-4.08-24.44-3.92-37.45-4,4.67-18.7,3.59-20.11-.22l13-1.53c-8.06-2.46-4.93,4-14.78-1.07,1.5-4.86,14.82-3.27,19-.48l-4.52-5.91c3.9-.34,5.95,1,10.91,1.4-8.1-2.42,13.08-10.19-1-13.69l3.88-.34c.11-13-4.38-18.9-5-29.49-11.25-.21-8.75-4.35-17.84-7.51,3.58-7.79,12.42-16.43,11.47-25.81-5.59-6.59-9.52-1.92-16.2-4.89,10.24-.48,9.28-9.85,16.63-5-1.66-11.26-2-14.38-10.35-28.62-4.21,1.54-6,3.28-9.52,2.38-1.69-2.58,4.3-5.88,9.22-5.51l1,.68c-15.35-16,29.88-36.89,8.52-49.61l1,.71L102,157.13c1.78-6.07,7.71,3.64,14-.85-8.54-7.12-7.92-12.74-6.59-18.05.67-2.66,1.51-5.23,1.48-7.88a10.49,10.49,0,0,0-.84-4,12.58,12.58,0,0,0-1.16-2.09,16.33,16.33,0,0,0-1.79-.76c7.55-.55,11.2-.66,12.72-.93s.91-.8,0-1.79-2.24-2.35-2.09-3,1.75-.46,6.58,2.77q-3.57-2.53-7.12-5c-3.5-2.8-2.48-2.38-.38-.93s5.26,3.81,6.08,4.35c-2.76-2.21-4.36-3.35-5.75-4.32A38,38,0,0,1,112.6,111a12.49,12.49,0,0,1-2.19-5.86,14.85,14.85,0,0,1,6.59,2.14,30,30,0,0,1,7,5.3,21.8,21.8,0,0,1,4.38,6.33,13.3,13.3,0,0,1,.89,2.89,10,10,0,0,1,.17,1.26v.07l.27.07.53.15,1.07.28,2.13.52c10.06,1.91,5.71-36.83,18.39-19.83l-3.6,13.21c20.29-15.84,41.5.55,61.36-12.9-1.18,3-1.21,7-3.15,7,4.19,9.6,15.52.47,15.59-7.37,3.09.9.71,7.09,2.62,11.07,4.21,5.67,10.56-12.25,12.8-2.7.38,1.56-1.18,3.11-2,3.85,2.74-4.64,12.78,1.19,10.15-9.89,7.46,5.29,14.27-4.93,20.21,1.63,3.88-12.38,12.77,6,14-11.55-.53,18.1,13.07,14.6,17.79,6.09-1.58,5.46,4.1,5.66,2.25,13.24,5.38-.26,10.31-3.62,9.37-12.91,9.92,21.65,19.93-17.43,25.51,10.32,16-9.73,30.77-16.3,45.15-20.55-.52,18-15.89,1.8-15.28,20.74,13.64-7.43,21.51-22.92,35-18.56,3.5,2.46-2,7.82-3.17,10.91,13.62-7.43,26.34,1.64,38.47-8.19,0,1.68-1.34,3.52-2.58,4.9,2.39-.6,5.56,2.65,5.29-5.55l-2.33,2.22c-3.82-11.91,9.49-24.87,9.92-31.15-4.06,23.5,12,5.9,5.53,35.61,1.57-1.55,3.54-5.44,3.18-10.93a4.56,4.56,0,0,1,1.43,1.53,9.31,9.31,0,0,1,.3,2.26,29.38,29.38,0,0,1-.1,3.12c-.05.47-.1,1.11-.18,1.94s-.45,1.42-.74,2.2a8.34,8.34,0,0,0,.75-.43c.08-.16.15-.31.23-.46s.29-.63.43-1c.28-.67.53-1.37.77-2.09.48-1.44.88-3,1.29-4.3.82-2.72,1.71-4.85,3.71-4.76-.79,4-1.81,5.51-2.82,10.17a40,40,0,0,1,4.81-10.22c1.79-2.49,3.77-3.58,4.94-1.9-1.1,2.39-1.92,5.5-2.8,5.44,1.4-.3,3.18-1.73,5.38-3.61s4.79-4.17,7.51-6.21A30.43,30.43,0,0,1,486.81,80c2.36-.79,4.29-.6,4.77,1.27A93.23,93.23,0,0,0,484,89.66a6.12,6.12,0,0,0-1.47,2.78c-.19,1.13.09,2-6.67,9.44,1.71-1.2,3.52-2.39,5.42-3.59l.87-.33,3.52-4.06q1.55-1.86,3-3.72a2.34,2.34,0,0,0,.86-.14c.62.74,3.14-.28,4.95-.4s2.89.59.64,3.76A61.24,61.24,0,0,0,489,95.92a39.57,39.57,0,0,1,2.83,3.76q2.83-3.65,5.66-7.83c3.85-1,8.58-4.36,11.82-6.69,1.62-1.15,2.87-2,3.46-1.88s.5,1.1-.54,3.49c-.77-.18-.81,1.14-1.77,3.46a21.55,21.55,0,0,1-7.21,9s0,0,0,0c2.37-.19,4.82-.2,6.2.54s1.71,2.25-.15,4.73c-2.39,1.34-6.51,2.6-10.44,3.86a90.79,90.79,0,0,0-9.25,3.25c6.24-1.56,7.1.43,8.07,2.46s2,4.18,8.69,4.92c-3.12-.63-11,.36-12.56.76q5.07.12,10.14.62c-3.24,2.25-4.82,2.42-11.06,2.4a1,1,0,0,0,.26,1.29,4.93,4.93,0,0,0,.74.52,3.53,3.53,0,0,0,1,.33,21.58,21.58,0,0,0,5.71-.21c3.95-.45,7.1-.72,3,4.09-.82-.75-2.34-.39-3.88-2-4.26,9.67,6.44,18.67,1.44,27.54-15,2.62-3.68-7.75-16.35-4.75,2.72,12.8,18,26.5,14.47,38.88l1.66-2.31c21.21,1.72-10.48,9.23-.48,15.49-1.57-1.53-11.78-2-9.41-1.6-3.41,8.49,5.21,17.35,11.89,30.2l-5.46-1.6c-4.86,5-2.8,13.17-5.28,18.57,5.44,1.6,4.55,4.69,12.48,2.81-31,16.65,16.64,31.76-9.22,46.53-.06-1.77-4.76-4.21-4.79-2.81l5,12.59c9.24-1,5.59-1.65,12.79-4.3,5.48,1.6,9.73,5.15,9.73,8.26-6.13-5.65-14.85.05-20,2.5,2.83-.41,6,.43,8.83.22-16.44,6.57,18.6,1.1,7.52,10.07l-4.85-.47c2.48,3.36,8.9,6.45,7.51,10.07-10.69,1.5-5-3.57-13.79-3.8.62,5.08,20.26,10,9.6,14.64-3-2.16-3-5.27-6-7.43-12.55,5-9.36,5.6-11.35,9.32l.28-.37-5.68,8.62,3.4-2.2c27.88,6.37,5.09,13,23.35,21.54-17.28-8.34-10-1.38-22.11-2-3.36,2.19-7.14,5.52-10.54,4.57,9.77,4.06-7.7,6.77,6.59,12.49-3.91.25-.38,4.33-10.18,3.42,3.07,5.27,6.79-1.25,11.68-.8,13.33,8.12-16.16,19.09,2.13,30.77,7.52,10.08,20.68,11.94,27.23,21.29-6.24,3.15-14.21-2.59-14.21-2.59-5.74,5.09-4.69,8.92-.22,13.72-3.4-1-6.28,0-10.67,1.49,1,3.85,14.21,2.58,8.46,7.65-4.35-.87-11.31-2-15.67-3.84,3.59,4.54,10.87,9,14.39,13.71-6.8,1.25-10.31-2.83-14.75-4.49,3.06,5.28,6.16,13.68,16.92,15.31l3.84-3.39c.52,1.92-9.24,1-11.21-.43-8.43-4.52,3.73-6.52,7.65-6.78l2.5,3.35c22.87-3.44-3.67-13.44-2.34-20.17l16.64,2.81-13.81-6.91c4.33-1.47,13.62-2.47,16.11.85,8.22-4.82-5.92-4.27,3.25-8.42a3.1,3.1,0,0,1,2.89.18l-5-4.72c3.5.93,11.75-.78,9.35,2.11,9.6-8.46-12.48-13.65.13-16.83l1,.71c-5.62-11.75-12.22-1.14-26.55-9.95l30.13-5.93-12.21-1.15c.44-1.21,1.35-3.61,6.24-3.17-8.36-4.51-5.31.77-13.21-1.85,11.13-5.83-5.2-16.08,14.26-17.39-9.28-2.09-7.16,5.58-13.62-.65,20.93-1.77-3.58-7.2,6-12.52,10.8,1.63,5.08,6.68,14.72,1.35-18.26-3.22,4-10.38.5-14.87-14.53-.21-6.06-9.77-10.9-17.31,4.88.48,8-14.19,13.24-21.2l2.44.2c-14.69-1.35-11.92-8.59-15-13.86,8.8.21,12.26,1.16,16.2,4l-.07-5c-4.71-1.17-7.19-2.72-8.87-5.93l11,1.25c-.61-6.6-12.93-13.28-5.6-21.76-10.24-.48-28.52,6.74-35.36-2.22,5.54-.34,15-.67,17.28,1.68-.74-.77-4.6-2.74-2.24-4.29l9.32,3.58c4.09-3.86-7.79-2-6.92-5.11,7.9.06,5.64-2.28,11.9-1.84.77.79-3.26,2.69-.16,3.88,1.42-3.49,6.1-7.7,12.08-9.09-4.49.31-10.64,0-11.66-2.55-.58-6.59,9.5-2.25,13.56-6.1-5.48-1.6.2-5.8-11.61-5.91.06-1.93,5.57-2.29,8.77-3-5.21-3.41-1.49-15.94-14-12.09l-.83.87c-.24-.16-.26-.35-.52-.56v0c-11.74-11.18,6.69-23.23,1.64-34.32l4,0c-4.51-6.63-2.67-14.74-11.17-19.47,0-2,7.22-4.63,11.92-3.79-3-5.06-7.4-5.63-.89-12.94,6.89,5.09,6.11-1.76,5,5.21,3.41-6.58,9.74-8.07-1.06-15.13,10.12,2.4,12.74-4.95,9.72-8.08l-7.24,4.61c-1.48-3.52-.58-6.59.28-9.71L561,145.7c8.09-6.73,1.21-12.8-4.32-18.46-.69-.71-1.36-1.41-2-2.11a8.9,8.9,0,0,1-.88-1.09q-.42-.8-.78-1.56a14.68,14.68,0,0,1-1.59-6c0-4,2.32-7.93,9.09-13.44-2.33-1-3.9-.58-5.12.4a14.64,14.64,0,0,0-3,4.12,11.57,11.57,0,0,1-3.3,4c-1.42.94-3.29,1.25-6,.54.45-2.16,2-4.53,4-7.1s4.6-5.3,7.11-8c5-5.37,9.79-10.62,9.81-12.26,1.84-4.24,1.55-6.86.15-8.38s-3.9-2-6.48-2.36-5.23-.54-6.92-1.58-2.42-2.91-1.16-6.91a46,46,0,0,1-11,7.77c-4.32,2.09-8.61,3-10.84.9.44-2,1.9-4.5,3.91-7.12a67.46,67.46,0,0,1,7.18-7.82c5.23-4.92,10.72-8.46,12.63-6.94.4,1.92-1.11,4.07-2.72,5.12.87.82,1.81,1.86,3.18,1.84s3.16-1.09,5.73-4.77c-1.58.65-3.16,1.33-4.75,2,2.42-4,3.51-9.31,5-14.05s3.28-9,7.17-10.63c-2.26-2.05-4.21-1.06-5.9,1.25s-3.12,6-4.35,9.64A47,47,0,0,0,558,30.37a53.77,53.77,0,0,0,0-8.72c-4.41.21-8.79.28-12.65-1.68-.12,2.62-3.36,8.19-5.23,8.15A11.77,11.77,0,0,0,532,27.07a15,15,0,0,0-5.94,3.6c-3.64,3.25-7.32,7.49-13.34,8.53-.63-3.62,2.59-7.94,4.29-10.59.83-1.33,1.23-2.24.4-2.45s-2.92.31-6.84,1.83c-2.32-2.45-1.18-5.6,1.45-8.62s6.72-5.91,9.6-7.85c-4.59,2.29-8,3.06-10.84,2.9a13.68,13.68,0,0,1-7.18-2.68c-4.09-2.86-7.56-7.07-11.3-7.91Q496.52,1.91,501,0c-5.32,2.28-8.84,2.21-12.55,2.18.55,3.17,1,6.33,1.33,9.5-3.52-1.65-7-1.7-6-5.64-2.9,3.11-2.92,7.05-3.66,11.29a22.15,22.15,0,0,1-6.38,13c-1.78-2.41-5.51-1.12-8.57-.79s-5.66-.33-6.3-6.63c3.74,1.07,5.48.81,6.35-.2s.76-2.8.58-4.78c-.33-3.95-1.17-8.69,6.33-9.71-3.05,1.51-6.36,1.45-10.41-.22-.56-1.41.72-2.61,1.95-3.33a17.41,17.41,0,0,0-5.22-2.62,6.77,6.77,0,0,0-1.95-.25,2.28,2.28,0,0,0-1.34.34c-1,.8-1.52,2.93-2.07,5.39-1.11,4.94-2.26,11.24-7.05,11.09,1.22-7.1-2.22-13.46-3.79-12,3.87.15,1.85,11.85-1.7,17.29-6.14-5.53-6.68,4.11-9.9,3.46L434.34,30c-1.25,7.09-4.32,6.16-8.61,8.4-.37-5.53,3.89-3.8,2.36-6.24-4.76,12.48-10.75-12.92-17.39-4.51-3.07-4.82-.29-13.34-3-16.6-7.44,9.2-8.06-9.73-15.88-2.12,2.26,9.54,2.65,7.2-2.85,16.51l12.85-6.72-8.25,13.88c3.88.13,8.18-6,10.51-4.38-3.93,7.79-3.53,5.41-1.67,13.33-5.31-14.31-10.52,8.34-16.66-1.32L386,16.62c-9.22-10.52-16.39,12.13-28.37,6.19l3.85,4.11c-1.6,9.39-7.39,1.3-11.27,5.11.36-7.9-2.06-10.76-3.72-15.68.2,5.86-8.76-.54-9.85,15.23l-5.35-10.4c-9.67-4.26-11,22.5-20.33,19.82,2.8-8.59-1.43-14.18,4.8-20.32-3.1-.08-5.89-1.53-5.94,3.95-1.82-4.95-8.61,10.63-11.46,3.13-1.31,3.47-1.74,11.74-5.22,11.09a12.11,12.11,0,0,1,0-3.91c0,3.91-5.45,5.32-2.41,14.06-9.56-24.64-26.72,1.78-35.05-19.37-6.77,2.65-14.93,5.19-21.08,5.76.39-2.36,0-3.93,1.18-3.11-8.48-7.35-5.21,22.66-14.86,14.47C215.94,34,226,39.84,222.93,35c-1.34-26-11.65,3.55-18.15-11.62l1.57-1.53c-5-8.83-12.11,9.84-20.22,8a12.91,12.91,0,0,0,.05-3.92c-5.55,13.25-16.05,17.64-23.86,21.32,2.43-10.17,3.55-5.38,2.06-15.72-3.49,1.47,1,16.6-5.95,19.49-2.27-5.57-7.31-10.43-8-21.46L157,29c-3.38-14.27-8.53.48-12-2l.44-6.23c-5,1-7.6,5.45-10.25,9.49a22.19,22.19,0,0,1-4.38,5.29,10,10,0,0,1-1.34.89,11.91,11.91,0,0,1-2,.64,16.24,16.24,0,0,1-4.84.3c.63,1.58,1.22,3.15,1.79,4.72-1.63,3.89-2.68,5.29-3.67,5.38S118.94,46.31,118,45s-2-2.81-3.11-3.22-2.4.24-3.57,3.13q-2.89-7.89-6.23-15.79a119.07,119.07,0,0,0-9.76,9.43c-3.61,3.71-6.91,7.32-10.18,8.8a17.57,17.57,0,0,1,3.42-14.1c2.75-3.83,6.54-7.07,9.45-10.54a43.22,43.22,0,0,0-12.35,1.51c-4.19,1.28-7.32,3.55-6.61,7.44.7-.76,1.27-2.11,2.14-3s2-1.21,3.74,0c-.63,6.21-1.83,10.84-4,13.88s-5.22,4.5-9.93,4.37a54.81,54.81,0,0,0-9.79-11.16A28.16,28.16,0,0,0,52,30.55c-6.21-2.07-12.29-1.92-19.23-3.06-1.2,5-3.84,8.3-12.07,4.62,2.83,8.14,4,14.39,4.06,20a63.85,63.85,0,0,1-2,15.82c-1.2,5.19-2.7,10.57-3.78,16.53a79.52,79.52,0,0,0-1.3,19.44c6-1.33,9-1.25,10.54-.71s1.66,1.71,1.79,3.07a5.52,5.52,0,0,0,1.91,4.31c1.64,1.36,4.79,2.38,10.9,2.8,1.55,5.13,1.15,6.88-.43,7.29l-1.82,1.85-.92,1a7,7,0,0,1-.91.9l-3.65,2.81-7.31,5.62c-7.12,2.67-5.39-3.53-10.88-3.19C15,137.76,6.5,133,0,138.42c8.75-1.11,12.53,2.82,9.19,7.45l11.28-6.52c13,11.35-20.53,9.81-7.64,21.25L5.14,157c4.54,5.87-.16,21.66,19.49,27.41-2.83,1-9.51,2.41-11.28-.17-2.95,14,20.91,31.23,8.81,42.14l-6-1.07c1.73,2.62,11.23,4.56,5.22,7.84-2.48-.17-6-1.06-6.32.15,2.06,1.39,10.48,7,7,10.43l-6.73-3c-7.83,13.69,16.39,21,20.49,32.48-17.61,0-23.33,10.74-26.18,16.11l-2.49-.18C5,305.08,21.75,316.21,28.66,331c-19.11,9.16-8,31-18.72,45.75,3.19-2.25,13.72.37,15.49,3-3.58,3.45,12.21,9.55-3.93,9l.3-1.23c-15.84,2.6-11.63,9.7-12.06,15.25l21.13.91c-15.36,7.25-12.54,16.75-9.32,25.43,1.61,4.33,3.32,8.46,2.91,12a7.64,7.64,0,0,1-.74,2.54,7.31,7.31,0,0,1-.73,1.17,5.67,5.67,0,0,0-.47.61c-.17.31-.35.61-.55.91a20.71,20.71,0,0,1-7.33,6.54c2.64,2.92,3.94,6.12,5.25,9.24s2.61,6.12,5.25,8.28l-11.33,2.4a215.75,215.75,0,0,0-2.91,23.4,130.25,130.25,0,0,0,1.3,25q-4,.4-8.1.51c-.18,3.39,1.77,4.85,4.81,5s7.16-.81,11.33-2.1,8.38-2.83,11.59-3.6,5.42-.74,5.59,1.33q-8.45,8.43-16.9,17.33A91.94,91.94,0,0,1,18.69,556c6,1.66,11.9,3.92,19.58,4.31s16.94-1.09,27.76-6.89c-1.77,2.47-5.24,7.36-9.12,8a74.62,74.62,0,0,1,9.31,1.61,58.42,58.42,0,0,0,12,1.38c4.09-.05,8.06-.83,11.15-3.06s5.27-5.89,6.31-11.69c-1.18,3.78-.51,5.76,1.42,6.5s5.06.25,8.56-.93a65.48,65.48,0,0,0,10.88-5c3.54-2,6.75-4.08,9.25-5.74q-1,5.57-2.11,11.14c2.48-3.56,4.17-6.47,5.57-8.9a4.08,4.08,0,0,0,.4-.89l.31-.84.62-1.57c.4-1,.8-1.89,1.21-2.7a15.27,15.27,0,0,1,7.33-7.18c1.78,1.46,1.56,8.93-.8,6.08,5.92,5.84,4.62-10.56,11.8-4.62l-2.67,7.12c6.09.86,5.61-3,9-11.27,3.83-4.47,11.57,2.82,12.47,12.9.82-6.15,4.16-14.37,7.76-11.46a11,11,0,0,1-1.49,7.33c10.2,7.58,15.17-13,22.18-2,.15,3.7.61,5.54,1.19,6.66-8.1-.27-14.63-.88-14-1.7,0,10.28,6.55,12.08,1.34,26.28,5.25-7.75,14.24-24.58,20.62-19.75a20.53,20.53,0,0,1,.84,3.55l-.66,1.16c1.47,1,2.79.06,4-1.66,2,1.68,3.33,2.94,5.29,3.08.75,8.51,7.5,4.59,10.76,5-.27-11.25,4-9.44,0-18.72.52.79-.61,1.34-2.78,1.81-.49.33-1.07.5-1.39,1.16.06-.31.14-.66.22-1-2.14.33-4.94.58-8.11.75,2.57-5.71,5.27-10.51,8.88-4.27,1.67-7.23,3.51-14.66,4.55-18.15,4.47,15.69,13.08,24.16,14.28,33.83,10-6.31,23.47-4.16,29.74-25.28,2.83-2.72,3.25,6.05,4.31,9.37-1.63,2.12-3.58,1.8-4.46,4.84,5.66-5.42,16.78-2.11,18.13-16.87,7.14,6.66-4,13.59,5.8,11.17l-1.33,4.52c19.3,23.58,31.38-37.67,52.78-7.4-1.48-1.85-2.23-2.71-2.53-5.18,24.4,13.35,50.27-12.53,74.34,8.64,6.85,4.27,7.59-5.16,11.76-12.32l1.49,12.08,7.14-13.94c10.12-10.2,17.53,29.64,30.35,10.34l-1.66-8.13c4.61,1.54,14.58-4.8,13.82,4.56.47-1.49,1.5-8.46,3.3-4.22l.14,6.32,11.31-10.83c8.77,4.57-1.37,25.08,11.42,26.32,4.76-2.44,13.54-18.4,11.76-22.63-1.92-.31-4.9-3.94-5.05-10.27l4.35-3.3c.79-18.62,4.13-37.69-6.54-50.7l-7.44,11.39-2.4-9,6.26-.57c-3.55-8.51-5.8-1-8.32,4.18-.6-4.81-1.64-8.17-3.12-9.95l-7.3,17.79c-.89-7.29,3.27-14.46-1.63-18.49-3.42,8.26,3.28,16.34-2.38,21.77-3.56-8.47-2.52-15.36-6.7-8.13-.59-4.8.3-7.86,1.95-10-3.71,5.75-9.84,2.43-11.75,12.33-3.71-10.45-12.56,2.71-12.19-14.91-1.17,4.22-6.55,13.84-10,14.57,6.24-21.11-12.78-1.24-11.13-23.87-4.62,19-16.68,8.43-24.86,19,.46-1.51,1.35-4.56,2.08-3.6-4.61-1.57-5.95-7.29-8.9-10.88-.6,15.68-7.76,19.26-11.63,28.93-5.64-15.13,3.43-18.4,1.66-32.93.28,12.7-9.81,12.68-7.89,23.26-4.32-9.36-3.72-4.54-5.94-17.53-.76,19.6-4,3.31-7.6,15.35-6.24-9.66-1.61-18.36-8.47-12.39C361.8,453.08,367.9,446.14,367.9,446.14ZM204.73,480v-.23l3.37-.63C207.4,479.32,206.43,479.55,204.73,480ZM191,480.2a21.3,21.3,0,0,0,5.95.44c.48,3.89,0,7.88-1.42,7.68C196.3,485.73,193.07,483.48,191,480.2Zm29,77.92c-2.16,1.6-2.89-.61-3.19-2.92a14.67,14.67,0,0,0,3.8-1.34c.06-.42.19-.9.25-1.38A33.89,33.89,0,0,1,220,558.12Z"/><path class="cls-1" d="M223.93,543.38c.31-.25.48-.72.89-.82a21,21,0,0,0-1.29-2.53c-.27,1.21-.54,2.44-.77,3.52C223.15,543.48,223.56,543.46,223.93,543.38Z"/><path class="cls-1" d="M536.86,237.31l.25-.29a5.06,5.06,0,0,1-1.6.6C536.06,237.43,536.41,237.43,536.86,237.31Z"/><path class="cls-1" d="M116,445.63l-2.83.08c.83.08,1.66.14,2.48.19Z"/><path class="cls-1" d="M498.27,312.83a7.12,7.12,0,0,0-2.88,1A9.27,9.27,0,0,0,498.27,312.83Z"/><path class="cls-1" d="M495.75,345.45l-4,4.61A17.52,17.52,0,0,0,495.75,345.45Z"/><path class="cls-1" d="M490.17,370.53A43.8,43.8,0,0,0,495,371a.28.28,0,0,1,.08,0Z"/><path class="cls-1" d="M432.39,102.66a1.75,1.75,0,0,0-1,.5C429.15,105.34,430.7,104.48,432.39,102.66Z"/><path class="cls-1" d="M503.23,99.24a42.1,42.1,0,0,1-5.32.26C497.05,101.39,496.83,102.5,503.23,99.24Z"/><path class="cls-1" d="M299.87,116.19c0-.07,0-.09,0-.19a5.61,5.61,0,0,1-.82,0Z"/><path class="cls-1" d="M498.11,95.75c-2.24,2.87-1.76,3.57-.2,3.75C498.67,98,499.82,95.78,498.11,95.75Z"/><path class="cls-1" d="M485.07,479.24l-.47,1.21a8.23,8.23,0,0,1,1.81.14Z"/><path class="cls-1" d="M486.41,480.59l1.33,1.35C487.74,481.32,487.65,480.79,486.41,480.59Z"/><path class="cls-1" d="M490.57,484.76l-2.83-2.82C487.71,482.91,487.36,484.12,490.57,484.76Z"/><path class="cls-1" d="M490.27,446l-4.08-.38A20,20,0,0,0,490.27,446Z"/><path class="cls-1" d="M489.09,436c-.93,2.41-8.7,6-6.15,9.4l3.25.31C480.12,444.08,496,438.23,489.09,436Z"/><path class="cls-1" d="M539.49,393.83l-3.26,8.46c4.34-1.48,10.18-3.42,11.22.42C560.41,392.05,537.74,404.91,539.49,393.83Z"/><path class="cls-1" d="M545.79,367.62c2,4.54,6.3-.06,8.76.18C550.59,364.92,549.59,364.22,545.79,367.62Z"/><path class="cls-1" d="M545.83,178.15l10.23.46C554.59,175.11,552.09,178.58,545.83,178.15Z"/><polygon class="cls-1" points="492.94 141.94 486.59 145.34 495.96 146.97 492.94 141.94"/><path class="cls-1" d="M565.83,118l1.46,2.56q-1.86-5-3.71-9.64Z"/><path class="cls-1" d="M263,17.42,264.06,30C266.43,27.76,266.92,13.6,263,17.42Z"/><path class="cls-1" d="M123.92,30.26c-1.26-3.15-3.51-5.74-5.9-6.77s-4.82-.49-6.08,2.61c2.43.43,5,1.88,7.06,3S122.83,31.07,123.92,30.26Z"/><polygon class="cls-1" points="14.96 410.53 10.74 407.77 14.26 412.97 14.96 410.53"/></g></g></svg>