<svg xmlns="http://www.w3.org/2000/svg" viewBox="0 0 566.55 568.18"><defs><style>.cls-1{fill:#aacbeb;}</style></defs><title>Element 133</title><g id="Ebene_2" data-name="Ebene 2"><g id="Ebene_2-2" data-name="Ebene 2"><path class="cls-1" d="M559,228.88a6.65,6.65,0,0,0,.4-2Z"/><path class="cls-1" d="M561.21,37.62c.08,1.44.41,2.05.71,2.12C561.7,38.4,561.5,37.3,561.21,37.62Z"/><path class="cls-1" d="M549.33,4.77c1.08.1,2,.15,3,.22A5.61,5.61,0,0,0,549.33,4.77Z"/><path class="cls-1" d="M559.4,226.92l1-5.06C559.36,221.5,559.64,224.45,559.4,226.92Z"/><path class="cls-1" d="M563.43,313.18l-1.35-2.82v1.54A8.63,8.63,0,0,0,563.43,313.18Z"/><path class="cls-1" d="M558.67,371.89a4.6,4.6,0,0,1,1.93,3.16,3.6,3.6,0,0,0,2-.65C562.71,373,559.9,372.45,558.67,371.89Z"/><path class="cls-1" d="M557.64,476l.28,1.28C557.84,476.8,557.75,476.32,557.64,476Z"/><path class="cls-1" d="M562.69,264.52a2,2,0,0,0,1-.58A1.45,1.45,0,0,0,562.69,264.52Z"/><path class="cls-1" d="M554.76,554.18l-1,.15a7.81,7.81,0,0,0-.22,1.57Z"/><path class="cls-1" d="M486.05,1.17l.26.05C487.87.9,487,1,486.05,1.17Z"/><path class="cls-1" d="M4.55,88c2.51-6.15,3.22,10,6,.75C9.46,89.59,6.18,80.31,4.55,88Z"/><path class="cls-1" d="M349.77,2.86a4,4,0,0,0,1.39,1.23C351.11,3.8,350.8,3.45,349.77,2.86Z"/><path class="cls-1" d="M451.29,6.86l-2.51-.38A12.36,12.36,0,0,0,451.29,6.86Z"/><path class="cls-1" d="M295.93,6.59c.33.08.68.16,1.12.23A7.21,7.21,0,0,0,295.93,6.59Z"/><path class="cls-1" d="M295.93,6.59a5.33,5.33,0,0,0-2.57,0,2.27,2.27,0,0,0,.57.34A3.13,3.13,0,0,1,295.93,6.59Z"/><path class="cls-1" d="M242.19,6.84a8.85,8.85,0,0,0,1,.57l1.74-.15Z"/><path class="cls-1" d="M564.87,79.26c-2.33-4.23-1.64,8.69-4.36,4.91.45-7.36,5.22-15,5.23-17.34,1.85-10.09-4.86-9.41-3.6-20-1.18,1.35-4.35,2.63-5.47-5.26.44-7.37,5-9.06,5.93-4.41.1,1.77-.28,2.62-.68,2.55.43,2.38.94,5.5,2.23,2.59l-1.19-1c.61-1.83.88-5.28,1.24-8,.18-1.38.39-2.31.67-3.69.28-1.1.64-1.48,1.12-.51-.56-4.66-1-5.4-1.47-4.33a15.36,15.36,0,0,0-.59,2.82c-.08.57-.16,1.2-.23,1.86,0-.41.07-.83.11-1.23.1-1.22.18-2.41.25-3.57.12-2.32.18-4.53.2-6.66,0-4.28-.08-8.24-.07-12.65-3.62,0-7.44-.11-11.89-.45,2.19.66,3.33,2.05,1.06,2a79.89,79.89,0,0,0-10.58-.26,8.58,8.58,0,0,0-3.84.9,3.54,3.54,0,0,0-.82.64,4.94,4.94,0,0,1-1,.63,12.29,12.29,0,0,1-4.57.86c-5.49-1.81,2-4.32-7.76-2.8-5.94-1.23-1.26-3.15,1.1-4.12-8.86,2.29-16.56-1.5-21.63-1.92L509,0a33.78,33.78,0,0,1-7.41.54l2.67,2.38c-2.74-.41-5.06-.43-5-1.41-2.83,1.55,2.16,4-3.45,6.07-3.65-1.2-11.13,1.3-12.39-1.85,10.41,1,.91-2.42,6.27-3.44A24.37,24.37,0,0,1,484.91,2c-.41-.35.39-.65,1.14-.83-11-2.82-5.06,3.56-16.46,3.49,1.45-1.78-2.64-3.37-4.5-3,4.59,0,2.19,3-2,4.32-7.31-1.38-7.95,1-11.78.87l4.37.65c-1.48,1.77-5.13,1.54-10.23,2.1-.13-.43.26-.69.82-.85-5.3,1.06-11.69-3.7-18.69-1.84-3.65-1.21-.35-3.34-3.56-4.15-8.84,2.3-9.58-2.43-18.87-.53,2.68,2.38,3.14,1.8-3.4,4.13L417,4.69,407.2,8.16c4.61,0,9.73-1.51,12.5-1.1-4.67,2-4.19,1.36-2,3.34-6.31-3.58-12.51,2.08-19.8-.34l.22-5.91c-11-2.63-19.48,3-33.72,1.55l4.57,1c-1.91,2.35-8.79.33-13.4,1.28.43-2-2.45-2.69-4.42-3.92.24,1.46-10.43-.14-11.72,3.81l-6.36-2.6c-11.5-1.07-13.12,5.62-24.17,5,3.33-2.15-1.7-3.55,5.71-5.08-3.69,0-7-.38-7.07,1-2.15-1.24-10.23,2.66-13.62.78-1.56.87-2.07,2.94-6.21,2.77A.6.6,0,0,1,287.6,9c-.92.82-6,1.28-2.73,3.28-11.37-6.16-31.77.44-41.67-4.84-8.06.66-17.76,1.29-25.07,1.44.47-.59,0-1,1.41-.78-10.09-1.84-6.2,5.66-17.68,3.62C196,8.5,208,10,204.3,8.75c-1.59-6.49-13.85.89-21.58-2.9l1.87-.39c-5.9-2.2-14.4,2.46-24.05,2,0,0,.47-.57.06-1-6.6,3.31-19.08,4.41-28.36,5.33,2.88-2.54,4.21-1.35,2.45-3.93-4.16.37,1.22,4.15-7.08,4.87-2.7-1.39-8.69-2.61-9.49-5.36L126,7.24c-4-3.57-10.13.12-14.26-.5l.53-1.56c-12,.51-12.17,4.44-25.07,4.16l1.33,1.17c-7,3.9-5.91-2.18-12.94.71l-2.13-4c-4.65,1-16.29,3.82-24.63,4.56C53.51,8.9,63.27,7.41,69.31,5.67c-4.62,0-15.67.29-18.07,2.24,1.85-.38,4.19-1.35,6-.74Q48.78,11.82,35,11.73A2.45,2.45,0,0,0,33.8,8.94,5.9,5.9,0,0,0,33,8.5a5.19,5.19,0,0,0-1.19-.36,35.83,35.83,0,0,0-3.61-.5c-5.44-.52-12.81-.48-20-.77-.3,7.07-1,13.48-3,16.83.18,1.76.33,3.47.46,5.16l.17,2.38.14,1.53c.16,2,.23,4.06.25,6.1,0,4.08-.2,8.19-.5,12.39-.6,8.4-1.5,17.13-1.27,26.6,5.95-6.72.17,5.52,6.28,4.36.39,4.38.29,6.07-.09,6.48l.25-.93-.29,1h0L6.94,102.07c-1.78,3.17-1.35-4.19-2.72-3.78-.47,9.65-2.6,4-4.22,10.44,2.19-1.31,3.13,3.35,2.3,8.86l2.82-7.75C8.37,123.33,0,121.5,3.21,135.1l-1.93-4.3c1.14,7,0,25.75,4.88,32.6-.71,1.23-2.38,2.86-2.82-.21-.74,16.68,5.22,37.13,2.2,50.1L4,212c.44,3.11,2.81,5.42,1.31,9.32-.62-.2-1.49-1.26-1.58.18.51,1.65,2.62,8.27,1.75,12.4l-1.69-3.53C1.88,246.66,7.93,255.36,9,269c-4.41,0-5.84,12.77-6.55,19.16l-.62-.23c-.55,18.95,3.65,32.19,5.37,49.74-4.77,10.89-2,36.89-4.68,54.39.8-2.67,3.43.44,3.88,3.55-.9,4.11,3.05,11.36-1,10.71l.07-1.47c-4,3.1-2.91,11.54-3,18.13l5.28,1.09C0,441.32,10.54,469.26,3.66,478.67,5,482.82,5,488,6.28,492.1l-2.83-.22a230.41,230.41,0,0,0-.4,31.53l-2-2.9c-.09,4,2,6.56,4,9A27.76,27.76,0,0,1,8,533.33a10.3,10.3,0,0,1,1,2.19,9.44,9.44,0,0,1,.29,1.22,5.5,5.5,0,0,1,.09.7c0,.32,0,.64,0,1a41.31,41.31,0,0,0-4.22,4c0,7.33-.33,14.86-.7,22.83,7.93.41,16.36.84,25,.85l3.11,0,1.8-.06c1.21-.06,2.41-.16,3.61-.29a46.11,46.11,0,0,0,7.18-1.37c-.23.62-.64,1.84-2.91,2,6.37.11,24.21,2.67,23.3-2.36,1.62,2.81,14.74-.3,21.87-1.87l-1.17,2.78c6.39-3.56,6.59-4.53,15.52-5.52,1.94.34,1.87,1.94-.33,1.64,6.33,1.09,5.13-2.71,13.41-1.27l-3.18,1.78c7.25.21,6.67-.74,10.66-2.82,4.56-1.12,13.76.71,14.83,3.23,1-1.54,5-3.6,9.23-2.87.57,1-1,1.54-1.77,1.83,12.13,1.9,18-3.24,26.38-.5a2.09,2.09,0,0,0,1.4,1.66c-8.86-.06-16.11-.19-16.66-.37.1,2.52,7.74,3,1.59,6.52,6.25-1.94,16.93-6.15,24.51-4.94a3.38,3.38,0,0,1,1,.89l-.78.29a11.1,11.1,0,0,0,4.79-.42,35.64,35.64,0,0,0,6.29.77c.89,2.13,8.92,1.15,12.8,1.26-.32-2.82,4.76-2.36,0-4.68.62.19-.73.33-3.31.45a7.66,7.66,0,0,0-1.66.29,3.32,3.32,0,0,1,.27-.25c-2.55.08-5.87.15-9.65.19,3.07-1.43,6.27-2.63,10.56-1.07,2-1.81,4.18-3.66,5.42-4.54,5.31,3.93,15.54,6,17,8.46,11.85-1.58,27.91-1,35.36-6.32,3.37-.68,3.87,1.51,5.13,2.34-1.94.53-4.26.45-5.31,1.21,6.74-1.35,20-.52,21.56-4.21,8.49,1.66-4.77,3.39,6.9,2.79l-1.58,1.13c22.52,5.78,36.77-8.84,61.33-2.24-.84-.25-1.34-.49-1.58-.91,29,3.34,59.77-3.13,88.39,2.16,8.14,1.07,9-1.29,14-3.08l1.76,3,8.49-3.48c12-2.55,20.85,7.41,36.09,2.58l-2-2c5.48.39,17.34-1.2,16.43,1.14.56-.37,1.79-2.11,3.93-1.05l.17,1.58L527,556.8c10.43,1.14-1.63,6.27,13.58,6.58,5.66-.61,16.1-4.6,14-5.66-2.28-.08-5.83-1-6-2.57l5.17-.82c.68-3.36,2.92-6.78-.65-9.64l-.06-1.44a16.72,16.72,0,0,0-.36-9.23l-.09-2.29c.59-.2,1.2.5,1.67.7a21.81,21.81,0,0,0-1.77-3.3l-.4-10a1.6,1.6,0,0,0,.15-.9l-.16.68-.17-4.41-.16-2.32.23,1.46c5-3.54.63-13-.39-20.6l.52-2.8,3.44,2.76-2.74-6.52.56-3c1.09-.66,2.33-.39,2.76,2.34,2-5.74-1.48-5.08.81-10,.36-.54.56-.3.72.21l-1.24-5.61c.88,1.1,2.94-.93,2.34,2.51,2.4-10.06-3.12-16.23,0-20l.26.84c-1.2-11.89-2.57-4.51-5.17-8.53v-4.67l6.06-5.67-3-1.37c.11-1.44.34-4.29,1.56-3.77-2.09-5.36-1.33.92-3.3-2.19,2.78-6.94-1.3-19.12,3.56-20.69-2.32-2.48-1.79,6.64-3.4-.77,5.23-2.11-.9-8.55,1.5-14.89,2.7,1.95,1.27,7.95,3.68,1.61-4.56-3.82,1-12.34.13-17.68-3.63-.25-1.52-11.62-2.73-20.58,1.22.57,2-16.87,3.31-25.21l.61.24c-3.67-1.61-3-10.22-3.74-16.48,2.2.25,3.07,1.37,4.05,4.77V311.9c-1.18-1.39-1.8-3.23-2.22-7l2.74,1.48c-.15-7.83-3.23-15.78-1.4-25.87-2-.44-5.22,4.7-7.35,1.9v-4.81a2.5,2.5,0,0,1,2.83,2.27c-.18-.91-1.15-3.26-.56-5.1l2.33,4.26c1-4.59-1.94-2.4-1.73-6.07,2,.07,1.41-2.72,3-2.19.19.93-.82,3.2,0,4.6.35-4.14,1.52-9.14,3-10.8-1.12.37-2.66,0-2.92-3-.14-7.84,2.38-2.68,3.39-7.25-1.37-1.9.05-6.9-2.9-7,0-2.3,1.39-2.72,2.19-3.61-1.3-4-.37-18.94-3.51-14.37l-.21,1c-.06-.2-.06-.43-.13-.66-2.93-13.3,1.68-27.62.41-40.82l1,0c-1.13-7.87-.67-17.52-2.79-23.15,0-2.33,1.8-5.5,3-4.5-.74-6-1.85-6.69-.22-15.39,1.72,6,1.52-2.09,1.26,6.2.85-7.82,2.43-9.59-.27-18,2.53,2.86,3.19-5.89,2.43-9.61l-1.81,5.48a76.35,76.35,0,0,1,.07-11.55l3.33,2C569,104.31,558.09,91.45,564.87,79.26ZM198.64,564.42c.08-.11.23-.23.31-.35a3.49,3.49,0,0,1-1,1.41c-2.58.4-3.45-.15-3.8-.73C195.35,564.71,196.77,564.61,198.64,564.42ZM450.53,281.5a8.53,8.53,0,0,1-.43-1.27l.43-.07Zm0-146.32a.2.2,0,0,0,0,.07c-.39-1.16,0,4.29-2.25,6.53,0,0,0,0,0,0,1.19,2.13,2.44,4.31,1.51,7.48-1.19.82-4.12-.66-4.92-.13,3.12,2.1.87,10,4.19,12.7a3.31,3.31,0,0,0-3.14-.64l2.54,1.76c-.82,2-1.21,2.27-2.77,1.95-.46,6,4.73-1.9,2.69,5.19-.2-.55-.58-.29-1-1.45-1.07,7.13,1.6,13.77.36,20.31-3.76,1.93-.92-5.72-4.09-3.51.68,9.44,4.5,19.55,3.62,28.68l.41-1.7c5.3,1.26-2.62,6.8-.12,11.42-.39-1.13-2.94-1.48-2.35-1.18-.85,6.26,1.3,12.79,3,22.27l-1.36-1.18c-1.22,3.69-.7,9.71-1.32,13.69,1.36,1.18,1.13,3.46,3.12,2.08-7.76,12.27,4.16,23.41-2.31,34.31,0-1.31-1.19-3.11-1.2-2.07l1.26,9.28c2.31-.74,1.4-1.22,3.2-3.17a5.76,5.76,0,0,1,.94,1.1v3.22c-1.25-.1-2.6,2.34-3.51,3.61.71-.3,1.49.32,2.21.17-2.51,2.95-.23,2.61,1.3,3.38v3.88l-.63-.19a16.41,16.41,0,0,0,.63,1.91v5.63c-1-.48-.49-2.78-2.2-2.91.07,1.84,1.29,3.65,2.2,5.43v4.86c-.55-1.54-.63-3.54-1.3-5-3.14,3.69-2.34,4.12-2.84,6.87l.07-.27L445,335.92l.85-1.62c6.17,4.16,2.42,8.44,4.64,13.75v.52c-2.78-3.48-1.63.55-4.33.13-.84,1.61-1.78,4.07-2.64,3.37,2.45,3-1.92,5,1.65,9.2-1,.19-.09,3.2-2.54,2.53.77,3.88,1.7-.92,2.92-.59,3.33,6-4,14.07.53,22.69,1.17,4.62,2.89,6.9,4.41,9.62v6a8.74,8.74,0,0,1-1.15-1.78c-1.44,3.76-1.18,6.58-.06,10.12-.85-.72-1.57,0-2.67,1.1.26,2.84,3.56,1.9,2.12,5.64a13.27,13.27,0,0,1-3.92-2.84c.9,3.35,2.72,6.65,3.6,10.12-1.7.91-2.58-2.09-3.69-3.31.77,3.89,1.54,10.08,4.23,11.28l.71-1.85c-.61.44-2.17-.15-2.55-1-2.11-3.34.93-4.81,1.91-5l.63,2.47a6,6,0,0,0,.84-.48v10.44c-1.61-1.63-3.76-2.81-6-1.71,3.18,2.26,1.85,2.8,5.64,5.23a3.12,3.12,0,0,1,0,1.18,13.13,13.13,0,0,0-3.12-1.74l-5.48,2.85L439.77,440l4.62-.14c-2.62-2.13-4.28-.25-6.14,1a4,4,0,0,0-2.3-2.48l-5.39,4.44c-.65-1.82,2.42-3.61-1.2-4.62-2.52,2.07,2.42,4.09-1.75,5.44-2.63-2.11-1.86-3.84-4.94-2-.43-1.2.22-2,1.44-2.49-2.74,1.44-7.26.61-8.67,3.08-2.74-2.61-9.26.68-9-3.72-.86,1.05-4.83,3.46-7.35,3.64,4.6-5.28-9.43-.31-8.21-6-3.4,4.75-12.3,2.11-18.33,4.74.29-.32.81-.92,1.29-.94-3.19-.43-4.2-1.81-6.32-2.68-.44,3.92-5.73,4.82-8.58,7.23-4.16-3.78,2.53-4.6,1.22-8.23.21,3.18-7.23,3.17-5.81,5.82-3.18-2.34-2.74-1.14-4.38-4.39-.56,4.9-3,.83-5.6,3.84-4.61-2.41-1.19-4.59-6.25-3.1-2.41-1.5,2.09-3.23,2.09-3.23-5.15-.08-2.42,3.61-3.51,5.73-6.15,1.05-2.85-2.72-4.94-4.61-3.84,1-6.78,4.37-9.65,4.23-.21-.61-.77-.83-.11-1.59-4.06,2.93-12.05.14-16.78,3.83a2.19,2.19,0,0,1-.62-.92,10.51,10.51,0,0,1,.73,5.07c-2.31.07-4.29,2.34-5.16-.08,1.42.07,1.54-.9,2.2-1.66l-2.42,1c-2.18-3.47,3.3-1.2,3.3-3.77-4.72,1.13-10.22,4-13.83,3-.76-3.39,8.45-1.14,3.63-4.16l5.59,1.3c-4.27-5.36,3.4.37-.53-5.36-7.36-1-8.23,1.73-15.58.74-1.65,1.89.55,2.79-1.1,4.68-10.44,3.39-8.22-8.54-15.89-4-2,2.26-2.76,6.56-8.23,4.28l1.87-3.84c-7.13-.38-4.07,5.52-11.54,2.94,1.33-1.51,5.6-1.27,4.53-1.73-4.84-3-3.42,2.18-7.14,2.18l-.77-3.4c-7.59.53-16,3-24.36,3.61.47-1,1.91-2.08-.06-3.12-10.6,1.7-22.63-.41-32.85-2.43l-3.91,2.94c-.91,0-1.69-1.33-.7-1.9-4-1.11-.21,1.86-2.12,3-2.27.2-3-1.69-1.56-2.57-7,2.49-20,5.36-27.44,2.22l1.44-.88c-5.77-1.19-6.51,6-11.86,3.28l1-.52c-1.93-.19-3.9-.3-5.88-.34l-2.1,0h-1.37a39.3,39.3,0,0,1-5.25-.07c.24-2.29.89-4.79,2.58-6.26-1,.11-1.47-.21-1.58-.71a1.25,1.25,0,0,1,0-.4c0-.34,0-.69,0-1.05.06-.73.13-1.48.19-2.22.27-3,.32-5.82-2.63-6.22,2.92-7.15,4-5.1,5.94-15.17.27-2.69-3.68-4-4.3-7.34l3.09-.08-3.24-4.51L131,396l-.79-3.12c-.18,1.24-1.39,2.64-2.27,2.45-1.4-4.87,2.14-11.88,3.72-12l-2.6-11.52c.91.19,1.39,1.29,1.89,2.48-1.64-4.2,3.59-.33.93-5.53-.7.76-1.84-.4-2.46-.53,1.86-2.81,1.88-9.21,1.09-13.94l2.13.91c.54-8.55-1-18-1-27.62-1,3.44-4.68,2.65-5-.16l3.26-1.13c-2-1.81-1.23,2.94-3.7-.79.38-3.58,3.71-2.41,4.77-.35l-1.13-4.36c1-.25,1.48.77,2.72,1-2-1.78,3.27-7.52-.24-10.1l1-.24c0-9.59-1.1-13.94-1.26-21.75-2.81-.16-2.19-3.21-4.46-5.54.9-5.74,3.11-12.11,2.87-19-1.4-4.86-2.38-1.42-4-3.61,2.56-.36,2.32-7.26,4.16-3.68A108.77,108.77,0,0,0,128,236.75c-1,1.14-1.51,2.43-2.38,1.76-.42-1.9,1.07-4.33,2.3-4.06l.27.5c-3.77-11.57,7.05-26.64,2.39-36.07l-2.78-9.72c.44-4.48,1.92,2.68,3.51-.63-4.28-10.5.62-16.59-2.23-25.24,3.78-3.34,3.64-9.28,3.17-15.51-.24-3.11-.56-6.3-.52-9.28a25.28,25.28,0,0,1,.38-4.26l.1-.5.06-.25c0-.06,0-.2.06-.18a1.18,1.18,0,0,1,.28-.12,2.17,2.17,0,0,1,.76-.09c-.59-.09-1.19-.16-1.78-.21-.87-.37-.62-.55-.09-.51s1.31.24,1.52.25c-1.38-.61-1.6-.14-2.57-.8a10.27,10.27,0,0,1-.54-3.26,14.07,14.07,0,0,1,3.81.53c.29.09.57.18.83.28l.1,0,.37,0,.79.08,1.59.16,6.36.73c8.5,1,17,2.23,25.39,2.89,7.42.48,4.21-9.21,13.56-5l-2.66,3.3c15-4,30.61.14,45.26-3.22-.87.76-.9,1.75-2.33,1.74,3.09,2.4,11.44.12,11.5-1.84,2.28.22.53,1.77,1.93,2.77,3.1,1.41,7.79-3.07,9.44-.68.18.25-.24.51-.72.7,2.64-.65,8.52.3,6.77-2.21,5.5,1.32,10.52-1.23,14.9.41,2.86-3.1,9.42,1.49,10.33-2.89-.4,4.52,9.64,3.65,13.11,1.52-1.16,1.37,3,1.42,1.66,3.31,4-.06,7.61-.9,6.92-3.23,7.31,5.42,14.69-4.35,18.8,2.58a322.55,322.55,0,0,1,33.3-5.13c-.38,4.51-11.72.45-11.26,5.18,10.05-1.85,15.86-5.73,25.83-4.64,2.58.62-1.47,2-2.34,2.73,10.05-1.86,19.42.41,28.36-2-1.6-2.74,6.51-5.63,7.51-7.19-2.59,5.55,8.87,1.36,4.18,8.69,1.16-.39,2.61-1.36,2.35-2.73,1.72.4,2.26,1.2.52,2.76,6.31-1.12,4.07-3.3,9.78-3.25,0,1-1.17,1.38-1.76,2.54,2.89-1.93,5.8-3.87,10.64-3-.26.52.13,1.18-.71,1.33,3.95-.22,7.36-1.44,10.86-2.42l1.37-.37.94-.32a12.55,12.55,0,0,1,2-.46,8.4,8.4,0,0,1,4.1.32c-4.28,4.31,1,1.42-2.1,5.15l1.22-.48a3.53,3.53,0,0,1,.63.51c.6-.77,1.21-1.61,1.81-2.53,0,1.13.64,1.66,1.15,2.55a3.36,3.36,0,0,1,.29,3.31,9.34,9.34,0,0,0-1.54-1.31l.35,2,.18,1.07,0,.28,0,.14,0,.24.09,1,.35-1.14c.12-.3.24-.47.35-.73.24-.47.48-1,.71-1.52a3.08,3.08,0,0,0,3,1.15.93.93,0,0,1,.74.2Zm0,274.44-.72-1.06a3.7,3.7,0,0,1,.72-.55Zm0,29.83a12,12,0,0,0-.77-1.45,1,1,0,0,1,.77-.31Zm-228.15,4-2.48.22v-.06Zm-12.59.26c1.23.11,2.76.13,4.38.11.36,1,0,2-1,1.92C213.68,445.11,211.29,444.55,209.79,443.73Zm240.74-26.24c-.78-2.06-1.55-4.13-1.43-5.91l1.43.72Zm0-34.84c-.14-.21-.27-.43-.41-.69l.41-.24Zm103.33-55.91a7.4,7.4,0,0,1,0,2.06ZM468.4,17.41h-.08l.18-.15S468.44,17.36,468.4,17.41ZM309.59,549.66l5.23-.07C312.58,550.08,310.72,550.77,309.59,549.66Zm241.45-52-.29-.27.59-3.13A9,9,0,0,1,551,497.62Zm2.82-107.32v0l.14.33C554,390.5,553.91,390.4,553.86,390.3Zm.19-47.62-.19.1v-4.09A17,17,0,0,1,554.05,342.68Zm.24-26.62a12.14,12.14,0,0,0-.43-1.51v-2.84A23.67,23.67,0,0,1,554.29,316.06Z"/><path class="cls-1" d="M347.87,559.58c.4.12.86.24,1.42.39Z"/><path class="cls-1" d="M489.64,2.29a14.57,14.57,0,0,0,2.19-.23A14.88,14.88,0,0,0,489.64,2.29Z"/><path class="cls-1" d="M448.24,8.05a6.68,6.68,0,0,1-1.84.67C447.64,8.4,449.44,8.45,448.24,8.05Z"/><path class="cls-1" d="M287.6,9a.33.33,0,0,0,.13-.24A1.48,1.48,0,0,0,287.6,9Z"/><path class="cls-1" d="M155.68,561.66v0C155.62,561.63,155.64,561.64,155.68,561.66Z"/><path class="cls-1" d="M202.57,561.8a7.63,7.63,0,0,1,1.06-.21,16.13,16.13,0,0,0-1.54-.63c-.31.3-.63.59-.91.88Z"/><path class="cls-1" d="M558.7,229.47a2.72,2.72,0,0,0,.24-.24l.06-.35A2.33,2.33,0,0,1,558.7,229.47Z"/><path class="cls-1" d="M559.6,415.34l-.82,10.05c1.09-1.76,2.55-4.07,2.81.5C564.83,413.22,559.16,428.51,559.6,415.34Z"/><path class="cls-1" d="M561.17,384.17c.51,5.4,1.58-.07,2.19.22C562.37,381,562.12,380.13,561.17,384.17Z"/><path class="cls-1" d="M561.18,158.89l2.56.55C563.37,155.27,562.75,159.4,561.18,158.89Z"/><polygon class="cls-1" points="565.62 85.27 566.18 90.39 566.55 92.21 565.62 85.27"/><path class="cls-1" d="M252,4.36l1.25,3.15C256,6.94,256.61,3.4,252,4.36Z"/><path class="cls-1" d="M88.61,7.56C86.84,6,82.24,5,79.41,6.52,83.08,6.74,86.74,8,88.61,7.56Z"/><polygon class="cls-1" points="3.74 432.27 2.69 428.99 3.56 435.18 3.74 432.27"/><path class="cls-1" d="M444,412a4.3,4.3,0,0,0,.87,1.7c-.14-.54-.26-1.06-.35-1.6A5.27,5.27,0,0,1,444,412Z"/><path class="cls-1" d="M406.45,438a4.17,4.17,0,0,0,0,.5C406.68,438.2,406.75,438,406.45,438Z"/><path class="cls-1" d="M444.32,409.35a4.2,4.2,0,0,0,0,1.63A14.69,14.69,0,0,1,444.32,409.35Z"/><path class="cls-1" d="M303,439.34a8.23,8.23,0,0,1,1.57,2.52C304.07,439.87,309.07,439.15,303,439.34Z"/><path class="cls-1" d="M445.56,412c-.71-.2-1.06-.49-1.21-1,0,.39.09.77.15,1.13A1.12,1.12,0,0,0,445.56,412Z"/><path class="cls-1" d="M291.27,131.27l-5.41-.41A32.65,32.65,0,0,0,291.27,131.27Z"/><path class="cls-1" d="M129.89,391.63l.34,1.24A1.42,1.42,0,0,0,129.89,391.63Z"/><path class="cls-1" d="M266.15,130.05l3.67,1.22a7.71,7.71,0,0,0-3.05-1.94A2.41,2.41,0,0,0,266.15,130.05Z"/><path class="cls-1" d="M245.1,131.13a3,3,0,0,0-.72.26A6.48,6.48,0,0,0,245.1,131.13Z"/><path class="cls-1" d="M389.59,127.94c1.76-.15,4.1.66,3.9-1.39l-1.72.55a1.61,1.61,0,0,1-.28-.38C391.45,127.14,390.49,127.6,389.59,127.94Z"/><polygon class="cls-1" points="391.49 126.71 391.48 126.72 391.49 126.72 391.49 126.71"/><path class="cls-1" d="M131,374.28c.14.35.32.75.56,1.23C131.33,375.11,131.15,374.69,131,374.28Z"/><path class="cls-1" d="M449.7,430a.64.64,0,0,0,.25-.64Z"/><polygon class="cls-1" points="131.28 402.89 130.57 402.9 131.19 403.79 131.28 402.89"/><path class="cls-1" d="M446.3,306.51c.18,0,.44-.34.72-.73A1.53,1.53,0,0,0,446.3,306.51Z"/><path class="cls-1" d="M446.39,329.84l-1,3.4A18.55,18.55,0,0,0,446.39,329.84Z"/><path class="cls-1" d="M445,348.34a4.33,4.33,0,0,0,1.2.36s0,0,0,0Z"/><path class="cls-1" d="M389.59,127.94a2.7,2.7,0,0,0-.71.12C387.2,128.61,388.34,128.39,389.59,127.94Z"/><path class="cls-1" d="M448.26,141.76a16.72,16.72,0,0,1-1.33-2.81C446.72,140.51,446.66,141.72,448.26,141.76Z"/><path class="cls-1" d="M291.86,131.32s0,0,0,0h-.6Z"/><path class="cls-1" d="M447,134.88a6,6,0,0,0-.05,4.07A9,9,0,0,0,447,134.88Z"/><path class="cls-1" d="M443.6,429.39a.81.81,0,0,1,.46.11l-.34-1Z"/><path class="cls-1" d="M444.06,429.5l.33,1C444.39,430,444.37,429.64,444.06,429.5Z"/><path class="cls-1" d="M445.1,432.57l-.71-2.08C444.38,431.21,444.29,432.1,445.1,432.57Z"/><path class="cls-1" d="M444,403.74a2,2,0,0,0,1,.28Z"/><path class="cls-1" d="M444,403.74c-1.52-1.17,2.44-5.48.72-7.16-.23,1.77-2.17,4.45-1.53,6.93Z"/><polygon class="cls-1" points="446.44 183.47 445.69 179.76 444.1 182.27 446.44 183.47"/></g></g></svg>