<?xml version="1.0" encoding="UTF-8" standalone="no"?>
<!DOCTYPE svg PUBLIC "-//W3C//DTD SVG 1.1//EN" "http://www.w3.org/Graphics/SVG/1.1/DTD/svg11.dtd">
<svg width="100%" height="100%" viewBox="0 0 568 569" version="1.1" xmlns="http://www.w3.org/2000/svg" xmlns:xlink="http://www.w3.org/1999/xlink" xml:space="preserve" xmlns:serif="http://www.serif.com/" style="fill-rule:evenodd;clip-rule:evenodd;stroke-linejoin:round;stroke-miterlimit:1.41421;">
    <g id="Ebene_2-2">
        <path d="M493.52,510C496.96,511 504.77,510.42 503.23,507.79L490,505.91L493.52,510Z" style="fill:rgb(242,238,238);fill-rule:nonzero;"/>
        <path d="M518,492.31C511.59,489.22 500.31,485.66 488.15,487.66C500.87,490.72 495.56,491.46 510.71,494.76C512.25,497.39 506.46,499.35 501.59,498.9C504.98,499.83 498.67,502.99 506.99,504.4C517.24,500.98 517.65,496.65 509.19,492.12C512.14,491.15 515.6,492.09 518,492.31Z" style="fill:rgb(242,238,238);fill-rule:nonzero;"/>
        <path d="M538.69,235.36L537.11,237C537.831,236.682 538.399,236.093 538.69,235.36Z" style="fill:rgb(242,238,238);fill-rule:nonzero;"/>
        <path d="M546,57C546.32,58.45 547.63,58.23 548.83,57.47C547.91,56.46 547.1,55.76 546,57Z" style="fill:rgb(242,238,238);fill-rule:nonzero;"/>
        <path d="M543.49,19.07C544.069,19.424 544.678,19.725 545.31,19.97C545.38,18.75 544.93,18.08 543.49,19.07Z" style="fill:rgb(242,238,238);fill-rule:nonzero;"/>
        <path d="M538.69,235.36L542.85,231.11C538.53,230.81 539.64,233.29 538.69,235.36Z" style="fill:rgb(242,238,238);fill-rule:nonzero;"/>
        <path d="M486.11,456.88C487.051,457.938 488.25,458.734 489.59,459.19C489.047,458.519 488.577,457.792 488.19,457.02C487.47,457 486.85,457 486.11,456.88Z" style="fill:rgb(242,238,238);fill-rule:nonzero;"/>
        <path d="M549.42,305.54L549.42,306.84C550.92,307.22 552.75,307.57 554.8,307.91L549.42,305.54Z" style="fill:rgb(242,238,238);fill-rule:nonzero;"/>
        <path d="M551.45,359.4C551.94,358.19 540.7,357.76 535.79,357.29C540.41,357.98 542.62,358.88 543.49,359.95C546.153,359.944 548.812,359.761 551.45,359.4Z" style="fill:rgb(242,238,238);fill-rule:nonzero;"/>
        <path d="M531.67,444.81L533.22,446.32C532.74,445.93 532.29,445.26 531.67,444.81Z" style="fill:rgb(242,238,238);fill-rule:nonzero;"/>
        <path d="M551.85,267C553.194,266.945 554.532,266.781 555.85,266.51C554.503,266.523 553.161,266.687 551.85,267Z" style="fill:rgb(242,238,238);fill-rule:nonzero;"/>
        <path d="M457.7,457.22C457.7,458.02 457.7,458.52 457.7,459.22C458,458.08 458.12,457.28 457.7,457.22Z" style="fill:rgb(242,238,238);fill-rule:nonzero;"/>
        <path d="M520.14,512.9L519.27,513.5C519.18,515.63 519.08,517.72 519.08,519.8L520.14,512.9Z" style="fill:rgb(242,238,238);fill-rule:nonzero;"/>
        <path d="M463.68,4.67C463.799,4.759 463.93,4.83 464.07,4.88C466.59,3.6 465.2,3.83 463.68,4.67Z" style="fill:rgb(242,238,238);fill-rule:nonzero;"/>
        <path d="M18.19,118.65C20.7,116.56 22.77,116.56 24.62,117.37C26.47,118.18 28.13,119.81 29.81,121.22C31.49,122.63 33.21,123.85 35.2,123.99C37.19,124.13 39.46,123.22 42.2,120.7C40.01,121.12 35.62,118.51 30.97,116.5C26.32,114.49 21.46,113.28 18.19,118.65Z" style="fill:rgb(242,238,238);fill-rule:nonzero;"/>
        <path d="M487.58,455.48C487.423,454.758 487.386,454.014 487.47,453.28C487.1,454.28 487.13,455 487.58,455.48Z" style="fill:rgb(242,238,238);fill-rule:nonzero;"/>
        <path d="M42.25,120.7L42.35,120.7L43.41,119.7L42.25,120.7Z" style="fill:rgb(242,238,238);fill-rule:nonzero;"/>
        <path d="M345.27,11.43C345.489,13.106 345.881,14.755 346.44,16.35C346.32,14.657 345.925,12.995 345.27,11.43Z" style="fill:rgb(242,238,238);fill-rule:nonzero;"/>
        <path d="M430.66,27.42L428.55,25.92C429.053,26.654 429.801,27.186 430.66,27.42Z" style="fill:rgb(242,238,238);fill-rule:nonzero;"/>
        <path d="M300.94,27.3C299.79,26.44 299.4,24.88 297.83,26.4C297.947,26.868 298.107,27.323 298.31,27.76C298.88,26.22 299.63,25.51 300.94,27.3Z" style="fill:rgb(242,238,238);fill-rule:nonzero;"/>
        <path d="M254.79,27.36C255.04,28.22 255.36,28.87 255.64,29.63C256.1,29.4 256.64,29.22 257.11,29.02L254.79,27.36Z" style="fill:rgb(242,238,238);fill-rule:nonzero;"/>
        <path d="M317.46,462.62C318.446,465.926 319.158,469.307 319.59,472.73C318.88,464.74 325.66,461.88 317.46,462.62Z" style="fill:rgb(242,238,238);fill-rule:nonzero;"/>
        <path d="M492.43,456.85C489.59,456.58 488.19,456.19 487.58,455.48C487.722,456.016 487.926,456.533 488.19,457.02C489.602,457.21 491.037,457.153 492.43,456.85Z" style="fill:rgb(242,238,238);fill-rule:nonzero;"/>
        <path d="M299.06,116L291.73,114.34C294.009,115.46 296.52,116.029 299.06,116Z" style="fill:rgb(242,238,238);fill-rule:nonzero;"/>
        <path d="M110.48,431.69L111.82,433.37C112.08,432.73 111.76,432.13 110.48,431.69Z" style="fill:rgb(242,238,238);fill-rule:nonzero;"/>
        <path d="M270,116C268.69,112 267.31,109.73 265.87,108.22C265.484,109.154 265.199,110.126 265.02,111.12L270,116Z" style="fill:rgb(242,238,238);fill-rule:nonzero;"/>
        <path d="M319.61,472.85C319.604,472.81 319.604,472.77 319.61,472.73C319.604,472.77 319.604,472.81 319.61,472.85Z" style="fill:rgb(242,238,238);fill-rule:nonzero;"/>
        <path d="M367.9,446.14C360.9,445.82 364.62,460.6 363.14,469.09C354.8,473.28 359.28,458.2 356.44,450.65C351.23,454.56 347.24,468.12 343.36,467.55C343.07,465.12 342.31,464.23 343.2,461.18C337.69,472.93 326.86,461.76 320.45,476.51C320.021,475.329 319.739,474.1 319.61,472.85C320.525,479.565 320.86,486.347 320.61,493.12C317.48,493.38 314.8,502.46 313.61,492.8C315.53,493.08 315.69,489.19 316.61,486.17L313.33,490.37C310.38,476.48 317.81,485.56 317.81,475.28C311.41,479.8 303.95,491.28 299.05,487.37C298.05,473.79 310.52,482.8 303.97,470.72L311.56,475.91C305.76,454.48 316.17,477.41 310.84,454.48C300.84,450.54 299.67,461.4 289.72,457.48C287.47,465.03 290.46,468.65 288.21,476.2C274,489.72 277,442 266.63,460.1C263.94,469.1 262.9,486.34 255.49,477.24L258,461.88C248.34,460.37 252.48,483.96 242.36,473.63C244.16,467.63 249.96,468.54 248.49,466.72C241.94,454.59 243.86,475.43 238.81,475.43L237.81,461.82C227.52,463.96 216.18,473.82 204.81,476.27C205.44,472.27 207.4,467.97 204.73,463.81C190.36,470.6 174.04,462.15 160.18,454.08L154.88,465.82C153.65,465.68 152.59,460.52 153.93,458.24C148.52,453.79 153.65,465.68 151.05,470.3C147.98,471.12 146.99,463.55 148.94,460.03C144.17,465.03 137.38,470.36 130.52,472.91L129.88,473.14C129.699,473.178 129.526,473.249 129.37,473.35C129.19,473.49 129,473.61 128.81,473.73C128.444,473.943 128.055,474.114 127.65,474.24C126.935,474.491 126.155,474.491 125.44,474.24C124.07,473.71 123.05,472.07 123,468.93C123.56,467.76 124.08,466.6 124.57,465.44C124.26,464.25 123.57,465.15 122.57,467.02C121.57,468.89 120.16,471.69 118.7,474.31C117.589,476.516 116.212,478.578 114.6,480.45C113.48,481.54 112.7,481.29 113.1,478.55C113.68,477.86 114.25,477.17 114.8,476.47C112.89,474.77 110.33,474.84 107.5,475.03C104.67,475.22 101.7,475.51 100.5,474.25C101.74,470.65 104.5,465.95 110.33,460.14C101.87,466.35 103.76,462.94 104.81,460.82C105.86,458.7 106.08,457.38 94.29,462.82C96.625,460.592 99.144,458.565 101.82,456.76C103.98,455.3 105.82,454.21 107.6,453.2L112.66,450.28C114.34,449.28 116.08,448.28 118.05,447.33C118.59,446.93 114.91,447.33 110.78,447.33C106.65,447.33 102.09,447.07 100.86,446.08L113.19,445.71C112.11,445.61 111.03,445.48 109.96,445.33C109.821,445.321 109.684,445.298 109.55,445.26L109.15,445.07L108.34,444.69L106.72,443.92L100.25,440.86L115,437.6L111.83,433.37C111.11,435.06 106.3,436.95 102.74,436.7C97.17,430.09 111.34,420.6 117.65,420.43L107.22,404.8C112.22,405.15 113.88,407.8 117.04,409.8C104.46,401.45 130.04,408.28 118.5,400.64C115.7,401.64 111.15,400.08 108.66,399.91C116.11,396.1 116.18,387.42 113.04,381.01L121.54,382.24C123.7,370.65 117.46,357.8 117.62,344.79C113.62,349.46 98.92,348.38 97.51,344.57L110.51,343.04C102.45,340.58 105.58,347.04 95.73,341.97C97.23,337.11 110.55,338.7 114.73,341.49L110.21,335.58C114.11,335.24 116.16,336.58 121.12,336.98C113.02,334.56 134.2,326.79 120.12,323.29L124,322.95C124.11,309.95 119.62,304.05 119,293.46C107.75,293.25 110.25,289.11 101.16,285.95C104.74,278.16 113.58,269.52 112.63,260.14C107.04,253.55 103.11,258.22 96.43,255.25C106.67,254.77 105.71,245.4 113.06,250.25C111.4,238.99 111.06,235.87 102.71,221.63C98.5,223.17 96.71,224.91 93.19,224.01C91.5,221.43 97.49,218.13 102.41,218.5L103.41,219.18C88.06,203.18 133.29,182.29 111.93,169.57L112.93,170.28L102,157.13C103.78,151.06 109.71,160.77 116,156.28C107.46,149.16 108.08,143.54 109.41,138.23C110.08,135.57 110.92,133 110.89,130.35C110.875,128.975 110.59,127.615 110.05,126.35C109.731,125.618 109.342,124.918 108.89,124.26C108.309,123.971 107.711,123.718 107.1,123.5C114.65,122.95 118.3,122.84 119.82,122.57C121.34,122.3 120.73,121.77 119.82,120.78C118.91,119.79 117.58,118.43 117.73,117.78C117.88,117.13 119.48,117.32 124.31,120.55C121.93,118.863 119.557,117.197 117.19,115.55C113.69,112.75 114.71,113.17 116.81,114.62C118.91,116.07 122.07,118.43 122.89,118.97C120.13,116.76 118.53,115.62 117.14,114.65C115.536,113.551 114.018,112.331 112.6,111C111.385,109.264 110.631,107.247 110.41,105.14C112.745,105.324 115.003,106.057 117,107.28C119.581,108.694 121.939,110.48 124,112.58C125.824,114.413 127.307,116.557 128.38,118.91C128.786,119.836 129.084,120.806 129.27,121.8C129.353,122.216 129.41,122.637 129.44,123.06L129.44,123.13L129.71,123.2L130.24,123.35L131.31,123.63L133.44,124.15C143.5,126.06 139.15,87.32 151.83,104.32L148.23,117.53C168.52,101.69 189.73,118.08 209.59,104.63C208.41,107.63 208.38,111.63 206.44,111.63C210.63,121.23 221.96,112.1 222.03,104.26C225.12,105.16 222.74,111.35 224.65,115.33C228.86,121 235.21,103.08 237.45,112.63C237.83,114.19 236.27,115.74 235.45,116.48C238.19,111.84 248.23,117.67 245.6,106.59C253.06,111.88 259.87,101.66 265.81,108.22C269.69,95.84 278.58,114.22 279.81,96.67C279.28,114.77 292.88,111.27 297.6,102.76C296.02,108.22 301.7,108.42 299.85,116C305.23,115.74 310.16,112.38 309.22,103.09C319.14,124.74 329.15,85.66 334.73,113.41C350.73,103.68 365.5,97.11 379.88,92.86C379.36,110.86 363.99,94.66 364.6,113.6C378.24,106.17 386.11,90.68 399.6,95.04C403.1,97.5 397.6,102.86 396.43,105.95C410.05,98.52 422.77,107.59 434.9,97.76C434.9,99.44 433.56,101.28 432.32,102.66C434.71,102.06 437.88,105.31 437.61,97.11L435.28,99.33C431.46,87.42 444.77,74.46 445.2,68.18C441.14,91.68 457.2,74.08 450.73,103.79C452.3,102.24 454.27,98.35 453.91,92.86C454.499,93.252 454.989,93.776 455.34,94.39C455.532,95.128 455.633,95.887 455.64,96.65C455.662,97.691 455.629,98.733 455.54,99.77C455.49,100.24 455.44,100.88 455.36,101.71C455.28,102.54 454.91,103.13 454.62,103.91C454.877,103.78 455.128,103.636 455.37,103.48C455.45,103.32 455.52,103.17 455.6,103.02C455.68,102.87 455.89,102.39 456.03,102.02C456.31,101.35 456.56,100.65 456.8,99.93C457.28,98.49 457.68,96.93 458.09,95.63C458.91,92.91 459.8,90.78 461.8,90.87C461.01,94.87 459.99,96.38 458.98,101.04C460.092,97.423 461.711,93.982 463.79,90.82C465.58,88.33 467.56,87.24 468.73,88.92C467.63,91.31 466.81,94.42 465.93,94.36C467.33,94.06 469.11,92.63 471.31,90.75C473.51,88.87 476.1,86.58 478.82,84.54C481.238,82.631 483.932,81.1 486.81,80C489.17,79.21 491.1,79.4 491.58,81.27C488.886,83.911 486.355,86.713 484,89.66C483.276,90.443 482.769,91.401 482.53,92.44C482.34,93.57 482.62,94.44 475.86,101.88C477.57,100.68 479.38,99.49 481.28,98.29L482.15,97.96L485.67,93.9C486.703,92.66 487.703,91.42 488.67,90.18C488.963,90.188 489.255,90.14 489.53,90.04C490.15,90.78 492.67,89.76 494.48,89.64C496.29,89.52 497.37,90.23 495.12,93.4C493.036,94.129 490.993,94.97 489,95.92C490.017,97.116 490.962,98.372 491.83,99.68C493.717,97.247 495.603,94.637 497.49,91.85C501.34,90.85 506.07,87.49 509.31,85.16C510.93,84.01 512.18,83.16 512.77,83.28C513.36,83.4 513.27,84.38 512.23,86.77C511.46,86.59 511.42,87.91 510.46,90.23C508.919,93.829 506.426,96.941 503.25,99.23C500.074,101.519 503.25,99.23 503.25,99.23C505.62,99.04 508.07,99.03 509.45,99.77C510.83,100.51 511.16,102.02 509.3,104.5C506.91,105.84 502.79,107.1 498.86,108.36C495.72,109.276 492.633,110.361 489.61,111.61C495.85,110.05 496.71,112.04 497.68,114.07C498.65,116.1 499.68,118.25 506.37,118.99C503.25,118.36 495.37,119.35 493.81,119.75C497.19,119.83 500.57,120.037 503.95,120.37C500.71,122.62 499.13,122.79 492.89,122.77C492.643,123.202 492.755,123.757 493.15,124.06C493.38,124.256 493.628,124.43 493.89,124.58C494.205,124.739 494.542,124.851 494.89,124.91C496.794,125.093 498.714,125.023 500.6,124.7C504.55,124.25 507.7,123.98 503.6,128.79C502.78,128.04 501.26,128.4 499.72,126.79C495.46,136.46 506.16,145.46 501.16,154.33C486.16,156.95 497.48,146.58 484.81,149.58C487.53,162.38 502.81,176.08 499.28,188.46L500.94,186.15C522.15,187.87 490.46,195.38 500.46,201.64C498.89,200.11 488.68,199.64 491.05,200.04C487.64,208.53 496.26,217.39 502.94,230.24L497.48,228.64C492.62,233.64 494.68,241.81 492.2,247.21C497.64,248.81 496.75,251.9 504.68,250.02C473.68,266.67 521.32,281.78 495.46,296.55C495.4,294.78 490.7,292.34 490.67,293.74L495.67,306.33C504.91,305.33 501.26,304.68 508.46,302.03C513.94,303.63 518.19,307.18 518.19,310.29C512.06,304.64 503.34,310.34 498.19,312.79C501.02,312.38 504.19,313.22 507.02,313.01C490.58,319.58 525.62,314.11 514.54,323.08L509.69,322.61C512.17,325.97 518.59,329.06 517.2,332.68C506.51,334.18 512.2,329.11 503.41,328.88C504.03,333.96 523.67,338.88 513.01,343.52C510.01,341.36 510.01,338.25 507.01,336.09C494.46,341.09 497.65,341.69 495.66,345.41L495.94,345.04L490.26,353.66L493.66,351.46C521.54,357.83 498.75,364.46 517.01,373C499.73,364.66 507.01,371.62 494.9,371C491.54,373.19 487.76,376.52 484.36,375.57C494.13,379.63 476.66,382.34 490.95,388.06C487.04,388.31 490.57,392.39 480.77,391.48C483.84,396.75 487.56,390.23 492.45,390.68C505.78,398.8 476.29,409.77 494.58,421.45C502.1,431.53 515.26,433.39 521.81,442.74C515.57,445.89 507.6,440.15 507.6,440.15C501.86,445.24 502.91,449.07 507.38,453.87C503.98,452.87 501.1,453.87 496.71,455.36C497.71,459.21 510.92,457.94 505.17,463.01C500.82,462.14 493.86,461.01 489.5,459.17C493.09,463.71 500.37,468.17 503.89,472.88C497.09,474.13 493.58,470.05 489.14,468.39C492.2,473.67 495.3,482.07 506.06,483.7L509.9,480.31C510.42,482.23 500.66,481.31 498.69,479.88C490.26,475.36 502.42,473.36 506.34,473.1L508.84,476.45C531.71,473.01 505.17,463.01 506.5,456.28L523.14,459.09L509.33,452.18C513.66,450.71 522.95,449.71 525.44,453.03C533.66,448.21 519.52,448.76 528.69,444.61C529.623,444.189 530.706,444.257 531.58,444.79L526.58,440.07C530.08,441 538.33,439.29 535.93,442.18C545.53,433.72 523.45,428.53 536.06,425.35L537.06,426.06C531.44,414.31 524.84,424.92 510.51,416.11L540.64,410.18L528.43,409.03C528.87,407.82 529.78,405.42 534.67,405.86C526.31,401.35 529.36,406.63 521.46,404.01C532.59,398.18 516.26,387.93 535.72,386.62C526.44,384.53 528.56,392.2 522.1,385.97C543.03,384.2 518.52,378.77 528.1,373.45C538.9,375.08 533.18,380.13 542.82,374.8C524.56,371.58 546.82,364.42 543.32,359.93C528.79,359.72 537.26,350.16 532.42,342.62C537.3,343.1 540.42,328.43 545.66,321.42L548.1,321.62C533.41,320.27 536.18,313.03 533.1,307.76C541.9,307.97 545.36,308.92 549.3,311.76L549.23,306.76C544.52,305.59 542.04,304.04 540.36,300.83L551.36,302.08C550.75,295.48 538.43,288.8 545.76,280.32C535.52,279.84 517.24,287.06 510.4,278.1C515.94,277.76 525.4,277.43 527.68,279.78C526.94,279.01 523.08,277.04 525.44,275.49L534.76,279.07C538.85,275.21 526.97,277.07 527.84,273.96C535.74,274.02 533.48,271.68 539.74,272.12C540.51,272.91 536.48,274.81 539.58,276C541,272.51 545.68,268.3 551.66,266.91C547.17,267.22 541.02,266.91 540,264.36C539.42,257.77 549.5,262.11 553.56,258.26C548.08,256.66 553.76,252.46 541.95,252.35C542.01,250.42 547.52,250.06 550.72,249.35C545.51,245.94 549.23,233.41 536.72,237.26L535.89,238.13C535.65,237.97 535.63,237.78 535.37,237.57C523.63,226.39 542.06,214.34 537.01,203.25L541.01,203.25C536.5,196.62 538.34,188.51 529.84,183.78C529.84,181.78 537.06,179.15 541.76,179.99C538.76,174.93 534.36,174.36 540.87,167.05C547.76,172.14 546.98,165.29 545.87,172.26C549.28,165.68 555.61,164.19 544.81,157.13C554.93,159.53 557.55,152.18 554.53,149.05L547.29,153.66C545.81,150.14 546.71,147.07 547.57,143.95L561,145.7C569.09,138.97 562.21,132.9 556.68,127.24C555.99,126.53 555.32,125.83 554.68,125.13C554.358,124.79 554.064,124.426 553.8,124.04C553.52,123.507 553.26,122.987 553.02,122.48C552.068,120.616 551.526,118.57 551.43,116.48C551.43,112.48 553.75,108.55 560.52,103.04C558.19,102.04 556.62,102.46 555.4,103.44C554.167,104.627 553.151,106.022 552.4,107.56C551.617,109.126 550.488,110.494 549.1,111.56C547.68,112.5 545.81,112.81 543.1,112.1C543.55,109.94 545.1,107.57 547.1,105C549.1,102.43 551.7,99.7 554.21,97C559.21,91.63 564,86.38 564.02,84.74C565.86,80.5 565.57,77.88 564.17,76.36C562.77,74.84 560.27,74.36 557.69,74C555.11,73.64 552.46,73.46 550.77,72.42C549.08,71.38 548.35,69.51 549.61,65.51C546.344,68.626 542.638,71.244 538.61,73.28C534.29,75.37 530,76.28 527.77,74.18C528.21,72.18 529.67,69.68 531.68,67.06C533.864,64.269 536.265,61.654 538.86,59.24C544.09,54.32 549.58,50.78 551.49,52.3C551.89,54.22 550.38,56.37 548.77,57.42C549.64,58.24 550.58,59.28 551.95,59.26C553.32,59.24 555.11,58.17 557.68,54.49C556.1,55.14 554.52,55.82 552.93,56.49C555.35,52.49 556.44,47.18 557.93,42.44C559.42,37.7 561.21,33.44 565.1,31.81C562.84,29.76 560.89,30.75 559.2,33.06C557.51,35.37 556.08,39.06 554.85,42.7C556.454,38.752 557.514,34.604 558,30.37C558.236,27.468 558.236,24.552 558,21.65C553.59,21.86 549.21,21.93 545.35,19.97C545.23,22.59 541.99,28.16 540.12,28.12C537.627,26.81 534.744,26.437 532,27.07C529.766,27.789 527.731,29.022 526.06,30.67C522.42,33.92 518.74,38.16 512.72,39.2C512.09,35.58 515.31,31.26 517.01,28.61C517.84,27.28 518.24,26.37 517.41,26.16C516.58,25.95 514.49,26.47 510.57,27.99C508.25,25.54 509.39,22.39 512.02,19.37C514.65,16.35 518.74,13.46 521.62,11.52C517.03,13.81 513.62,14.58 510.78,14.42C508.18,14.229 505.689,13.299 503.6,11.74C499.51,8.88 496.04,4.67 492.3,3.83C495.113,2.55 498.013,1.273 501,0C495.68,2.28 492.16,2.21 488.45,2.18C489,5.35 489.45,8.51 489.78,11.68C486.26,10.03 482.78,9.98 483.78,6.04C480.88,9.15 480.86,13.09 480.12,17.33C479.51,22.255 477.262,26.835 473.74,30.33C471.96,27.92 468.23,29.21 465.17,29.54C462.11,29.87 459.51,29.21 458.87,22.91C462.61,23.98 464.35,23.72 465.22,22.71C466.09,21.7 465.98,19.91 465.8,17.93C465.47,13.98 464.63,9.24 472.13,8.22C469.08,9.73 465.77,9.67 461.72,8C461.16,6.59 462.44,5.39 463.67,4.67C462.09,3.509 460.325,2.623 458.45,2.05C457.816,1.872 457.159,1.788 456.5,1.8C456.029,1.772 455.561,1.891 455.16,2.14C454.16,2.94 453.64,5.07 453.09,7.53C451.98,12.47 450.83,18.77 446.04,18.62C447.26,11.52 443.82,5.16 442.25,6.62C446.12,6.77 444.1,18.47 440.55,23.91C434.41,18.38 433.87,28.02 430.65,27.37L434.34,30C433.09,37.09 430.02,36.16 425.73,38.4C425.36,32.87 429.62,34.6 428.09,32.16C423.33,44.64 417.34,19.24 410.7,27.65C407.63,22.83 410.41,14.31 407.7,11.05C400.26,20.25 399.64,1.32 391.82,8.93C394.08,18.47 394.47,16.13 388.97,25.44L401.82,18.72L393.57,32.6C397.45,32.73 401.75,26.6 404.08,28.22C400.15,36.01 400.55,33.63 402.41,41.55C397.1,27.24 391.89,49.89 385.75,40.23L386,16.62C376.78,6.1 369.61,28.75 357.63,22.81L361.48,26.92C359.88,36.31 354.09,28.22 350.21,32.03C350.57,24.13 348.15,21.27 346.49,16.35C346.69,22.21 337.73,15.81 336.64,31.58L331.29,21.18C321.62,16.92 320.29,43.68 310.96,41C313.76,32.41 309.53,26.82 315.76,20.68C312.66,20.6 309.87,19.15 309.82,24.63C308,19.68 301.21,35.26 298.36,27.76C297.05,31.23 296.62,39.5 293.14,38.85C292.928,37.555 292.928,36.235 293.14,34.94C293.14,38.85 287.69,40.26 290.73,49C281.17,24.36 264.01,50.78 255.68,29.63C248.91,32.28 240.75,34.82 234.6,35.39C234.99,33.03 234.6,31.46 235.78,32.28C227.3,24.93 230.57,54.94 220.92,46.75C215.94,34 226,39.84 222.93,35C221.59,9 211.28,38.55 204.78,23.38L206.35,21.85C201.35,13.02 194.24,31.69 186.13,29.85C186.346,28.554 186.363,27.232 186.18,25.93C180.63,39.18 170.13,43.57 162.32,47.25C164.75,37.08 165.87,41.87 164.38,31.53C160.89,33 165.38,48.13 158.43,51.02C156.16,45.45 151.12,40.59 150.43,29.56L157,29C153.62,14.73 148.47,29.48 145,27L145.44,20.77C140.44,21.77 137.84,26.22 135.19,30.26C134.013,32.24 132.536,34.025 130.81,35.55C130.388,35.882 129.94,36.18 129.47,36.44C128.823,36.712 128.154,36.926 127.47,37.08C125.881,37.422 124.249,37.523 122.63,37.38C123.26,38.96 123.85,40.53 124.42,42.1C122.79,45.99 121.74,47.39 120.75,47.48C119.76,47.57 118.94,46.31 118,45C117.06,43.69 116,42.19 114.89,41.78C113.78,41.37 112.49,42.02 111.32,44.91C109.393,39.65 107.317,34.387 105.09,29.12C101.66,32.075 98.401,35.224 95.33,38.55C91.72,42.26 88.42,45.87 85.15,47.35C84.206,42.379 85.454,37.236 88.57,33.25C91.32,29.42 95.11,26.18 98.02,22.71C93.852,22.615 89.692,23.124 85.67,24.22C81.48,25.5 78.35,27.77 79.06,31.66C79.76,30.9 80.33,29.55 81.2,28.66C82.07,27.77 83.2,27.45 84.94,28.66C84.31,34.87 83.11,39.5 80.94,42.54C78.77,45.58 75.72,47.04 71.01,46.91C68.268,42.763 64.974,39.009 61.22,35.75C58.503,33.449 55.374,31.685 52,30.55C45.79,28.48 39.71,28.63 32.77,27.49C31.57,32.49 28.93,35.79 20.7,32.11C23.53,40.25 24.7,46.5 24.76,52.11C24.757,57.446 24.085,62.761 22.76,67.93C21.56,73.12 20.06,78.5 18.98,84.46C17.751,90.862 17.315,97.391 17.68,103.9C23.68,102.57 26.68,102.65 28.22,103.19C29.76,103.73 29.88,104.9 30.01,106.26C29.97,107.909 30.672,109.492 31.92,110.57C33.56,111.93 36.71,112.95 42.82,113.37C44.37,118.5 43.97,120.25 42.39,120.66L40.57,122.51L39.65,123.51C39.375,123.837 39.07,124.138 38.74,124.41L35.09,127.22L27.78,132.84C20.66,135.51 22.39,129.31 16.9,129.65C15,137.76 6.5,133 0,138.42C8.75,137.31 12.53,141.24 9.19,145.87L20.47,139.35C33.47,150.7 -0.06,149.16 12.83,160.6L5.14,157C9.68,162.87 4.98,178.66 24.63,184.41C21.8,185.41 15.12,186.82 13.35,184.24C10.4,198.24 34.26,215.47 22.16,226.38L16.16,225.31C17.89,227.93 27.39,229.87 21.38,233.15C18.9,232.98 15.38,232.09 15.06,233.3C17.12,234.69 25.54,240.3 22.06,243.73L15.33,240.73C7.5,254.42 31.72,261.73 35.82,273.21C18.21,273.21 12.49,283.95 9.64,289.32L7.15,289.14C5,305.08 21.75,316.21 28.66,331C9.55,340.16 20.66,362 9.94,376.75C13.13,374.5 23.66,377.12 25.43,379.75C21.85,383.2 37.64,389.3 21.5,388.75L21.8,387.52C5.96,390.12 10.17,397.22 9.74,402.77L30.87,403.68C15.51,410.93 18.33,420.43 21.55,429.11C23.16,433.44 24.87,437.57 24.46,441.11C24.363,441.993 24.112,442.853 23.72,443.65C23.514,444.062 23.27,444.454 22.99,444.82C22.82,445.012 22.663,445.216 22.52,445.43C22.35,445.74 22.17,446.04 21.97,446.34C20.087,449.076 17.572,451.319 14.64,452.88C17.28,455.8 18.58,459 19.89,462.12C21.2,465.24 22.5,468.24 25.14,470.4L13.81,472.8C12.414,480.541 11.443,488.353 10.9,496.2C10.53,504.556 10.965,512.928 12.2,521.2C9.533,521.467 6.833,521.637 4.1,521.71C3.92,525.1 5.87,526.56 8.91,526.71C11.95,526.86 16.07,525.9 20.24,524.61C24.41,523.32 28.62,521.78 31.83,521.01C35.04,520.24 37.25,520.27 37.42,522.34C31.787,527.96 26.153,533.737 20.52,539.67C20.399,545.157 19.786,550.622 18.69,556C24.69,557.66 30.59,559.92 38.27,560.31C45.95,560.7 55.21,559.22 66.03,553.42C64.26,555.89 60.79,560.78 56.91,561.42C60.044,561.759 63.154,562.297 66.22,563.03C70.162,563.903 74.183,564.366 78.22,564.41C82.31,564.36 86.28,563.58 89.37,561.35C92.46,559.12 94.64,555.46 95.68,549.66C94.5,553.44 95.17,555.42 97.1,556.16C99.03,556.9 102.16,556.41 105.66,555.23C109.432,553.899 113.074,552.225 116.54,550.23C120.08,548.23 123.29,546.15 125.79,544.49C125.123,548.203 124.42,551.917 123.68,555.63C126.16,552.07 127.85,549.16 129.25,546.73C129.418,546.45 129.553,546.152 129.65,545.84L129.96,545L130.58,543.43C130.98,542.43 131.38,541.54 131.79,540.73C133.332,537.564 135.922,535.026 139.12,533.55C140.9,535.01 140.68,542.48 138.32,539.63C144.24,545.47 142.94,529.07 150.12,535.01L147.45,542.13C153.54,542.99 153.06,539.13 156.45,530.86C160.28,526.39 168.02,533.68 168.92,543.76C169.74,537.61 173.08,529.39 176.68,532.3C177.055,534.842 176.527,537.436 175.19,539.63C185.39,547.21 190.36,526.63 197.37,537.63C197.52,541.33 197.98,543.17 198.56,544.29C190.46,544.02 183.93,543.41 184.56,542.59C184.56,552.87 191.11,554.67 185.9,568.87C191.15,561.12 200.14,544.29 206.52,549.12C206.905,550.276 207.186,551.464 207.36,552.67L206.7,553.83C208.17,554.83 209.49,553.89 210.7,552.17C212.7,553.85 214.03,555.11 215.99,555.25C216.74,563.76 223.49,559.84 226.75,560.25C226.48,549 230.75,550.81 226.75,541.53C227.27,542.32 226.14,542.87 223.97,543.34C223.48,543.67 222.9,543.84 222.58,544.5C222.64,544.19 222.72,543.84 222.8,543.5C220.66,543.83 217.86,544.08 214.69,544.25C217.26,538.54 219.96,533.74 223.57,539.98C225.24,532.75 227.08,525.32 228.12,521.83C232.59,537.52 241.2,545.99 242.4,555.66C252.4,549.35 265.87,551.5 272.14,530.38C274.97,527.66 275.39,536.43 276.45,539.75C274.82,541.87 272.87,541.55 271.99,544.59C277.65,539.17 288.77,542.48 290.12,527.72C297.26,534.38 286.12,541.31 295.92,538.89L294.59,543.41C313.89,566.99 325.97,505.74 347.37,536.01C345.89,534.16 345.14,533.3 344.84,530.83C369.24,544.18 395.11,518.3 419.18,539.47C426.03,543.74 426.77,534.31 430.94,527.15L432.43,539.23L439.57,525.29C449.69,515.09 457.1,554.93 469.92,535.63L468.26,527.5C472.87,529.04 482.84,522.7 482.08,532.06C482.55,530.57 483.58,523.6 485.38,527.84L485.52,534.16L496.83,523.33C505.6,527.9 495.46,548.41 508.25,549.65C513.01,547.21 521.79,531.25 520.01,527.02C518.09,526.71 515.11,523.08 514.96,516.75L519.31,513.45C520.1,494.83 523.44,475.76 512.77,462.75L505.33,474.14L502.93,465.14L509.19,464.57C505.64,456.06 503.39,463.57 500.87,468.75C500.27,463.94 499.23,460.58 497.75,458.8L490.45,476.59C489.56,469.3 493.72,462.13 488.82,458.1C485.4,466.36 492.1,474.44 486.44,479.87C482.88,471.4 483.92,464.51 479.74,471.74C479.15,466.94 480.04,463.88 481.69,461.74C477.98,467.49 471.85,464.17 469.94,474.07C466.23,463.62 457.38,476.78 457.75,459.16C456.58,463.38 451.2,473 447.75,473.73C453.99,452.62 434.97,472.49 436.62,449.86C432,468.86 419.94,458.29 411.76,468.86C412.22,467.35 413.11,464.3 413.84,465.26C409.23,463.69 407.89,457.97 404.94,454.38C404.34,470.06 397.18,473.64 393.31,483.31C387.67,468.18 396.74,464.91 394.97,450.38C395.25,463.08 385.16,463.06 387.08,473.64C382.76,464.28 383.36,469.1 381.14,456.11C380.38,475.71 377.14,459.42 373.54,471.46C367.3,461.8 371.93,453.1 365.07,459.07C361.8,453.08 367.9,446.14 367.9,446.14ZM204.73,480L204.73,479.77L208.1,479.14C207.4,479.32 206.43,479.55 204.73,480ZM191,480.2C192.953,480.625 194.956,480.773 196.95,480.64C197.43,484.53 196.95,488.52 195.53,488.32C196.3,485.73 193.07,483.48 191,480.2ZM220,558.12C217.84,559.72 217.11,557.51 216.81,555.2C218.132,554.93 219.411,554.479 220.61,553.86C220.67,553.44 220.8,552.96 220.86,552.48C220.732,554.381 220.445,556.268 220,558.12Z" style="fill:rgb(242,238,238);fill-rule:nonzero;"/>
        <path d="M223.93,543.38C224.24,543.13 224.41,542.66 224.82,542.56C224.448,541.689 224.017,540.843 223.53,540.03C223.26,541.24 222.99,542.47 222.76,543.55C223.15,543.48 223.56,543.46 223.93,543.38Z" style="fill:rgb(242,238,238);fill-rule:nonzero;"/>
        <path d="M536.86,237.31L537.11,237.02C536.615,237.309 536.073,237.512 535.51,237.62C536.06,237.43 536.41,237.43 536.86,237.31Z" style="fill:rgb(242,238,238);fill-rule:nonzero;"/>
        <path d="M116,445.63L113.17,445.71C114,445.79 114.83,445.85 115.65,445.9L116,445.63Z" style="fill:rgb(242,238,238);fill-rule:nonzero;"/>
        <path d="M498.27,312.83C497.249,312.951 496.267,313.293 495.39,313.83C496.399,313.658 497.372,313.32 498.27,312.83Z" style="fill:rgb(242,238,238);fill-rule:nonzero;"/>
        <path d="M495.75,345.45L491.75,350.06C493.343,348.769 494.697,347.209 495.75,345.45Z" style="fill:rgb(242,238,238);fill-rule:nonzero;"/>
        <path d="M490.17,370.53C491.77,370.776 493.383,370.933 495,371C495.027,370.996 495.053,370.996 495.08,371L490.17,370.53Z" style="fill:rgb(242,238,238);fill-rule:nonzero;"/>
        <path d="M432.39,102.66C432.011,102.713 431.66,102.889 431.39,103.16C429.15,105.34 430.7,104.48 432.39,102.66Z" style="fill:rgb(242,238,238);fill-rule:nonzero;"/>
        <path d="M503.23,99.24C501.464,99.439 499.687,99.526 497.91,99.5C497.05,101.39 496.83,102.5 503.23,99.24Z" style="fill:rgb(242,238,238);fill-rule:nonzero;"/>
        <path d="M299.87,116.19C299.87,116.12 299.87,116.1 299.87,116C299.597,116.02 299.323,116.02 299.05,116L299.87,116.19Z" style="fill:rgb(242,238,238);fill-rule:nonzero;"/>
        <path d="M498.11,95.75C495.87,98.62 496.35,99.32 497.91,99.5C498.67,98 499.82,95.78 498.11,95.75Z" style="fill:rgb(242,238,238);fill-rule:nonzero;"/>
        <path d="M485.07,479.24L484.6,480.45C485.207,480.43 485.814,480.477 486.41,480.59L485.07,479.24Z" style="fill:rgb(242,238,238);fill-rule:nonzero;"/>
        <path d="M486.41,480.59L487.74,481.94C487.74,481.32 487.65,480.79 486.41,480.59Z" style="fill:rgb(242,238,238);fill-rule:nonzero;"/>
        <path d="M490.57,484.76L487.74,481.94C487.71,482.91 487.36,484.12 490.57,484.76Z" style="fill:rgb(242,238,238);fill-rule:nonzero;"/>
        <path d="M490.27,446L486.19,445.62C487.533,445.886 488.901,446.013 490.27,446Z" style="fill:rgb(242,238,238);fill-rule:nonzero;"/>
        <path d="M489.09,436C488.16,438.41 480.39,442 482.94,445.4L486.19,445.71C480.12,444.08 496,438.23 489.09,436Z" style="fill:rgb(242,238,238);fill-rule:nonzero;"/>
        <path d="M539.49,393.83L536.23,402.29C540.57,400.81 546.41,398.87 547.45,402.71C560.41,392.05 537.74,404.91 539.49,393.83Z" style="fill:rgb(242,238,238);fill-rule:nonzero;"/>
        <path d="M545.79,367.62C547.79,372.16 552.09,367.56 554.55,367.8C550.59,364.92 549.59,364.22 545.79,367.62Z" style="fill:rgb(242,238,238);fill-rule:nonzero;"/>
        <path d="M545.83,178.15L556.06,178.61C554.59,175.11 552.09,178.58 545.83,178.15Z" style="fill:rgb(242,238,238);fill-rule:nonzero;"/>
        <path d="M492.94,141.94L486.59,145.34L495.96,146.97L492.94,141.94Z" style="fill:rgb(242,238,238);fill-rule:nonzero;"/>
        <path d="M565.83,118L567.29,120.56C566.05,117.227 564.813,114.013 563.58,110.92L565.83,118Z" style="fill:rgb(242,238,238);fill-rule:nonzero;"/>
        <path d="M263,17.42L264.06,30C266.43,27.76 266.92,13.6 263,17.42Z" style="fill:rgb(242,238,238);fill-rule:nonzero;"/>
        <path d="M123.92,30.26C122.66,27.11 120.41,24.52 118.02,23.49C115.63,22.46 113.2,23 111.94,26.1C114.37,26.53 116.94,27.98 119,29.1C121.06,30.22 122.83,31.07 123.92,30.26Z" style="fill:rgb(242,238,238);fill-rule:nonzero;"/>
        <path d="M14.96,410.53L10.74,407.77L14.26,412.97L14.96,410.53Z" style="fill:rgb(242,238,238);fill-rule:nonzero;"/>
    </g>
</svg>
