<svg xmlns="http://www.w3.org/2000/svg" viewBox="0 0 151.46 54.32"><defs><style>.cls-1{fill:#ef7d00;}.cls-2{fill:#94bce5;}</style></defs><title>Element 1</title><g id="Ebene_2" data-name="Ebene 2"><g id="Ebene_1-2" data-name="Ebene 1"><path class="cls-1" d="M82.93,21.84h0a.5.5,0,0,1-.61-.3L73.85,0H70V34.47h4.19V12.14h0a.49.49,0,0,1,.61.3l8.45,22h3.82V0H82.93Z"/><rect class="cls-1" x="60.05" y="0.02" width="4.32" height="34.45"/><path class="cls-1" d="M124.3,18.37a.51.51,0,0,1,.41-.21,11.89,11.89,0,0,0,3.3-.26A1.78,1.78,0,0,0,129.2,16V2.2c0-1.5-.72-2.18-2.33-2.18h-14V34.47h4.32V3.85a.5.5,0,0,1,.5-.5h6.72a.5.5,0,0,1,.5.5v11.4a.5.5,0,0,1-.5.5h-4.73v2.46l5.74,16.26h4.49l-5.64-15.64A.5.5,0,0,1,124.3,18.37Z"/><path class="cls-1" d="M149.14,0H136.82c-1.6,0-2.32.68-2.33,2.18V32.29c0,1.49.73,2.16,2.33,2.17h12.32c1.6,0,2.32-.68,2.32-2.18V2.18C151.46.68,150.74,0,149.14,0Zm-2,30.63a.5.5,0,0,1-.51.5h-7.33a.5.5,0,0,1-.5-.5V3.85a.5.5,0,0,1,.5-.5h7.33a.5.5,0,0,1,.51.5Z"/><path class="cls-1" d="M106.8,0h-14V34.47h4.32V3.85a.5.5,0,0,1,.51-.5h6.72a.5.5,0,0,1,.5.5v11.4a.5.5,0,0,1-.5.5H99.58V19.1h5.06a11.87,11.87,0,0,0,3.3-.27,1.78,1.78,0,0,0,1.19-1.92V2.19C109.13.69,108.41,0,106.8,0Z"/><path class="cls-1" d="M36.49,0H24.17c-1.6,0-2.32.68-2.33,2.18V32.29c0,1.5.73,2.17,2.33,2.17H36.49c1.6,0,2.32-.67,2.32-2.17V2.18C38.81.68,38.09,0,36.49,0Zm-2,30.64a.5.5,0,0,1-.5.5H26.66a.5.5,0,0,1-.5-.5V3.85a.5.5,0,0,1,.5-.5H34a.5.5,0,0,1,.5.5Z"/><path class="cls-1" d="M44.44,34.47h4.45V19.6a.5.5,0,0,1,.5-.5h6.87V15.75H49.39a.5.5,0,0,1-.5-.5V3.85a.5.5,0,0,1,.5-.5h7.19V0H44.44Z"/><path class="cls-1" d="M14.22,0H2.33C.73,0,0,.7,0,2.2V32.3c0,1.49.73,2.17,2.33,2.17H14.22c1.6,0,2.32-.68,2.33-2.17V24H12.23v6.64a.5.5,0,0,1-.5.5H4.82a.5.5,0,0,1-.5-.5V3.85a.5.5,0,0,1,.5-.5h6.91a.5.5,0,0,1,.5.5v6.22h4.32V2.2C16.55.7,15.82,0,14.22,0Z"/><path class="cls-2" d="M46.35,44.51v3.64l3.35-3.64h2.24l-4,4.38,4.25,5.43H49.91l-3.56-4.68v4.68H44.53V44.51Z"/><path class="cls-2" d="M58.94,52H55.83l-.71,2.31h-2l3.32-9.81H58.3l3.32,9.81h-2Zm-2.59-1.69h2.07l-1-3.4Z"/><path class="cls-2" d="M67.62,49.93l2.72,4.39h-2l-2.63-4.23h-1v4.23H62.9V44.51h3.57a2.67,2.67,0,0,1,3,2.79A2.56,2.56,0,0,1,67.62,49.93Zm0-2.63a1,1,0,0,0-1.15-1.11H64.72V48.4h1.77A1,1,0,0,0,67.64,47.3Z"/><path class="cls-2" d="M76.41,49.93l2.72,4.39h-2l-2.63-4.23h-1v4.23H71.69V44.51h3.58a2.67,2.67,0,0,1,3,2.79A2.56,2.56,0,0,1,76.41,49.93Zm0-2.63a1,1,0,0,0-1.15-1.11H73.51V48.4h1.77A1,1,0,0,0,76.43,47.3Z"/><path class="cls-2" d="M82.31,54.32H80.48V44.51h1.83Z"/><path class="cls-2" d="M90.44,44.51v1.68H86.2v2.06h3.4v1.68H86.2v2.71h4.38v1.68h-6.2V44.51Z"/><path class="cls-2" d="M97,49.93l2.71,4.39h-2l-2.63-4.23h-1v4.23H92.31V44.51h3.58a2.67,2.67,0,0,1,3,2.79A2.55,2.55,0,0,1,97,49.93Zm0-2.63a1,1,0,0,0-1.15-1.11H94.14V48.4H95.9A1,1,0,0,0,97.05,47.3Z"/><path class="cls-2" d="M107.17,44.51v1.68h-4.24v2.06h3.4v1.68h-3.4v2.71h4.38v1.68h-6.2V44.51Z"/></g></g></svg>