<?xml version="1.0"?>
<svg width="109px" height="25px" viewBox="0 0 109 25" version="1.1" xmlns="http://www.w3.org/2000/svg" xmlns:xlink="http://www.w3.org/1999/xlink">
    <!-- Generator: Sketch 47.1 (45422) - http://www.bohemiancoding.com/sketch -->
    <desc>Created with Sketch.</desc>
    <defs></defs>
    <g id="Page-1" stroke="none" stroke-width="1" fill="none" fill-rule="evenodd">
        <g id="Startseite-Desktop" transform="translate(-47.000000, -45.000000)" fill="#EE7D00">
            <path d="M156,68.4144092 L156,46.5794725 C155.995797,45.4927615 155.479267,45.0047064 154.326648,45 L145.460637,45 C144.309886,45.0047064 143.793356,45.4927615 143.788219,46.5813551 L143.788219,68.4153504 C143.793356,69.5006495 144.309886,69.988234 145.461571,69.9924697 L154.327582,69.9924697 C155.479267,69.988234 155.995797,69.5006495 156,68.4144092 L156,68.4144092 Z M152.893814,67.2142736 C152.893814,67.4147668 152.731756,67.5780794 152.532803,67.5780794 L147.257751,67.5780794 C147.058331,67.5780794 146.896273,67.4147668 146.896273,67.2142736 L146.896273,47.7909034 C146.896273,47.5904102 147.058331,47.4270976 147.257751,47.4270976 L152.532803,47.4270976 C152.731756,47.4270976 152.893814,47.5904102 152.893814,47.7909034 L152.893814,67.2142736 Z M140.464399,70 L136.406882,58.654248 C136.367652,58.542706 136.383531,58.417986 136.451716,58.3215045 C136.518968,58.2250231 136.629653,58.1671342 136.746876,58.1671342 C138.270313,58.1671342 138.879315,58.0668876 139.122168,57.9831134 C139.703615,57.7689716 139.977758,57.3251567 139.977758,56.5881323 L139.977758,46.5921798 C139.977758,45.5045276 139.461228,45.0178844 138.303005,45.013178 L128.201245,45.013178 L128.201245,70 L131.309766,70 L131.309766,47.7909034 C131.309766,47.5904102 131.471824,47.4270976 131.670777,47.4270976 L136.508227,47.4270976 C136.707179,47.4270976 136.869237,47.5904102 136.869237,47.7909034 L136.869237,56.059602 C136.869237,56.2605659 136.707179,56.4234078 136.508227,56.4234078 L133.10688,56.4234078 L133.10688,58.2071387 L137.235852,70 L140.464399,70 Z M125.532195,57.2649146 L125.532195,46.5921798 C125.532195,45.5045276 125.015198,45.0178844 123.857442,45.013178 L113.756615,45.013178 L113.756615,70 L116.863736,70 L116.863736,47.7909034 C116.863736,47.5904102 117.025794,47.4270976 117.225213,47.4270976 L122.063597,47.4270976 C122.26255,47.4270976 122.424608,47.5904102 122.424608,47.7909034 L122.424608,56.059602 C122.424608,56.2605659 122.26255,56.4234078 122.063597,56.4234078 L118.662251,56.4234078 L118.662251,58.8519174 L122.302247,58.8519174 C123.879859,58.8519174 124.467844,58.7304919 124.678472,58.6584838 C125.258051,58.4462245 125.532195,58.001939 125.532195,57.2649146 L125.532195,57.2649146 Z M106.941313,70 L109.685088,70 L109.685088,45.013178 L106.676043,45.013178 L106.67651,60.839436 C106.672307,60.8408479 106.670906,60.846025 106.666235,60.8474369 C106.485497,60.8977955 106.295884,60.807903 106.226297,60.6314125 L100.145159,45.013178 L97.3985826,45.013178 L97.3976486,70 L100.406693,70 L100.399688,53.8108775 C100.408095,53.8080536 100.410897,53.7981701 100.419303,53.7958169 C100.599575,53.73934 100.791055,53.8362921 100.858774,54.0141945 L106.941313,70 Z M90.2175996,70 L93.3256538,70 L93.3256538,45.013178 L90.2175996,45.013178 L90.2175996,70 Z M82.5406355,47.4270976 L87.7166784,47.4270976 L87.7166784,45.013178 L78.9795666,45.013178 L78.9795666,70 L82.1796248,70 L82.1796248,59.2157232 C82.1796248,59.0147593 82.3412156,58.8519174 82.5406355,58.8519174 L87.489704,58.8519174 L87.489704,56.4224665 L82.5406355,56.4224665 C82.3412156,56.4224665 82.1796248,56.259154 82.1796248,56.0586607 L82.1796248,47.7909034 C82.1796248,47.5904102 82.3412156,47.4270976 82.5406355,47.4270976 L82.5406355,47.4270976 Z M74.9323242,68.4153504 L74.9323242,46.5794725 C74.9276539,45.4927615 74.4111238,45.0047064 73.257571,45 L64.3929612,45 C63.2408095,45.0047064 62.7238123,45.4927615 62.7196091,46.5813551 L62.7196091,68.4153504 C62.7238123,69.5006495 63.2408095,69.988234 64.3948293,69.9924697 L73.2594391,69.9924697 C74.4106567,69.988234 74.9271869,69.5020614 74.9323242,68.4153504 L74.9323242,68.4153504 Z M71.8247369,67.2208626 C71.8247369,67.4213558 71.6626791,67.5846684 71.4637263,67.5846684 L66.189608,67.5846684 C65.9906552,67.5846684 65.8285974,67.4213558 65.8285974,67.2208626 L65.8285974,47.7909034 C65.8285974,47.5904102 65.9906552,47.4270976 66.189608,47.4270976 L71.4637263,47.4270976 C71.6626791,47.4270976 71.8247369,47.5904102 71.8247369,47.7909034 L71.8247369,67.2208626 Z M58.9105496,68.4219394 L58.9105496,62.4085544 L55.8020283,62.4085544 L55.8020283,67.2208626 C55.8020283,67.4213558 55.6399705,67.5846684 55.4410177,67.5846684 L50.4685979,67.5846684 C50.2696451,67.5846684 50.1075872,67.4213558 50.1075872,67.2208626 L50.1075872,47.7909034 C50.1075872,47.5904102 50.2696451,47.4270976 50.4685979,47.4270976 L55.4410177,47.4270976 C55.6399705,47.4270976 55.8020283,47.5904102 55.8020283,47.7909034 L55.8020283,52.304825 L58.9105496,52.304825 L58.9105496,46.5921798 C58.9049453,45.5054689 58.3884152,45.0178844 57.2348624,45.013178 L48.6733521,45.013178 C47.5212004,45.0178844 47.0046703,45.5049982 47,46.5935917 L47,68.4219394 C47.0046703,69.5081797 47.5212004,69.9957642 48.6752202,70 L57.2362635,70 C58.3879482,69.9957642 58.9044783,69.5081797 58.9105496,68.4219394 L58.9105496,68.4219394 Z" id="logo"></path>
        </g>
    </g>
</svg>