<?xml version="1.0" encoding="utf-8"?>
<!-- Generator: Adobe Illustrator 22.1.0, SVG Export Plug-In . SVG Version: 6.00 Build 0)  -->
<!DOCTYPE svg PUBLIC "-//W3C//DTD SVG 1.1//EN" "http://www.w3.org/Graphics/SVG/1.1/DTD/svg11.dtd">
<svg version="1.1" id="Ebene_1" xmlns="http://www.w3.org/2000/svg" xmlns:xlink="http://www.w3.org/1999/xlink" x="0px" y="0px"
	 viewBox="0 0 76.8 84.3" style="enable-background:new 0 0 76.8 84.3;" xml:space="preserve">
<title>Element 259</title>
<g id="Ebene_2_1_">
	<g id="Ebene_2-2">
		<g>
			<path d="M50.2,30.4l0-2.5c1.5,0,3-0.3,4.4-0.8l0.9,2.4C53.7,30.1,52,30.4,50.2,30.4z M45,29.5c-1.7-0.6-3.2-1.5-4.6-2.7L42,25
				c1.1,1,2.4,1.7,3.8,2.2L45,29.5z M60,26.9L58.4,25c1.1-1,2.1-2.1,2.8-3.4l2.2,1.3C62.5,24.4,61.3,25.7,60,26.9z M37,22.8
				c-0.9-1.5-1.5-3.2-1.8-5l2.5-0.4c0.3,1.5,0.8,2.9,1.5,4.2L37,22.8z M65.2,17.9l-2.5-0.4c0.1-0.7,0.2-1.5,0.2-2.2
				c0-0.7-0.1-1.5-0.2-2.2l2.5-0.4c0.2,0.9,0.2,1.7,0.2,2.6C65.4,16.1,65.3,17,65.2,17.9z M37.7,13l-2.5-0.4c0.3-1.8,0.9-3.4,1.8-5
				l2.2,1.3C38.4,10.1,37.9,11.5,37.7,13z M61.2,8.9c-0.7-1.3-1.7-2.4-2.8-3.4L60,3.6c1.4,1.1,2.5,2.5,3.4,4L61.2,8.9z M42,5.5
				l-1.6-1.9c1.4-1.1,2.9-2,4.6-2.6l0.8,2.4C44.5,3.8,43.2,4.5,42,5.5z M54.6,3.3c-1.4-0.5-2.9-0.8-4.4-0.8V0c1.8,0,3.5,0.3,5.2,0.9
				L54.6,3.3z"/>
		</g>
		<g>
			<path d="M49.2,71.5l0-2.5c1.5,0,3-0.3,4.4-0.8l0.9,2.3C52.7,71.2,51,71.5,49.2,71.5z M44,70.6c-1.7-0.6-3.2-1.5-4.6-2.7L41,66
				c1.1,1,2.4,1.7,3.8,2.2L44,70.6z M59,68l-1.6-1.9c1.1-1,2.1-2.1,2.8-3.4l2.2,1.3C61.5,65.5,60.3,66.8,59,68z M36,63.9
				c-0.9-1.5-1.5-3.2-1.8-5l2.5-0.4c0.3,1.5,0.8,2.9,1.5,4.2L36,63.9z M64.2,59l-2.5-0.4c0.1-0.7,0.2-1.5,0.2-2.2
				c0-0.7-0.1-1.5-0.2-2.2l2.5-0.4c0.2,0.9,0.2,1.7,0.2,2.6C64.4,57.2,64.3,58.1,64.2,59z M36.7,54.1l-2.5-0.4
				c0.3-1.8,0.9-3.4,1.8-5l2.2,1.3C37.4,51.2,36.9,52.6,36.7,54.1z M60.2,50c-0.7-1.3-1.7-2.4-2.8-3.4l1.6-1.9
				c1.4,1.1,2.5,2.5,3.4,4.1L60.2,50z M41,46.5l-1.6-1.9c1.4-1.1,2.9-2,4.6-2.6l0.8,2.4C43.5,44.8,42.2,45.6,41,46.5z M53.6,44.4
				c-1.4-0.5-2.9-0.8-4.4-0.8v-2.5c1.8,0,3.5,0.3,5.2,0.9L53.6,44.4z"/>
		</g>
		<g>
			<path d="M15.2,51c-0.9,0-1.8-0.1-2.7-0.2l0.4-2.5c0.7,0.1,1.4,0.2,2.2,0.2c0.7,0,1.5-0.1,2.2-0.2l0.4,2.5
				C17,50.9,16.1,51,15.2,51z M22.8,49l-1.2-2.2c1.3-0.7,2.4-1.7,3.4-2.8l1.9,1.6C25.7,47,24.4,48.1,22.8,49z M7.6,49
				c-1.5-0.9-2.9-2-4-3.4L5.5,44c1,1.1,2.1,2.1,3.4,2.8L7.6,49z M29.6,41.1l-2.3-0.9c0.5-1.4,0.8-2.9,0.8-4.3l2.5,0
				C30.5,37.6,30.2,39.4,29.6,41.1z M0.9,41C0.3,39.3,0,37.6,0,35.8l0-0.2l2.5,0l0,0.2c0,1.5,0.3,3,0.8,4.3L0.9,41z M27.3,31.5
				c-0.5-1.4-1.2-2.7-2.2-3.8L27,26c1.1,1.4,2,2.9,2.6,4.6L27.3,31.5z M3.3,31.3L1,30.4c0.6-1.7,1.5-3.2,2.7-4.5l1.9,1.6
				C4.6,28.6,3.8,29.9,3.3,31.3z M21.7,24.8c-1.3-0.8-2.7-1.3-4.1-1.5l0.5-2.5c1.8,0.3,3.4,0.9,5,1.8L21.7,24.8z M9,24.7l-1.2-2.2
				c1.6-0.9,3.2-1.5,5-1.8l0.4,2.5C11.7,23.4,10.3,23.9,9,24.7z"/>
		</g>
		<g>
			<path d="M48.5,54.7c-0.1,0.1-0.1,0.2,0,0.3l0.2-0.3L48.5,54.7z"/>
		</g>
		<g>
			<path d="M48.9,55.6c0.3-0.1,0.4-0.3,0.5-0.6c-0.2,0.2-0.2,0.1-0.5,0.4c-0.1,0-0.1-0.2-0.1-0.3c-0.1,0.1-0.1-0.1-0.3,0
				c0,0.3,0.2,0.4,0.5,0.3C49,55.5,49,55.5,48.9,55.6z"/>
		</g>
		<g>
			<path d="M59.1,60.7L59.1,60.7C59.1,60.7,59.1,60.7,59.1,60.7z"/>
		</g>
		<g>
			<path d="M65.4,63.8C65.4,63.8,65.3,63.8,65.4,63.8C65.3,63.8,65.4,63.8,65.4,63.8z"/>
		</g>
		<g>
			<path d="M66.4,64.6L66.4,64.6C66.4,64.6,66.3,64.6,66.4,64.6z"/>
		</g>
		<g>
			<path d="M59.1,60.7l0.1,0.2C59.3,60.8,59.2,60.8,59.1,60.7z"/>
		</g>
		<g>
			<path d="M50.7,55.5c0,0-0.1,0-0.1,0H50.7L50.7,55.5z"/>
		</g>
		<g>
			<path d="M56.1,59.7L56.1,59.7L56.1,59.7L56.1,59.7z"/>
		</g>
		<g>
			<path d="M54,58.8c0,0,0.2-0.2,0.2-0.3c-0.1,0.1-0.1,0.1-0.2,0.1C54,58.6,54,58.7,54,58.8z"/>
		</g>
		<g>
			<path d="M50.7,56.8L50.7,56.8z"/>
		</g>
		<g>
			<path d="M57.7,60.4C57.7,60.5,57.7,60.5,57.7,60.4C57.7,60.5,57.7,60.5,57.7,60.4z"/>
		</g>
		<g>
			<path d="M48.1,58.4L48.1,58.4C48.1,58.4,48.1,58.4,48.1,58.4z"/>
		</g>
		<g>
			<polygon points="48.3,55.3 48.3,55.3 48.4,55.3 			"/>
		</g>
		<g>
			<path d="M68.2,65.8L68.2,65.8C68.2,65.8,68.2,65.8,68.2,65.8z"/>
		</g>
		<g>
			<path d="M62.3,73.6c0.3-0.1,0.2,0.5,0.5,0.3C62.8,73.9,62.6,73.5,62.3,73.6z"/>
		</g>
		<g>
			<path d="M50.7,55.6L50.7,55.6C50.8,55.5,50.8,55.5,50.7,55.6z"/>
		</g>
		<g>
			<path d="M62.9,73.9L62.9,73.9L62.9,73.9z"/>
		</g>
		<g>
			<path d="M71.4,67.1h0.2H71.4z"/>
		</g>
		<g>
			<path d="M69.6,65.8L69.6,65.8C69.7,65.9,69.7,65.8,69.6,65.8z"/>
		</g>
		<g>
			<path d="M72.4,67.3c-0.1,0-0.2,0-0.1,0H72.4C72.3,67.3,72.3,67.3,72.4,67.3z"/>
		</g>
		<g>
			<polygon points="71.4,67.7 71.5,67.8 71.5,67.7 			"/>
		</g>
		<g>
			<path d="M50.8,64c0.1-0.1,0.1-0.1,0.2-0.2C50.8,63.9,50.6,63.6,50.8,64z"/>
		</g>
		<g>
			<path d="M50.6,55.6C50.6,55.6,50.7,55.6,50.6,55.6L50.6,55.6C50.7,55.6,50.6,55.6,50.6,55.6z"/>
		</g>
		<g>
			<path d="M76.3,67.7l-0.4,0.2C76.1,67.9,76.2,67.8,76.3,67.7z"/>
		</g>
		<g>
			<path d="M56.8,77.3L56.8,77.3C56.8,77.3,56.8,77.3,56.8,77.3z"/>
		</g>
		<g>
			<path d="M74.7,68.7c-0.2,0-0.4,0-0.5,0c0,0,0,0,0,0.1L74.7,68.7z"/>
		</g>
		<g>
			<path d="M51,63.8"/>
		</g>
		<g>
			<path d="M49.5,62.1c0.1,0.3,0.4,0,0.6,0c0.2,0.3-0.2,0.3-0.3,0.5c0.2,0.2,0.6,0.2,0.6,0.4s-0.1,0.1-0.1,0.1
				c0.4,0.1,0.3,0.7,0.8,0.8L51,63.8c0.1-0.1,0.3-0.2,0.4-0.2c0.1,0.1,0.3,0.1,0.1,0.3c0-0.1-0.1,0-0.2-0.1l0.2,0.1
				c-0.3,0.3-0.2-0.1-0.4,0c0.2,0.2,0.6,0.4,0.6,0.6c-0.3,0.2-0.3-0.4-0.5,0v-0.4c-0.4,0.5,0-0.2-0.5,0.2c0.1,0.4,0.4,0.4,0.5,0.8
				c0.2,0,0.2-0.1,0.5-0.1c0.6,0.4-0.6,0.8,0,1c0.3,0,0.7-0.1,0.6,0.3h-0.4c0.1,0.4,0.6,0,0.5,0.5c-0.2,0-0.3-0.2-0.3-0.2
				c-0.2,0.4,0.3,0.1,0.4,0.3l-0.3,0.2c0.2,0.4,0.7,0.8,0.9,1.2c-0.1,0-0.2,0-0.3,0.1c0.4,0.6,0.6,1.2,0.6,1.9l0.4,0.1
				c0,0-0.1,0.2-0.2,0.1c0,0.3,0.2-0.1,0.3,0s-0.1,0.2-0.2,0.2c0.4,0.3,1,0.9,0.9,1.4h-0.1c0,0.4,0.7,0.1,0.6,0.5h-0.1
				c0.2,0.7,0.8,1.4,0.6,2.1c0.4-0.1,0.1,0.8,0.7,0.6c-0.1,0.5-0.2,0.4-0.2,1.1c0,0.2,0.4,0.1,0.6,0.2l-0.3,0.1l0.4,0.1l-0.3,0.3
				l0.2,0.1c0-0.1,0.1-0.2,0.2-0.2c0.2,0.2,0.2,0.6,0,0.8l0.5,0.5c-0.1,0-0.2,0-0.3-0.1c0.4,0.2-0.3,0.2,0.1,0.4
				c0-0.1,0.2,0,0.2-0.1c-0.1,0.1-0.1,0.3,0,0.4c0.1,0.3,0.2,0.5,0.4,0.7h-0.2c0.2,0.5,0.4,0.9,0.6,1.3c0.2,0.4,0.4,0.8,0.7,1.2
				c-0.1-0.4,0.1-0.9,0.2-0.7l-0.1,0.6c0.2-0.2-0.1-0.4,0.2-0.5c0.1,0.3,0,0.7-0.2,0.7l0.2,0.1c0,0.2-0.1,0.2-0.1,0.3
				c0.1-0.2,0.3,1.1,0.5,0.7v0.2l0.3,0.4c0.1,0.1,0.2,0.3,0.2,0.1s0.3-0.5,0.4-0.8c0-0.4,0.1-0.7,0.1-1.1c0.2-0.3,0.6-0.3,0.9-1.1
				s-0.1-0.4-0.1-0.8c0.2,0.3,0.4-0.4,0.4,0.1c0.2-0.4,0.3-0.7,0.3-1c0.1-0.2,0.1-0.3,0.1-0.5l0.1-0.3v-0.2c-0.1,0-0.2,0.1-0.3,0
				s0.2-0.2,0.3-0.1l0,0c-0.1-0.8,1.3-1.2,1.1-1.9l0,0v-0.7c0.2-0.2,0.1,0.2,0.3,0.1c-0.2-0.8,0.4-0.9,0.4-1.5
				c0.8-0.1,0.5-1.3,1.2-1.6h-0.2c-0.1-0.2,0.2-0.2,0.2-0.2c-0.1-0.1-0.2,0-0.2-0.1c0-0.1,0-0.1,0-0.2h0.1c0.1,0,0.1,0,0.2,0
				l0.7-0.2c0.5-0.1,1-0.2,1.5-0.3s-0.1-0.9,0.6-0.8v0.4c0.7-0.7,1.7-0.7,2.4-1.4c0,0.1,0,0.2-0.1,0.2c0.3,0.2,0.6-0.3,0.6-0.4
				c0.1,0,0.1,0.2,0.2,0.2s0.2-0.1,0.3-0.2s0.3-0.2,0.4-0.2s0,0.1-0.1,0.2c0.2-0.2,1-0.4,0.6-0.5c0.7-0.1,0.9-0.5,1.4-0.6
				c-0.1-0.2,0.2-0.2,0.4-0.3s0.3-0.2,0-0.3c0.6,0.2,1.3-0.3,1.1-0.5c0.1,0.1,0.4-0.1,0.7,0c0.3-0.2,0.3-0.3-0.1-0.3
				c0.1,0,0.3-0.1,0.4-0.1c0.1,0,0.1,0,0.1-0.1l-0.1-0.1c-0.2-0.1-0.3-0.2-0.5-0.2c-0.4-0.1-0.7-0.2-0.2-0.4
				c-0.6-0.2-1.1-0.4-1.7-0.6l-1.6-0.5c0.4-0.3,1,0.4,1.6,0.1c-0.9-0.1-1.8-0.4-2.7-0.7c-0.1-0.1,0.2-0.2,0.2-0.2
				c-0.6-0.1-1-0.5-1.6-0.5c0,0,0.1-0.1,0.2-0.1c-0.1,0-0.2-0.2-0.3,0h0.1c0,0.3-0.6,0.4-0.7,0.5c0.4-0.5-0.4-0.3,0.1-0.9
				c-0.1,0-0.2,0.1-0.2,0.2c-0.1-0.1-0.1-0.2,0.1-0.3c-0.4,0-0.4,0.2-0.7,0c0-0.1,0.1-0.1,0.2-0.2c-0.2,0.1-0.5,0.2-0.7,0
				c0,0,0-0.1,0.1-0.1c-0.5-0.2-1,0.1-1.4-0.3c0.3-0.3-0.1-0.2,0-0.5h-0.3v0.2c-0.2-0.1-0.6,0-0.7-0.2l0.2-0.1l-0.5-0.1l0.2,0.2
				c-0.3,0.1-0.2,0.4-0.4,0.2c0.1,0-0.2-0.1-0.3-0.4l0,0c-0.2,0.1-0.3,0.1-0.5,0S65,62.1,65,62c-0.2,0.2-0.6-0.2-0.9,0.1
				c0.1-0.1,0.1-0.2,0.2-0.3L64.1,62c-0.1-0.1-0.1-0.2,0-0.3c-0.3-0.2-0.1,0.5-0.4,0.1c0,0,0,0,0.1,0c-0.3-0.3-0.8-0.2-1.1-0.5
				c0-0.4,0.3,0.1,0.4-0.3c-0.5-0.2-1.2-0.1-1.7-0.4l0.1,0.1c-0.3,0.5-0.3-0.4-0.6-0.3c0.1,0,0.2-0.2,0.2-0.2
				c-0.4-0.2-0.9-0.2-1.3-0.2l0.1-0.1c-0.2-0.2-0.5-0.3-0.7-0.5c-0.1,0.1-0.2,0-0.2,0.2c-0.3-1-1.5-0.2-1.8-1c0.1,0,0.2,0,0.2-0.1
				l-0.5-0.1c-0.1,0.2,0,0.2,0,0.4c-0.1,0.1-0.3,0.1-0.4,0.1c0.3,0,0.2-0.3,0.1-0.5c0,0.1-0.1,0.1-0.1,0.2c-0.1-0.5-0.2,0.4-0.5,0
				l0.1-0.1c-0.2,0-0.3,0.1-0.5,0c0-0.3,0.2,0,0.3-0.2c-0.2-0.1-0.6,0.3-0.7,0c0.1,0,0.2,0,0.4,0c-0.1-0.4-0.1-0.3-0.3-0.4l0,0
				l-0.3-0.3l0.1,0.1c-0.5,0.5-0.6-0.1-1.1,0.1c0.5-0.2,0.2-0.2,0.3-0.5c0-0.1-0.2-0.3-0.1-0.3c-0.3,0.2-0.2-0.3-0.6-0.1
				c0-0.1-0.2-0.1,0-0.3c-0.2,0,0,0.2-0.1,0.3c-0.5,0.2-0.6-0.7-1.3-0.5c-0.5,0-0.7,0.3-1.1,0.2c-0.1-0.2,0.2-0.3,0.2-0.3
				c-0.1-0.2-0.3-0.3-0.5-0.2c0.1-0.1,0.1-0.2,0-0.3s-0.2,0.3-0.4,0c0.1-0.1,0.2-0.2,0.3-0.3c-0.2,0-0.5,0.1-0.7,0.1
				c0-0.2,0.2-0.2,0.3-0.2c-0.2,0-0.6-0.1-0.8,0.1l0.1,0.1c-0.1,0,0.1-0.2,0.1-0.2c0.3-0.1,0.2,0.2,0.2,0.3h-0.2
				c-0.1,0.6,0.6,0.2,0.8,0.3l-0.3,0.3l0.4-0.2c0,0.1,0,0.4-0.2,0.3c0.1,0.3,0.2,0,0.3,0.2v0.1h0.2c-0.1,0.1-0.1,0.3-0.2,0.2
				c0.2,0.4,0.7,0,0.7,0.3l0,0c0.5,0.1,0.2-0.3,0.7-0.4L52,57.6l0.2-0.3c0.1,0,0.1,0.1,0.1,0.2c0,0,0,0,0,0c0.3-0.1,0-0.1,0.2-0.3
				c0.1,0.4,0.7,0.2,0.5,0.6c0.2-0.2-0.2-0.3,0.2-0.3c-0.2,0.5,0.3,0,0.4,0.4c-0.2,0.2-0.3,0-0.2,0.3c0.3-0.4,0.4,0.3,0.6,0.3
				c0.2-0.3,0.5,0,0.8,0.1c-0.1,0.1,0.5,0.4,0.7,0.7l0,0c0.2-0.3,0.5-0.1,0.7-0.1c0,0.2-0.2,0.3-0.3,0.3l0.2,0.1
				c0.1-0.1,0.2-0.1,0.3-0.1l-0.2,0.2c0.3,0.1,0.7,0,0.9,0.3c0.1-0.2,0-0.8,0.5-0.8c0,0.1-0.1,0.4-0.2,0.4c0,0,0.2-0.1,0.2,0
				l-0.2,0.2c0.1,0.2,0.2-0.1,0.3-0.1c-0.1,0.2,0,0.2,0,0.3s-0.1,0-0.2,0c0.1,0.1,0.2,0.3,0.2,0.4c0-0.1,0.1-0.2,0.2-0.2
				c0.3,0.1,0,0.2,0.1,0.4c0.1-0.1,0.2,0.1,0.3-0.2c0.1,0,0,0.2,0,0.2c0.2,0,0.7,0.3,0.6-0.1l0,0l0,0c0.6-0.1,0.9,0.6,1.4,0.7v0.1
				c0.3,0,0.6,0.2,0.9,0.1c0.1,0.1,0.1,0.2,0,0.3c0.2,0,0.3-0.1,0.5,0.2c-0.3,0.1,0,0.2-0.3,0c0.2,0.2,0.2,0.4,0.6,0.2
				c-0.2,0.2,0.1,0.4,0.2,0.4l-0.1-0.2c0.1,0,0.3,0.1,0.4,0.2l-0.2,0.3c0.4,0.6,1.3-0.2,1.4,0.6c0.2-0.2-0.2-0.3,0-0.5
				c0.2,0.2,0.3,0.7,0.4,0.7c0.3,0.3,0.5-0.3,0.8,0c0-0.1,0.1-0.4,0.4-0.4s0.1,0.6-0.1,0.6c0,0-0.1,0-0.1-0.1c0,0,0,0,0,0
				c-0.1,0-0.2,0-0.2,0.2l0.1-0.1c0.1,0.2,0.4,0.3,0.3,0.4c0.2,0,0.2-0.1,0-0.3c0.2,0.3,0.5,0.2,0.8,0.5c0-0.1,0-0.2,0-0.2
				c0.4,0.3,0.3-0.1,0.7,0c0.1,0.2-0.2,0.4,0.1,0.4c0.2,0.2-0.1,0.3-0.2,0.4c0.4-0.1,0.5,0.4,0.7,0.5h-0.2c0.1,0,0.2,0,0.3,0.1v-0.3
				c0.1,0.1,0.2,0.1,0.1,0.2c0.2-0.1,0.1-0.4,0.4-0.5c0.1,0.2,0.4,0.1,0.3,0.4c-0.3-0.3-0.1,0.3-0.4,0.2c0.1,0,0.2,0,0.2,0.1
				c0,0,0,0-0.1,0.1c0.3,0.4,0.3-0.2,0.7-0.1c-0.1,0.1,0,0.3,0,0.3c-0.2-0.1,0-0.3,0.2-0.4c0.2,0.2,0.3,0,0.4,0.1l-0.1-0.1
				c0.1-0.1,0.2-0.1,0.4,0c0,0.1-0.2,0-0.2,0.1c0.3-0.2,0.3,0.5,0.7,0.4c0.1,0.2-0.1,0.3,0,0.4c0.1,0,0.3,0,0.3,0.2
				c0,0,0.1,0.1,0.1,0.1c0,0,0,0,0.1,0c0.1-0.2,0-0.2,0.3-0.3c-0.1,0-0.3,0-0.4,0c0.2,0,0.3-0.1,0.4-0.2c-0.1,0-0.3,0-0.4-0.1
				c0.2-0.1,0.2-0.1,0.2-0.3c0.1,0.4,0.5,0,0.5,0.3l-0.4,0.5c0,0.1,0.1,0.1,0.2,0s0.4,0,0.4,0l0.1-0.1c0.3-0.1,0.2,0.1,0.4,0
				c-0.3,0.1-0.4,0.1-0.6,0.2c0.2,0,0.1,0,0.9,0L71.9,67c0,0,0.3,0,0.7,0.1h0.6c0.1,0,0.2,0,0.2,0s0,0-0.1,0c-0.5,0-0.8,0-1.2-0.1
				c0,0-0.2,0,0.2,0.1c-0.3,0,0.4,0.1-0.1,0.1c0.2,0,0.6,0.1,0.4,0.1h-0.2c0.2,0,0.1,0.1,0.6,0.1c-0.7,0-0.8,0-1,0.1
				c-0.2,0.1-0.5,0.2-0.7,0.1c-0.1,0.1-0.2,0.2-0.4,0.3c0,0,0-0.1,0-0.1c-0.1-0.1-0.2,0.1-0.2,0.3s0,0.3-0.2,0.3
				c-0.3-0.2,0.1-0.2,0-0.3c-0.3-0.6-0.4,0.3-0.8,0v-0.1c-0.3-0.1-0.4,0.4-0.7,0.5c0,0,0-0.1,0-0.1c-0.1,0.4-0.4,0.7-0.8,0.9
				c0-0.3,0.1-0.2-0.1-0.4c-0.1,0.1,0.2,0.4,0,0.6c-0.1-0.1-0.4-0.1-0.5-0.3l0.3-0.1c-0.3-0.3-0.3,0.2-0.5,0.2v-0.2
				c-0.4,0.2-0.2,0.6-0.7,0.8l0.1,0.1c-0.1,0.5-0.3-0.1-0.4,0.3l-0.2-0.3c-0.2,0.3-0.4,0.5-0.7,0.8c0.1-0.2,0.3-0.5,0.5-0.7
				c-0.2,0.1-0.5,0.3-0.5,0.5c0-0.1,0.1-0.2,0.2-0.2c-0.1,0.3-0.3,0.6-0.7,0.7c-0.1-0.5-0.6-0.2-1.1,0c-0.1,0.2-0.3,0.4-0.6,0.4
				c0,0.2-0.1,0.4-0.2,0.6c-0.1,0.1-0.1,0.3-0.2,0.4c-0.2,0.3-0.4,0.6-0.5,0.9c0.7,0-0.1,0.2,0.5,0.4c0,0.2-0.1,0.2-0.1,0.2
				l-0.5,0.3c-0.2,0-0.1-0.2-0.2-0.2c-0.2,0.3-0.3,0-0.5,0.2c0.2,0,0.2,0.2,0.1,0.4l0.4-0.2c0.1,0.6-0.7,0.2-0.5,0.8L61.4,75
				c0,0.3-0.4,0.9,0,1.3c-0.1,0-0.3,0-0.3-0.1c-0.3,0.5-0.1,1.5-0.5,1.8l-0.1-0.1c0,0.1,0,0.1,0.1,0.2s0,0.1,0,0l-0.2,0
				c0,0,0.2,0.3,0.1,0.2l-0.1-0.2c-0.1,0,0,0.1,0,0.3c0.1,0.3,0.1,0.5,0.1,0.8c-0.2-0.7-0.3-0.8-0.3-0.9v-0.1c0,0.2,0,0.4,0,0.5
				c0,0.2-0.1,0.5-0.2,0.5c0-0.3,0-0.5,0-0.8c0-0.1,0-0.3,0-0.4c0,0.1-0.2,0.3-0.3,0.2s-0.3,0,0-0.2l0,0c0.2-0.1,0.2-0.1,0.2-0.3
				c0-0.1-0.1-0.2-0.2-0.3l-0.5,0.2c0.4-0.9-1-1.4-0.5-2c-0.2-0.1-0.3-0.3-0.5-0.3l0.3-0.1c-0.1-0.4-0.2-0.8-0.5-1.2h0.2
				c-0.1-0.3-0.9,0-1-0.2l0.3-0.2c-0.2-0.5-0.1-1.1-0.7-1.4c0.1,0,0.2,0,0.2,0c-0.1-0.2-0.1-1-0.6-0.7c0.3-0.2-0.2-0.5-0.5-0.7
				l0.3-0.1c-0.4-0.1-0.5,0-0.7-0.3c0-0.1,0.2-0.2,0.2,0c0-0.3-0.3-0.1-0.3-0.4h0.2c-0.1-0.2-0.2-0.2-0.4-0.2s-0.1-0.5,0.1-0.6
				c-0.2,0-0.4,0-0.4-0.2c0.1,0,0.1,0,0.2,0c0-0.5-0.6-0.5-0.4-0.9c0.1,0,0.1-0.1,0.1-0.1c0.1,0.2,0.2,0.4,0.2,0.6
				c0.2-0.1,0.2-0.4,0.6-0.3c-0.3-0.1-0.8-0.3-0.8-0.6l0.1-0.1l0,0c0-0.1-0.1-0.1-0.1-0.2c0-0.1,0-0.2,0-0.2c0.2-0.1,0-0.3-0.1-0.5
				c-0.2,0.1-0.3-0.1-0.4,0.2c0,0,0,0,0.1,0.1s0,0,0,0l0,0l0.2,0.3c-0.2,0-0.3-0.1-0.3-0.3h-0.5c0.3-0.3,0.3-0.8,0.5-0.9
				C54,65.6,53.8,65,53.2,65c-0.1-0.1,0.1-0.2,0.1-0.3s0.1,0.1,0.2,0.1c-0.2-0.2-0.3-0.7-0.7-0.6c0-0.3,0.4,0,0.2-0.3h0.1
				c0.2-1-1.4-0.9-1.1-2c0,0.1,0,0.1-0.1,0.2c-0.1-1.1-1.2-1.9-1.2-3.1c0-0.3-0.3-0.2-0.5-0.3l0.2-0.2L50,58.4
				c-0.4-0.3,0.4-1-0.3-1.3l-0.2,0.2c0-0.2-0.4-0.5-0.1-0.6c0,0-0.2,0-0.2-0.1l0.1-0.1l-0.5-0.3c0-0.4,0.6-0.2,0.4-0.7
				c-0.1-0.2-0.7-0.4-0.7-0.2c0,0.1,0,0.3-0.1,0.3l-0.2-0.1c-0.4,0.2-0.9,0.2-1,0.8l0.4,0.2l-0.2,0.2l-0.1-0.2
				c-0.1,0.2,0.1,0.2,0.2,0.3c-0.1,0.1-0.1,0.1-0.2,0.2l0.5,0.1c-0.2,0.1-0.4,0-0.4,0.2c0.2,0.1,0.3-0.3,0.5-0.1
				c-0.1,0.2-0.3,0.2-0.1,0.3c-0.1,0.1-0.2,0.1-0.3,0c0.2,0.1,0.2,0.4,0.5,0.3c-0.2,0.3,0.3,0.5-0.1,0.6c0.2,0,0.4,0.1,0.5,0.3
				c-0.6,0,0.2,0.5-0.3,0.7c0.5,0,0.5,0.6,0.9,0.8c0,0-0.1,0-0.1,0c0,0.2-0.1,0.3-0.1,0.5c0.4-0.1,0.6,0.1,0.9,0.2
				c-0.2,0.4-0.5,0-0.8,0.3c0.3-0.1,0.5,0.3,0.7,0.1c-0.1,0.3,0,0.2-0.3,0.4c0.5-0.2,0.2,0.1,0.5,0.2c-0.1,0.3-0.4,0.2-0.1,0.5
				C49.8,62.3,49.5,62.1,49.5,62.1z M53.2,68.3L53.2,68.3l-0.1-0.1L53.2,68.3z M53.5,68.9c0-0.1-0.1-0.2-0.1-0.2
				c0.1-0.1,0.2-0.1,0.2,0S53.5,68.8,53.5,68.9z M54.7,66.9c0.1,0.1,0,0.1,0,0.2C54.7,67,54.7,66.9,54.7,66.9L54.7,66.9
				C54.7,66.9,54.7,66.9,54.7,66.9L54.7,66.9z"/>
		</g>
		<g>
			<path d="M54.3,66.9L54.3,66.9L54.3,66.9L54.3,66.9L54.3,66.9z"/>
		</g>
		<g>
			<path d="M59,60.6L59,60.6L59,60.6z"/>
		</g>
		<g>
			<polygon points="56.4,76.7 56.5,76.7 56.4,76.7 			"/>
		</g>
		<g>
			<path d="M56.4,58.4C56.4,58.4,56.4,58.3,56.4,58.4C56.4,58.3,56.4,58.4,56.4,58.4z"/>
		</g>
		<g>
			<path d="M55.1,57.7l-0.1-0.2C55,57.6,55,57.7,55.1,57.7z"/>
		</g>
		<g>
			<path d="M54.1,57.2L54.1,57.2L54.1,57.2L54.1,57.2z"/>
		</g>
		<g>
			<path d="M70.3,64.1L70.3,64.1C70.5,64.1,70.4,64.1,70.3,64.1z"/>
		</g>
		<g>
			<path d="M65.3,62.5c0.1,0,0.1,0,0.2,0C65.4,62.4,65.3,62.4,65.3,62.5z"/>
		</g>
		<g>
			<polygon points="76.4,67.7 76.4,67.7 76.3,67.7 			"/>
		</g>
		<g>
			<path d="M65.7,62.6c0-0.1-0.1-0.1-0.2-0.1C65.5,62.5,65.6,62.6,65.7,62.6z"/>
		</g>
		<g>
			<path d="M49.8,55.1L49.8,55.1L49.8,55.1z"/>
		</g>
		<g>
			<path d="M49.7,55.1L49.7,55.1C49.7,55.1,49.7,55.1,49.7,55.1z"/>
		</g>
		<g>
			<path d="M49.5,55.1h0.1C49.6,55.1,49.6,55.1,49.5,55.1z"/>
		</g>
		<g>
			<path d="M51.1,55.8L51.1,55.8C51.1,55.7,51.1,55.8,51.1,55.8z"/>
		</g>
		<g>
			<path d="M51.5,55.9c-0.1-0.1-0.2-0.3-0.3-0.3v0.1C51.3,55.6,51.3,56.1,51.5,55.9z"/>
		</g>
		<g>
			<path d="M52.7,57.9l-0.3-0.2c0,0.1,0,0.3-0.1,0.2C52.5,58.4,52.3,57.6,52.7,57.9z"/>
		</g>
		<g>
			<path d="M53.7,58.5c-0.2,0-0.1,0.2-0.1,0.2C53.7,58.6,53.8,58.6,53.7,58.5z"/>
		</g>
		<g>
			<path d="M61.3,61.9l-0.1,0.2C61.3,62.2,61.2,62,61.3,61.9z"/>
		</g>
		<g>
			<polygon points="63.3,61.4 63.2,61.2 63.1,61.3 			"/>
		</g>
		<g>
			<polygon points="63.4,63.4 63.3,63.4 63.6,63.4 			"/>
		</g>
		<g>
			<path d="M71.3,67.5l0.4,0.2C71.7,67.7,71.3,67.4,71.3,67.5z"/>
		</g>
		<g>
			<path d="M66.7,69.9c-0.1-0.1-0.3-0.2-0.4,0C66.5,69.9,66.6,69.9,66.7,69.9z"/>
		</g>
		<g>
			<polygon points="59.4,77.2 59.5,77.2 59.4,77.1 			"/>
		</g>
	</g>
</g>
</svg>
