<?xml version="1.0" encoding="UTF-8" standalone="no"?>
<!DOCTYPE svg PUBLIC "-//W3C//DTD SVG 1.1//EN" "http://www.w3.org/Graphics/SVG/1.1/DTD/svg11.dtd">
<svg width="100%" height="100%" viewBox="0 0 86 85" version="1.1" xmlns="http://www.w3.org/2000/svg" xmlns:xlink="http://www.w3.org/1999/xlink" xml:space="preserve" style="fill-rule:evenodd;clip-rule:evenodd;stroke-linejoin:round;stroke-miterlimit:1.41421;">
    <g id="Ebene_2-2">
        <path d="M49.94,42.63C49.85,42.63 49.65,42.63 49.69,42.69L50.02,42.74L49.94,42.63Z"/>
        <path d="M49.3,43C49.528,43.12 49.783,43.179 50.04,43.17C49.861,43.09 49.677,43.02 49.49,42.96C49.49,42.89 49.6,42.85 49.72,42.87C49.64,42.87 49.8,42.77 49.59,42.73C49.38,42.69 49.32,42.9 49.52,43.02C49.446,43.029 49.371,43.022 49.3,43Z"/>
        <path d="M46.21,47.66C46.21,47.66 46.22,47.65 46.21,47.66Z"/>
        <path d="M43,48.6L43,48.53C43,48.46 43,48.57 43,48.6Z"/>
        <path d="M42.48,48.25C42.48,48.25 42.49,48.23 42.48,48.25Z"/>
        <path d="M46.21,47.66L46.08,47.66C46.13,47.72 46.16,47.67 46.21,47.66Z"/>
        <path d="M50,44C49.981,43.97 49.953,43.945 49.92,43.93L49.92,43.99L50,44Z"/>
        <path d="M47.11,46.47L47.02,46.37L47.11,46.47Z"/>
        <path d="M47.7,45.55C47.8,45.636 47.907,45.713 48.02,45.78C47.93,45.71 47.89,45.67 47.88,45.64L47.7,45.55Z"/>
        <path d="M46.52,47L46.44,46.93L46.52,47Z"/>
        <path d="M49.2,42.63L49.18,42.62L49.02,42.61L49.2,42.63Z"/>
        <path d="M41.58,47.79C41.58,47.79 41.6,47.78 41.58,47.79Z"/>
        <path d="M37.29,41.48C37.02,41.48 37.02,41.24 36.7,41.34C36.81,41.35 37.1,41.56 37.29,41.48Z"/>
        <path d="M50,44C50.005,44.02 50.005,44.04 50,44.06L50,44Z"/>
        <path d="M39.58,47.13C39.574,47.166 39.574,47.204 39.58,47.24L39.58,47.13Z"/>
        <path d="M40.9,48.21L40.9,48.16C40.896,48.176 40.896,48.194 40.9,48.21Z"/>
        <path d="M38.66,46.89C38.66,46.89 38.66,46.82 38.66,46.83C38.66,46.84 38.67,46.84 38.66,46.89Z"/>
        <path d="M48.6,37.58C48.553,37.655 48.5,37.725 48.44,37.79C48.58,37.64 48.76,37.74 48.6,37.58Z"/>
        <path d="M49.83,44C49.9,44 49.94,44 49.95,44.05C49.916,44.022 49.874,44.004 49.83,44Z"/>
        <path d="M37.1,48.47L37,48.31C37.027,48.367 37.061,48.421 37.1,48.47Z"/>
        <path d="M40.49,35.16C40.49,35.16 40.49,35.13 40.49,35.16Z"/>
        <path d="M36.54,47.89C36.582,47.827 36.609,47.755 36.62,47.68C36.631,47.605 36.62,47.68 36.55,47.68L36.54,47.89Z"/>
        <path d="M49.74,38.49C49.64,38.31 49.38,38.6 49.18,38.67C48.97,38.54 49.36,38.44 49.47,38.27C49.32,38.2 48.98,38.27 48.93,38.21C48.961,38.167 49.002,38.133 49.05,38.11C48.73,38.17 48.78,37.76 48.38,37.86L48.44,37.79C48.327,37.914 48.204,38.028 48.07,38.13C48.01,38.08 47.8,38.13 47.96,38C47.96,38 48.06,38 48.13,38L48,38C48.21,37.72 48.17,38 48.36,37.84C48.16,37.84 47.83,37.84 47.82,37.69C48.04,37.44 48.1,37.83 48.2,37.5L48.2,37.73C48.5,37.26 48.26,37.85 48.59,37.36C48.47,37.09 48.26,37.25 48.14,36.99C47.96,37.08 47.95,37.2 47.78,37.3C47.29,37.3 48.13,36.46 47.62,36.61C47.42,36.74 47.13,37.06 47.12,36.77L47.41,36.51C47.22,36.32 46.96,36.86 46.9,36.51C47.02,36.42 47.13,36.51 47.13,36.51C47.13,36.16 46.9,36.61 46.8,36.51L46.97,36.21C46.69,36.11 46.32,36.15 46.03,36.07C46.09,35.99 46.19,35.92 46.17,35.8C45.75,35.8 45.45,35.41 45.17,35.1L44.94,35.33C44.94,35.33 44.94,35.19 44.94,35.14C44.83,34.99 44.88,35.32 44.78,35.41C44.68,35.5 44.72,35.22 44.78,35.15C44.45,35.32 43.96,35.49 43.78,35.15L43.85,35.07C43.65,34.92 43.53,35.63 43.38,35.33C42.95,35.16 42.47,35.41 42.11,35C42.11,35.42 41.64,34.84 41.68,35.44C41.39,35.19 41.45,35.07 41.04,34.93C40.94,34.93 40.97,35.33 40.87,35.41L40.8,35.11L40.72,35.47L40.61,35L40.52,35.11C40.52,35.11 40.65,35.22 40.67,35.3C40.54,35.48 40.2,35.21 40.14,35.07L39.83,35.46C39.83,35.34 39.83,35.28 39.83,35.18C39.73,35.56 39.67,34.9 39.58,35.24C39.63,35.24 39.63,35.41 39.65,35.47C39.49,35.33 39.27,35.47 39.14,35.59L39.08,35.38C38.76,35.46 38.53,35.79 38.23,35.98C38.39,35.98 38.56,36.32 38.5,36.4L38.28,36.15C38.34,36.35 38.44,36.2 38.46,36.47C38.34,36.47 38.18,36.22 38.19,36.08L38.12,36.27C38.06,36.2 38.06,36.13 38,36.02C38.06,36.23 37.57,35.93 37.71,36.27L37.64,36.2C37.34,36.41 37.3,36.63 37.1,36.83C37.28,37.04 37.16,37.07 37.26,37.29C37.06,37.37 36.74,37.39 36.58,37.6C36.58,37.83 36.73,37.79 36.81,37.96C36.61,37.81 36.48,38.02 36.41,37.81C36.256,38.037 36.175,38.306 36.18,38.58C36.29,38.58 36.35,38.58 36.41,38.66C36.47,38.74 36.25,38.73 36.15,38.66C36.27,39.17 35.01,39.19 35.36,39.74L35.5,40.17C35.41,40.31 35.35,40.02 35.16,40.08C35.43,40.57 34.93,40.65 35.16,41.03C34.37,41.13 35.05,41.89 34.57,42.18L34.75,42.18C34.92,42.27 34.65,42.28 34.6,42.34C34.74,42.34 34.77,42.25 34.86,42.34C35.03,43.06 34.63,43.85 34.66,44.67C34.66,44.97 35.59,44.59 35.27,45.03L34.93,45.03C35.46,45.44 35.31,46.13 35.87,46.46C35.79,46.46 35.7,46.52 35.68,46.46C35.52,46.68 35.89,46.84 36.05,46.73C36.05,46.82 35.91,46.84 35.85,46.94C35.79,47.04 36.26,47.02 36.1,47.2C36.066,47.22 36.024,47.22 35.99,47.2C36.13,47.2 36.17,47.51 36.35,47.29C36.35,47.53 36.68,47.52 36.66,47.75C36.96,47.62 36.78,48.1 37.12,47.83C36.78,48.13 37.12,48.35 37.34,48.28C37.22,48.35 37.34,48.46 37.16,48.56C37.208,48.606 37.272,48.631 37.339,48.631C37.436,48.631 37.526,48.577 37.57,48.49C37.42,49.1 38.25,48.49 37.95,49.13C38.44,49.21 38.87,49.25 39.24,49.33C39.01,49.74 38.86,49.17 38.63,49.59C39.05,49.59 39.41,49.35 39.63,49.59C39.69,49.68 39.51,49.74 39.44,49.8C39.85,49.8 40.1,50.1 40.44,49.96C40.417,50.003 40.383,50.037 40.34,50.06C40.4,50.06 40.46,50.17 40.51,49.97L40.44,49.97C40.44,49.67 40.84,49.44 40.88,49.29C40.64,49.83 41.14,49.5 40.81,50.18C40.893,50.128 40.945,50.038 40.95,49.94C40.955,49.842 40.95,50.08 40.95,50.21C41.19,50.21 41.16,49.92 41.35,49.96C41.35,50.06 41.29,50.09 41.25,50.2C41.39,50.03 41.51,49.85 41.67,49.96C41.67,50.02 41.67,50.1 41.61,50.09C41.91,50.09 42.14,49.62 42.43,49.83C42.33,50.25 42.53,49.97 42.55,50.35L42.72,50.23L42.66,50C42.81,50 42.93,49.72 43.06,49.83L43,50L43.27,49.92L43.11,49.78C43.24,49.58 43.11,49.31 43.26,49.41C43.26,49.41 43.39,49.41 43.49,49.61C43.55,49.48 43.6,49.35 43.71,49.42C43.82,49.49 43.71,49.84 43.78,49.91C43.78,49.59 44.11,49.78 44.13,49.43C44.117,49.533 44.117,49.637 44.13,49.74L44.13,49.48C44.21,49.54 44.23,49.58 44.25,49.73C44.46,49.73 44.08,49.29 44.36,49.43C44.36,49.43 44.36,49.49 44.36,49.53C44.62,49.53 44.76,49.27 45,49.31C45.18,49.64 44.84,49.46 45,49.73C45.3,49.56 45.47,49.08 45.77,49.02L45.7,49.02C45.5,48.53 46.03,49.16 46.05,48.86C46.06,48.941 46.087,49.02 46.13,49.09C46.36,49.09 46.45,48.75 46.62,48.44L46.62,48.58C46.79,48.58 46.93,48.44 47.07,48.4C47.07,48.27 47.07,48.24 46.94,48.12C47.35,48.3 47.43,48.06 47.49,47.85C47.55,47.64 47.57,47.42 47.93,47.5C47.93,47.5 47.93,47.66 47.93,47.63L48.05,47.31C47.86,47.18 47.92,47.25 47.74,47.18C47.56,47.11 47.64,46.93 47.74,46.88C47.74,47.07 48.02,47.12 48.16,47.15L48,47C48.42,47.13 47.66,46.69 48,46.69L48.09,46.77C48.09,46.67 48,46.52 48.09,46.47C48.33,46.6 48.09,46.61 48.32,46.74C48.38,46.63 48.05,46.27 48.32,46.32C48.32,46.4 48.32,46.47 48.32,46.55C48.65,46.63 48.59,46.55 48.68,46.55L48.91,46.44L48.81,46.44C48.29,45.95 48.88,46.11 48.56,45.7C48.86,46.08 48.77,45.85 49.03,46C49.13,46 49.25,46 49.31,46C49.14,45.79 49.57,45.92 49.31,45.63C49.4,45.63 49.31,45.54 49.58,45.63C49.58,45.47 49.41,45.63 49.3,45.53C49.08,45.22 49.85,45.21 49.53,44.78C49.42,44.48 49.11,44.35 49,44.11C49.17,44.11 49.33,44.25 49.33,44.25C49.5,44.16 49.51,44.06 49.41,43.93C49.497,43.96 49.593,43.96 49.68,43.93C49.68,43.83 49.34,43.81 49.5,43.71C49.629,43.749 49.753,43.802 49.87,43.87C49.8,43.74 49.64,43.6 49.57,43.48C49.74,43.48 49.82,43.58 49.92,43.64C49.86,43.49 49.82,43.27 49.55,43.21L49.45,43.28C49.45,43.23 49.68,43.28 49.72,43.28C49.92,43.42 49.61,43.43 49.51,43.42L49.51,43.34C48.93,43.34 49.51,43.66 49.51,43.82L49.12,43.68L49.43,43.91C49.32,43.91 49.09,43.91 49.04,43.81C48.82,43.87 49.16,43.93 48.91,43.98L48.85,43.98L48.94,44.11C48.86,44.11 48.65,44.05 48.72,44.01C48.45,44.12 48.95,44.38 48.63,44.36C48.69,44.64 48.92,44.47 49.19,44.77L48.43,44.65L48.71,44.78C48.71,44.78 48.65,44.84 48.54,44.78C48.7,44.94 48.67,44.78 48.84,44.93C48.54,44.93 48.84,45.33 48.36,45.15C48.55,45.29 48.58,45.15 48.66,45.31C48.17,45.12 48.66,45.49 48.41,45.49C48.18,45.34 48.35,45.31 48.09,45.3C48.47,45.57 47.91,45.45 47.93,45.57C48.24,45.75 47.93,45.83 47.93,46.03C47.84,45.96 47.59,46.17 47.4,46.21L47.4,46.16C47.67,46.41 47.53,46.5 47.51,46.63C47.34,46.48 47.29,46.41 47.26,46.31L47.19,46.38C47.26,46.48 47.29,46.54 47.27,46.62L47.09,46.42C47.01,46.52 47.09,46.85 46.88,46.84C47.05,47.04 47.5,47.25 47.46,47.51C47.36,47.42 47.19,47.25 47.19,47.17C47.19,47.09 47.19,47.3 47.19,47.28L47,47.13C46.87,47.13 47.11,47.3 47,47.33C46.87,47.18 46.87,47.26 46.77,47.14C46.67,47.02 46.87,47.14 46.83,47.14C46.708,47.155 46.585,47.118 46.49,47.04C46.57,47.12 46.66,47.24 46.64,47.29C46.62,47.34 46.45,47.15 46.33,47.12C46.39,47.25 46.23,47.19 46.42,47.42C46.42,47.42 46.29,47.34 46.23,47.29C46.23,47.43 45.99,47.51 46.23,47.72C46.23,48.12 45.72,47.86 45.59,48.09L45.59,48C45.53,48.18 45.34,48.2 45.34,48.44C45.34,48.44 45.18,48.32 45.14,48.21C45.08,48.32 45.14,48.44 44.9,48.34C44.9,48.14 44.81,48.21 44.96,48.18C44.79,48.18 44.71,48.01 44.67,48.31C44.67,48.06 44.47,48.05 44.44,48.14L44.58,48.28C44.53,48.329 44.459,48.351 44.39,48.34L44.33,48C43.99,47.68 44.03,48.8 43.69,48.18C43.69,48.42 43.86,48.32 43.85,48.59C43.71,48.59 43.5,48.12 43.47,48.12C43.29,47.96 43.38,48.63 43.18,48.52C43.18,48.64 43.28,48.95 43.18,49.07C43.08,49.19 42.98,48.58 43.06,48.49C43.14,48.4 43.06,48.49 43.06,48.55C43.118,48.489 43.118,48.391 43.06,48.33L43.06,48.45C42.99,48.33 42.83,48.35 42.86,48.15C42.818,48.18 42.793,48.228 42.793,48.28C42.793,48.332 42.818,48.38 42.86,48.41C42.69,48.24 42.61,48.41 42.45,48.29C42.45,48.36 42.45,48.5 42.45,48.5C42.21,48.34 42.33,48.72 42.16,48.76C42.07,48.58 42.22,48.33 42.04,48.48C41.95,48.35 42.04,48.16 42.1,48.07C41.93,48.3 41.85,47.88 41.78,47.83L41.87,47.75C41.832,47.77 41.788,47.77 41.75,47.75L41.75,48C41.75,48 41.67,47.94 41.69,47.85C41.62,47.99 41.69,48.24 41.53,48.44C41.53,48.31 41.32,48.54 41.36,48.22C41.53,48.36 41.36,47.91 41.57,47.88C41.57,47.88 41.49,47.88 41.46,47.88C41.454,47.854 41.454,47.826 41.46,47.8C41.36,47.49 41.32,48.13 41.14,48.08C41.2,47.91 41.14,47.74 41.14,47.77C41.14,47.8 41.14,48.07 41,48.18C40.92,48.02 40.84,48.25 40.78,48.18L40.83,48.26C40.76,48.42 40.7,48.38 40.6,48.4C40.6,48.27 40.71,48.34 40.69,48.27C40.5,48.53 40.59,47.89 40.4,48.04C40.4,47.91 40.51,47.73 40.5,47.64C40.27,47.8 40.5,47.35 40.25,47.47C40,47.59 40.25,47.65 40.02,47.82L40.32,47.82L40.03,48.06C40.1,48.06 40.24,48 40.27,48.06C40.12,48.21 40.15,48.15 40.11,48.36C40.11,47.98 39.82,48.45 39.8,48.17L40.06,47.64C40.06,47.34 39.64,47.77 39.5,47.51L39.5,47.64C39.35,47.82 39.35,47.64 39.23,47.64C39.304,47.526 39.358,47.401 39.39,47.27C39.31,47.39 39.26,47.16 39.01,47.46L39.08,47.19C39,46.99 38.55,47.5 38.44,47.31C38.63,47.19 38.65,47.03 38.85,46.99C38.8,46.99 38.79,46.89 38.69,46.99C38.75,46.87 38.39,47.07 38.47,46.89C38.39,46.89 38.24,47.08 38.2,47.02C38.217,46.991 38.241,46.967 38.27,46.95C38.2,47.02 38.09,46.95 37.98,47.16C38.29,46.58 37.54,46.77 37.85,46.28C37.712,46.212 37.587,46.121 37.48,46.01C37.53,46.01 37.56,46.01 37.56,46.01C37.62,45.76 37.02,46.23 37.09,45.94C37.31,45.68 37.29,45.94 37.36,45.82C37.91,45.46 37.15,45.66 37.43,45.36C37.59,45.17 37.11,45.26 37.08,45.08C37.11,45.085 37.14,45.085 37.17,45.08C36.913,45.107 36.659,45.006 36.49,44.81C36.75,44.81 36.64,44.81 36.87,44.72C36.87,44.72 36.49,44.89 36.37,44.72C36.496,44.579 36.654,44.469 36.83,44.4C36.842,44.442 36.859,44.482 36.88,44.52C37.2,44.35 36.82,44.36 36.88,44.27L37.03,44.27C36.94,44.09 36.55,44.18 36.52,43.95L36.41,43.95C36,43.95 36.61,43.81 36.3,43.73L36.69,43.63C36.494,43.543 36.317,43.417 36.17,43.26C36.404,43.325 36.629,43.419 36.84,43.54C36.827,43.395 36.714,43.278 36.57,43.26C36.426,43.242 36.71,43.32 36.66,43.36C36.33,43.3 36.17,43.17 36.17,43C36.94,43 36.34,42.56 36.95,42.46C36.67,42.18 37.11,41.95 37.11,41.66C36.51,41.66 37.11,41.56 36.51,41.47C36.51,41.38 36.51,41.35 36.51,41.36L36.92,41.22C37.11,41.22 37.04,41.32 37.17,41.34C37.26,41.21 37.44,41.34 37.62,41.34C37.4,41.34 37.33,41.2 37.43,41.14L37.13,41.14C36.87,40.83 37.68,41.14 37.44,40.82L37.6,40.95C37.53,40.81 37.72,40.59 37.34,40.29C37.41,40.29 37.57,40.35 37.59,40.41C37.75,40.22 37.41,39.64 37.78,39.61L37.9,39.71C37.9,39.64 37.7,39.48 37.9,39.51C38.1,39.54 38.01,39.61 38.03,39.6C38.05,39.59 37.9,39.34 38.03,39.34L38.13,39.48C38.43,39.4 38.04,38.91 38.13,38.67C38.301,38.858 38.561,38.942 38.81,38.89L38.81,38.94C39.06,38.79 38.93,38.34 39.07,38.02C39.49,38.3 39.69,37.85 40.07,37.96C39.984,37.857 39.941,37.724 39.95,37.59C40.04,37.65 39.95,37.24 40.15,37.59C40.36,37.93 40.43,37.77 40.53,37.75L40.35,37.26C40.63,37.57 40.76,37.43 40.9,37.31C41.04,37.19 41.17,37.06 41.32,37.38C41.32,37.23 41.44,37.22 41.48,37.08L41.48,37.36C41.637,37.424 41.813,37.424 41.97,37.36L41.97,37.56C42.09,37.56 42.07,36.74 42.2,36.72L42.25,37.14C42.49,37.14 42.69,37.51 42.93,37.14C42.93,37.2 42.93,37.32 42.87,37.34C42.81,37.36 43.22,37.67 43.27,37.09C43.27,37.46 43.49,37.16 43.66,37.02L43.58,37.28C43.75,36.96 43.78,36.87 43.96,36.81C43.96,36.81 43.96,37.04 43.9,36.96C43.98,37.13 44.06,36.72 44.17,36.9L44.07,37.06C44.18,37.06 44.2,37.01 44.33,36.84C44.46,36.67 44.53,36.99 44.46,37.24C44.53,37.1 44.67,36.93 44.71,37.02C44.7,37.082 44.668,37.139 44.62,37.18C44.74,37.42 45.03,37.01 45.05,37.32C45.045,37.373 45.045,37.427 45.05,37.48C44.91,37.41 44.8,37.33 44.82,37.32C44.72,37.56 44.82,37.65 44.58,37.93C44.74,37.8 45.08,37.49 45.14,37.66C45.143,37.687 45.143,37.713 45.14,37.74C45.137,37.767 45.14,37.74 45.23,37.74C45.32,37.74 45.23,37.84 45.28,37.86C45.18,38.05 45.34,38.03 45.39,38.07C45.53,37.83 45.58,37.91 45.63,37.68L45.56,37.68L45.41,37.61C45.52,37.51 45.63,37.44 45.62,37.61C45.72,37.49 45.827,37.377 45.94,37.27C45.887,37.565 45.814,37.856 45.72,38.14C45.96,38.14 46.14,38.31 46.58,38.01C46.67,38.01 46.53,38.17 46.49,38.24C46.45,38.31 46.4,38.24 46.34,38.24C46.52,38.24 46.63,38.43 46.91,38.24C46.91,38.46 46.61,38.42 46.8,38.52L46.7,38.58C46.61,38.93 46.88,38.87 47.16,38.86C47.44,38.85 47.7,38.86 47.52,39.29C47.533,39.242 47.561,39.2 47.6,39.17C47.6,39.76 48.44,39.96 48.12,40.64C48.07,40.81 48.29,40.74 48.49,40.77L48.22,40.89L48.59,40.89C48.89,41.05 47.98,41.42 48.48,41.57L48.68,41.5C48.68,41.61 48.84,41.8 48.61,41.81C48.61,41.81 48.82,41.81 48.72,41.87L48.57,41.87L48.86,42.08C48.75,42.28 48.23,42.08 48.21,42.36C48.374,42.497 48.577,42.577 48.79,42.59C49.003,42.603 48.89,42.48 49.04,42.48L49.13,42.57C49.6,42.57 50.13,42.69 50.39,42.39L50.1,42.21L50.32,42.13L50.32,42.3C50.53,42.19 50.32,42.14 50.21,42.08C50.298,42.069 50.38,42.034 50.45,41.98L49.99,41.83C50.17,41.83 50.36,41.88 50.45,41.74C50.23,41.67 50.05,41.86 49.9,41.74C50.1,41.63 50.27,41.63 50.07,41.55C50.153,41.513 50.247,41.513 50.33,41.55C50.17,41.47 50.23,41.3 49.98,41.29C50.22,41.15 49.85,40.98 50.28,40.9C50.17,40.9 49.9,40.8 49.86,40.72C50.42,40.72 49.86,40.39 50.36,40.27C49.88,40.27 50.01,39.9 49.69,39.78C49.69,39.78 49.81,39.78 49.79,39.78C49.79,39.65 49.91,39.56 49.96,39.45C49.59,39.59 49.43,39.45 49.17,39.45C49.44,39.15 49.62,39.33 49.93,39.14C49.65,39.28 49.53,39.03 49.31,39.2C49.47,38.99 49.37,39.06 49.63,38.85C49.19,39.06 49.52,38.79 49.2,38.85C49.32,38.59 49.58,38.58 49.35,38.5C49.5,38.43 49.74,38.49 49.74,38.49ZM46,36.08L46.08,36.08L46,36.08ZM45.69,35.93C45.73,35.961 45.774,35.988 45.82,36.01C45.82,36.1 45.73,36.18 45.7,36.16C45.67,36.14 45.72,36 45.71,35.93L45.69,35.93ZM45.36,37.93C45.3,37.93 45.36,37.93 45.36,37.84L45.44,37.84L45.36,37.93Z"/>
        <path d="M45.63,37.67L45.63,37.6L45.57,37.67L45.63,37.67Z"/>
        <path d="M40.85,34.92L40.87,34.99L40.89,34.92L40.85,34.92Z"/>
        <path d="M48.2,47.17L48.27,47.17L48.2,47.17Z"/>
        <path d="M48.73,46.55L48.87,46.55C48.824,46.54 48.776,46.54 48.73,46.55Z"/>
        <path d="M49.17,46.07L49.07,46L49.17,46.07Z"/>
        <path d="M40.39,50C40.28,50.05 40.33,50.05 40.39,50Z"/>
        <path d="M43.45,49.64C43.428,49.692 43.401,49.742 43.37,49.79C43.42,49.8 43.47,49.8 43.45,49.64Z"/>
        <path d="M37.12,48.49L37.1,48.47L37.12,48.49Z"/>
        <path d="M43.23,49.79C43.29,49.84 43.33,49.79 43.37,49.79C43.41,49.79 43.27,49.75 43.23,49.79Z"/>
        <path d="M50.07,43.39C50.07,43.39 50,43.39 50.07,43.39Z"/>
        <path d="M50,43.28L50.06,43.36C50.06,43.36 50.06,43.3 50,43.28Z"/>
        <path d="M49.83,44.26L49.93,44.26L49.83,44.26Z"/>
        <path d="M49.8,44.51C49.8,44.51 50.05,44.42 50.01,44.31L49.93,44.31C50.07,44.36 49.64,44.42 49.8,44.51Z"/>
        <path d="M48.29,45.05L48.43,44.91C48.32,44.91 48.17,44.91 48.18,44.8C47.8,44.88 48.42,44.84 48.29,45.05Z"/>
        <path d="M47.91,45.47C47.91,45.37 47.77,45.4 47.72,45.37C47.67,45.34 47.8,45.49 47.91,45.47Z"/>
        <path d="M45.08,48.1L44.98,47.87C44.93,47.93 45,48 45.08,48.1Z"/>
        <path d="M44.76,49.63L44.89,49.76L44.89,49.52L44.76,49.63Z"/>
        <path d="M43.84,47.99L43.85,47.95L43.77,48.07L43.84,47.99Z"/>
        <path d="M38.32,46.18L38.09,46.39C38.17,46.39 38.44,46.17 38.32,46.18Z"/>
        <path d="M36.86,43.87C37.01,43.81 37.09,43.72 36.94,43.7C36.79,43.68 36.81,43.85 36.86,43.87Z"/>
        <path d="M40.77,37.58L40.76,37.7L40.82,37.58L40.77,37.58Z"/>
        <path d="M37.42,61.87C35.742,61.417 34.132,60.744 32.63,59.87L33.88,57.71C35.197,58.475 36.609,59.063 38.08,59.46L37.42,61.87ZM52.54,59.92L51.29,57.75C52.612,56.997 53.83,56.072 54.91,55L56.67,56.77C55.436,57.995 54.048,59.054 52.54,59.92ZM23.38,47.75C22.936,46.079 22.711,44.358 22.71,42.63L25.21,42.63C25.211,44.142 25.406,45.648 25.79,47.11L23.38,47.75ZM30.38,30.3L28.61,28.53C29.842,27.3 31.231,26.238 32.74,25.37L34,27.53C32.661,28.284 31.43,29.216 30.34,30.3L30.38,30.3ZM51.38,27.55C50.067,26.786 48.658,26.201 47.19,25.81L47.84,23.39C49.522,23.84 51.136,24.513 52.64,25.39L51.38,27.55Z"/>
        <path d="M47.65,85L47.36,82.51C48.963,82.327 50.553,82.043 52.12,81.66L52.71,84.09C51.043,84.493 49.353,84.797 47.65,85ZM32.32,84C30.653,83.588 29.013,83.074 27.41,82.46L28.3,80.12C29.807,80.702 31.35,81.187 32.92,81.57L32.32,84ZM22.72,80.33C21.207,79.525 19.741,78.634 18.33,77.66L19.75,75.6C21.079,76.521 22.461,77.363 23.89,78.12L22.72,80.33ZM66.72,77.79L65.31,75.73C66.642,74.808 67.918,73.806 69.13,72.73L70.78,74.61C69.498,75.753 68.149,76.819 66.74,77.8L66.72,77.79ZM74.45,71L72.59,69.34C73.665,68.131 74.666,66.858 75.59,65.53L77.59,66.96C76.625,68.368 75.576,69.717 74.45,71ZM7.45,66.77C6.48,65.352 5.592,63.88 4.79,62.36L7.01,61.2C7.758,62.633 8.593,64.019 9.51,65.35L7.45,66.77ZM80.28,62.57L78.07,61.4C78.827,59.973 79.495,58.5 80.07,56.99L82.4,57.89C81.803,59.494 81.108,61.061 80.32,62.58L80.28,62.57ZM2.73,57.67C2.12,56.064 1.612,54.421 1.21,52.75L3.64,52.16C4.022,53.731 4.5,55.277 5.07,56.79L2.73,57.67ZM0.3,47.69C0.1,46.011 0,44.321 0,42.63L1.92,42.57L2.5,42.57C2.497,44.174 2.59,45.777 2.78,47.37L0.3,47.69ZM85.3,42.79L82.8,42.79L82.8,42.61C82.798,41.002 82.702,39.396 82.51,37.8L85,37.5C85.208,39.202 85.312,40.915 85.31,42.63L85.3,42.79ZM81.61,33C81.23,31.431 80.749,29.887 80.17,28.38L82.51,27.49C83.108,29.108 83.606,30.761 84,32.44L81.61,33ZM5.12,28.34L2.79,27.45C3.4,25.845 4.108,24.279 4.91,22.76L7.12,23.92C6.368,25.353 5.701,26.829 5.12,28.34ZM72.68,16C71.611,14.788 70.469,13.642 69.26,12.57L70.92,10.7C72.2,11.845 73.415,13.06 74.56,14.34L72.68,16ZM16.06,12.56L14.4,10.69C15.688,9.55 17.044,8.488 18.46,7.51L19.88,9.57C18.549,10.49 17.273,11.489 16.06,12.56ZM65.45,9.56C64.121,8.657 62.739,7.835 61.31,7.1L62.48,4.89C63.999,5.685 65.465,6.577 66.87,7.56L65.45,9.56ZM24,7.07L22.86,4.85C24.385,4.057 25.954,3.353 27.56,2.74L28.44,5.08C26.922,5.654 25.439,6.319 24,7.07ZM47.51,2.79C45.904,2.598 44.288,2.501 42.67,2.5L42.67,0C44.388,0.003 46.104,0.106 47.81,0.31L47.51,2.79Z"/>
        <path d="M42.63,74.42C41.73,74.42 40.81,74.42 39.91,74.3L40.12,71.81C41.731,71.945 43.349,71.945 44.96,71.81L45.16,74.3C44.32,74.39 43.47,74.42 42.63,74.42ZM50.34,73.48L49.73,71.05C51.297,70.662 52.829,70.143 54.31,69.5L55.31,71.79C53.704,72.493 52.041,73.058 50.34,73.48ZM25.18,69.2C23.715,68.252 22.334,67.182 21.05,66L22.75,64.17C23.933,65.272 25.204,66.275 26.55,67.17L25.18,69.2ZM17.5,62.1C16.427,60.714 15.471,59.243 14.64,57.7L16.84,56.51C17.607,57.93 18.49,59.285 19.48,60.56L17.5,62.1ZM72.66,53.1L70.3,52.27C70.831,50.747 71.232,49.181 71.5,47.59L74,48C73.699,49.729 73.251,51.428 72.66,53.08L72.66,53.1ZM13.35,42.57L10.85,42.57C10.851,40.817 10.998,39.068 11.29,37.34L13.75,37.75C13.487,39.343 13.353,40.955 13.35,42.57ZM70.35,33.13C69.825,31.602 69.172,30.12 68.4,28.7L70.6,27.51C71.431,29.054 72.137,30.663 72.71,32.32L70.35,33.13ZM19.55,24.61L17.55,23.07C18.628,21.69 19.819,20.402 21.11,19.22L22.8,21.06C21.623,22.154 20.536,23.341 19.55,24.61ZM49.85,14.25C48.286,13.848 46.69,13.581 45.08,13.45L45.29,11C47.034,11.141 48.764,11.429 50.46,11.86L49.85,14.25ZM35.48,14.25L34.87,11.83C36.554,11.411 38.27,11.133 40,11L40.21,13.5C38.616,13.614 37.034,13.858 35.48,14.23L35.48,14.25Z"/>
        <path d="M32,77.71C30.319,77.21 28.675,76.591 27.08,75.86L28.08,73.59C29.569,74.271 31.102,74.849 32.67,75.32L32,77.71ZM66.58,70.29L65,68.4C66.242,67.328 67.408,66.172 68.49,64.94L70.37,66.59C69.203,67.908 67.947,69.145 66.61,70.29L66.58,70.29ZM73.48,62.39L71.41,61C72.303,59.629 73.095,58.195 73.78,56.71L76.05,57.71C75.315,59.328 74.466,60.892 73.51,62.39L73.48,62.39ZM8.92,57.58C8.194,55.98 7.586,54.329 7.1,52.64L9.5,52C9.958,53.571 10.526,55.109 11.2,56.6L8.92,57.58ZM6,47.5C5.759,45.784 5.639,44.053 5.64,42.32L8.14,42.25L8.14,42.37C8.144,43.969 8.258,45.566 8.48,47.15L6,47.5ZM79.45,42.5L76.95,42.5L76.95,42.35C76.949,40.714 76.832,39.08 76.6,37.46L79.08,37.11C79.324,38.846 79.447,40.597 79.45,42.35L79.45,42.5ZM11.26,28L9,26.93C9.732,25.335 10.578,23.794 11.53,22.32L13.63,23.68C12.736,25.061 11.944,26.504 11.26,28ZM71.49,23.75C70.597,22.375 69.611,21.062 68.54,19.82L70.43,18.19C71.582,19.517 72.638,20.923 73.59,22.4L71.49,23.75ZM24,13.35L22.65,11.25C24.127,10.299 25.671,9.457 27.27,8.73L28.27,11C26.795,11.686 25.369,12.471 24,13.35ZM56.85,11C55.363,10.318 53.829,9.743 52.26,9.28L53,6.92C54.686,7.412 56.334,8.027 57.93,8.76L56.85,11Z"/>
        <path d="M42.53,68.74L42.46,66.24L42.53,66.24C44.047,66.239 45.561,66.092 47.05,65.8L47.53,68.26C45.883,68.58 44.208,68.741 42.53,68.74ZM60.89,61.18L59.12,59.4C60.236,58.32 61.241,57.131 62.12,55.85L64.19,57.24C63.219,58.656 62.114,59.976 60.89,61.18ZM20.89,57.11C19.948,55.687 19.144,54.177 18.49,52.6L20.8,51.6C21.391,53.023 22.118,54.386 22.97,55.67L20.89,57.11ZM68.58,42.79L66.08,42.79L66.08,42.69C66.081,41.146 65.93,39.605 65.63,38.09L68.09,37.61C68.419,39.283 68.583,40.985 68.58,42.69L68.58,42.79ZM19.45,38.05L17,37.56C17.34,35.886 17.839,34.249 18.49,32.67L20.8,33.67C20.206,35.082 19.754,36.549 19.45,38.05ZM59.19,26.05C58.101,24.957 56.909,23.973 55.63,23.11L57,21C58.441,21.955 59.782,23.054 61,24.28L59.19,26.05ZM29.48,23.05L28.09,21C29.511,20.054 31.022,19.25 32.6,18.6L33.55,20.91C32.125,21.501 30.762,22.231 29.48,23.09L29.48,23.05Z"/>
        <path d="M47.35,56.33C45.557,56.959 43.658,57.231 41.76,57.13L41.9,54.63C43.467,54.732 45.038,54.518 46.52,54L47.35,56.33ZM57,43.47L54.51,43.33C54.597,41.762 54.373,40.191 53.85,38.71L56.21,37.88C56.841,39.673 57.11,41.573 57,43.47ZM43.15,30.73C41.581,30.646 40.011,30.874 38.53,31.4L37.7,29C39.489,28.367 41.385,28.091 43.28,28.19L43.15,30.73Z"/>
    </g>
</svg>
