<?xml version="1.0" encoding="utf-8"?>
<!-- Generator: Adobe Illustrator 22.1.0, SVG Export Plug-In . SVG Version: 6.00 Build 0)  -->
<!DOCTYPE svg PUBLIC "-//W3C//DTD SVG 1.1//EN" "http://www.w3.org/Graphics/SVG/1.1/DTD/svg11.dtd">
<svg version="1.1" id="Ebene_1" xmlns="http://www.w3.org/2000/svg" xmlns:xlink="http://www.w3.org/1999/xlink" x="0px" y="0px"
	 viewBox="0 0 93 80.9" style="enable-background:new 0 0 93 80.9;" xml:space="preserve">
<title>Element 261</title>
<g id="Ebene_2_1_">
	<g id="Ebene_2-2">
		<path d="M85.2,26.6l-2.3,0.8c-0.6-1.5-1.2-3-2-4.5l2.2-1.1C83.8,23.4,84.6,25,85.2,26.6z M80.4,17.4l-2.1,1.4
			c-0.9-1.3-1.9-2.6-3-3.8l1.9-1.7C78.4,14.6,79.4,15.9,80.4,17.4z M73.5,9.7l-1.6,1.9c-1.2-1.1-2.5-2-3.9-2.9l1.4-2.1
			C70.8,7.5,72.1,8.5,73.5,9.7z M64.8,4l-1.1,2.2c-1.5-0.7-3-1.3-4.5-1.8L60,2C61.6,2.6,63.2,3.2,64.8,4z M55,0.7l-0.5,2.5
			c-1.6-0.3-3.2-0.5-4.8-0.6L49.8,0C51.5,0.1,53.3,0.3,55,0.7z M44.8,2.5c-1.6,0.1-3.2,0.3-4.8,0.6l-0.5-2.5
			c1.7-0.3,3.4-0.5,5.2-0.6L44.8,2.5z M35.2,4.3c-1.5,0.5-3.1,1.1-4.5,1.8l-1.1-2.3c1.6-0.7,3.2-1.4,4.8-1.9L35.2,4.3z M26.5,8.6
			c-1.4,0.9-2.7,1.9-3.9,2.9l-1.6-1.9c1.3-1.1,2.7-2.2,4.2-3.1L26.5,8.6z M19.1,14.9c-1.1,1.2-2.1,2.5-3,3.8L14,17.3
			c1-1.4,2.1-2.8,3.2-4.1L19.1,14.9z M13.5,22.9c-0.8,1.4-1.4,2.9-2,4.5l-2.4-0.9c0.6-1.6,1.3-3.2,2.1-4.8L13.5,22.9z"/>
		<rect x="88" y="24" transform="matrix(0.5308 -0.8475 0.8475 0.5308 21.0769 88.6063)" width="5.2" height="2.5"/>
		<polygon points="87.5,32.5 85.5,35.7 82.3,33.7 83.6,31.6 84.7,32.3 85.4,31.2 		"/>
		<rect x="75.5" y="26.4" transform="matrix(0.5308 -0.8475 0.8475 0.5308 11.6275 78.5884)" width="2.5" height="4.9"/>
		<path d="M47.3,36.3c0.1,0,0.3,0,0.2,0H47.3L47.3,36.3z"/>
		<path d="M47.9,36.1c-0.2,0-0.5-0.1-0.7,0c0.3,0,0.2,0,0.6,0.1c0,0-0.1,0-0.2,0c0.1,0-0.1,0,0.1,0.1s0.3-0.1,0-0.1
			C47.8,36.1,47.9,36.1,47.9,36.1z"/>
		<path d="M48.5,33.3L48.5,33.3z"/>
		<path d="M48.6,31.5L48.6,31.5L48.6,31.5z"/>
		<path d="M49,31.2L49,31.2L49,31.2z"/>
		<path d="M48.5,33.3L48.5,33.3C48.5,33.2,48.5,33.3,48.5,33.3z"/>
		<path d="M47.2,35.7L47.2,35.7L47.2,35.7L47.2,35.7z"/>
		<path d="M48.7,34.1L48.7,34.1h0.1H48.7z"/>
		<path d="M48.8,34.7c-0.1,0-0.3,0-0.4,0c0.1,0,0.2,0,0.2,0H48.8z"/>
		<path d="M48.3,35.6L48.3,35.6z"/>
		<path d="M48.8,33.6L48.8,33.6z"/>
		<path d="M46.7,16.9L46.7,16.9z"/>
		<path d="M48.1,16.2L48.1,16.2z"/>
		<path d="M49.4,30.7L49.4,30.7z"/>
		<path d="M49.2,25.6c-0.2,0.1-0.3-0.1-0.6,0C48.8,25.6,49,25.6,49.2,25.6z"/>
		<path d="M47.2,35.7L47.2,35.7C47.2,35.7,47.2,35.7,47.2,35.7z"/>
		<path d="M48.6,25.6"/>
		<path d="M49.2,29.4h-0.1H49.2z"/>
		<path d="M48.8,30.3L48.8,30.3C48.8,30.3,48.8,30.3,48.8,30.3z"/>
		<path d="M48.8,28.9C48.8,28.9,48.9,28.9,48.8,28.9L48.8,28.9C48.8,28.9,48.8,28.9,48.8,28.9z"/>
		<path d="M48.8,28.4L48.8,28.4L48.8,28.4L48.8,28.4z"/>
		<path d="M46.8,18.5c0.1,0,0.2,0,0.3,0C46.9,18.5,46.8,18.4,46.8,18.5z"/>
		<path d="M47.3,35.7c0,0-0.1,0-0.1,0l0,0H47.3z"/>
		<path d="M46.6,28.9L46.6,28.9C46.6,28.8,46.6,28.8,46.6,28.9z"/>
		<path d="M46.8,22.2L46.8,22.2z"/>
		<path d="M46.6,28.6c0.1,0,0.1,0,0.2,0h-0.1H46.6z"/>
		<path d="M47.1,18.5"/>
		<path d="M46.4,17.9c0,0.1,0.4,0,0.6,0s-0.3,0-0.5,0.1c0.1,0.1,0.4,0.1,0.4,0.1c-0.1,0-0.1,0-0.2,0c0.3,0.1,0,0.2,0.4,0.2h0.4
			c0,0,0.2,0.1,0,0.1c0,0-0.1,0-0.2,0h0.1c-0.3,0-0.1,0-0.4,0c0.1,0.1,0.4,0.2,0.3,0.2c-0.3,0-0.1-0.1-0.4,0l0.1-0.1
			c-0.5,0.1,0,0-0.5,0c-0.1,0.1,0.2,0.1,0.1,0.2c0.2,0,0.3,0,0.5,0c0.3,0.2-0.8,0.1-0.4,0.2c0.2,0,0.7,0,0.4,0.1h-0.4
			c0,0.1,0.6,0.1,0.3,0.2s-0.1-0.1-0.2-0.1c-0.3,0.1,0.2,0,0.2,0.1h-0.3c0.1,0.1,0.3,0.2,0.4,0.4c-0.1,0-0.2,0-0.3,0
			c0.2,0.2,0,0.3-0.2,0.5l0.3,0.1c-0.1,0-0.1,0-0.2,0c-0.1,0.1,0.2,0,0.3,0s-0.2,0-0.2,0c0.2,0.1,0.5,0.3,0.2,0.4h-0.1
			c-0.1,0.1,0.6,0.1,0.3,0.2h0c-0.1,0.2,0.1,0.4-0.3,0.5c0.4,0-0.2,0.2,0.4,0.2c-0.3,0.1-0.4,0.1-0.6,0.2c0,0,0.4,0.1,0.4,0.1h-0.3
			l0.3,0.1h-0.4l0.1,0c0.1,0,0.2,0,0.2,0c0.1,0.1-0.2,0.2-0.4,0.2l0.3,0.2c-0.1,0-0.2,0-0.2,0c0.3,0.1-0.3,0,0,0.1
			c0.1,0,0.2,0,0.2,0c-0.2,0-0.2,0.1-0.1,0.2h-0.2c-0.1,0.1,0.1,0.3,0.1,0.4c0.2,0,0.3,0,0.5,0h-0.3c0.2,0,0.1,0,0.4,0
			c-0.2,0-0.3,0-0.5,0l0.1,0.1c-0.1,0-0.2,0-0.3,0c0.2,0-0.3,0.1,0,0.1h-0.1c0,0.1,0.1,0.2,0.1,0.3c0.3,0,0.2,0,0.4,0.1
			c-0.1,0.1-0.3,0.2-0.3,0.3s0.2,0,0.4,0c-0.2,0-0.2,0.1-0.4,0.1c0,0.1,0,0.2,0.3,0.3c0.1,0,0.2,0,0.2,0c0,0-0.1,0.1-0.2,0.1l0,0
			c0.4,0.2-0.8,0.4-0.2,0.5l0,0l0.3,0.1c0,0.1-0.2,0-0.4,0c0.4,0.2-0.1,0.2,0.2,0.4c-0.8,0.1,0,0.4-0.4,0.5h0.2c0.2,0-0.1,0-0.2,0.1
			c0.1,0,0.2,0,0.3,0c0.2,0.3-0.3,0.6-0.4,0.9c0,0.1,0.9,0.1,0.5,0.2h-0.3c0.4,0.2,0,0.5,0.3,0.7c-0.1,0-0.2,0-0.2,0
			c-0.2,0,0,0.2,0.2,0.2c0,0-0.2,0-0.3,0s0.3,0.1,0.1,0.1h-0.1c0.1,0,0,0.1,0.2,0.1c-0.1,0.1,0.1,0.2,0,0.2c0.3,0-0.2,0.1,0.3,0.2
			c-0.5,0-0.4,0.1-0.2,0.2c-0.1,0-0.2,0-0.3,0c0,0.1,0.1,0.1,0.3,0.1c-0.5,0.1,0.4,0.2-0.3,0.3c0.2,0.1,0.4,0.3,0.5,0.5
			c-0.5,0,0-0.2-0.5-0.2c0.2,0.1,0.6,0.2,0.5,0.4s-0.2,0-0.3,0c0.2,0.1,0,0.3,0.2,0.4c0,0-0.1,0-0.1,0c0,0-0.1,0.1,0.1,0.1h-0.1
			c0.3,0,0.5,0,0.8,0.1c-0.6,0-0.2,0.1-0.9,0.1c0.1,0,0.2,0,0.3,0c0,0-0.1,0-0.3,0c0.1,0.1,0.3,0.1,0.3,0.1h-0.2
			c0.2,0,0.4,0.1,0.3,0.2s-0.1,0-0.1,0s0.5,0.2,0.3,0.4c-0.4,0-0.1,0-0.5,0l0.1,0.1h0.2c0,0.1,0.3,0.1,0.1,0.2l-0.2,0l0.1,0.1
			l0.1-0.1c0.2,0.1,0.5,0,0.4,0.1s0,0.1-0.2,0.1l0,0c0.1,0,0.2,0.1,0.2,0.1s-0.4,0-0.5,0c0.3,0,0.1,0.1,0.4,0.2c-0.1,0-0.2,0-0.3,0
			h0.2c-0.1,0-0.2,0-0.3,0c0,0.1,0.5,0,0.3,0.1c0,0,0,0-0.1,0s0.2,0.2,0,0.3c-0.4,0-0.1-0.1-0.4-0.1c0.1,0.2,0.5,0.3,0.4,0.4l0,0
			c0.5,0-0.3,0.1,0,0.2c-0.1,0-0.2,0-0.2,0c-0.1,0.1,0.1,0.2,0.3,0.3h-0.1c-0.1,0.1-0.1,0.2-0.1,0.2c0.1,0,0.1,0,0.3,0
			c-0.8,0.2,0.4,0.3-0.2,0.5h-0.1l0.1,0.1c0.1,0,0.2,0,0.3,0c0.1,0,0.2,0.1,0.2,0.1c-0.2,0-0.3,0-0.5,0h0.2c-0.4,0.1,0.5,0,0.2,0.1
			h-0.1c0.1,0,0.2,0.1,0.2,0.1c-0.3,0-0.1,0-0.3,0c0,0.1,0.5,0.1,0.2,0.2c-0.1,0-0.1-0.1-0.2-0.1c-0.3,0.1-0.2,0.1-0.3,0.1l0,0
			l-0.1,0.1h0.1c0.7,0.1,0.1,0.2,0.6,0.2c-0.4-0.1-0.2,0-0.5,0c-0.1,0-0.2,0-0.3,0c0.2,0-0.2,0.1,0.2,0.1c-0.1,0,0,0-0.2,0
			c0.1,0,0.2,0,0.3,0c0.3,0.1-0.4,0.2,0,0.3c0.2,0.1,0.5,0.1,0.7,0.2c-0.1,0-0.2,0-0.3,0c-0.2,0.1-0.1,0.1,0,0.2c-0.1,0-0.2,0-0.3,0
			c0,0,0.4,0,0.2,0.1h-0.4c0.1,0,0.3,0.1,0.4,0.2c-0.1,0-0.2,0-0.4,0c0.1,0.1,0.3,0.2,0.4,0.2h0.1c0,0-0.2,0-0.3,0
			c-0.2,0,0.1-0.1,0.2-0.1h0.1c0.6,0-0.1-0.2-0.1-0.2h0.4L47.7,36c0.1,0,0.3,0,0.4,0c0.2-0.1-0.2,0,0.1-0.1h0.1l-0.1-0.1
			c0.1,0,0.3,0,0.2,0c0.2-0.1-0.3-0.2,0-0.2l0,0c-0.1-0.1-0.3,0-0.7-0.1l0.8-0.1h-0.3c0,0,0,0,0.2,0c-0.2,0-0.1,0-0.3,0
			c0.3-0.1-0.1-0.2,0.4-0.2c-0.2,0-0.2,0.1-0.3,0c0.5,0-0.1-0.1,0.2-0.1s0.1,0.1,0.4,0c-0.5,0,0.1-0.1,0-0.2c-0.4,0-0.2-0.1-0.3-0.2
			c0.1,0,0.2-0.2,0.3-0.2h0.1c-0.4,0-0.3-0.1-0.4-0.2c0.1,0,0.3,0,0.4,0v0c-0.1,0-0.2,0-0.2-0.1h0.3c0-0.1-0.3-0.1-0.1-0.2
			c-0.3,0.1-0.6,0.1-0.9,0c0.1,0,0.3,0,0.4,0c0,0-0.1,0-0.1,0h0.2c0.1,0-0.2,0-0.2-0.1c0.2,0,0.2,0,0.3,0s-0.1,0,0,0
			c0.1-0.1,0.2-0.1,0.3-0.1c-0.1,0-0.2,0-0.3,0c0-0.1,0.2,0,0.3-0.1c-0.1,0,0-0.1-0.3-0.1c0,0,0.1,0,0.2,0c-0.1,0,0-0.2-0.3-0.1l0,0
			c-0.3-0.1,0.2-0.3,0-0.4h0.1c-0.1-0.1-0.1-0.2-0.3-0.2c0.1,0,0.2,0,0.3,0c-0.1-0.1-0.2-0.1,0-0.1s0.2,0,0.1,0s0.2-0.1,0-0.2
			c0.2,0,0.3-0.1,0.2-0.1l-0.2,0c0,0,0-0.1,0-0.1H49c0.4-0.2-0.7-0.3,0-0.4c-0.2,0-0.2,0.1-0.4,0c0-0.1,0.5-0.1,0.5-0.2
			c0.2-0.1-0.5-0.1-0.4-0.2c-0.2,0-0.4,0-0.5,0c0.2-0.1,0.4-0.1,0.6,0c0,0,0,0-0.1,0c0.1,0,0.2,0,0.2,0h-0.1c0.1,0,0.1-0.1,0.3-0.1
			c-0.1,0-0.2,0-0.3,0c0.2-0.1,0-0.1,0.1-0.2c-0.1,0-0.1,0-0.2,0c0.2-0.1-0.2-0.1-0.3-0.1c0.2,0,0.4,0,0.3-0.1c0.1,0,0.3,0,0.4,0
			c-0.2-0.1,0.2-0.2,0.2-0.2h0.1c0,0,0,0,0-0.1h-0.2c0,0,0.1,0,0.1,0c-0.2,0-0.4,0-0.6,0c0.1,0-0.1-0.1,0.2-0.1
			c-0.1,0.1,0.3,0,0.4,0.1s0,0,0-0.1h0.1c0.3-0.1-0.4,0-0.3-0.2c0.2,0,0.3,0,0.3,0s-0.3,0-0.4,0c0.1-0.1-0.1-0.1-0.1-0.1h-0.1
			c-0.2,0-0.2,0-0.2-0.1c0.1,0,0.1,0,0.2,0c-0.3,0,0.3-0.1,0.1-0.2c0.1,0,0.3,0,0.4,0c-0.2-0.1,0.2-0.1,0-0.2c-0.1,0-0.3,0-0.4,0
			L49,30l-0.3-0.1c0,0,0.2,0.1,0.1,0.1c-0.1,0-0.2,0-0.3,0c0.4-0.1-0.2-0.1,0-0.2H49c0.3-0.1-0.3-0.2-0.2-0.3h-0.1
			c-0.2,0,0-0.1-0.1-0.1c0.1,0,0.3,0,0.4,0c-0.2,0,0-0.1-0.4-0.1l0.3-0.1c0.1-0.1-0.6-0.1-0.5-0.2c0.2,0,0.3,0,0.5,0.1
			c0,0,0-0.1-0.1-0.1c0.1,0-0.3-0.1-0.1-0.1c-0.1,0-0.3,0-0.3,0c0,0,0.1,0,0.1,0c-0.1,0-0.2,0-0.3,0c0.6-0.1,0-0.3,0.5-0.4
			c-0.1-0.1-0.1-0.1-0.1-0.2c0.1,0,0.1,0,0.1,0c0.2-0.1-0.6-0.1-0.4-0.2s0.2,0,0.3,0c0.7,0-0.1-0.1,0.3-0.2l0,0
			c0.2,0-0.2-0.1-0.2-0.2h0.1c-0.2,0-0.4-0.1-0.5-0.3c0.1,0,0.3,0,0.4,0c0,0-0.4,0-0.5-0.1c0.2,0,0.4-0.1,0.5-0.1v0.1
			c0.4,0,0-0.1,0-0.1H49c0-0.1-0.5-0.1-0.4-0.2h-0.1c-0.4-0.1,0.2-0.1-0.1-0.1h0.4c-0.2-0.1-0.3-0.1-0.5-0.2c0.2,0,0.4,0.1,0.6,0.2
			c0,0,0-0.1-0.2-0.2c0,0,0.1,0,0.1,0.1c-0.3-0.1-0.5-0.1-0.5-0.2c0.8,0,0.2-0.2,0.8-0.3c-0.3-0.1,0.1-0.3,0.1-0.5
			c-0.6,0.1,0-0.1-0.6,0c0,0,0-0.1,0-0.1l0.4-0.1c0.2,0,0.1,0,0.3,0s0.3,0,0.4-0.1c-0.2,0-0.3,0-0.2-0.1l-0.3,0.1
			c-0.3-0.1,0.5-0.1,0.2-0.2h0.2c-0.1-0.1,0-0.2-0.5-0.3c0.1,0,0.2,0,0.3,0c0.1-0.2-0.5-0.4-0.2-0.5h0.2c0,0-0.3-0.1-0.1-0.1
			c0.1,0,0.1,0,0.2,0c0,0-0.3-0.1-0.2-0.1h0.2c0.2-0.1-0.4-0.2-0.5-0.4c0.2,0,0.5,0,0.7-0.2h0.1c0-0.2-0.4-0.3-0.5-0.5
			c0.5-0.1,0.2-0.3,0.5-0.5c-0.1,0-0.3,0-0.4,0c0.1,0-0.3-0.1,0.1-0.1l0,0c0.4,0,0.3-0.1,0.3-0.2h-0.5c0.8-0.2-0.3-0.4,0.4-0.5
			c-0.1,0-0.1-0.1-0.3-0.1h0.3c0.1-0.1,0.1-0.2,0-0.3h0.2c0-0.1-0.8-0.1-0.8-0.2h0.4c0-0.1,0.4-0.3,0-0.4c0.1,0,0.2,0,0.2,0
			s0.3-0.2-0.3-0.2c0.4,0,0-0.1-0.1-0.2h0.3c-0.4-0.1-0.5-0.1-0.5-0.1s0.2,0,0.2,0c0.2-0.1-0.3,0-0.1-0.1h0.2c0-0.1-0.1-0.1-0.3-0.1
			s0.1-0.1,0.3-0.1c-0.2,0-0.4,0-0.3-0.1c0.1,0,0.1,0,0.2,0c0.2-0.1-0.3-0.2,0-0.2c0.1,0,0.1,0,0.2,0c0,0.1,0,0.2,0,0.2
			c0.2,0,0.4,0,0.7,0c-0.2-0.1-0.6-0.2-0.5-0.2h0.1l0,0c0,0,0.1,0,0.1-0.1c0.2,0,0.1-0.1,0.1-0.1c-0.2,0-0.3,0-0.5,0l0,0l0,0l0,0
			c0,0,0,0,0,0.1s-0.3-0.1-0.1-0.1l-0.5,0c0.4,0,0.6-0.1,0.8-0.2c-0.2-0.1-0.1-0.3-0.6-0.3c-0.1,0,0.2,0,0.2,0s0,0,0.1,0
			c-0.1-0.1,0-0.2-0.4-0.2c0.2-0.1,0.3,0,0.3-0.1h0.1c0.6-0.2-0.9-0.4-0.2-0.6c0,0-0.1,0-0.1,0c0.3-0.3-0.3-0.6,0.2-0.8
			c0.1-0.1-0.1-0.1-0.3-0.1h0.3l-0.3-0.1c-0.2-0.1,0.7-0.2,0.3-0.3h-0.2c0,0-0.1-0.2,0.1-0.1c0,0-0.2,0-0.1,0h0.2l-0.3-0.1
			c0.1-0.1,0.6,0,0.7-0.1c-0.2-0.1-0.4-0.1-0.6-0.1c0,0-0.1,0-0.2,0.1l-0.1,0c-0.4,0-0.8,0-1.3,0.1l0.3,0.1h-0.2v-0.1
			c-0.2,0,0,0.1,0.1,0.1c-0.1,0-0.2,0-0.2,0l0.4,0.1c-0.2,0-0.4,0-0.5,0c0.2,0,0.4,0,0.5,0c-0.2,0-0.4,0-0.2,0.1c-0.1,0-0.2,0-0.2,0
			c0.2,0,0.1,0.1,0.3,0.1c-0.3,0,0.1,0.1-0.4,0.1c0.1,0,0.2,0,0.4,0.1c-0.5-0.1,0,0.1-0.6,0.1c0.5,0.1,0.2,0.2,0.5,0.3h-0.1
			c0,0-0.2,0.1-0.3,0.1c0.2,0,0.5,0,0.7,0.1c-0.3,0-0.5,0-0.8,0c0.3,0,0.3,0.1,0.6,0.1c-0.1,0-0.3,0.1-0.4,0.1c0.5,0,0.1,0,0.4,0.1
			c-0.2,0.1-0.5,0-0.3,0.1C46.7,17.8,46.5,17.9,46.4,17.9z M47.2,19.7L47.2,19.7L47.2,19.7C47.2,19.7,47.2,19.7,47.2,19.7z
			 M47.2,19.9C47.3,19.9,47.3,19.8,47.2,19.9c0.1-0.1,0.2-0.1,0.2-0.1C47.4,19.8,47.3,19.9,47.2,19.9z M49.2,19.6
			C49.2,19.6,49.2,19.6,49.2,19.6L49.2,19.6L49.2,19.6L49.2,19.6z"/>
		<path d="M48.8,19.5L48.8,19.5L48.8,19.5L48.8,19.5L48.8,19.5z"/>
		<path d="M48.4,33.3L48.4,33.3z"/>
		<polygon points="46.7,22 46.8,22 46.7,22 		"/>
		<path d="M47.5,34.1L47.5,34.1z"/>
		<path d="M47.4,34.5L47.4,34.5L47.4,34.5z"/>
		<path d="M47.2,34.8L47.2,34.8z"/>
		<path d="M46.9,30.4L46.9,30.4z"/>
		<path d="M47.6,31.7l-0.1,0C47.4,31.6,47.4,31.7,47.6,31.7z"/>
		<polygon points="46.6,28.9 46.6,28.9 46.6,28.9 		"/>
		<path d="M47.5,31.6C47.4,31.6,47.4,31.6,47.5,31.6C47.5,31.6,47.5,31.6,47.5,31.6z"/>
		<path d="M47.1,36L47.1,36z"/>
		<path d="M47.2,36L47.2,36C47.2,36,47.2,36,47.2,36z"/>
		<path d="M47.3,36.1L47.3,36.1C47.2,36.1,47.2,36,47.3,36.1z"/>
		<path d="M47.2,35.6L47.2,35.6z"/>
		<path d="M47.2,35.5c0,0-0.2,0.1-0.2,0.1L47.2,35.5C47,35.6,47.4,35.5,47.2,35.5z"/>
		<path d="M48.5,35L48.5,35c0,0.1,0.2,0.1,0.2,0.1C49,35,48.4,35.2,48.5,35z"/>
		<path d="M48.6,34.8c0,0,0.2,0,0.2,0C48.8,34.7,48.7,34.7,48.6,34.8z"/>
		<path d="M48.6,32.7h0.3C48.9,32.7,48.8,32.7,48.6,32.7z"/>
		<polygon points="47.3,32.3 47.2,32.3 47.4,32.3 		"/>
		<polygon points="49.1,32 49.2,32 49.1,32 		"/>
		<path d="M49,28.5h-0.3C48.8,28.5,49.1,28.5,49,28.5z"/>
		<path d="M48.7,27C48.9,27,49,26.9,48.7,27C48.7,26.9,48.7,26.9,48.7,27z"/>
		<polygon points="49.2,22.4 49.3,22.4 49.3,22.4 		"/>
		<path d="M25.5,61.5c0,0.1,0.2,0.2,0.2,0.2L25.5,61.5L25.5,61.5z"/>
		<path d="M26.2,61.8c-0.1-0.2-0.3-0.4-0.5-0.6c0.2,0.3,0.1,0.2,0.3,0.5c0,0.1-0.1,0-0.2-0.1c0,0.1-0.1,0,0,0.2s0.3,0.1,0.2-0.1
			C26.1,61.7,26.1,61.7,26.2,61.8z"/>
		<path d="M29.4,59.3L29.4,59.3z"/>
		<path d="M31.2,57.7C31.2,57.7,31.2,57.8,31.2,57.7C31.2,57.8,31.2,57.7,31.2,57.7z"/>
		<path d="M31.8,57.7L31.8,57.7C31.8,57.7,31.8,57.7,31.8,57.7z"/>
		<path d="M29.4,59.3h0.1C29.4,59.3,29.4,59.3,29.4,59.3z"/>
		<path d="M26,60.8C26,60.8,26,60.9,26,60.8L26,60.8L26,60.8z"/>
		<path d="M28.8,60.3L28.8,60.3l0.1,0.1L28.8,60.3z"/>
		<path d="M28.2,60.9c-0.1-0.1-0.2-0.2-0.2-0.3c0.1,0.1,0.1,0.1,0.1,0.2L28.2,60.9z"/>
		<path d="M26.9,61.5L26.9,61.5L26.9,61.5z"/>
		<path d="M29.2,59.9L29.2,59.9L29.2,59.9z"/>
		<path d="M44.2,42L44.2,42z"/>
		<path d="M45.9,42.3L45.9,42.3l0.1,0.1L45.9,42.3z"/>
		<path d="M32.6,57.4L32.6,57.4C32.6,57.4,32.6,57.4,32.6,57.4z"/>
		<path d="M37.4,52.3c-0.2-0.1-0.1-0.3-0.4-0.4C37.1,51.9,37.2,52.2,37.4,52.3z"/>
		<path d="M26,60.8L26,60.8z"/>
		<path d="M37,51.8"/>
		<path d="M33.7,56h-0.1H33.7z"/>
		<path d="M32.5,56.7L32.5,56.7z"/>
		<path d="M33.9,55.3C33.9,55.3,34,55.3,33.9,55.3L33.9,55.3C34,55.3,34,55.3,33.9,55.3z"/>
		<path d="M34.4,54.8L34.4,54.8L34.4,54.8z"/>
		<path d="M42.8,43.6c0.1,0,0.1,0.1,0.2,0.2C42.8,43.6,42.8,43.5,42.8,43.6z"/>
		<path d="M26.1,60.9C26.1,60.9,26,60.9,26.1,60.9L26.1,60.9L26.1,60.9z"/>
		<path d="M32.4,53.7l0.1,0C32.4,53.6,32.4,53.6,32.4,53.7z"/>
		<path d="M39.2,47.2L39.2,47.2C39.2,47.2,39.2,47.2,39.2,47.2z"/>
		<path d="M32.7,53.4c0.1,0,0.1,0.1,0.2,0.1v-0.1L32.7,53.4z"/>
		<path d="M43,43.8"/>
		<path d="M43,42.8c-0.1,0.1,0.2,0.3,0.3,0.5s-0.2-0.2-0.4-0.3c0,0.1,0.2,0.4,0.2,0.4c0,0-0.1-0.1-0.1-0.1c0.2,0.3-0.2,0.2,0,0.5
			h-0.1c0.1,0.1,0.3,0.2,0.4,0.3c0,0,0.1,0.2-0.1,0.1c0,0,0-0.1-0.1-0.2v0.1c-0.3-0.2,0-0.1-0.2-0.3c0,0.2,0.1,0.4,0,0.4
			c-0.3-0.2,0-0.2-0.2-0.3h0.2c-0.4-0.3,0.1,0-0.4-0.4c-0.2,0,0,0.2-0.2,0.3c0.1,0.2,0.2,0.2,0.3,0.3c0.1,0.4-0.7-0.5-0.5,0
			c0.1,0.2,0.4,0.5,0.2,0.4L42,44.3c-0.1,0.1,0.3,0.5,0,0.4c-0.1-0.1,0-0.2,0-0.2c-0.3-0.2,0.1,0.2,0,0.2l-0.3-0.2
			c-0.1,0.2,0,0.4-0.1,0.6c-0.1-0.1-0.1-0.2-0.2-0.2c0,0.3-0.4,0.3-0.7,0.3l0.2,0.3c0,0-0.1-0.1-0.2-0.1s0.1,0.1,0.2,0.2
			s-0.2-0.1-0.2-0.2c0.1,0.3,0.1,0.7-0.2,0.6V46c-0.2,0,0.3,0.5,0.1,0.4v0c-0.3,0.1-0.3,0.5-0.8,0.3c0.3,0.3-0.3,0,0.1,0.5
			c-0.3-0.1-0.4-0.2-0.7-0.2c0,0,0.2,0.3,0.2,0.4L39.3,47l0.2,0.3l-0.3-0.2v0.1c0.1,0,0.1,0.1,0.2,0.1c0,0.2-0.3,0-0.4-0.1v0.4
			c-0.1-0.1-0.1-0.1-0.1-0.2c0.1,0.3-0.2-0.2-0.1,0.1c0.1,0.1,0.1,0.1,0.2,0.2c-0.2-0.1-0.3,0-0.3,0.1l-0.1-0.2
			c-0.2,0.1-0.2,0.3-0.3,0.5c0.1,0,0.4,0.3,0.3,0.3l-0.2-0.2c0.1,0.2,0.1,0,0.2,0.3c-0.1,0-0.3-0.2-0.3-0.3v0.2
			c-0.1-0.1-0.1-0.1-0.2-0.2c0.1,0.2-0.3-0.1-0.1,0.2l-0.1-0.1c-0.1,0.1-0.1,0.3-0.2,0.4c0.2,0.2,0.1,0.2,0.2,0.4
			c-0.1,0-0.4,0-0.5,0.1s0.2,0.2,0.2,0.3c-0.2-0.2-0.3-0.1-0.3-0.2c-0.1,0.1-0.1,0.3-0.1,0.5c0.1,0.1,0.2,0.1,0.2,0.2
			s-0.1,0-0.2-0.1l0,0c0.1,0.4-0.9-0.1-0.7,0.4l0,0v0.3c-0.1,0-0.1-0.2-0.2-0.2c0.1,0.5-0.3,0.2-0.2,0.5c-0.6-0.4-0.3,0.4-0.8,0.2
			l0.1,0.1c0.1,0.2-0.1,0-0.2,0s0.2,0.1,0.2,0.2c-0.1,0.4-0.8,0.4-1.2,0.6c-0.1,0.1,0.6,0.7,0.2,0.6L34,52c0.1,0.5-0.5,0.5-0.5,0.9
			c0-0.1-0.1-0.1-0.1-0.2c-0.2-0.1-0.2,0.2,0,0.3c0,0-0.1-0.1-0.2-0.2s0.1,0.3-0.1,0.2c-0.1,0-0.1,0-0.1-0.1c0,0.1-0.2,0.1,0.1,0.3
			c-0.2,0-0.1,0.2-0.2,0.2c0.2,0.3-0.2,0,0,0.4c-0.3-0.3-0.4-0.1-0.3,0.1c-0.1-0.1-0.2-0.1-0.3-0.2c-0.1,0.1,0,0.2,0.1,0.3
			c-0.5-0.3,0.1,0.5-0.5,0.1c0,0.3,0,0.6-0.1,0.9c-0.3-0.3,0.1-0.2-0.2-0.5c0,0.3,0.2,0.6,0,0.7s-0.1-0.2-0.2-0.2
			c0,0.3-0.3,0.3-0.3,0.6c0,0,0-0.1,0-0.1c0,0-0.1,0,0,0.2v-0.1c0.3,0.2,0.3,0.5,0.5,0.7c-0.4-0.5-0.2,0-0.7-0.6
			c0,0.1,0.1,0.2,0.1,0.2c0,0-0.1,0-0.2-0.2c0,0.2,0.2,0.3,0.1,0.4s-0.1-0.1-0.2-0.2c0.1,0.2,0.2,0.4,0.1,0.4s-0.1-0.1-0.1-0.1
			c-0.1,0.1,0.1,0.6-0.1,0.6c-0.3-0.3-0.1-0.1-0.4-0.3v0.2l0.1,0.1c-0.1,0.1,0.1,0.3-0.1,0.3l-0.1-0.2l-0.1,0.2h0.2
			c0.1,0.2,0.3,0.3,0.2,0.3c0,0-0.1,0.1-0.2-0.1l0,0c0.1,0.1,0.1,0.2,0,0.2S30,57,30,57c0.2,0.2-0.1,0.2,0.1,0.5
			c-0.1-0.1-0.1-0.2-0.2-0.2l0.1,0.2c-0.1,0-0.2-0.1-0.2-0.2c-0.1,0.1,0.4,0.3,0.1,0.3c0,0,0,0,0-0.1c-0.2,0-0.1,0.3-0.3,0.3
			c-0.3-0.2,0-0.2-0.2-0.3c-0.1,0.2,0,0.6-0.2,0.7h0.1c0.4,0.4-0.3-0.1-0.2,0.2c0-0.1-0.1-0.1-0.1-0.2c-0.1,0-0.1,0.3-0.1,0.5
			l-0.1-0.1c-0.1,0-0.2,0.1-0.3,0.1c0.1,0.1,0,0.1,0.2,0.2c-0.7-0.4-0.1,0.6-0.7,0.3c0,0,0-0.1-0.1-0.1l0,0.2
			c0.1,0.1,0.2,0.1,0.3,0.2c0.1,0.1,0.1,0.2,0.1,0.3c0-0.2-0.3-0.3-0.4-0.3l0.1,0.2c-0.4-0.2,0.3,0.3,0,0.2L28,59.8
			c0,0.1,0.1,0.2,0,0.2c-0.2-0.2,0-0.1-0.2-0.3c0,0.1,0.2,0.5,0,0.3c0-0.1,0-0.1,0-0.2c-0.3-0.2-0.2-0.1-0.3-0.1h-0.2h0.1
			c0.4,0.6-0.1,0.2,0.2,0.6c-0.2-0.4-0.2-0.2-0.4-0.4c-0.1,0-0.2-0.1-0.2-0.1c0.1,0.2-0.2-0.1,0,0.3c-0.1-0.1-0.1,0-0.2-0.2
			c0,0.1,0.1,0.1,0.2,0.2c0.1,0.3-0.5-0.1-0.3,0.4c0,0.2,0.2,0.5,0.2,0.7c-0.1-0.1-0.2-0.2-0.2-0.3c-0.1,0-0.2,0-0.1,0.2
			c-0.1-0.1-0.1-0.1-0.2-0.1c0,0.1,0.2,0.3,0.1,0.2c-0.1-0.1-0.2-0.2-0.2-0.3c0,0.1,0.1,0.3,0.1,0.4C26,61.2,26,61.1,25.9,61
			c0,0.2,0,0.3,0.1,0.5h0.1c0,0-0.2-0.2-0.2-0.2s0.1,0,0.2,0.1v0.1c0.4,0.4,0.1-0.2,0.2-0.3l0.3,0.3l-0.2-0.3
			c0.1,0.1,0.3,0.2,0.3,0.3c0.2,0.1-0.1-0.2,0.1,0l0,0v-0.1c0,0.1,0.2,0.2,0.1,0.2c0.3,0.1-0.1-0.4,0.2-0.2l0,0
			c0-0.2-0.2-0.2-0.4-0.6l0.6,0.5L27.3,61c0,0,0.1,0,0.1,0.1c-0.1-0.2-0.1-0.1-0.2-0.3c0.3,0.1,0.1-0.3,0.5,0.1
			c-0.1-0.2-0.2-0.1-0.2-0.2c0.4,0.3,0-0.2,0.2,0s0,0.2,0.2,0.3c-0.3-0.4,0.2,0,0.2-0.2c-0.2-0.3,0-0.2,0-0.4c0.1,0.1,0.3,0,0.5,0
			l0,0c-0.2-0.3-0.1-0.3-0.1-0.4c0.1,0.1,0.2,0.2,0.2,0.3l0.1-0.1c-0.1-0.1-0.1-0.1-0.1-0.2l0.2,0.2c0.1-0.1-0.1-0.4,0.1-0.3
			c-0.2-0.2-0.6-0.4-0.6-0.7c0.1,0.1,0.3,0.3,0.3,0.3s0-0.1,0-0.1l0.1,0.2c0.1,0-0.1-0.2-0.1-0.2s0.1,0.1,0.2,0.2s-0.1,0,0,0
			c0.1,0,0.2,0,0.3,0.1c-0.1-0.1-0.2-0.2-0.2-0.2s0.2,0.1,0.3,0.2c-0.1-0.1,0.1-0.1-0.1-0.3c0,0,0.1,0.1,0.2,0.1
			c0-0.1,0.1-0.2-0.1-0.4l0,0l0,0l0,0c-0.1-0.3,0.4-0.1,0.4-0.3l0.1,0.1c0-0.2,0.1-0.2,0-0.4c0,0,0.2,0.1,0.2,0.2
			c0-0.1-0.1-0.2,0.1-0.2s0.1,0.1,0,0.1c0.1,0,0.3,0.1,0.1-0.2c0.2,0.2,0.3,0.2,0.3,0.1l-0.2-0.1c0-0.1,0.1-0.1,0.1-0.1l0.2,0.3
			c0.4,0.1-0.2-0.8,0.4-0.4c-0.1-0.2-0.2,0-0.4-0.3c0.1,0,0.5,0.2,0.5,0.2c0.2,0-0.3-0.4-0.1-0.4c-0.1-0.1-0.3-0.3-0.3-0.4
			s0.4,0.3,0.5,0.4s0,0-0.1,0s0,0.1,0.1,0.2l-0.1-0.1c0.1,0,0.2,0,0.3,0.1c0-0.1-0.1-0.2-0.2-0.2c0.2,0,0.1-0.1,0.3-0.1
			c-0.1,0-0.2-0.1-0.2-0.1c0.2,0-0.1-0.2,0-0.3c0.2,0.1,0.3,0.3,0.3,0.1c0.1,0,0.2,0.2,0.3,0.3c-0.1-0.2,0.3,0,0.3-0.1v0.1
			c0-0.1,0-0.1,0-0.1l-0.2-0.1c0.1,0,0.1,0,0.1,0c-0.1-0.1-0.3-0.3-0.4-0.5c0.1,0,0-0.2,0.2,0c-0.2,0,0.2,0.2,0.2,0.3
			c0,0,0-0.1,0.1-0.1c0,0,0,0,0,0.1c0.3,0.1-0.2-0.3-0.1-0.4c0.1,0.1,0.3,0.2,0.3,0.2s-0.2-0.2-0.3-0.3c0.2,0,0-0.1,0-0.2h0
			c-0.1-0.1-0.1-0.2-0.1-0.2c0.1,0.1,0,0.1,0.1,0.1c-0.2-0.3,0.3,0.1,0.3-0.1c0.1,0,0.2,0.2,0.3,0.3c-0.1-0.2,0.2,0.1,0.2-0.1
			c-0.2-0.1-0.2-0.1-0.3-0.3v0.3l-0.2-0.3v0.2c-0.1-0.2-0.1-0.1-0.2-0.3c0.3,0.2,0-0.3,0.2-0.2l0.4,0.4c0.3,0.1,0-0.4,0.2-0.4h-0.1
			c-0.2-0.2,0.1-0.1,0-0.2c0.1,0.1,0.2,0.2,0.3,0.2c-0.1-0.1,0.1-0.1-0.2-0.4l0.2,0.1c0.2,0-0.3-0.5-0.1-0.6
			c0.1,0.2,0.3,0.2,0.3,0.4c0,0,0.1,0,0-0.1c0.1,0.1-0.1-0.3,0.1-0.2c0-0.1-0.2-0.2-0.1-0.2c0,0,0,0,0.1,0.1c-0.1-0.1,0-0.2-0.2-0.3
			c0.5,0.3,0.3-0.3,0.7,0c0-0.1,0.1-0.2,0.1-0.3c0,0,0.1,0.1,0,0.1c0.2,0-0.3-0.5-0.1-0.4s0.1,0.2,0.2,0.2c0.5,0.4,0.1-0.2,0.4,0
			l0,0c0.2,0.1,0-0.3,0.1-0.4l0.1,0.1c-0.1-0.2-0.2-0.4-0.1-0.6c0.2,0.2,0,0.1,0.2,0.3c0-0.1-0.3-0.3-0.3-0.4
			c0.2,0.1,0.3,0.2,0.5,0.3l-0.1,0.1c0.3,0.2,0.1-0.1,0.2-0.1l0.1,0.1c0.1-0.2-0.2-0.4-0.1-0.5l-0.1-0.1c-0.2-0.3,0.2,0.1,0.1-0.2
			l0.3,0.3c-0.1-0.2-0.1-0.4-0.1-0.5c0.1,0.2,0.2,0.4,0.2,0.6c0.1-0.1,0.1-0.2,0-0.3c0,0,0,0.1,0,0.1c-0.2-0.3-0.2-0.5-0.1-0.5
			c0.5,0.6,0.4-0.1,0.8,0.3c0-0.3,0.4-0.2,0.5-0.4c-0.5-0.4,0-0.1-0.4-0.5c0-0.1,0-0.1,0.1,0l0.4,0.1c0.2,0.1,0.1,0.1,0.2,0.2
			c0.1-0.1,0.2,0.1,0.4,0.2c-0.2-0.1-0.2-0.2-0.1-0.2L37.6,52c-0.1-0.4,0.5,0.2,0.4-0.1l0.1,0.2c0-0.2,0.2-0.2,0-0.7
			c0.1,0,0.2,0.1,0.2,0.2c0.2-0.1,0-0.7,0.3-0.6l0.1,0.1c0-0.1-0.1-0.2,0-0.2s0.1,0.1,0.1,0.1s-0.1-0.3,0-0.2l0.1,0.2
			c0.3,0-0.1-0.5,0-0.7c0.1,0.2,0.4,0.3,0.6,0.3l0,0c0.2-0.1,0-0.6,0.1-0.8c0.4,0.2,0.5-0.2,0.8-0.2c-0.1-0.1-0.2-0.2-0.2-0.3
			c0.1,0-0.1-0.3,0.2,0l0,0c0.3,0.3,0.3,0.1,0.4,0L40.3,49c0.7,0.4,0.2-0.6,0.8-0.2c0-0.1,0-0.2-0.1-0.3l0.2,0.2
			c0.1,0,0.3-0.1,0.3-0.3l0.1,0.2c0.1-0.1-0.5-0.7-0.4-0.8l0.3,0.3c0.1-0.1,0.5,0,0.4-0.4c0,0,0.1,0.1,0.1,0.2s0.4,0,0-0.4
			c0.3,0.3,0.2-0.1,0.1-0.3l0.2,0.2c-0.2-0.3-0.3-0.4-0.2-0.5c0,0,0.2,0.1,0.1,0.1c0.2,0-0.1-0.2,0-0.2l0.1,0.2c0.1,0,0-0.1-0.1-0.3
			s0.2-0.1,0.4,0.1c-0.1-0.1-0.2-0.3-0.1-0.3c0.1,0,0.1,0.1,0.1,0.2c0.2,0-0.1-0.4,0.2-0.3l0.1,0.1c-0.1,0.1-0.2,0.2-0.2,0.1
			c0.2,0.2,0.3,0.1,0.5,0.5c-0.1-0.2-0.3-0.6-0.1-0.6l0.1,0.1l0,0c0,0,0,0,0-0.1s0.1,0,0.1,0c0.2,0.1,0.2,0,0.2,0
			c-0.2-0.2-0.1-0.2-0.3-0.3c0,0,0,0,0,0.1s0,0,0,0l0,0L43,46.2c0-0.2,0-0.3,0.1-0.2c-0.1-0.1-0.2-0.3-0.3-0.4
			c0.3,0.2,0.6,0.3,0.8,0.5c0-0.2,0.2-0.3-0.1-0.8c0-0.1,0.1,0.1,0.2,0.1s0,0.1,0,0.1c0-0.2,0.2-0.2-0.1-0.5c0.2,0,0.2,0.3,0.3,0.1
			l0.1,0.1c0.6,0.2-0.3-1,0.4-0.7c0,0-0.1,0-0.1-0.1c0.5,0,0.3-0.8,1-0.7c0.2,0,0-0.2-0.1-0.3l0.2,0.2l-0.2-0.3
			c-0.1-0.3,0.7,0.3,0.5-0.2l-0.2-0.1c0.1,0,0.1-0.2,0.2-0.1c0,0-0.1-0.2,0-0.1l0.1,0.1l-0.1-0.3c0.2,0,0.4,0.5,0.6,0.3
			c0-0.2-0.1-0.4-0.3-0.5c0,0-0.1,0-0.2-0.1v-0.1c-0.3-0.3-0.6-0.6-1-0.8l0.1,0.3l-0.2-0.1l0.1-0.1c-0.2-0.1-0.1,0,0,0.2
			c-0.1-0.1-0.1-0.1-0.2-0.2l0.2,0.4c-0.1-0.1-0.2-0.3-0.3-0.3c0.1,0.2,0.3,0.2,0.4,0.4c-0.2-0.1-0.3-0.2-0.2-0.1
			c-0.1-0.1-0.1-0.1-0.2-0.2c0.1,0.1-0.1,0.2,0.1,0.3c-0.2-0.2-0.1,0.2-0.4-0.1c0.1,0.1,0.1,0.2,0.2,0.4c-0.3-0.4-0.2,0.1-0.5-0.3
			c0.3,0.4,0,0.3,0.1,0.6c0,0-0.1-0.1,0-0.1s-0.2-0.1-0.3-0.1c0.2,0.2,0.3,0.4,0.4,0.6c-0.3-0.2-0.3-0.4-0.6-0.6
			c0.2,0.2,0.1,0.3,0.3,0.5c-0.1-0.1-0.3-0.1-0.4-0.2c0.3,0.3,0,0.1,0.2,0.3c-0.2-0.1-0.3-0.3-0.3-0.1C43.2,43,43,42.9,43,42.8z
			 M41.8,45.1L41.8,45.1L41.8,45.1C41.8,45.1,41.8,45.1,41.8,45.1L41.8,45.1z M41.7,45.3C41.7,45.3,41.7,45.2,41.7,45.3
			c0.2,0,0.2,0.1,0.2,0.1S41.8,45.3,41.7,45.3L41.7,45.3z M43.4,46.3C43.4,46.3,43.4,46.3,43.4,46.3C43.2,46.3,43.3,46.3,43.4,46.3
			L43.4,46.3L43.4,46.3z"/>
		<path d="M43.2,46L43.2,46L43.2,46L43.2,46L43.2,46z"/>
		<path d="M29.3,59.3L29.3,59.3L29.3,59.3z"/>
		<polygon points="39.2,47 39.3,47 39.3,47 		"/>
		<path d="M27.8,59.5L27.8,59.5C27.7,59.5,27.8,59.5,27.8,59.5z"/>
		<path d="M27.4,59.8h-0.1C27.3,59.8,27.4,59.8,27.4,59.8z"/>
		<path d="M27,60L27,60L27,60L27,60z"/>
		<path d="M31.1,55.4L31.1,55.4C31.1,55.3,31.1,55.3,31.1,55.4z"/>
		<path d="M30.3,57.1l0-0.1C30.2,57,30.2,57,30.3,57.1z"/>
		<polygon points="32.3,53.7 32.3,53.7 32.4,53.7 		"/>
		<path d="M30.3,56.9C30.2,56.9,30.2,56.9,30.3,56.9C30.3,57.1,30.3,57,30.3,56.9z"/>
		<path d="M25.7,61.1L25.7,61.1L25.7,61.1z"/>
		<path d="M25.8,61.1L25.8,61.1C25.8,61.1,25.8,61.1,25.8,61.1z"/>
		<path d="M25.8,61.2L25.8,61.2C25.8,61.1,25.7,61.1,25.8,61.2z"/>
		<path d="M26.2,60.8L26.2,60.8L26.2,60.8z"/>
		<path d="M26.3,60.7c0,0-0.2-0.1-0.2,0l0,0.1C26,60.6,26.4,60.8,26.3,60.7z"/>
		<path d="M27.6,61.1h-0.1c0.1,0.1,0.2,0.1,0.2,0.2C28,61.4,27.5,61.2,27.6,61.1z"/>
		<path d="M28,60.9c0,0.1,0.1,0.1,0.1,0.2C28.1,61,28.1,60.9,28,60.9z"/>
		<path d="M30.1,58.8l0.2,0.2C30.3,59,30.2,59,30.1,58.8z"/>
		<polygon points="29.6,57.5 29.4,57.4 29.6,57.6 		"/>
		<polygon points="31.1,58.6 31.1,58.6 31.1,58.5 		"/>
		<path d="M34.5,55l-0.2-0.2C34.3,54.9,34.5,55.1,34.5,55z"/>
		<path d="M35.8,53.3c0.1,0.1,0.2,0.1,0.2,0S35.8,53.2,35.8,53.3z"/>
		<polygon points="40.6,49.2 40.7,49.3 40.7,49.1 		"/>
		<path d="M49.9,39.5c0.1,0,0.3,0,0.2,0H49.9L49.9,39.5z"/>
		<path d="M50.5,39.3c-0.2,0-0.5,0-0.7,0c0.3,0,0.2,0,0.6,0c0,0-0.1,0-0.2,0c0.1,0-0.1,0,0.1,0s0.3-0.1,0-0.1L50.5,39.3z"/>
		<path d="M49.5,36.5L49.5,36.5C49.5,36.6,49.5,36.6,49.5,36.5z"/>
		<path d="M47.6,35.7C47.6,35.7,47.6,35.7,47.6,35.7C47.6,35.7,47.6,35.7,47.6,35.7z"/>
		<path d="M47.3,35.3L47.3,35.3C47.3,35.3,47.3,35.3,47.3,35.3z"/>
		<path d="M49.5,36.5v-0.1C49.4,36.5,49.5,36.5,49.5,36.5z"/>
		<path d="M49.7,39.1L49.7,39.1z"/>
		<path d="M50.3,37L50.3,37l0.1-0.1L50.3,37z"/>
		<path d="M50.8,37.5c-0.1,0-0.2,0.1-0.3,0.2c0.1,0,0.1-0.1,0.2-0.1L50.8,37.5z"/>
		<path d="M50.7,38.7L50.7,38.7z"/>
		<path d="M50,36.6L50,36.6L50,36.6z"/>
		<path d="M49.2,39.9L49.2,39.9z"/>
		<polygon points="50.6,39.5 50.6,39.5 50.8,39.5 		"/>
		<path d="M46.5,35.1L46.5,35.1C46.5,35.1,46.5,35.1,46.5,35.1z"/>
		<path d="M43.2,40.4c0.2-0.1,0.3,0,0.6-0.1C43.7,40.3,43.3,40.3,43.2,40.4z"/>
		<path d="M49.7,39L49.7,39C49.7,39,49.7,39,49.7,39z"/>
		<polygon points="43.8,40.3 43.8,40.3 43.8,40.3 		"/>
		<path d="M45,35.9C45,35.9,45,36,45,35.9L45,35.9z"/>
		<path d="M46.2,35.7L46.2,35.7z"/>
		<path d="M44.7,36.6L44.7,36.6L44.7,36.6C44.7,36.6,44.7,36.6,44.7,36.6z"/>
		<path d="M44.3,37.1L44.3,37.1L44.3,37.1z"/>
		<path d="M48.9,40.8l0.2,0.2C49,40.8,48.9,40.7,48.9,40.8z"/>
		<path d="M49.8,39h-0.1H49.8z"/>
		<path d="M46.2,38.2L46.2,38.2z"/>
		<path d="M46.8,41.4L46.8,41.4C46.8,41.4,46.8,41.4,46.8,41.4z"/>
		<path d="M46,38.3c-0.1,0-0.1-0.1-0.2-0.1v0L46,38.3z"/>
		<path d="M49.1,40.9L49.1,40.9z"/>
		<path d="M48.8,40.3c0,0,0.3,0.2,0.5,0.3s-0.2-0.1-0.4-0.2c0.1,0.1,0.3,0.3,0.3,0.3L49,40.6c0.2,0.2,0,0.1,0.2,0.4h-0.1l0.4,0.3
			c0,0,0.1,0.2,0,0c0,0,0-0.1-0.1-0.1l0.1,0.1c-0.3-0.2-0.1-0.1-0.3-0.3c0,0.1,0.2,0.3,0.1,0.3c-0.2-0.2,0-0.2-0.3-0.3l0.1,0
			c-0.4-0.3,0,0-0.4-0.3c-0.1,0,0.1,0.2,0,0.2c0.1,0.1,0.2,0.2,0.3,0.3c0.1,0.3-0.6-0.6-0.4-0.2c0.1,0.2,0.4,0.5,0.2,0.4L48.6,41
			c-0.1,0,0.3,0.5,0.1,0.3s0-0.1-0.1-0.2c-0.2-0.2,0.1,0.2,0.1,0.2l-0.2-0.3c0,0.1,0,0.3,0,0.4c0-0.1-0.1-0.2-0.1-0.3
			c0,0.2-0.2,0.1-0.4-0.1v0.3c0-0.1,0-0.1-0.1-0.2c-0.1-0.1,0,0.2,0.1,0.3s-0.1-0.2-0.1-0.2c0,0.2-0.1,0.6-0.2,0.3v-0.1
			c-0.1-0.1,0,0.6-0.1,0.3v0c-0.1-0.1-0.3,0.2-0.4-0.3c0,0.4-0.1-0.2-0.2,0.4c0-0.2,0-0.4-0.1-0.6c0,0-0.1,0.3-0.2,0.4l0.1-0.3
			l-0.1,0.3l0.1-0.3v0.1c0,0.1,0,0.2,0,0.2c-0.1,0.1-0.1-0.2,0-0.4l-0.2,0.2c0-0.1,0.1-0.2,0.1-0.2c-0.2,0.3,0.1-0.3,0,0
			c0,0.1-0.1,0.2-0.1,0.2c0-0.2,0-0.2-0.1-0.2l0.1-0.2c0-0.1-0.2,0-0.2,0c-0.1,0.2-0.2,0.3-0.3,0.4l0.2-0.3c-0.1,0.2,0,0.1-0.2,0.3
			c0.1-0.1,0.2-0.3,0.3-0.4l-0.1,0.1l0.2-0.2c-0.1,0.2,0.1-0.3-0.1,0l0.1-0.1c-0.1,0-0.2,0-0.2,0c-0.1,0.1-0.2,0.2-0.3,0.3
			c0-0.1,0.1-0.3,0.1-0.3s-0.2,0.1-0.3,0.2c0.2-0.2,0.1-0.2,0.3-0.3c-0.1,0-0.1,0-0.3,0c-0.1,0.1-0.1,0.1-0.2,0.1
			c0,0,0.1-0.1,0.2-0.2l0,0c-0.4,0.1,0.5-0.6,0-0.4h-0.3c0-0.1,0.2,0,0.3-0.1c-0.4,0,0-0.2-0.3-0.2c0.7-0.2-0.1-0.2,0.4-0.3h-0.2
			c-0.2,0,0.1,0,0.1,0c-0.1,0-0.2,0-0.2,0c-0.2-0.2,0.3-0.4,0.5-0.5S45,39,45.5,39.1l0.3,0.1c-0.3-0.2,0.1-0.2-0.1-0.5
			c0.1,0,0.2,0.1,0.1,0.1c0.2,0.1,0.1-0.1-0.1-0.2c0,0,0.2,0.1,0.2,0.1s-0.2-0.2,0-0.1l0.1,0.1c-0.1-0.1,0.1,0-0.2-0.2
			c0.1,0,0-0.2,0.1-0.1c-0.2-0.2,0.2,0-0.1-0.3c0.3,0.3,0.3,0.2,0.2,0c0.1,0.1,0.1,0.1,0.2,0.2c0,0,0-0.1-0.2-0.3
			c0.4,0.4-0.2-0.4,0.3,0.1c-0.1-0.2-0.1-0.4,0-0.6c0.2,0.4-0.1,0.1,0.2,0.5c0-0.2-0.1-0.6,0-0.5c0,0.1,0.1,0.2,0.1,0.2
			c0-0.2,0.2,0,0.2-0.3c0,0,0,0.1,0,0.1c0,0,0.1,0,0-0.1v0.1c-0.1-0.2-0.1-0.5-0.1-0.8c0.1,0.6,0.2,0.1,0.3,0.8c0-0.1,0-0.2,0-0.3
			c0,0,0,0.1,0.1,0.3c0-0.1,0-0.3,0-0.3c0,0.1,0,0.2,0,0.2c0-0.2,0-0.4,0.1-0.3s0,0.1,0,0.1s0.1-0.5,0.2-0.3c0,0.4,0,0.1,0,0.5v-0.1
			v-0.2c0,0,0.1-0.2,0.1-0.1v0.2l0.1-0.1l0-0.1c0.1-0.2,0-0.5,0.1-0.3s0.1,0,0.1,0.2l0,0c0-0.1,0.1-0.2,0.1-0.1s-0.1,0.4-0.1,0.5
			c0.1-0.3,0.1-0.1,0.2-0.4c0,0.1-0.1,0.2-0.1,0.3l0.1-0.2c0,0.1,0,0.2,0,0.3C48,37.3,48,36.8,48,37c0,0,0,0.1,0,0.1
			c0.1,0.1,0.2-0.1,0.2,0c-0.1,0.3-0.1,0.1-0.2,0.4c0.1,0,0.4-0.3,0.4-0.2l0,0c0.2-0.5,0,0.3,0.1,0.1c0,0.1-0.1,0.1-0.1,0.2
			c0,0.1,0.2,0,0.4-0.1l-0.1,0.1c0,0.1,0.1,0.1,0.1,0.2c0.1-0.1,0.2-0.1,0.2-0.2c-0.4,0.7,0.5-0.1,0.2,0.5c0,0-0.1,0-0.1,0.1h0.2
			c0.1-0.1,0.1-0.2,0.2-0.2c0.1-0.1,0.2-0.1,0.2-0.1c-0.2,0-0.3,0.2-0.4,0.3l0.2-0.1c-0.3,0.3,0.4-0.3,0.2,0L49.7,38
			c0.1,0,0.2-0.1,0.2,0c-0.2,0.2-0.1,0-0.3,0.2c0,0,0.5-0.2,0.3,0c-0.1,0-0.1,0-0.2,0c-0.2,0.2-0.2,0.2-0.2,0.2l0,0l-0.1,0.1
			l0.1-0.1c0.6-0.3,0.2,0,0.6-0.1c-0.4,0.1-0.2,0.1-0.5,0.2c-0.1,0.1-0.1,0.1-0.2,0.2c0.2-0.1-0.2,0.1,0.2,0c-0.1,0,0,0-0.2,0.1
			c0.1,0,0.2-0.1,0.3-0.1c0.3-0.1-0.3,0.3,0.2,0.2c0.2,0,0.5,0,0.7,0c-0.1,0-0.2,0-0.3,0c-0.1,0.1-0.1,0.1,0,0.1
			c-0.1,0-0.2,0-0.2,0.1c0,0,0.3,0,0.2,0h-0.4c0.1,0,0.3,0,0.4,0.1c-0.1,0-0.2,0-0.4,0c0.1,0.1,0.3,0.1,0.4,0.1h0.1c0,0-0.2,0-0.3,0
			c-0.2,0,0.1-0.1,0.2-0.1h0.1c0.5-0.1-0.1-0.1-0.1-0.2h0.4h-0.3c0.1-0.1,0.3-0.1,0.4-0.1c0.2-0.1-0.2,0,0-0.1c0,0,0,0,0.1,0h-0.1
			c0.1,0,0.3-0.1,0.2,0c0.2-0.2-0.3-0.1,0-0.2l0,0c-0.2-0.1-0.3,0.1-0.7,0.1l0.7-0.3l-0.3,0.1c0,0,0,0,0.1-0.1
			c-0.2,0-0.1,0.1-0.3,0.1c0.2-0.2-0.2-0.1,0.2-0.3c-0.2,0.1-0.1,0.1-0.3,0.1c0.5-0.2-0.1,0,0.1-0.2s0.1,0,0.3-0.1
			c-0.4,0.2,0-0.2-0.1-0.2c-0.3,0.2-0.2,0-0.3,0c0.1-0.1,0.1-0.2,0.1-0.4l0,0c-0.3,0.2-0.3,0.1-0.4,0.1c0.1-0.1,0.2-0.2,0.3-0.2h0
			c-0.1,0-0.1,0.1-0.2,0.1l0.2-0.2c-0.1-0.1-0.3,0.1-0.3-0.1c-0.2,0.2-0.4,0.5-0.6,0.6c0.1-0.1,0.2-0.2,0.3-0.3c0,0-0.1,0.1-0.1,0
			l0.2-0.1c0-0.1-0.2,0.1-0.2,0.1s0.1-0.1,0.2-0.2s0,0.1,0,0c0-0.1,0-0.2,0.1-0.3c-0.1,0.1-0.2,0.2-0.2,0.2s0.1-0.2,0.2-0.3
			c-0.1,0.1-0.1-0.1-0.2,0.2c0,0,0.1-0.1,0.1-0.2c-0.1,0.1-0.2-0.1-0.3,0.2l0,0l0,0c-0.3,0.2-0.2-0.3-0.3-0.3l0-0.1
			c-0.1,0-0.2,0-0.3,0.1c0-0.1,0-0.2,0.1-0.3c-0.1,0-0.1,0.1-0.2,0s0-0.1,0.1-0.1c0-0.1,0-0.3-0.2,0c0.1-0.2,0-0.3,0-0.3v0.2
			c0,0-0.1,0-0.1,0l0.1-0.3c-0.1-0.4-0.5,0.6-0.5-0.1c-0.1,0.2,0.1,0.2,0,0.4C48,36,48,35.6,48,35.6c-0.1-0.2-0.2,0.5-0.3,0.3
			c0,0.2,0,0.4-0.1,0.5c-0.1-0.2-0.1-0.4,0-0.6c0,0,0,0,0,0.1c0.1-0.1,0.1-0.1,0-0.2v0.1c0-0.1-0.2-0.1-0.1-0.3
			c-0.1,0.1-0.1,0.2,0,0.2c-0.1-0.2-0.2,0-0.3-0.1c0,0.1,0,0.2,0,0.2s-0.1,0.2-0.2,0.3c-0.1-0.2,0-0.4-0.1-0.3c0-0.1,0-0.3,0-0.4
			c-0.1,0.2-0.2-0.1-0.3-0.2l0-0.1c0,0.1-0.1,0.1-0.1,0.1l0.1,0.2c0,0-0.1,0-0.1-0.1c0,0.2,0,0.4,0,0.6c-0.1-0.1-0.1,0.2-0.2-0.2
			c0.2,0.1-0.1-0.3,0-0.4s0,0-0.1,0c0,0,0-0.1,0-0.1c-0.2-0.2,0,0.4-0.1,0.4c0-0.2-0.1-0.3-0.1-0.3s0.1,0.3,0.1,0.4
			c-0.1-0.1-0.1,0.1-0.1,0.1l0.1,0c0,0.2,0,0.2,0,0.2c0-0.1,0-0.1,0-0.2c0,0.3-0.2-0.2-0.3,0c-0.1-0.1-0.1-0.3-0.2-0.4
			c0,0.2-0.2-0.2-0.2,0c0.1,0.1,0.1,0.2,0.1,0.4l0.1-0.2v0.4c0,0,0-0.2,0.1-0.2c0,0.2,0,0.1,0.1,0.3c-0.2-0.3,0,0.2-0.2,0.1
			l-0.2-0.5c-0.2-0.2-0.1,0.4-0.3,0.3l0.1,0.1c0.1,0.2-0.1,0.1-0.1,0.2c0-0.2,0-0.3-0.1-0.5c0.1,0.1-0.1,0.1,0.1,0.4l-0.2-0.2
			c-0.2,0,0.2,0.5,0.1,0.5c-0.1-0.2-0.2-0.2-0.3-0.4c0,0-0.1,0,0,0.1c-0.1-0.1,0.1,0.3-0.1,0.2c0,0.1,0.2,0.2,0.1,0.2l-0.1-0.1
			c0.1,0.1,0,0.1,0.2,0.3c-0.5-0.3-0.2,0.2-0.7,0c0,0.1,0,0.2,0,0.3c0,0-0.1,0,0,0c-0.2,0,0.4,0.4,0.2,0.3s-0.1-0.2-0.2-0.2
			c-0.5-0.3,0,0.2-0.4,0.1l0,0c-0.2,0,0.1,0.3,0,0.3h-0.1c0.2,0.1,0.3,0.3,0.4,0.5c-0.2-0.1-0.1-0.1-0.4-0.2c0,0.1,0.4,0.1,0.4,0.2
			c-0.2,0-0.4,0-0.5-0.1v-0.1c-0.3-0.1,0,0.1-0.1,0.1h-0.2c0,0.2,0.4,0.2,0.3,0.4h0.1c0.4,0.2-0.2,0,0,0.2h-0.4
			c0.1,0.1,0.3,0.2,0.4,0.3c-0.2-0.1-0.4-0.2-0.6-0.3c0,0,0,0.2,0.2,0.2c0,0-0.1-0.1-0.1-0.1c0.3,0.1,0.4,0.2,0.4,0.3
			c-0.8,0-0.2,0.2-0.8,0.3c0.3,0.2-0.1,0.4,0,0.6c0.6-0.2,0,0.1,0.6-0.1c0,0,0,0.1,0,0.1l-0.3,0.2c-0.2,0.1-0.1,0-0.3,0
			s-0.2,0.1-0.4,0.2c0.2-0.1,0.3,0,0.2,0.1l0.2-0.2c0.3,0.1-0.4,0.3-0.1,0.4H43c0.1,0,0.1,0.3,0.6,0.2c0,0-0.2,0.1-0.2,0.1
			c0,0.2,0.7,0.2,0.5,0.5L43.7,42c0.1,0,0.3-0.1,0.2,0s-0.1,0.1-0.1,0.1s0.3-0.1,0.2,0l-0.2,0.1c0,0.3,0.5,0,0.7,0
			c-0.3,0.3-0.3,0.5-0.3,0.6h0c0.2,0.2,0.6,0,0.8,0c-0.2,0.5,0.3,0.4,0.3,0.8c0-0.1,0.1-0.2,0.2-0.3c0,0.1,0.2-0.2,0.1,0.1l0,0
			c-0.1,0.4,0,0.3,0.1,0.4l0.2-0.5c-0.1,0.8,0.6-0.1,0.5,0.6c0.1-0.1,0.1-0.1,0.2-0.2v0.3C46.7,44,46.9,44,47,44L47,44.2
			c0.1,0,0.2-0.8,0.3-0.8v0.4c0.2,0,0.4,0.4,0.5,0c0,0.1,0,0.2,0,0.2s0.4,0.2,0.2-0.3c0.1,0.4,0.2,0,0.2-0.2v0.3c0-0.4,0-0.5,0-0.6
			s0.1,0.2,0,0.1c0.1,0.1,0-0.3,0.1-0.1v0.2c0.1,0,0-0.1,0-0.3s0.2,0,0.3,0.2c0-0.2-0.1-0.3,0-0.3c0,0.1,0,0.1,0,0.2
			c0.2,0.1,0.1-0.4,0.3-0.2c0,0,0,0.1,0.1,0.1c-0.1,0-0.2,0.1-0.2,0c0.1,0.2,0.2,0.2,0.3,0.6c0-0.2-0.1-0.6,0.1-0.6l0,0.1l0,0
			c0,0,0,0,0-0.1s0.1,0,0.1,0c0.1,0.2,0.2,0,0.2,0c-0.2-0.2-0.1-0.2-0.2-0.4c0,0,0,0,0,0.1s0,0,0,0l0,0l-0.1,0.1
			c0-0.2-0.1-0.3,0-0.2c-0.1-0.2-0.2-0.3-0.2-0.4c0.2,0.3,0.5,0.4,0.6,0.6c0-0.2,0.2-0.3,0-0.7c0-0.1,0.1,0.1,0.2,0.1s0,0.1,0,0.1
			c0-0.2,0.1-0.2-0.1-0.5c0.2,0.1,0.2,0.3,0.2,0.1l0.1,0.1c0.3,0.1,0.2-0.1,0.1-0.3s-0.2-0.4,0.2-0.3c0,0-0.1,0-0.1,0
			c0.5-0.1,0.1-0.7,0.6-0.8c0.1,0-0.1-0.1-0.2-0.2l0.3,0.1l-0.3-0.2c-0.2-0.2,0.8,0,0.3-0.3h-0.2c0,0-0.1-0.2,0.1-0.2
			c0,0-0.2,0-0.1-0.1h0.2l-0.2-0.2c0.1-0.1,0.6,0.1,0.7-0.1c-0.2-0.1-0.3-0.2-0.5-0.2c0,0-0.1,0-0.3,0h-0.1c-0.4,0-0.8,0-1.2,0
			l0.3,0.1h-0.2l0,0c-0.2,0,0,0,0.1,0.1c-0.1,0-0.2,0-0.2,0l0.4,0.1c-0.2,0-0.3,0-0.5,0c0.2,0,0.4,0,0.5,0.1c-0.2,0-0.4,0-0.2,0
			c-0.1,0-0.2,0-0.2,0c0.1,0,0,0.1,0.3,0.1c-0.2,0,0,0.1-0.4,0c0.1,0,0.3,0.1,0.3,0.2c-0.5-0.2-0.1,0.1-0.6-0.1
			c0.5,0.2,0.2,0.2,0.4,0.3c0,0-0.1,0-0.1,0C49,40.3,48.9,40.3,48.8,40.3c0.3,0.1,0.5,0.2,0.7,0.3C49.1,40.5,49,40.4,48.8,40.3
			c0.2,0.1,0.2,0.2,0.5,0.3c-0.1,0-0.3-0.1-0.4-0.2c0.4,0.2,0.1,0.1,0.3,0.2c-0.2-0.1-0.4-0.2-0.3-0.1
			C48.8,40.4,48.8,40.4,48.8,40.3z M48.5,41.6L48.5,41.6L48.5,41.6z M48.4,41.6L48.4,41.6c0,0.1,0.1,0.2,0.1,0.2
			C48.4,41.8,48.4,41.7,48.4,41.6L48.4,41.6z M49.6,43.2C49.6,43.2,49.6,43.2,49.6,43.2C49.5,43.2,49.5,43.1,49.6,43.2L49.6,43.2
			L49.6,43.2z"/>
		<path d="M49.4,42.9L49.4,42.9L49.4,42.9L49.4,42.9L49.4,42.9z"/>
		<path d="M49.5,36.6L49.5,36.6L49.5,36.6z"/>
		<polygon points="47,41.3 46.9,41.4 47,41.3 		"/>
		<path d="M49.4,37.8C49.4,37.8,49.4,37.8,49.4,37.8L49.4,37.8z"/>
		<path d="M49.5,38.1L49.5,38.1C49.5,38.2,49.5,38.1,49.5,38.1z"/>
		<path d="M49.5,38.4L49.5,38.4L49.5,38.4L49.5,38.4z"/>
		<path d="M46.8,37.5L46.8,37.5z"/>
		<path d="M47.7,36.8c0,0,0,0.1,0,0.1C47.7,36.9,47.7,36.9,47.7,36.8z"/>
		<polygon points="46.2,38.2 46.2,38.2 46.2,38.2 		"/>
		<path d="M47.6,36.9C47.6,36.9,47.6,36.9,47.6,36.9S47.6,36.8,47.6,36.9z"/>
		<path d="M49.7,39.2L49.7,39.2z"/>
		<path d="M49.7,39.3L49.7,39.3z"/>
		<path d="M49.8,39.3L49.8,39.3C49.7,39.3,49.7,39.3,49.8,39.3z"/>
		<path d="M49.7,39L49.7,39L49.7,39z"/>
		<path d="M49.7,38.9c0,0-0.2,0.1-0.1,0.1L49.7,38.9C49.5,39,49.9,38.9,49.7,38.9z"/>
		<path d="M50.7,38.1v0.1c0.1-0.1,0.2-0.1,0.2-0.1C51.2,37.8,50.7,38.2,50.7,38.1z"/>
		<path d="M50.7,37.7c0.1,0,0.1-0.1,0.2-0.1C50.8,37.6,50.8,37.6,50.7,37.7z"/>
		<path d="M48.9,36l0.1-0.2C49,35.8,49,35.9,48.9,36z"/>
		<polygon points="48.1,37.1 48.1,37.3 48.2,37.1 		"/>
		<polygon points="48.3,35.3 48.3,35.3 48.2,35.4 		"/>
		<path d="M44.2,36.8l0.2,0.2C44.4,37,44.1,36.7,44.2,36.8z"/>
		<path d="M43.6,38.7c-0.2,0-0.3,0-0.1,0.1S43.6,38.7,43.6,38.7z"/>
		<polygon points="45.9,43.6 45.8,43.7 45.9,43.6 		"/>
		<path d="M7.9,52.9l2.4-0.8c0.5,1.5,1.1,3,1.9,4.5l-2.2,1.1C9.1,56.1,8.5,54.5,7.9,52.9z M12.5,62.2l2.1-1.4c0.9,1.4,1.9,2.7,3,3.9
			l-1.9,1.6C14.5,65,13.4,63.6,12.5,62.2z M19.3,70l1.7-1.9c1.2,1.1,2.5,2.1,3.8,3l-1.4,2.1C21.9,72.2,20.6,71.1,19.3,70z
			 M27.8,75.9l1.2-2.2c1.4,0.7,2.9,1.4,4.5,1.9l-0.8,2.4C31,77.3,29.4,76.7,27.8,75.9L27.8,75.9z M37.6,79.3l0.5-2.4
			c1.6,0.3,3.2,0.6,4.8,0.7l-0.2,2.5C41,80,39.3,79.7,37.6,79.3L37.6,79.3z M47.8,77.7c1.6-0.1,3.2-0.2,4.8-0.5l0.4,2.5
			c-1.7,0.3-3.4,0.5-5.2,0.6L47.8,77.7z"/>
		<rect x="-0.1" y="52.8" transform="matrix(0.5467 -0.8373 0.8373 0.5467 -44.1781 26.5916)" width="5.2" height="2.5"/>
		<polygon points="5.7,46.9 7.7,43.7 10.9,45.8 9.5,47.9 8.5,47.2 7.8,48.3 		"/>
		<rect x="15.1" y="48.4" transform="matrix(0.5467 -0.8373 0.8373 0.5467 -35.1575 36.687)" width="2.5" height="4.9"/>
		<path d="M84.8,53.7c0.1,0,0.3,0,0.2-0.1l-0.3-0.1L84.8,53.7z"/>
		<path d="M85.4,52.9c-0.2-0.2-0.5-0.2-0.8-0.1c0.3,0.1,0.2,0.1,0.6,0.2c0,0.1-0.1,0.2-0.2,0.2c0.1,0-0.1,0.2,0.2,0.2
			c0.2-0.2,0.2-0.3,0-0.5C85.2,52.9,85.3,52.9,85.4,52.9z"/>
		<path d="M79.2,43.8L79.2,43.8C79.3,43.8,79.3,43.8,79.2,43.8z"/>
		<path d="M72,43.3C72,43.3,72.1,43.2,72,43.3C72.1,43.2,72,43.3,72,43.3z"/>
		<path d="M70.7,43.4L70.7,43.4C70.7,43.4,70.7,43.4,70.7,43.4z"/>
		<path d="M79.2,43.8l-0.2-0.2C79.1,43.7,79.2,43.7,79.2,43.8z"/>
		<path d="M84.3,51.6c0,0,0.1,0.1,0.1,0.1L84.3,51.6L84.3,51.6z"/>
		<path d="M82.2,45.2L82.2,45.2l0.1-0.1L82.2,45.2z"/>
		<path d="M84,47.1c0,0-0.3,0.1-0.4,0.2c0.1,0,0.2,0,0.2,0C83.9,47.2,84,47.1,84,47.1z"/>
		<path d="M85.3,50.8L85.3,50.8L85.3,50.8z"/>
		<path d="M80.7,44.2L80.7,44.2C80.7,44.1,80.7,44.1,80.7,44.2z"/>
		<path d="M83.8,71.6L83.8,71.6C83.8,71.6,83.8,71.6,83.8,71.6z"/>
		<polygon points="85.5,69.2 85.5,69.3 85.7,69.3 		"/>
		<path d="M68.4,44.3L68.4,44.3C68.4,44.2,68.4,44.3,68.4,44.3z"/>
		<path d="M63.8,64.2c0.2-0.2,0.3,0.4,0.6,0C64.2,64.3,63.9,63.9,63.8,64.2z"/>
		<path d="M84.4,51.5C84.4,51.5,84.4,51.5,84.4,51.5C84.4,51.5,84.4,51.5,84.4,51.5z"/>
		<path d="M64.3,64.2L64.3,64.2L64.3,64.2z"/>
		<path d="M64.9,48.7H65C65,48.7,64.9,48.7,64.9,48.7z"/>
		<path d="M67.6,45.7L67.6,45.7L67.6,45.7z"/>
		<path d="M64.5,50.9c0,0-0.1,0.1-0.1,0.1l0,0C64.4,51,64.4,50.9,64.5,50.9z"/>
		<path d="M64.1,53C64.1,53,64.1,53,64.1,53L64.1,53L64.1,53z"/>
		<path d="M81,76.2c0.1,0,0.2,0.1,0.2,0.1C81.1,76.2,81.2,76,81,76.2z"/>
		<path d="M84.5,51.5c0,0-0.1,0-0.1,0l0,0C84.4,51.6,84.5,51.6,84.5,51.5z"/>
		<path d="M66.6,51.5l-0.1,0.3C66.6,51.7,66.6,51.6,66.6,51.5z"/>
		<path d="M69.1,76.1L69.1,76.1C69.2,76,69.2,76,69.1,76.1z"/>
		<path d="M66.4,52.6c-0.1,0-0.2,0.1-0.2,0.1h0.1L66.4,52.6z"/>
		<path d="M81.2,76.3L81.2,76.3z"/>
		<path d="M82,74.5c-0.2,0.2,0.2,0.3,0.3,0.5c-0.1,0.3-0.3-0.1-0.5-0.1c-0.1,0.2,0.1,0.6,0,0.7s-0.1,0-0.1-0.1
			c0.1,0.4-0.4,0.4-0.4,0.9h-0.1c0.1,0.1,0.3,0.2,0.4,0.3c-0.1,0.1,0,0.3-0.2,0.2c0.1,0,0-0.1,0-0.2c0,0.1,0,0.1,0,0.2
			c-0.3-0.2,0.1-0.2-0.1-0.4c-0.1,0.3-0.2,0.7-0.4,0.7c-0.2-0.2,0.3-0.4-0.1-0.5l0.3-0.1c-0.5-0.3,0.2-0.1-0.4-0.4
			c-0.4,0.1-0.2,0.4-0.6,0.5c0,0.2,0.2,0.2,0.2,0.4c-0.3,0.6-0.8-0.5-0.9,0.1c0,0.2,0.2,0.6-0.2,0.6l-0.1-0.4
			c-0.3,0.1,0,0.6-0.4,0.5c0-0.2,0.2-0.2,0.2-0.2c-0.4-0.2-0.1,0.3-0.3,0.3l-0.2-0.3c-0.4,0.3-0.8,0.5-1.2,0.7
			c0-0.1,0.1-0.2-0.1-0.3c-0.6,0.2-1.2,0.2-1.7,0l-0.2,0.3c0,0-0.1-0.1,0-0.2c-0.2-0.1,0,0.2-0.1,0.3s-0.2-0.2-0.1-0.3
			c-0.2,0.1-0.5,0.2-0.8,0.3c-0.3,0-0.5,0-0.7-0.2l0.1-0.1c-0.3-0.2-0.5,0.5-0.7,0.2H73c-0.3-0.1-0.7-0.2-1-0.3
			c-0.3-0.1-0.6-0.3-0.7-0.6c-0.3,0.3-0.5-0.5-0.8,0c-0.2-0.5,0-0.5-0.4-0.9c-0.1-0.1-0.4,0.2-0.6,0.1l0.2-0.2l-0.4,0.1l0.1-0.4
			l-0.2-0.1c0,0.1,0,0.2,0,0.3c-0.3-0.1-0.3-0.6-0.2-0.7c-0.2-0.1-0.4-0.2-0.6-0.3c0.1-0.1,0.2,0,0.3,0c-0.4,0,0.2-0.3-0.2-0.3
			c0,0.1-0.2,0.1-0.2,0.1c0-0.3-0.1-0.5-0.4-0.7l0.2-0.1c-0.1-0.2-0.3-0.4-0.4-0.6c-0.2-0.2-0.3-0.4-0.4-0.6c0,0.2-0.3,0.3-0.4,0.2
			l0.3-0.2c-0.2,0,0,0.2-0.3,0.1c-0.1-0.2,0.3-0.3,0.4-0.2L67,73.2c0.1-0.1,0.2,0,0.3-0.1c-0.2,0,0.1-0.5-0.2-0.5h0.1
			c-0.2-0.5-0.3-0.6-0.5-1c-0.3,0.1-0.2-0.1-0.5-0.2c0-0.3,0.2-0.7,0.1-1.1s-0.2-0.1-0.4-0.2c0.2,0,0.2-0.4,0.4-0.2
			c0-0.4-0.1-0.8-0.3-1.2c-0.1,0.1-0.2,0.1-0.2,0.1s0.1-0.3,0.2-0.2l0,0c-0.4-0.7,0.8-1.6,0.2-2.2l0,0l-0.3-0.6c0-0.3,0.2,0.2,0.4,0
			c-0.4-0.6,0.1-1-0.2-1.5c0.8-0.4,0-1.4,0.4-2h-0.2c-0.2-0.1,0.1-0.2,0.2-0.3c-0.1,0-0.2,0.2-0.3,0.1c0-1.2,0.1-2.5,0.4-3.7
			c0-0.4-0.9-0.2-0.5-0.8l0.3,0.2c-0.4-0.9,0-1.8-0.3-2.7c0.1,0,0.2,0,0.2,0.1c0.2-0.2,0-0.7-0.2-0.7c0-0.1,0.2,0,0.3-0.1
			s-0.3-0.5-0.1-0.6c0,0,0.1,0,0.1,0.1c-0.1-0.1,0-0.5-0.2-0.4c0.2-0.3-0.1-0.6,0.1-0.8c-0.3-0.2,0.2-0.5-0.2-0.6
			c0.4,0.1,0.4-0.4,0.3-0.7c0.1,0.1,0.2-0.1,0.3,0c0-0.2,0-0.4-0.2-0.4c0.6-0.2-0.1-0.9,0.6-0.8c0-0.3,0.1-0.6,0.1-0.9
			c0.1-0.3,0.2-0.6,0.3-0.9c0.3,0.3-0.3,0.6,0.1,0.8c0.1-0.5,0-1,0.4-1.4c0.1-0.1,0.1,0.2,0.1,0.3c0.2-0.5,0.7-0.8,0.9-1.2
			c0,0,0,0.1,0,0.1c0.1-0.1,0.2-0.1,0.1-0.2v0.1c-0.3-0.1-0.1-0.7-0.2-0.9c0.2,0.5,0.5-0.2,0.7,0.5c0-0.1,0-0.2-0.1-0.3
			c0.1,0,0.2,0,0.2,0.2c0.2-0.3,0-0.4,0.2-0.6C70,46,70,46,70,46.2c0-0.3,0.1-0.5,0.3-0.6c0,0.1,0.1,0.1,0,0.2
			c0.4-0.3,0.4-0.8,1-0.9c0,0.5,0.2,0,0.4,0.4L72,45l-0.2-0.1c0.2-0.1,0.3-0.4,0.6-0.4l-0.1,0.2c0.1-0.1,0.3-0.1,0.4-0.2l-0.3-0.1
			c0.2-0.2-0.2-0.4,0.2-0.4c-0.1,0.1,0.2-0.1,0.4,0.1l0,0c0.1-0.1,0.2-0.3,0.4-0.2s0,0.4,0.1,0.5c0.1-0.3,0.5-0.2,0.6-0.5
			c0,0.1,0,0.2,0,0.3l0.1-0.3c0.1,0.1,0.2,0.1,0.1,0.3c0.3,0-0.2-0.5,0.3-0.3c0,0,0,0.1-0.1,0.1c0.4,0.1,0.8-0.2,1.2-0.1
			c0.1,0.4-0.3,0.1-0.2,0.4c0.3,0,0.5-0.1,0.8-0.2c0.3-0.1,0.5-0.1,0.8,0L77,44.1c0.2-0.5,0.3,0.3,0.6,0.2c-0.1,0-0.2,0.3-0.1,0.2
			c0.3,0.2,0.7,0,1.3,0.1l-0.1,0.1c0.2,0.2,0.5,0.3,0.7,0.4c0.1-0.1,0.2,0,0.2-0.2c0.1,0.4,0.4,0.6,0.8,0.6c0.3,0,0.7,0.1,0.7,0.6
			c-0.1,0-0.2,0-0.2,0l0.5,0.2c0.1-0.2,0-0.2,0.1-0.4c0.1-0.1,0.3-0.1,0.4,0c-0.3,0-0.2,0.3-0.2,0.5c0-0.1,0.1-0.1,0.2-0.2
			c-0.1,0.5,0.3-0.3,0.4,0.2l-0.1,0.1c0.2,0,0.4,0,0.4,0.2c-0.2,0.2-0.2,0-0.4,0.1c0.2,0.1,0.7,0,0.6,0.3c-0.1,0-0.2-0.1-0.3-0.1
			c-0.1,0.4,0,0.3,0,0.5l0,0c0,0.1,0.1,0.2,0.1,0.4v-0.1c0.7-0.2,0.4,0.3,1,0.4c-0.6,0-0.2,0.1-0.5,0.2c0,0.1,0,0.3-0.1,0.3
			c0.3,0,0,0.3,0.4,0.3c-0.1,0.1,0.1,0.2-0.1,0.2c0.2,0.1,0.1-0.1,0.2-0.2c0.5,0.2,0,0.9,0.6,1.1c0.3,0.3,0.7,0.3,1,0.6
			c-0.1,0.2-0.4,0-0.4,0c-0.1,0.2,0,0.4,0.1,0.6c-0.1,0-0.2,0-0.2,0.1c0.1,0.2,0.4,0,0.3,0.3c-0.1,0-0.3,0-0.4-0.1
			c0.1,0.2,0.3,0.3,0.5,0.5c-0.2,0.1-0.3-0.1-0.4-0.1c0.1,0.2,0.2,0.5,0.5,0.6l0.1-0.2c0,0.1-0.2,0.1-0.3,0
			c-0.2-0.2,0.1-0.3,0.2-0.3l0.1,0.1c0.5-0.2-0.2-0.6-0.2-0.8h0.4l-0.4-0.2c0.1-0.1,0.3-0.2,0.4-0.1c0.1-0.3-0.2-0.2,0-0.4
			c0,0,0.1,0,0.1,0l-0.2-0.2c0.1,0,0.3-0.1,0.2,0c0.1-0.5-0.5-0.5-0.2-0.7l0,0c-0.3-0.4-0.3,0.1-0.8-0.2l0.6-0.5l-0.3,0.1
			c0-0.1,0-0.2,0.1-0.2c-0.3-0.1-0.1,0.1-0.3,0.1c0.1-0.4-0.4-0.6-0.1-0.9c-0.2,0,0,0.3-0.3,0.2c0.4-0.3-0.2-0.2-0.2-0.6
			c0.3-0.1,0.3,0.2,0.3-0.2c-0.4,0.1-0.2-0.4-0.4-0.6c-0.3,0.2-0.4-0.3-0.7-0.4c0.1-0.1-0.3-0.6-0.4-0.9l0,0c-0.3,0.2-0.5,0-0.7-0.2
			c0.2-0.2,0.2-0.2,0.4-0.2l-0.2-0.2c-0.1,0.1-0.2,0.1-0.4,0l0.2-0.2c-0.3-0.2-0.7-0.1-0.9-0.5c-0.2,0.2-0.1,0.8-0.6,0.7
			c0.1-0.1,0.2-0.3,0.3-0.3c0,0-0.2,0-0.2,0l0.3-0.1c-0.1-0.2-0.2,0.1-0.3,0c0.1-0.2,0-0.2,0.1-0.3s0.1,0.1,0.2,0.1
			c-0.1-0.1-0.2-0.3-0.2-0.5c0,0.1-0.1,0.2-0.2,0.2c-0.3-0.1,0-0.3-0.1-0.4C80.2,44,80.1,43.8,80,44c-0.1,0,0-0.2,0-0.3
			c-0.2,0-0.7-0.3-0.7,0.1l0,0l0,0c-0.6,0.1-0.9-0.5-1.5-0.5v-0.1c-0.3,0-0.7-0.1-0.9,0.1c-0.1,0-0.2-0.2-0.1-0.3
			c-0.2,0-0.3,0.1-0.6-0.1c0.2-0.2-0.1-0.2,0.2-0.1c-0.3-0.1-0.4-0.3-0.7,0c0.1-0.2-0.2-0.3-0.4-0.3l0.2,0.2c-0.2,0-0.3,0-0.5,0
			l0.1-0.3c-0.7-0.4-1.1,0.7-1.7,0.1c-0.1,0.3,0.4,0.1,0.2,0.4c-0.3,0-0.7-0.4-0.8-0.4c-0.4-0.1-0.3,0.6-0.7,0.5
			c0.2,0.1,0.2,0.4,0,0.6c0,0,0,0,0,0c-0.3,0-0.5-0.4-0.3-0.5c0,0,0.1,0,0.1,0c0,0,0,0,0,0c0.1-0.1,0.2-0.2,0-0.2V43
			c-0.2-0.1-0.6,0.1-0.5-0.2c-0.2,0.2,0,0.2,0.2,0.2c-0.4,0-0.6,0.2-1,0.2c0.1,0,0.2,0.1,0.1,0.2c-0.6,0.1-0.1,0.3-0.4,0.5
			c-0.3-0.1-0.1-0.4-0.4-0.1c-0.3,0-0.2-0.3-0.2-0.4c-0.2,0.4-0.7,0.2-0.9,0.3l0.1-0.2c-0.1,0.1-0.1,0.2-0.2,0.2l0.2,0.1
			c-0.1,0-0.2,0.1-0.3,0c0,0.2,0.3,0.3,0.2,0.6c-0.2,0-0.3,0.4-0.5,0.2c0.4-0.2-0.2-0.2,0.1-0.5c-0.1,0.1-0.1,0.1-0.2,0.2
			c0,0,0-0.1,0-0.1c-0.5,0.1,0,0.4-0.3,0.7c-0.1-0.2-0.3-0.2-0.3-0.1c0.1-0.1,0.2,0.2,0.2,0.4c-0.3,0.1-0.2,0.3-0.3,0.4l0.2-0.1
			c0.1,0.2,0,0.2-0.2,0.4c-0.1-0.1,0.1-0.2,0-0.2c0,0.4-0.6,0.1-0.7,0.5c-0.2,0-0.3-0.2-0.4-0.2c-0.1,0.4-0.4,0.2-0.5,0.6
			c0.3,0,0.2,0,0.2,0.4c0.1-0.2,0.2-0.4,0.2-0.6V47c0.1-0.1,0.1-0.4,0.2-0.5c0,0.3,0,0.2,0.2,0.3c-0.4,0-0.1,0.5-0.5,0.6L66,47.1
			c-0.5,0.2-0.2,0.8-0.6,1.2l0.2-0.1c0.2,0.2-0.2,0.3-0.2,0.5c-0.2-0.1-0.3,0-0.4,0c0.1,0-0.2,0.4,0.1,0.6l-0.3,0.1
			c-0.3,0.4,0.3,0.7,0.1,1.1c-0.2-0.2-0.4,0-0.4-0.4c0,0.1-0.1,0.3,0,0.3c-0.1,0.1,0.2,0.5-0.1,0.6c0.1,0.1,0.3,0.2,0.2,0.3
			c0,0-0.1,0-0.1,0c0.1,0,0.1,0.3,0.3,0.2c-0.7,0.3-0.2,1.2-0.7,1.5c0,0.3,0.1,0.7,0.1,1c-0.1,0-0.1,0-0.1-0.1
			c-0.2,0.4,0.6,0.2,0.4,0.7c-0.3,0.2-0.2-0.2-0.3-0.1c-0.7,0.1,0.1,0.5-0.3,0.8v-0.1c-0.2,0.2,0.2,0.5,0.2,0.9c0,0-0.1,0-0.1,0
			c0.3,0.3,0.5,0.7,0.5,1.1c-0.3-0.1-0.1-0.2-0.4-0.1c0,0.2,0.4,0,0.5,0.3c-0.1,0.1-0.3,0.3-0.5,0.3v-0.4c-0.4,0.2,0,0.4-0.1,0.5H64
			c0,0.5,0.5,0.5,0.4,0.9l0.1,0c0.4,0.3-0.2,0.2,0.1,0.5l-0.4,0.1c0.2,0.3,0.3,0.6,0.5,0.9c-0.3-0.2-0.4-0.5-0.6-0.8
			c0,0.2,0,0.6,0.2,0.7c0-0.1-0.1-0.2-0.1-0.2c0.3,0.2,0.5,0.5,0.5,0.8c-0.8-0.1-0.2,0.9-0.8,1.1c0.3,0.6-0.1,1.2-0.1,1.9
			c0.6-0.2,0,0.2,0.6,0.2c0,0.2,0,0.2,0,0.2L64,64.7c-0.2,0.1-0.1-0.2-0.3-0.1c0,0.4-0.3,0.2-0.4,0.4c0.2,0,0.3,0.1,0.2,0.3l0.3-0.3
			c0.3,0.5-0.5,0.4-0.2,0.9l-0.2-0.2c0.1,0.3,0,1,0.5,1.2c-0.1,0.1-0.2,0.1-0.3,0c-0.1,0.6,0.5,1.4,0.2,1.9h-0.2
			c0,0.1,0.3,0.2,0.1,0.3c-0.1,0-0.2,0-0.2,0s0.3,0.3,0.2,0.5l-0.2-0.1c-0.2,0.7,0.5,1,0.7,1.5c-0.4,0.1-0.5,0.6-0.5,0.9h-0.1
			c0.1,0.8,0.7,1.2,1.1,1.8c-0.1,0.3,0,0.7,0.2,1c0.2,0.4,0.4,0.7,0.5,1.1c0-0.1,0.3-0.2,0.4-0.1s0.5,0.2,0.2,0.4v-0.1
			c-0.2,0.3,0.1,0.6,0.2,0.8l0.4-0.3c-0.1,0.5,0.3,0.8,0.7,1s0.7,0.4,0.7,0.8c0.2,0,0.4,0.1,0.6,0.1l-0.2,0.2
			c0.3,0.3,0.7,0.6,1.1,0.7l-0.2,0.1c0.3,0.2,0.8-0.5,1-0.4l-0.1,0.4c0.5,0.2,1,0.8,1.6,0.6c0,0.1-0.1,0.2-0.2,0.2
			c0.3,0.1,1,0.5,1,0c-0.1,0.4,0.6,0.1,0.9,0l-0.1,0.3c0.3-0.3,0.3-0.4,0.7-0.5c0.1,0,0.1,0.2-0.1,0.2c0.3,0.2,0.2-0.2,0.6-0.1
			l-0.1,0.2c0.3,0,0.3-0.1,0.4-0.3s0.5,0,0.6,0.3c0-0.2,0.2-0.4,0.3-0.3c0,0.1,0,0.1-0.1,0.2c0.5,0.1,0.7-0.4,1-0.2
			c0,0.1,0,0.1,0.1,0.2c-0.2,0-0.4,0.1-0.7,0.1c0,0.2,0.4,0.2,0.2,0.6c0.2-0.2,0.6-0.7,0.9-0.7c0,0,0,0,0.1,0.1l0,0
			c0.1,0,0.1,0,0.2-0.1c0.1,0,0.2,0,0.3,0c0.1,0.2,0.4,0,0.5,0c-0.1-0.3,0.1-0.3-0.1-0.4c0,0,0,0-0.1,0.1s0,0-0.1,0l0,0L78,80
			c0.1-0.2,0.2-0.3,0.4-0.2c0-0.2,0.1-0.4,0.1-0.5c0.3,0.3,0.8,0.4,0.9,0.6c0.4-0.3,1-0.6,1-1.2c0.1-0.1,0.2,0,0.3,0.1
			s-0.1,0.1-0.1,0.2c0.2-0.3,0.7-0.5,0.5-0.8c0.4,0,0,0.4,0.4,0.1v0.1c0.5-0.1,0.7-0.4,0.9-0.9s0.3-0.8,0.9-0.9c-0.1,0-0.1,0-0.2,0
			c0.5-0.3,0.9-0.8,1.1-1.3c0.2-0.5,0.6-1,1-1.4c0.2-0.2,0-0.4-0.1-0.6h0.3l-0.2-0.4c-0.1-0.5,1-0.6,0.7-1.3h-0.2
			c0.1-0.2,0-0.7,0.2-0.6c0,0-0.2-0.1-0.1-0.2h0.2l-0.2-0.6c0.1-0.4,0.6,0.1,0.7-0.5c0-0.2-0.4-0.7-0.5-0.6c0,0.1-0.1,0.2-0.3,0.2
			l-0.1-0.2c-0.5,0-0.9-0.2-1.3,0.2l0.3,0.3l-0.2,0.1v-0.2c-0.2,0.1,0,0.2,0.1,0.3c-0.1,0-0.2,0-0.3,0.1c0.2,0.1,0.3,0.2,0.4,0.3
			c-0.2,0-0.3-0.2-0.5,0c0.2,0.2,0.4-0.1,0.5,0.2c-0.2,0.1-0.4,0-0.2,0.2c-0.1,0-0.2,0-0.2-0.1c0.1,0.2,0,0.4,0.2,0.5
			c-0.3,0.1-0.1,0.5-0.5,0.4c0.1,0.1,0.2,0.3,0.2,0.5c-0.4-0.4-0.2,0.5-0.7,0.2c0.4,0.3,0,0.7,0,1.1c0,0-0.1-0.1,0-0.1
			c-0.1,0.2-0.3,0.1-0.4,0.2c0.3,0.2,0.3,0.5,0.4,0.8c-0.4,0-0.3-0.3-0.7-0.5c0.3,0.2,0.1,0.5,0.3,0.6c-0.3,0-0.2,0.1-0.5,0
			c0.4,0.3,0,0.2,0.1,0.5c-0.3,0-0.4-0.2-0.4,0.1C82,74.8,82,74.5,82,74.5z M77.2,78.5L77.2,78.5l0.1-0.1L77.2,78.5z M76.6,78.6h0.2
			c0,0.1,0,0.2,0,0.2S76.7,78.7,76.6,78.6L76.6,78.6z M78.3,80.2c-0.1,0.1-0.1,0-0.2,0H78.3L78.3,80.2
			C78.3,80.2,78.3,80.2,78.3,80.2L78.3,80.2z"/>
		<path d="M78.4,79.9L78.4,79.9L78.4,79.9L78.4,79.9L78.4,79.9z"/>
		<path d="M79.3,43.9L79.3,43.9L79.3,43.9z"/>
		<polygon points="69.7,76.3 69.6,76.4 69.7,76.4 		"/>
		<path d="M81.6,46.4C81.6,46.5,81.6,46.5,81.6,46.4C81.6,46.5,81.6,46.5,81.6,46.4z"/>
		<path d="M82.5,47.4v0.2C82.5,47.6,82.5,47.5,82.5,47.4z"/>
		<path d="M83,48.3l0.1,0l0,0L83,48.3z"/>
		<path d="M69,47L69,47C69,47,68.9,47.1,69,47z"/>
		<path d="M72.9,44.1c0,0.1-0.1,0.1-0.1,0.2C72.9,44.3,72.9,44.3,72.9,44.1z"/>
		<polygon points="66.6,51.5 66.6,51.5 66.6,51.5 		"/>
		<path d="M72.6,44.4c0.1,0,0.2,0,0.2-0.1C72.7,44.3,72.6,44.3,72.6,44.4z"/>
		<path d="M84.5,52.5L84.5,52.5L84.5,52.5L84.5,52.5z"/>
		<path d="M84.5,52.5L84.5,52.5C84.5,52.5,84.6,52.5,84.5,52.5z"/>
		<path d="M84.7,52.7l-0.1-0.1C84.6,52.6,84.6,52.7,84.7,52.7z"/>
		<path d="M84.3,51.1L84.3,51.1z"/>
		<path d="M84.2,50.7c0,0.1-0.1,0.3,0,0.4h0.1C84.1,51.1,84.4,50.8,84.2,50.7z"/>
		<path d="M84.6,48.6c0,0.1,0.1,0.3,0.1,0.4c0.1-0.1,0.2-0.3,0.3-0.1C85,48.2,84.8,49,84.6,48.6z"/>
		<path d="M84.1,47.4c0.2,0.2,0.1-0.1,0.2-0.1C84.1,47.3,84.1,47.3,84.1,47.4z"/>
		<path d="M76.7,42.9l0.1-0.2C76.6,42.7,76.8,42.8,76.7,42.9z"/>
		<path d="M75.1,44.1l0.1,0.2l0.1-0.2L75.1,44.1z"/>
		<path d="M74,42.4L74,42.4l-0.2,0.1L74,42.4z"/>
		<path d="M63.9,52.6h0.3C64.2,52.5,63.8,52.4,63.9,52.6z"/>
		<path d="M64.2,58.8c-0.2,0.1-0.3,0.2-0.1,0.3C64.1,59,64.2,58.9,64.2,58.8z"/>
		<polygon points="66.8,77.1 66.6,77.1 66.9,77.2 		"/>
		<path d="M77.1,58.9c0-0.1,0-0.3,0-0.2V58.9L77.1,58.9z"/>
		<path d="M76.9,58.3c-0.1,0.2-0.1,0.5-0.1,0.7c0-0.3,0-0.2,0.1-0.6c0,0,0,0.1,0,0.2c0-0.1,0,0.1,0-0.1s-0.1-0.3-0.1,0
			C76.8,58.5,76.8,58.4,76.9,58.3z"/>
		<path d="M74.2,57.8L74.2,57.8C74.2,57.8,74.2,57.8,74.2,57.8z"/>
		<path d="M72.5,57.6C72.5,57.6,72.5,57.6,72.5,57.6C72.5,57.6,72.5,57.6,72.5,57.6z"/>
		<path d="M72.2,57.3L72.2,57.3C72.2,57.3,72.2,57.2,72.2,57.3z"/>
		<path d="M74.2,57.8L74.2,57.8C74.1,57.8,74.2,57.8,74.2,57.8z"/>
		<path d="M76.5,59.1C76.5,59.1,76.5,59.1,76.5,59.1L76.5,59.1L76.5,59.1z"/>
		<path d="M74.9,57.5L74.9,57.5c0,0,0-0.1,0-0.1V57.5z"/>
		<path d="M75.5,57.5c0,0,0,0.3,0,0.4c0-0.1,0-0.1,0-0.2C75.5,57.6,75.5,57.5,75.5,57.5z"/>
		<path d="M76.4,58L76.4,58C76.4,58,76.4,58,76.4,58z"/>
		<path d="M74.5,57.5L74.5,57.5z"/>
		<path d="M58.8,59.6L58.8,59.6z"/>
		<path d="M58.2,58.2L58.2,58.2L58.2,58.2z"/>
		<path d="M71.7,56.9L71.7,56.9C71.7,56.9,71.7,56.9,71.7,56.9z"/>
		<path d="M67,57.1c0,0.2-0.1,0.3,0,0.6C67,57.5,67,57.3,67,57.1z"/>
		<path d="M76.5,59.1L76.5,59.1C76.5,59.1,76.5,59.1,76.5,59.1z"/>
		<path d="M67,57.7L67,57.7L67,57.7z"/>
		<path d="M70.5,57.1c0,0,0,0.1,0,0.1C70.5,57.1,70.5,57.1,70.5,57.1z"/>
		<path d="M71.4,57.5L71.4,57.5C71.4,57.5,71.4,57.5,71.4,57.5z"/>
		<path d="M70.1,57.5C70.1,57.5,70.1,57.4,70.1,57.5L70.1,57.5C70.1,57.5,70.1,57.4,70.1,57.5z"/>
		<path d="M69.6,57.5C69.6,57.5,69.6,57.5,69.6,57.5L69.6,57.5L69.6,57.5z"/>
		<path d="M60.3,59.5c0-0.1,0-0.2,0-0.3C60.3,59.4,60.2,59.5,60.3,59.5z"/>
		<path d="M76.5,59c0,0,0,0.1,0,0.1l0,0V59z"/>
		<path d="M70.1,59.7L70.1,59.7C70,59.7,70,59.7,70.1,59.7z"/>
		<path d="M63.7,59.4L63.7,59.4C63.7,59.4,63.7,59.4,63.7,59.4z"/>
		<path d="M69.8,59.7c0-0.1,0-0.1,0-0.2c0,0,0,0,0,0.1V59.7z"/>
		<path d="M60.3,59.2"/>
		<path d="M59.8,59.9c0.1,0,0-0.4,0-0.6s0,0.3,0.1,0.5c0-0.1,0.1-0.4,0.1-0.4c0,0.1,0,0.1,0,0.2c0-0.3,0.2,0,0.2-0.4
			c0,0,0,0.1,0,0.1c0-0.2,0-0.4,0-0.5s0.1-0.2,0.1,0c0,0,0,0.1,0,0.2v-0.1c0,0.3,0,0.1,0,0.4c0.1-0.1,0.1-0.4,0.2-0.3
			c0,0.3-0.1,0.1-0.1,0.4l-0.1-0.1c0.1,0.5,0,0,0,0.5c0.1,0.1,0.1-0.2,0.2-0.1c0-0.2,0-0.3,0-0.5s0.1,0.8,0.2,0.4
			c0-0.2,0-0.7,0.1-0.4v0.4c0.1,0,0.1-0.6,0.2-0.3s-0.1,0.1-0.1,0.2c0.1,0.3,0-0.2,0.1-0.2v0.3c0.1-0.1,0.2-0.3,0.3-0.4
			c0,0.1,0,0.2,0,0.3c0.2-0.2,0.3,0,0.5,0.2l0.1-0.3c0,0.1,0,0.1,0,0.2c0,0.1,0-0.2,0-0.3s0,0.2,0,0.2c0.1-0.2,0.3-0.5,0.4-0.2v0.1
			c0.1,0.1,0.1-0.6,0.2-0.3v0c0.2,0.1,0.4-0.1,0.5,0.3c0-0.4,0.2,0.2,0.2-0.4c0.1,0.3,0.1,0.4,0.2,0.6c0,0,0-0.4,0.1-0.4v0.3
			l0.1-0.3v0.4v-0.1c0-0.1,0-0.2,0-0.2c0.1-0.1,0.2,0.2,0.2,0.4l0.2-0.3c0,0.1,0,0.2,0,0.2c0.1-0.3,0,0.3,0.1,0c0-0.1,0-0.2,0-0.2
			c0,0.2,0.1,0.2,0.2,0.1v0.2c0.1,0.1,0.2-0.1,0.4-0.1c0-0.2,0-0.3,0-0.5v0.3c0-0.2,0-0.1,0-0.4c0.1,0,0,0.4,0,0.5l0.1-0.1
			c0,0.1,0,0.2,0,0.3c0-0.2,0.1,0.3,0.1,0v0.1c0.1,0,0.2-0.1,0.3-0.1c0-0.3,0-0.2,0.1-0.4c0.1,0.1,0.2,0.3,0.3,0.3s0-0.2,0-0.4
			c0,0.2,0.1,0.2,0,0.4c0.1,0,0.2,0,0.3-0.2c0-0.1,0-0.2,0-0.2c0,0,0.1,0.1,0.1,0.2l0,0c0.2-0.4,0.4,0.8,0.5,0.2l0,0l0.1-0.3
			c0.1,0,0,0.2,0,0.4c0.2-0.4,0.2,0.1,0.4-0.2c0.1,0.8,0.3,0,0.5,0.4v-0.2c0-0.2,0,0.1,0.1,0.2c0-0.1,0-0.2,0-0.3
			c0.3-0.2,0.6,0.3,0.9,0.4c0.1,0,0.1-0.9,0.2-0.5v0.3c0.2-0.4,0.4,0,0.6-0.3c0,0.1,0,0.2,0,0.2c0,0.2,0.2,0,0.2-0.2
			c0,0,0,0.2,0,0.3s0.1-0.3,0.1-0.1c0,0,0,0.1,0,0.1c0-0.1,0.1,0,0.1-0.2c0.1,0.1,0.2-0.1,0.2,0c0-0.3,0.1,0.2,0.2-0.3
			c0,0.5,0.1,0.4,0.2,0.2c0,0.1,0,0.1,0,0.3c0.1,0,0.1-0.1,0.1-0.3c0.1,0.5,0.2-0.4,0.3,0.3c0.1-0.2,0.3-0.4,0.5-0.5
			c0,0.5-0.2,0-0.2,0.5c0.1-0.2,0.2-0.6,0.4-0.5s0,0.2,0,0.3c0.1-0.2,0.3,0,0.4-0.2c0,0,0,0.1,0,0.1c0,0,0,0.1,0-0.1v0.1
			c0-0.3,0-0.5,0.1-0.8c0,0.6,0.1,0.2,0.1,0.9c0-0.1,0-0.2,0-0.3c0,0.1,0,0.2,0,0.3c0.1-0.1,0.1-0.3,0.1-0.3c0,0.1,0,0.2,0,0.2
			c0-0.2,0.1-0.4,0.2-0.3s0,0.1,0,0.1c0.1,0,0.2-0.5,0.3-0.3c0,0.4,0,0.1,0,0.5l0.1-0.1v-0.2c0.1,0,0.1-0.3,0.2-0.1v0.2l0.1-0.1
			l-0.1-0.1c0.1-0.2,0-0.5,0.1-0.4s0.1,0,0.1,0.2l0,0c0-0.1,0.1-0.2,0.1-0.2s0,0.4,0,0.5c0-0.3,0.1-0.1,0.2-0.4c0,0.1,0,0.2,0,0.3
			v-0.2C73,58.7,73,58.8,73,59c0.1,0,0-0.5,0.1-0.3c0,0,0,0,0,0.1s0.2-0.2,0.3,0c0,0.4-0.1,0.1,0,0.4c0.1-0.1,0.3-0.5,0.4-0.4l0,0
			c0-0.5,0.1,0.3,0.2,0c0,0.1,0,0.2,0,0.2c0.1,0.1,0.2-0.1,0.3-0.3v0.1c0,0.1,0.1,0.1,0.2,0.1c0-0.1,0-0.2,0-0.3
			c0.2,0.8,0.3-0.4,0.5,0.2v0.1l0.1-0.1c0-0.1,0-0.2,0-0.3c0-0.1,0-0.2,0.1-0.2c0,0.2,0,0.3,0,0.5c0-0.1,0-0.1,0-0.2
			c0.1,0.4,0-0.5,0.1-0.2v0.1c0-0.1,0.1-0.2,0.1-0.2c0,0.3,0,0.1,0,0.3c0,0,0.1-0.5,0.2-0.2c0,0.1-0.1,0.1-0.1,0.2
			c0.1,0.3,0.1,0.2,0.1,0.3l0,0l0.1,0.1V59c0.1-0.7,0.1-0.1,0.2-0.6c-0.1,0.4,0,0.2,0,0.5c0,0.1,0.1,0.2,0.1,0.3
			c0-0.2,0.1,0.2,0.1-0.2c0,0.1,0,0,0,0.3c0.1-0.1,0-0.2,0-0.3c0.1-0.3,0.2,0.4,0.3,0c0.1-0.2,0.1-0.5,0.2-0.7c0,0.1,0,0.2,0,0.3
			c0.1,0.2,0.1,0.1,0.2,0c0,0.1,0,0.2,0,0.3c0,0,0-0.4,0.1-0.2s0,0.3,0,0.4c0-0.1,0.1-0.3,0.1-0.4c0,0.1,0,0.2,0,0.4
			c0.1-0.1,0.2-0.3,0.2-0.4v-0.1c0,0,0,0.2,0,0.3c0,0.2-0.1-0.1-0.1-0.2v-0.1c0-0.6-0.1,0.1-0.2,0.1v-0.4l-0.1,0.3
			c0-0.1,0-0.3,0-0.4c0-0.2,0,0.2-0.1-0.1V58l-0.1,0.1c0-0.1,0-0.3,0-0.2c-0.1-0.2-0.1,0.3-0.2,0l0,0c-0.1,0.1,0,0.3-0.1,0.7
			L76,57.8v0.3c0,0,0,0,0-0.2c0,0.2,0,0.1,0,0.3c-0.1-0.3-0.2,0.1-0.2-0.4c0,0.2,0,0.2,0,0.3c0-0.5-0.1,0.1-0.1-0.2s0.1-0.1,0-0.4
			c0,0.5-0.1-0.1-0.2,0c0,0.4-0.1,0.2-0.2,0.3c0-0.1-0.2-0.2-0.2-0.3v-0.1c0,0.4-0.1,0.3-0.2,0.4c0-0.1,0-0.3,0-0.4l0,0
			c0,0.1,0,0.2-0.1,0.2v-0.3c-0.1,0-0.1,0.3-0.2,0.1c0,0.3,0,0.6,0,0.9c0-0.1,0-0.3,0-0.4c0,0,0,0.1,0,0.1v-0.2c0-0.1,0,0.2-0.1,0.2
			c0-0.2,0-0.2,0-0.3s0,0.1,0,0c-0.1-0.1-0.1-0.2-0.1-0.3c0,0.1,0,0.3,0,0.3s0-0.2-0.1-0.3c0,0.1-0.1,0-0.1,0.3c0,0,0-0.1,0-0.2
			c0,0.1-0.2,0-0.1,0.4l0,0l0,0c-0.1,0.3-0.2-0.2-0.3,0v-0.1c-0.1,0.1-0.2,0.1-0.2,0.3c0-0.1,0-0.2,0-0.3c0,0.1,0,0.2-0.1,0
			s0-0.2,0-0.1s-0.1-0.2-0.2,0c0-0.2,0-0.3-0.1-0.2v0.2c0,0-0.1,0-0.1,0v-0.3c-0.1-0.4-0.3,0.7-0.4,0c0,0.2,0.1,0.2,0,0.4
			c-0.1-0.2-0.1-0.3-0.2-0.5c-0.1-0.2-0.1,0.5-0.2,0.4c0,0.2,0,0.4,0,0.5c-0.1,0-0.1-0.5,0-0.6s0,0,0,0.1c0-0.1,0-0.2,0-0.2v0.1
			c0-0.1-0.1-0.1-0.1-0.3c0,0.1,0,0.2,0,0.3c-0.1-0.2-0.1,0-0.2-0.1c0,0.1,0,0.1,0,0.2c-0.1-0.2-0.1,0.2-0.1,0.3
			c0-0.2,0-0.4-0.1-0.3c0-0.1,0-0.3,0-0.4c-0.1,0.2-0.1-0.2-0.2-0.2v-0.1c0,0,0,0-0.1,0V57c0,0,0-0.1,0-0.1c0,0.2,0,0.4,0,0.6
			c0-0.1-0.1,0.1-0.1-0.2c0.1,0.1,0-0.3,0.1-0.4s0,0-0.1,0s0-0.1,0-0.1c-0.1-0.3,0,0.4-0.1,0.3c0-0.2,0-0.3,0-0.3s0,0.3,0,0.4
			c-0.1-0.1-0.1,0.1-0.1,0.1v0.1c0,0.1,0,0.2-0.1,0.2c0-0.1,0-0.1,0-0.2c-0.1,0.3-0.1-0.3-0.2-0.1c0-0.1,0-0.3,0-0.4
			c-0.1,0.2-0.1-0.2-0.2,0c0,0.1,0,0.3,0,0.4l0.1-0.2l-0.1,0.3c0,0,0.1-0.2,0.1-0.1c0,0.1,0,0.2,0,0.3c0-0.4-0.1,0.2-0.2,0v-0.6
			c-0.1-0.3-0.2,0.3-0.3,0.2v0.1c0,0.2-0.1,0-0.1,0.1c0-0.1,0-0.3,0-0.4c0,0.2-0.1,0-0.1,0.4l-0.1-0.3c-0.1-0.1-0.1,0.6-0.2,0.5
			c0-0.2,0-0.3,0-0.5c0,0-0.1,0-0.1,0.1c0-0.1-0.1,0.3-0.1,0.1c0,0.1,0,0.3,0,0.3c0,0,0-0.1,0-0.1c0,0.1-0.1,0.2-0.1,0.3
			c-0.1-0.6-0.3,0-0.4-0.5c-0.1,0.1-0.1,0.1-0.2,0.1c0-0.1,0-0.1,0-0.1c-0.1-0.2-0.1,0.6-0.2,0.4s0.1-0.2,0-0.3
			c0-0.7-0.1,0.1-0.2-0.3l0,0c0-0.2-0.1,0.2-0.2,0.2c0,0,0-0.1,0-0.1c0,0.2-0.1,0.4-0.2,0.5c0-0.1,0-0.3,0-0.4c0,0,0,0.4-0.1,0.5
			c0-0.2-0.1-0.4-0.1-0.5h0.1c0-0.4-0.1,0-0.1,0v-0.2c-0.1,0.1-0.1,0.5-0.2,0.4v0.1c-0.1,0.4,0-0.2-0.1,0.1v-0.4
			c-0.1,0.2-0.1,0.3-0.2,0.5c0-0.2,0.1-0.4,0.2-0.6c0,0-0.1,0-0.2,0.2c0,0,0-0.1,0.1-0.1c0,0.3-0.1,0.5-0.2,0.5
			c0-0.8-0.2-0.2-0.3-0.8c-0.1,0.3-0.3-0.1-0.4-0.1c0.1,0.6,0,0,0,0.6H67l-0.1-0.4c0-0.2,0-0.1,0-0.3s0-0.3-0.1-0.4
			c0,0.2,0,0.3-0.1,0.2l0.1,0.3c-0.1,0.3-0.1-0.5-0.2-0.2v-0.2c-0.1,0.1-0.2,0-0.3,0.5c0-0.1,0-0.2,0-0.3c-0.2-0.1-0.3,0.5-0.4,0.2
			v-0.2c0,0,0,0.3-0.1,0.1c0-0.1,0-0.1,0-0.2c0,0-0.1,0.3-0.1,0.2v-0.2c-0.1-0.2-0.2,0.4-0.3,0.5c0-0.2,0-0.5-0.2-0.7V57
			c-0.2,0-0.3,0.4-0.4,0.5c-0.1-0.5-0.3-0.2-0.5-0.5c0,0.1,0,0.3,0,0.4c0-0.1-0.1,0.3-0.1-0.1l0,0c0-0.4-0.1-0.3-0.2-0.3v0.5
			c-0.2-0.8-0.4,0.3-0.5-0.4c0,0.1-0.1,0.1-0.1,0.3V57c-0.1-0.1-0.2-0.1-0.3,0v-0.2c-0.1,0-0.1,0.8-0.2,0.8v-0.4
			c-0.1,0-0.2-0.4-0.4,0c0-0.1,0-0.2,0-0.2s-0.2-0.3-0.2,0.3c0-0.4-0.1,0-0.2,0.1v-0.3c-0.1,0.4-0.1,0.5-0.1,0.5s0-0.2,0-0.2
			c-0.1-0.1,0,0.3-0.1,0.1v-0.2c-0.1,0,0,0.1-0.1,0.3s-0.1-0.1-0.1-0.3c0,0.2,0,0.4-0.1,0.3c0-0.1,0-0.1,0-0.2
			c-0.1-0.2-0.2,0.3-0.2,0c0-0.1,0-0.1,0-0.2c0.1,0,0.2,0,0.2,0c0-0.2,0-0.4,0-0.7c0,0.2-0.1,0.6-0.2,0.5s0,0,0-0.1l0,0l0,0
			c0,0,0-0.1-0.1-0.1c0-0.2-0.1-0.1-0.1-0.1c0,0.2,0,0.3,0,0.5l0,0l0,0l0,0h0.1c0,0.1,0,0.3-0.1,0.1c0,0.2,0,0.4,0,0.5
			c0-0.4-0.1-0.6-0.1-0.8c-0.1,0.2-0.2,0.1-0.3,0.6c0,0.1,0-0.2,0-0.2s0,0,0-0.1c-0.1,0.1-0.2,0-0.2,0.4c-0.1-0.2,0-0.3-0.1-0.3
			v-0.1c-0.2-0.6-0.3,0.9-0.5,0.2c0,0,0,0.1,0,0.1c-0.2-0.3-0.5,0.3-0.8-0.2c-0.1-0.1-0.1,0.1-0.1,0.3v-0.3l-0.1,0.3
			c-0.1,0.2-0.2-0.7-0.3-0.3v0.2c0,0-0.2,0.1-0.1-0.1c0,0,0,0.2,0,0.1v-0.2l-0.1,0.3c-0.1-0.1,0-0.6-0.1-0.7
			c-0.1,0.2-0.1,0.4-0.1,0.6c0,0,0,0.1,0,0.2l0,0.1c0,0.4,0,0.8,0.1,1.3l0.1-0.3v0.2h-0.1c0,0.2,0.1,0,0.1-0.1c0,0.1,0,0.2,0,0.2
			l0.1-0.4c0,0.2,0,0.3,0,0.5c0-0.2,0-0.4,0-0.5c0,0.2,0,0.4,0.1,0.2c0,0.1,0,0.2,0,0.2c0-0.2,0.1-0.1,0.1-0.3
			c0,0.3,0.1-0.1,0.1,0.4c0-0.1,0.1-0.2,0.1-0.4c-0.1,0.5,0.1,0,0.1,0.6c0-0.5,0.2-0.2,0.3-0.5c0,0,0,0.1,0,0.1s0.1,0.2,0.1,0.3
			c0-0.2,0.1-0.5,0.1-0.7c0,0.3,0,0.5,0,0.8c0-0.3,0.1-0.3,0.1-0.6c0,0.1,0.1,0.3,0.1,0.4c0-0.5,0-0.1,0.1-0.4
			c0.1,0.2,0,0.5,0.1,0.3C59.7,59.6,59.7,59.7,59.8,59.9z M61.5,59L61.5,59z M61.6,59L61.6,59c-0.1-0.1-0.1-0.1-0.1-0.2
			C61.6,58.9,61.6,58.9,61.6,59L61.6,59z M61.3,57.1C61.3,57.1,61.3,57.1,61.3,57.1L61.3,57.1L61.3,57.1
			C61.3,57.1,61.3,57.1,61.3,57.1z"/>
		<path d="M61.3,57.4L61.3,57.4C61.3,57.4,61.3,57.4,61.3,57.4L61.3,57.4L61.3,57.4z"/>
		<path d="M74.2,57.9L74.2,57.9L74.2,57.9z"/>
		<polygon points="63.6,59.6 63.6,59.5 63.6,59.5 		"/>
		<path d="M75,58.8C75,58.8,75,58.9,75,58.8C75,58.9,75,58.8,75,58.8z"/>
		<path d="M75.3,58.9L75.3,58.9C75.3,58.9,75.3,58.9,75.3,58.9z"/>
		<path d="M75.6,59v-0.1l0,0V59z"/>
		<path d="M71.4,59.3L71.4,59.3C71.4,59.3,71.4,59.4,71.4,59.3z"/>
		<path d="M72.7,58.7c0,0,0,0.1,0,0.1C72.7,58.8,72.7,58.9,72.7,58.7z"/>
		<polygon points="70.1,59.7 70.1,59.7 70.1,59.7 		"/>
		<path d="M72.6,58.8C72.6,58.9,72.6,58.8,72.6,58.8C72.7,58.8,72.6,58.8,72.6,58.8z"/>
		<path d="M76.7,59.1L76.7,59.1L76.7,59.1z"/>
		<path d="M76.7,59.1L76.7,59.1C76.7,59.1,76.8,59.1,76.7,59.1z"/>
		<path d="M76.8,59L76.8,59C76.8,59.1,76.8,59.1,76.8,59z"/>
		<path d="M76.4,59L76.4,59z"/>
		<path d="M76.3,59c0,0,0.1,0.2,0.1,0.2L76.3,59C76.4,59.3,76.3,58.9,76.3,59z"/>
		<path d="M75.8,57.8L75.8,57.8c0.1,0,0.1-0.2,0.1-0.2C75.8,57.3,76,57.8,75.8,57.8z"/>
		<path d="M75.6,57.6c0.1,0,0-0.2,0-0.2C75.5,57.5,75.5,57.6,75.6,57.6z"/>
		<path d="M73.6,57.6v-0.2C73.6,57.4,73.6,57.5,73.6,57.6z"/>
		<polygon points="73.2,58.9 73.2,59.1 73.3,58.9 		"/>
		<polygon points="73,57.1 73,57.1 72.9,57.2 		"/>
		<path d="M69.7,57.2v0.3C69.7,57.5,69.7,57.1,69.7,57.2z"/>
		<path d="M68.2,57.5C68.2,57.4,68.2,57.3,68.2,57.5C68.1,57.6,68.2,57.6,68.2,57.5z"/>
		<polygon points="64,57 64,56.9 63.9,57 		"/>
		<path d="M77.1,64.7c0-0.1,0-0.3,0-0.2V64.7L77.1,64.7z"/>
		<path d="M76.9,64c-0.1,0.2-0.1,0.5-0.1,0.8c0-0.3,0-0.2,0.1-0.6c0,0,0,0.1,0,0.2c0-0.1,0,0.1,0-0.1s-0.1-0.3-0.1-0.1
			C76.8,64.1,76.8,64.1,76.9,64z"/>
		<path d="M74.2,63.5L74.2,63.5C74.2,63.5,74.2,63.5,74.2,63.5z"/>
		<path d="M72.5,63.3C72.5,63.3,72.5,63.3,72.5,63.3C72.5,63.3,72.5,63.3,72.5,63.3z"/>
		<path d="M72.2,63L72.2,63L72.2,63z"/>
		<path d="M74.2,63.5v-0.1C74.1,63.5,74.2,63.5,74.2,63.5z"/>
		<path d="M76.5,64.8C76.5,64.8,76.5,64.8,76.5,64.8L76.5,64.8L76.5,64.8z"/>
		<path d="M74.9,63.3L74.9,63.3c0,0,0-0.1,0-0.1V63.3z"/>
		<path d="M75.5,63.2c0,0,0,0.3,0,0.4c0-0.1,0-0.1,0-0.2C75.5,63.3,75.5,63.3,75.5,63.2z"/>
		<path d="M76.4,63.7L76.4,63.7C76.4,63.7,76.4,63.7,76.4,63.7z"/>
		<path d="M74.5,63.2L74.5,63.2z"/>
		<path d="M58.8,65.3L58.8,65.3z"/>
		<path d="M58.2,63.9L58.2,63.9z"/>
		<path d="M71.7,62.6L71.7,62.6C71.7,62.6,71.7,62.6,71.7,62.6z"/>
		<path d="M67,62.8c0,0.2-0.1,0.3,0,0.6C67,63.2,67,63,67,62.8z"/>
		<path d="M76.5,64.8L76.5,64.8C76.5,64.8,76.5,64.8,76.5,64.8z"/>
		<path d="M67,63.4L67,63.4L67,63.4z"/>
		<path d="M70.5,62.8c0,0,0,0.1,0,0.1C70.5,62.9,70.5,62.8,70.5,62.8z"/>
		<path d="M71.4,63.2L71.4,63.2C71.4,63.2,71.4,63.2,71.4,63.2z"/>
		<path d="M70.1,63.2C70.1,63.2,70.1,63.1,70.1,63.2L70.1,63.2C70.1,63.2,70.1,63.1,70.1,63.2z"/>
		<path d="M69.6,63.2C69.6,63.2,69.6,63.2,69.6,63.2L69.6,63.2L69.6,63.2z"/>
		<path d="M60.3,65.2c0-0.1,0-0.2,0-0.2C60.3,65.1,60.2,65.2,60.3,65.2z"/>
		<path d="M76.5,64.7c0,0,0,0.1,0,0.1l0,0V64.7z"/>
		<path d="M70.1,65.4L70.1,65.4C70,65.4,70,65.4,70.1,65.4z"/>
		<path d="M63.7,65.1L63.7,65.1C63.7,65.1,63.7,65.2,63.7,65.1z"/>
		<path d="M69.8,65.4c0-0.1,0-0.1,0-0.2c0,0,0,0,0,0.1V65.4z"/>
		<path d="M60.3,64.9"/>
		<path d="M59.8,65.6c0.1,0,0-0.4,0-0.6s0,0.3,0.1,0.5c0-0.1,0.1-0.4,0.1-0.4c0,0.1,0,0.1,0,0.2c0-0.3,0.2,0,0.2-0.4
			c0,0,0,0.1,0,0.1c0-0.2,0-0.4,0-0.5s0.1-0.2,0.1,0c0,0,0,0.1,0,0.2v-0.1c0,0.3,0,0.1,0,0.4c0.1-0.1,0.1-0.4,0.2-0.3
			c0,0.3-0.1,0.1-0.1,0.4l-0.1-0.1c0.1,0.5,0,0,0,0.5c0.1,0.1,0.1-0.2,0.2-0.1c0-0.2,0-0.3,0-0.5c0.2-0.3,0.1,0.8,0.2,0.4
			c0-0.2,0-0.7,0.1-0.4v0.4c0.1,0,0.1-0.6,0.2-0.3s0,0.1,0,0.2c0.1,0.3,0-0.2,0.1-0.2v0.3c0.1,0,0.2-0.3,0.3-0.4c0,0.1,0,0.2,0,0.3
			c0.2-0.2,0.3,0,0.5,0.2l0.1-0.3c0,0.1,0,0.1,0,0.2c0,0.1,0-0.2,0-0.3s0,0.2,0,0.3c0.1-0.2,0.3-0.5,0.4-0.2v0.1
			c0.1,0.1,0.1-0.6,0.2-0.3l0,0c0.2,0.1,0.4-0.1,0.5,0.3c0-0.4,0.2,0.2,0.2-0.4c0.1,0.3,0.1,0.4,0.2,0.6c0,0,0-0.4,0.1-0.4v0.3
			l0.1-0.3v0.4v-0.1c0-0.1,0-0.2,0-0.2c0.1-0.1,0.2,0.2,0.2,0.4l0.2-0.3c0,0.1,0,0.2,0,0.2c0.1-0.3,0,0.3,0.1,0c0-0.1,0-0.2,0-0.2
			c0,0.2,0.1,0.2,0.2,0.1v0.2c0.1,0,0.2-0.1,0.4-0.1c0-0.2,0-0.3,0-0.5v0.3c0-0.2,0-0.1,0-0.4c0.1,0,0,0.4,0,0.5l0.1-0.1
			c0,0.1,0,0.2,0,0.3c0-0.2,0.1,0.3,0.1,0v0.1c0.1,0,0.2-0.1,0.3-0.1c0-0.3,0-0.2,0.1-0.4c0.1,0.1,0.2,0.3,0.3,0.3s0-0.2,0-0.4
			c0,0.3,0.1,0.2,0,0.4c0.1,0,0.2,0,0.3-0.3c0-0.1,0-0.2,0-0.2c0,0,0.1,0.1,0.1,0.2l0,0c0.2-0.4,0.4,0.8,0.5,0.2l0,0l0.1-0.3
			c0.1,0,0,0.2,0,0.3c0.2-0.4,0.2,0.1,0.4-0.2c0.1,0.8,0.3,0,0.5,0.4v-0.1c0-0.2,0,0.1,0.1,0.1c0-0.1,0-0.2,0-0.2
			c0.3-0.2,0.6,0.3,0.9,0.4c0.1,0,0.1-0.9,0.2-0.5v0.3c0.2-0.4,0.4,0,0.6-0.3c0,0.1,0,0.2,0,0.2c0,0.2,0.2,0,0.2-0.2
			c0,0,0,0.2,0,0.3s0.1-0.3,0.1-0.1c0,0,0,0.1,0,0.1c0-0.1,0.1,0,0.1-0.2c0.1,0.1,0.2-0.1,0.2,0c0-0.3,0.1,0.2,0.2-0.3
			c0,0.4,0.1,0.4,0.2,0.2c0,0.1,0,0.1,0,0.3c0.1,0,0.1-0.1,0.1-0.3c0.1,0.5,0.2-0.4,0.3,0.3c0.1-0.2,0.3-0.4,0.5-0.5
			c0,0.5-0.2,0.1-0.2,0.5c0.1-0.2,0.2-0.6,0.4-0.5s0,0.2,0,0.3c0.1-0.2,0.3,0,0.4-0.2c0,0,0,0.1,0,0.1c0,0,0,0.1,0-0.1V65
			c0-0.3,0-0.5,0.1-0.8c0,0.6,0.1,0.1,0.1,0.9c0-0.1,0-0.2,0-0.3c0,0.1,0,0.2,0,0.3c0.1-0.1,0.1-0.3,0.1-0.3s0,0.1,0,0.2
			c0-0.2,0.1-0.4,0.2-0.3s0,0.1,0,0.1c0.1,0,0.2-0.5,0.3-0.3c0,0.4,0,0.2,0,0.5l0.1-0.1v-0.2c0.1,0,0.1-0.3,0.2-0.2v0.2l0.1-0.1
			l-0.1-0.2c0.1-0.2,0-0.5,0.1-0.4s0.1,0,0.1,0.2l0,0c0-0.1,0.1-0.2,0.1-0.2s0,0.4,0,0.5c0-0.3,0.1-0.1,0.2-0.4c0,0.1,0,0.2,0,0.3
			v-0.3c0,0.1,0,0.2,0,0.3c0.1,0,0-0.5,0.1-0.3c0,0,0,0.1,0,0.1s0.2-0.2,0.3,0c0,0.4-0.1,0.1,0,0.4c0.1-0.1,0.3-0.4,0.4-0.4l0,0
			c0-0.5,0.1,0.3,0.2,0c0,0.1,0,0.2,0,0.2c0.1,0.1,0.2-0.1,0.3-0.3v0.1c0,0.1,0.1,0.1,0.2,0.1c0-0.1,0-0.2,0-0.3
			c0.2,0.8,0.3-0.4,0.5,0.2v0.1l0.1-0.1c0-0.1,0-0.2,0-0.3c0-0.1,0-0.2,0.1-0.2c0,0.2,0,0.3,0,0.5c0-0.1,0-0.1,0-0.2
			c0.1,0.4,0-0.5,0.1-0.2v0.1c0-0.1,0.1-0.2,0.1-0.2c0,0.3,0,0.1,0,0.3c0,0,0.1-0.5,0.2-0.2c0,0.1-0.1,0.1-0.1,0.2
			c0.1,0.3,0.1,0.2,0.1,0.3l0,0l0.1,0.1v-0.1c0.1-0.7,0.1-0.1,0.2-0.6c-0.1,0.4,0,0.2,0,0.6c0,0.1,0.1,0.2,0.1,0.3
			c0-0.2,0.1,0.2,0.1-0.2c0,0.1,0,0,0,0.2c0.1-0.1,0-0.2,0-0.3c0.1-0.3,0.2,0.4,0.3-0.1c0.1-0.2,0.1-0.5,0.2-0.7c0,0.1,0,0.2,0,0.3
			c0.1,0.1,0.1,0.1,0.2,0c0,0.1,0,0.2,0,0.3c0,0,0-0.3,0.1-0.2s0,0.3,0,0.4c0-0.1,0.1-0.3,0.1-0.4c0,0.1,0,0.2,0,0.4
			c0.1-0.1,0.2-0.3,0.2-0.4v-0.1c0,0.1,0,0.2,0,0.3c0,0.2-0.1-0.1-0.1-0.2v-0.1c0-0.6-0.1,0.1-0.2,0.1v-0.4l-0.1,0.3
			c0-0.1,0-0.3,0-0.4c0-0.2,0,0.1-0.1-0.1v-0.1l-0.1,0.1c0-0.1,0-0.3,0-0.2c-0.1-0.2-0.1,0.3-0.2,0l0,0c-0.1,0.1,0,0.3-0.1,0.7
			L76,63.5v0.3c0,0,0,0,0-0.2c0,0.2,0,0.1,0,0.3c-0.1-0.3-0.2,0.1-0.2-0.3c0,0.2,0,0.2,0,0.3c0-0.5-0.1,0.1-0.1-0.2s0.1-0.1,0-0.4
			c0,0.5-0.1-0.1-0.2,0c0,0.4-0.1,0.2-0.2,0.3c0-0.1-0.2-0.2-0.2-0.3v-0.1c0,0.4-0.1,0.3-0.2,0.4c0-0.1,0-0.3,0-0.4l0,0
			c0,0.1,0,0.2-0.1,0.2v-0.3c-0.1,0-0.1,0.3-0.2,0.1c0,0.3,0,0.6,0,0.9c0-0.1,0-0.3,0-0.4c0,0,0,0.1,0,0v-0.2c0-0.1,0,0.2-0.1,0.2
			c0-0.2,0-0.1,0-0.3s0,0.1,0,0c-0.1-0.1-0.1-0.2-0.1-0.3c0,0.1,0,0.2,0,0.3c-0.1,0,0-0.2-0.1-0.3c0,0.1-0.1,0-0.1,0.3
			c0,0,0-0.1,0-0.2c0,0.1-0.2,0-0.1,0.3l0,0l0,0c-0.1,0.3-0.2-0.2-0.3,0v-0.1c-0.1,0.1-0.2,0.1-0.2,0.3c0-0.1,0-0.2,0-0.3
			c0,0.1,0,0.2-0.1,0s0-0.2,0-0.1s-0.1-0.2-0.2,0c0-0.2,0-0.3-0.1-0.2v0.2c0,0-0.1,0-0.1,0v-0.3c-0.1-0.4-0.3,0.7-0.4,0
			c0,0.2,0.1,0.2,0,0.4c-0.1,0-0.1-0.5-0.2-0.5c-0.1-0.2-0.1,0.5-0.2,0.4c0,0.2,0,0.4,0,0.5c-0.1-0.2-0.1-0.4,0-0.6c0,0,0,0,0,0.1
			c0-0.1,0-0.1,0-0.2v0.1c0-0.1-0.1-0.1-0.1-0.3c0,0.1,0,0.2,0,0.2c-0.1-0.2-0.1,0-0.2-0.1c0,0.1,0,0.1,0,0.2
			c-0.1-0.2-0.1,0.2-0.1,0.3c0-0.2,0-0.4-0.1-0.3c0-0.1,0-0.3,0-0.4c-0.1,0.2-0.1-0.2-0.2-0.2v-0.1c0,0.1,0,0.1-0.1,0.1v0.2
			c0,0,0-0.1,0-0.1c0,0.2,0,0.4,0,0.6c0-0.1-0.1,0.1-0.1-0.2c0.1,0.1,0-0.3,0.1-0.4s0,0-0.1,0s0-0.1,0-0.1c-0.1-0.3,0,0.4-0.1,0.3
			c0-0.2,0-0.3,0-0.3s0,0.3,0,0.4c-0.1-0.1-0.1,0.1-0.1,0.1v0.1c0,0.2,0,0.2-0.1,0.2c0-0.1,0-0.1,0-0.2c-0.1,0.3-0.1-0.3-0.2-0.1
			c0-0.1,0-0.3,0-0.4c-0.1,0.2-0.1-0.2-0.2,0c0,0.1,0,0.3,0,0.4l0.1-0.2l-0.1,0.3c0,0,0.1-0.2,0.1-0.1c0,0.1,0,0.2,0,0.3
			c0-0.4-0.1,0.2-0.2,0v-0.6c-0.1-0.3-0.2,0.3-0.3,0.2v0.1c0,0.2-0.1,0-0.1,0.1c0-0.1,0-0.3,0-0.4c0,0.2-0.1,0-0.1,0.4L70.4,63
			c-0.1-0.1-0.1,0.6-0.2,0.5c0-0.2,0-0.3,0-0.5c0,0-0.1,0-0.1,0.1c0-0.1-0.1,0.3-0.1,0.1c0,0.1,0,0.3,0,0.3c0,0,0-0.1,0-0.1
			c0,0.1,0,0.2,0,0.3c-0.1-0.6-0.3,0-0.4-0.5c-0.1,0.1-0.1,0.1-0.2,0.2c0-0.1,0-0.1,0-0.1c-0.1-0.2-0.1,0.6-0.2,0.4s0.1-0.2,0-0.3
			c0-0.7-0.1,0.1-0.2-0.3l0,0c0-0.2-0.1,0.2-0.2,0.2c0,0,0-0.1,0-0.1c0,0.2-0.1,0.4-0.2,0.5c0-0.1,0-0.3,0-0.4c0,0,0,0.4-0.1,0.5
			c0-0.2-0.1-0.4-0.1-0.5h0.1c0-0.4-0.1,0-0.1,0V63c-0.1,0-0.1,0.4-0.2,0.4v0.1c-0.1,0.4,0-0.2-0.1,0.1v-0.4
			c-0.1,0.2-0.1,0.3-0.2,0.5c0-0.2,0.1-0.4,0.2-0.6c0,0-0.1,0-0.2,0.2c0,0,0-0.1,0.1-0.1c0,0.3-0.1,0.5-0.2,0.5
			c0-0.8-0.2-0.2-0.3-0.8c-0.1,0.3-0.3-0.1-0.4-0.1c0.1,0.6,0,0,0,0.6H67l-0.1-0.4c0-0.2,0-0.1,0-0.3s0-0.3-0.1-0.4
			c0,0.2,0,0.3-0.1,0.2l0.1,0.3c-0.1,0.3-0.1-0.5-0.2-0.2v-0.2c-0.1,0.1-0.2,0-0.3,0.5c0-0.1,0-0.2,0-0.3c-0.2-0.1-0.3,0.5-0.4,0.2
			v-0.2c0,0,0,0.3-0.1,0.1c0-0.1,0-0.1,0-0.2c0,0-0.1,0.3-0.1,0.2v-0.2c-0.1-0.2-0.2,0.4-0.3,0.5c0-0.2,0-0.5-0.2-0.7v-0.1
			c-0.2,0-0.3,0.4-0.4,0.5c-0.1-0.5-0.3-0.2-0.5-0.5c0,0.1,0,0.3,0,0.4c0-0.1-0.1,0.3-0.1-0.1l0,0c0-0.4-0.1-0.3-0.2-0.3v0.5
			c-0.2-0.8-0.4,0.3-0.5-0.4c0,0.1-0.1,0.1-0.1,0.3v-0.3c-0.1-0.1-0.2-0.1-0.3,0v-0.2c-0.1,0-0.1,0.8-0.2,0.8v-0.4
			c-0.1,0-0.2-0.4-0.4,0c0-0.1,0-0.1,0-0.2c-0.1,0-0.2-0.3-0.2,0.3c0-0.4-0.1,0-0.2,0.1v-0.3c-0.1,0.3-0.1,0.5-0.1,0.5s0-0.2,0-0.2
			c-0.1-0.2,0,0.3-0.1,0.1v-0.2c-0.1,0,0,0.1-0.1,0.3s-0.1-0.1-0.1-0.3c0,0.2,0,0.4-0.1,0.3c0-0.1,0-0.1,0-0.2
			c-0.1-0.2-0.2,0.3-0.2,0c0-0.1,0-0.1,0-0.2c0.1,0,0.2,0,0.2,0c0-0.2,0-0.4,0-0.7c0,0.2-0.1,0.6-0.2,0.5s0,0,0-0.1l0,0l0,0
			c0,0,0-0.1-0.1-0.1c0-0.2-0.1-0.1-0.1-0.1c0,0.2,0,0.3,0,0.5c0,0,0,0,0,0l0,0h0.1c0,0.1,0,0.3-0.1,0.1c0,0.2,0,0.4,0,0.5
			c0-0.4-0.1-0.6-0.1-0.8c-0.1,0.2-0.2,0.1-0.3,0.6c0,0.1,0-0.2,0-0.2s0,0,0-0.1c-0.1,0.1-0.2,0.1-0.2,0.4c-0.1-0.2,0-0.3-0.1-0.3
			v-0.1c-0.2-0.6-0.3,0.9-0.5,0.2c0,0,0,0.1,0,0.1c-0.2-0.3-0.5,0.3-0.8-0.2c-0.1-0.1-0.1,0.1-0.1,0.3v-0.3l-0.1,0.3
			c-0.1,0.2-0.2-0.8-0.3-0.3v0.2c0,0-0.2,0.1-0.1-0.1c0,0,0,0.2,0,0.1v-0.2l-0.1,0.3c-0.1-0.1,0-0.6-0.1-0.7
			c-0.1,0.2-0.1,0.4-0.1,0.6c0,0,0,0.1,0,0.3l0,0.1c0,0.4,0,0.9,0.1,1.3l0.1-0.3V65h0.1c0,0.2,0.1,0,0.1-0.1c0,0.1,0,0.2,0,0.2
			l0.1-0.4c0,0.2,0,0.3,0,0.5c0-0.2,0-0.4,0-0.6c0,0.2,0,0.4,0.1,0.2c0,0.1,0,0.2,0,0.2c0-0.1,0.1-0.1,0.1-0.3
			c0,0.3,0.1-0.1,0.1,0.4c0-0.1,0.1-0.3,0.1-0.4c-0.1,0.5,0.1,0,0.1,0.6c0-0.5,0.2-0.2,0.3-0.5c0,0,0,0.1,0,0.1s0.1,0.2,0.1,0.3
			c0-0.2,0.1-0.5,0.1-0.7c0,0.3,0,0.5,0,0.8c0-0.3,0.1-0.3,0.1-0.6c0,0.1,0.1,0.3,0.1,0.4c0-0.5,0-0.1,0.1-0.4
			c0.1,0.2,0,0.5,0.1,0.3C59.8,65.3,59.8,65.5,59.8,65.6z M61.5,64.7L61.5,64.7L61.5,64.7z M61.6,64.7L61.6,64.7
			c-0.1-0.1-0.1-0.1-0.1-0.2C61.6,64.6,61.6,64.7,61.6,64.7L61.6,64.7z M61.3,62.8C61.3,62.8,61.3,62.8,61.3,62.8L61.3,62.8
			L61.3,62.8C61.3,62.8,61.3,62.8,61.3,62.8L61.3,62.8z"/>
		<path d="M61.3,63.2L61.3,63.2C61.3,63.2,61.3,63.2,61.3,63.2L61.3,63.2L61.3,63.2z"/>
		<path d="M74.2,63.6L74.2,63.6L74.2,63.6z"/>
		<polygon points="63.6,65.3 63.6,65.2 63.6,65.3 		"/>
		<path d="M75,64.5C75,64.6,75,64.6,75,64.5C75,64.6,75,64.6,75,64.5z"/>
		<path d="M75.3,64.6L75.3,64.6L75.3,64.6z"/>
		<path d="M75.6,64.7v-0.1l0,0V64.7z"/>
		<path d="M71.4,65.1L71.4,65.1C71.4,65.1,71.4,65.1,71.4,65.1z"/>
		<path d="M72.7,64.4c0,0,0,0.1,0,0.1C72.7,64.5,72.7,64.6,72.7,64.4z"/>
		<polygon points="70.1,65.4 70.1,65.4 70.1,65.4 		"/>
		<path d="M72.6,64.5C72.6,64.6,72.6,64.5,72.6,64.5C72.7,64.5,72.6,64.5,72.6,64.5z"/>
		<path d="M76.7,64.9L76.7,64.9L76.7,64.9z"/>
		<path d="M76.7,64.8L76.7,64.8C76.7,64.8,76.8,64.8,76.7,64.8z"/>
		<path d="M76.8,64.7L76.8,64.7C76.8,64.8,76.8,64.8,76.8,64.7z"/>
		<path d="M76.4,64.7L76.4,64.7z"/>
		<path d="M76.3,64.8c0,0,0.1,0.2,0.1,0.2L76.3,64.8C76.4,65,76.3,64.6,76.3,64.8z"/>
		<path d="M75.8,63.5L75.8,63.5c0.1,0,0.1-0.2,0.1-0.2C75.8,63,76,63.6,75.8,63.5z"/>
		<path d="M75.6,63.4c0.1,0,0-0.2,0-0.2C75.5,63.2,75.5,63.3,75.6,63.4z"/>
		<path d="M73.6,63.4v-0.3C73.6,63.1,73.6,63.2,73.6,63.4z"/>
		<polygon points="73.2,64.7 73.2,64.8 73.3,64.6 		"/>
		<polygon points="73,62.9 73,62.8 72.9,62.9 		"/>
		<path d="M69.7,62.9v0.3C69.7,63.3,69.7,62.8,69.7,62.9z"/>
		<path d="M68.2,63.3c0-0.2,0-0.3-0.1-0.1S68.2,63.3,68.2,63.3z"/>
		<polygon points="64,62.8 64,62.6 63.9,62.7 		"/>
	</g>
</g>
</svg>
