<svg xmlns="http://www.w3.org/2000/svg" viewBox="0 0 78.82 85.07"><defs><style>.cls-1{}.cls-2{fill:none;stroke:none;stroke-width:2.5px;stroke-dasharray:4.7 4.7;}</style></defs><title>Element 205</title><g id="Ebene_2" data-name="Ebene 2"><g id="Ebene_2-2" data-name="Ebene 2"><path class="cls-1" d="M55.32,54.49c.07,0,.25.12.23.06l-.29-.17Z" transform="translate(-1.1)"/><path class="cls-1" d="M56,54.39a1.45,1.45,0,0,0-.66-.35c.27.17.14.13.47.33,0,.07-.13.05-.24,0,.07.05-.1,0,.09.15s.3-.05.14-.21A.44.44,0,0,1,56,54.39Z" transform="translate(-1.1)"/><path class="cls-1" d="M56,48.83v.06A.13.13,0,0,0,56,48.83Z" transform="translate(-1.1)"/><path class="cls-1" d="M53.44,46.16s.05,0,.07,0S53.44,46.14,53.44,46.16Z" transform="translate(-1.1)"/><path class="cls-1" d="M53,45.55l0,0S53,45.53,53,45.55Z" transform="translate(-1.1)"/><path class="cls-1" d="M56,48.83l0-.14C55.94,48.74,56,48.78,56,48.83Z" transform="translate(-1.1)"/><path class="cls-1" d="M55.46,53.48a.22.22,0,0,0,.07.06l0,0Z" transform="translate(-1.1)"/><path class="cls-1" d="M56.9,50.24v0H57Z" transform="translate(-1.1)"/><path class="cls-1" d="M57.2,51.51s-.27,0-.39,0a.37.37,0,0,1,.2,0Z" transform="translate(-1.1)"/><path class="cls-1" d="M56.63,53.48l0,0Z" transform="translate(-1.1)"/><path class="cls-1" d="M56.63,49.35l.08-.05Z" transform="translate(-1.1)"/><path class="cls-1" d="M54.18,55.14l0,0Z" transform="translate(-1.1)"/><polygon class="cls-1" points="54.9 54.79 54.9 54.81 55.04 54.88 54.9 54.79"/><path class="cls-1" d="M51.88,44.82h0S51.91,44.81,51.88,44.82Z" transform="translate(-1.1)"/><path class="cls-1" d="M43,50.73c.27-.08.28.26.59.13C43.49,50.86,43.2,50.6,43,50.73Z" transform="translate(-1.1)"/><path class="cls-1" d="M55.5,53.46v0A.08.08,0,0,0,55.5,53.46Z" transform="translate(-1.1)"/><path class="cls-1" d="M43.6,50.86Z" transform="translate(-1.1)"/><path class="cls-1" d="M48.92,44.93A.28.28,0,0,0,49,45,.8.8,0,0,0,48.92,44.93Z" transform="translate(-1.1)"/><path class="cls-1" d="M51.06,45.26l-.05,0Z" transform="translate(-1.1)"/><path class="cls-1" d="M48,45.6s-.06-.05-.08,0l0,0S47.9,45.57,48,45.6Z" transform="translate(-1.1)"/><path class="cls-1" d="M46.92,46.05l0,0,0,0Z" transform="translate(-1.1)"/><path class="cls-1" d="M52.43,56.77a1.1,1.1,0,0,1,.14.21C52.47,56.8,52.55,56.69,52.43,56.77Z" transform="translate(-1.1)"/><path class="cls-1" d="M55.61,53.51c-.06,0-.1,0-.11,0s0,0,0,0A.14.14,0,0,0,55.61,53.51Z" transform="translate(-1.1)"/><path class="cls-1" d="M48.64,47.7h-.13A.15.15,0,0,0,48.64,47.7Z" transform="translate(-1.1)"/><path class="cls-1" d="M47,56.12h0S47,56.1,47,56.12Z" transform="translate(-1.1)"/><path class="cls-1" d="M48.19,47.89a.51.51,0,0,0-.15-.15.64.64,0,0,1,0,.07Z" transform="translate(-1.1)"/><path class="cls-1" d="M52.58,57h0Z" transform="translate(-1.1)"/><path class="cls-1" d="M52.94,56c-.09.06.17.33.27.52-.07.17-.21-.19-.36-.32,0,.13.11.46,0,.48a.48.48,0,0,1-.09-.14c.07.3-.23.15-.17.54a.35.35,0,0,1-.05-.08l.24.45c-.06,0,0,.26-.14,0,0,0,0-.1,0-.18l0,.12c-.2-.29,0-.14-.08-.37-.06.15-.08.47-.2.42-.15-.31.15-.19-.08-.42l.18.06c-.32-.45.09,0-.23-.48-.19,0-.11.24-.3.2,0,.19.11.26.13.45-.15.41-.45-.75-.49-.26,0,.23.11.65-.09.46l0-.38c-.17,0,0,.56-.21.35,0-.16.11-.16.07-.2-.17-.27,0,.24-.13.26l-.08-.33c-.16.06-.33.35-.55.42a.47.47,0,0,0,0-.31c-.24.18-.55,0-.75-.26l-.12.29s0-.14,0-.19,0,.18-.09.29,0-.18,0-.26c-.19.22-.59.45-.68.08l0-.07c-.09-.15-.32.53-.37.23l0,0c-.25-.22-.7-.11-.7-.62-.24.35-.17-.3-.48.19,0-.35.1-.41,0-.7,0,0-.29.25-.4.25l.19-.25-.28.19.18-.33-.11,0a.36.36,0,0,1-.1.21c-.18,0-.08-.35,0-.47h-.38a.63.63,0,0,1,.24-.11c-.33.12.21-.25-.09-.13,0,.06-.14.12-.18.16a.21.21,0,0,0-.14-.32l.18-.12c-.09-.18-.33-.27-.46-.45,0,.12-.35.31-.42.27L46,55c-.2.07-.07.13-.33.18,0-.1.29-.24.4-.26l-.15,0a2,2,0,0,1,.25-.12c-.2.06.2-.31-.13-.19l.08-.05c-.11-.18-.23-.23-.33-.39-.26.11-.23,0-.46,0,0-.17.2-.39.12-.53s-.24,0-.41,0c.24-.08.19-.23.38-.19-.07-.19-.12-.23-.35-.45-.1,0-.14.08-.23.08s.09-.13.22-.14h0c-.43-.28.7-.69.17-.89h0L45,51.81c.05-.1.19.08.35,0-.42-.29.12-.37-.13-.62.77,0,.07-.57.62-.61l-.17-.05c-.14-.11.12,0,.17,0-.13,0-.17,0-.25-.07,0-.54.66-.77,1-1,.13-.09-.66-.65-.19-.55l.21.26c-.07-.53.48-.48.54-1,0,.07.09.15.06.17.2.15.22-.14.11-.3.06,0,.11.14.2.2s0-.36.14-.18a.2.2,0,0,1,0,.1c0-.12.2-.08,0-.3.17.06.15-.23.32-.13-.07-.31.27,0,.11-.36.18.42.34.24.36,0,0,.14.11.11.14.3.09,0,.14-.14.06-.36.3.46.23-.51.49.14a1.81,1.81,0,0,1,.72-.62c0,.44-.28.07-.22.54.2-.22.34-.59.59-.5.06.06,0,.2-.06.28.25-.19.46.06.7-.16a.24.24,0,0,1-.06.11s.09.08.11-.12l0,.05c0-.31.27-.59.31-.74-.18.57.21.18-.05.89A.49.49,0,0,0,51.3,47s0,.13,0,.28c.18-.09.17-.3.31-.26a2,2,0,0,1-.1.23c.11-.17.24-.33.33-.22s0,.13-.06.12c.2,0,.51-.37.67-.11-.23.38,0,.16-.11.51l.15,0,0-.19c.1.05.31-.14.34,0l-.14.1.21,0,0-.18c.2-.12.21-.42.31-.26s.11.06,0,.29h0c.11-.08.23-.15.25,0s-.23.34-.26.41c.21-.23.27.07.52-.16a1.26,1.26,0,0,0-.2.24l.18-.17c0,.1,0,.13-.12.25.09.14.25-.41.27-.12,0,0,0,0-.09,0,.08.2.4.1.44.33-.22.3-.17,0-.34.23.21.11.68,0,.77.29v-.06c.43-.31-.08.3.19.24a.75.75,0,0,0-.21.12c0,.18.3.19.58.32l-.13,0c-.06.15.07.26.06.38s.15,0,.3-.09c-.25.32-.12.41.06.5s.35.19.09.43c0,0-.14,0-.13,0l.2.19c.21-.08.12-.07.28-.17s.26,0,.28.09c-.18-.07-.35.11-.47.19.07,0,.15,0,.22-.06-.37.24.45-.09.23.16l-.12,0c.07.05.24.08.23.17-.26.08-.14,0-.36,0,0,.09.55.11.3.25-.08,0-.09-.1-.18-.13-.28.16-.21.15-.25.23h0l-.12.18.08-.05c.7,0,.17.23.62.38-.43-.15-.25,0-.55,0a.47.47,0,0,1-.26.1c.24.07-.19.13.17.23-.1,0,0,.08-.25.06.08.1.17,0,.29,0,.34.17-.43.34,0,.59.16.22.47.31.6.54a.5.5,0,0,1-.34-.12c-.16.08-.14.15,0,.27a.74.74,0,0,0-.27,0c0,.08.33.14.16.2a2.92,2.92,0,0,1-.36-.17c.07.1.22.24.28.35-.17,0-.23-.12-.33-.18a.64.64,0,0,0,.32.41l.11,0s-.22-.06-.26-.1.12-.1.22-.07l0,.08c.57.1,0-.3.05-.41l.39.15-.3-.22c.11,0,.35,0,.39.11.23-.06-.13-.13.12-.17l.07,0-.11-.13c.08,0,.29,0,.22.09.27-.16-.25-.35.07-.38l0,0c-.11-.28-.29-.07-.64-.29l.76-.07-.3,0s0-.08.16-.06c-.2-.11-.13,0-.32-.06.29-.12-.12-.35.36-.38-.23,0-.18.13-.34,0,.52,0-.1-.15.14-.28s.13.15.37,0c-.46,0,.09-.25,0-.35-.37,0-.18-.21-.33-.36.14,0,.14-.35.23-.55H57c-.37.06-.33-.12-.44-.21a.62.62,0,0,1,.42,0l0-.12a.31.31,0,0,1-.26-.07l.27-.05c-.07-.15-.4-.2-.3-.45-.24.09-.61.4-.84.29.13-.06.34-.16.41-.13s-.13,0-.08-.07h.24c.06-.12-.2,0-.2,0,.18-.08.11-.1.25-.16s0,.09,0,.09a.43.43,0,0,1,.19-.32c-.1,0-.25.11-.29.07s.19-.15.24-.28c-.13,0-.06-.13-.32,0,0,0,.1-.11.16-.16-.16,0-.22-.32-.45-.08v0h0c-.37-.07-.15-.53-.4-.68l.08-.06c-.18-.06-.27-.22-.5-.17,0,0,.07-.2.17-.26-.14,0-.22,0-.22-.21.21,0,.08-.14.18,0,0-.17,0-.31-.28-.23.22-.14.13-.32,0-.32l0,.21A.31.31,0,0,1,54.8,47l.25-.22c0-.54-.89.16-.69-.53-.21.15.06.23-.17.41-.09-.11,0-.59,0-.62-.09-.28-.42.3-.54.09,0,.11-.17.4-.36.43s.08-.52.2-.56,0,.05,0,.08.14,0,.15-.17l-.07.09c0-.14-.21-.22-.08-.37-.15,0-.13.15-.08.24-.1-.24-.26-.15-.41-.32,0,.07,0,.21-.05.2-.22-.25-.21.16-.4.14,0-.21.19-.39,0-.32-.08-.16.07-.31.16-.38-.25.14-.3-.25-.4-.32l.13-.07a.23.23,0,0,1-.18,0v.24c0-.05-.1-.07-.07-.16-.1.13-.06.39-.22.57,0-.14-.25.06-.21-.25.21.17,0-.31.26-.31-.05,0-.1,0-.15,0a.09.09,0,0,1,0-.08c-.18-.32-.18.33-.41.28.06-.17,0-.34,0-.31s0,.3-.11.42c-.13-.16-.18.07-.25,0l.08.08c0,.17-.12.13-.23.18,0-.14.1-.09.07-.15-.14.3-.23-.34-.41-.14-.07-.13,0-.33,0-.42-.2.21-.21-.25-.41-.06.06.24.06.18-.07.42l.32-.18-.2.36c.09,0,.2-.16.25-.12-.1.19-.08.14,0,.33-.13-.35-.25.22-.39,0L50,45c-.25-.26-.39.32-.69.22l.11.09c0,.23-.18.05-.26.16A.84.84,0,0,0,49,45c0,.15-.22,0-.17.43l-.18-.22c-.27,0-.13.6-.34.6,0-.23-.14-.33,0-.52-.07,0-.15,0-.11.14-.08-.11-.12.32-.24.16,0,.09.06.29,0,.3a.2.2,0,0,1,0-.09c0,.09-.07.17.07.35-.43-.48-.54.26-.94-.1a2.12,2.12,0,0,1-.36.37c0-.05-.05-.08,0-.08-.27,0,.21.55-.09.5-.27-.2,0-.21-.12-.27-.4-.51-.18.23-.53,0v-.05c-.23-.09-.07.38-.25.47a.27.27,0,0,0-.06-.07,1.14,1.14,0,0,1,0,.77c-.15-.21,0-.15-.25-.3,0,.08.31.27.26.43a1.75,1.75,0,0,1-.53-.22,1.47,1.47,0,0,1,.1-.13c-.33-.18-.13.16-.23.19l-.11-.11c-.12.23.19.47,0,.66l.11,0c.24.34-.24,0-.08.25l-.35-.18a3.12,3.12,0,0,1,.13.65,1.6,1.6,0,0,1-.31-.67.34.34,0,0,0,0,.43s-.07-.14,0-.14c.2.25.28.45.19.61-.67-.38-.39.32-1,.23.13.42-.35.6-.41,1,.61,0,0,.12.59.23,0,.09,0,.12,0,.12l-.4.2c-.19,0-.12-.1-.26-.12-.08.2-.27,0-.45.16.22,0,.3.12.19.23L43,51.2c.27.32-.54.19-.24.52l-.19-.11c.1.16,0,.59.46.73-.07,0-.23.06-.28,0-.07.38.57.75.31,1H42.9c.05.06.29.07.16.18s-.15,0-.15,0,.29.12.23.22l-.18,0c-.12.39.52.42.7.64a.65.65,0,0,0-.48.61l-.06,0c.12.41.62.5,1,.73-.31.44.24.76.27,1.22,0-.09.27-.21.35-.19s.38,0,.07.24v0c-.26.31-.06.39,0,.5l.39-.36c-.14.4.09.53.31.61s.42.12.3.46c.15-.05.24,0,.39-.05l-.17.23a1.06,1.06,0,0,0,.57.4l-.16.15c.16.1.59-.62.73-.57l-.15.4c.26.14.42.58.83.33,0,.06-.07.17-.12.17.12.07.45.44.56-.13-.1.36.29.12.48,0l-.09.27c.21-.33.23-.42.42-.49,0,0,0,.23,0,.15.12.17.15-.24.3-.07l-.09.17c.14,0,.14,0,.25-.25s.26.09.27.34c0-.15.12-.35.2-.28a.33.33,0,0,1,0,.19c.25.21.37-.33.54,0a.4.4,0,0,0,0,.16c-.2,0-.36,0-.34,0,0,.26.16.3,0,.65.14-.19.35-.62.51-.5a.34.34,0,0,1,0,.08v0s.07,0,.1,0a.28.28,0,0,0,.14.06c0,.21.2.09.29.09,0-.28.06-.25-.07-.47,0,0,0,0-.06.06l0,0v0l-.19,0c.05-.15.1-.28.2-.13l0-.47c.15.38.4.56.47.78.22-.21.57-.22.56-.78,0-.09.11.12.16.19s-.06.07-.06.15c.09-.18.37-.18.27-.54.22.1,0,.35.23.21v.12c.33.18.43-.12.51-.39s.13-.54.55-.34a.2.2,0,0,1-.12-.08c.69,0,.76-.9,1.51-.93.19,0,0-.22,0-.41l.25.17-.16-.35c-.07-.34.86.13.63-.42L55.74,56c.09-.07.08-.34.27-.21,0,0-.16-.14,0-.12l.14.08c0-.12-.07-.24-.11-.36.19-.13.54.33.71.06,0-.14-.27-.49-.39-.49s-.14.06-.28,0l0-.12a2.57,2.57,0,0,0-1.21-.41l.19.24-.22-.06,0-.11c-.22,0-.07.08,0,.18a.93.93,0,0,0-.24-.07l.33.34c-.17-.08-.28-.23-.42-.21.15.16.39.16.45.31-.22-.05-.35-.16-.24,0a.35.35,0,0,1-.19-.16c.08.13,0,.18.14.35-.25-.09-.07.23-.43,0,.08.08.21.3.18.36-.34-.42-.16.16-.58-.23.32.38,0,.34.06.64,0,0-.07-.1,0-.1s-.2-.05-.3-.08a1.48,1.48,0,0,1,.33.67c-.33-.22-.25-.39-.52-.64.21.24.08.35.27.53a1,1,0,0,1-.35-.27c.29.39,0,.11.13.39-.24-.13-.3-.36-.31-.17A.45.45,0,0,1,52.94,56Zm-2.38,1.71h0l.06,0Zm-.26,0h.11c0,.1,0,.2,0,.19S50.34,57.79,50.3,57.7Zm.77,1.91s-.08,0-.09-.07l.09,0v.11Z" transform="translate(-1.1)"/><path class="cls-1" d="M51.12,59.23l0,0,0-.05v.09Z" transform="translate(-1.1)"/><path class="cls-1" d="M56,48.9h0l0,0Z" transform="translate(-1.1)"/><polygon class="cls-1" points="46.17 56.17 46.13 56.23 46.19 56.19 46.17 56.17"/><path class="cls-1" d="M55.71,50.75l-.06,0S55.69,50.76,55.71,50.75Z" transform="translate(-1.1)"/><path class="cls-1" d="M55.78,51.38l-.09.11A.25.25,0,0,0,55.78,51.38Z" transform="translate(-1.1)"/><path class="cls-1" d="M55.7,51.88h0Z" transform="translate(-1.1)"/><path class="cls-1" d="M50.87,47.13h0C50.8,47.19,50.83,47.17,50.87,47.13Z" transform="translate(-1.1)"/><path class="cls-1" d="M53.19,47.25a.56.56,0,0,1-.13.07S53.11,47.38,53.19,47.25Z" transform="translate(-1.1)"/><polygon class="cls-1" points="47.56 47.7 47.56 47.7 47.55 47.7 47.56 47.7"/><path class="cls-1" d="M53,47.27c0,.06,0,.07.09,0S53,47.24,53,47.27Z" transform="translate(-1.1)"/><path class="cls-1" d="M55.33,53.87l0,0,0,0Z" transform="translate(-1.1)"/><path class="cls-1" d="M55.35,53.91l0,0S55.38,53.92,55.35,53.91Z" transform="translate(-1.1)"/><path class="cls-1" d="M55.42,54l-.05-.07S55.35,54,55.42,54Z" transform="translate(-1.1)"/><path class="cls-1" d="M55.61,53.3l-.1,0Z" transform="translate(-1.1)"/><path class="cls-1" d="M55.61,53.11s-.23.07-.18.14l.08,0C55.36,53.22,55.77,53.18,55.61,53.11Z" transform="translate(-1.1)"/><path class="cls-1" d="M56.94,52.34l-.09.19c.11,0,.26-.07.28,0C57.47,52.31,56.89,52.6,56.94,52.34Z" transform="translate(-1.1)"/><path class="cls-1" d="M57.08,51.72c.06.1.16,0,.22,0C57.2,51.64,57.17,51.63,57.08,51.72Z" transform="translate(-1.1)"/><path class="cls-1" d="M55.34,47.65l.2-.17C55.46,47.44,55.47,47.55,55.34,47.65Z" transform="translate(-1.1)"/><path class="cls-1" d="M53.86,48l0,.16.18-.15Z" transform="translate(-1.1)"/><polygon class="cls-1" points="53.53 46.32 53.59 46.32 53.41 46.3 53.53 46.32"/><path class="cls-1" d="M47,45.73l.17.27C47.17,45.93,47,45.6,47,45.73Z" transform="translate(-1.1)"/><path class="cls-1" d="M44.62,48.14c-.15-.07-.28,0-.19.09C44.49,48.18,44.63,48.19,44.62,48.14Z" transform="translate(-1.1)"/><polygon class="cls-1" points="43.94 57.58 43.82 57.6 43.98 57.63 43.94 57.58"/><path class="cls-1" d="M34.57,54.49c.07,0,.25.12.23.06l-.29-.17Z" transform="translate(-1.1)"/><path class="cls-1" d="M35.26,54.39A1.45,1.45,0,0,0,34.6,54c.27.17.14.13.47.33,0,.07-.13.05-.24,0,.07.05-.1,0,.09.15s.3-.05.14-.21A.44.44,0,0,1,35.26,54.39Z" transform="translate(-1.1)"/><path class="cls-1" d="M35.24,48.83v.06A.13.13,0,0,0,35.24,48.83Z" transform="translate(-1.1)"/><path class="cls-1" d="M32.69,46.16s.05,0,.07,0S32.69,46.14,32.69,46.16Z" transform="translate(-1.1)"/><path class="cls-1" d="M32.24,45.55l0,0S32.26,45.53,32.24,45.55Z" transform="translate(-1.1)"/><path class="cls-1" d="M35.24,48.83l0-.14C35.19,48.74,35.24,48.78,35.24,48.83Z" transform="translate(-1.1)"/><path class="cls-1" d="M34.71,53.48a.22.22,0,0,0,.07.06l0,0Z" transform="translate(-1.1)"/><path class="cls-1" d="M36.15,50.24v0h.13Z" transform="translate(-1.1)"/><path class="cls-1" d="M36.45,51.51s-.27,0-.39,0a.37.37,0,0,1,.2,0Z" transform="translate(-1.1)"/><path class="cls-1" d="M35.88,53.48l0,0Z" transform="translate(-1.1)"/><path class="cls-1" d="M35.88,49.35,36,49.3Z" transform="translate(-1.1)"/><path class="cls-1" d="M33.43,55.14l0,0Z" transform="translate(-1.1)"/><polygon class="cls-1" points="34.15 54.79 34.15 54.81 34.29 54.88 34.15 54.79"/><path class="cls-1" d="M31.13,44.82h0S31.16,44.81,31.13,44.82Z" transform="translate(-1.1)"/><path class="cls-1" d="M22.26,50.73c.27-.08.28.26.59.13C22.74,50.86,22.45,50.6,22.26,50.73Z" transform="translate(-1.1)"/><path class="cls-1" d="M34.75,53.46v0A.08.08,0,0,0,34.75,53.46Z" transform="translate(-1.1)"/><path class="cls-1" d="M22.85,50.86Z" transform="translate(-1.1)"/><path class="cls-1" d="M28.17,44.93a.28.28,0,0,0,0,.11A.8.8,0,0,0,28.17,44.93Z" transform="translate(-1.1)"/><path class="cls-1" d="M30.31,45.26l0,0Z" transform="translate(-1.1)"/><path class="cls-1" d="M27.2,45.6s-.06-.05-.08,0l0,0S27.15,45.57,27.2,45.6Z" transform="translate(-1.1)"/><path class="cls-1" d="M26.17,46.05l0,0,0,0Z" transform="translate(-1.1)"/><path class="cls-1" d="M31.68,56.77a1.1,1.1,0,0,1,.14.21C31.72,56.8,31.8,56.69,31.68,56.77Z" transform="translate(-1.1)"/><path class="cls-1" d="M34.86,53.51c-.06,0-.1,0-.11,0s0,0,0,0A.14.14,0,0,0,34.86,53.51Z" transform="translate(-1.1)"/><path class="cls-1" d="M27.89,47.7h-.13A.15.15,0,0,0,27.89,47.7Z" transform="translate(-1.1)"/><path class="cls-1" d="M26.23,56.12h0S26.25,56.1,26.23,56.12Z" transform="translate(-1.1)"/><path class="cls-1" d="M27.44,47.89a.51.51,0,0,0-.15-.15.64.64,0,0,1,0,.07Z" transform="translate(-1.1)"/><path class="cls-1" d="M31.83,57h0Z" transform="translate(-1.1)"/><path class="cls-1" d="M32.19,56c-.09.06.17.33.27.52-.07.17-.21-.19-.36-.32,0,.13.11.46,0,.48a.48.48,0,0,1-.09-.14c.07.3-.23.15-.17.54a.35.35,0,0,1-.05-.08l.24.45c-.06,0,0,.26-.14,0,0,0,0-.1,0-.18l0,.12c-.2-.29,0-.14-.08-.37-.06.15-.08.47-.2.42-.15-.31.15-.19-.08-.42l.18.06c-.32-.45.09,0-.23-.48-.19,0-.11.24-.3.2,0,.19.11.26.13.45-.15.41-.45-.75-.49-.26,0,.23.11.65-.09.46l0-.38c-.17,0,0,.56-.21.35,0-.16.11-.16.07-.2-.17-.27,0,.24-.13.26l-.08-.33c-.16.06-.33.35-.55.42a.47.47,0,0,0,0-.31c-.24.18-.55,0-.75-.26l-.12.29s0-.14,0-.19,0,.18-.09.29,0-.18,0-.26c-.19.22-.59.45-.68.08l.05-.07c-.09-.15-.32.53-.37.23l0,0c-.25-.22-.7-.11-.7-.62-.24.35-.17-.3-.48.19,0-.35.1-.41,0-.7,0,0-.29.25-.4.25l.19-.25-.28.19.18-.33-.11,0a.36.36,0,0,1-.1.21c-.18,0-.08-.35,0-.47h-.38a.63.63,0,0,1,.24-.11c-.33.12.21-.25-.09-.13,0,.06-.14.12-.18.16a.21.21,0,0,0-.14-.32l.18-.12c-.09-.18-.33-.27-.46-.45,0,.12-.35.31-.42.27l.26-.2c-.2.07-.07.13-.33.18,0-.1.29-.24.4-.26l-.15,0a2,2,0,0,1,.25-.12c-.2.06.2-.31-.13-.19l.08-.05c-.11-.18-.23-.23-.33-.39-.26.11-.23,0-.46,0,0-.17.2-.39.12-.53s-.24,0-.41,0c.24-.08.19-.23.38-.19-.07-.19-.12-.23-.35-.45-.1,0-.14.08-.23.08s.09-.13.22-.14h0c-.43-.28.7-.69.17-.89h0l-.26-.25c.05-.1.19.08.35,0-.42-.29.12-.37-.13-.62.77,0,.07-.57.62-.61l-.17-.05c-.14-.11.12,0,.17,0-.13,0-.17,0-.25-.07,0-.54.66-.77,1-1,.13-.09-.66-.65-.19-.55l.21.26c-.07-.53.48-.48.54-1,0,.07.09.15.06.17.2.15.22-.14.11-.3.06,0,.11.14.2.2s0-.36.14-.18a.2.2,0,0,1,0,.1c0-.12.2-.08,0-.3.17.06.15-.23.32-.13-.07-.31.27,0,.11-.36.18.42.34.24.36,0,0,.14.11.11.14.3.09,0,.14-.14.06-.36.3.46.23-.51.49.14a1.81,1.81,0,0,1,.72-.62c0,.44-.28.07-.22.54.2-.22.34-.59.59-.5.06.06,0,.2-.06.28.25-.19.46.06.7-.16a.24.24,0,0,1-.06.11s.09.08.11-.12l-.05.05c0-.31.27-.59.31-.74-.18.57.21.18,0,.89a.49.49,0,0,0,.11-.26s0,.13-.05.28c.18-.09.17-.3.31-.26a2,2,0,0,1-.1.23c.11-.17.24-.33.33-.22s0,.13-.06.12c.2,0,.51-.37.67-.11-.23.38,0,.16-.11.51l.15,0,0-.19c.1.05.31-.14.34,0l-.14.1.21,0,0-.18c.2-.12.21-.42.31-.26s.11.06,0,.29h0c.11-.08.23-.15.25,0s-.23.34-.26.41c.21-.23.27.07.52-.16a1.26,1.26,0,0,0-.2.24l.18-.17c0,.1,0,.13-.12.25.09.14.25-.41.27-.12,0,0,0,0-.09,0,.08.2.4.1.44.33-.22.3-.17,0-.34.23.21.11.68,0,.77.29v-.06c.43-.31-.08.3.19.24a.75.75,0,0,0-.21.12c0,.18.3.19.58.32l-.13,0c-.06.15.07.26.06.38s.15,0,.3-.09c-.25.32-.12.41.06.5s.35.19.09.43c0,0-.14,0-.13,0l.2.19c.21-.08.12-.07.28-.17s.26,0,.28.09c-.18-.07-.35.11-.47.19.07,0,.15,0,.22-.06-.37.24.45-.09.23.16l-.12,0c.07.05.24.08.23.17-.26.08-.14,0-.36,0,0,.09.55.11.3.25-.08,0-.09-.1-.18-.13-.28.16-.21.15-.25.23h0l-.12.18.08-.05c.7,0,.17.23.62.38-.43-.15-.25,0-.55,0a.47.47,0,0,1-.26.1c.24.07-.19.13.17.23-.1,0,0,.08-.25.06.08.1.17,0,.29,0,.34.17-.43.34,0,.59.16.22.47.31.6.54a.5.5,0,0,1-.34-.12c-.16.08-.14.15,0,.27a.74.74,0,0,0-.27,0c0,.08.33.14.16.2a2.92,2.92,0,0,1-.36-.17c.07.1.22.24.28.35-.17,0-.23-.12-.33-.18a.64.64,0,0,0,.32.41l.11,0s-.22-.06-.26-.1.12-.1.22-.07l0,.08c.57.1,0-.3.05-.41l.39.15-.3-.22c.11,0,.35,0,.39.11.23-.06-.13-.13.12-.17l.07,0-.11-.13c.08,0,.29,0,.22.09.27-.16-.25-.35.07-.38l0,0c-.11-.28-.29-.07-.64-.29l.76-.07-.3,0s0-.08.16-.06c-.2-.11-.13,0-.32-.06.29-.12-.12-.35.36-.38-.23,0-.18.13-.34,0,.52,0-.1-.15.14-.28s.13.15.37,0c-.46,0,.09-.25,0-.35-.37,0-.18-.21-.33-.36.14,0,.14-.35.23-.55h.06c-.37.06-.33-.12-.44-.21a.62.62,0,0,1,.42,0l0-.12a.31.31,0,0,1-.26-.07l.27-.05c-.07-.15-.4-.2-.3-.45-.24.09-.61.4-.84.29.13-.06.34-.16.41-.13s-.13,0-.08-.07h.24c.06-.12-.2,0-.2,0,.18-.08.11-.1.25-.16s0,.09,0,.09a.43.43,0,0,1,.19-.32c-.1,0-.25.11-.29.07s.19-.15.24-.28c-.13,0-.06-.13-.32,0,0,0,.1-.11.16-.16-.16,0-.22-.32-.45-.08v0h0c-.37-.07-.15-.53-.4-.68l.08-.06c-.18-.06-.27-.22-.5-.17,0,0,.07-.2.17-.26-.14,0-.22,0-.22-.21.21,0,.08-.14.18,0,0-.17,0-.31-.28-.23.22-.14.13-.32,0-.32l0,.21a.31.31,0,0,1-.16-.16l.25-.22c0-.54-.89.16-.69-.53-.21.15.06.23-.17.41-.09-.11,0-.59,0-.62-.09-.28-.42.3-.54.09,0,.11-.17.4-.36.43s.08-.52.2-.56,0,.05,0,.08.14,0,.15-.17l-.07.09c0-.14-.21-.22-.08-.37-.15,0-.13.15-.08.24-.1-.24-.26-.15-.41-.32,0,.07,0,.21-.05.2-.22-.25-.21.16-.4.14,0-.21.19-.39-.05-.32-.08-.16.07-.31.16-.38-.25.14-.3-.25-.4-.32l.13-.07a.23.23,0,0,1-.18,0v.24c-.05-.05-.1-.07-.07-.16-.1.13-.06.39-.22.57-.05-.14-.25.06-.21-.25.21.17,0-.31.26-.31,0,0-.1,0-.15,0a.09.09,0,0,1,0-.08c-.18-.32-.18.33-.41.28.06-.17,0-.34,0-.31s0,.3-.11.42c-.13-.16-.18.07-.25,0l.08.08c-.05.17-.12.13-.23.18,0-.14.1-.09.07-.15-.14.3-.23-.34-.41-.14-.07-.13,0-.33-.05-.42-.2.21-.21-.25-.41-.06.06.24.06.18-.07.42l.32-.18-.2.36c.09,0,.2-.16.25-.12-.1.19-.08.14,0,.33-.13-.35-.25.22-.39,0l0-.59c-.25-.26-.39.32-.69.22l.11.09c0,.23-.18.05-.26.16a.84.84,0,0,0-.15-.38c0,.15-.22,0-.17.43l-.18-.22c-.27,0-.13.6-.34.6,0-.23-.14-.33,0-.52-.07,0-.15,0-.11.14-.08-.11-.12.32-.24.16,0,.09.06.29,0,.3a.2.2,0,0,1,0-.09c0,.09-.07.17.07.35-.43-.48-.54.26-.94-.1a2.12,2.12,0,0,1-.36.37c0-.05-.05-.08,0-.08-.27,0,.21.55-.09.5-.27-.2,0-.21-.12-.27-.4-.51-.18.23-.53,0v-.05c-.23-.09-.07.38-.25.47a.27.27,0,0,0-.06-.07,1.14,1.14,0,0,1,0,.77c-.15-.21,0-.15-.25-.3,0,.08.31.27.26.43a1.75,1.75,0,0,1-.53-.22,1.47,1.47,0,0,1,.1-.13c-.33-.18-.13.16-.23.19L24,47.61c-.12.23.19.47,0,.66l.11,0c.24.34-.24,0-.08.25l-.35-.18a3.12,3.12,0,0,1,.13.65,1.6,1.6,0,0,1-.31-.67.34.34,0,0,0,0,.43s-.07-.14,0-.14c.2.25.28.45.19.61-.67-.38-.39.32-1,.23.13.42-.35.6-.41,1,.61,0,0,.12.59.23,0,.09,0,.12,0,.12l-.4.2c-.19,0-.12-.1-.26-.12-.08.2-.27,0-.45.16.22,0,.3.12.19.23l.31-.13c.27.32-.54.19-.24.52l-.19-.11c.1.16,0,.59.46.73-.07,0-.23.06-.28,0-.07.38.57.75.31,1h-.15c.05.06.29.07.16.18s-.15,0-.15,0,.29.12.23.22l-.18,0c-.12.39.52.42.7.64a.65.65,0,0,0-.48.61l-.06,0c.12.41.62.5,1,.73-.31.44.24.76.27,1.22,0-.09.27-.21.35-.19s.38,0,.07.24v0c-.26.31-.06.39,0,.5l.39-.36c-.14.4.09.53.31.61s.42.12.3.46c.15-.05.24,0,.39-.05l-.17.23a1.06,1.06,0,0,0,.57.4l-.16.15c.16.1.59-.62.73-.57l-.15.4c.26.14.42.58.83.33,0,.06-.07.17-.12.17.12.07.45.44.56-.13-.1.36.29.12.48,0l-.09.27c.21-.33.23-.42.42-.49,0,0,0,.23,0,.15.12.17.15-.24.3-.07l-.09.17c.14,0,.14,0,.25-.25s.26.09.27.34c0-.15.12-.35.2-.28a.33.33,0,0,1-.05.19c.25.21.37-.33.54,0a.4.4,0,0,0,0,.16c-.2,0-.36,0-.34,0,0,.26.16.3,0,.65.14-.19.35-.62.51-.5a.34.34,0,0,1,0,.08v0s.07,0,.1,0a.28.28,0,0,0,.14.06c0,.21.2.09.29.09-.05-.28.06-.25-.07-.47,0,0,0,0-.06.06l0,0v0l-.19,0c.05-.15.1-.28.2-.13l0-.47c.15.38.4.56.47.78.22-.21.57-.22.56-.78,0-.09.11.12.16.19s-.06.07-.06.15c.09-.18.37-.18.27-.54.22.1,0,.35.23.21v.12c.33.18.43-.12.51-.39s.13-.54.55-.34A.2.2,0,0,1,33,58c.69,0,.76-.9,1.51-.93.19,0,0-.22,0-.41l.25.17-.16-.35c-.07-.34.86.13.63-.42L35,56c.09-.07.08-.34.27-.21,0,0-.16-.14,0-.12l.14.08c0-.12-.07-.24-.11-.36.19-.13.54.33.71.06,0-.14-.27-.49-.39-.49s-.14.06-.28,0l0-.12A2.57,2.57,0,0,0,34,54.4l.19.24L34,54.58l0-.11c-.22,0-.07.08,0,.18a.93.93,0,0,0-.24-.07l.33.34c-.17-.08-.28-.23-.42-.21.15.16.39.16.45.31-.22-.05-.35-.16-.24,0a.35.35,0,0,1-.19-.16c.08.13,0,.18.14.35-.25-.09-.07.23-.43,0,.08.08.21.3.18.36-.34-.42-.16.16-.58-.23.32.38,0,.34.06.64,0,0-.07-.1,0-.1s-.2-.05-.3-.08a1.48,1.48,0,0,1,.33.67c-.33-.22-.25-.39-.52-.64.21.24.08.35.27.53a1,1,0,0,1-.35-.27c.29.39,0,.11.13.39-.24-.13-.3-.36-.31-.17A.45.45,0,0,1,32.19,56Zm-2.38,1.71h0l.06,0Zm-.26,0h.11c0,.1,0,.2,0,.19S29.59,57.79,29.55,57.7Zm.77,1.91c-.05,0-.08,0-.09-.07l.09,0v.11Z" transform="translate(-1.1)"/><path class="cls-1" d="M30.37,59.23l0,0,0-.05v.09Z" transform="translate(-1.1)"/><path class="cls-1" d="M35.22,48.9h0l0,0Z" transform="translate(-1.1)"/><polygon class="cls-1" points="25.43 56.17 25.38 56.23 25.44 56.19 25.43 56.17"/><path class="cls-1" d="M35,50.75l-.06,0S34.94,50.76,35,50.75Z" transform="translate(-1.1)"/><path class="cls-1" d="M35,51.38l-.09.11A.25.25,0,0,0,35,51.38Z" transform="translate(-1.1)"/><path class="cls-1" d="M35,51.88h0Z" transform="translate(-1.1)"/><path class="cls-1" d="M30.12,47.13h0C30.05,47.19,30.08,47.17,30.12,47.13Z" transform="translate(-1.1)"/><path class="cls-1" d="M32.44,47.25a.56.56,0,0,1-.13.07S32.36,47.38,32.44,47.25Z" transform="translate(-1.1)"/><polygon class="cls-1" points="26.81 47.7 26.81 47.7 26.8 47.7 26.81 47.7"/><path class="cls-1" d="M32.22,47.27c0,.06,0,.07.09,0S32.27,47.24,32.22,47.27Z" transform="translate(-1.1)"/><path class="cls-1" d="M34.58,53.87l0,0,0,0Z" transform="translate(-1.1)"/><path class="cls-1" d="M34.6,53.91l0,0S34.63,53.92,34.6,53.91Z" transform="translate(-1.1)"/><path class="cls-1" d="M34.67,54l-.05-.07S34.6,54,34.67,54Z" transform="translate(-1.1)"/><path class="cls-1" d="M34.86,53.3l-.1,0Z" transform="translate(-1.1)"/><path class="cls-1" d="M34.86,53.11s-.23.07-.18.14l.08,0C34.61,53.22,35,53.18,34.86,53.11Z" transform="translate(-1.1)"/><path class="cls-1" d="M36.19,52.34l-.09.19c.11,0,.26-.07.28,0C36.72,52.31,36.14,52.6,36.19,52.34Z" transform="translate(-1.1)"/><path class="cls-1" d="M36.33,51.72c.06.1.16,0,.22,0C36.45,51.64,36.42,51.63,36.33,51.72Z" transform="translate(-1.1)"/><path class="cls-1" d="M34.59,47.65l.2-.17C34.71,47.44,34.72,47.55,34.59,47.65Z" transform="translate(-1.1)"/><path class="cls-1" d="M33.11,48l0,.16.18-.15Z" transform="translate(-1.1)"/><polygon class="cls-1" points="32.78 46.32 32.84 46.32 32.66 46.3 32.78 46.32"/><path class="cls-1" d="M26.23,45.73l.17.27C26.42,45.93,26.28,45.6,26.23,45.73Z" transform="translate(-1.1)"/><path class="cls-1" d="M23.87,48.14c-.15-.07-.28,0-.19.09C23.74,48.18,23.88,48.19,23.87,48.14Z" transform="translate(-1.1)"/><polygon class="cls-1" points="23.19 57.58 23.07 57.6 23.23 57.63 23.19 57.58"/><rect class="cls-2" x="13.44" y="33.97" width="49.85" height="49.85" rx="12" ry="12"/><path class="cls-1" d="M61.39,21.6c-.09,0-.3,0-.26.09l.35.06Z" transform="translate(-1.1)"/><path class="cls-1" d="M60.73,22.26a1,1,0,0,0,.8.17c-.34-.11-.2-.14-.6-.26,0-.1.11-.17.24-.15-.09,0,.08-.16-.14-.21-.28.13-.29.29-.06.46A.48.48,0,0,1,60.73,22.26Z" transform="translate(-1.1)"/><path class="cls-1" d="M60.16,31.69l.05,0A.05.05,0,0,0,60.16,31.69Z" transform="translate(-1.1)"/><path class="cls-1" d="M56.14,35.4a.1.1,0,0,0,0-.1S56.12,35.38,56.14,35.4Z" transform="translate(-1.1)"/><path class="cls-1" d="M55.11,35.54h.06S55.11,35.51,55.11,35.54Z" transform="translate(-1.1)"/><path class="cls-1" d="M60.16,31.69l-.16.06C60.11,31.8,60.11,31.73,60.16,31.69Z" transform="translate(-1.1)"/><path class="cls-1" d="M61.59,23.58a.21.21,0,0,0-.1-.08.2.2,0,0,1,0,.08Z" transform="translate(-1.1)"/><path class="cls-1" d="M59.9,29.22v0l-.15,0Z" transform="translate(-1.1)"/><path class="cls-1" d="M59.84,27.21c0,.05.29.06.42.08-.12,0-.18-.06-.2-.1Z" transform="translate(-1.1)"/><path class="cls-1" d="M60.37,24l0-.05Z" transform="translate(-1.1)"/><path class="cls-1" d="M59.83,30.66l-.1,0Z" transform="translate(-1.1)"/><path class="cls-1" d="M16,25H16S16,24.94,16,25Z" transform="translate(-1.1)"/><polygon class="cls-1" points="16.35 22.63 16.36 22.66 16.53 22.67 16.35 22.63"/><path class="cls-1" d="M53.38,36h0S53.39,35.94,53.38,36Z" transform="translate(-1.1)"/><path class="cls-1" d="M37.31,38.82c.18.28-.31.34,0,.64C37.25,39.35,37.54,39,37.31,38.82Z" transform="translate(-1.1)"/><path class="cls-1" d="M61.55,23.63v.09A.14.14,0,0,0,61.55,23.63Z" transform="translate(-1.1)"/><path class="cls-1" d="M37.28,39.46h0l0,0Z" transform="translate(-1.1)"/><path class="cls-1" d="M49.61,37.45a.3.3,0,0,0,.07.11A.58.58,0,0,0,49.61,37.45Z" transform="translate(-1.1)"/><path class="cls-1" d="M52.65,36.91h-.09A.1.1,0,0,0,52.65,36.91Z" transform="translate(-1.1)"/><path class="cls-1" d="M48.14,38.22s-.07,0-.11,0l0,0S48.09,38.18,48.14,38.22Z" transform="translate(-1.1)"/><polygon class="cls-1" points="45.4 38.54 45.44 38.59 45.49 38.57 45.4 38.54"/><path class="cls-1" d="M16.19,30.4a1,1,0,0,1,.25-.14C16.23,30.33,16.11,30,16.19,30.4Z" transform="translate(-1.1)"/><path class="cls-1" d="M61.42,23.58a.23.23,0,0,1,.13.05s0,0,0-.05Z" transform="translate(-1.1)"/><path class="cls-1" d="M48.57,40.55h-.29A1,1,0,0,0,48.57,40.55Z" transform="translate(-1.1)"/><path class="cls-1" d="M25.49,39.53h-.08A.05.05,0,0,0,25.49,39.53Z" transform="translate(-1.1)"/><path class="cls-1" d="M47.46,40.78a.62.62,0,0,0-.19-.18.24.24,0,0,0,0,.08Z" transform="translate(-1.1)"/><path class="cls-1" d="M16.44,30.26Z" transform="translate(-1.1)"/><path class="cls-1" d="M15.66,28.3c0,.26.39.12.62.18.11.31-.3.14-.5.25.11.19.47.34.45.49a.24.24,0,0,1-.17,0c.16.11.16.24.18.43a.6.6,0,0,0,.29.56l-.09.05a2.13,2.13,0,0,1,.53-.13c0,.13.29.18,0,.28,0-.08-.11-.07-.19-.09l.13.11c-.33.2-.16-.15-.43-.1.17.25.53.47.49.68-.33.14-.24-.42-.48-.08,0-.11,0-.23.06-.35-.51.37,0-.2-.55.16,0,.47.31.43.33.88.22,0,.27-.12.49-.1.54.41-.68.77-.06,1,.26,0,.69-.15.62.22l-.42.09c.16.39.63-.07.59.43-.18,0-.27-.21-.29-.13-.15.4.3.06.4.24l-.29.22c.29.33.77.58,1.09.9-.1,0-.24.06-.26.21.54.32.77,1,1.08,1.54l.38-.09s0,.17-.11.18c.09.24.14-.14.3-.16s0,.25-.12.26a3.18,3.18,0,0,1,.79.23.8.8,0,0,1,.55.52l-.11,0c.19.29.65-.33.72.08h-.08c.48.52,1.3.56,1.52,1.24.29-.35.51.49.82-.08.22.43.08.49.5.89.13.08.35-.29.54-.28l-.12.31.35-.24,0,.42.18,0a.28.28,0,0,1,0-.27c.29,0,.52.43.48.58l.67-.09c-.05.12-.16.14-.27.2.42-.23,0,.34.34.13,0-.08.07-.18.1-.24a.69.69,0,0,0,.68.32l-.11.2a6.1,6.1,0,0,0,1.45.25c-.15-.14,0-.52.13-.52l0,.35c.14-.2-.12-.16.12-.38.18.07,0,.41-.08.5l.25-.08c0,.11-.08.15-.12.28.14-.2.33.42.53.07V41c.5.1.74,0,1.15.08,0-.29.2-.19.36-.43A2.49,2.49,0,0,0,32,41c.27-.12.1-.24.24-.41,0,.28.34.29.14.47a3.07,3.07,0,0,0,1.12-.16c0-.12-.12-.18-.07-.26s.21.13.18.26l0,0c.63-.32,1.35.86,1.87.32l0,0,.52-.28c.23.06-.15.2,0,.38.55-.44.86.09,1.31-.2.35.84,1.22-.07,1.69.44l0-.19c.12-.19.15.1.24.15,0-.15-.13-.17-.06-.28,1-.26,2.11.26,3.18.31.39,0,.14-1,.66-.58l-.11.36c.74-.5,1.59-.09,2.3-.58,0,.09,0,.19-.09.2.19.23.59-.07.56-.28.12,0,0,.19.14.28s.36-.38.48-.14c0,0,0,.09-.06.11.09-.14.49,0,.35-.32.3.1.51-.21.77-.07.09-.34.51.06.47-.4.07.47.57.27.7,0,0,.16.18.12.16.33.2,0,.37-.18.28-.41.5.48.64-.62,1,.06a11.46,11.46,0,0,1,1.53-1c.13.47-.57.22-.41.69.46-.34.63-.81,1.16-.85.15,0,0,.23,0,.31.44-.36,1-.32,1.33-.73a.2.2,0,0,1,0,.16c.08,0,.22,0,.13-.21l-.06.09c-.25-.25.1-.75.05-.91.09.64.48,0,.56.81a.32.32,0,0,0,0-.32c.1,0,.16.06.14.26.26-.25.05-.42.33-.54,0,.1,0,.16,0,.29.05-.26.1-.51.37-.54,0,.07.07.13,0,.16.39-.22.43-.79.93-.86.1.47.21,0,.43.39l.17-.24L56.33,37c.2-.11.22-.46.46-.45l-.06.23.33-.28h-.29c.09-.28-.29-.41,0-.47,0,.07.18-.12.41,0h0c0-.17,0-.34.22-.35s.23.38.3.43c-.1-.34.39-.38.28-.75a.66.66,0,0,0,.18.29l-.1-.27c.14,0,.18,0,.27.16.27-.16-.4-.33,0-.4,0,0,0,.06,0,.13.36-.16.46-.57.78-.73.35.22-.15.29.17.45.32-.42.41-1.07.78-1.39l-.09,0c-.4-.41.46-.09.39-.46,0,.07.2.25.16.2.28-.24.29-.63.41-1.24l.1.13a1.06,1.06,0,0,0,.28-.39c0-.17,0-.35.06-.49-.14-.11-.12-.19-.33-.13.83-.62-.44-1.19.25-1.74,0,.07.12.16.12.11l-.13-.47c-.25,0-.15.06-.34.16a.38.38,0,0,1-.26-.31c.16.21.39,0,.53-.09-.07,0-.16,0-.23,0,.43-.24-.5,0-.2-.37H61c-.07-.12-.24-.24-.21-.37.29-.06.14.13.37.14,0-.19-.54-.37-.25-.55.08.08.08.2.16.28.33-.19.25-.21.3-.35v0l.15-.32-.09.08c-.74-.24-.13-.49-.62-.8.46.31.27.05.59.07.09-.08.19-.2.28-.17-.26-.15.21-.25-.18-.46.11,0,0-.17.28-.13-.09-.2-.19,0-.32,0-.35-.3.44-.71,0-1.15-.2-.37-.55-.44-.73-.79.17-.12.38.09.38.09a.37.37,0,0,0,0-.51c.09,0,.16,0,.28-.05s-.38-.1-.22-.29a1.7,1.7,0,0,1,.41.15c-.09-.17-.29-.34-.38-.52.18,0,.27.11.39.17-.08-.19-.16-.51-.45-.57l-.1.13c0-.07.25,0,.3,0,.22.17-.1.25-.21.26L61,22.85c-.61.13.1.5.06.75l-.44-.1.36.26c-.11,0-.36.09-.43,0-.21.18.16.16-.08.32,0,0-.06,0-.08,0l.13.18c-.09,0-.31,0-.25-.08-.25.31.34.51,0,.63l0,0c.15.44.33,0,.71.37l-.8.22.32,0a.13.13,0,0,1-.16.12c.22.17.14,0,.35.07-.3.22.14.6-.38.65.25.08.19-.21.36,0-.56.07.1.27-.16.47-.29-.06-.13-.25-.39-.05.49.12-.11.39,0,.55.38,0,.16.37.29.65-.13,0-.22.53-.36.79h-.06c.39.05.32.32.4.52A.54.54,0,0,1,59.9,29v.18a.34.34,0,0,1,.23.22l-.29,0c0,.24.35.49.15.81.27,0,.76-.25.94.08-.14,0-.4,0-.46-.06s.13.1.06.16l-.25-.14c-.11.15.21.08.19.19-.21,0-.15.09-.32.07,0,0,.09-.1,0-.14a.53.53,0,0,1-.32.34c.12,0,.29,0,.31.09,0,.25-.25.09-.36.23.15.06,0,.22.31.22,0,.07-.15.08-.23.11.15.09,0,.34.36.34,0,0,0,0,0,0v0h0c.17.4-.5.56-.61.93l-.08-.06c0,.26-.27.44-.2.72,0,.06-.25,0-.33-.1,0,.19,0,.28-.29.35,0-.26-.16-.07,0-.22-.23.1-.38,0-.36.39-.13-.25-.35-.12-.37,0l.24,0a.53.53,0,0,1-.25.22l-.19-.3c-.63,0-.17,1.12-.91.76,0,.27.31,0,.4.29-.22.09-.7-.2-.76-.16-.34,0,.07.59-.26.66.1.08.32.34.18.58-.22.07-.52-.32-.45-.47s.08,0,.11,0,.08-.17-.07-.24l0,.12c-.17,0-.42.11-.46-.1-.08.18,0,.21.18.2-.34,0-.38.22-.69.26.07,0,.18.14.14.16-.44.08-.05.31-.27.51-.24-.11-.16-.44-.35-.17-.23,0-.19-.28-.17-.41-.13.33-.52.07-.67.09l.08-.15a.28.28,0,0,1-.17.14l.18.2c-.09,0-.16,0-.2-.07,0,.18.24.35.18.63-.15-.07-.25.27-.42,0,.36-.05-.17-.3.07-.47a.17.17,0,0,1-.19.08.1.1,0,0,1,0-.09c-.41-.14,0,.42-.3.53,0-.19-.21-.3-.25-.25.13,0,.18.27.12.45-.26-.06-.19.19-.3.21l.15,0c0,.19-.09.21-.21.32-.07-.13.09-.14,0-.18,0,.37-.49-.19-.63.1-.15-.08-.13-.33-.25-.38-.17.33-.34-.13-.55.13.16.22.15.16,0,.45a3.68,3.68,0,0,0,.38-.31c-.05.16-.1.3-.16.45.14,0,.23-.25.32-.24-.07.25-.07.18.06.36-.3-.29-.3.33-.59.15l-.19-.6c-.4-.18-.47.47-.93.44l.16.07c0,.25-.25.1-.35.24-.05-.21-.15-.25-.24-.37,0,.15-.3.08-.24.5l-.26-.23c-.37,0-.25.67-.6.67.05-.25-.14-.36.05-.57-.11,0-.22,0-.19.15-.09-.11-.24.34-.39.17,0,.1,0,.32-.12.33a.15.15,0,0,1,0-.1c0,.1-.17.18,0,.38-.47-.56-1,.26-1.36-.27a3.91,3.91,0,0,1-.74.27c0-.07,0-.11,0-.09-.33-.15-.1.62-.48.46s.16-.21,0-.32c-.14-.68-.41.15-.7-.21l0-.05c-.2-.21-.4.33-.7.3a.51.51,0,0,0,0-.1,1.45,1.45,0,0,1-.82.64c.06-.28.11-.16,0-.43-.12,0,.08.44-.17.54-.09-.14-.29-.26-.34-.55L43,39c-.16-.37-.31,0-.44,0v-.17c-.36.09-.34.51-.74.51l0,.12c-.19.43-.2-.22-.4.11l-.09-.41a2.53,2.53,0,0,1-.74.51c.14-.32.43-.48.61-.67-.14,0-.48,0-.55.25.06,0,.12-.15.18-.08a.73.73,0,0,1-.67.5c0-.81-.75-.18-1-.81-.5.31-1-.1-1.57,0,.2.64-.17,0-.14.66-.14,0-.19,0-.2,0l-.41-.41c-.09-.19.13-.14.12-.28-.29-.06-.12-.28-.31-.46,0,.23-.11.33-.27.23l.23.31c-.43.33-.34-.56-.77-.23l.14-.2c-.22.11-.78,0-1,.49,0-.08-.07-.26,0-.3a1.71,1.71,0,0,0-.83.18c-.27.08-.53.13-.71,0l.05-.16c-.1,0-.19.28-.29.11s0-.15,0-.17-.28.25-.4.15l.13-.17c-.47-.26-.8.35-1.24.42a.73.73,0,0,0-.48-.76l0-.06c-.55-.16-1,.2-1.57.28-.22-.57-1.07-.38-1.48-.84.05.11-.11.36-.21.37s-.42.22-.28-.19l0,0c0-.43-.24-.39-.43-.45l-.19.53c-.13-.47-.48-.48-.8-.5s-.6,0-.59-.44c-.17.09-.31,0-.48.11l.13-.27a2.14,2.14,0,0,0-.83-.4l.16-.15c-.19-.13-.63.64-.84.55l.15-.43c-.37-.2-.53-.71-1.08-.57,0,0,.12-.16.18-.13-.15-.12-.42-.67-.71-.12.22-.34-.32-.27-.61-.26l.21-.21c-.39.19-.46.28-.72.18,0-.07.11-.22.12-.11-.05-.25-.3.11-.39-.18l.2-.08c-.14-.16-.2-.07-.44,0s-.25-.33-.09-.53c-.13.1-.38.17-.4,0a.22.22,0,0,1,.18-.09c-.08-.4-.61-.17-.55-.54a.36.36,0,0,0,.11-.15c.18.21.31.39.28.39.2-.18.1-.37.49-.5-.26,0-.81.08-.85-.17l.06-.08h0c0-.06-.05-.08-.11-.08a.4.4,0,0,0,0-.2c.17-.15,0-.27-.09-.36-.25.17-.29,0-.42.28,0,0,0,0,.09,0l.06,0h0a2.18,2.18,0,0,1,.17.21c-.17,0-.33,0-.26-.18-.19.06-.4.11-.5.13.25-.35.3-.72.51-.88-.29-.21-.46-.61-1.05-.6-.1-.06.11-.16.18-.23s.09.1.18.09c-.21-.12-.27-.49-.65-.42.1-.29.38,0,.23-.28h.13c.43-.75-1.27-.76-.44-1.67,0,.05-.07.08-.14.09.36-.91-.33-1.87.23-2.77.12-.25-.13-.28-.33-.44l.33-.05-.37-.27c-.28-.37.79-.65.27-1.13l-.22.06c.05-.17-.12-.54.13-.51,0,0-.23-.06-.12-.12H18l-.29-.42c.12-.33.67.05.7-.43-.06-.17-.49-.5-.6-.43a.26.26,0,0,1-.27.18l-.09-.16c-.5,0-1-.15-1.35.25l.3.27-.24.09,0-.23c-.22.13,0,.21.12.31a.49.49,0,0,0-.27.11l.48.28c-.2,0-.39-.13-.5.06.22.13.44-.12.58.09-.22.13-.41.09-.21.25a.29.29,0,0,1-.27-.08c.15.14.07.37.33.44-.28.14.07.47-.4.46.11,0,.37.24.39.37-.56-.24,0,.47-.64.41.51.17.23.62.51.93,0,0-.12-.05-.1-.08,0,.17-.19.22-.29.33.42,0,.52.29.77.44-.4.21-.49-.13-.87-.07.34,0,.33.37.62.3-.25.16-.12.14-.47.22.52,0,.09.15.41.28-.26.23-.49.06-.33.32C15.85,28.53,15.66,28.3,15.66,28.3Zm2.92,6.13h0l-.09-.1A.48.48,0,0,0,18.58,34.43Zm.36.41a1,1,0,0,0-.14-.18c.06-.08.16-.14.19-.09S19,34.72,18.94,34.84Zm1-2.1c.08,0,0,.09,0,.13l-.1-.08h0Z" transform="translate(-1.1)"/><path class="cls-1" d="M19.53,32.86l0,0,0,.08.09,0Z" transform="translate(-1.1)"/><path class="cls-1" d="M60.22,31.65h0Z" transform="translate(-1.1)"/><polygon class="cls-1" points="23.78 39.45 23.8 39.38 23.74 39.42 23.78 39.45"/><path class="cls-1" d="M61.26,29l.08,0A.2.2,0,0,0,61.26,29Z" transform="translate(-1.1)"/><path class="cls-1" d="M61.33,27.73l.11-.17A1.11,1.11,0,0,0,61.33,27.73Z" transform="translate(-1.1)"/><path class="cls-1" d="M61.48,26.8l-.13,0h0Z" transform="translate(-1.1)"/><path class="cls-1" d="M53.44,38.76l0,0C53.34,38.87,53.39,38.83,53.44,38.76Z" transform="translate(-1.1)"/><path class="cls-1" d="M57.2,36.06a1,1,0,0,1,0,.2C57.24,36.24,57.29,36.2,57.2,36.06Z" transform="translate(-1.1)"/><polygon class="cls-1" points="47.5 40.54 47.5 40.54 47.47 40.55 47.5 40.54"/><path class="cls-1" d="M57,36.38a.18.18,0,0,0,.18-.12C57.09,36.28,57,36.3,57,36.38Z" transform="translate(-1.1)"/><path class="cls-1" d="M61.61,22.75l0-.05h-.05Z" transform="translate(-1.1)"/><path class="cls-1" d="M61.58,22.7l0-.05S61.54,22.69,61.58,22.7Z" transform="translate(-1.1)"/><path class="cls-1" d="M61.47,22.54l.07.11S61.55,22.57,61.47,22.54Z" transform="translate(-1.1)"/><path class="cls-1" d="M61.48,24h0Z" transform="translate(-1.1)"/><path class="cls-1" d="M61.51,24.36c0-.09.23-.22.16-.35h-.09C61.75,24.06,61.32,24.28,61.51,24.36Z" transform="translate(-1.1)"/><path class="cls-1" d="M60.16,25.93l.09-.31c-.12.05-.27.12-.3,0C59.6,26,60.21,25.52,60.16,25.93Z" transform="translate(-1.1)"/><path class="cls-1" d="M60,26.91c-.05-.17-.16,0-.23,0C59.87,27,59.89,27,60,26.91Z" transform="translate(-1.1)"/><path class="cls-1" d="M58.92,33.12l-.19-.2C58.68,33,58.8,33,58.92,33.12Z" transform="translate(-1.1)"/><polygon class="cls-1" points="57.86 35.06 58.07 35.1 57.95 34.88 57.86 35.06"/><polygon class="cls-1" points="56.01 34.08 56.03 34.01 55.94 34.22 56.01 34.08"/><path class="cls-1" d="M46.74,38.23l.1.33C46.92,38.49,46.87,38.11,46.74,38.23Z" transform="translate(-1.1)"/><path class="cls-1" d="M41.8,39.15c-.06-.17-.21-.26-.29-.09C41.63,39.07,41.75,39.19,41.8,39.15Z" transform="translate(-1.1)"/><polygon class="cls-1" points="25.95 37.35 26.08 37.27 25.88 37.31 25.95 37.35"/><path class="cls-1" d="M1.11,15.53c-.05.11.07.28.27.15l0-.37Z" transform="translate(-1.1)"/><path class="cls-1" d="M2.8,15.51c.19-.26.38-.64.1-.85-.13.4-.24.3-.37.76-.21.12-.42.05-.43-.07-.05.11-.37.07-.41.31a1,1,0,0,0,1-.36C2.84,15.33,2.79,15.44,2.8,15.51Z" transform="translate(-1.1)"/><path class="cls-1" d="M24.23,7.37l-.16,0Z" transform="translate(-1.1)"/><path class="cls-1" d="M37.45,2.2c-.1,0-.13.09-.12.12S37.48,2.21,37.45,2.2Z" transform="translate(-1.1)"/><path class="cls-1" d="M39.1,2.32,39,2.25A.14.14,0,0,0,39.1,2.32Z" transform="translate(-1.1)"/><path class="cls-1" d="M24.23,7.37l.39,0C24.6,7.21,24.41,7.32,24.23,7.37Z" transform="translate(-1.1)"/><path class="cls-1" d="M5.43,13.58a.49.49,0,0,0-.16.16l.16-.11Z" transform="translate(-1.1)"/><path class="cls-1" d="M18.53,10l-.11,0a.75.75,0,0,0,0,.16Z" transform="translate(-1.1)"/><path class="cls-1" d="M14.09,11.82c.11,0,0-.3,0-.43a.35.35,0,0,1-.15.27A.51.51,0,0,0,14.09,11.82Z" transform="translate(-1.1)"/><path class="cls-1" d="M6.85,14.23l-.11.08Z" transform="translate(-1.1)"/><path class="cls-1" d="M21.74,8.73a.19.19,0,0,0,.07.08A.18.18,0,0,0,21.74,8.73Z" transform="translate(-1.1)"/><path class="cls-1" d="M6.07,19.39l0-.05S6,19.38,6.07,19.39Z" transform="translate(-1.1)"/><path class="cls-1" d="M1.38,16.08h.08A.61.61,0,0,0,1.53,16Z" transform="translate(-1.1)"/><path class="cls-1" d="M43.11,4.25h0C43,4.23,43,4.25,43.11,4.25Z" transform="translate(-1.1)"/><path class="cls-1" d="M71.34,16.46c.52.07-.59.56.15.58C71.4,17,71.93,16.41,71.34,16.46Z" transform="translate(-1.1)"/><path class="cls-1" d="M5.55,13.56l.19-.07A.77.77,0,0,0,5.55,13.56Z" transform="translate(-1.1)"/><path class="cls-1" d="M71.49,17h0Z" transform="translate(-1.1)"/><path class="cls-1" d="M52.71,7.77a.43.43,0,0,0-.05-.16S52.66,7.68,52.71,7.77Z" transform="translate(-1.1)"/><path class="cls-1" d="M45.75,4.66l.16.1A.59.59,0,0,0,45.75,4.66Z" transform="translate(-1.1)"/><path class="cls-1" d="M56.54,8.82c.09,0,.11.1.25.12a.08.08,0,0,0,0,0C56.71,8.91,56.64,8.9,56.54,8.82Z" transform="translate(-1.1)"/><path class="cls-1" d="M60.39,10.29a.35.35,0,0,1,0-.08l-.13,0Z" transform="translate(-1.1)"/><path class="cls-1" d="M17.78,23.79a.77.77,0,0,1-.09-.31C17.68,23.69,17.09,23.54,17.78,23.79Z" transform="translate(-1.1)"/><path class="cls-1" d="M5.49,13.72a.16.16,0,0,1,.06-.16l-.12.07S5.45,13.71,5.49,13.72Z" transform="translate(-1.1)"/><path class="cls-1" d="M57.5,6.81l.59.27A4.69,4.69,0,0,0,57.5,6.81Z" transform="translate(-1.1)"/><path class="cls-1" d="M46.18,28.3l-.13.08A.22.22,0,0,0,46.18,28.3Z" transform="translate(-1.1)"/><path class="cls-1" d="M59.92,7.74a1,1,0,0,0,.27.31.21.21,0,0,0,.1,0Z" transform="translate(-1.1)"/><path class="cls-1" d="M17.69,23.48Z" transform="translate(-1.1)"/><path class="cls-1" d="M13.44,22.55c.57.23.4-.24.6-.39.73.18.22.38.39.65.47.08.92-.11,1.24,0,0,.06.06.11,0,.15.56-.09,1.36.52,2,.38a.17.17,0,0,1,0,.11.81.81,0,0,1,.11-.5c.26.09.56,0,.57.23-.15-.07-.2,0-.3.06h.31c.12.41-.42,0-.51.2a5.26,5.26,0,0,1,1.67.33c0,.35-1-.27-.56.23l-.59-.37c.29.69-.37-.18-.13.52.79.42,1,.2,1.78.62.26-.11,0-.29.3-.39,1.3.14.61,1.15,1.64,1.07.31-.13.55-.49,1.09,0l-.35.27c.79.35.66-.33,1.4.23-.2.09-.67-.12-.57,0,.44.49.47-.06.88.11l0,.35c.87.28,1.9.42,2.88.73-.09.07-.29.11-.11.29a14.17,14.17,0,0,1,3.62,1.66l.54-.1c.1,0,.14.2,0,.21.41.28.09-.17.35-.19s.28.29.08.31a6.53,6.53,0,0,1,3.18,1l-.2,0c.61.36,1-.28,1.46.21h-.13a6.22,6.22,0,0,0,.64.29l1,.38,1.06-.4.72-.25a4.35,4.35,0,0,1,1.37-.24c.06-.48,1.47-.35,1.36-.94a6.19,6.19,0,0,0,1.92-.08c.32-.09.33-.52.68-.71l.12.28.4-.49.4.24.33-.21c-.15,0-.35,0-.36-.1a1.73,1.73,0,0,1,1.49-.16l1.21-.73c0,.12-.18.25-.33.38.59-.55.24.26.78-.25-.11,0,0-.19,0-.25a3.31,3.31,0,0,0,1.62-.49l0,.24c1-.31,2-.86,3.1-1.26-.43,0-.47-.32-.16-.48l.24.26c.14-.26-.37,0,0-.38.42-.11.4.25.21.43l.45-.29c.07.08,0,.18,0,.3.13-.26,1,0,1.14-.45l.06.08c1.09-.4,1.54-.69,2.42-1-.08-.27.29-.34.47-.66A13.51,13.51,0,0,0,60.53,23c.5-.34.08-.28.27-.53.13.22.9-.09.56.23a16,16,0,0,0,2.3-1.13c-.17,0-.33,0-.28-.15s.53-.08.54,0l-.05.05c1.2-.86,3.34-.45,4.22-1.35l0,0,1-.67c.52-.15-.24.29.19.3,1-.84,1.9-.64,2.78-1.27a1.43,1.43,0,0,0,.87,0l.24-.07.43-.15c.3-.13.62-.25,1-.38a19.32,19.32,0,0,1,3.84-1.32h-.46c.12-.23.78-.19,1.26-.32-.38,0-.88.16-.8,0l1.57-.64c-1.69-.63-3.15-1.29-4.86-2.05l-1.31-.59-.33-.16-.28-.12-.35-.18c-.48-.24-1-.48-1.43-.7-.82-.37-.81.68-1.71-.13l.42-.19c-1.83-.28-3.45-1.34-5.23-1.66.13,0,.17-.13.33-.06-.26-.36-1.29-.51-1.36-.33-.25-.12,0-.19-.12-.34-.3-.27-1-.06-1.09-.35,0,0,.12,0,.19,0-.27,0-1-.44-.93-.09-.57-.36-1.23-.34-1.67-.69-.43.17-1-.55-1.27-.18.21-.4-1-.76-1.42-.71.18-.08-.29-.26-.07-.38-.45-.17-.89-.25-.9,0-.63-.82-1.81-.23-2-1.06-1.42-.28-2.71-.6-3.94-1,.2-.41,1.34.46,1.46,0a11.21,11.21,0,0,1-3.09-.69c-.27-.17.24-.12.37-.15-1.2-.26-2.18-.88-3.28-1,0,0,.14,0,.26,0-.21-.07-.44-.24-.49,0l.21,0c.21.4-1,.28-1.1.41.55-.42-.95-.52-.14-1-.15,0-.35,0-.37.15-.18-.11-.21-.21,0-.28-.75-.17-.57.13-1.22-.12,0-.09.18-.08.29-.16a1.82,1.82,0,0,1-1.31-.18c.06,0,0-.14.18-.07-.94-.34-1.78-.14-2.74-.71.23-.14.16-.21,0-.28L39.47.44a.32.32,0,0,1-.15-.25L38.57,0l-.16.09.16,0,.18.18L38.57.22c-.31.15-.61.34-.85.48a1.38,1.38,0,0,1-.57.25l.3-.29-.88.43L37.14,1c-.42.37.23.41-.45.58.11-.09-.49.19-.82.09h0a1.2,1.2,0,0,1-.78.48c-.14-.07-.08-.41-.17-.46-.12.39-1.09.54-1.27,1a.28.28,0,0,0,0-.32l-.1.31c-.26,0-.3,0-.33-.16-.68.22.39.35-.48.48.06,0,0-.07.13-.15-.84.22-1.48.77-2.26.95-.36-.26.6-.34.24-.54a25.48,25.48,0,0,1-3.08,1.64l.2,0c.06.55-.86.07-1.28.51.11-.08.06-.34,0-.27a11.77,11.77,0,0,0-2.38,1.29l.08-.18a14.38,14.38,0,0,0-1.58.5c-.08.18-.35.26-.12.38C21,6.91,20.22,8.52,18.76,8.42c.15-.06.3-.25.19-.21l-1,.54c.17.18.19.08.48.16a1.2,1.2,0,0,1-.59.5c.41-.33-.15-.34-.4-.38.06.05,0,.15.07.21-.7-.16.08.47-.76.51V9.62a2.85,2.85,0,0,1-.76.52c-.23-.2.25-.24.18-.45-.41.18-.64.8-1.12.71.15-.14.41-.24.56-.39a1.29,1.29,0,0,0-.88.05h0l-.77.16h.22c-.27.86-1,.55-1.56,1.26.52-.68,0-.27-.05-.58-.21,0-.52,0-.47-.09-.25.37-.63,0-1,.57-.06-.08-.36.14-.38-.12-.41.25.17.12.17.25-.54.58-1.72.26-2.52,1.08-.76.51-.79.88-1.5,1.34-.32,0,.08-.41.08-.41A2.06,2.06,0,0,0,5.87,14c0-.11-.06-.14-.22-.19-.31.15-.08.41-.55.45a1.2,1.2,0,0,1,.17-.49c-.34.23-.65.55-1,.79-.17-.12.14-.33.23-.49-.41.24-1.07.6-1.1.9l.31,0c-.15.07-.17-.18-.07-.28.3-.34.58-.13.63-.05L4,14.76c.5.42,1.08-.53,1.65-.73l-.08.48L6,14c.16,0,.33.23.08.4.48,0,.3-.28.73-.2,0,0,0,0,0,.07L7.19,14c0,.11.18.24-.08.28.79-.06,1-.74,1.39-.56l-.05.05c.92-.53,0-.32.57-1l.78.5,0-.32c.1,0,.31-.09.32,0,.29-.35-.12-.1,0-.37.58.06,1.28-.66,1.57-.25.08-.29-.53,0-.08-.34.35.42.56-.33,1.09-.28,0,.3-.5.34,0,.38.1-.53.9-.25,1.23-.48-.11-.35.76-.47,1.33-.84a10.91,10.91,0,0,0,1.88-.4v.06c0-.38.59-.56,1-.81.07.21,0,.32-.18.51l.41-.17c0-.15.16-.25.41-.4V9.9c.54-.23,1-.74,1.74-.85-.05-.26-.82-.44-.15-.9.08.12.2.33,0,.46.05,0,.18-.2.33-.2l-.21.34c.36,0,.1-.25.36-.33.07.18.24.05.26.21s-.25,0-.32.13a1.45,1.45,0,0,1,.87,0c-.07-.09-.1-.24.1-.35.54-.24.27.14.63.11.08-.18.48-.19.38-.47.16-.06.24.05.33.1.23-.23,1.3-.57.87-.73H24l0,0h0c.81-.65,2-.62,2.85-1.11l0,.09a8.86,8.86,0,0,0,1.5-.91c.16-.07.45,0,.43.15a1.87,1.87,0,0,1,1.06-.46c-.36.33.2.08-.39.29.58-.14.76,0,1.24-.53-.1.32.53.13.76,0h-.45a4.86,4.86,0,0,1,.81-.32v.37c1.26-.08,1.74-1.46,2.84-1.17.21-.34-.66.09-.5-.27a6.3,6.3,0,0,1,1.4,0c.77-.11.47-.72,1.25-.9-.13-.07-.34-.33.16-.65.53-.17.82.2.53.42-.12.06-.19,0-.2,0-.15.11-.35.24-.1.28l0-.14c.3,0,1-.29.9,0,.35-.26.1-.25-.21-.19a2,2,0,0,0,.64-.17l.14,0,.24.14c-.08-.1-.13-.27,0-.23.94.52.52,0,1.21.17.32.32-.29.35.44.47.38.28,0,.33-.22.36.7,0,1.11.59,1.45.76l-.37,0a2.33,2.33,0,0,1,.54.15l-.1-.29c.18.11.34.18.3.27.25-.07,0-.43.46-.48.21.21.83.18.8.51-.77-.41,0,.33-.72.11a1.17,1.17,0,0,1,.48.2s0,0-.11,0c.67.56.48-.19,1.28.12-.17.13.06.39.21.4-.33-.13-.05-.33.29-.35.46.33.59.12.86.24l-.29-.18c.17-.13.42,0,.8.08,0,.14-.36,0-.26.07.51-.14.78.65,1.41.66.21.21-.09.32.1.48.7,0,.58.49,1.3.56-.1-.29-.15-.25.39-.29l-1.13-.26.81-.06c-.32-.12-.73-.12-.91-.23.39-.06.34,0,.26-.26.31.51,1,.15,1.37.57l-.23.54c.68.54,1.47.24,2.42.77l-.28-.22c.21-.17.62.2,1,.24-.1.17.07.32.17.48,0-.14.72.3,1,0L54,8c.76.41,1.12-.17,1.87.19-.31.11,0,.37-.59.32.26.1.48.22.54.1.1.17.81,0,1,.29.14,0,.25-.22.53-.09a.09.09,0,0,1,0,.09c0-.09.5,0,.32-.25.58.88,2.24.81,2.75,1.57.58.16,1.28.36,1.8.54,0,.05,0,.09-.12,0,.64.44.63-.36,1.36.14.3.45-.49,0-.27.2-.12.65,1,.29,1.4.86l-.14,0c.33.37,1.09.16,1.75.46a.11.11,0,0,0,0,.09,5.85,5.85,0,0,1,2.18.27c-.29.16-.34,0-.31.3.3.08.06-.42.67-.26.14.2.51.47.47.75l-.55-.19c.15.44.71.26,1,.43l-.1.13c.86.27,1-.09,1.91.29l0-.15c.63-.17.33.36.93.28v.43c.22,0,.38,0,.67,0a5.2,5.2,0,0,1,.93.13A10.49,10.49,0,0,0,72.4,15a1.43,1.43,0,0,0,.82.07c-.13,0-.31,0-.31,0a2.9,2.9,0,0,1,1.68.16c-1.07.18-.31.32-.22.46a3.84,3.84,0,0,1-1,.07c.15.1-.21.2-.49.24l-.39,0-.15,0-.07,0-.24.09c.68.38-.38.16-.08.7-.3.16-.42.19-.46.16H70.43c-.28-.08.25-.23.17-.35-.69.21-.37-.14-.88-.12.17.17-.13.38-.54.44l.64.06c-.83.66-1-.17-1.84.49l.23-.3c-.45.29-1.81.68-2.12,1.32-.11,0-.28-.15-.08-.27-1.2.36-2.43,1.46-3.45,1.51l0-.17c-.2.12-.28.41-.61.37,0-.07,0-.17-.07-.15a1.61,1.61,0,0,1-.81.49l.19-.25c-1.21.25-1.61,1-2.53,1.5-.15-.42-1.1-.22-1.58-.12v-.06a19.46,19.46,0,0,0-3.31,1.81c-.93-.17-2.66.78-4,1,.22,0,.09.34-.11.46s-.69.58-.79.19l.11,0c-.36-.29-.92,0-1.38.19l.11.52c-1.49-.27-3.08,1.45-4,1.05-.25.23-.61.37-.86.6l-.08-.27a12.32,12.32,0,0,0-2.23.79l.13-.27c-.57.2-.42,1-.94,1.24l-.3-.34a9.24,9.24,0,0,1-1.17.34l-.57.15a.22.22,0,0,0-.13.06l-.09,0a.3.3,0,0,1-.22,0,.38.38,0,0,1,.09-.09.38.38,0,0,1,.12,0l-.14-.07-.25-.13c-.18-.09-.38-.18-.56-.25-.37-.14-.69-.18-.71.12.13-.36-1-.43-1.59-.48l.19-.23a1.83,1.83,0,0,1-1.29.1c-.13-.09,0-.26.12-.12-.44-.33-.48.1-1-.27l.29-.08c-.5-.22-.5-.11-.85,0s-.94-.44-.92-.7a.66.66,0,0,1-.75,0c0-.11.13-.12.19-.13-.78-.5-1.38-.18-1.86-.67a.2.2,0,0,0,0-.19,10.8,10.8,0,0,1,1.15.49c.09-.24-.43-.49.13-.65a3.75,3.75,0,0,1-1.9-.21.29.29,0,0,1,0-.11h.06a.63.63,0,0,0-.35-.09,2,2,0,0,0-.41-.25c0-.22-.58-.35-.85-.46-.08.27-.42.09-.17.44,0,0,.06,0,.25,0a.27.27,0,0,0,.12,0l0,0,.68.24a.73.73,0,0,1-.78-.19,4.8,4.8,0,0,1-.54.28c-.23-.51-.87-1-.88-1.25-.89-.17-2-.66-2.7-.37-.26,0-.22-.24-.28-.36.16,0,.32.08.42,0-.52-.05-1.42-.49-1.66-.19-.54-.38.45-.18-.39-.44l.16-.07c-1.4-1.17-3-.13-4.46-1.53.11.09.16.14.16.21-1.9-1.1-4.29-1.33-6.1-2.6-.53-.32-.68-.13-1.09-.1V18.3l-.72.09C7.26,18.3,7,17.13,5.77,17.17l.06.24c-.37-.18-1.25-.36-1.11-.55,0,0-.2.15-.31,0l0-.15-1-.11c-.69-.39.34-.54-.71-1-.42-.1-1.3,0-1.19.14s.38.25.33.41l-.39-.07c-.23.41-.69.75.08,1.4l.73,0,.11.29-.52-.19c.22.31.47.21.73.17a.42.42,0,0,0,.17.33l.77-.18c0,.2-.41.24,0,.49.36-.08-.12-.49.4-.43.22.31.07.44.48.4,0,.13-.09.18-.25.17.36,0,.84.26,1.09.09.21.37,1.07.35.88.74a1.9,1.9,0,0,1,1,0c-.71.29,1,.44.71.91.55-.29,1.46.34,2.24.36-.06,0-.16.06-.21,0,.37.18.43.36.64.54.19-.35.82-.2,1.23-.3.33.53-.45.32-.43.71.09-.3.93,0,.86-.28.28.35.27.22.34.6.24-.44.36.05.77-.12.43.43,0,.48.59.57C14,22.58,13.44,22.55,13.44,22.55ZM27.31,27h0L27,26.93Zm1.14.44a4,4,0,0,0-.49-.21.13.13,0,0,1,.19-.13C28.06,27.16,28.31,27.31,28.45,27.46Zm-1.7-2.75c.19,0,.23.1.23.17l-.32-.09,0,0A.41.41,0,0,1,26.75,24.71Z" transform="translate(-1.1)"/><path class="cls-1" d="M26.29,24.92h-.08a.39.39,0,0,0,.08.1l.1-.05Z" transform="translate(-1.1)"/><path class="cls-1" d="M24.05,7.39h0l-.06,0Z" transform="translate(-1.1)"/><polygon class="cls-1" points="43.85 28.91 43.83 28.84 43.75 28.94 43.85 28.91"/><path class="cls-1" d="M17.44,9a.13.13,0,0,0-.1,0Z" transform="translate(-1.1)"/><path class="cls-1" d="M14.72,10.06l-.41.07A2.43,2.43,0,0,0,14.72,10.06Z" transform="translate(-1.1)"/><path class="cls-1" d="M12.6,10.78a.47.47,0,0,0,0,.12h0Z" transform="translate(-1.1)"/><path class="cls-1" d="M46.28,2.85l.08,0C46.57,2.89,46.44,2.86,46.28,2.85Z" transform="translate(-1.1)"/><path class="cls-1" d="M35.87,1.68a3.2,3.2,0,0,1,.27-.25C36,1.48,35.82,1.53,35.87,1.68Z" transform="translate(-1.1)"/><polygon class="cls-1" points="56.34 6.78 56.33 6.78 56.4 6.81 56.34 6.78"/><path class="cls-1" d="M36.59,1.25a.87.87,0,0,0-.45.18A1.18,1.18,0,0,0,36.59,1.25Z" transform="translate(-1.1)"/><path class="cls-1" d="M3.57,14.3l-.11,0a.11.11,0,0,1,0,.05Z" transform="translate(-1.1)"/><path class="cls-1" d="M3.47,14.38l-.1.08S3.46,14.42,3.47,14.38Z" transform="translate(-1.1)"/><path class="cls-1" d="M3.16,14.62l.21-.16C3.29,14.49,3.19,14.52,3.16,14.62Z" transform="translate(-1.1)"/><path class="cls-1" d="M6.36,13.31V13.2A.22.22,0,0,0,6.36,13.31Z" transform="translate(-1.1)"/><path class="cls-1" d="M7.18,12.94c-.2.06-.58,0-.83.18v.08C6.43,13,7.06,13.18,7.18,12.94Z" transform="translate(-1.1)"/><path class="cls-1" d="M11.14,12.7l-.73.21c.16.05.38.12.07.27C11.48,13.12,10.21,13,11.14,12.7Z" transform="translate(-1.1)"/><path class="cls-1" d="M13.36,12c-.35.2.07.14.07.21C13.63,12,13.68,11.94,13.36,12Z" transform="translate(-1.1)"/><path class="cls-1" d="M29,5.61l.06.26C29.36,5.71,29,5.77,29,5.61Z" transform="translate(-1.1)"/><polygon class="cls-1" points="30.42 3.17 30.08 3.14 30.03 3.41 30.42 3.17"/><polygon class="cls-1" points="32.88 4.14 32.76 4.23 33.21 3.95 32.88 4.14"/><path class="cls-1" d="M59.61,10.26l0-.33C59.42,9.91,59.25,10.22,59.61,10.26Z" transform="translate(-1.1)"/><path class="cls-1" d="M71.16,14.36a.58.58,0,0,0,.61.35C71.52,14.59,71.31,14.37,71.16,14.36Z" transform="translate(-1.1)"/><polygon class="cls-1" points="46.02 25.4 46.21 25.22 45.8 25.46 46.02 25.4"/><path class="cls-1" d="M26.84,71.23h.43s0,0,0,0l.33,0-.05,0,0,0h-.69Z" transform="translate(-1.1)"/><path class="cls-1" d="M26.91,71.52a1.86,1.86,0,0,0,.75,0c-.33,0-.19,0-.57,0,0,0,.1-.08.22-.08-.08,0,.07-.06-.14-.08s-.26.14,0,.2A.83.83,0,0,1,26.91,71.52Z" transform="translate(-1.1)"/><path class="cls-1" d="M29.35,75.06l0,0S29.34,75.06,29.35,75.06Z" transform="translate(-1.1)"/><path class="cls-1" d="M32.13,75.37s0,0,0,.08S32.14,75.4,32.13,75.37Z" transform="translate(-1.1)"/><path class="cls-1" d="M32.59,75.74l0,0S32.58,75.76,32.59,75.74Z" transform="translate(-1.1)"/><path class="cls-1" d="M29.35,75.06l.06.13C29.44,75.08,29.39,75.1,29.35,75.06Z" transform="translate(-1.1)"/><path class="cls-1" d="M27.78,71.9h-.09a.05.05,0,0,1,0,0Z" transform="translate(-1.1)"/><path class="cls-1" d="M28,74.74h0l-.09.1Z" transform="translate(-1.1)"/><path class="cls-1" d="M27.14,74.06s.22-.16.32-.23a.39.39,0,0,1-.18.09A.92.92,0,0,0,27.14,74.06Z" transform="translate(-1.1)"/><path class="cls-1" d="M26.74,72.4l0,0Z" transform="translate(-1.1)"/><path class="cls-1" d="M28.65,75.17a.62.62,0,0,1,0,.1A.17.17,0,0,0,28.65,75.17Z" transform="translate(-1.1)"/><path class="cls-1" d="M51.87,71.87l.05,0Z" transform="translate(-1.1)"/><polygon class="cls-1" points="52.19 71.23 52.26 71.23 52.26 71.23 52.27 71.23 52.27 71.23 52.27 71.23 52.27 71.24 52.28 71.24 52.44 71.25 52.35 71.24 52.31 71.23 52.28 71.23 52.27 71.23 52.19 71.23"/><path class="cls-1" d="M33.43,76.1h0S33.41,76.12,33.43,76.1Z" transform="translate(-1.1)"/><path class="cls-1" d="M41.1,75.89c-.09-.25.14-.32,0-.6C41.12,75.4,41,75.73,41.1,75.89Z" transform="translate(-1.1)"/><path class="cls-1" d="M27.75,71.92a0,0,0,0,1,0,0S27.76,71.93,27.75,71.92Z" transform="translate(-1.1)"/><path class="cls-1" d="M41.11,75.29h0l0,0Z" transform="translate(-1.1)"/><path class="cls-1" d="M35.35,75.93a.37.37,0,0,0,0-.12A1,1,0,0,0,35.35,75.93Z" transform="translate(-1.1)"/><path class="cls-1" d="M33.92,75.53l0,0S33.93,75.53,33.92,75.53Z" transform="translate(-1.1)"/><path class="cls-1" d="M36.1,75.53s0,.06,0,0v0S36.12,75.58,36.1,75.53Z" transform="translate(-1.1)"/><path class="cls-1" d="M36.87,75.53v0h0Z" transform="translate(-1.1)"/><path class="cls-1" d="M51.08,73.14l.17.19C51.13,73.18,51.15,73.07,51.08,73.14Z" transform="translate(-1.1)"/><path class="cls-1" d="M27.63,71.94l.12,0h0S27.65,71.92,27.63,71.94Z" transform="translate(-1.1)"/><path class="cls-1" d="M36.13,73.32l.12,0A.17.17,0,0,0,36.13,73.32Z" transform="translate(-1.1)"/><path class="cls-1" d="M46.32,73.58l0,0S46.32,73.55,46.32,73.58Z" transform="translate(-1.1)"/><path class="cls-1" d="M36.62,73.32a.44.44,0,0,0,.07.19s0,0,0-.07Z" transform="translate(-1.1)"/><path class="cls-1" d="M51.25,73.34h0Z" transform="translate(-1.1)"/><path class="cls-1" d="M51.2,72.49c-.05.05.24.27.39.43s-.23-.16-.38-.27c0,.1.23.38.18.4a.55.55,0,0,1-.1-.11c.14.27-.13.12,0,.47l-.06-.07a3.77,3.77,0,0,1,.3.4s.06.25-.09.06c0,0,0-.1-.05-.16v.11c-.22-.27,0-.13-.15-.35,0,.14,0,.44-.06.39-.17-.29.07-.18-.15-.4l.15.07c-.35-.42.06,0-.3-.45-.14,0,0,.22-.15.17.06.18.13.25.19.43,0,.39-.46-.73-.39-.27,0,.22.18.63,0,.45l-.09-.38c-.11,0,.09.55-.1.33,0-.15.06-.14,0-.18-.15-.28,0,.22-.06.24l-.09-.33c-.09.07-.19.34-.33.41a1.08,1.08,0,0,0,0-.31c-.12.18-.48,0-.69-.24l-.09.29s0-.13,0-.18,0,.18-.05.3-.07-.17,0-.26c-.16.25-.45.54-.62.22l0-.09c-.13-.11-.15.61-.27.33l0,0c-.29-.13-.61.14-.82-.3,0,.42-.29-.19-.3.4-.17-.29-.12-.4-.35-.59-.06,0-.09.36-.17.43v-.31l-.1.32-.06-.37-.07.08a.4.4,0,0,1,.06.23c-.11.14-.27-.22-.27-.37l-.27.26a.52.52,0,0,1,.09-.25c-.14.32,0-.32-.16,0a.69.69,0,0,1,0,.25.19.19,0,0,0-.32-.11l0-.21c-.2-.06-.42.1-.63.1.07.1.06.46,0,.5l0-.33c0,.21.06.13,0,.37-.08,0-.06-.37,0-.47l-.1.11c0-.1,0-.15,0-.27,0,.2-.18-.33-.23,0v-.1c-.22,0-.32.11-.5.13,0,.28-.07.22-.12.45-.13-.09-.28-.31-.44-.29s0,.24-.08.4c0-.25-.16-.23-.08-.41a.79.79,0,0,0-.48.26.71.71,0,0,1,0,.24s-.1-.11-.09-.23v0c-.27.38-.62-.75-.84-.21l0,0-.23.28c-.1,0,.07-.2,0-.35-.24.42-.38-.07-.57.22-.16-.76-.55,0-.75-.43v.18c-.05.17-.06-.1-.1-.14,0,.13,0,.16,0,.25-.45.22-.93-.26-1.39-.42-.17,0-.1.92-.31.5l.06-.33c-.34.39-.7,0-1,.32,0-.08,0-.18,0-.17-.07-.24-.26,0-.26.18-.05,0,0-.18,0-.28s-.18.31-.22.07a.15.15,0,0,1,0-.1c-.05.12-.22,0-.17.25-.13-.13-.24.12-.34,0-.07.31-.22-.15-.24.29,0-.45-.22-.37-.3-.15,0-.14-.07-.14,0-.33-.09,0-.17.09-.15.32-.17-.54-.34.43-.43-.26a2.8,2.8,0,0,1-.76.51c0-.45.27,0,.26-.51-.23.18-.36.57-.59.46-.06-.06,0-.2.05-.27-.23.18-.44,0-.64.2a.25.25,0,0,1,0-.12s-.09-.07-.09.14l0-.06c.06.3-.16.62-.17.78.07-.59-.2-.15-.09-.89a.44.44,0,0,0,0,.27s-.06-.12,0-.27c-.14.11-.09.33-.22.32s0-.13,0-.25c-.06.19-.13.39-.24.3s0-.14,0-.13c-.19,0-.33.51-.53.32.06-.43-.07-.14-.09-.51l-.11.11,0,.18c-.1,0-.19.27-.27.14l.07-.15-.18.07.1.14c-.1.2,0,.48-.12.37,0,0-.09,0-.14-.22h0c0,.12-.1.24-.17.15s0-.42,0-.49c-.05.31-.23.08-.29.41a1.1,1.1,0,0,0,0-.31l0,.25a.42.42,0,0,1,0-.27c-.14,0,0,.47-.12.27a.93.93,0,0,1,0-.1c-.16-.11-.31.16-.46,0,0-.38.13-.1.08-.41-.21.06-.46.45-.64.35l0,0c0,.53-.12-.27-.22,0a.69.69,0,0,0,0-.23c-.1-.09-.23.11-.46.23l.05-.13c0-.14-.16-.11-.21-.19-.06.12-.1.08-.13.28,0-.41-.11-.34-.26-.28s-.33.12-.25-.21c0,0,.11-.07.09-.08h-.21c-.12.2-.06.13-.12.3s-.21.16-.25.13c.16-.07.21-.3.26-.43l-.13.18c.17-.39-.29.36-.24,0l.08-.09c-.08,0-.22.11-.24,0,.16-.21.12,0,.27-.22-.06,0-.46.27-.33,0,.08,0,.11,0,.19,0,.15-.29.1-.23.09-.3h0l0-.19,0,.08c-.57.41-.22,0-.65.14.42-.16.21-.14.45-.32a.6.6,0,0,1,.17-.21c-.22.1.11-.17-.23,0,.08-.06,0-.06.19-.18-.09,0-.13.1-.24.17-.35.07.23-.41-.24-.34-.24,0-.54,0-.76-.06a.55.55,0,0,1,.35-.07c.11-.12.07-.16,0-.21a.59.59,0,0,0,.25-.09s-.35.06-.23,0,.28,0,.39,0c-.1,0-.3-.06-.39-.11a.94.94,0,0,1,.37,0,.7.7,0,0,0-.45-.15l-.09.07s.23,0,.28,0c.22,0-.08.1-.17.12l-.07,0c-.56.16.12.2.12.29l-.42.06.37,0c-.1,0-.32.14-.39.1-.18.14.15,0,0,.17l-.07,0,.15,0c-.09,0-.28.12-.24,0-.17.23.38.12.11.29h0c.22.14.29-.1.68-.12l-.63.43.28-.12s0,.07-.11.12c.23,0,.11-.07.31-.13-.19.23.25.16-.15.45.22-.1.1-.18.29-.18-.41.32.15,0,0,.26s-.17,0-.31.21c.4-.23,0,.22.18.23.28-.24.23,0,.42,0-.09.08.05.33.09.51l0,0c.25-.27.31-.14.43-.14-.13.18-.19.24-.29.28l.08.06c.09-.08.15-.12.22-.12l-.17.22c.13,0,.39-.14.45.09.12-.22.23-.68.43-.77a1,1,0,0,1-.21.37s.09-.08.09,0l-.16.18c0,.12.12-.16.16-.12s0,.15-.1.29,0-.1-.06,0a.47.47,0,0,1,0,.35c0-.1.11-.24.16-.24s0,.23,0,.35c.08-.11.12,0,.22-.23,0,0,0,.15,0,.23.11-.09.32,0,.33-.27v0h0c.26-.23.39.25.63.16v.09c.13-.1.29,0,.38-.26a.5.5,0,0,1,.06.3c.08-.07.09-.18.22,0-.09.17,0,.15-.09.13.11.08.13.24.25,0,0,.25.09.32.14.24l-.08-.18c.06,0,.11,0,.17,0l0,.33c.22.41.4-.69.58,0,.06-.23-.13-.16-.07-.44.1,0,.21.53.24.53.14.18.14-.49.28-.36,0-.12,0-.44.08-.55s.13.5.06.59,0,0,0-.06a.2.2,0,0,0,0,.22v-.12c.05.12.2.11.16.3a.17.17,0,0,0,0-.25c.13.17.21,0,.34.12,0-.07,0-.21,0-.21.21.15.09-.22.23-.27.08.18,0,.43.11.28a.49.49,0,0,1,0,.41c.13-.23.24.15.31.19l-.07.1a.11.11,0,0,1,.11-.06l0-.24s.07,0,.07.15c0-.16,0-.4,0-.61.05.12.16-.13.17.18-.16-.1,0,.32-.11.37s0,0,.09,0a.11.11,0,0,1,0,.08c.15.28.07-.36.23-.35,0,.18,0,.34.06.3s0-.3,0-.43c.1.14.11-.11.17-.09l-.06-.06c0-.18.07-.16.14-.21,0,.13-.06.09,0,.15.08-.31.18.32.29.11,0,.12,0,.34,0,.42.13-.23.14.24.27,0,0-.24,0-.18,0-.41l-.22.17.14-.35c-.06,0-.14.15-.18.11a.39.39,0,0,0,0-.33c.09.35.18-.21.28,0v.59c.15.26.27-.3.47-.15l-.06-.11c0-.23.12,0,.19-.12a1.07,1.07,0,0,0,.06.39c0-.15.15,0,.17-.38l.09.26c.16.1.18-.57.34-.5,0,.22,0,.36-.08.51,0,0,.1,0,.1-.1,0,.12.14-.27.19-.08,0-.08,0-.29.09-.27v.09c0-.09.09-.13,0-.35.16.62.45,0,.59.49a1.15,1.15,0,0,1,.35-.15c0,.06,0,.1,0,.08.14.18.09-.57.25-.36s-.08.17,0,.29c0,.65.19-.09.3.29l0,0c.09.22.21-.25.34-.2v.1a.87.87,0,0,1,.4-.53c0,.25-.06.13,0,.39.06,0,0-.42.1-.49a1.62,1.62,0,0,1,.13.54h-.11c.06.36.15,0,.2.05v.16c.17,0,.17-.45.35-.42l0-.12c.1-.38.09.22.19-.07l0,.4A2.1,2.1,0,0,1,39.6,75a1.89,1.89,0,0,1-.29.62.26.26,0,0,0,.26-.22s-.06.13-.09.07c.08-.31.19-.46.32-.46,0,.77.34.2.43.79.23-.28.46.12.72.08-.09-.6.08,0,.07-.63.06,0,.08,0,.09,0l.19.36c0,.18-.06.14-.06.28s.06.25.15.42c0-.22,0-.32.12-.23l-.1-.28c.19-.33.16.51.35.19l-.06.19c.1-.12.37,0,.46-.49,0,.07,0,.24,0,.28.23.08.52-.52.71-.22l0,.15s.08-.28.13-.13S43,76,43,76s.12-.26.18-.17l0,.16c.23.2.35-.41.54-.51a.75.75,0,0,0,.27.66v.06c.27,0,.46-.37.7-.54.16.48.52.2.77.47a.63.63,0,0,1,0-.39c.06.09.16-.3.15.1h0c0,.4.17.29.26.3v-.52c.25.76.64-.29.78.4.05-.13.13-.13.19-.26V76a.5.5,0,0,0,.45,0l0,.2c.11,0,.14-.81.24-.83l0,.42c.19,0,.39.37.59,0,0,.06,0,.18,0,.2s.36.28.33-.3c0,.38.2,0,.31-.13l0,.28c.09-.35.09-.45.22-.55s0,.22,0,.15c.1.15.07-.26.19-.11l0,.17c.1,0,.09-.07.15-.28s.19.07.21.32c0-.15.07-.35.13-.28a.39.39,0,0,1,0,.18c.17.19.24-.32.38,0a.62.62,0,0,0,0,.16c-.18,0-.26,0-.26,0,0,.26.11.31,0,.66.08-.19.28-.62.41-.51a.94.94,0,0,1,0,.09l0,0s.07,0,.09,0,.08.07.12.06c0,.21.19.09.26.09,0-.28.05-.25-.07-.46,0,0,0,0,0,.05l0,0v0l-.16,0c0-.15.07-.27.17-.13V75c.15.38.37.54.45.77.18-.2.48-.25.4-.79,0-.08.12.12.17.19s0,.06,0,.14c.06-.16.3-.19.16-.53.2.08.08.34.23.2l0,.11c.32.15.36-.14.36-.41s0-.5.4-.36a.25.25,0,0,1-.12-.07c.29,0,.41-.28.52-.5a.75.75,0,0,1,.55-.51c.16-.08-.05-.2-.17-.35l.28.1-.26-.27c-.18-.24.83-.08.42-.47l-.2,0c.06-.08-.05-.29.17-.23,0,0-.2-.07-.1-.08l.16,0-.23-.25c.13-.16.62.1.67-.17a.8.8,0,0,0-.56-.26s-.1.09-.26.09l-.08-.08h-.84l-.15,0a2,2,0,0,0-.28.06l.28.1-.23,0v-.08c-.21,0,0,.06.1.11a.88.88,0,0,0-.25,0l.43.14c-.18,0-.35-.09-.46,0,.2.07.41,0,.53.11-.21,0-.38,0-.21,0a.69.69,0,0,1-.24-.07c.14.07,0,.12.27.2-.26,0,0,.17-.39,0,.1,0,.3.17.3.22-.47-.25-.08.13-.59-.11.41.23.12.25.3.45l-.07-.06c-.06,0-.19,0-.28-.06a2,2,0,0,1,.53.52c-.36-.17-.35-.3-.67-.49.27.18.2.27.42.41a1.38,1.38,0,0,1-.39-.21c.38.31.05.08.25.31-.24-.11-.36-.29-.3-.14A.66.66,0,0,1,51.2,72.49ZM49.94,74h0l0,0Zm-.19,0a.1.1,0,0,0,.09,0c0,.1,0,.2,0,.2S49.79,74.07,49.75,74Zm.64,1.91s-.06,0-.08-.06a.25.25,0,0,0,.08,0v0A.33.33,0,0,1,50.39,75.89Z" transform="translate(-1.1)"/><path class="cls-1" d="M50.43,75.51s0,0,0,0l0-.06v.09Z" transform="translate(-1.1)"/><path class="cls-1" d="M29.33,75h0v0Z" transform="translate(-1.1)"/><polygon class="cls-1" points="45.48 73.45 45.48 73.52 45.5 73.46 45.48 73.45"/><path class="cls-1" d="M28.62,73.62a.15.15,0,0,0,0-.07Z" transform="translate(-1.1)"/><path class="cls-1" d="M28.31,73.28l0-.12A.49.49,0,0,0,28.31,73.28Z" transform="translate(-1.1)"/><path class="cls-1" d="M28.19,72.93l-.1.07h0Z" transform="translate(-1.1)"/><path class="cls-1" d="M33.89,73.65h0C33.94,73.58,33.92,73.6,33.89,73.65Z" transform="translate(-1.1)"/><path class="cls-1" d="M31.9,74.31l.06-.14S31.9,74.15,31.9,74.31Z" transform="translate(-1.1)"/><polygon class="cls-1" points="35.02 73.31 35.02 73.32 35.03 73.32 35.02 73.31"/><path class="cls-1" d="M32.05,74.18c0-.06-.06-.05-.09,0S32,74.22,32.05,74.18Z" transform="translate(-1.1)"/><path class="cls-1" d="M27.75,71.61h0Z" transform="translate(-1.1)"/><path class="cls-1" d="M27.71,71.6h0Z" transform="translate(-1.1)"/><path class="cls-1" d="M27.6,71.56l.08,0S27.68,71.56,27.6,71.56Z" transform="translate(-1.1)"/><path class="cls-1" d="M27.72,72.06l.1,0Z" transform="translate(-1.1)"/><path class="cls-1" d="M27.79,72.17S28,72,27.9,72l-.08,0C28,72,27.62,72.2,27.79,72.17Z" transform="translate(-1.1)"/><path class="cls-1" d="M27,73.34l0-.18c-.08.07-.18.18-.24.13C26.54,73.64,26.89,73.13,27,73.34Z" transform="translate(-1.1)"/><path class="cls-1" d="M27.14,73.84c-.1,0-.13.1-.18.14C27.08,74,27.1,74,27.14,73.84Z" transform="translate(-1.1)"/><path class="cls-1" d="M30.42,75.37v.26C30.47,75.59,30.41,75.53,30.42,75.37Z" transform="translate(-1.1)"/><polygon class="cls-1" points="29.93 74.05 29.88 73.89 29.85 74.13 29.93 74.05"/><polygon class="cls-1" points="30.29 75.87 30.27 75.91 30.37 75.81 30.29 75.87"/><path class="cls-1" d="M36.73,75.78v-.31S36.67,75.88,36.73,75.78Z" transform="translate(-1.1)"/><path class="cls-1" d="M39,75.46c0,.16.09.26.13.1S39.07,75.42,39,75.46Z" transform="translate(-1.1)"/><polygon class="cls-1" points="44.87 75.97 44.82 76.08 44.91 75.99 44.87 75.97"/><path class="cls-1" d="M52.62,71.23c.09,0,.28,0,.24,0l-.33,0Z" transform="translate(-1.1)"/><path class="cls-1" d="M53.22,70.94a1.86,1.86,0,0,0-.75,0c.32,0,.19,0,.57,0,0,0-.1.08-.23.08.09,0-.06.06.14.07s.26-.14,0-.19A.83.83,0,0,1,53.22,70.94Z" transform="translate(-1.1)"/><path class="cls-1" d="M50.77,67.4l0,0S50.78,67.4,50.77,67.4Z" transform="translate(-1.1)"/><path class="cls-1" d="M48,67.08s0,0,0-.07A.11.11,0,0,0,48,67.08Z" transform="translate(-1.1)"/><path class="cls-1" d="M47.54,66.72l0,0S47.54,66.69,47.54,66.72Z" transform="translate(-1.1)"/><path class="cls-1" d="M50.77,67.4l-.05-.13C50.69,67.38,50.74,67.36,50.77,67.4Z" transform="translate(-1.1)"/><path class="cls-1" d="M52.35,70.56h.09l0,0Z" transform="translate(-1.1)"/><path class="cls-1" d="M52.14,67.71l0,0,.09-.1Z" transform="translate(-1.1)"/><path class="cls-1" d="M53,68.4s-.22.15-.32.23a.39.39,0,0,1,.18-.09Z" transform="translate(-1.1)"/><path class="cls-1" d="M53.39,70.06l0,0Z" transform="translate(-1.1)"/><path class="cls-1" d="M51.47,67.28a.19.19,0,0,0,0-.09Z" transform="translate(-1.1)"/><path class="cls-1" d="M28.26,70.59l-.05,0Z" transform="translate(-1.1)"/><polygon class="cls-1" points="25.67 71.23 25.66 71.21 25.5 71.21 25.67 71.23"/><path class="cls-1" d="M46.7,66.36h0S46.71,66.34,46.7,66.36Z" transform="translate(-1.1)"/><path class="cls-1" d="M39,66.57c.09.25-.14.32,0,.6C39,67.06,39.14,66.73,39,66.57Z" transform="translate(-1.1)"/><path class="cls-1" d="M52.38,70.54a0,0,0,0,1,0,0S52.36,70.53,52.38,70.54Z" transform="translate(-1.1)"/><path class="cls-1" d="M39,67.17h0v0Z" transform="translate(-1.1)"/><path class="cls-1" d="M44.78,66.53a.37.37,0,0,0,0,.12A1,1,0,0,1,44.78,66.53Z" transform="translate(-1.1)"/><path class="cls-1" d="M46.21,66.93l0,0A.14.14,0,0,0,46.21,66.93Z" transform="translate(-1.1)"/><path class="cls-1" d="M44,66.92s0-.06-.05,0v0S44,66.88,44,66.92Z" transform="translate(-1.1)"/><path class="cls-1" d="M43.26,66.93v0h0Z" transform="translate(-1.1)"/><path class="cls-1" d="M29,69.32l-.16-.2C29,69.28,29,69.39,29,69.32Z" transform="translate(-1.1)"/><path class="cls-1" d="M52.5,70.52l-.12,0h0Z" transform="translate(-1.1)"/><path class="cls-1" d="M44,69.14l-.12,0A.17.17,0,0,0,44,69.14Z" transform="translate(-1.1)"/><path class="cls-1" d="M33.81,68.87l0,0S33.81,68.91,33.81,68.87Z" transform="translate(-1.1)"/><path class="cls-1" d="M43.51,69.14a.44.44,0,0,0-.07-.19s0,0,0,.07Z" transform="translate(-1.1)"/><path class="cls-1" d="M28.88,69.12Z" transform="translate(-1.1)"/><path class="cls-1" d="M28.93,70c.05,0-.24-.26-.39-.42s.23.15.38.27c0-.1-.23-.38-.18-.41a1.27,1.27,0,0,1,.1.12c-.14-.27.13-.12,0-.47l.06.07a3,3,0,0,1-.3-.41s-.06-.24.09,0c0,0,0,.09,0,.16l0-.11c.23.27,0,.13.16.35,0-.14-.05-.44.06-.39.17.29-.08.18.15.39L28.92,69c.35.42-.06,0,.3.45.13,0,0-.22.15-.17-.06-.18-.13-.25-.19-.43,0-.39.46.72.39.27-.06-.22-.18-.63,0-.45l.09.37c.11,0-.09-.54.1-.33,0,.16-.06.15,0,.19.15.27,0-.22.06-.24l.08.33c.1-.07.2-.35.34-.41a.81.81,0,0,0,0,.31c.12-.18.48,0,.68.24l.09-.3A.28.28,0,0,1,31,69c.09.11,0-.18.05-.3s.07.17,0,.26c.16-.25.46-.54.63-.22l0,.08c.13.12.14-.6.27-.32l0,0c.29.13.6-.14.82.3,0-.42.28.19.3-.4.16.29.12.4.35.59.06,0,.09-.37.16-.43v.31l.1-.32.05.37.07-.08a.41.41,0,0,1-.05-.23c.11-.14.27.21.27.37l.26-.26a.53.53,0,0,1-.08.25c.14-.32,0,.32.15,0a.93.93,0,0,1,0-.24.19.19,0,0,0,.31.11l0,.21c.2,0,.41-.1.63-.1-.08-.1-.06-.47,0-.5l0,.33c0-.21-.07-.13,0-.37.08,0,0,.37,0,.47l.1-.11c0,.1,0,.15,0,.27,0-.2.17.33.23,0v.09c.22,0,.32-.11.49-.12,0-.28.08-.22.13-.45.13.09.28.31.43.29s0-.24.09-.41c0,.26.16.24.08.42a.79.79,0,0,0,.48-.26.42.42,0,0,1,0-.24s.1.11.09.23v0c.27-.38.62.75.83.21v0l.22-.28c.11,0-.06.19,0,.35.24-.43.38.06.57-.22.16.75.54-.05.75.43V69c0-.17.06.1.1.14,0-.14-.06-.16,0-.25.45-.22.93.26,1.39.42.17,0,.09-.92.31-.5l-.06.33c.34-.39.69,0,1-.32,0,.08,0,.17-.06.17.07.24.26,0,.27-.18,0,0,0,.18,0,.28s.18-.31.21-.07a.11.11,0,0,1,0,.09c0-.11.22,0,.17-.24.13.13.24-.13.34,0,.07-.31.22.15.24-.29,0,.45.22.36.3.15,0,.14.06.14,0,.33.09,0,.18-.09.16-.32.17.54.34-.44.43.26a2.86,2.86,0,0,1,.76-.52c0,.46-.27,0-.26.52.23-.18.36-.57.59-.46.06.06,0,.19,0,.27.23-.18.44,0,.64-.2a.28.28,0,0,1,0,.12s.09.07.09-.14l0,.06c-.07-.3.16-.63.17-.78-.07.58.2.14.09.89a.55.55,0,0,0,.05-.28s0,.12,0,.28c.15-.11.1-.33.23-.32s0,.13,0,.25c.06-.19.13-.39.24-.3s0,.13,0,.13c.19,0,.32-.51.53-.33-.06.44.07.15.08.52l.11-.11,0-.18c.1,0,.18-.27.27-.15l-.07.16.18-.07L48,68.29c.1-.19,0-.47.12-.36s.1,0,.15.22h0c.05-.12.1-.24.17-.15s0,.41,0,.49c.05-.31.23-.08.29-.42a2,2,0,0,0,0,.32l0-.26a.38.38,0,0,1,0,.28c.14,0,0-.47.12-.27,0,0,0,.06,0,.1.17.1.32-.16.47,0,0,.38-.13.09-.08.41.21-.07.46-.45.64-.36l0,0c.05-.53.13.27.23,0a1,1,0,0,0-.05.24c.11.09.24-.11.47-.23l-.06.13c0,.13.16.11.22.19.06-.12.09-.08.13-.28,0,.41.11.33.26.28s.33-.13.25.21c0,0-.11.07-.1.08l.22,0a.82.82,0,0,0,.12-.3c.1-.1.21-.16.25-.12-.16.07-.21.3-.26.43a2,2,0,0,1,.13-.18c-.17.39.29-.36.24,0l-.08.09c.08,0,.22-.11.24,0-.16.21-.12,0-.27.22.06,0,.46-.27.33,0-.08,0-.11,0-.19,0-.16.28-.1.23-.09.3h0l0,.19,0-.08c.57-.41.22,0,.65-.14-.42.16-.21.14-.45.32a.72.72,0,0,1-.18.21c.23-.1-.1.17.23,0-.07.06,0,.06-.19.18.1,0,.14-.11.24-.17.35-.07-.22.41.25.34.24,0,.54,0,.75.06a.63.63,0,0,1-.35.07c-.1.12-.06.16.06.2a.81.81,0,0,0-.25.1s.35-.06.23,0-.28,0-.39,0c.1,0,.3.06.39.11a.94.94,0,0,1-.37,0,.63.63,0,0,0,.45.14l.09-.06s-.23,0-.28,0c-.22,0,.08-.1.17-.13l.07,0c.56-.15-.13-.19-.12-.28l.41-.06-.36,0c.1-.06.32-.14.39-.1.18-.14-.15,0,0-.17a.11.11,0,0,1,.07,0l-.15,0c.09,0,.27-.11.24,0,.16-.23-.38-.12-.11-.29h0c-.23-.14-.29.1-.68.12l.63-.43-.28.12s0-.07.11-.12c-.23,0-.11.07-.31.13.19-.23-.25-.16.14-.45-.21.1-.09.18-.29.18.42-.32-.14,0,0-.26s.17,0,.3-.21c-.39.23,0-.22-.17-.23-.28.24-.23,0-.42-.05.09-.08-.06-.33-.09-.51l0,0c-.25.27-.31.14-.43.14.12-.18.19-.24.29-.28l-.08-.06c-.09.08-.15.12-.22.12l.17-.22c-.13,0-.39.14-.45-.09-.12.22-.23.68-.44.77a1.41,1.41,0,0,1,.22-.38s-.09.09-.09,0l.16-.18c0-.12-.12.16-.16.12s0-.15.1-.29,0,.1.06,0a.55.55,0,0,1,0-.36c0,.11-.1.25-.16.25s0-.23,0-.35c-.08.11-.11-.05-.21.23,0,0,0-.15,0-.23-.11.09-.33-.05-.33.27v0h0c-.26.23-.38-.25-.62-.16v-.09c-.14.1-.29,0-.38.25,0,0-.08-.18-.06-.29-.09.07-.1.18-.22,0,.09-.17,0-.15.09-.13-.11-.08-.14-.24-.26,0,0-.25-.08-.32-.13-.24l.08.18a.2.2,0,0,1-.17,0l0-.33c-.23-.41-.41.69-.58,0-.06.23.12.16.07.43-.1,0-.21-.52-.24-.52-.15-.18-.14.49-.29.36,0,.12,0,.44-.07.55-.1-.05-.13-.5-.06-.59s0,0,0,.06a.18.18,0,0,0,0-.22v.12c-.06-.12-.2-.11-.17-.3a.18.18,0,0,0,0,.25c-.13-.17-.21,0-.35-.12,0,.07,0,.21,0,.21-.2-.15-.09.22-.22.27-.08-.18,0-.43-.11-.28-.09-.12,0-.31,0-.41-.12.23-.23-.15-.3-.19l.06-.1a.09.09,0,0,1-.1.06l0,.23s-.07,0-.07-.14c0,.16,0,.4,0,.61-.05-.12-.16.13-.18-.19.17.11,0-.31.12-.36,0,0-.06,0-.1,0a.19.19,0,0,1,0-.08c-.15-.28-.07.36-.23.35,0-.18,0-.34-.07-.3s0,.3,0,.43c-.11-.14-.12.1-.17.09l.06.06c0,.18-.07.16-.14.21,0-.14.06-.09,0-.15-.08.31-.18-.33-.3-.12,0-.12,0-.33,0-.41-.12.23-.13-.24-.26,0,0,.23,0,.18-.05.41l.22-.17-.14.35c.06,0,.13-.15.17-.11s-.06.13,0,.33c-.09-.36-.18.21-.28,0v-.59c-.16-.27-.28.3-.48.15l.07.11c0,.23-.13,0-.19.12a1.69,1.69,0,0,0-.06-.39c0,.15-.15,0-.17.38l-.09-.26c-.16-.1-.18.56-.34.5,0-.22,0-.36.08-.51-.05,0-.1,0-.1.1,0-.13-.14.26-.19.08,0,.08,0,.29-.09.27a.24.24,0,0,1,0-.09c0,.09-.09.13,0,.35-.16-.62-.45,0-.59-.49a1.15,1.15,0,0,1-.35.15c0-.06,0-.1,0-.08-.15-.18-.09.57-.25.36s.08-.17,0-.29c0-.65-.19.09-.3-.29l0,0c-.08-.22-.2.24-.34.2a.31.31,0,0,0,0-.1.84.84,0,0,1-.4.53c0-.25.06-.13,0-.39-.06,0,0,.42-.1.49A1.86,1.86,0,0,1,41.5,67h.11c0-.36-.14,0-.2,0v-.16c-.17,0-.17.44-.35.42l0,.11c-.1.39-.09-.21-.19.07l0-.39a2.08,2.08,0,0,1-.35.46,2.41,2.41,0,0,1,.29-.62.25.25,0,0,0-.25.22s.06-.13.08-.07c-.08.31-.18.46-.31.46,0-.77-.34-.2-.43-.79-.23.28-.46-.12-.73-.08.1.6-.07,0-.06.63-.06,0-.08,0-.09,0l-.19-.36c0-.18.06-.14.06-.28s-.06-.26-.15-.42c0,.22-.05.31-.13.23l.11.28c-.19.33-.16-.51-.35-.19l.06-.19c-.1.11-.37,0-.46.49,0-.07,0-.24,0-.28-.24-.08-.53.52-.71.22l0-.15s-.08.28-.13.13,0-.15,0-.16-.11.26-.17.17L37,66.5c-.23-.2-.35.4-.55.51a.73.73,0,0,0-.27-.66v-.06c-.27-.05-.46.37-.71.54-.15-.48-.52-.2-.76-.47a.72.72,0,0,1-.05.39c-.06-.09-.16.3-.16-.1h0c-.05-.4-.17-.29-.26-.31l0,.53c-.24-.76-.63.29-.77-.4-.06.13-.13.13-.19.26v-.28a.48.48,0,0,0-.45,0l0-.21c-.11,0-.14.82-.25.84l0-.43c-.2,0-.4-.36-.59,0,0-.06,0-.18,0-.2s-.36-.28-.33.3c0-.38-.2,0-.31.13l0-.28c-.09.35-.1.45-.22.55s0-.22,0-.15c-.1-.15-.08.26-.2.11l.05-.18c-.1,0-.1.08-.15.29s-.2-.07-.21-.33c0,.16-.07.36-.13.29a.39.39,0,0,1,0-.18c-.17-.19-.24.32-.38.05a.62.62,0,0,0,0-.16c.18,0,.26,0,.26,0,0-.25-.11-.3,0-.65-.07.19-.27.62-.41.5a.45.45,0,0,0,0-.08v0s-.06,0-.08,0-.08-.07-.13-.06c0-.21-.18-.09-.25-.09.05.27,0,.24.07.46,0,0,0,0,.05,0l0,0v0a.62.62,0,0,1,.16,0c0,.14-.07.27-.17.13v.46c-.15-.38-.37-.54-.46-.77-.17.2-.48.25-.39.79,0,.08-.12-.12-.17-.19s0-.07,0-.14c-.06.16-.3.19-.16.53-.2-.09-.08-.34-.23-.2l0-.11c-.32-.16-.36.14-.36.41s0,.5-.41.36a.31.31,0,0,1,.13.06c-.29,0-.41.28-.52.51a.75.75,0,0,1-.55.51c-.16.08,0,.2.17.35l-.29-.1a3.31,3.31,0,0,0,.27.26c.18.25-.83.08-.43.48l.21,0c-.06.07,0,.29-.17.23,0,0,.2.07.09.08l-.15,0a2.73,2.73,0,0,0,.23.25c-.13.16-.62-.1-.67.17a.88.88,0,0,0,.55.26s.11-.09.27-.09l.07.07A3.76,3.76,0,0,0,28,71.15L27.75,71H28v.07c.22,0,0-.06-.1-.1h.25l-.42-.14c.18,0,.35.09.46.05-.2-.07-.41,0-.54-.11.22,0,.39,0,.22-.05a.77.77,0,0,1,.24.07c-.14-.07,0-.12-.27-.2.26,0,0-.17.39,0-.1,0-.3-.17-.3-.22.47.25.08-.13.59.1-.41-.23-.12-.24-.3-.44l.07.06c.06,0,.19,0,.28.06a1.86,1.86,0,0,1-.53-.52c.35.16.35.3.67.49-.27-.18-.2-.27-.42-.41a1.5,1.5,0,0,1,.38.21c-.37-.31,0-.09-.24-.31.24.1.36.29.3.14A.67.67,0,0,1,28.93,70Zm1.26-1.47h0l-.05,0Zm.19,0a.14.14,0,0,0-.09,0c0-.1,0-.2,0-.2S30.34,68.39,30.38,68.47Zm-.64-1.9s.06,0,.07.06l-.07.05v0A.61.61,0,0,1,29.74,66.57Z" transform="translate(-1.1)"/><path class="cls-1" d="M29.7,67v0l0,.06v-.09Z" transform="translate(-1.1)"/><path class="cls-1" d="M50.8,67.45h0s0,0,0,0Z" transform="translate(-1.1)"/><polygon class="cls-1" points="32.46 69.01 32.46 68.94 32.44 69 32.46 69.01"/><path class="cls-1" d="M51.51,68.84a.09.09,0,0,0,0,.06A.33.33,0,0,0,51.51,68.84Z" transform="translate(-1.1)"/><path class="cls-1" d="M51.82,69.18l0,.12A.49.49,0,0,0,51.82,69.18Z" transform="translate(-1.1)"/><path class="cls-1" d="M51.94,69.53l.1-.07h0Z" transform="translate(-1.1)"/><path class="cls-1" d="M46.24,68.81h0C46.18,68.88,46.21,68.85,46.24,68.81Z" transform="translate(-1.1)"/><path class="cls-1" d="M48.23,68.15a.81.81,0,0,1-.06.13S48.23,68.31,48.23,68.15Z" transform="translate(-1.1)"/><polygon class="cls-1" points="42.92 69.15 42.92 69.14 42.91 69.14 42.92 69.15"/><path class="cls-1" d="M48.08,68.28c0,.06.06,0,.09,0S48.11,68.24,48.08,68.28Z" transform="translate(-1.1)"/><path class="cls-1" d="M52.38,70.84v0h0Z" transform="translate(-1.1)"/><path class="cls-1" d="M52.41,70.86h0S52.44,70.85,52.41,70.86Z" transform="translate(-1.1)"/><path class="cls-1" d="M52.52,70.9l-.07,0S52.44,70.9,52.52,70.9Z" transform="translate(-1.1)"/><path class="cls-1" d="M52.41,70.4l-.1,0Z" transform="translate(-1.1)"/><path class="cls-1" d="M52.34,70.28s-.18.15-.11.17l.08,0C52.16,70.46,52.51,70.26,52.34,70.28Z" transform="translate(-1.1)"/><path class="cls-1" d="M53.16,69.12v.18c.08-.08.19-.18.25-.13C53.59,68.82,53.23,69.33,53.16,69.12Z" transform="translate(-1.1)"/><path class="cls-1" d="M53,68.62c.1,0,.12-.1.17-.14C53.05,68.5,53,68.5,53,68.62Z" transform="translate(-1.1)"/><path class="cls-1" d="M49.71,67.09v-.26C49.65,66.87,49.71,66.93,49.71,67.09Z" transform="translate(-1.1)"/><polygon class="cls-1" points="48 68.41 48.06 68.57 48.09 68.33 48 68.41"/><polygon class="cls-1" points="47.64 66.59 47.67 66.55 47.57 66.64 47.64 66.59"/><path class="cls-1" d="M43.39,66.68l0,.31S43.46,66.58,43.39,66.68Z" transform="translate(-1.1)"/><path class="cls-1" d="M41.09,67c0-.16-.09-.26-.13-.11S41.06,67,41.09,67Z" transform="translate(-1.1)"/><polygon class="cls-1" points="33.07 66.48 33.12 66.38 33.03 66.47 33.07 66.48"/><path class="cls-1" d="M72,68.81c0-.08,0-.28-.07-.24l-.06.33Z" transform="translate(-1.1)"/><path class="cls-1" d="M71.54,68.16a1.33,1.33,0,0,0-.26.72c.15-.3.15-.16.3-.53.07,0,.11.12.09.24,0-.08.11.08.16-.12s-.18-.28-.33-.09A.4.4,0,0,1,71.54,68.16Z" transform="translate(-1.1)"/><path class="cls-1" d="M69.41,63l0,0Z" transform="translate(-1.1)"/><path class="cls-1" d="M69.59,58.93a.07.07,0,0,0,.07,0S69.62,58.92,69.59,58.93Z" transform="translate(-1.1)"/><path class="cls-1" d="M70,58.24l0,0S70,58.25,70,58.24Z" transform="translate(-1.1)"/><path class="cls-1" d="M69.41,63l.1-.11C69.41,62.83,69.43,62.89,69.41,63Z" transform="translate(-1.1)"/><path class="cls-1" d="M70.33,68.62a.19.19,0,0,0,.1-.05h-.08Z" transform="translate(-1.1)"/><path class="cls-1" d="M69.68,64.72v0l.13,0Z" transform="translate(-1.1)"/><path class="cls-1" d="M69.85,65.81a3.31,3.31,0,0,0-.39.08c.11,0,.17,0,.2,0Z" transform="translate(-1.1)"/><path class="cls-1" d="M70.57,67.46h0Z" transform="translate(-1.1)"/><path class="cls-1" d="M69.74,63.75l.1,0Z" transform="translate(-1.1)"/><path class="cls-1" d="M73.85,69.36v0S73.83,69.36,73.85,69.36Z" transform="translate(-1.1)"/><polygon class="cls-1" points="70.89 68.08 70.92 68.06 70.92 67.9 70.89 68.08"/><path class="cls-1" d="M70.32,57h0S70.34,57,70.32,57Z" transform="translate(-1.1)"/><path class="cls-1" d="M73.81,51.05c0-.27.29-.2.31-.51C74.07,50.63,73.8,50.86,73.81,51.05Z" transform="translate(-1.1)"/><path class="cls-1" d="M70.3,68.57l-.06,0Z" transform="translate(-1.1)"/><path class="cls-1" d="M74.12,50.54h0v0Z" transform="translate(-1.1)"/><path class="cls-1" d="M70.15,54.09l-.13,0Z" transform="translate(-1.1)"/><path class="cls-1" d="M69.75,56.25l0-.06A.07.07,0,0,0,69.75,56.25Z" transform="translate(-1.1)"/><path class="cls-1" d="M69.75,53s.06,0,0-.08l0,0S69.8,52.94,69.75,53Z" transform="translate(-1.1)"/><path class="cls-1" d="M69.84,52.05h0v0Z" transform="translate(-1.1)"/><path class="cls-1" d="M77.05,65.89a1.14,1.14,0,0,1-.26,0C77,65.93,77,66.17,77.05,65.89Z" transform="translate(-1.1)"/><path class="cls-1" d="M70.39,68.48a.15.15,0,0,1-.09.09h0A.34.34,0,0,0,70.39,68.48Z" transform="translate(-1.1)"/><path class="cls-1" d="M67.53,52.92l0-.18A.37.37,0,0,0,67.53,52.92Z" transform="translate(-1.1)"/><path class="cls-1" d="M77.08,57.31l0,0S77.12,57.32,77.08,57.31Z" transform="translate(-1.1)"/><path class="cls-1" d="M67.6,52a.51.51,0,0,0,.21-.11l-.06-.05Z" transform="translate(-1.1)"/><path class="cls-1" d="M76.78,65.91h0Z" transform="translate(-1.1)"/><path class="cls-1" d="M76.71,67.75c.15-.22-.24-.31-.39-.47.06-.29.3,0,.52,0,0-.23-.24-.5-.17-.61s.09,0,.15.06c-.2-.28.18-.56-.13-.85h.09a2.32,2.32,0,0,1-.5-.07c0-.1-.2-.21,0-.2,0,0,.08.07.15.11l-.08-.11c.35,0,.09.15.35.2-.08-.23-.34-.48-.24-.61.34,0,.09.36.41.17,0,.08-.1.16-.16.24.56-.13-.06.15.54,0,.13-.33-.14-.47,0-.71-.19-.06-.28,0-.47,0-.33-.35.86-.28.41-.54-.23-.07-.66-.1-.43-.28l.38.06c0-.24-.55-.14-.29-.39.15,0,.13.19.17.15.3-.16-.22-.12-.22-.24l.34,0c0-.26-.3-.55-.36-.83.1,0,.21.06.31,0-.17-.36,0-.77.25-1.12l-.3-.13s.14-.06.19,0c.11-.13-.18,0-.3-.07s.17-.1.26,0c-.25-.25-.54-.69-.22-.94l.08.05c.12-.2-.6-.23-.32-.41l0,0c.12-.42-.14-.9.3-1.22-.42-.07.19-.43-.4-.46.29-.24.4-.17.59-.52,0-.09-.37-.13-.43-.25h.31l-.32-.15.37-.09-.08-.1a.29.29,0,0,1-.23.08c-.14-.17.21-.41.37-.41l-.26-.4c.13,0,.17.08.25.13-.32-.21.32,0,0-.23a.48.48,0,0,1-.24,0,.34.34,0,0,0,.11-.47l.21,0a6.53,6.53,0,0,0-.1-1c-.1.12-.47.09-.5,0l.32,0c-.2-.07-.12.1-.36,0,0-.12.37-.08.47,0l-.11-.15a1.39,1.39,0,0,1,.27,0c-.2-.06.33-.25,0-.34h.09a6.56,6.56,0,0,0-.12-.75c-.28,0-.22-.11-.45-.18.09-.2.31-.42.29-.66s-.24,0-.41-.12c.26,0,.24-.25.42-.13a1.56,1.56,0,0,0-.36-.92c-.09.07-.12.13-.22.12s.06-.2.19-.22h0c-.25-.2-.17-.53-.16-.88s0-.71-.39-.72h0a3.33,3.33,0,0,0-.51-.16c-.1-.18.23,0,.24-.27-.64,0-.56-.58-1.08-.55.06-.41-.23-.55-.54-.6s-.62-.06-.81-.33v.18c-.14.16-.13-.12-.21-.17,0,.14.1.18,0,.26a2.44,2.44,0,0,1-1.18-.1,2.34,2.34,0,0,0-.28-.09l-.39-.07a3.06,3.06,0,0,0-.8,0c-.4.07.09.92-.47.69v-.36a4.21,4.21,0,0,1-.88.73,1.51,1.51,0,0,0-.67.84c0-.08-.11-.14-.06-.19-.29,0-.35.45-.17.55-.08.08-.17-.07-.29-.07s.09.48-.16.45c0,0,0-.07-.06-.11.06.14-.21.42.08.44-.22.2,0,.5-.24.67.29.18-.22.43.22.51a.28.28,0,0,0-.17.53c-.13,0-.14.1-.33,0,0,.14.09.27.33.24-.54.25.43.5-.26.65A4.51,4.51,0,0,1,68.11,55c-.45,0,0-.41-.52-.39.19.34.58.54.47.88-.06.09-.2-.05-.28-.08.19.35,0,.67.21,1a.29.29,0,0,1-.12-.07c0,.06-.07.14.14.13L68,56.37c.3-.1.62.23.78.25-.59-.11-.15.3-.89.14a.45.45,0,0,0,.27.08s-.12.07-.27,0c.11.22.33.14.32.34a1.29,1.29,0,0,1-.25-.06c.19.1.38.2.3.36-.06,0-.14,0-.14,0,0,.29.52.49.33.8-.43-.09-.14.1-.51.12l.11.17.18-.07c0,.15.26.28.14.4l-.15-.1.07.27.14-.16c.19.15.47,0,.37.18,0,0,0,.15-.23.23h0c.12.07.25.14.16.25s-.42,0-.5,0c.31.07.09.34.42.43a.86.86,0,0,0-.31,0l.25.06c-.08.07-.12.08-.28.07,0,.2.48-.07.27.18,0,0,0,0-.09,0-.11.24.16.47,0,.69-.37.07-.09-.19-.41-.12.07.32.46.67.37,1l0,0c.53,0-.26.23,0,.39a.54.54,0,0,0-.24,0c-.08.21.13.43.3.76l-.14,0c-.12.12-.07.33-.13.47.14,0,.11.12.31.07-.77.42.42.8-.23,1.17,0,0-.12-.1-.12-.07l.13.32c.23,0,.14,0,.32-.11s.24.13.24.21c-.15-.14-.37,0-.5.06a1.62,1.62,0,0,1,.22,0c-.41.16.46,0,.19.25h-.12c.07.1.23.17.2.26-.26.07-.13-.08-.35-.07,0,.15.54.21.29.37-.08,0-.1-.13-.18-.18-.29.18-.21.2-.24.32v0l-.08.29.07-.08c.71,0,.24.33.75.37-.49,0-.24.07-.52.18,0,.09-.09.23-.18.24.27,0-.07.3.34.27-.08.06.06.12-.16.23.16.1.12-.13.23-.18.39,0,0,.75.66.68.35.06.59-.18.87-.19,0,.18-.25.27-.25.27a.23.23,0,0,0,.33.19.4.4,0,0,0-.08.26c.12,0,.22-.29.29-.1a1.26,1.26,0,0,1-.26.31,3.82,3.82,0,0,0,.51-.18c0,.17-.15.22-.24.3a.53.53,0,0,0,.55-.27l-.06-.12s0,.23-.09.27-.16-.14-.13-.24l.11,0c.08-.57-.37,0-.55-.15l.24-.34c-.09.08-.2.15-.31.23,0-.12.11-.33.21-.35,0-.23-.17.08-.14-.17a.1.1,0,0,1,0-.06l-.16.05c.07-.06.15-.26.17-.17,0-.29-.44.07-.29-.22h0c-.29-.08-.21.22-.62.32a6.37,6.37,0,0,1,.44-.62l-.24.18s0-.08.07-.15c-.23.06-.09.1-.29.18.14-.28-.34-.25.06-.54-.22.08-.08.21-.3.16.43-.3-.17-.1,0-.34.26-.08.18.08.35-.13-.45.13,0-.24-.11-.28-.35.11-.21-.16-.36-.29.12,0,.16-.35.29-.48h.06c-.37,0-.3-.21-.37-.35a.58.58,0,0,1,.4.11v-.13a.29.29,0,0,1-.22-.15l.27,0c0-.16-.32-.33-.14-.55-.25,0-.71.17-.88,0,.14,0,.37,0,.43,0S69,64,69.08,64l.24.09c.1-.1-.2,0-.18-.13.2,0,.14-.05.3,0s-.08.06,0,.09a.43.43,0,0,1,.3-.22c-.11,0-.27,0-.29-.07s.24-.06.34-.15c-.14,0,0-.15-.29-.15,0-.05.14-.06.22-.08-.13-.09,0-.4-.36-.3l0,0v0h0c-.29-.28.17-.58,0-.86h.1c-.11-.17-.07-.37-.28-.49,0,0,.18-.12.3-.1-.07-.13-.19-.14,0-.33.17.13.15,0,.12.13.09-.16.25-.2,0-.38.25.06.32-.12.24-.2l-.18.12a.31.31,0,0,1,0-.25l.33,0c.4-.34-.69-.61,0-.87-.24-.09-.17.19-.44.11,0-.16.52-.32.52-.37.19-.22-.48-.2-.36-.43-.11,0-.43.06-.54-.11,0-.16.5-.19.59-.09s0,0-.07,0,.1.12.23.06l-.12,0c.12-.08.11-.3.3-.25-.11-.11-.19,0-.26,0,.18-.2,0-.31.12-.52-.06,0-.2.06-.2,0,.15-.3-.22-.13-.28-.34.18-.11.44,0,.28-.16.13-.13.32,0,.42,0-.23-.19.15-.35.19-.46l.09.1a.22.22,0,0,1-.05-.16l-.24.06c0-.06,0-.11.14-.11-.15-.06-.39.05-.6-.07.12-.08-.13-.24.18-.26-.11.24.32,0,.37.18q-.06-.06,0-.15a.12.12,0,0,1,.09,0c.28-.23-.36-.1-.35-.34.18,0,.33-.06.3-.1s-.3.05-.44,0c.14-.16-.1-.17-.08-.25l-.07.09c-.17,0-.15-.11-.21-.22.14,0,.1.1.16.06-.31-.12.32-.27.11-.44.12-.07.34,0,.42-.07-.23-.19.24-.21,0-.4-.24,0-.18.06-.41-.08l.16.33-.34-.21c0,.1.15.21.11.27-.2-.1-.14-.09-.34,0,.36-.13-.2-.26,0-.42H70c.26-.23-.31-.42-.16-.72l-.1.1c-.23,0,0-.19-.13-.29a.8.8,0,0,0,.39-.09c-.14,0,0-.22-.38-.25l.26-.13c.11-.25-.56-.28-.49-.52.21.07.35,0,.51.12,0-.07,0-.14-.1-.15.12,0-.27-.21-.08-.28-.09,0-.29,0-.28-.14a.31.31,0,0,1,.1,0c-.1,0-.13-.13-.35-.06.32-.11.3-.23.3-.37s0-.29.28-.29a.93.93,0,0,1,0-.44s.09,0,.06.06c.24-.06-.45-.36-.16-.45.32.08.09.18.23.19.55.34,0-.24.43-.1v0c.23.09,0-.33.12-.4l.07.07a.68.68,0,0,1,.09-.71c.08.25,0,.15.16.36,0-.07-.23-.35-.12-.49a1.09,1.09,0,0,1,.38.41l-.11.07c.22.3.14-.08.23,0l0,.15c.14-.11,0-.48.26-.51l0-.11c.06-.41.14.2.22-.11l.08.39A1.14,1.14,0,0,1,72.2,50c-.1.29-.3.45-.36.63a.24.24,0,0,0,.14,0,.27.27,0,0,0,.17-.19s-.09.14-.13.08c.12-.31.28-.46.48-.46,0,.77.55.2.56.8.27-.26.41.19.63.25.16-.58.07,0,.33-.54.09,0,.11,0,.1.06a3,3,0,0,1,0,.43c-.06.17-.12.07-.19.19s-.11.25-.15.41c.12-.18.23-.22.22-.11a1.57,1.57,0,0,0,.1-.28c.36-.12-.22.47.11.36l-.17.09c.14,0,.17.21.63,0-.05.05-.19.15-.24.14,0,.17.69.26.43.53h-.15s.29,0,.15.1-.15,0-.16,0,.27.09.19.15l-.17,0c-.09.08,0,.22.15.35s.32.25.37.39a.67.67,0,0,0-.66.41H74.5c0,.41.36.69.54,1.06-.48.23-.2.78-.47,1.16A.45.45,0,0,1,75,56c-.09.09.3.24-.1.23v0c-.4.06-.29.24-.31.38l.53,0c-.77.36.29,1-.4,1.15.13.09.13.2.26.29h-.28a1,1,0,0,0,0,.66l-.21-.06c0,.17.82.22.84.38l-.43,0c0,.3-.36.6,0,.9-.06,0-.18,0-.2-.06,0,.14-.28.54.3.49-.38,0,0,.3.13.46l-.28,0c.35.14.45.14.55.33,0,0-.22,0-.15,0-.15.15.26.12.11.3l-.18-.07c0,.15.08.14.29.23s-.07.29-.33.31c.16,0,.36.11.29.2a.25.25,0,0,1-.18,0c-.19.26.32.38,0,.56a.29.29,0,0,0-.17,0,1,1,0,0,1,0-.36c-.25,0-.3.17-.65,0,.19.13.61.36.49.52l-.09,0,0,0s0,.07,0,.11-.07.08-.07.13c-.22,0-.12.19-.13.27.28,0,.24.1.47,0,0,0,0,0-.05-.07s0,0,0,0h0c0-.05,0-.12,0-.2.14.06.26.13.11.22l.45.12c-.39.11-.6.33-.84.36.15.25.1.59.63.75.07.07-.15.08-.24.11s0-.09-.12-.12c.14.15.06.43.42.46-.16.18-.33-.1-.28.14l-.11,0c-.3.18-.07.29.11.5s.29.48-.15.52a.23.23,0,0,1,.14,0c-.25.16-.31.39-.44.63a.55.55,0,0,1-.68.33c-.17,0-.06.18-.07.38l-.15-.26c0,.13,0,.26,0,.38s-.22,0-.35-.11-.24-.24-.33,0l.06.19c-.1,0-.31.14-.3-.09,0,0,0,.22-.07.11v-.16l-.28.27c-.22-.11,0-.62-.29-.65a.87.87,0,0,0-.3.56c.05,0,.13.1.13.26l-.11.08a1.84,1.84,0,0,0,.17,1.27l.18-.29.06.23h-.15c.09.22.14,0,.21-.1a.58.58,0,0,0,.07.25l.19-.45c0,.19-.08.36,0,.47.09-.21-.08-.41.06-.55.09.21.07.38.2.2a.23.23,0,0,1-.06.25c.13-.15.35-.07.38-.33.16.24.4-.13.48.29a.85.85,0,0,1,.23-.44c0,.58.42-.11.58.43,0-.5.46-.46.55-.84,0,0,0,.12,0,.11.15,0,.27,0,.42,0-.22-.32-.1-.55-.18-.81.4.15.24.41.52.64-.21-.22,0-.47-.21-.6.27,0,.17,0,.47.14-.36-.34,0-.16-.14-.45.32,0,.41.23.43,0C76.69,67.46,76.71,67.75,76.71,67.75Zm0-4.92h0l0,.08Zm0-.35a.66.66,0,0,0,0,.15c-.09,0-.19,0-.19,0S76.6,62.53,76.68,62.48Zm-1.94.73c0-.05,0-.07.07-.08a.22.22,0,0,0,0,.1h0Z" transform="translate(-1.1)"/><path class="cls-1" d="M75.1,63.31l0,0,.07,0-.09,0Z" transform="translate(-1.1)"/><path class="cls-1" d="M69.36,63h0Z" transform="translate(-1.1)"/><polygon class="cls-1" points="76.13 57.7 76.06 57.7 76.12 57.73 76.13 57.7"/><path class="cls-1" d="M68.4,64.9s-.05,0-.07,0Z" transform="translate(-1.1)"/><path class="cls-1" d="M68.41,65.85l-.06.16A.46.46,0,0,0,68.41,65.85Z" transform="translate(-1.1)"/><path class="cls-1" d="M68.52,66.63l.12,0h0Z" transform="translate(-1.1)"/><path class="cls-1" d="M67.87,56.29l0,0C67.8,56.21,67.82,56.25,67.87,56.29Z" transform="translate(-1.1)"/><path class="cls-1" d="M68.52,59.29l-.13-.1C68.37,59.24,68.36,59.29,68.52,59.29Z" transform="translate(-1.1)"/><polygon class="cls-1" points="66.43 52.95 66.44 52.95 66.44 52.92 66.43 52.95"/><path class="cls-1" d="M68.4,59.05a.08.08,0,0,0,0,.14S68.44,59.1,68.4,59.05Z" transform="translate(-1.1)"/><path class="cls-1" d="M71,68.89l0,0s0,0,0,0Z" transform="translate(-1.1)"/><path class="cls-1" d="M71.05,68.87l0,0S71.06,68.84,71.05,68.87Z" transform="translate(-1.1)"/><path class="cls-1" d="M71.2,68.8l-.1,0S71.17,68.88,71.2,68.8Z" transform="translate(-1.1)"/><path class="cls-1" d="M70.07,68.37l-.06.08Z" transform="translate(-1.1)"/><path class="cls-1" d="M69.79,68.22c0,.07,0,.29.17.29l.05-.06C69.88,68.55,69.94,68.12,69.79,68.22Z" transform="translate(-1.1)"/><path class="cls-1" d="M69.89,66.56l0,.19c.07-.09.16-.21.23-.17C70.29,66.22,70,66.77,69.89,66.56Z" transform="translate(-1.1)"/><path class="cls-1" d="M69.77,66c.08.06.14-.06.2-.08C69.86,65.92,69.83,65.91,69.77,66Z" transform="translate(-1.1)"/><path class="cls-1" d="M69.59,61.5h.25C69.81,61.43,69.75,61.51,69.59,61.5Z" transform="translate(-1.1)"/><polygon class="cls-1" points="67.17 60.59 67.01 60.67 67.25 60.72 67.17 60.59"/><polygon class="cls-1" points="68.99 60.05 69.03 60.09 68.94 59.94 68.99 60.05"/><path class="cls-1" d="M70.05,52.25l-.31,0C69.78,52.26,70.13,52.33,70.05,52.25Z" transform="translate(-1.1)"/><path class="cls-1" d="M71.51,50.43c.07.15.15.24.17.08C71.62,50.5,71.54,50.38,71.51,50.43Z" transform="translate(-1.1)"/><polygon class="cls-1" points="73.6 56.78 73.49 56.71 73.58 56.84 73.6 56.78"/><path class="cls-1" d="M7,67.48c0,.09,0,.29.05.24l0-.33Z" transform="translate(-1.1)"/><path class="cls-1" d="M7.46,68.06a1.22,1.22,0,0,0,0-.75c0,.32,0,.19,0,.58-.06,0-.12-.09-.12-.22,0,.09-.09-.07-.11.14s.21.26.28,0A.58.58,0,0,1,7.46,68.06Z" transform="translate(-1.1)"/><path class="cls-1" d="M10.53,63l0,0Z" transform="translate(-1.1)"/><path class="cls-1" d="M10.71,58.93a.07.07,0,0,0,.07,0S10.74,58.92,10.71,58.93Z" transform="translate(-1.1)"/><path class="cls-1" d="M11.07,58.24l0,0S11.1,58.25,11.07,58.24Z" transform="translate(-1.1)"/><path class="cls-1" d="M10.53,63l.1-.11C10.52,62.83,10.55,62.89,10.53,63Z" transform="translate(-1.1)"/><path class="cls-1" d="M8,67.08v.1l0-.05Z" transform="translate(-1.1)"/><path class="cls-1" d="M10.8,64.72v0l.13,0Z" transform="translate(-1.1)"/><path class="cls-1" d="M10.65,66.31s-.24-.13-.35-.18c.1.05.15.09.16.13A.74.74,0,0,0,10.65,66.31Z" transform="translate(-1.1)"/><path class="cls-1" d="M8.74,68l0,.06A.14.14,0,0,1,8.74,68Z" transform="translate(-1.1)"/><path class="cls-1" d="M10.86,63.75l.1,0Z" transform="translate(-1.1)"/><path class="cls-1" d="M5.74,66.79v0S5.75,66.79,5.74,66.79Z" transform="translate(-1.1)"/><polygon class="cls-1" points="5.93 68.22 5.91 68.24 5.9 68.39 5.93 68.22"/><path class="cls-1" d="M11.43,57h0S11.46,57,11.43,57Z" transform="translate(-1.1)"/><path class="cls-1" d="M4.06,49c.26.13-.07.42.28.53C4.25,49.48,4.33,49.06,4.06,49Z" transform="translate(-1.1)"/><path class="cls-1" d="M8,67.11l0,0S8,67.09,8,67.11Z" transform="translate(-1.1)"/><path class="cls-1" d="M4.34,49.56Z" transform="translate(-1.1)"/><path class="cls-1" d="M11.27,54.09l-.13,0Z" transform="translate(-1.1)"/><path class="cls-1" d="M10.87,56.25l0-.06A.09.09,0,0,0,10.87,56.25Z" transform="translate(-1.1)"/><path class="cls-1" d="M10.87,53s.06,0,0-.08l0,0S10.91,52.94,10.87,53Z" transform="translate(-1.1)"/><path class="cls-1" d="M10.7,51.59l0,0,0,0Z" transform="translate(-1.1)"/><path class="cls-1" d="M4.29,65.45l-.24.08C4.24,65.48,4.33,65.57,4.29,65.45Z" transform="translate(-1.1)"/><path class="cls-1" d="M8,67.23a.63.63,0,0,1,0-.12l0,0Z" transform="translate(-1.1)"/><path class="cls-1" d="M8.65,52.92l0-.18A.53.53,0,0,0,8.65,52.92Z" transform="translate(-1.1)"/><path class="cls-1" d="M4.22,57.31l0,0S4.25,57.32,4.22,57.31Z" transform="translate(-1.1)"/><path class="cls-1" d="M8.63,52.42a.59.59,0,0,0,.18-.09H8.74Z" transform="translate(-1.1)"/><path class="cls-1" d="M4,65.53H4Z" transform="translate(-1.1)"/><path class="cls-1" d="M4.93,65.92c0-.07-.33.17-.52.26-.16-.06.2-.19.34-.32-.11,0-.44.08-.46,0a.42.42,0,0,1,.15-.07c-.31,0-.1-.22-.48-.24l.08,0a4,4,0,0,1-.49.13c0-.06-.25-.09,0-.15,0,0,.09,0,.17,0l-.11-.05c.33-.11.13.07.38,0-.13-.08-.44-.21-.34-.32.34,0,.13.21.42.07A.76.76,0,0,0,4,65.4c.51-.16,0,.08.53-.08.08-.16-.19-.09-.09-.35-.19-.06-.28,0-.47,0-.34-.35.85-.28.4-.54-.23-.07-.66-.1-.43-.28l.38.06c0-.24-.55-.14-.29-.39.15,0,.13.19.17.15.31-.16-.21-.12-.21-.24l.34,0c-.06-.26-.3-.55-.37-.83.11,0,.21.06.32,0a1.27,1.27,0,0,1,.24-1.12l-.29-.13s.13-.06.19,0c.11-.13-.19,0-.31-.07s.17-.1.26,0c-.25-.25-.54-.69-.22-.94l.09.05c.12-.2-.61-.23-.33-.41l.05,0c.13-.42-.14-.9.3-1.22-.42-.07.19-.43-.4-.46.29-.24.4-.17.59-.52,0-.09-.36-.13-.42-.25h.3L4,57.55l.37-.09-.08-.1a.29.29,0,0,1-.23.08c-.14-.17.22-.41.38-.41l-.27-.4c.13,0,.17.08.25.13-.31-.21.32,0,0-.23a.52.52,0,0,1-.25,0A.33.33,0,0,0,4.28,56l.21,0a5.39,5.39,0,0,0-.1-1c-.09.12-.46.09-.5,0l.33,0c-.2-.07-.13.1-.37,0,0-.12.37-.08.47,0l-.11-.15a1.39,1.39,0,0,1,.27,0c-.2-.06.33-.25,0-.34h.1a6.43,6.43,0,0,0-.13-.75c-.28,0-.22-.11-.45-.18.09-.2.32-.42.29-.66s-.24,0-.4-.12c.25,0,.23-.25.41-.13a1.12,1.12,0,0,0-.2-.5.68.68,0,0,1-.25,0c0-.06.14-.08.25,0h0c-.16-.18.08-.3.3-.34s.39-.05.23-.29l0,0a1.45,1.45,0,0,1-.07-.35c.1,0,.1.18.26.23-.13-.46.29-.18.28-.5.26.29.33.24.42.16s.21-.2.33,0l0-.18c0-.18.07.1.11.13,0-.14-.07-.15,0-.25s.56-.06.9.06A.75.75,0,0,1,7,51l.14.1.22.21c.09.08.37-.85.41-.38l-.18.28a.35.35,0,0,1,.46.06.62.62,0,0,0,.43.23c-.07,0-.15.1-.16.07-.16.2.12.18.28.09,0,0-.14.1-.21.18s.34,0,.14.12c0,0-.07,0-.1,0,.13,0,0,.17.29,0-.08.14.18.17.05.3.31,0-.11.21.31.19-.45,0-.35.2-.14.37-.13,0-.14.1-.33,0,0,.14.09.27.32.24-.54.25.44.5-.25.65A4.89,4.89,0,0,1,9.23,55c-.45,0-.05-.41-.52-.39.19.34.57.54.46.88-.06.09-.19-.05-.27-.08.19.35,0,.67.21,1A.33.33,0,0,1,9,56.29c0,.06-.06.14.14.13l0-.05c.3-.1.62.23.78.25-.59-.11-.15.3-.89.14a.42.42,0,0,0,.27.08s-.12.07-.28,0c.11.22.33.14.33.34A1.58,1.58,0,0,1,9,57.13c.2.1.39.2.31.36-.06,0-.14,0-.14,0,0,.29.52.49.33.8-.43-.09-.14.1-.52.12l.12.17.18-.07c0,.15.26.28.14.4l-.15-.1.07.27.14-.16c.19.15.47,0,.37.18,0,0,0,.15-.23.23h0c.12.07.25.14.15.25s-.41,0-.49,0c.31.07.09.34.42.43a.86.86,0,0,0-.31,0l.25.06c-.08.07-.12.08-.28.07,0,.2.48-.07.27.18,0,0-.06,0-.1,0-.1.24.17.47,0,.69-.37.07-.09-.19-.41-.12.07.32.45.67.36,1l.05,0c.53,0-.27.23,0,.39a.51.51,0,0,0-.23,0c-.09.21.13.43.3.76l-.14,0c-.12.12-.07.33-.13.47.13,0,.11.12.31.07-.78.42.41.8-.23,1.17,0,0-.12-.1-.12-.07l.12.32c.24,0,.14,0,.32-.11s.25.13.25.21c-.16-.14-.37,0-.5.06a1.62,1.62,0,0,1,.22,0c-.41.16.47,0,.18.25H9.8c.06.07.22.16.18.25-.27,0-.12-.1-.34-.12,0,.1.47.29.2.36-.07-.06-.06-.13-.13-.19-.32.06-.25.08-.31.15h0l-.18.13.09,0c.64.33,0,.29.39.65-.31-.35-.21-.13-.48-.27-.1,0-.21,0-.28,0,.19.19-.22,0,0,.29-.08,0-.05.06-.24-.09,0,.12.15.08.25.15.16.35-.52,0-.36.5,0,.27.13.56,0,.83-.14-.09-.13-.33-.13-.33-.18-.07-.23,0-.28.15a.57.57,0,0,0-.14-.23c-.06.06.1.35-.06.26A3.75,3.75,0,0,1,8,67.18a2.44,2.44,0,0,1-.13.44.86.86,0,0,1,0-.38.66.66,0,0,0-.19.49l.1.08s-.07-.22-.06-.28c0-.22.16.06.19.15l0,.08c.25.52.28-.19.4-.22L8.3,68a2.54,2.54,0,0,0,0-.39c.08.09.22.28.17.37.21.13,0-.18.23,0a.07.07,0,0,1,0,.06l0-.17c0,.09.18.24.08.23.34.06.12-.47.39-.28v0c.15-.32-.17-.26-.26-.66l.65.41-.2-.23s.09,0,.17,0c-.07-.22-.11-.07-.22-.25.32,0,.14-.4.56-.17-.17-.17-.23,0-.28-.19.48.22,0-.21.29-.22.22.15,0,.22.31.19-.37-.27.22-.24.19-.41-.34-.12-.06-.32-.14-.55.12,0,.26-.37.39-.59h.06c-.37,0-.3-.22-.38-.36a.61.61,0,0,1,.41.11v-.13a.33.33,0,0,1-.23-.15l.28,0c0-.16-.32-.33-.14-.55-.26,0-.71.17-.88,0,.13,0,.37,0,.43,0S10.14,64,10.2,64l.23.09c.11-.1-.19,0-.17-.13.2,0,.14-.05.3,0s-.08.06,0,.09a.47.47,0,0,1,.31-.22c-.12,0-.27,0-.29-.07s.23-.06.33-.15c-.13,0,0-.15-.29-.15,0-.05.14-.06.22-.08-.13-.09,0-.4-.35-.3l0,0v0h0c-.3-.28.17-.58,0-.86h.1c-.11-.17-.07-.37-.28-.49,0,0,.18-.12.3-.1-.08-.13-.19-.14,0-.33.18.13.16,0,.13.13.09-.16.24-.2,0-.38.26.06.32-.12.25-.2l-.18.12a.36.36,0,0,1,0-.25l.34,0c.4-.34-.69-.61,0-.87-.23-.09-.16.19-.43.11,0-.16.52-.32.52-.37.19-.22-.48-.2-.36-.43-.12,0-.43.06-.55-.11.05-.16.5-.19.6-.09s0,0-.07,0A.15.15,0,0,0,11,59l-.12,0c.13-.08.11-.3.31-.25-.12-.11-.2,0-.26,0,.17-.2,0-.31.12-.52-.06,0-.2.06-.2,0,.14-.3-.23-.13-.28-.34.18-.11.43,0,.28-.16.12-.13.32,0,.41,0-.23-.19.15-.35.2-.46l.09.1a.18.18,0,0,1-.05-.16l-.24.06c0-.06,0-.11.14-.11-.16-.06-.39.05-.61-.07.12-.08-.13-.24.19-.26-.11.24.31,0,.37.18q-.06-.06,0-.15a.09.09,0,0,1,.08,0c.29-.23-.35-.1-.34-.34.17,0,.33-.06.29-.1s-.29.05-.43,0c.14-.16-.1-.17-.08-.25l-.07.09c-.18,0-.15-.11-.21-.22.14,0,.1.1.16.06-.32-.12.32-.27.11-.44.12-.07.33,0,.41-.07-.23-.19.25-.21.06-.4-.24,0-.18.06-.42-.08l.17.33-.34-.21c0,.1.15.21.1.27-.19-.1-.13-.09-.33,0,.36-.13-.21-.26,0-.42h.6c.26-.23-.31-.42-.16-.72l-.1.1c-.24,0,0-.19-.13-.29a.8.8,0,0,0,.39-.09c-.14,0,0-.22-.38-.25l.26-.13c.11-.25-.56-.28-.49-.52.21.07.35,0,.5.12,0-.07,0-.14-.09-.15.12,0-.27-.21-.08-.28-.09,0-.3,0-.28-.14a.31.31,0,0,1,.1,0c-.1,0-.14-.13-.35-.06a.38.38,0,0,0,.23-.53c0-.19-.12-.35.1-.55l-.38-.55c.06,0,.09,0,.09,0,.05-.33-.57.12-.53-.21.19-.29.23,0,.28-.1.53-.4-.27-.25-.1-.64l.06,0c.06-.28-.44-.14-.6-.32a.31.31,0,0,0,.07-.08,1.82,1.82,0,0,1-.89,0c.18-.19.16-.07.25-.31-.11,0-.19.36-.39.34a1.51,1.51,0,0,1,0-.59l.2.08c.06-.37-.25-.11-.33-.2L8.48,49c-.34-.07-.45.31-.75.21v.12c-.23.35-.1-.24-.31,0l0-.4c-.14.08-.43.36-.59.43a1.24,1.24,0,0,1,.5-.6,1,1,0,0,0-.28,0,.24.24,0,0,0-.17.18s.09-.13.13-.07q-.18.46-.48.45c0-.76-.47-.19-.74-.77-.41.32-.94,0-1.45.32.42.46-.14.08.17.62-.09.08-.12.09-.15.06l-.49-.12c-.18-.09,0-.18-.07-.28-.26.12-.24-.15-.51-.16.17.16.11.31-.07.36l.36.07c-.07.49-.62-.17-.67.37l-.05-.23c-.07.22-.54.64-.2,1.07-.08,0-.25,0-.24-.15-.35.43,0,1.17-.32,1.45l-.14-.07c0,.1.25.2.09.29s-.15,0-.16,0,.23.26.14.37l-.16-.11a.38.38,0,0,0,.13.51c.14.13.32.25.37.39a.66.66,0,0,0-.65.41H1.63c0,.41.37.69.54,1.06-.48.23-.2.78-.47,1.16a.44.44,0,0,1,.39.07c-.09.09.31.24-.1.23v0c-.4.06-.29.24-.3.38l.53,0c-.77.36.28,1-.41,1.15.13.09.13.2.26.29H1.8a1,1,0,0,0,0,.66l-.2-.06c0,.17.81.22.83.38l-.42,0c0,.3-.37.6,0,.9-.07,0-.19,0-.21-.06,0,.14-.28.54.3.49-.38,0,0,.3.13.46l-.28,0c.36.14.45.14.55.33,0,0-.22,0-.15,0-.15.15.26.12.12.3l-.18-.07c0,.15.07.14.28.23s-.07.29-.32.31c.15,0,.36.11.28.2a.26.26,0,0,1-.18,0c-.19.26.32.38,0,.56a.32.32,0,0,0-.17,0c0-.21,0-.37,0-.36-.26,0-.31.17-.66,0,.19.13.61.36.49.52l-.09,0,0,0s0,.07,0,.11-.08.08-.08.13c-.21,0-.12.19-.13.27.29,0,.24.1.47,0,0,0,0,0,0-.07l0,0h0c0-.05,0-.12,0-.2.15.06.27.13.11.22l.45.12c-.39.11-.6.33-.84.36.16.25.1.59.63.75.07.07-.15.08-.23.11s-.05-.09-.12-.12c.13.15,0,.43.42.46-.17.18-.34-.11-.28.15l-.11,0c-.3.32,0,.6.23.79s.51.33.3.78c0-.06,0-.09.08-.12a1.31,1.31,0,0,0,.57.94,2.34,2.34,0,0,1,.75.86c.13.21.28,0,.46-.1l-.09.29a2.75,2.75,0,0,0,.33-.23c.18-.07.23.14.33.33s.25.34.48.13l0-.21c.13.07.42-.09.39.15,0,0,0-.21.09-.1v.15l.28-.27c.22.12,0,.63.29.66a.87.87,0,0,0,.3-.56s-.13-.1-.13-.26L7,68.24c0-.47.1-.95-.16-1.27l-.19.28L6.59,67l.15,0c-.08-.21-.14,0-.21.11a.54.54,0,0,0-.07-.25l-.19.44c0-.18.08-.36,0-.46-.09.21.08.41-.06.55-.09-.22,0-.39-.13-.21a.42.42,0,0,1,0-.25c-.07.14-.16.06-.22.29,0-.26-.23,0-.13-.4,0,.1-.18.31-.25.32.25-.47-.19-.11,0-.62-.25.41-.3.09-.55.24,0,0,.08-.09.08-.06s0-.21.05-.3a1.33,1.33,0,0,1-.62.42c.19-.34.36-.29.58-.58-.21.24-.32.13-.49.33a1,1,0,0,1,.26-.37c-.38.31-.11,0-.38.15.14-.23.36-.29.18-.29A.54.54,0,0,1,4.93,65.92ZM3.82,62.83h0v.08Zm0-.35a.35.35,0,0,0,0,.15c-.1,0-.2,0-.2,0S3.73,62.53,3.82,62.48Zm-1.95.73c0-.05,0-.07.07-.08l0,.1H2Z" transform="translate(-1.1)"/><path class="cls-1" d="M2.24,63.31l0,0,.06,0-.09,0Z" transform="translate(-1.1)"/><path class="cls-1" d="M10.48,63h0Z" transform="translate(-1.1)"/><polygon class="cls-1" points="3.26 57.7 3.19 57.7 3.25 57.73 3.26 57.7"/><path class="cls-1" d="M9.52,64.9s0,0-.07,0Z" transform="translate(-1.1)"/><path class="cls-1" d="M9.4,65.6l-.12.06A.26.26,0,0,0,9.4,65.6Z" transform="translate(-1.1)"/><path class="cls-1" d="M9.12,66l.11.06h0Z" transform="translate(-1.1)"/><path class="cls-1" d="M9,56.29s0,0,0,0S8.94,56.25,9,56.29Z" transform="translate(-1.1)"/><path class="cls-1" d="M9.64,59.29l-.13-.1C9.49,59.24,9.48,59.29,9.64,59.29Z" transform="translate(-1.1)"/><polygon class="cls-1" points="7.55 52.95 7.56 52.95 7.56 52.92 7.55 52.95"/><path class="cls-1" d="M9.51,59.05a.09.09,0,0,0,0,.14S9.56,59.1,9.51,59.05Z" transform="translate(-1.1)"/><path class="cls-1" d="M7.57,67.2h0v0Z" transform="translate(-1.1)"/><path class="cls-1" d="M7.55,67.24v0S7.56,67.27,7.55,67.24Z" transform="translate(-1.1)"/><path class="cls-1" d="M7.5,67.36l0-.09S7.5,67.28,7.5,67.36Z" transform="translate(-1.1)"/><path class="cls-1" d="M8.18,67.08l0-.09Z" transform="translate(-1.1)"/><path class="cls-1" d="M8.32,67c-.05,0-.21-.12-.22,0l0,.07C8.07,66.85,8.39,67.13,8.32,67Z" transform="translate(-1.1)"/><path class="cls-1" d="M9.92,67.11l-.22.15c.11,0,.27.07.22.18C10.37,67.38,9.69,67.35,9.92,67.11Z" transform="translate(-1.1)"/><path class="cls-1" d="M10.43,66.5c0,.15.15.06.2.09C10.57,66.46,10.55,66.44,10.43,66.5Z" transform="translate(-1.1)"/><path class="cls-1" d="M10.71,61.5H11C10.93,61.43,10.86,61.51,10.71,61.5Z" transform="translate(-1.1)"/><polygon class="cls-1" points="8.29 60.59 8.13 60.67 8.36 60.72 8.29 60.59"/><polygon class="cls-1" points="10.11 60.05 10.15 60.09 10.05 59.94 10.11 60.05"/><path class="cls-1" d="M11,51.79l-.3.1C10.78,52,11.14,51.9,11,51.79Z" transform="translate(-1.1)"/><path class="cls-1" d="M7.8,49c0-.17-.13-.28-.23-.14C7.67,48.89,7.74,49,7.8,49Z" transform="translate(-1.1)"/><polygon class="cls-1" points="0.73 56.78 0.63 56.71 0.71 56.84 0.73 56.78"/></g></g></svg>