<?xml version="1.0" encoding="utf-8"?>
<!-- Generator: Adobe Illustrator 22.1.0, SVG Export Plug-In . SVG Version: 6.00 Build 0)  -->
<!DOCTYPE svg PUBLIC "-//W3C//DTD SVG 1.1//EN" "http://www.w3.org/Graphics/SVG/1.1/DTD/svg11.dtd">
<svg version="1.1" id="Ebene_1" xmlns="http://www.w3.org/2000/svg" xmlns:xlink="http://www.w3.org/1999/xlink" x="0px" y="0px"
	 viewBox="0 0 75.1 84.1" style="enable-background:new 0 0 75.1 84.1;" xml:space="preserve">
<title>Element 257</title>
<g id="Ebene_2_1_">
	<g id="Ebene_2-2">
		<g>
			<path d="M37.6,71.6c-0.8,0-1.7,0-2.5,0l0.1-2.5c1.6,0,3.2,0,4.8,0l0.1,2.5C39.2,71.5,38.4,71.6,37.6,71.6z M46,71.1l-0.3-2.5
				c1.6-0.2,3.2-0.4,4.7-0.7l0.4,2.5C49.3,70.7,47.6,70.9,46,71.1z M29.1,71.1c-1.7-0.2-3.3-0.4-4.9-0.7l0.4-2.5
				c1.5,0.3,3.1,0.5,4.7,0.7L29.1,71.1z M56.7,69.1L56,66.7c1.6-0.4,3.1-0.9,4.5-1.5l0.9,2.3C60,68.2,58.4,68.7,56.7,69.1z
				 M18.4,69.1c-1.7-0.5-3.3-1-4.8-1.6l0.9-2.3c1.4,0.5,2.9,1,4.5,1.5L18.4,69.1z M66.9,65l-1.3-2.2c1.4-0.8,2.7-1.8,3.7-2.7
				l1.7,1.8C69.9,63,68.5,64,66.9,65z M8.2,65c-1.6-0.9-3-2-4.1-3l1.7-1.8c1,1,2.3,1.9,3.7,2.7L8.2,65z M74.7,56.7l-2.4-0.8
				c0.2-0.7,0.3-1.4,0.3-2.1c0-0.7-0.1-1.3-0.3-2l2.4-0.7c0.3,0.9,0.4,1.8,0.4,2.7C75.2,54.8,75,55.7,74.7,56.7z M69.5,47.6
				c-1-1-2.3-1.9-3.7-2.7l1.3-2.2c1.6,0.9,3,2,4.1,3.1L69.5,47.6z M60.7,42.4c-1.4-0.5-2.9-1-4.5-1.5l0.7-2.4c1.7,0.5,3.3,1,4.8,1.6
				L60.7,42.4z M50.6,39.7c-1.5-0.3-3.1-0.5-4.7-0.7l0.3-2.5c1.7,0.2,3.3,0.4,4.9,0.7L50.6,39.7z"/>
		</g>
		<g>
			<path d="M40.1,84L40,81.5c1.7-0.1,3.4-0.2,5-0.4l0.3,2.5C43.6,83.8,41.8,83.9,40.1,84z M34.9,84c-1.8-0.1-3.5-0.2-5.2-0.5
				l0.3-2.5c1.6,0.2,3.3,0.4,5,0.4L34.9,84z M50.4,82.7l-0.6-2.4c1.7-0.4,3.3-0.8,4.8-1.4l0.8,2.4C53.9,81.8,52.2,82.3,50.4,82.7z
				 M24.5,82.6c-1.8-0.4-3.5-0.9-5.1-1.5l0.9-2.3c1.5,0.5,3.1,1,4.8,1.4L24.5,82.6z M60.4,79l-1.3-2.2c1.5-0.9,2.8-1.9,3.7-2.9
				l1.9,1.6C63.6,76.8,62.1,78,60.4,79z M14.6,78.8c-1.8-1.1-3.2-2.2-4.3-3.5l1.9-1.6c0.9,1,2.1,2,3.6,2.9L14.6,78.8z M66.9,70.2
				l-2.5-0.1l0-0.1c0-1.3-0.5-2.6-1.6-3.8l1.9-1.6c1.5,1.7,2.2,3.5,2.2,5.4L66.9,70.2z M10.7,69.9l-2.5,0c0-1.9,0.8-3.7,2.3-5.4
				l1.9,1.6C11.2,67.4,10.7,68.7,10.7,69.9z M59.2,63.3c-1.3-0.8-2.8-1.4-4.4-2.1l0.9-2.3c1.8,0.7,3.4,1.4,4.8,2.2L59.2,63.3z
				 M16,63.2l-1.3-2.2c1.4-0.8,3.1-1.6,4.8-2.2l0.9,2.3C18.8,61.8,17.3,62.5,16,63.2z M50,59.8c-1.6-0.4-3.2-0.7-4.9-0.9l0.3-2.5
				c1.8,0.2,3.5,0.5,5.2,0.9L50,59.8z M25.2,59.8l-0.6-2.4c1.7-0.4,3.4-0.7,5.2-0.9l0.3,2.5C28.4,59.1,26.7,59.4,25.2,59.8z
				 M40.1,58.5c-0.9,0-1.7-0.1-2.6-0.1c-0.8,0-1.6,0-2.4,0L35,56c0.9,0,1.7,0,2.6,0c0.9,0,1.8,0,2.6,0.1L40.1,58.5z"/>
		</g>
		<g>
			<path d="M14.5,51.8c-0.1,0,0,0.4-0.1,0.6s-0.1-0.3-0.1-0.5c-0.1,0.1-0.2,0.4-0.2,0.4c0-0.1,0-0.1,0-0.2c-0.1,0.3-0.3,0-0.4,0.4
				v-0.1c0,0.2,0,0.3,0,0.5c-0.1,0-0.1,0.2-0.1,0c0,0,0-0.1,0.1-0.2L13.6,53c-0.1-0.3,0.1-0.1,0.1-0.4c-0.1,0.1-0.2,0.4-0.3,0.3
				c0-0.3,0.2-0.1,0.1-0.4l0.1,0.1c-0.1-0.5,0.1,0,0-0.5c-0.2-0.1-0.2,0.2-0.4,0.1c0,0.2,0,0.3,0,0.5C13,53,13,51.9,12.8,52.3
				c-0.1,0.2-0.1,0.7-0.2,0.4v-0.4c-0.2,0-0.1,0.6-0.3,0.3c0-0.2,0.1-0.1,0.1-0.2c-0.1-0.3-0.1,0.2-0.2,0.2v-0.3
				c-0.2,0-0.4,0.3-0.6,0.4c0-0.1,0-0.2,0-0.3c-0.2,0.2-0.5,0-0.8-0.2l-0.1,0.3c0,0,0-0.1,0-0.2s0,0.2,0,0.3s-0.1-0.2,0-0.3
				c-0.2,0.2-0.5,0.5-0.6,0.2v-0.1C10,52.3,10,53,9.9,52.7v-0.1c-0.3-0.1-0.6,0.2-0.9-0.3c0,0.4-0.3-0.2-0.3,0.4
				c-0.2-0.3-0.1-0.4-0.4-0.6c-0.1,0-0.1,0.4-0.2,0.4v-0.3L8,52.6l-0.1-0.4l-0.1,0.1c0,0.1,0.1,0.1,0.1,0.2
				c-0.1,0.1-0.3-0.2-0.3-0.4l-0.3,0.3c0-0.1,0-0.2,0.1-0.2c-0.2,0.3,0-0.3-0.2,0c0,0.1,0,0.2,0,0.2c0-0.1-0.1-0.2-0.2-0.2H6.9V52
				c-0.2,0-0.4,0.1-0.7,0.1c0.1,0.2,0.1,0.3,0,0.5v-0.3c0,0.2,0.1,0.1,0,0.4c-0.1,0,0-0.4,0-0.5l-0.1,0.1c0-0.1,0-0.2,0-0.3
				c0,0.2-0.2-0.3-0.2,0v0c-0.2,0-0.3,0.1-0.5,0.1c0,0.3-0.1,0.2-0.1,0.5c-0.1-0.1-0.3-0.3-0.4-0.3s0,0.2-0.1,0.4
				c0-0.3-0.2-0.2-0.1-0.4c-0.2,0-0.4,0.1-0.5,0.2c0,0.1,0.1,0.2,0,0.2s-0.1-0.1-0.1-0.2l0,0c-0.1,0.2-0.3,0-0.5-0.2s-0.1-0.3-0.2,0
				l0,0c0,0.1-0.1,0.2-0.2,0.3c0,0,0.1-0.2,0.1-0.3c-0.2,0.4-0.1-0.1-0.3,0.2c0.2-0.4,0.2-0.4,0.2-0.3S3,52.3,3.3,52.1l-0.2,0.2
				c-0.2,0.2,0.1-0.1,0.2-0.1l-0.3,0H2.9c0,0,0.1-0.2,0.2-0.3c0.1-0.1,0.2-0.2,0.4-0.2c0,0-1,0.1-0.5,0h0.3c-0.2,0-0.2,0-0.1-0.2
				c0.1-0.2,0.1-0.4,0-0.6c0.1,0,0.2,0.1,0.2,0.1c0.2,0,0.1-0.2-0.1-0.3c0,0,0.2,0,0.3,0s-0.2-0.3,0-0.2c0,0,0.1,0,0.1,0.1
				s0.1-0.2-0.2-0.2c0.2-0.1,0-0.3,0.1-0.3C3.3,50,3.8,50,3.4,49.8c0.4,0.1,0.4-0.1,0.2-0.2c0.1,0.1,0.2,0,0.3,0
				c0-0.1,0-0.2-0.3-0.2c0.6,0-0.3-0.5,0.4-0.3c-0.1-0.3-0.2-0.6-0.3-0.9c0.4,0.1,0,0.3,0.4,0.4c-0.1-0.3-0.4-0.5-0.3-0.7
				C3.9,47.9,4,48,4,48c-0.1-0.3,0.2-0.4,0-0.7c0,0,0.1,0,0.1,0.1c0,0,0.1-0.1-0.1-0.1v0.1c-0.3,0-0.5-0.3-0.7-0.4
				c0.7,0,0.4-0.4,1-0.1c-0.1-0.1-0.2-0.1-0.2-0.1s0.1,0,0.3,0.1c-0.1-0.2-0.3-0.2-0.2-0.3c0.1,0,0.2,0.1,0.2,0.1
				c-0.2-0.1-0.3-0.2-0.2-0.3s0.1,0,0.1,0.1c0-0.2-0.4-0.5-0.2-0.6c0.4,0.2,0.2,0,0.5,0.1l-0.1-0.1H4.4c0-0.1-0.2-0.3,0-0.3l0.1,0.1
				v-0.2l-0.2,0.1c-0.2-0.2-0.5-0.1-0.3-0.2c0.1-0.1,0-0.1,0.3-0.1l0,0c-0.1-0.1-0.2-0.2-0.1-0.2S4.6,45,4.7,45
				c-0.3-0.1,0-0.3-0.3-0.4c0.1,0.1,0.2,0.1,0.3,0.1l-0.2-0.1c0.1,0,0.2,0,0.3,0c0.1-0.1-0.5-0.1-0.2-0.2c0,0,0.1,0,0.1,0.1
				c0.2-0.1,0-0.4,0.1-0.5c0.4,0.1,0.1,0.2,0.4,0.2c0-0.2-0.3-0.6-0.1-0.8l0,0c-0.5-0.2,0.3-0.1,0.1-0.2c0,0,0.3,0.1,0.2,0.1
				c0.1-0.1,0-0.3-0.1-0.6l0.1,0.1c0.1,0,0.1-0.2,0.2-0.3c-0.1-0.1-0.1-0.1-0.3-0.2c0.8,0-0.2-0.7,0.5-0.7l0.1,0.1v-0.2
				c-0.1,0-0.2,0-0.3,0c-0.1-0.1-0.2-0.2-0.2-0.2c0.1,0.1,0.4,0.1,0.5,0.1c-0.1,0-0.1,0-0.2-0.1c0.4,0-0.4-0.2-0.1-0.2h0.1
				c0-0.1-0.2-0.2-0.1-0.2C5.9,41,5.7,41,5.9,41.1c0-0.1-0.4-0.3-0.2-0.3c0.1,0.1,0,0.1,0.1,0.2c0.3,0,0.2,0,0.3-0.1l0,0l0.2-0.1
				H5.9c-0.6-0.3,0-0.3-0.4-0.5c0.4,0.3,0.2,0.1,0.5,0.2c0.1,0,0.2,0,0.3,0c-0.2-0.1,0.2,0-0.1-0.3c0.1,0,0-0.1,0.3,0
				c0-0.1-0.2,0-0.3-0.1c-0.3-0.2,0.5-0.2,0.1-0.5c-0.1-0.2-0.4-0.4-0.5-0.6c0-0.1,0.2,0,0.2,0.1c0.2,0,0.2-0.1,0.1-0.2
				c0.1,0,0.2,0.1,0.3,0.1c0-0.1-0.3-0.2-0.2-0.2s0.2,0.1,0.3,0.2c-0.1-0.1-0.2-0.2-0.3-0.3c0.1,0,0.2,0.1,0.3,0.2
				c0-0.2-0.2-0.3-0.3-0.4h0c0,0,0.2,0.1,0.3,0.1c0.2,0.1-0.1,0.1-0.2,0v-0.1c-0.6-0.1,0,0.2,0,0.3l-0.4-0.2l0.3,0.2
				c-0.1,0-0.3-0.1-0.4-0.2c-0.2,0,0.1,0.1-0.1,0.1H5.6l0.1,0.1c-0.1,0-0.3-0.1-0.2-0.1C5.2,38.8,5.7,39,5.4,39l0,0
				c0.1,0.2,0.3,0.1,0.6,0.4l-0.8-0.1l0.3,0.1c0,0,0,0-0.2,0c0.2,0.1,0.1,0,0.3,0.1c-0.3,0,0,0.3-0.4,0.2c0.2,0.1,0.2,0,0.3,0.1
				C5,39.8,5.6,40,5.3,40S5.2,39.8,5,39.9c0.4,0.2-0.2,0.1-0.1,0.2c0.3,0.1,0.1,0.2,0.2,0.4c-0.1,0-0.3,0.2-0.4,0.2H4.5
				c0.3,0.1,0.2,0.2,0.3,0.3c-0.1,0-0.3-0.1-0.4-0.2V41c0.1,0,0.2,0.1,0.2,0.2l-0.2-0.1c0,0.1,0.2,0.3,0,0.4
				c0.2,0.1,0.7,0.1,0.8,0.3c-0.1,0-0.3-0.1-0.4-0.2c0,0,0.1,0.1,0,0.1l-0.2-0.1c-0.1,0,0.2,0.1,0.1,0.1c-0.2-0.1-0.2,0-0.3-0.1
				s0.1,0,0-0.1c-0.1,0.1-0.2,0.1-0.3,0.1c0.1,0,0.2,0.1,0.3,0.1s-0.2,0-0.3,0c0.1,0.1,0,0.1,0.2,0.2c0,0-0.1,0-0.2,0
				c0.1,0.1,0,0.3,0.3,0.3l0,0l0,0l0,0c0.2,0.3-0.3,0.3-0.2,0.6L4,43c0.1,0.2,0,0.3,0.2,0.4c0,0-0.2,0-0.3,0c0,0.1,0.2,0.2,0,0.2
				c-0.1-0.1-0.2,0-0.1-0.1c-0.1,0.1-0.3,0.1,0,0.3c-0.2-0.1-0.3,0-0.3,0.1h0.2c0,0.1,0,0.1-0.1,0.2L3.3,44
				c-0.5,0.1,0.5,0.6-0.2,0.6c0.2,0.1,0.2-0.1,0.4,0.1c0-0.1-0.5-0.1-0.5-0.1c-0.2,0.1,0.4,0.3,0.3,0.4c0.1,0,0.4,0.1,0.5,0.2
				c-0.1,0.1-0.5,0-0.6-0.1s0,0,0.1,0C3.2,45,3.1,45,3,45l0,0c-0.1,0-0.2,0.2-0.3,0.1c0.1,0.1,0.2,0.1,0.2,0l0,0
				c-0.2,0.1-0.1,0.2-0.2,0.3c0.1,0,0.2,0,0.2,0c-0.2,0.2,0.2,0.2,0.2,0.3c-0.2,0-0.4-0.2-0.3,0c-0.1,0-0.3-0.1-0.4-0.1
				c0.2,0.2-0.2,0.2-0.3,0.2L2,45.7v0.1h0.2c0,0-0.1,0.1-0.2,0c0.1,0.1,0.4,0.1,0.6,0.2c-0.1,0,0.1,0.2-0.2,0.1
				C2.6,46,2.1,46,2.1,45.9V46H2c-0.3,0.1,0.3,0.2,0.3,0.3c-0.2-0.1-0.3-0.1-0.3,0s0.3,0,0.4,0.2c-0.2,0.1,0.1,0.1,0,0.2h0.1
				c0.2,0.1,0.1,0.1,0.2,0.2c-0.1,0-0.1-0.1-0.1-0.1c0.3,0.2-0.4,0.1-0.2,0.3C2.2,47.1,2,47,1.9,47c0.2,0.2-0.3,0.1-0.1,0.3
				c0.2,0,0.2,0,0.4,0.2l-0.1-0.3l0.3,0.2c0-0.1-0.1-0.2,0-0.2c0.2,0.1,0.1,0.1,0.3,0.1c-0.4,0,0.2,0.2-0.1,0.3L2,47.5
				c-0.3,0.1,0.2,0.4,0,0.5h0.1c0.2,0.1,0,0.1,0.1,0.2c-0.1,0-0.3-0.1-0.4,0c0.1,0-0.1,0.1,0.3,0.3H1.8c-0.2,0.1,0.5,0.3,0.4,0.5
				c-0.2-0.1-0.4-0.1-0.5-0.2c0,0-0.1,0.1,0.1,0.1c-0.1,0,0.2,0.2,0,0.2c0.1,0,0.3,0.1,0.2,0.2H1.9c0.1,0,0.1,0.1,0.3,0.1
				c-0.6,0-0.1,0.5-0.6,0.5c0,0.1,0,0.3,0,0.4c-0.1,0-0.1,0-0.1,0c-0.2,0.1,0.5,0.2,0.3,0.3s-0.1-0.1-0.3-0.1
				c-0.6-0.2,0,0.2-0.4,0.2l0,0c-0.2,0,0.2,0.3,0.1,0.4H1.1c0.2,0.1,0.4,0.3,0.4,0.6c-0.2-0.1-0.1-0.1-0.4-0.1c0,0.1,0.4,0,0.4,0.2
				C1.4,51.9,1.2,51.9,1,52v-0.2c-0.4,0.1,0,0.2-0.1,0.3H0.8c0,0.3,0.4,0.2,0.3,0.5l0.1-0.1c0.4,0-0.3,0.2,0,0.2l-0.5,0.2
				c0.1,0.1,0.4,0.2,0.4,0.2c-0.2,0.1-0.4,0-0.6-0.1c0,0.1-0.1,0.3,0.1,0.3c0,0-0.1,0-0.1-0.1c0.3,0,0.5,0,0.4,0.1
				c-0.8,0.5-0.5,0.6-1,1.1c0,0.1-0.1,0.1-0.1,0.1c0.7-0.3,0.6,0.1,1.2,0.1c0.3-0.6,0.1,0,0.6-0.6c0.1,0,0.1,0,0.1,0
				c0,0.1,0,0.2,0,0.4s-0.2,0.1-0.3,0.3c0.2,0,0,0.3,0,0.4C1.8,55,2,54.9,2.1,55c0-0.1-0.1-0.2-0.1-0.3c0.5-0.3,0.1,0.5,0.6,0.2
				l-0.2,0.2c0.2-0.1,0.8,0,0.9-0.5c0,0.1,0.1,0.2,0,0.3c0.3,0.1,0.6-0.5,0.8-0.2v0.2c0,0,0.1-0.3,0.1-0.1s0,0.2,0,0.2
				s0.1-0.3,0.2-0.2V55c0.3,0,0.4-0.6,0.6-0.7c0,0.3,0.1,0.5,0.3,0.7v0.1c0.3,0.1,0.5-0.4,0.8-0.5C6.2,55,6.6,54.7,6.8,55
				c0-0.1,0-0.3,0.1-0.4c0.1,0.1,0.2-0.3,0.2,0.1H7C7,55.1,7.2,55,7.3,55v-0.5c0.2,0.8,0.7-0.3,0.8,0.4c0.1-0.1,0.1-0.1,0.2-0.3v0.3
				c0.1,0.1,0.3,0.1,0.5,0l-0.1,0.2c0.1,0,0.1-0.8,0.3-0.8v0.4c0.2,0,0.4,0.4,0.6,0c0,0.1,0,0.2,0,0.2s0.4,0.3,0.3-0.3
				c0,0.4,0.2,0,0.3-0.1v0.3c0.1-0.3,0.1-0.5,0.2-0.5s0,0.2,0,0.2c0.1,0.2,0.1-0.3,0.2-0.1l-0.1,0.2c0.1,0,0.1-0.1,0.2-0.3
				s0.2,0.1,0.2,0.3c0-0.2,0.1-0.4,0.1-0.3c0,0.1,0,0.1,0,0.2c0.2,0.2,0.3-0.3,0.4-0.1c0,0.1,0,0.1,0,0.2c-0.1,0-0.3,0-0.2,0
				c0,0.3,0.1,0.3,0,0.7c0.1-0.2,0.2-0.6,0.4-0.5v0.1l0,0c0,0,0,0,0.1,0s0.1,0.1,0.1,0.1c0,0.2,0.1,0.1,0.2,0.1c0-0.3,0.1-0.2,0-0.5
				c0,0,0,0-0.1,0s0,0,0,0l0,0h-0.1c0-0.1,0.1-0.3,0.1-0.1c0-0.2,0.1-0.4,0.1-0.5c0.1,0.4,0.2,0.6,0.3,0.8c0.2-0.2,0.4-0.1,0.5-0.6
				c0.1-0.1,0.1,0.2,0.1,0.2s-0.1,0-0.1,0.1c0.1-0.1,0.3-0.1,0.3-0.4c0.1,0.2-0.1,0.3,0.1,0.3v0.1c0.4,0.6,0.5-1,0.9-0.2v-0.1
				c0.4,0.3,0.9-0.3,1.3,0.2c0.1,0.1,0.1-0.1,0.2-0.3v0.3l0.1-0.3c0.2-0.3,0.3,0.7,0.5,0.2V54c0.1,0,0.2-0.1,0.2,0.1
				c0,0,0-0.2,0.1-0.1l0,0l0.2-0.3c0.2,0.1,0,0.6,0.2,0.7c0.1-0.2,0.2-0.4,0.2-0.6c0,0-0.1-0.1-0.1-0.2l0.1-0.1
				c0.1-0.4,0-0.9-0.2-1.3l0.1,0.3v-0.2l0,0c-0.1-0.2-0.1,0-0.1,0.1c0-0.1,0-0.2-0.1-0.2l-0.1,0.5c0-0.2,0-0.4,0-0.5
				c0,0.2,0.1,0.4,0,0.5c-0.1-0.2,0-0.4-0.1-0.2c0-0.1,0-0.2,0-0.2c-0.1,0.2-0.2,0.1-0.2,0.3c-0.1-0.3-0.2,0.1-0.2-0.4
				c0,0.1-0.1,0.3-0.2,0.4c0.1-0.5-0.2,0-0.2-0.6c-0.1,0.5-0.3,0.2-0.4,0.5v-0.1c0,0-0.1-0.2-0.2-0.3c0,0.3-0.1,0.5-0.2,0.7
				c-0.1-0.4,0-0.5,0-0.8c0,0.3-0.2,0.3-0.1,0.6c-0.1-0.1-0.1-0.3-0.1-0.4c0,0.5-0.1,0.1-0.1,0.4c-0.1-0.2,0-0.5-0.2-0.3
				C14.4,52.1,14.5,51.9,14.5,51.8z M11.7,52.7L11.7,52.7L11.7,52.7z M11.4,52.7h0.1c0,0.1,0,0.2,0,0.2S11.5,52.8,11.4,52.7
				L11.4,52.7z M12,54.7C12,54.7,11.9,54.7,12,54.7L12,54.7L12,54.7C12,54.6,12,54.6,12,54.7z"/>
		</g>
		<g>
			<path d="M10.5,40.7c-0.4-0.5-0.5,0-0.7,0c-0.5-0.5,0-0.4,0-0.8c-0.4-0.3-0.8-0.4-1-0.7c0-0.1,0-0.1,0.1-0.1
				c-0.1-0.1-0.3-0.2-0.4-0.3l-0.1-0.1c-0.1-0.2-0.3-0.3-0.5-0.3H8l0,0c-0.2,0-0.4,0-0.6,0l0,0c0.1-0.1,0-0.3,0.3-0.2
				c-0.1,0.1,0,0.1,0.1,0.2c0-0.1,0-0.1,0-0.2c0.5,0-0.1,0.2,0.3,0.3c0-0.3,0.2-0.6,0.5-0.8c0.1,0.1-0.1,0.3-0.1,0.4
				s-0.1,0.1,0.1,0.2l-0.3,0.1c0.7,0.2-0.1,0,0.6,0.2c0.1,0,0.1,0,0.1,0s0,0,0.1-0.1c0.2-0.2,0.5-0.4,0.7-0.6c0-0.3-0.2-0.2-0.2-0.5
				c0.8-1,1.3,0.1,1.8-0.8c0.1-0.3-0.1-0.7,0.5-0.9V36c0.7-0.5,0.1-0.7,0.9-1.1c0,0.2-0.5,0.5-0.3,0.5c0.6-0.1,0.2-0.4,0.6-0.7
				l0.3,0.2c0.7-0.6,1.4-1.4,2.1-2c0,0.1-0.1,0.3,0.2,0.2c1-0.9,2.1-1.6,3.3-2.1l0.2-0.5c0.1-0.1,0.2,0,0.2,0.1
				c0.5-0.2-0.1-0.2,0-0.4s0.4-0.1,0.3,0.1c0.6-1,1.5-1.7,2.5-2.3l-0.1,0.2c0.6-0.3,0.3-1,1-1.1L23,27.2c1.3-0.8,2.5-2,3.6-2.3
				c-0.1-0.5,1.3-0.7,1-1.3c0.6-0.1,1.2-0.3,1.8-0.6c0.3-0.2,0.2-0.6,0.5-0.9l0.2,0.2l0.2-0.6l0.5,0.1l0.2-0.3
				c-0.1,0.1-0.3,0.1-0.4,0c0.4-0.5,1.3-0.7,1.4-0.6l1-1c0,0.1-0.1,0.3-0.2,0.5c0.4-0.7,0.3,0.2,0.7-0.5c-0.1,0-0.1-0.2-0.1-0.2
				c0.5-0.2,1-0.5,1.4-0.9V19c0.9-0.6,1.7-1.4,2.6-2c-0.4,0.2-0.5-0.2-0.3-0.4l0.3,0.2c0-0.3-0.4,0.1-0.2-0.4
				c0.4-0.2,0.5,0.1,0.3,0.4l0.3-0.4c0.1,0.1,0,0.2,0.1,0.3c0-0.3,0.9-0.3,1-0.7l0.1,0.1c0.9-0.7,1.3-1.1,2-1.6
				c-0.2-0.2,0.2-0.4,0.3-0.8c0.7-0.3,1.4-0.7,2-1.1c0.4-0.5,0-0.3,0.1-0.6c0.2,0.2,0.8-0.3,0.6,0.1c0.7-0.5,1.3-1.1,1.9-1.7
				c-0.2,0-0.3,0.1-0.3-0.1s0.5-0.2,0.5-0.1l0,0c0.9-1.2,3-1.3,3.6-2.4v0.1L50.3,7c0.5-0.3-0.1,0.3,0.3,0.2c0.8-1.1,1.6-1.1,2.3-2
				c1.1,0.1,2.3-1.7,3.4-2l-0.1-0.1c0-0.2,0.1,0,0.2,0.1c0-0.1-0.1-0.1-0.1-0.2c0.1-0.1,0.2-0.2,0.3-0.3c0.1,0.1,0.2,0.3,0.2,0.4
				c0.2,0.4,0.5,0.8,0.8,1.2C58,5.2,58.5,6.1,59,7s1-0.1,1.4,1h-0.5c1.4,1.2,2.2,2.9,3.5,4.2c-0.1,0-0.2,0-0.3-0.1
				c0,0.4,0.8,1.1,1,1c0.1,0.2-0.1,0.2-0.1,0.4c0.1,0.4,0.8,0.6,0.7,0.9c0,0.1-0.1,0-0.2-0.1c0.2,0.1,0.7,0.9,0.7,0.6
				c0,0.1,0,0.1,0.1,0.1s0,0,0,0.1l0.1,0.1c0.1,0.1,0.2,0.1,0.1,0.2l0,0c0.2,0.1,0,0.1,0,0.1s-0.1,0.1,0,0.2
				c-0.1-0.1-0.1-0.1-0.2-0.1c0-0.1-0.2,0-0.3,0.1c-0.3,0.2-0.5,0.4-0.7,0.7c0-0.2-0.4,0.1-0.4-0.1c-0.4,0.3-0.7,0.6-0.5,0.8
				c-1,0.1-1.2,1.4-2,1.1c-1,1-1.9,1.9-2.9,2.8c-0.2-0.4,1.1-0.9,0.8-1.2c-0.6,0.8-1.4,1.6-2.2,2.2c-0.3,0.1,0-0.3,0.1-0.4
				c-0.9,0.9-1.9,1.4-2.6,2.2c0,0,0-0.1,0.1-0.2c-0.2,0.1-0.4,0.2-0.3,0.4l0.1-0.2c0.5,0-0.3,1-0.2,1.1c-0.1-0.7-0.9,0.5-0.9-0.4
				c-0.1,0.1-0.2,0.3-0.1,0.4C53.1,25,53,25,53.1,24.7c-0.5,0.5-0.2,0.6-0.8,1c0-0.1,0-0.2,0-0.3c-0.1,0.4-0.4,0.8-0.8,1
				c0-0.1-0.1-0.1,0-0.2c-0.8,0.6-1,1.4-2,1.9c0-0.5-0.4,0.1-0.7-0.2l-0.4,0.4h0.3c-0.4,0.3-0.6,0.8-1,1l0.2-0.4l-0.7,0.6l0.5-0.2
				c-0.3,0.5,0.3,0.3-0.3,0.7c0.1-0.1-0.4,0.3-0.8,0.3l0,0c-0.1,0.3-0.3,0.5-0.6,0.6c-0.2,0-0.2-0.4-0.3-0.4c0,0.4-0.9,0.8-1,1.2
				c0-0.1,0-0.2-0.1-0.3v0.3c-0.2,0.1-0.3,0.1-0.3-0.1c-0.6,0.4,0.5,0.2-0.3,0.6c0-0.1,0-0.1,0.1-0.2c-0.8,0.4-1.2,1.1-1.9,1.5
				c-0.4-0.2,0.5-0.5,0.1-0.6c-0.8,0.8-1.6,1.6-2.5,2.3l0.2-0.1c0.2,0.5-0.8,0.3-1.1,0.8c0.1-0.1,0-0.3,0-0.3
				c-0.7,0.5-1.4,1.1-2,1.8v-0.2c-0.5,0.3-0.9,0.6-1.4,0.9c0,0.2-0.3,0.3,0,0.4c-1.7,0.2-2,2-3.4,2.3c0.1-0.1,0.2-0.3,0.1-0.2
				l-0.8,0.8c0.2,0.1,0.2,0,0.5,0c-0.1,0.3-0.2,0.5-0.4,0.6c0.3-0.4-0.2-0.3-0.5-0.3c0.1,0,0.1,0.1,0.1,0.2c-0.7,0,0.2,0.4-0.6,0.7
				v-0.1c-0.2,0.2-0.3,0.5-0.6,0.7c-0.3-0.1,0.2-0.3,0.1-0.5c-0.4,0.3-0.4,0.9-0.9,1c0.1-0.2,0.3-0.3,0.4-0.5
				c-0.3,0-0.6,0.1-0.8,0.3l0,0L28,43.8h0.2c0,0.9-0.9,0.8-1.2,1.6c0.3-0.8,0-0.3-0.2-0.5c-0.2,0-0.5,0.2-0.5,0
				c-0.1,0.4-0.6,0.2-0.8,0.8c-0.1-0.1-0.3,0.2-0.4,0c-0.3,0.3,0.2,0.1,0.2,0.2c-0.4,0.7-1.6,0.7-2.1,1.7c-0.6,0.7-0.5,1-1.1,1.7
				c-0.3,0,0-0.4,0-0.4c-0.4,0.1-0.8,0.4-1,0.7c0-0.1-0.1-0.1-0.3-0.1c-0.3,0.2,0,0.4-0.4,0.6c0-0.2,0-0.3,0-0.5
				c-0.3,0.3-0.5,0.7-0.8,1c-0.2-0.1,0-0.3,0.1-0.5c-0.3,0.3-0.9,0.8-0.8,1.2l0.3-0.1c-0.1,0.1-0.2-0.1-0.1-0.2
				c0.2-0.4,0.5-0.3,0.6-0.2L19.5,51c0.6,0.3,0.9-0.8,1.4-1.1v0.5l0.3-0.6c0.2,0,0.4,0.1,0.2,0.4c0.5-0.1,0.2-0.3,0.6-0.4
				c0.1,0,0.1,0,0,0.1l0.3-0.3c0,0.1,0.2,0.2,0,0.3c0.7-0.3,0.8-1,1.2-0.9v0.1c0.8-0.7-0.1-0.3,0.3-1l0.9,0.3l-0.1-0.3
				c0.1,0,0.3-0.2,0.3,0c0.2-0.4-0.1-0.1-0.1-0.4c0.6-0.1,1.1-1,1.4-0.6c0-0.3-0.5,0.2-0.1-0.3c0.4,0.3,0.5-0.5,1-0.5
				c0,0.3-0.4,0.5,0.1,0.4c0-0.5,0.8-0.5,1.1-0.8c-0.2-0.3,0.6-0.6,1.1-1.1c0,0.1,1.1-0.6,1.7-0.8v0.1c-0.1-0.4,0.4-0.7,0.8-1
				c0.1,0.2,0.1,0.3,0,0.5l0.4-0.3c0-0.2,0.1-0.4,0.3-0.5l0.1,0.3c0.5-0.4,0.8-1,1.5-1.3c-0.1-0.2-0.9-0.2-0.4-0.8
				c0.1,0.1,0.3,0.3,0.1,0.4c0-0.1,0.1-0.2,0.3-0.3l-0.1,0.4c0.3-0.1,0-0.3,0.3-0.4c0.1,0.2,0.2,0,0.3,0.1s-0.2,0.1-0.3,0.2
				c0.2-0.2,0.5-0.2,0.8-0.2c-0.1-0.1-0.1-0.2,0-0.3l0,0c0.5-0.4,0.3,0.1,0.6,0c0-0.2,0.4-0.3,0.2-0.5c0.1-0.1,0.2,0,0.3,0
				c0.2-0.3,1.1-0.9,0.7-0.9h-0.1l0,0l0,0c0.6-0.8,1.7-1.1,2.5-1.8V37c0.4-0.4,1-0.8,1.2-1.2c0.1-0.1,0.4-0.1,0.4,0
				c0.2-0.3,0.5-0.6,0.9-0.7c-0.3,0.4,0.2,0-0.3,0.4c0.5-0.3,0.7-0.2,1.1-0.8c0,0.3,0.5,0,0.7-0.2L43,34.6c0.2-0.2,0.5-0.4,0.7-0.5
				l0.1,0.4c1.2-0.4,1.3-1.8,2.4-1.8c0.1-0.4-0.6,0.2-0.5-0.1c0.5-0.3,1.2-0.2,1.3-0.3c0.7-0.3,0.3-0.8,1-1.2c-0.2,0-0.4-0.2,0-0.7
				s0.8,0,0.6,0.3c-0.1,0.1-0.2,0.1-0.2,0.1c-0.1,0.1-0.3,0.3,0,0.3V31c0.3-0.1,0.9-0.5,0.9-0.3c0.3-0.3,0-0.3-0.3-0.1
				c0.5-0.3,1-0.6,1.5-1c-0.1,0-0.3,0-0.2-0.1c0.9-0.5,0.2-0.5,0.8-0.9c0.4-0.1,0.1,0.4,0.6-0.1c0.4-0.2,0.3,0.2,0.2,0.4
				c0.4-0.6,1.1-0.6,1.4-0.8L53,28c0.1-0.1,0.3-0.3,0.4-0.4l-0.3-0.1c0.2-0.1,0.3-0.2,0.4-0.1c0.1-0.2-0.4-0.2-0.2-0.6
				c0.3-0.1,0.6-0.6,0.8-0.4c-0.8,0.4,0.3,0.2-0.3,0.7c0.1-0.1,0.3-0.2,0.4-0.3v0.1c0.8-0.3,0.1-0.5,0.8-1c0,0.2,0.4,0.1,0.5,0
				c-0.3,0.2-0.3-0.1-0.1-0.4c0.5-0.2,0.4-0.4,0.7-0.6L55.7,25c0-0.2,0.2-0.4,0.5-0.6c0.1,0.1-0.2,0.3-0.1,0.2
				c0.2-0.5,1-0.3,1.3-0.8c0.3-0.1,0.2,0.2,0.5,0.2c0.4-0.6,0.7-0.2,1.2-0.8c-0.3-0.1-0.3,0,0-0.5l-0.8,0.8l0.4-0.7
				c-0.3,0.2-0.5,0.5-0.7,0.6c0.2-0.4,0.2-0.3-0.1-0.4c0.6,0,0.6-0.7,1.2-0.9l0.3,0.5c0.8-0.3,1-1.1,1.9-1.6L61,21.3
				c0-0.3,0.5-0.4,0.7-0.7c0.1,0.2,0.3,0.1,0.5,0.1c-0.1-0.1,0.6-0.5,0.5-0.8l0.5-0.1c0.8-0.4,0.5-1,1.1-1.5c-0.1,0.3,0.3,0.2,0,0.7
				c0.2-0.2,0.4-0.3,0.4-0.4c0.2,0,0.4-0.7,0.8-0.7c0-0.1,0-0.3,0.2-0.5l0.1,0.1c0,0,0.3-0.4,0-0.4c0.6,0.1,1.6-0.9,2.4-1.4
				c-0.2-0.3-0.4-0.6-0.4-0.9l-0.9-1L66.3,13c0.1,0,0.1-0.1,0.1,0c-0.3-0.7-0.7,0-1.1-0.8c0-0.5,0.4,0.3,0.3,0
				c0.4-0.5-0.7-0.8-0.7-1.5l0.1,0.1c-0.1-0.5-0.8-0.7-1.2-1.3c0,0,0.1,0,0.1-0.1c-0.6-0.3-1.2-0.8-1.7-1.4c0.3,0,0.3,0.2,0.4-0.1
				c-0.2-0.2-0.3,0.3-0.7-0.1c0-0.2-0.2-0.7,0-0.9l0.4,0.5c0.1-0.4-0.5-0.6-0.6-0.9l0.1-0.1C61.3,5.8,61,6,60.4,5.2v0.2
				c-0.6-0.2-0.1-0.5-0.6-0.7L60,4.3c-0.5-0.4-1-0.8-1.5-1.2c0.5,0.2,1,0.5,1.4,0.9c-0.1-0.3-0.7-1-0.9-1c0.1,0.1,0.3,0.2,0.3,0.3
				c-0.7-0.2-1.2-0.7-1.5-1.3c0.4-0.3-0.3-1.1-0.9-2c-0.3,0.3-0.7,0.4-1.1,0.5c-0.2,0.2-0.4,0.4-0.6,0.5l-0.5,0.4
				c-0.2,0.2-0.5,0.3-0.8,0.5c-0.6,0.3-1.1,0.7-1.7,1.1c0.8,0.2-0.3,0.3,0.1,0.7C52.1,3.9,52,4,52,4l-1,0.3c-0.3,0,0.2-0.3,0.1-0.4
				c-0.6,0.4-0.4,0-0.9,0.1c0.2,0.1,0,0.4-0.4,0.6l0.6-0.1c-0.6,0.9-1,0.1-1.6,1l0.1-0.3c-0.3,0.4-1.5,1.1-1.7,1.8
				c-0.1,0-0.3-0.1-0.2-0.2c-1,0.7-1.9,2.1-2.9,2.4V8.9c-0.2,0.2-0.2,0.5-0.5,0.5c0,0,0-0.2-0.1-0.1S43.3,9.8,43,9.9l0.1-0.3
				c-1.1,0.6-1.2,1.4-2,2.1c-0.3-0.4-1.1,0.1-1.5,0.3v0c-1,0.8-1.9,1.7-2.7,2.6c-0.9,0.1-2.3,1.5-3.5,2c0.2,0,0.2,0.3,0,0.5
				s-0.5,0.8-0.7,0.4l0.1-0.1c-0.4-0.2-0.9,0.3-1.3,0.6l0.2,0.5c-1.5,0.1-2.5,2.2-3.5,2.1c-0.2,0.3-0.5,0.5-0.6,0.8l-0.2-0.2
				c-0.7,0.4-1.3,0.9-1.9,1.4l0.1-0.3c-0.5,0.3-0.1,1.1-0.5,1.5l-0.4-0.2c-0.8,0.6-1.9,1-2.5,1.9c-0.1-0.1,0-0.2,0.1-0.3
				c-0.4,0.3-1.7,0.9-1.2,1.3c-0.2-0.3-0.9,0.6-1.2,1.1l-0.1-0.3c-0.1,0.4-0.3,0.8-0.6,1.1c-0.1,0.1-0.2-0.1,0-0.2
				c-0.5,0.2-0.2,0.5-0.8,0.7l0.1-0.3c-0.4,0.3-0.4,0.4-0.5,0.7s-0.9,0.5-1.1,0.4c0,0.3-0.1,0.5-0.4,0.6c-0.1,0,0-0.2,0-0.2
				c-0.8,0.4-0.9,1.1-1.5,1.2c0-0.1-0.1-0.1-0.2-0.1c0.3-0.3,0.7-0.5,1-0.7c-0.2-0.2-0.6,0.1-0.5-0.5c-0.3,0.4-0.6,1.2-1.2,1.5H14
				v-0.1c-0.1,0.1-0.2,0.1-0.3,0.2s-0.3,0.1-0.4,0.2c-0.2-0.1-0.6,0.3-0.8,0.5c0.2,0.2-0.1,0.4,0.3,0.4c-0.1,0,0-0.1,0.2-0.2
				l0.1-0.1l0,0l0.6-0.4c-0.1,0.3-0.3,0.5-0.6,0.6c0,0.2,0,0.4-0.1,0.6c-0.6-0.1-1.3,0.2-1.5,0.1c-0.6,0.7-1.6,1.3-1.7,2.1
				c-0.2,0.2-0.3,0-0.4,0c0.1-0.1,0.2-0.2,0.2-0.3c-0.3,0.4-1.2,0.9-1,1.3c-0.6,0,0.1-0.7-0.6-0.1v-0.2c-0.2,0.1-0.4,0.1-0.6,0.3
				s-0.5,0.3-0.7,0.5c-0.4,0.3-0.7,0.7-1,1.1c0.4,0.4,0.8,0.8,1.2,1.2c0.2,0.2,0.3,0.4,0.4,0.6c0.1,0.2,0.2,0.4,0.3,0.7
				c0-0.1-0.1-0.2,0-0.3c1,1.9,2.9,3.4,3.7,5.4c0.3,0.5,0.5,0.5,0.9,0.7L12,46.6l0.7,0.3c0.7,0.6,0.3,1.7,1.4,2.3l0.1-0.2
				c0.2,0.3,0.9,1,0.6,1c0.1,0,0.2,0,0.3,0.2L15,50.3l0.8,0.6c0.4,0.7-0.6,0.3,0.1,1.2c0.3,0.3,1.1,0.7,1.1,0.5s-0.2-0.4-0.1-0.5
				l0.3,0.3c0.4-0.2,1-0.3,0.7-1.2l-0.6-0.4v-0.3l0.4,0.4c0-0.4-0.3-0.4-0.5-0.5c0.1-0.1,0.1-0.3,0-0.4l-0.7-0.3
				c0.1-0.2,0.5,0,0.3-0.4c-0.3-0.1-0.1,0.5-0.6,0.2c0-0.4,0.2-0.4-0.2-0.6c0.1-0.1,0.2-0.1,0.3,0c-0.3-0.2-0.6-0.7-0.9-0.7
				c0-0.4-0.7-0.8-0.3-1.1c-0.3-0.1-0.6-0.3-0.8-0.5c0.8,0.1-0.6-0.9-0.1-1.2c-0.6,0-1-1.1-1.7-1.5c0.1,0,0.2,0,0.2,0.1
				c-0.1-0.2-0.2-0.5-0.2-0.8c-0.3,0.2-0.8-0.3-1.2-0.4c0-0.6,0.6,0,0.8-0.4c-0.2,0.2-0.8-0.5-0.9-0.2c0-0.4-0.1-0.3,0-0.7
				c-0.4,0.2-0.3-0.2-0.7-0.3c-0.1-0.6,0.3-0.4-0.2-0.8C10,40.3,10.5,40.7,10.5,40.7z M15.3,32.8L15.3,32.8L15,32.9L15.3,32.8z
				 M16.3,32l-0.4,0.3c-0.1,0-0.1-0.2,0-0.2C15.8,32.2,16,32.1,16.3,32L16.3,32z M13,32c0.1-0.1,0.2-0.1,0.3-0.1L13,32L13,32L13,32z
				"/>
		</g>
		<g>
			<path d="M16.6,43.5c0.2-0.1-0.1-0.3-0.2-0.5c0.1-0.2,0.2,0.2,0.4,0.2c0.1-0.2,0-0.5,0.1-0.6s0.1,0,0.1,0.1c0-0.3,0.4-0.3,0.3-0.7
				l0.1,0.1c-0.1-0.1-0.2-0.2-0.3-0.4c0.1-0.1,0-0.3,0.2-0.1c0,0,0,0.1,0,0.2v-0.2c0.3,0.2,0,0.2,0.1,0.4c0.1-0.2,0.1-0.6,0.3-0.6
				c0.2,0.2-0.2,0.3,0.1,0.4h-0.3c0.5,0.3-0.1,0,0.3,0.4c0.3-0.1,0.2-0.3,0.5-0.4c-0.1-0.2-0.2-0.2-0.2-0.4c0.1-0.5,0.8,0.5,0.8-0.1
				c-0.1-0.2-0.3-0.6,0-0.5l0.2,0.3c0.3-0.1-0.2-0.5,0.2-0.5c0,0.2-0.1,0.2,0,0.2c0.3,0.1,0-0.3,0.1-0.3l0.2,0.3
				c0.2-0.2,0.3-0.6,0.6-0.9c0,0.1,0.1,0.2,0.2,0.2c0.3-0.4,0.7-0.6,1.2-0.6v-0.3l0.1,0.1c0.2,0-0.1-0.2-0.1-0.3s0.2,0.1,0.2,0.2
				c0.1-0.4,0.3-0.9,0.8-0.8v0.1c0.3,0-0.1-0.6,0.2-0.5v0.1c0.5-0.2,0.8-0.8,1.3-0.6c-0.2-0.4,0.5-0.1,0.2-0.6
				c0.4,0.1,0.4,0.2,0.9,0.1c0.1,0-0.1-0.4,0-0.5l0.2,0.2v-0.4l0.3,0.2l0.1-0.1c-0.1,0-0.2,0-0.2-0.1c0.1-0.2,0.5-0.1,0.6,0l0.2-0.5
				c0.1,0.1,0,0.2,0,0.3c0-0.4,0.2,0.2,0.2-0.1c-0.1,0-0.1-0.2-0.1-0.2c0.2,0.1,0.4-0.1,0.5-0.2l0.1,0.2c0.3-0.2,0.5-0.5,0.8-0.8
				c-0.2,0-0.4-0.3-0.3-0.4l0.2,0.2c-0.1-0.2-0.2,0-0.2-0.3c0.1-0.1,0.3,0.2,0.3,0.4l0.1-0.2c0,0.1,0.1,0.2,0.1,0.2
				c-0.1-0.2,0.4,0.1,0.3-0.3l0.1,0.1c0.3-0.2,0.4-0.4,0.6-0.6c-0.2-0.2,0-0.2-0.1-0.5c0.2-0.1,0.6,0,0.8-0.2s-0.1-0.2-0.1-0.4
				c0.2,0.2,0.4,0,0.4,0.2c0.2-0.2,0.4-0.4,0.5-0.7c-0.1-0.1-0.2-0.1-0.2-0.2s0.2,0,0.3,0.1l0,0c0.2-0.6,1.3,0,1.3-0.7l0,0l0.1-0.5
				c0.2-0.1,0,0.2,0.2,0.3c0.1-0.6,0.6-0.4,0.7-0.8c0.7,0.4,0.7-0.6,1.3-0.5h-0.2c0-0.2,0.2,0,0.2,0c-0.1-0.1-0.2-0.1-0.2-0.2
				c0.5-0.6,1.5-0.8,2.2-1.1c0.3-0.1-0.4-0.8,0.1-0.7l0.1,0.3c0.2-0.7,1-0.7,1.3-1.4c0,0.1,0.1,0.2,0,0.2c0.2,0.1,0.4-0.3,0.3-0.4
				c0.1,0,0.1,0.1,0.2,0.2s0.1-0.4,0.3-0.3v0.1c0-0.1,0.3-0.2,0.1-0.4c0.3,0,0.3-0.4,0.5-0.3c-0.1-0.3,0.4-0.1,0.2-0.5
				c0.3,0.4,0.5,0.1,0.5-0.2c0,0.1,0.2,0,0.2,0.2c0.1-0.1,0.1-0.2,0.1-0.3c0,0,0-0.1-0.1-0.1c0.6,0.3,0.2-0.7,0.8-0.2
				c0.2-0.4,0.5-0.8,0.8-1.2c0.2,0.4-0.4,0.3-0.1,0.7c0.2-0.4,0.2-0.9,0.6-1c0.1,0,0.1,0.2,0.1,0.3c0.2-0.4,0.7-0.4,0.8-0.9v0.1
				c0,0,0.2,0,0-0.2V23c-0.3-0.2-0.1-0.7-0.2-0.8c0.3,0.5,0.4-0.1,0.7,0.6c0-0.1,0-0.2-0.1-0.3c0.1,0,0.2,0,0.2,0.2
				c0.1-0.2-0.1-0.4,0.1-0.5c0.1,0.1,0,0.1,0.1,0.2c0-0.2,0-0.5,0.2-0.5c0,0.1,0.1,0.1,0,0.1c0.2-0.2,0.2-0.8,0.6-0.8
				c0.2,0.4,0.2,0,0.4,0.3l0.1-0.2L45,21.2c0.2-0.1,0.1-0.4,0.3-0.4V21l0.2-0.2h-0.2c0-0.3-0.3-0.4,0-0.4c0,0.1,0.1-0.1,0.3,0l0,0
				c0-0.1,0-0.3,0.2-0.3s0.2,0.3,0.3,0.4c-0.1-0.3,0.3-0.3,0.2-0.6c0,0.1,0.1,0.2,0.2,0.3l0.1-0.2c0.1,0,0.2,0,0.2,0.2
				c0.2-0.1-0.3-0.3,0-0.3c0,0,0,0,0,0.1c0.3-0.1,0.3-0.5,0.6-0.5c0.3,0.3-0.1,0.2,0.1,0.4c0.3-0.3,0.4-0.8,0.7-1h-0.1
				c-0.3-0.5,0.4,0,0.4-0.3c0,0.1,0.1,0.3,0.1,0.2c0.3-0.1,0.3-0.4,0.5-0.8v0.1c0.2,0,0.4-0.2,0.5-0.2c0-0.1,0-0.2-0.1-0.3
				c0.9,0.3,0.5-0.9,1.2-0.6c0,0,0,0.2,0,0.1l0.2-0.3c-0.2-0.2-0.1-0.1-0.3-0.2c-0.1-0.1-0.1-0.2,0-0.3c0,0.2,0.2,0.3,0.4,0.4
				c-0.1,0-0.1-0.1-0.1-0.2c0.4,0.2-0.2-0.4,0.1-0.3l0.1,0.1c0-0.1,0-0.3,0.1-0.3c0.2,0.2,0,0.2,0.1,0.4c0.1-0.1-0.1-0.6,0.2-0.5
				c0,0.1-0.1,0.2-0.1,0.3c0.3,0.2,0.3,0.1,0.4,0.1l0,0H52h-0.1c-0.3-0.7,0.2-0.3,0.2-0.9c0.1,0.5,0.1,0.2,0.3,0.5
				c0.1,0,0.2,0.1,0.3,0.1c0-0.3,0.3,0,0.2-0.4c0.1,0.1,0.1-0.1,0.2,0.1c0.1-0.1-0.1-0.1-0.2-0.2c0-0.4,0.7,0,0.7-0.6
				c0.1-0.3,0-0.6,0.1-0.9c0.2,0.1,0.2,0.3,0.2,0.3c0.2,0,0.3-0.1,0.3-0.2c0,0.1,0.1,0.1,0.2,0.2c0.1-0.1-0.2-0.3,0-0.3
				c0.1,0.1,0.1,0.2,0.1,0.4c0.1-0.1,0.1-0.4,0.1-0.5c0.1,0.1,0.1,0.3,0.1,0.4c0.1-0.2,0.2-0.4,0.1-0.6h-0.1l0.2,0.2
				c0,0.2-0.2,0-0.3,0v-0.1c-0.4-0.4-0.3,0.3-0.5,0.4L54,13.7v0.4c-0.1-0.1-0.3-0.2-0.2-0.3c-0.2-0.1,0,0.2-0.2,0.1c0,0,0,0,0-0.1
				V14c0-0.1-0.2-0.2-0.1-0.2c-0.3,0-0.2,0.5-0.4,0.3l0,0c-0.2,0.3,0.2,0.3,0.2,0.7l-0.6-0.5l0.2,0.3c0,0-0.1,0-0.2-0.1
				c0,0.2,0.1,0.1,0.2,0.3c-0.3-0.1-0.3,0.4-0.6,0c0.1,0.2,0.2,0.1,0.2,0.3c-0.3-0.4-0.1,0.2-0.4,0.1C52,15,52.2,15,51.9,14.9
				c0.2,0.4-0.3,0.1-0.4,0.2c0.2,0.3-0.1,0.3-0.2,0.5c-0.1-0.1-0.5,0.1-0.7,0.1l0,0c0.2,0.3,0,0.4-0.1,0.5c-0.1-0.1-0.1-0.2-0.1-0.4
				L50,15.9c0,0.1,0,0.2,0,0.3v-0.4c-0.2,0.1-0.1,0.5-0.4,0.5c0.1,0.2,0.6,0.5,0.5,0.8c-0.1-0.1-0.2-0.3-0.2-0.4s0,0.1-0.1,0.1
				l-0.1-0.2c-0.2,0,0.1,0.2,0,0.2c-0.1-0.2-0.1-0.1-0.2-0.2s0.1,0,0.1-0.1c-0.1,0-0.3,0-0.4-0.1c0.1,0.1,0.2,0.2,0.1,0.3
				s-0.2-0.1-0.3-0.2c0,0.1-0.2,0.1,0,0.3c0,0-0.1-0.1-0.2-0.1c0,0.2-0.4,0.3-0.1,0.5l0,0l0,0l0,0c-0.1,0.4-0.7,0.3-0.8,0.6
				l-0.1-0.1c-0.1,0.2-0.3,0.3-0.3,0.6c0,0-0.2-0.1-0.3-0.2c-0.1,0.1,0,0.2-0.3,0.2c0-0.2-0.1-0.1,0-0.2c-0.2,0-0.3,0-0.3,0.3
				c-0.1-0.2-0.3-0.2-0.3,0l0.2,0.1c-0.1,0.1-0.1,0.1-0.2,0.2L46,18.4c-0.6-0.1-0.2,1-0.8,0.6c0,0.2,0.3,0,0.4,0.3
				c-0.2,0.1-0.6-0.2-0.7-0.2c-0.3,0,0.1,0.5-0.2,0.6c0.1,0.1,0.3,0.3,0.2,0.5s-0.5-0.3-0.5-0.4s0.1,0,0.1,0s0-0.1-0.1-0.2v0.1
				c-0.2,0-0.3,0.1-0.4-0.1c0,0.2,0.1,0.2,0.2,0.2c-0.3,0-0.3,0.2-0.6,0.3c0.1,0,0.2,0.1,0.2,0.1c-0.4,0.1,0,0.3-0.2,0.5
				c-0.2-0.1-0.2-0.4-0.3-0.1c-0.2,0-0.2-0.2-0.2-0.4c0,0.3-0.4,0.1-0.5,0.2v-0.1c0,0.1-0.1,0.1-0.1,0.1l0.2,0.2c-0.1,0-0.1,0-0.2,0
				c0,0.2,0.3,0.3,0.3,0.5c-0.2,0-0.2,0.3-0.4,0c0.3-0.1-0.2-0.2,0-0.4c0,0.1-0.1,0.1-0.1,0.1v-0.1c-0.4-0.1,0.1,0.4-0.1,0.5
				C42.2,21,42,21,42,21s0.2,0.2,0.2,0.4c-0.2,0-0.1,0.2-0.2,0.2h0.1c0.1,0.2,0,0.2-0.1,0.3c-0.1-0.1,0-0.1,0-0.2
				c0.1,0.3-0.5-0.1-0.5,0.2c-0.1,0-0.2-0.3-0.3-0.3c0,0.3-0.3,0-0.4,0.2c0.2,0.1,0.2,0.1,0.2,0.4l0.2-0.4v0.4
				c0.1-0.1,0.1-0.3,0.2-0.3c0,0.2,0,0.2,0.2,0.3c-0.3-0.2-0.1,0.4-0.4,0.3L40.9,22c-0.4,0-0.2,0.5-0.6,0.6h0.2
				c0.1,0.2-0.2,0.2-0.2,0.3c-0.1-0.1-0.2-0.2-0.3-0.2c0.1,0.1-0.2,0.1,0,0.5l-0.3-0.1c-0.3,0.1,0.1,0.6-0.2,0.8
				c-0.1-0.2-0.2-0.3-0.2-0.5c-0.1,0-0.2,0.1-0.1,0.2c-0.1-0.1,0,0.4-0.2,0.3c0,0.1,0.1,0.3,0,0.3c0,0,0,0-0.1-0.1
				c0.1,0.1,0,0.2,0.2,0.3c-0.6-0.3-0.6,0.5-1.1,0.2c-0.1,0.2-0.3,0.3-0.4,0.5c0,0-0.1-0.1,0-0.1c-0.3,0,0.2,0.5-0.1,0.6
				c-0.3-0.2,0-0.2-0.1-0.3c-0.4-0.5-0.2,0.3-0.6,0.1v-0.1c-0.2-0.1-0.1,0.4-0.4,0.5v-0.1c0,0.3-0.1,0.6-0.3,0.9
				c-0.1-0.2,0-0.2-0.2-0.4c-0.1,0.1,0.3,0.3,0.2,0.5c-0.2,0-0.4-0.1-0.5-0.3l0.2-0.1c-0.3-0.2-0.2,0.2-0.3,0.2l-0.1-0.1
				c-0.2,0.2,0,0.5-0.2,0.7l0.1,0.1c0.1,0.4-0.2-0.1-0.2,0.2l-0.3-0.3c0,0.3-0.1,0.5-0.2,0.7c-0.1-0.3-0.1-0.5,0-0.8
				c-0.1,0.1-0.3,0.3-0.2,0.5c0-0.1,0-0.2,0.1-0.1c0.1,0.3,0,0.6-0.2,0.7c-0.4-0.6-0.6,0.2-1.1-0.2c-0.2,0.5-0.7,0.4-1.1,0.7
				c0.5,0.4-0.1,0.1,0.3,0.6c-0.1,0.1-0.1,0.1-0.1,0.1l-0.5-0.1c-0.2-0.1,0-0.2-0.1-0.3c-0.2,0.1-0.2-0.1-0.5-0.2
				c0.2,0.1,0.1,0.3,0,0.3l0.3,0.1c-0.1,0.5-0.5-0.2-0.6,0.2v-0.2c-0.1,0.2-0.5,0.4-0.4,0.9c-0.1,0-0.2-0.1-0.2-0.2
				c-0.4,0.2-0.4,1-0.9,0.9L29,30.8c0,0.1,0.1,0.3-0.1,0.2s-0.1-0.1-0.1-0.1s0,0.3-0.1,0.3V31c-0.5,0.1-0.3,0.7-0.5,1
				c-0.2-0.2-0.5-0.3-0.8-0.2l0,0C27,32,27,32.5,26.7,32.9c-0.5-0.2-0.9,0.4-1.4,0.4c0.1,0,0.2,0.3,0.2,0.4s0,0.4-0.3,0.1l0,0
				c-0.3-0.3-0.4-0.1-0.5,0l0.3,0.4c-0.8-0.4-0.7,0.9-1.3,0.5c0,0.2-0.1,0.2-0.1,0.4l-0.2-0.2c-0.3,0.1-0.5,0.2-0.7,0.4l-0.1-0.2
				c-0.2,0.1,0.3,0.8,0.1,0.9l-0.3-0.3c-0.3,0.2-0.8,0.1-0.8,0.7c0-0.1-0.1-0.2-0.1-0.2c-0.1,0.1-0.7,0.2-0.3,0.6
				c-0.2-0.3-0.3,0.2-0.4,0.4l0-0.2c0.1,0.4,0.1,0.5,0,0.7c-0.1,0-0.2-0.2-0.1-0.1c-0.2,0,0,0.3-0.2,0.3v-0.2
				c-0.2,0.1-0.1,0.2,0,0.4s-0.3,0.2-0.5,0c0.1,0.1,0.1,0.4,0,0.4c0,0-0.1-0.1-0.1-0.2c-0.4,0-0.2,0.5-0.5,0.4l-0.1-0.1
				c0.2-0.1,0.4-0.2,0.4-0.2c-0.1-0.2-0.3-0.1-0.4-0.5c0,0.2,0,0.8-0.2,0.8c0,0,0,0-0.1-0.1l0,0c0,0-0.1,0-0.1,0.1
				c-0.1,0-0.1,0-0.2,0c-0.1-0.2-0.2,0-0.3,0.1c0.2,0.2,0,0.3,0.3,0.4c0,0,0,0,0-0.1l0,0l0,0l0.2-0.2c0,0.2,0,0.3-0.1,0.2
				c0.1,0.2,0.1,0.4,0.2,0.5c-0.3-0.2-0.7-0.3-0.9-0.4c-0.1,0.3-0.5,0.5-0.3,1c0,0.1-0.2-0.1-0.2-0.1s0.1-0.1,0-0.2
				c-0.1,0.2-0.4,0.3-0.2,0.7c-0.3,0-0.1-0.3-0.3-0.1v-0.1c-0.8-0.1-0.2,1.3-1.1,1.1c0.1,0,0.1,0,0.1,0.1c-0.8,0.2-1,1.1-1.9,1.2
				c-0.2,0-0.1,0.2-0.1,0.5l-0.2-0.2v0.4c-0.1,0.4-0.9-0.3-0.9,0.3l0.2,0.1c-0.1,0-0.3,0.3-0.4,0.2c0,0,0.1,0.2,0,0.2l-0.1-0.1
				l-0.1,0.4c-0.3,0.1-0.3-0.5-0.7-0.3c-0.1,0.1,0,0.6,0.1,0.7c0.1,0,0.2,0,0.3,0.1v0.1c0.3,0.4,0.5,0.8,0.9,0.9v-0.4l0.2,0.1
				L13,45.6c0.2,0.1,0.2-0.1,0.1-0.2c0.1,0.1,0.1,0.1,0.2,0.1L13.2,45c0.1,0.1,0.1,0.3,0.3,0.3c0-0.2-0.3-0.3-0.3-0.5
				c0.2,0.1,0.3,0.3,0.3,0c0.1,0.1,0.1,0.1,0.1,0.2c0-0.2,0.2-0.2,0.1-0.5c0.2,0.1,0.3-0.3,0.5,0.1c-0.1-0.2-0.1-0.3,0-0.5
				c0.2,0.5,0.3-0.2,0.6,0.3c-0.2-0.5,0.3-0.5,0.3-0.8v0.1c0.1,0,0.2,0,0.4,0.1c-0.2-0.3-0.1-0.5-0.1-0.8c0.4,0.2,0.2,0.4,0.4,0.7
				c-0.2-0.2,0.1-0.4-0.2-0.6c0.2,0.1,0.2,0,0.4,0.2c-0.3-0.4,0-0.1,0-0.5c0.3,0.1,0.3,0.3,0.4,0.1C16.6,43.2,16.6,43.5,16.6,43.5z
				 M20,39.9L20,39.9L20,39.9L20,39.9z M20.3,39.6l-0.1,0.1c-0.1-0.1-0.1-0.2-0.1-0.2S20.2,39.6,20.3,39.6L20.3,39.6z M18.5,38.6
				c0-0.1,0.1,0,0.1,0H18.5L18.5,38.6L18.5,38.6z"/>
		</g>
		<g>
			<path d="M49.3,8c0,0.1,0.3-0.2,0.5-0.3S49.6,7.9,49.5,8c0.1,0,0.4-0.2,0.4-0.2L49.8,8c0.3-0.1,0.1,0.1,0.4-0.1c0,0,0,0-0.1,0.1
				l0.4-0.3c0,0,0.2-0.1,0,0c0,0-0.1,0-0.2,0.1h0.1c-0.3,0.2-0.1,0-0.3,0.2c0.1,0,0.4-0.1,0.3,0c-0.3,0.2-0.2,0-0.4,0.2L50.3,8
				c-0.4,0.4,0-0.1-0.4,0.3c0,0.1,0.2,0,0.2,0.1c0.2-0.1,0.2-0.2,0.4-0.3c0.3-0.1-0.6,0.6-0.2,0.4c0.2-0.1,0.5-0.4,0.4-0.2l-0.3,0.2
				c0,0.1,0.5-0.3,0.3-0.1s-0.2,0-0.2,0.1c-0.2,0.2,0.2-0.1,0.2-0.1l-0.3,0.2c0.1,0,0.4,0,0.5,0c-0.1,0-0.2,0.1-0.2,0.2
				c0.2,0,0.1,0.2,0,0.5L51,9.2l-0.1,0.1c0,0,0.2-0.1,0.2-0.2S51,9.2,50.9,9.3c0.2-0.1,0.6-0.1,0.4,0.1h-0.1c0,0.1,0.5-0.3,0.3-0.1
				l0,0c0,0.2,0.3,0.2,0,0.5c0.4-0.2-0.1,0.2,0.4-0.1c-0.2,0.2-0.3,0.3-0.4,0.5c0,0.1,0.3-0.2,0.4-0.2l-0.2,0.2l0.3-0.1l-0.3,0.2
				h0.1c0,0,0.1-0.1,0.2-0.2s-0.1,0.2-0.2,0.3H52c-0.1,0-0.1,0.1-0.2,0.1c0.3-0.1-0.2,0.2,0,0.1c0.1,0,0.1-0.1,0.2-0.1
				c-0.1,0.1-0.1,0.2,0,0.2l-0.2,0.1c0,0.1,0.2,0.1,0.3,0.2c0.1-0.1,0.2-0.2,0.4-0.3l-0.2,0.2c0.2-0.1,0.1-0.1,0.3-0.2
				c0,0.1-0.3,0.2-0.4,0.3h0.1c-0.1,0.1-0.1,0.1-0.2,0.2c0.2-0.1-0.2,0.3,0.1,0.1l-0.1,0.1c0.1,0.1,0.2,0.1,0.3,0.1
				c0.2-0.2,0.2-0.1,0.4-0.2c0,0.1-0.2,0.3-0.1,0.4s0.2-0.1,0.3-0.2c-0.2,0.1-0.1,0.2-0.3,0.3c0.1,0.1,0.1,0.1,0.4,0.1
				c0.1-0.1,0.1-0.1,0.2-0.2c0,0-0.1,0.1-0.2,0.2l0,0c0.4-0.1-0.4,0.7,0.1,0.5l0,0l0.3-0.1c0,0.1-0.2,0.1-0.3,0.2
				c0.4-0.1,0.1,0.2,0.4,0.1c-0.5,0.5,0.2,0.2-0.1,0.6l0.1-0.1c0.2-0.1-0.1,0.1-0.1,0.1s0.1-0.1,0.2-0.2c0.3,0.1,0.1,0.6,0.1,0.9
				c0,0.1,0.8-0.5,0.5-0.2L54,13.9c0.4-0.1,0.2,0.3,0.6,0.3c-0.1,0-0.1,0.1-0.2,0.1c-0.2,0.2,0.1,0.1,0.2,0c0,0-0.1,0.1-0.2,0.2
				s0.3-0.1,0.1,0.1h-0.1c0.1-0.1,0,0.1,0.2-0.1c-0.1,0.1,0.2,0,0.1,0.2c0.3-0.1,0,0.2,0.3-0.1c-0.4,0.3-0.2,0.3,0,0.2
				c-0.1,0.1-0.1,0.1-0.2,0.2c0,0,0.1,0,0.3-0.1c-0.4,0.4,0.5-0.1-0.1,0.4c0.2,0,0.4,0,0.7,0c-0.4,0.3-0.1-0.1-0.5,0.2
				c0.2,0,0.6-0.2,0.6,0s-0.2,0.1-0.2,0.1c0.2,0,0.1,0.2,0.4,0.2h0c0,0,0,0.1,0.1,0H56c0.2-0.2,0.4-0.3,0.7-0.4
				c-0.5,0.3,0,0.2-0.7,0.6c0.1,0,0.2-0.1,0.2-0.1S56.1,16,56,16.1c0.1,0,0.3-0.2,0.3-0.1l-0.2,0.1c0.2-0.1,0.4-0.2,0.3-0.1
				c-0.1,0.1-0.1,0.1-0.1,0.1s0.5-0.2,0.4,0c-0.4,0.2-0.1,0.1-0.4,0.4h0.1l0.1-0.1c0,0,0.3-0.1,0.2,0l-0.2,0.1h0.1l0.1-0.1
				c0.2-0.1,0.4-0.3,0.3-0.2s0,0-0.1,0.2l0,0c0.1,0,0.2-0.1,0.2,0s-0.3,0.2-0.4,0.3c0.3-0.2,0.2,0,0.4-0.1c-0.1,0.1-0.2,0.1-0.2,0.2
				l0.2-0.1c-0.1,0.1-0.1,0.1-0.2,0.2c0,0.1,0.4-0.3,0.2-0.1H57c0,0.1,0.2,0,0.2,0.2c-0.3,0.2-0.1,0-0.3,0.2
				c0.1,0.1,0.5-0.1,0.5,0.1l0,0c0.4-0.3-0.2,0.2,0.1,0.1c-0.1,0-0.1,0.1-0.2,0.1c0,0.1,0.2,0,0.4,0l-0.1,0.1c-0.1,0.1,0,0.1,0,0.2
				c0.1,0,0.2-0.1,0.3-0.2c-0.5,0.6,0.5,0,0.1,0.5h-0.1h0.2c0.1-0.1,0.2-0.1,0.2-0.2c0.1-0.1,0.2-0.1,0.2-0.1
				c-0.2,0.1-0.3,0.2-0.4,0.3l0.2-0.1c-0.3,0.3,0.4-0.3,0.2,0l0,0c0.1,0,0.2-0.1,0.2,0c-0.2,0.2-0.1,0-0.3,0.2c0,0,0.5-0.2,0.3,0
				c-0.1,0-0.1,0-0.2,0c-0.2,0.2-0.2,0.2-0.2,0.2l0,0l-0.1,0.1v-0.1c0.6-0.4,0.2,0,0.6-0.2c-0.4,0.2-0.2,0.1-0.5,0.3
				c-0.1,0.1-0.1,0.1-0.2,0.2c0.2-0.1-0.1,0.2,0.2,0c-0.1,0.1,0,0-0.2,0.2c0.1,0,0.1-0.1,0.2-0.2c0.3-0.1-0.2,0.4,0.2,0.2
				c0.2,0,0.5-0.2,0.7-0.2c-0.1,0.1-0.2,0.1-0.3,0.2s0,0.1,0.1,0.1c-0.1,0-0.2,0.1-0.2,0.2c0,0,0.3-0.2,0.2-0.1l-0.3,0.2
				c0.1,0,0.3-0.1,0.4-0.1c-0.1,0.1-0.2,0.1-0.3,0.2c0.2,0,0.3,0,0.4-0.1l0.1-0.1c0,0-0.2,0.1-0.2,0.2c-0.2,0.1,0-0.1,0.1-0.2h0.1
				c0.4-0.4-0.2,0-0.2-0.1l0.3-0.2L59.2,19c0.1-0.1,0.2-0.2,0.3-0.2c0.1-0.1-0.1,0.1,0-0.1h0.1h-0.1c0.1,0,0.2-0.2,0.2-0.1
				c0.1-0.2-0.3,0.1-0.1-0.1l0,0c-0.2,0-0.2,0.2-0.6,0.3l0.6-0.5l-0.2,0.2c0,0,0,0,0.1-0.1c-0.2,0.1-0.1,0.1-0.3,0.2
				c0.2-0.2-0.2,0,0.2-0.4c-0.2,0.1-0.1,0.1-0.3,0.2c0.4-0.3-0.1,0,0-0.2s0.1,0,0.3-0.2c-0.4,0.2,0-0.1-0.1-0.1
				c-0.3,0.2-0.2,0-0.3,0c0.1-0.1,0.1-0.2,0.1-0.4l0,0c-0.3,0.2-0.3,0.1-0.4,0.1c0.1-0.1,0.2-0.2,0.3-0.2l0,0
				c-0.1,0-0.1,0.1-0.2,0.1l0.2-0.1c0,0-0.3,0.1-0.2-0.1c-0.2,0.1-0.5,0.5-0.7,0.5c0.1-0.1,0.2-0.2,0.3-0.2h-0.1l0.2-0.1
				c0.1-0.1-0.2,0.1-0.2,0.1c0.2-0.1,0.1-0.1,0.2-0.2s0,0.1,0,0s0.1-0.2,0.2-0.2c-0.1,0.1-0.2,0.1-0.2,0.2l0.2-0.2
				c-0.1,0.1,0,0-0.3,0.1c0,0,0.1-0.1,0.2-0.1c-0.1,0-0.1-0.1-0.3,0.1l0,0l0,0c-0.3,0.1,0-0.3-0.2-0.3l0.1-0.1c-0.1,0-0.1-0.1-0.3,0
				c0,0,0.1-0.1,0.2-0.2c-0.1,0-0.2,0.1-0.1-0.1s0.1-0.1,0.1,0c0-0.1,0.2-0.2-0.1-0.1c0.2-0.1,0.2-0.2,0.2-0.2l-0.1,0.1
				c0,0,0,0,0-0.1l0.3-0.2c0.2-0.3-0.7,0.2-0.2-0.2C58,16,58.1,16,57.9,16.2c0-0.1,0.3-0.4,0.3-0.4c0.1-0.2-0.4,0.2-0.4,0.1
				c-0.1,0.1-0.3,0.2-0.5,0.3c0-0.1,0.4-0.4,0.5-0.4s0,0,0,0.1c0.1,0,0.1-0.1,0.2-0.1l0-0.2c0.1-0.1,0-0.2,0.2-0.3
				c-0.1,0-0.2,0.1-0.2,0.2c0.1-0.2-0.1-0.1,0-0.2c0,0.1-0.1,0.1-0.2,0.1c0-0.2-0.2,0.1-0.3,0.1c0.1-0.1,0.4-0.2,0.2-0.2
				c0.1-0.1,0.2-0.2,0.3-0.2c-0.2,0.1,0-0.2,0.1-0.2h0.1c-0.1,0-0.1,0-0.1,0L58,15c0-0.1,0-0.1,0.1-0.1c-0.1,0.1-0.3,0.2-0.5,0.3
				c0.1-0.1-0.2,0,0.1-0.2c0,0.1,0.2-0.2,0.3-0.2s0,0,0-0.1h0.1c0.2-0.2-0.3,0.2-0.4,0.1c0.2-0.1,0.3-0.2,0.2-0.2s-0.2,0.2-0.4,0.2
				c0.1-0.1-0.1,0-0.1,0V15c-0.2,0.1-0.2,0.1-0.2,0.1c0.1-0.1,0.1,0,0.1-0.1c-0.3,0.1,0.2-0.3,0-0.2c0.1-0.1,0.3-0.2,0.3-0.3
				c-0.2,0.1,0.2-0.2,0-0.1c-0.1,0.1-0.2,0.2-0.3,0.2h0.2l-0.3,0.1c0,0,0.2,0,0.1,0c-0.1,0-0.2,0.1-0.3,0.2c0.3-0.2-0.2,0.1-0.1-0.1
				l0.5-0.4c0.2-0.2-0.3,0.1-0.3-0.1L57,14.4c-0.2,0.1-0.1,0-0.2,0c0.1-0.1,0.2-0.2,0.3-0.3c-0.1,0.1,0-0.1-0.4,0.1l0.1-0.2
				c0-0.1-0.5,0.2-0.5,0.1c0.2-0.1,0.3-0.2,0.5-0.2c0,0,0-0.1-0.1,0c0.1-0.1-0.3,0.1-0.1,0c-0.1,0-0.2,0.2-0.2,0.1l0.1-0.1
				c-0.1,0-0.2,0.1-0.3,0.2c0.4-0.4-0.2-0.2,0.2-0.6c-0.1,0-0.2,0-0.2-0.1c0,0,0.1-0.1,0.1,0c0.1-0.2-0.5,0.3-0.4,0.1
				s0.2-0.1,0.2-0.2c0.5-0.4-0.1,0,0.1-0.3l0,0c0.2-0.2-0.3,0.1-0.3,0l0.1-0.1c-0.2,0.1-0.4,0.2-0.6,0.1c0.1-0.1,0.2-0.1,0.3-0.2
				c0,0-0.3,0.3-0.4,0.2c0.1-0.1,0.2-0.3,0.4-0.4l0,0c0.3-0.2,0-0.1,0-0.1l0.1-0.2c-0.1,0-0.4,0.2-0.5,0.1l-0.1,0.1
				c-0.3,0.2,0.1-0.2-0.1,0l0.3-0.2c-0.2,0.1-0.3,0.1-0.5,0.1c0.2-0.1,0.4-0.2,0.6-0.2c0,0-0.1-0.1-0.3,0c0,0,0.1-0.1,0.1,0
				c-0.3,0.1-0.4,0.2-0.5,0.1c0.6-0.4,0-0.3,0.5-0.7c-0.3,0.1,0-0.3-0.2-0.4c-0.4,0.4,0,0-0.5,0.4l0,0l0.2-0.3
				c0.1-0.1,0.1-0.1,0.2-0.1s0.2-0.2,0.3-0.3C55.1,11,55,11.1,55.1,11l-0.2,0.2c-0.3,0.1,0.3-0.4,0-0.3l0.2-0.1
				c-0.1,0-0.1-0.2-0.5,0.1c0.1-0.1,0.1-0.1,0.2-0.2c0-0.1-0.6,0.1-0.4-0.2l0.1-0.1c0,0-0.2,0.1-0.2,0l0.1-0.1c0,0-0.2,0.1-0.2,0
				l0.2-0.1c0.1-0.2-0.5,0.1-0.6,0.1c0.3-0.3,0.4-0.4,0.4-0.5h0.1c0-0.2-0.5,0-0.7,0c0.3-0.4,0-0.4,0.1-0.6
				c-0.1,0.1-0.2,0.2-0.3,0.2c0-0.1-0.3,0.1,0-0.1l0,0C53.7,9,53.6,9.1,53.6,9l-0.4,0.3c0.5-0.6-0.4-0.1,0.1-0.6
				c-0.1,0.1-0.2,0-0.3,0.1L53.5,9c0-0.1,0-0.2-0.1-0.2l0.2-0.1c0-0.1-0.7,0.4-0.8,0.4l0.3-0.3c-0.1-0.1,0.2-0.4-0.2-0.2l0.2-0.1
				c0,0,0.1-0.3-0.3,0c0.3-0.2,0-0.1-0.2-0.1l0.2-0.1c-0.3,0.2-0.4,0.2-0.5,0.2s0.2-0.1,0.1-0.1c0.1-0.1-0.2,0.1-0.2,0l0.2-0.1
				c0-0.1-0.1,0-0.3,0.1s0-0.1,0.2-0.3C52.2,8.2,52,8.3,52,8.2c0,0,0.1-0.1,0.2-0.1C52.3,7.9,51.9,8.2,52,8l0.1-0.1
				c0,0.1,0.1,0.1,0,0.1c0.2-0.1,0.3-0.3,0.5-0.4c-0.2,0.1-0.6,0.3-0.5,0.1l0.1-0.1l0,0l0,0V7.5c0.2-0.1,0-0.1,0-0.2
				C52,7.5,52,7.4,51.8,7.6H52l0,0c-0.1,0.1-0.2,0.1-0.1,0l-0.4,0.2c0.3-0.3,0.4-0.5,0.6-0.6c-0.2-0.1-0.5,0-0.7,0.2
				c-0.1,0,0.1-0.1,0.2-0.2s0,0,0.1,0c-0.1,0-0.1-0.1-0.4,0.1c0.1-0.2,0.3-0.2,0.2-0.2L51.6,7c0.4-0.5-0.9,0.3-0.4-0.3L51,6.9
				c0.1-0.4-0.5-0.2-0.2-0.7c0-0.1-0.1,0-0.3,0.1l0.2-0.2l-0.3,0.2c-0.3,0.1,0.5-0.6,0-0.4V6c0-0.1-0.2,0,0-0.2c0,0-0.2,0.1-0.1,0
				l0.1-0.1l-0.3,0.1c0-0.1,0.5-0.4,0.5-0.5c-0.2,0.1-0.4,0.1-0.5,0.2c0,0,0,0.1-0.2,0.2h-0.1c-0.4,0.2-0.7,0.5-1,0.8l0.3-0.1
				L49,6.7l0,0c-0.2,0.2,0,0.1,0.1,0c-0.1,0-0.1,0.1-0.2,0.2l0.4-0.2C49.2,6.8,49,6.9,49,7c0.2-0.1,0.3-0.3,0.5-0.3
				c-0.2,0.2-0.3,0.2-0.1,0.2C49.3,7,49.3,7,49.2,7c0.1-0.1,0.1,0,0.3-0.1c-0.2,0.2,0.1,0.1-0.2,0.3c0-0.1,0.1-0.2,0.2-0.2
				c-0.5,0.3,0,0.1-0.4,0.4c0.4-0.2,0.3,0,0.5-0.1h-0.1c0,0-0.1,0.2-0.2,0.2c0.2-0.1,0.4-0.2,0.7-0.3c-0.2,0.2-0.4,0.3-0.7,0.5
				c0.3-0.2,0.3-0.1,0.5-0.3c-0.1,0.1-0.2,0.2-0.3,0.3c0.4-0.3,0.1,0,0.3-0.2c-0.2,0.2-0.4,0.3-0.2,0.2C49.6,7.9,49.5,8,49.3,8z
				 M50.9,8.7L50.9,8.7L50.9,8.7L50.9,8.7z M51,8.8L51,8.8c0-0.1,0.1-0.1,0.2-0.2C51.1,8.7,51.1,8.8,51,8.8L51,8.8z M52.4,7.4
				L52.4,7.4L52.4,7.4L52.4,7.4L52.4,7.4z"/>
		</g>
	</g>
</g>
</svg>
