<svg xmlns="http://www.w3.org/2000/svg" viewBox="0 0 158.67 57.14"><title>Element 214</title><g id="Ebene_2" data-name="Ebene 2"><g id="Ebene_2-2" data-name="Ebene 2"><path d="M156.7,2.93c0-.14-.15-.24-.35,0l.07.39Z"/><path d="M154.78,3.84c-.15.36-.27.84.11.91,0-.47.2-.43.22-1,.2-.24.47-.28.51-.15,0-.14.4-.27.38-.53a1.51,1.51,0,0,0-1.09.91C154.78,4,154.81,3.9,154.78,3.84Z"/><path d="M132.5,23.28l.17-.1A.62.62,0,0,0,132.5,23.28Z"/><path d="M119.65,30.54c.11.09.17.11.2.09S119.64,30.5,119.65,30.54Z"/><path d="M117.56,28.18l.13.14C117.65,28.25,117.61,28.19,117.56,28.18Z"/><path d="M132.5,23.28l-.43.25C132.12,23.63,132.31,23.42,132.5,23.28Z"/><path d="M152.29,7.16a.75.75,0,0,0,.14-.24l-.16.2Z"/><path d="M138.31,17.67l.11-.1a1.15,1.15,0,0,0,0-.19Z"/><path d="M142.88,13.47c-.11.09,0,.33.08.46a.43.43,0,0,1,.1-.35A.43.43,0,0,0,142.88,13.47Z"/><path d="M150.5,7.25l.1-.14Z"/><path d="M135,20.59a.2.2,0,0,0-.11,0A.2.2,0,0,0,135,20.59Z"/><path d="M6.79,51.11l0,0S6.75,51.13,6.79,51.11Z"/><path d="M.25,54.4l.07-.07a.39.39,0,0,0-.08-.14Z"/><path d="M113.55,24.09v0C113.7,24.19,113.63,24.14,113.55,24.09Z"/><path d="M72.78,34c.61-.21-.5.88.35.49C73,34.49,73.45,33.64,72.78,34Z"/><path d="M152.15,7.25l-.19.17A1.19,1.19,0,0,0,152.15,7.25Z"/><path d="M73.13,34.51h0l.09,0Z"/><path d="M103.62,15.4a.43.43,0,0,0,0,.19S103.66,15.51,103.62,15.4Z"/><path d="M110.66,22.27l-.15-.19A1.81,1.81,0,0,0,110.66,22.27Z"/><path d="M99.28,12a1.65,1.65,0,0,0-.4-.39l.06.1C99,11.77,99.12,11.84,99.28,12Z"/><path d="M94.54,14.92l.11,0,.12-.13Z"/><path d="M19.47,41.13a.92.92,0,0,1-.35-.05C19.31,41.19,18.74,41.72,19.47,41.13Z"/><path d="M152.19,7.05a.21.21,0,0,1,0,.2l.12-.13S152.23,7,152.19,7.05Z"/><path d="M98.56,14.37l0-.07h0Z"/><path d="M46.84,36.28l-.16-.12A.36.36,0,0,0,46.84,36.28Z"/><path d="M97.32,15.4a1.52,1.52,0,0,0-.48.17.53.53,0,0,0,0,.12Z"/><path d="M19.12,41.08Z"/><path d="M15.13,45c.64-.49.08-.52.09-.79.69-.67.51-.06.89-.11.41-.44.57-1,.93-1.25.06,0,.15,0,.11.11.32-.62,1.48-1.16,1.84-1.9a.25.25,0,0,1,.13,0,.68.68,0,0,1-.4-.33c.28-.23.39-.6.64-.49-.18.13-.13.22-.17.34l.24-.31c.48.07-.34.41-.18.61a8.72,8.72,0,0,1,1.52-1.56c.3.2-1,.9-.19.68l-.77.43c.85,0-.44.29.39.37,1-.62.91-.92,1.88-1.54.09-.31-.24-.17-.15-.48,1.08-1.26,1.54-.11,2.21-1.2.1-.37-.06-.78.75-1.12V37c.9-.65.16-.82,1.24-1.33-.07.24-.61.63-.45.57.78-.23.29-.5.74-.86l.31.2c.9-.77,1.78-1.76,2.78-2.61,0,.12-.1.34.2.24a23.09,23.09,0,0,1,4.21-2.94l.3-.61c.11-.08.29-.05.2.08.56-.29-.09-.16.08-.44s.47-.15.35.06a14.62,14.62,0,0,1,1.48-1.55,8.45,8.45,0,0,1,.87-.72.47.47,0,0,1,.36-.11l0,.15c.07,0,.11-.08.15-.18s.36-.32.48.09l-.08,0,.12.16.26.27L39,28,40,29a9.68,9.68,0,0,1,1.66,2.06c.5-.1,1.23,1.5,1.73,1.18a9.72,9.72,0,0,0,1.25,2.1c.27.32.7.18,1.11.51l-.21.22.72.28v.52l.4.29c-.12-.15-.19-.39-.1-.43.63.44,1.15,1.47,1.05,1.59l1.45,1.1c-.12.06-.36-.13-.58-.24.9.46-.11.35.71.77,0-.13.18-.08.24-.11a5.52,5.52,0,0,0,1.45,1.62l-.25,0c.9,1,2.05,1.93,3.1,3-.31-.45,0-.62.38-.33l-.11.35c.34.06-.24-.41.35-.17.36.42,0,.53-.3.37l.56.41c-.05.09-.19,0-.31.07.34.06.59,1.07,1.13,1.11l-.05.09c.53.53.93.9,1.31,1.24l.57.51.35.33.57.56c.16-.23.72.43,1.16.54l.16.19L61.2,47.5c.23-.17.45-.35.69-.52s.38-.32.57-.49c.47-.61,0-.33.15-.68.21.15,1-.58.7-.07a26,26,0,0,0,2.28-2.4c-.21,0-.39.14-.37,0,.2-.23.58-.38.63-.26l0,.08c1.11-1.52,3.65-2.29,4.38-3.66l0,.07.94-1.22c.55-.44-.18.42.31.19.93-1.41,2-1.68,2.78-2.8,1.28-.13,2.72-2.51,4.09-3.1l-.18-.08c.15-.37.39-.22.62-.37-.12-.07-.4.15-.3-.07a81.18,81.18,0,0,1,7.37-6.07c.89-.74-.13-1.12,1.24-1.78l-.09.52c1.47-1.86,3.56-3.18,5-5,0,.15,0,.22-.16.37.52-.14,1.34-1.19,1.21-1.34.28-.22.18.08.41,0,.46-.22.7-1,1-1,.06,0,0,.15-.1.22.16-.29,1.11-1,.7-1,.73-.48,1.14-1.19,1.76-1.53.12-.53,1.19-.87,1-1.29.08.19.47,0,.48,0s.12-.12.19-.28l.08-.05c0,.14.06.25,0,.43,0,0,.06,0,.12,0s.15,0,.19,0a.13.13,0,0,0,.13-.09c.48,1.16,2,1.21,2,2.15,1.53,1.05,2.91,2.07,4.21,3.09-.35.3-1.39-1.19-1.66-.79a18.81,18.81,0,0,1,3.31,2.35c.26.32-.3,0-.45,0,1.29.91,2.23,2.06,3.43,2.81,0,0-.18,0-.3-.11.21.17.43.48.54.3l-.24-.14c-.12-.51,1.23.27,1.37.19-.74.12.93,1-.12,1.09.16.09.4.17.46,0,.17.21.18.32-.13.26.81.57.7.18,1.36.78-.07.07-.23,0-.38,0a3,3,0,0,1,1.44.88c-.07,0-.06.13-.23,0,1,.85,2,1.09,2.92,2.18-.6,0,.27.43.07.76l.64.43-.1-.34c.49.45,1.11.64,1.46,1.12l-.47-.22,1,.79-.44-.58c.64.3.27-.4.86.27-.16-.09.49.45.61.85h0a2.24,2.24,0,0,1,1,.74c.08.23-.26.32-.21.47a2.37,2.37,0,0,1,.94.58,4.23,4.23,0,0,0,1-1.21c-.08.18,0,.38.06.37,0-.16.1-.32.13-.46.35-.2.36-.17.44,0,.73-.59-.53-.15.42-.74,0,.07,0,.07-.1.22.9-.66,1.49-1.56,2.33-2.15.47.08-.6.67-.13.67a43.65,43.65,0,0,1,3.07-3.27l-.22.15c-.21-.53,1-.52,1.33-1.19-.11.15,0,.38,0,.3a19.27,19.27,0,0,0,2.38-2.55l0,.23c.51-.3,1.17-1,1.68-1.34,0-.22.32-.44,0-.45,1.94-.7,2.43-2.75,4.12-3.41-.15.13-.28.41-.16.3l1-1.06c-.24-.1-.23,0-.58.09a1.91,1.91,0,0,1,.55-.82c-.38.55.25.28.54.18-.08,0-.06-.14-.13-.18.84-.2-.21-.43.74-.92l0,.13a4.84,4.84,0,0,1,.73-.92c.31.09-.22.37-.09.55.42-.4.52-1.15,1.09-1.3-.14.22-.4.46-.54.68a1.87,1.87,0,0,0,1-.51l0,0,.83-.56-.24.1c.08-1,1-1.09,1.45-2.09-.42,1,0,.29.2.56.24-.1.59-.29.56-.15.19-.5.71-.38,1-1.09.09,0,.37-.33.46-.07.4-.47-.22,0-.26-.16.47-.87,1.9-1.17,2.59-2.41.73-.92.67-1.31,1.36-2.15.37-.13,0,.46,0,.46A3.22,3.22,0,0,0,151.68,7c0,.14.11.11.31.08.31-.31,0-.46.51-.75a1.45,1.45,0,0,1-.07.59c.33-.41.59-.9.93-1.32.22,0-.07.41-.13.62.4-.47,1.06-1.17,1-1.5l-.35.19c.15-.16.24.1.15.24-.25.51-.62.44-.71.38l.24-.3c-.67-.16-1.08,1.1-1.68,1.6l0-.53-.36.79c-.19,0-.44-.06-.19-.36-.55.22-.27.44-.78.59-.06,0-.05,0,0-.07l-.32.46c0-.14-.26-.16,0-.34-.88.48-.95,1.28-1.44,1.3l.05-.08c-.91,1,.11.32-.41,1.26l-1-.1.11.32c-.11.08-.33.25-.38.13-.24.5.16,0,.07.38-.69.25-1.29,1.34-1.73,1.08,0,.33.6-.3.18.3-.51-.25-.56.62-1.17.86,0-.33.48-.61-.13-.38,0,.59-1,.73-1.28,1.14.22.28-.73.86-1.3,1.54a16.89,16.89,0,0,0-2,1.39l0-.07c.13.38-.54.89-.93,1.35-.13-.18-.11-.32.07-.61l-.43.39a1.2,1.2,0,0,1-.35.62l-.08-.3a10.13,10.13,0,0,1-1.76,1.78c.13.23,1.05,0,.4.83-.12-.08-.31-.23-.15-.45,0,.07-.15.29-.33.37l.15-.45c-.39.22,0,.3-.32.52-.12-.15-.29.07-.35-.08s.28-.14.33-.29a2.16,2.16,0,0,1-1,.47c.1.06.18.2,0,.42-.55.52-.35,0-.75.22,0,.22-.5.44-.31.67-.16.15-.29.07-.4.07-.21.36-1.34,1.26-.8,1.19l.09-.05,0,.05h0c-.76,1.08-2.1,1.67-3,2.62l-.06-.07a12.63,12.63,0,0,0-1.48,1.71c-.17.15-.51.22-.52.07a3.09,3.09,0,0,1-1.09,1c.32-.52-.25,0,.36-.49-.62.44-.85.44-1.27,1.18,0-.37-.64.15-.86.45l.52-.23a8.1,8.1,0,0,1-.84.75l-.08-.38a4.41,4.41,0,0,0-1.5,1.51c-.1.13-.19.26-.3.39l-.25.28c-.12.11-.27.17-.39,0-.11.42.33-.07.31.32a.42.42,0,0,1-.41.08c-.15-.33-.17-.57-.2-.59s-.08-.12-.13-.13-.24-.08-.36-.1a1.39,1.39,0,0,1-.87-.51c0,.18-.1.5-.74.07s-.32-1,.08-.73c.13.11.17.19.14.22.2.12.46.28.33,0l-.15,0c-.18-.33-.92-1-.62-1-.47-.27-.3,0,0,.31-.57-.74-1.06-1-1.68-1.68.06.15.07.35,0,.25-.93-1-.6-.24-1.33-.83-.27-.49.43-.19-.37-.71-.35-.47.12-.31.35-.23-.79-.41-1.09-1.19-1.43-1.55l.4.24a3.88,3.88,0,0,1-.57-.44l0,.35c-.17-.21-.34-.36-.27-.43-.31-.07-.11.43-.65.23-.19-.33-.89-.63-.77-.94.76.82.12-.32.85.27a1.81,1.81,0,0,1-.49-.45s.07,0,.14,0c-.61-.92-.61-.06-1.42-.8.22,0,0-.43-.13-.52.33.3,0,.36-.43.19-.43-.57-.64-.43-.91-.69l.28.33c-.23,0-.48-.22-.88-.51.06-.13.4.23.3.07-.61-.14-.7-1.07-1.41-1.42-.18-.33.2-.27,0-.54-.79-.4-.52-.8-1.32-1.26,0,.35.11.34-.52.09l1.21.86-.94-.38c.33.3.8.52,1,.73-.47-.16-.4-.17-.37.12-.22-.68-1-.66-1.4-1.31l.41-.42c-.62-.91-1.61-1-2.53-2.07l.26.37c-.3.06-.66-.54-1-.77.16-.12,0-.36-.06-.57-.08.12-.74-.69-1.1-.48l-.28-.6c-.76-.83-1.32-.43-2.07-1.2.38.06.11-.37.75,0-.27-.24-.48-.48-.58-.38a.4.4,0,0,0-.17-.18l-.46-.3a2.47,2.47,0,0,1-.79-.69c-.14,0-.22.08-.43,0a1,1,0,0,1-.21.21s0-.12,0-.12-.58.7-.2.66a2.4,2.4,0,0,0-1,.55,8.13,8.13,0,0,0-.84.73,4.23,4.23,0,0,1-1.6,1.16c-.53.57-1.19,1.24-1.71,1.73,0-.08-.06-.08,0-.15-.85.51-.06.82-1,1.41-.63.14.33-.52,0-.37-.55-.38-.93,1-1.74,1.18l.11-.15c-.58.21-.88,1.11-1.6,1.7,0,0,0-.07-.06-.07A9.38,9.38,0,0,1,87,22.41c0-.38.22-.38-.08-.45-.28.29.36.23-.19.82-.28.07-.8.37-1,.21l.56-.52c-.53,0-.72.67-1.06.89l-.07-.15c-.83.82-.58,1.12-1.52,1.93h.17c-.25.75-.57.22-.88.89l-.42-.15A21.7,21.7,0,0,1,81,27.81,9.89,9.89,0,0,1,82,26c-.34.29-1.11,1-1.15,1.33.1-.15.21-.37.38-.44A4.3,4.3,0,0,1,80,28.7c-.39-.68-1.85,1.4-2.73,1.39-1,1.27-2.4,2-3.73,3.26.88,0-.38.37.11.75-.29.32-.42.42-.47.41l-1.21.6c-.35.07.21-.37.09-.45-.73.59-.46.07-1,.36.24.08,0,.45-.49.75l.75-.3c-.75,1.12-1.18.38-2,1.5l.19-.42c-.43.53-1.86,1.66-2,2.47-.14,0-.37,0-.18-.22-1.25,1-2.32,2.79-3.45,3.4V42c-.2.23-.2.56-.58.7,0-.06,0-.19-.12-.11a2.91,2.91,0,0,1-.78.94l.14-.36a5.27,5.27,0,0,0-1.36,1.42l-.49.74a4.22,4.22,0,0,1-.27.36l-.24.3a1.26,1.26,0,0,0-.52-.32l0-.15v-.07a.08.08,0,0,0,0-.05l0,0-.2-.17c-.31-.26-.62-.5-.93-.73-.62-.45-1.25-.88-1.91-1.42-.4-1.08-2.37-2.68-3.37-4.07.13.24-.27.21-.52,0-.21-.35-1-.57-.66-.81l.1.11c.07-.49-.58-1-1-1.46l-.45.3c-.63-1.73-3.28-2.91-3.43-4-.38-.19-.73-.55-1.1-.74l.21-.18A20.24,20.24,0,0,0,44.09,30l.35.06c-.54-.57-1.27-.12-1.79-.62L42.8,29c-1-1-1.67-2.2-2.88-2.88a.26.26,0,0,1,.34.06l-.43-.5-.15-.17-.25-.27-.51-.52c-.67-.68-1.19-1.09-1.06-.55,0-.26-.48.12-1.06.64-.28.25-.62.57-.83.79l-.42.51-.08-.29a2.57,2.57,0,0,1-.85,1.35c-.18.1-.28-.06,0-.17-.63.3-.26.53-1,.92l.13-.33c-.56.41-.46.45-.64.85s-1.1.76-1.33.63a1,1,0,0,1-.53.77c-.11,0,0-.18,0-.25-1.05.57-1.18,1.32-2,1.6a.21.21,0,0,0-.21-.05c.74-.56,1.35-1,1.3-.95-.15-.2-.78.22-.52-.43a5.89,5.89,0,0,1-1.58,1.85h-.13l.05-.07a1.06,1.06,0,0,0-.35.31,3.76,3.76,0,0,0-.52.31c-.2-.11-.76.44-1.06.66.2.21-.22.47.29.37-.06,0,0-.07.22-.23a.6.6,0,0,0,.11-.12v0l.72-.58a1.19,1.19,0,0,1-.74.71,6.54,6.54,0,0,1-.14.68c-.64,0-1.56.44-1.81.33-.81.83-2.08,1.74-2.32,2.6-.22.25-.39.11-.54.11.12-.15.3-.28.33-.41-.43.51-1.49,1.23-1.39,1.61-.75.38.16-.55-.7.19l.05-.18c-2.12.89-2.28,2.95-4.69,3.86.16-.07.24-.1.31-.08-2.42,1.46-4.38,3.79-6.9,5.07-.69.39-.61.63-.88,1.07l-.32-.14-.44.78c-.76.91-2.05.65-2.92,1.93l.28.05c-.45.29-1.26,1.12-1.33.88,0,.06,0,.27-.24.31l-.11-.11-.86,1c-.87.53-.26-.59-1.44.28-.4.38-.95,1.32-.73,1.28s.51-.27.62-.16l-.35.38c.22.42.2,1,1.37.54l.51-.75h.35L2,54.58c.46-.08.55-.39.7-.67a.5.5,0,0,0,.43,0l.4-.87c.19.09-.08.52.43.26.18-.41-.55-.1-.12-.6.45-.09.46.12.73-.31.13.05.1.17,0,.33.25-.37.86-.74.88-1.07.5-.05,1.1-.94,1.34-.56a2.83,2.83,0,0,1,.68-1c-.24.85,1.18-.88,1.38-.31.13-.7,1.39-1.34,2-2.13,0,.06,0,.19-.13.22a3.89,3.89,0,0,1,1-.41c-.19-.35.41-.93.61-1.39.75-.1,0,.6.35.77-.22-.24.7-.95.37-1,.53-.12.41-.17.81-.07-.23-.44.31-.35.45-.84.72-.25.43.25,1-.35C15.58,44.44,15.13,45,15.13,45ZM29.47,32.85h0l-.3.25Zm1.24-1c-.16.11-.35.26-.54.41-.11,0-.12-.15,0-.25C30.15,32.15,30.48,32,30.71,31.88Zm-3.83.5c.17-.18.27-.19.34-.16l-.33.29v.05A.55.55,0,0,1,26.88,32.38Z"/><path d="M26.75,33a.25.25,0,0,1-.07.08l.16,0,0-.13Z"/><path d="M132.7,23.16l0,0,.08,0S132.72,23.16,132.7,23.16Z"/><polygon points="45.51 35.13 45.56 35.08 45.42 35.02 45.51 35.13"/><path d="M139.79,18.05a.19.19,0,0,0,.14,0A.28.28,0,0,0,139.79,18.05Z"/><path d="M142.62,15.58l.46-.28A3.6,3.6,0,0,0,142.62,15.58Z"/><path d="M144.86,13.75a1,1,0,0,0,0-.13h0Z"/><path d="M109.56,23.8l-.1-.07C109.23,23.6,109.38,23.7,109.56,23.8Z"/><path d="M120.15,32.43a2.17,2.17,0,0,1-.41-.19C119.9,32.42,120,32.55,120.15,32.43Z"/><polygon points="98.56 14.38 98.56 14.38 98.56 14.37 98.56 14.38"/><path d="M119.27,31.81a1.35,1.35,0,0,0,.47.43A2.13,2.13,0,0,0,119.27,31.81Z"/><path d="M154.22,5.46l.11-.09a.05.05,0,0,1,0,0Z"/><path d="M154.31,5.33l.1-.13C154.35,5.25,154.31,5.29,154.31,5.33Z"/><path d="M154.6,4.93l-.19.27C154.49,5.13,154.6,5,154.6,4.93Z"/><path d="M151.3,7.92l0,.11A.19.19,0,0,0,151.3,7.92Z"/><path d="M150.46,8.72a3.49,3.49,0,0,0,.9-.61l0-.08C151.3,8.26,150.54,8.42,150.46,8.72Z"/><path d="M146,11l.77-.59c-.19,0-.46.07-.15-.24C145.51,10.79,147,10.22,146,11Z"/><path d="M143.67,12.94c.36-.38-.11-.11-.13-.17C143.36,13.06,143.32,13.14,143.67,12.94Z"/><path d="M127.5,27.56l-.13-.23C127.09,27.63,127.43,27.41,127.5,27.56Z"/><polygon points="125.29 31.33 125.69 31.19 125.67 30.89 125.29 31.33"/><path d="M122.25,31.63l.1-.14-.11.13s0,0,0,.05l-.06.12Z"/><path d="M95.08,14.1l.3.16C95.54,14,95.35,13.73,95.08,14.1Z"/><path d="M83.54,24.92a.88.88,0,0,0-.73.51C83.09,25.21,83.44,25.07,83.54,24.92Z"/><polygon points="50.25 36.33 50.55 36.48 50.07 36.11 50.25 36.33"/><polygon points="157.11 18.2 154.12 17.95 155.41 3.21 140.61 3 140.66 0 158.67 0.26 157.11 18.2"/><path d="M37.37,36.54a9.59,9.59,0,0,1-1.85-.18l.39-2a7.5,7.5,0,0,0,2.63.05l.31,2A10.31,10.31,0,0,1,37.37,36.54ZM42,35.33l-1-1.74a7.25,7.25,0,0,0,2-1.67l1.52,1.3A9.33,9.33,0,0,1,42,35.33Zm-9.6-.19a9.54,9.54,0,0,1-2.49-2.21l1.57-1.24a7.47,7.47,0,0,0,2,1.75Zm13.86-4.8-1.87-.69a7.6,7.6,0,0,0,.46-2.59h2A9.38,9.38,0,0,1,46.27,30.34ZM28.35,30a9.4,9.4,0,0,1-.46-2.93c0-.13,0-.25,0-.38l2,.08v.3a7.49,7.49,0,0,0,.36,2.31Zm16.23-5a7.55,7.55,0,0,0-1.15-2.37l1.62-1.17a9.61,9.61,0,0,1,1.46,3Zm-14.12-.84-1.85-.77a9.52,9.52,0,0,1,1.8-2.8L31.88,22A7.44,7.44,0,0,0,30.46,24.19Zm11.07-3.35a7.24,7.24,0,0,0-2.41-1.06l.47-2a9.64,9.64,0,0,1,3.06,1.35ZM34,20.39l-.91-1.79a9.43,9.43,0,0,1,3.19-1l.24,2A7.38,7.38,0,0,0,34,20.39Z"/><path d="M59.39,57.14A9.61,9.61,0,0,1,57.53,57l.39-2a7.8,7.8,0,0,0,2.64,0l.3,2A10.28,10.28,0,0,1,59.39,57.14ZM64,55.93l-1-1.74a7.43,7.43,0,0,0,2-1.67l1.52,1.3A9.51,9.51,0,0,1,64,55.93Zm-9.6-.19a9.58,9.58,0,0,1-2.49-2.22l1.58-1.23a7.8,7.8,0,0,0,2,1.75Zm13.86-4.8-1.87-.69a7.6,7.6,0,0,0,.46-2.59h2A9.38,9.38,0,0,1,68.28,50.94Zm-17.92-.36a9.59,9.59,0,0,1-.46-2.92c0-.13,0-.26,0-.38l2,.07c0,.11,0,.21,0,.31a7.15,7.15,0,0,0,.37,2.3Zm16.23-4.94a7.32,7.32,0,0,0-1.14-2.37l1.62-1.17a9.37,9.37,0,0,1,1.45,3Zm-14.12-.85L50.63,44a9.56,9.56,0,0,1,1.8-2.81l1.47,1.36A7.35,7.35,0,0,0,52.47,44.79Zm11.08-3.35a7.54,7.54,0,0,0-2.41-1.06l.47-1.94a9.4,9.4,0,0,1,3.06,1.34ZM56,41l-.91-1.78a9.41,9.41,0,0,1,3.2-1l.23,2A7.35,7.35,0,0,0,56,41Z"/><path d="M98.06,23a9.91,9.91,0,0,1-1.81-.17l.38-2a7.55,7.55,0,0,0,2.64,0l.31,2A9.64,9.64,0,0,1,98.06,23Zm4.67-1.23-1-1.74a7.58,7.58,0,0,0,2-1.67l1.52,1.29A9.37,9.37,0,0,1,102.73,21.74Zm-9.59-.14a9.59,9.59,0,0,1-2.51-2.2l1.57-1.25a7.5,7.5,0,0,0,2,1.74ZM107,16.75l-1.88-.7a7.56,7.56,0,0,0,.46-2.59h2A9.66,9.66,0,0,1,107,16.75ZM89,16.47a9.59,9.59,0,0,1-.49-3v-.29l2,.06v.23a7.42,7.42,0,0,0,.39,2.38Zm16.22-5.16A7.66,7.66,0,0,0,104.07,9l1.6-1.21a9.72,9.72,0,0,1,1.5,3ZM91.1,10.65l-1.86-.74A9.57,9.57,0,0,1,91,7.08l1.48,1.34A7.6,7.6,0,0,0,91.1,10.65Zm11-3.49a7.18,7.18,0,0,0-2.42-1l.44-2a9.57,9.57,0,0,1,3.07,1.3Zm-7.56-.35L93.65,5a9.54,9.54,0,0,1,3.18-1l.25,2A7.31,7.31,0,0,0,94.58,6.81Z"/><path d="M121.93,42.42a9.8,9.8,0,0,1-1.8-.17l.38-2a7.74,7.74,0,0,0,2.63,0l.32,2A9.76,9.76,0,0,1,121.93,42.42Zm4.68-1.23-1-1.74a7.47,7.47,0,0,0,2-1.68l1.53,1.3A9.7,9.7,0,0,1,126.61,41.19ZM117,41.06a9.61,9.61,0,0,1-2.51-2.2l1.56-1.25a7.46,7.46,0,0,0,2,1.73Zm13.84-4.87L129,35.5a7.38,7.38,0,0,0,.46-2.6h2A9.42,9.42,0,0,1,130.86,36.19Zm-18-.26a9.39,9.39,0,0,1-.5-3v-.26l2,.06v.2a7.5,7.5,0,0,0,.39,2.4Zm16.21-5.22a7.42,7.42,0,0,0-1.2-2.34l1.59-1.21a9.5,9.5,0,0,1,1.52,3ZM115,30.11l-1.86-.74a9.67,9.67,0,0,1,1.76-2.83l1.49,1.34A7.6,7.6,0,0,0,115,30.11Zm11-3.53a7.5,7.5,0,0,0-2.43-1l.43-2a9.68,9.68,0,0,1,3.08,1.28Zm-7.57-.32-.94-1.77a9.33,9.33,0,0,1,3.18-1l.26,2A7.11,7.11,0,0,0,118.42,26.26Z"/></g></g></svg>