<?xml version="1.0" encoding="utf-8"?>
<!-- Generator: Adobe Illustrator 22.1.0, SVG Export Plug-In . SVG Version: 6.00 Build 0)  -->
<!DOCTYPE svg PUBLIC "-//W3C//DTD SVG 1.1//EN" "http://www.w3.org/Graphics/SVG/1.1/DTD/svg11.dtd">
<svg version="1.1" id="Ebene_1" xmlns="http://www.w3.org/2000/svg" xmlns:xlink="http://www.w3.org/1999/xlink" x="0px" y="0px"
	 viewBox="0 0 77.6 84.1" style="enable-background:new 0 0 77.6 84.1;" xml:space="preserve">
<title>Element 256</title>
<g id="Ebene_2_1_">
	<g id="Ebene_2-2">
		<g>
			<path d="M41.1,82l-0.9-2.3c1.6-0.6,3.1-1.2,4.6-1.9l1,2.3C44.3,80.7,42.7,81.4,41.1,82z M50.4,77.8l-1.1-2.2
				c1.5-0.8,2.9-1.6,4.3-2.4l1.3,2.1C53.4,76.2,51.9,77.1,50.4,77.8z M59.1,72.6l-1.4-2c1.4-1,2.7-1.9,3.9-3l1.6,1.9
				C61.8,70.6,60.5,71.6,59.1,72.6z M7,68.1c-1.3,0-2.4-0.1-3.2-0.3l0.6-2.4C5,65.5,5.9,65.6,7,65.6c0.6,0,1.3,0,2,0L9.1,68
				C8.4,68,7.6,68.1,7,68.1z M14.2,67.6l-0.3-2.5c1.5-0.2,3.2-0.5,4.9-0.8l0.5,2.5C17.4,67.1,15.8,67.4,14.2,67.6z M66.9,66.1
				l-1.7-1.8c1.2-1.2,2.3-2.4,3.3-3.6l1.9,1.6C69.3,63.7,68.2,64.9,66.9,66.1z M24.1,65.6l-0.6-2.4c1.5-0.4,3.1-0.8,4.8-1.3l0.7,2.4
				C27.3,64.8,25.7,65.3,24.1,65.6z M3.6,63.5l-2.1-1.3c0.7-1.1,1.9-2.4,3.6-3.9l1.7,1.9C5.3,61.4,4.2,62.6,3.6,63.5z M33.8,62.9
				L33,60.5c1.6-0.5,3.2-1,4.7-1.6l0.8,2.4C37,61.8,35.4,62.3,33.8,62.9z M43.3,59.6l-0.9-2.3c1.6-0.6,3.1-1.2,4.7-1.8l0.9,2.3
				C46.5,58.4,44.9,59,43.3,59.6z M73.5,58.3l-2.1-1.4c1-1.4,1.8-2.8,2.4-4.2l2.3,1.1C75.4,55.3,74.6,56.8,73.5,58.3z M10.6,57.1
				l-1.5-2c1.2-0.9,2.6-1.9,4.1-2.9l1.4,2.1C13.2,55.2,11.8,56.2,10.6,57.1z M52.7,56l-0.9-2.3l4.7-1.8l0.9,2.3L52.7,56z M62,52.4
				l-0.9-2.3c1.8-0.7,3.4-1.2,4.8-1.7l0.8,2.4C65.4,51.2,63.8,51.8,62,52.4z M18.8,51.5l-1.3-2.1c1.4-0.9,2.8-1.7,4.3-2.6l1.3,2.2
				C21.6,49.8,20.2,50.7,18.8,51.5z M75.1,49.5c-0.1-0.1-0.4-0.3-1.3-0.3c-0.6,0-1.4,0.1-2.3,0.3L70.9,47c3-0.6,4.9-0.4,6,0.7
				L75.1,49.5z M27.4,46.4l-1.2-2.2c1.5-0.8,2.9-1.6,4.4-2.4l1.2,2.2C30.3,44.8,28.8,45.6,27.4,46.4z M36.2,41.7L35,39.5
				c1.5-0.8,3-1.6,4.5-2.3l1.1,2.2C39.1,40.1,37.7,40.9,36.2,41.7z M45.1,37.2L44,35c1.6-0.8,3.1-1.5,4.6-2.1l1,2.3
				C48.1,35.8,46.6,36.5,45.1,37.2z M54.2,33.1l-1.1-2.3c1.5-0.7,3-1.5,4.3-2.3l1.3,2.2C57.3,31.5,55.8,32.3,54.2,33.1z M63,27.9
				l-1.5-2c1.4-1,2.6-2,3.8-3.1l1.7,1.8C65.8,25.8,64.4,26.9,63,27.9z M36.5,24.1c-0.9,0-1.9,0-2.9-0.1l0.2-2.5
				c1.4,0.1,2.8,0.2,4.2,0.1c0.2,0,0.4,0,0.6,0l0.2,2.5c-0.2,0-0.4,0-0.6,0C37.6,24.1,37,24.1,36.5,24.1z M28.5,23.1
				c-1.6-0.4-3.3-0.9-4.9-1.6l0.9-2.3c1.5,0.6,3.1,1.1,4.6,1.5L28.5,23.1z M44,22.9l-0.8-2.4c1.4-0.5,2.9-1.2,4.3-2l1.3,2.1
				C47.2,21.6,45.6,22.3,44,22.9z M70.5,20.8l-2-1.5c1-1.3,1.9-2.7,2.5-4l2.2,1.1C72.6,17.9,71.7,19.4,70.5,20.8z M18.9,19.3
				c-1.5-0.8-2.9-1.7-4.4-2.7l1.4-2.1c1.4,0.9,2.8,1.8,4.2,2.5L18.9,19.3z M52.9,17.6l-1.6-1.9c1.2-1,2.3-2.1,3.5-3.3l1.8,1.7
				C55.3,15.4,54.1,16.5,52.9,17.6z M10.4,13.6c-1.3-1.1-2.6-2.2-3.8-3.4l1.8-1.8c1.2,1.2,2.4,2.3,3.6,3.3L10.4,13.6z M74.9,11.3
				l-2.5-0.4c0.1-0.6,0.1-1.1,0.1-1.6c0-1-0.1-1.9-0.4-2.8l2.4-0.8c0.4,1.1,0.5,2.3,0.5,3.5C75.1,10,75,10.6,74.9,11.3z M60.1,10.3
				l-1.9-1.6c0.4-0.5,0.9-1,1.3-1.5c0.7-0.8,1.4-1.6,2-2.3l1.9,1.7c-0.6,0.7-1.3,1.5-2,2.3C60.9,9.3,60.5,9.8,60.1,10.3z M3.2,6.4
				C2.1,5.1,1,3.8,0,2.4L2,1c1,1.3,2,2.6,3.1,3.8L3.2,6.4z M66.7,3.2l-1.5-2C67,0,68.5-0.3,69.9,0.4c0.5,0.2,0.9,0.5,1.3,0.8l-1.5,2
				c-0.3-0.2-0.6-0.4-0.9-0.6C68.3,2.4,67.6,2.6,66.7,3.2z"/>
		</g>
		<g>
			<path d="M55.8,52.5c-0.3,0.6,0.2,0.4,0.3,0.7c-0.3,0.7-0.4,0.2-0.7,0.3c-0.2,0.5,0,1-0.2,1.3c-0.1,0-0.1,0-0.2-0.1
				c0,0.6-0.7,1.4-0.7,2.1h-0.1c0.2,0,0.3,0.1,0.5,0.2c-0.2,0.3-0.1,0.6-0.3,0.6c0.1-0.2,0-0.2,0-0.3l-0.1,0.3
				c-0.4,0.1,0.1-0.4-0.1-0.5c-0.1,0.6-0.3,1.2-0.6,1.7c-0.3-0.1,0.5-1-0.1-0.6l0.5-0.6c-0.7,0.2,0.2-0.4-0.5-0.2
				c-0.5,0.8-0.4,1-0.9,1.8c0,0.3,0.3,0.1,0.3,0.3c-0.4,1.3-1.3,0.5-1.4,1.5c0,0.3,0.4,0.6-0.2,1.1l-0.2-0.4
				c-0.5,0.8,0.2,0.7-0.5,1.4c0-0.2,0.3-0.7,0.2-0.6c-0.6,0.4-0.1,0.5-0.3,0.9L50,63.3c-0.5,0.8-0.9,1.9-1.4,2.8
				c0-0.1,0-0.3-0.2-0.2c-0.7,1.2-1.6,2.4-2.6,3.4v0.6c-0.1,0.1-0.2,0.1-0.2,0c-0.4,0.4,0.1,0.1,0.1,0.4s-0.4,0.2-0.3,0
				c-0.4,1.1-1,2.2-1.9,3v-0.2c-0.5,0.5,0,1-0.6,1.4v-0.1c-1,1.2-1.9,2.8-3,3.6c0.2,0.4-1.1,1.2-0.7,1.6c-0.2,0.2-0.5,0.3-0.7,0.4
				c-0.1,0-0.2,0-0.3,0c0,0.3,0,0.5-0.1,0.8l0,0v-0.5c0,0.1-0.1,0.2-0.2,0.3c0-0.2,0-0.3,0.1-0.5h-0.1c0,0.1,0,0.2,0,0.3
				c-0.1,0-0.2-0.2-0.2-0.4s-0.2-0.6-0.1-0.6l-1.1-1c0.1,0,0.3,0.1,0.5,0.2c-0.7-0.4,0.2-0.3-0.5-0.7c0,0.1-0.2,0.1-0.2,0.1
				c-0.2-0.6-0.6-1.1-1-1.5h0.2c-0.6-0.9-1.5-1.8-2.2-2.8c0.2,0.4-0.2,0.6-0.4,0.3l0.2-0.3c-0.3-0.1,0.1,0.4-0.3,0.1
				c-0.2-0.4,0.1-0.5,0.3-0.3L32.5,73c0.1-0.1,0.2,0,0.3-0.1c-0.3-0.1-0.3-1-0.8-1l0.1-0.1c-0.7-1-1.1-1.4-1.7-2.2
				c-0.2,0.1-0.4-0.2-0.8-0.3c-0.3-0.8-0.7-1.5-1.1-2.2c-0.5-0.4-0.3,0-0.6-0.2c0.2-0.2-0.3-0.9,0.1-0.6c-0.5-0.7-1.1-1.5-1.7-2.1
				c0,0.2,0,0.3-0.1,0.3S26,64,26.1,64h0.1c-1.1-1.1-1.2-3.3-2.3-4.1H24L23,59c-0.2-0.5,0.3,0.2,0.3-0.2c-1-1-1-1.9-1.8-2.7
				c0.2-1.1-1.5-2.7-1.6-3.9l-0.1,0.1c-0.3-0.2-0.1-0.4-0.1-0.6c-0.1,0.1,0,0.4-0.2,0.2c-1.2-2.3-2-4.8-2.5-7.3
				c-0.2-0.9-1-0.2-0.9-1.5l0.4,0.2c-0.2-0.4-0.4-0.9-0.5-1.3c-0.1-0.5-0.1-0.9-0.2-1.3s0-0.9-0.1-1.3c0-0.5,0-0.9-0.1-1.4
				c0.1,0.1,0.2,0.1,0.2,0.3c0.2-0.5,0.2-1-0.1-1.4c0.1-0.3,0.2,0,0.3-0.2c0.2-0.3-0.2-1,0.1-1.2c0,0,0.1,0.1,0.1,0.2
				c0-0.2,0-0.4,0-0.6c0-0.2,0.1-0.4-0.1-0.3c0.3-0.6,0.2-1.3,0.5-1.8c-0.2-0.4,0.5-1,0.1-1.3c0.4,0.2,0.7-1,0.7-1.5
				c0.1,0.2,0.3-0.3,0.4,0c0.2-0.4,0.3-0.9,0.1-0.9c0.3-0.3,0.6-0.7,0.7-1.1s0.3-0.7,0.7-0.8c0.5-1.3,1.3-2.5,2.1-3.5
				c0.3,0.3-1,1.1-0.6,1.4c0.7-1,0.9-1.9,1.9-2.6c0.3-0.2,0,0.3,0,0.4c0.8-1,1.9-1.5,2.6-2.4c0,0,0,0.1-0.1,0.2
				c0.2-0.1,0.5-0.2,0.3-0.4l-0.2,0.2c-0.5-0.1,0.4-1,0.4-1.1c0,0.7,1-0.5,0.9,0.5c0.1-0.1,0.2-0.3,0.1-0.4c0.2-0.1,0.3,0,0.2,0.2
				c0.6-0.5,0.3-0.5,0.9-0.9c0,0.1-0.1,0.2-0.1,0.3c0.2-0.4,0.6-0.7,1.1-0.8c0,0.1,0.1,0.1-0.1,0.2c0.5-0.3,0.8-0.5,1.2-0.8
				c0.4-0.3,0.9-0.5,1.4-0.6c-0.2,0.5,0.4,0,0.6,0.4l0.6-0.3l-0.3-0.1c0.5-0.1,0.9-0.5,1.4-0.5c-0.1,0.1-0.3,0.1-0.4,0.2
				c0.3-0.1,0.7-0.1,1-0.2h-0.6c0.5-0.3-0.1-0.5,0.6-0.5c-0.1,0.1,0.5-0.1,0.9,0.1l0,0c0.3-0.2,0.6-0.3,0.9-0.2c0.1,0.1,0,0.4,0,0.5
				c0.2-0.3,1.3-0.1,1.6-0.5c-0.1,0.1-0.1,0.2-0.1,0.3l0.2-0.3c0.2,0.1,0.3,0.1,0.2,0.3c0.8,0.1-0.2-0.5,0.7-0.2
				c-0.1,0,0,0.1-0.2,0.1c0.9,0.2,1.8-0.1,2.6,0.2c0.2,0.4-0.7,0-0.5,0.3c0.6,0.1,1.2,0,1.8,0s1.2,0.1,1.8,0.3L44,17.1
				c0.3-0.5,0.8,0.4,1.4,0.4c-0.2,0-0.3,0.2-0.2,0.2c0.7,0.4,1.6,0.4,2.7,0.8l-0.2,0.1c0.4,0.3,1.1,0.6,1.5,0.9
				c0.2,0,0.4,0.1,0.4-0.1c0.5,0.6,1.1,1.1,1.8,1.3C52,21,52.7,21.3,53,22c-0.1-0.1-0.4-0.2-0.3-0.1l1,0.7c0.1-0.2,0-0.2-0.1-0.5
				c0.3,0,0.5,0.2,0.7,0.4c-0.5-0.2-0.2,0.3-0.2,0.5c0-0.1,0.1-0.1,0.2-0.1c0.2,0.7,0.4-0.3,0.8,0.6H55c0.3,0.2,0.5,0.3,0.8,0.6
				c-0.1,0.3-0.3-0.2-0.5,0c0.3,0.3,1,0.4,1.1,0.9c-0.2-0.2-0.4-0.3-0.6-0.5c0,0.3,0.1,0.6,0.3,0.9l0,0l0.4,0.7v-0.2
				c0.9,0.1,0.8,0.9,1.6,1.4c-0.8-0.5-0.3,0-0.6,0.1c0,0.2,0.1,0.5,0,0.5c0.4,0.2,0.2,0.6,0.7,0.9c-0.1,0.1,0.2,0.4-0.1,0.4
				c0.3,0.4,0.1-0.2,0.2-0.2c0.6,0.5,0.5,1.7,1.2,2.6c0.5,0.8,0.9,0.9,1.3,1.7c-0.1,0.3-0.4-0.2-0.4-0.2c0,0.4,0.1,0.9,0.3,1.3
				c-0.1-0.1-0.2,0-0.2,0.2c0.1,0.3,0.4,0.2,0.3,0.7c-0.2-0.1-0.3-0.2-0.4-0.3c0.2,0.4,0.4,0.8,0.5,1.2c-0.2,0.1-0.3-0.2-0.4-0.4
				c0.1,0.5,0.3,1.2,0.6,1.4v-0.3c0,0.2-0.2,0.1-0.3,0c-0.3-0.4,0-0.6,0.1-0.7l0.1,0.3c0.5-0.4-0.2-1.2-0.4-1.9l0.5,0.2l-0.5-0.6
				c0.1-0.2,0.3-0.3,0.4,0c0.1-0.5-0.2-0.4-0.1-0.8c0,0,0,0,0.1,0L60.8,33c0.1,0.1,0.2-0.2,0.3,0.1c0-0.9-0.7-1.2-0.5-1.5l0,0
				c-0.5-1-0.3,0-0.9-0.7c0.2-0.3,0.3-0.5,0.5-0.8H60c0-0.1-0.1-0.3,0-0.3c-0.4-0.3-0.1,0.1-0.4,0c0-0.6-0.8-1.3-0.4-1.7
				c-0.3-0.1,0.1,0.6-0.3,0.1c0.4-0.4-0.4-0.5-0.5-1.1c0.3,0,0.5,0.5,0.4-0.1c-0.5,0-0.4-0.9-0.8-1.2c-0.3,0.2-0.7-0.7-1.2-1.2
				c0.2-0.1-0.8-1.2-1.1-1.8h0.1c-0.2,0.1-0.4,0-0.6-0.2s-0.4-0.4-0.7-0.5c0.2-0.1,0.3-0.1,0.6,0l-0.4-0.3c-0.2,0-0.4-0.1-0.6-0.2
				l0.3-0.1c-0.3-0.2-0.5-0.4-0.8-0.6s-0.7-0.4-0.9-0.7c-0.2,0.2,0.1,0.9-0.7,0.6c0-0.1,0.2-0.3,0.4-0.2c-0.1,0-0.3-0.1-0.4-0.2h0.4
				c-0.2-0.3-0.3,0-0.5-0.2c0.1-0.1-0.1-0.2,0-0.3S52,20,52.2,20c-0.2-0.2-0.4-0.5-0.5-0.8c0,0.1-0.2,0.2-0.4,0.1
				C50.7,19,51.2,19,51,18.7c-0.2,0-0.5-0.3-0.6-0.1c-0.2-0.1-0.1-0.2-0.2-0.3c-0.3-0.1-1.4-0.7-1.2-0.2l0,0l0,0
				c-0.5-0.1-1.1-0.4-1.5-0.7c-0.5-0.3-1-0.5-1.5-0.6v-0.1c-0.6-0.2-1.3-0.3-1.9-0.2c-0.2,0-0.4-0.3-0.3-0.4c-0.4,0-0.8-0.1-1.2-0.2
				c0.5-0.1-0.1-0.2,0.5,0c-0.4-0.2-1-0.3-1.5-0.2c0.3-0.2-0.4-0.4-0.8-0.4l0.4,0.2c-0.3,0-0.6-0.1-1-0.1l0.2-0.3
				C39.1,14.6,38,15.6,37,15c-0.3,0.2,0.7,0.1,0.4,0.4c-0.5-0.1-1-0.3-1.4-0.5c-0.9-0.1-0.7,0.6-1.6,0.6c0.1,0.1,0.3,0.4-0.3,0.6
				c-0.6,0-0.8-0.4-0.5-0.5c0.1,0,0.2,0,0.2,0c0.2-0.1,0.4-0.2,0.2-0.2l-0.1,0.1c-0.3-0.1-1.2,0.1-1-0.1c-0.4,0.2-0.2,0.2,0.2,0.2
				c-0.8,0-1.2,0.3-2,0.4c0.1,0,0.3,0.1,0.2,0.2c-1.2,0.2-0.4,0.4-1.2,0.7c-0.5,0,0-0.5-0.7,0c-0.5,0-0.2-0.3,0-0.4
				c-0.3,0.2-0.6,0.3-1,0.4c-0.3,0-0.5,0.1-0.8,0.2l0.3-0.3c-0.2,0.1-0.3,0.2-0.5,0.3l0.3,0.1c-0.2,0.1-0.4,0.1-0.4,0.1
				c-0.1,0.2,0.3,0.3,0,0.7c-0.3,0-0.8,0.5-1,0.3c0.9-0.4-0.2-0.2,0.5-0.6c-0.2,0.1-0.3,0.2-0.5,0.2v-0.1c-0.9,0.2-0.2,0.5-1,1
				c0-0.2-0.4-0.2-0.5,0c0.3-0.2,0.3,0.1,0.1,0.5c-0.6,0.2-0.5,0.4-0.8,0.6l0.3-0.2c0,0.2-0.2,0.4-0.5,0.7c-0.1-0.1,0.2-0.3,0.1-0.3
				c-0.2,0.5-1,0.4-1.4,0.9c-0.3,0.1-0.2-0.2-0.5-0.1c-0.4,0.7-0.8,0.4-1.2,1c0.3,0,0.3,0,0.1,0.5l0.8-1l-0.4,0.8
				c0.3-0.2,0.5-0.6,0.7-0.8c-0.2,0.4-0.2,0.3,0.1,0.4c-0.6,0.1-0.6,0.8-1.2,1.1l-0.4-0.4c-0.8,0.5-0.9,1.4-1.7,2.2l0.3-0.2
				c0.1,0.3-0.4,0.6-0.6,1c-0.1-0.1-0.3,0-0.5,0.1c0.1,0.1-0.5,0.7-0.2,1l-0.5,0.3c-0.6,0.8-0.1,1.2-0.6,2c-0.1-0.4-0.4,0-0.2-0.7
				c-0.1,0.3-0.3,0.5-0.2,0.6c-0.2,0.1-0.1,0.9-0.4,1c0,0.1,0.2,0.3,0,0.6h-0.1c0,0-0.1,0.5,0.2,0.4c-0.4,0.4-0.7,1-0.9,1.5
				c-0.2,0.6-0.3,1.2-0.7,1.5c-0.1,0.3-0.1,0.7-0.2,1s-0.1,0.7-0.1,1c0,0-0.1,0-0.1-0.1c-0.3,0.8,0.5,0.6,0.1,1.5
				c-0.4,0.4-0.1-0.5-0.2-0.2c-0.7,0.1,0,1.1-0.4,1.8v-0.2c-0.2,0.5,0.1,1.2,0.2,2h-0.1c0.3,0.7,0.6,1.5,0.8,2.3
				c-0.3-0.2-0.2-0.3-0.4-0.1c0.1,0.3,0.4-0.2,0.6,0.5c-0.1,0.2-0.1,0.8-0.3,0.9l-0.2-0.6c-0.3,0.4,0.2,0.8,0.2,1.2h-0.1
				c0.3,0.9,0.7,0.8,1,1.8l0.1-0.1c0.6,0.4,0,0.5,0.4,1l-0.3,0.3c0.2,0.3,0.8,1.1,1.1,1.7c-0.5-0.4-0.9-0.8-1.2-1.3
				c0.1,0.3,0.5,1.2,0.8,1.3c-0.1-0.1-0.3-0.3-0.3-0.4c0.5,0.4,0.9,0.9,1.2,1.5c-0.8,0.2,0.6,1.8,0.4,2.6c0.8,1.1,1.1,2.4,1.8,3.7
				c0.2-0.8,0.2,0.4,0.7,0c0.2,0.3,0.3,0.4,0.2,0.5l0.2,1.1c0,0.3-0.3-0.2-0.4-0.1c0.4,0.7-0.1,0.4,0.1,0.9c0.1-0.2,0.4,0.1,0.6,0.5
				l-0.1-0.7c0.8,0.8,0,1.1,0.9,1.9L21,60.1c0.4,0.4,1.1,1.8,1.8,2c0,0.1-0.1,0.3-0.2,0.1c0.6,1.2,2,2.3,2.3,3.3h-0.2
				c0.2,0.2,0.5,0.2,0.5,0.6c-0.1,0-0.2,0-0.1,0.1c0.3,0.2,0.5,0.4,0.7,0.8l-0.3-0.2c0.6,1.2,1.5,1.5,2.1,2.3
				c-0.4,0.2,0.1,1.2,0.3,1.6h-0.1c0.8,1.1,1.7,2.1,2.7,3c0.1,1,1.6,2.5,2.2,3.8c-0.1-0.2,0.3-0.2,0.5,0c0.1,0.3,0.8,0.6,0.4,0.8
				l-0.1-0.1c-0.2,0.4,0.3,0.9,0.6,1.3l0.5-0.2c0.1,0.4,0.2,0.7,0.4,1c0.1,0.2,0.2,0.3,0.4,0.5l0.4,0.5c0.8,0.8,1.5,1.7,2,2.7h0.1
				c0.3-0.7,0.8-1.2,1-1.8l0.1,0.3l1.2-1.4c0.2-0.3,0.5-0.6,0.8-1.1v0.3c0.4-0.5-0.1-1.1,0.2-1.6l0.4,0.1c0.7-0.9,1.7-1.6,2-2.7
				c0.1,0.1,0.1,0.2,0,0.3c0.3-0.4,1.4-1.5,0.9-1.7c0.3,0.2,0.7-0.9,0.9-1.5l0.2,0.2c-0.1-0.5,0-0.9,0.3-1.3c0.1-0.1,0.3,0,0.1,0.2
				c0.4-0.4,0-0.5,0.6-1v0.3c0.3-0.5,0.2-0.5,0.3-0.9s0.7-0.9,0.9-0.8c-0.1-0.3,0-0.6,0.2-0.8c0.1,0,0.1,0.2,0.1,0.2
				c0.7-0.7,0.5-1.4,1.1-1.8c0.1,0,0.1,0,0.2,0c-0.4,0.7-0.8,1.2-0.8,1.1c0.2,0.1,0.6-0.4,0.6,0.2c0.1-0.7,0.3-1.3,0.7-1.9H50V67
				c0.1-0.1,0.2-0.2,0.2-0.3c0.1-0.1,0.2-0.2,0.3-0.4c0.2,0.1,0.5-0.5,0.7-0.8c-0.2-0.1,0-0.4-0.4-0.2c0,0,0,0.1-0.1,0.2v0.1l0,0
				l-0.4,0.7c0-0.3,0.1-0.6,0.4-0.8c-0.1-0.2-0.1-0.4-0.1-0.6c0.5-0.2,1.2-0.7,1.4-0.7c0.4-0.9,1.1-2,1-2.8c0.1-0.3,0.3-0.2,0.4-0.2
				c0,0.2-0.1,0.3-0.1,0.4c0.2-0.5,0.8-1.4,0.5-1.7c0.5-0.5,0.1,0.5,0.5-0.3v0.2c1.4-1.3,0.7-3.1,2.3-4.5c-0.1,0.1-0.2,0.2-0.2,0.2
				c1.4-1.9,1.9-4.4,3.3-6.3c0.4-0.6,0.2-0.7,0.1-1.2h0.3L60,47.2c0.1-1,1.3-1.4,1.2-2.7L61,44.6c0.2-0.4,0.2-1.4,0.5-1.3
				c0-0.1-0.2-0.2,0-0.3h0.2c0-0.4,0-0.8,0-1.1c0.2-0.8,0.6,0.2,0.8-1c0-0.5-0.4-1.4-0.5-1.2s0,0.3-0.2,0.3l-0.1-0.4
				c-0.5-0.1-0.9-0.4-1.3,0.6c0.1,0.2,0.2,0.4,0.2,0.7L60.5,41c0-0.2,0-0.4,0-0.5c-0.2,0.3-0.1,0.5,0,0.7c-0.1,0-0.2,0.1-0.3,0.2
				c0.1,0.2,0.2,0.5,0.3,0.7c-0.2,0-0.3-0.4-0.5,0c0.1,0.3,0.5-0.2,0.5,0.3c-0.3,0.3-0.4,0.2-0.3,0.6c-0.1,0-0.2-0.1-0.2-0.2
				c0.1,0.4-0.2,0.9,0,1.1c-0.3,0.3-0.2,1.1-0.7,1c0.1,0.3,0.1,0.7,0,1c-0.3-0.7-0.4,1.1-0.9,0.8c0.3,0.6-0.4,1.5-0.4,2.3v-0.2
				c-0.2,0.3-0.3,0.5-0.6,0.7c0.3,0.2,0.1,0.8,0.2,1.3c-0.6,0.3-0.3-0.5-0.7-0.5c0.3,0.1-0.1,1,0.2,0.9c-0.4,0.3-0.2,0.3-0.6,0.3
				c0.4,0.3-0.1,0.4,0,0.8c-0.5,0.4-0.5-0.1-0.6,0.6C55.7,53.1,55.8,52.5,55.8,52.5z M48.7,66.2L48.7,66.2l0.2-0.3L48.7,66.2z
				 M48,67.3c0.1-0.1,0.2-0.3,0.3-0.5c0.1,0,0.2,0.1,0.1,0.2C48.4,67,48.2,67.2,48,67.3z M51.1,66.1c-0.1,0.2-0.2,0.2-0.2,0.2
				S51,66.1,51.1,66.1L51.1,66.1C51.1,66,51.1,66,51.1,66.1L51.1,66.1z"/>
		</g>
		<g>
			<path d="M43.5,42.1c-0.1,0.1,0.3,0.2,0.4,0.4c0,0.2-0.3-0.1-0.5-0.1c0,0.2,0.2,0.4,0.2,0.5c-0.1,0-0.1,0-0.1-0.1
				c0.2,0.3-0.2,0.3,0,0.7h-0.1c0.1,0.1,0.3,0.2,0.4,0.3c0,0.1,0.1,0.3-0.1,0.1c0,0,0-0.1-0.1-0.2v0.1c-0.3-0.2,0-0.2-0.2-0.3
				c0,0.2,0.1,0.5-0.1,0.5c-0.3-0.2,0.1-0.3-0.2-0.4h0.2c-0.5-0.2,0.1-0.1-0.4-0.3c-0.2,0.1,0,0.3-0.3,0.4c0.1,0.2,0.2,0.2,0.3,0.3
				c0,0.5-0.8-0.4-0.6,0.1c0.1,0.2,0.3,0.5,0,0.5l-0.2-0.3c-0.2,0.1,0.2,0.5-0.1,0.5c0-0.1,0.1-0.2,0-0.2c-0.3-0.2,0,0.2-0.1,0.3
				l-0.2-0.3c-0.2,0.2-0.3,0.5-0.5,0.7c0-0.1,0-0.2-0.1-0.3c-0.2,0.3-0.7,0.3-1,0.2v0.3c0,0-0.1-0.1-0.1-0.2c-0.2-0.1,0,0.2,0,0.3
				s-0.1-0.1-0.1-0.2c-0.1,0.3-0.5,0.7-0.8,0.4v-0.1c-0.2-0.1-0.1,0.6-0.3,0.4V46c-0.4-0.1-0.9,0.2-1.2-0.3
				c-0.1,0.4-0.4-0.2-0.5,0.4c-0.2-0.3-0.1-0.4-0.4-0.7c-0.1,0-0.2,0.3-0.3,0.4l0.1-0.3l-0.2,0.3v-0.4h-0.1v0.2
				c-0.2,0.1-0.3-0.3-0.3-0.5l-0.4,0.1c0-0.1,0.1-0.1,0.2-0.2c-0.3,0.2,0.1-0.3-0.2-0.1c0,0.1-0.1,0.2-0.1,0.2
				c0-0.2-0.2-0.3-0.3-0.3l0,0l0.1-0.2c-0.2-0.2-0.5-0.2-0.8-0.3c0,0.1-0.2,0.4-0.3,0.4l0.2-0.3c-0.2,0.1,0,0.2-0.2,0.3
				c-0.1-0.1,0.2-0.3,0.3-0.4h-0.2c0-0.1,0.1-0.1,0.2-0.2c-0.2,0.1,0-0.4-0.3-0.2v-0.1c-0.2-0.2-0.4-0.2-0.6-0.3
				c-0.2,0.2-0.2,0.1-0.4,0.2c-0.1-0.2,0-0.5-0.2-0.6s-0.2,0.1-0.4,0.2c0.2-0.2,0-0.3,0.2-0.3c-0.2-0.2-0.4-0.3-0.6-0.4
				c-0.1,0.1-0.1,0.2-0.2,0.2s0-0.2,0.1-0.2l0,0c-0.6-0.2,0.2-1.1-0.4-1.1l0,0l-0.4-0.2c0-0.2,0.2,0,0.3-0.1
				c-0.5-0.2-0.1-0.5-0.4-0.7c0.7-0.3-0.2-0.7,0.3-1.1h-0.2c-0.2-0.1,0.1-0.1,0.1-0.1c-0.1,0-0.1,0.1-0.2,0
				c-0.2-0.6,0.3-1.3,0.6-1.8c0.1-0.2-0.8-0.4-0.4-0.5l0.3,0.2c-0.1-0.2-0.1-0.5,0.1-0.7c0.1-0.2,0.2-0.5,0.2-0.7
				c0,0.1,0.1,0.1,0.1,0.2c0.2,0,0.2-0.3,0-0.4c0.1,0,0.2,0.1,0.3,0.1s-0.1-0.4,0.1-0.3v0.1c0,0,0.2-0.2-0.1-0.3
				c0.2-0.1,0.1-0.3,0.3-0.3c-0.2-0.3,0.3-0.1,0-0.4c0.3,0.3,0.5,0,0.4-0.2c0.1,0.1,0.2,0,0.3,0.2c0.1-0.1,0.1-0.2,0-0.4
				c0.5,0.2,0.1-0.6,0.6-0.2c0.1-0.4,0.3-0.7,0.6-1c0.2,0.4-0.3,0.2-0.1,0.6c0.2-0.3,0.2-0.7,0.5-0.8c0.1,0,0,0.2,0,0.3
				c0.2-0.3,0.6-0.2,0.8-0.5v0.1c0,0,0.2,0,0.1-0.2v0.1c-0.2-0.2,0.1-0.6,0-0.8c0,0.6,0.3,0.1,0.3,0.8c0-0.1,0-0.2,0-0.3
				c0.1,0,0.1,0.1,0.1,0.3c0.2-0.2,0.1-0.3,0.2-0.4c0,0.1,0,0.1,0,0.2c0-0.2,0.1-0.4,0.3-0.3c0,0.1,0,0.1,0,0.1
				c0.2-0.1,0.4-0.5,0.8-0.4c-0.1,0.4,0.1,0.1,0.1,0.5l0.2-0.1l-0.1-0.2c0.1,0,0.3-0.2,0.4-0.1L38,31.9h0.3l-0.2-0.1
				c0.2-0.2,0-0.5,0.2-0.4c0,0,0.2,0,0.2,0.2l0,0c0.1-0.1,0.2-0.2,0.3-0.1s-0.1,0.4-0.1,0.5c0.1-0.3,0.3,0,0.5-0.3
				c-0.1,0.1-0.1,0.2-0.1,0.3l0.1-0.2c0,0.1,0,0.1,0,0.3c0.2,0.1,0-0.5,0.2-0.2c0,0,0,0-0.1,0.1c0.2,0.2,0.5,0,0.7,0.2
				c-0.1,0.4-0.2,0-0.2,0.3c0.3,0,0.8-0.2,1,0v-0.1c0.3-0.4,0.1,0.3,0.3,0.2c0,0-0.2,0.2-0.1,0.2c0.1,0.2,0.4,0.1,0.8,0.2l0.2-0.3
				c0,0.2,0.2,0.2,0.3,0.4c0.1-0.1,0.2,0,0.2-0.2c-0.1,0.4,0.1,0.5,0.4,0.5s0.5,0.1,0.3,0.5c0,0-0.2,0-0.1,0l0.3,0.2
				c0.2-0.2,0.1-0.1,0.2-0.3c0.1-0.1,0.2-0.1,0.3,0c-0.2,0-0.3,0.2-0.3,0.4c0.1,0,0.1-0.1,0.2-0.1c-0.2,0.4,0.4-0.3,0.3,0.1L44,34.3
				c0.1,0,0.3,0,0.3,0.1c-0.2,0.2-0.2,0-0.3,0.1c0.1,0.1,0.6-0.1,0.4,0.2c-0.1,0-0.1-0.1-0.2-0.1c-0.2,0.3-0.1,0.2-0.1,0.3l0,0v0.3
				v-0.1c0.7-0.2,0.3,0.2,0.8,0.2c-0.5,0-0.2,0.1-0.5,0.2c0,0.1-0.1,0.2-0.2,0.2c0.3,0-0.1,0.2,0.3,0.2c-0.1,0,0,0.1-0.2,0.2
				c0.1,0.1,0.1-0.1,0.2-0.1c0.4,0.1-0.2,0.6,0.3,0.7c0.2,0.2,0.6,0.2,0.8,0.4c-0.1,0.1-0.4,0-0.4,0c-0.1,0.2,0,0.2,0.1,0.3
				c-0.1,0-0.2,0-0.2,0.1s0.3,0,0.2,0.2c-0.1,0-0.3,0-0.4,0c0.1,0.1,0.3,0.2,0.4,0.3c-0.2,0-0.3,0-0.4-0.1c0.1,0.2,0.3,0.3,0.5,0.3
				l0.1-0.1c0,0-0.2,0-0.3,0c-0.2-0.1,0.1-0.2,0.2-0.2l0.1,0.1c0.5-0.2-0.2-0.3-0.1-0.5h0.4l-0.4-0.1c0.1,0,0.3-0.1,0.4,0
				c0.2-0.2-0.2-0.1,0-0.2c0,0,0,0,0.1,0l-0.2-0.1c0.1,0,0.3-0.1,0.2,0c0.2-0.3-0.4-0.3-0.1-0.5l0,0c-0.2-0.3-0.3,0-0.7-0.1l0.6-0.4
				L45.4,36c0,0,0-0.1,0.1-0.1c-0.2,0-0.1,0.1-0.3,0.1c0.2-0.3-0.3-0.4,0.1-0.6c-0.2,0-0.1,0.2-0.3,0.1c0.4-0.3-0.2-0.1,0-0.4
				c0.3-0.1,0.2,0.1,0.3-0.1c-0.4,0.1,0-0.3-0.2-0.4c-0.3,0.2-0.3-0.2-0.5-0.3c0.1-0.1-0.1-0.4-0.1-0.7h0.1c-0.3,0.2-0.4,0-0.5-0.1
				c0.2-0.1,0.2-0.2,0.4-0.2l-0.1-0.1c-0.1,0-0.2,0-0.3,0l0.2-0.2c-0.2-0.1-0.5-0.1-0.5-0.4c-0.2,0.2-0.4,0.6-0.7,0.6
				c0.1-0.1,0.2-0.3,0.3-0.3s-0.1,0-0.1,0l0.2-0.1c0-0.2-0.2,0.1-0.2,0c0.1-0.1,0-0.2,0.2-0.2s0,0.1,0.1,0.1c-0.1-0.1-0.1-0.3,0-0.4
				c-0.1,0.1-0.2,0.2-0.2,0.2s0.1-0.2,0.1-0.4c-0.1,0.1-0.1-0.1-0.3,0.1c0,0,0-0.2,0.1-0.2c-0.2,0-0.4-0.2-0.5,0.1l0,0l0,0
				c-0.4,0-0.5-0.5-0.8-0.6v-0.1c-0.2,0-0.4-0.1-0.6,0c0,0,0-0.2,0-0.3c-0.2,0-0.2,0.1-0.4-0.1c0.2-0.1,0-0.2,0.2-0.1
				c-0.2-0.1-0.1-0.3-0.4-0.1c0.2-0.2,0-0.4-0.1-0.3l0.1,0.2c-0.1,0-0.2,0-0.3-0.1l0.2-0.3c-0.3-0.5-0.9,0.5-1-0.2
				c-0.2,0.2,0.2,0.2,0,0.4c-0.2-0.1-0.3-0.6-0.3-0.6c-0.2-0.2-0.3,0.4-0.5,0.3c0,0.1,0,0.4-0.2,0.5c-0.2,0-0.2-0.5-0.1-0.6
				s0.1,0,0.1,0.1s0.2-0.1,0.1-0.2v0.1c-0.1-0.1-0.3-0.1-0.3-0.3c-0.2,0.1-0.1,0.2,0,0.2c-0.2-0.2-0.4,0-0.6-0.1
				c0,0.1,0.1,0.2,0,0.2c-0.4-0.1-0.2,0.2-0.4,0.3c-0.2-0.2,0-0.4-0.2-0.3c-0.2-0.1-0.1-0.3,0-0.4c-0.2,0.2-0.5-0.1-0.6-0.1l0.1-0.1
				c-0.1,0-0.1,0.1-0.2,0.1l0.1,0.2c-0.1,0-0.1,0-0.2-0.1c0,0.2,0.1,0.4,0,0.6c-0.1-0.1-0.2,0.2-0.3-0.1c0.3,0-0.1-0.3,0.1-0.4
				c-0.1,0-0.1,0-0.2,0v-0.1c-0.3-0.2-0.1,0.4-0.3,0.4c0-0.2-0.2-0.3-0.2-0.2c0.1,0,0.1,0.3,0.1,0.4c-0.2-0.1-0.2,0.1-0.3,0.2h0.1
				c0,0.2-0.1,0.2-0.2,0.3c0-0.1,0.1-0.1,0-0.2c0,0.3-0.4-0.2-0.5,0.1c-0.1-0.1-0.1-0.3-0.2-0.4c-0.1,0.3-0.3-0.1-0.5,0.2
				c0.2,0.2,0.1,0.1,0.1,0.4l0.3-0.3L34.2,31c0.1,0,0.2-0.2,0.2-0.2c0,0.2,0,0.2,0.1,0.3c-0.3-0.3-0.2,0.3-0.5,0.2l-0.2-0.5
				c-0.4-0.1-0.3,0.5-0.7,0.5h0.2c0.1,0.2-0.2,0.1-0.2,0.3c-0.1-0.1-0.2-0.2-0.3-0.3c0.1,0.1-0.2,0.1,0,0.5l-0.3-0.1
				c-0.3,0.1,0.1,0.6-0.2,0.8c-0.1-0.2-0.3-0.2-0.2-0.5c-0.1,0-0.2,0-0.1,0.1c-0.1,0,0,0.4-0.2,0.3c0,0.1,0.2,0.2,0.1,0.3l-0.1-0.1
				c0.1,0.1,0,0.2,0.2,0.3c-0.6-0.2-0.5,0.6-1,0.5c-0.1,0.2-0.1,0.4-0.2,0.6c0,0-0.1-0.1,0-0.1c-0.3,0.1,0.4,0.4,0.1,0.6
				c-0.3,0-0.1-0.2-0.2-0.2C30,34,30.4,34.6,30,34.6v-0.1c-0.3,0,0,0.4-0.1,0.6h-0.1c0.2,0.2,0.3,0.5,0.2,0.8
				c-0.2-0.2-0.1-0.1-0.3-0.2c0,0.1,0.4,0.1,0.4,0.3c-0.2,0.1-0.4,0.1-0.6,0.1c0-0.1,0-0.1,0-0.2c-0.4,0-0.1,0.2-0.1,0.3l-0.1-0.1
				c0,0.3,0.3,0.4,0.2,0.7h0.1c0.3,0.2-0.2,0.1,0,0.3h-0.4c0.1,0.2,0.3,0.4,0.4,0.7c-0.3-0.1-0.4-0.4-0.5-0.6c0,0.1,0,0.4,0.1,0.5
				c0,0-0.1-0.1,0-0.2c0.3,0.2,0.4,0.4,0.4,0.6c-0.8-0.1-0.2,0.6-0.8,0.8c0.3,0.4-0.1,0.8,0.1,1.3c0.5-0.3,0,0.1,0.6,0
				c0,0.1,0.1,0.1,0,0.2L29.3,41c-0.1,0.1-0.1-0.1-0.3,0c0,0.3-0.2,0.2-0.3,0.4c0.2-0.1,0.3,0,0.3,0.2l0.2-0.3
				c0.4,0.2-0.4,0.5,0,0.7H29c0.2,0.1,0.2,0.7,0.8,0.6c0,0.1-0.2,0.2-0.2,0.1c0.1,0.5,0.9,0.6,0.8,1h-0.1c0.1,0,0.3,0,0.2,0.1
				s-0.1,0.1-0.1,0.1s0.3,0,0.3,0.2h-0.2c0.1,0.5,0.7,0.3,1,0.5c-0.2,0.2-0.3,0.5-0.1,0.8l0,0c0.3,0.4,0.9,0.3,1.3,0.4
				c-0.1,0.6,0.7,0.7,1,1.1c0-0.1,0.2-0.3,0.2-0.3s0.4-0.1,0.2,0.2l0,0c-0.1,0.4,0.2,0.4,0.3,0.5l0.2-0.5c0.1,0.4,0.4,0.5,0.7,0.5
				s0.5,0,0.6,0.3c0.1-0.1,0.3-0.1,0.4-0.2l-0.1,0.3c0.3,0.1,0.5,0.2,0.8,0.2L36.9,48c0.2,0,0.3-0.8,0.5-0.8v0.4
				c0.3,0,0.8,0.3,1.1,0c0,0.1,0,0.2-0.1,0.2c0.2,0,0.7,0.2,0.6-0.4c0.1,0.4,0.4,0,0.5-0.2v0.3c0.1-0.4,0.1-0.5,0.3-0.6
				c0.1,0,0.1,0.2,0,0.2c0.2,0.1,0.1-0.3,0.3-0.2v0.2c0.2,0,0.1-0.1,0.2-0.3s0.3,0,0.5,0.2c0-0.2,0-0.4,0.1-0.3c0,0.1,0,0.1,0,0.2
				c0.4,0.1,0.3-0.5,0.6-0.3c0,0.1,0.1,0.1,0.1,0.1c-0.2,0.1-0.4,0.2-0.4,0.2c0.1,0.2,0.3,0.2,0.3,0.6c0.1-0.2,0.2-0.7,0.4-0.7
				l0.1,0.1l0,0c0,0,0.1,0,0.1-0.1c0.1,0,0.1,0,0.2,0c0.1,0.2,0.3,0,0.3-0.1c-0.2-0.2,0-0.3-0.2-0.4c0,0,0,0,0,0.1l0,0l0,0L42,46.3
				c0-0.2,0-0.3,0.2-0.2c0-0.2-0.1-0.4-0.1-0.5c0.3,0.3,0.7,0.3,0.8,0.5c0.2-0.3,0.5-0.5,0.3-1c0-0.1,0.2,0,0.2,0.1s0,0.1,0,0.2
				c0-0.2,0.3-0.4,0.1-0.7c0.3,0,0.2,0.3,0.3,0.1v0.1c0.4,0,0.4-0.4,0.4-0.7s0-0.6,0.5-0.7c0,0-0.1,0-0.2,0c0.7-0.4,0.5-1.4,1.2-1.8
				c0.2-0.2,0-0.3-0.2-0.4h0.3L45.7,41c-0.2-0.3,0.8-0.3,0.4-0.8h-0.2c0-0.1-0.1-0.4,0.2-0.4c0,0-0.2-0.1-0.1-0.1h0.2
				c-0.1-0.1-0.1-0.2-0.2-0.4c0.1-0.2,0.6,0.1,0.7-0.3c0-0.2-0.4-0.4-0.5-0.4c0,0.1-0.1,0.2-0.2,0.1l0,0.3c-0.4-0.1-0.9,0-1.2,0.1
				l0.3,0.2h-0.2v-0.2c-0.2,0.1,0,0.1,0.1,0.2c-0.1,0-0.2,0-0.2,0.1l0.4,0.2c-0.2,0-0.3-0.1-0.5,0c0.2,0.1,0.4,0,0.5,0.1
				c-0.2,0.1-0.4,0-0.2,0.1c-0.1,0-0.2,0-0.2-0.1c0.1,0.1,0,0.2,0.2,0.3c-0.3,0,0,0.3-0.4,0.2c0.1,0,0.3,0.2,0.3,0.3
				c-0.5-0.3-0.1,0.3-0.6,0.1c0.4,0.2,0.1,0.4,0.2,0.7l-0.1-0.1c0,0-0.2,0.1-0.3,0.1c0.3,0.2,0.4,0.3,0.5,0.5
				c-0.4,0-0.4-0.3-0.7-0.4c0.3,0.1,0.2,0.3,0.4,0.4c-0.2,0-0.3,0-0.4-0.1c0.4,0.2,0,0.1,0.2,0.3c-0.3,0-0.4-0.2-0.4,0
				C43.6,42.3,43.5,42.1,43.5,42.1z M41.3,45.3L41.3,45.3L41.3,45.3L41.3,45.3z M41,45.4L41,45.4c0.1,0.1,0.2,0.2,0.1,0.2
				S41.1,45.5,41,45.4L41,45.4z M42.6,46.8C42.6,46.9,42.5,46.8,42.6,46.8L42.6,46.8L42.6,46.8C42.6,46.7,42.6,46.7,42.6,46.8z"/>
		</g>
	</g>
</g>
</svg>
