<svg xmlns="http://www.w3.org/2000/svg" viewBox="0 0 66.89 103.17"><defs><style>.cls-1{fill:#9fc4e8;}.cls-2{fill:#ee7d00;}</style></defs><title>Element 203</title><g id="Ebene_2" data-name="Ebene 2"><g id="Ebene_2-2" data-name="Ebene 2"><path class="cls-1" d="M8.33,84.46c.09,0,.28,0,.24,0l-.33,0Z"/><path class="cls-1" d="M8.94,84.05A1.36,1.36,0,0,0,8.2,84c.32.07.18.08.56.16,0,.06-.1.1-.23.09.09,0-.07.1.14.13s.27-.18.05-.28A.81.81,0,0,1,8.94,84.05Z"/><path class="cls-1" d="M9.46,78.17l0,0S9.46,78.18,9.46,78.17Z"/><path class="cls-1" d="M9.64,74.52a.07.07,0,0,0,.07,0S9.67,74.51,9.64,74.52Z"/><path class="cls-1" d="M10,73.9l0,0S10,73.9,10,73.9Z"/><path class="cls-1" d="M9.46,78.17l.11-.1C9.46,78.06,9.48,78.12,9.46,78.17Z"/><path class="cls-1" d="M8.15,83.24a.12.12,0,0,0,.08.05l0-.05Z"/><path class="cls-1" d="M9.73,79.77v0l.13,0Z"/><path class="cls-1" d="M9.78,81s-.27,0-.39-.05a.44.44,0,0,1,.19.06Z"/><path class="cls-1" d="M9.29,83l0,0Z"/><path class="cls-1" d="M9.79,78.89h0Z"/><path class="cls-1" d="M8,44.17H8S8,44.16,8,44.17Z"/><polygon class="cls-1" points="9.37 43.03 9.41 43.04 9.57 43 9.37 43.03"/><path class="cls-1" d="M10.37,72.76h0S10.39,72.77,10.37,72.76Z"/><path class="cls-1" d="M10.16,62.29c-.25.12-.32-.19-.6,0C9.67,62.26,10,62.44,10.16,62.29Z"/><path class="cls-1" d="M8.18,83.21v0A0,0,0,0,0,8.18,83.21Z"/><path class="cls-1" d="M9.56,62.28h0l0,0Z"/><path class="cls-1" d="M10.2,70.13l-.12,0Z"/><path class="cls-1" d="M9.8,72.09l0,0S9.8,72.07,9.8,72.09Z"/><path class="cls-1" d="M9.8,69.11s.06,0,0-.07h0S9.85,69.08,9.8,69.11Z"/><path class="cls-1" d="M9.8,68.06l-.06,0,0,0Z"/><path class="cls-1" d="M7.81,47.59a1.09,1.09,0,0,1,.26-.05C7.87,47.56,7.8,47.39,7.81,47.59Z"/><path class="cls-1" d="M8.3,83.24c-.07,0-.1,0-.12,0l0,0A.17.17,0,0,0,8.3,83.24Z"/><path class="cls-1" d="M7.58,69.07l0-.17A.34.34,0,0,0,7.58,69.07Z"/><path class="cls-1" d="M7.85,55.17l0,0S7.82,55.16,7.85,55.17Z"/><path class="cls-1" d="M7.58,68.41a.61.61,0,0,0,.2-.1l-.07,0Z"/><path class="cls-1" d="M8.07,47.54Z"/><path class="cls-1" d="M7.44,46.33c0,.17.36.1.57.15.09.21-.28.08-.47.14.09.14.43.25.41.34a.29.29,0,0,1-.16,0c.29.14,0,.4.37.56l-.09,0a2.28,2.28,0,0,1,.51,0c0,.07.23.13,0,.16,0,0-.09,0-.17-.07l.11.08c-.35.06-.12-.11-.38-.11.11.15.4.32.3.43-.34,0-.11-.26-.41-.11l.13-.17c-.54.13,0-.11-.54,0-.1.23.17.26.07.49.19.05.28,0,.47,0,.34.33-.85.26-.4.49.23.07.66.09.43.26L7.79,49c0,.22.56.13.3.36-.15,0-.13-.17-.17-.14-.31.15.21.11.21.22l-.34,0c.06.23.3.49.36.75-.1,0-.2-.06-.31,0,.17.33,0,.71-.24,1l.29.12s-.13,0-.19,0,.19,0,.3.06-.16.1-.25.05c.25.22.53.62.22.86l-.09-.05c-.12.18.6.2.33.37l-.05,0c-.13.39.14.82-.3,1.11.42.06-.19.39.4.41-.29.22-.4.16-.6.47,0,.09.37.13.43.23h-.3l.32.14L7.74,55l.08.1a.29.29,0,0,1,.23-.08c.14.15-.22.37-.38.37l.26.36c-.12,0-.16-.07-.24-.11.31.19-.33,0,0,.21.07,0,.19,0,.25,0a.3.3,0,0,0-.11.44l-.21,0c-.06.26.1.56.09.86.1-.11.47-.09.51,0l-.33,0c.2.06.12-.09.37,0,0,.11-.37.07-.48,0l.12.14c-.1,0-.15,0-.27,0,.2.06-.33.24,0,.32h-.1a5.32,5.32,0,0,0,.13.67c.28,0,.22.1.44.17-.09.18-.31.38-.28.59s.24,0,.4.12c-.25,0-.23.22-.41.11a1.27,1.27,0,0,0,.26.66c.1,0,.15-.08.23-.06s-.1.14-.23.13l0,0c.38.37-.75.85-.22,1.14l0,0,.28.31c-.05.13-.2-.09-.36,0,.43.33-.06.52.23.79-.76.21,0,.74-.43,1l.18,0c.17.07-.11.09-.15.14.14,0,.16-.08.26,0,.21.61-.26,1.27-.42,1.9,0,.23.92.13.5.42l-.33-.08c.39.46,0,.95.32,1.4-.08,0-.18,0-.18-.07-.24.1,0,.35.19.36,0,.07-.18,0-.28.06s.31.24.07.29c0,0-.08,0-.1,0s0,.3.25.24c-.13.17.12.32,0,.46.31.09-.15.29.29.32-.45,0-.37.3-.15.41-.14,0-.15.09-.34,0,0,.12.09.24.33.21-.54.23.43.46-.26.59a4.09,4.09,0,0,1,.51,1c-.45,0,0-.36-.52-.35.19.32.58.5.47.81-.06.08-.2,0-.27-.08.18.32,0,.61.2.89a.45.45,0,0,1-.12-.06c0,.05-.07.12.14.12L8,72.19c.3-.08.62.22.78.23-.59-.09-.15.28-.89.13a.42.42,0,0,0,.27.07s-.12.07-.27,0c.11.19.33.12.32.3-.1,0-.14,0-.25,0,.19.09.38.18.3.33-.06,0-.14,0-.14,0,0,.26.52.44.33.72-.43-.08-.14.1-.51.11l.11.16.18-.07c0,.14.27.26.14.37l-.15-.1.07.25.14-.14c.19.13.47,0,.37.16,0,0,0,.14-.22.21h0c.12.06.25.13.16.23s-.42,0-.5,0c.32.07.09.32.42.4a.86.86,0,0,0-.31,0l.25,0a.32.32,0,0,1-.27.06c-.05.19.47-.06.27.16,0,0-.06,0-.1,0-.11.22.16.43,0,.63-.37.06-.09-.18-.4-.11.06.29.45.61.36.89l0,0c.53,0-.26.21,0,.35a.65.65,0,0,0-.24,0c-.08.19.13.4.3.69l-.14,0c-.12.12-.07.3-.13.43.14,0,.11.11.31.06-.77.38.42.73-.23,1.07,0,0-.12-.1-.12-.07l.13.29c.23,0,.14,0,.32-.1s.24.12.24.19c-.15-.13-.37,0-.5.06a1.62,1.62,0,0,1,.22,0c-.41.15.47,0,.19.23H8.74c.06.07.22.14.19.23-.27,0-.13-.09-.35-.09,0,.12.51.23.24.33-.07,0-.07-.12-.15-.17-.31.12-.23.13-.28.22h0l-.14.2.09,0c.69.14.12.29.58.49-.43-.19-.25,0-.55,0-.09,0-.18.13-.26.11.24.09-.2.15.16.28-.1,0,0,.1-.25.08.07.12.17,0,.29,0,.33.19-.41.44,0,.71.19.23.52.27.68.49a.43.43,0,0,1-.35-.06c-.15.11-.12.2,0,.31a.46.46,0,0,0-.27,0c0,.08.36.06.22.17a1.92,1.92,0,0,1-.4-.09c.09.11.28.21.36.32-.17,0-.25-.07-.37-.1a.59.59,0,0,0,.43.35l.09-.08s-.23,0-.28,0c-.21-.11.1-.15.19-.16l.07.08c.57-.08-.09-.31-.06-.46l.41.06-.34-.16c.11,0,.34,0,.4,0,.21-.11-.15-.09.08-.19h.08l-.13-.1c.09,0,.3,0,.24,0,.24-.19-.32-.31,0-.38l0,0c-.14-.27-.3,0-.66-.23l.75-.14-.3,0s0-.09.15-.08c-.2-.1-.13,0-.33,0,.28-.13-.13-.37.36-.4-.23,0-.18.13-.34,0,.52,0-.09-.17.15-.29.27,0,.13.15.37,0-.46-.07.1-.24,0-.34-.36,0-.15-.22-.27-.4.12,0,.2-.32.33-.48H9.7c-.37,0-.3-.19-.37-.31a.59.59,0,0,1,.4.09V79.8a.27.27,0,0,1-.22-.13l.27,0c0-.15-.32-.31-.14-.5-.25,0-.71.15-.88,0,.14,0,.37,0,.43,0s-.11-.07-.06-.1l.24.08c.1-.09-.2,0-.18-.12.2,0,.15,0,.3,0s-.08.06,0,.09a.42.42,0,0,1,.3-.21c-.11,0-.27,0-.29-.06s.24,0,.34-.14c-.14,0,0-.13-.29-.13,0,0,.14-.06.22-.07-.13-.08,0-.37-.35-.28l0,0h0c-.29-.26.17-.53,0-.79h.1c-.11-.15-.07-.34-.28-.44,0,0,.18-.11.3-.09-.07-.12-.18-.13,0-.3.17.12.15,0,.12.12.09-.15.25-.18,0-.34.25.05.32-.12.24-.19l-.18.11a.3.3,0,0,1,0-.23l.33,0c.4-.31-.69-.55,0-.79-.23-.08-.17.17-.44.1,0-.15.52-.29.53-.34.18-.19-.49-.18-.36-.38-.12,0-.44,0-.55-.1,0-.15.5-.18.59-.09s0,0-.07,0a.17.17,0,0,0,.23,0l-.12,0c.12-.07.11-.27.3-.22-.11-.11-.19-.05-.26,0,.18-.18,0-.28.12-.47-.06,0-.2.06-.2,0,.15-.27-.22-.12-.28-.31.19-.1.44,0,.28-.15.13-.11.32,0,.42,0-.23-.17.15-.31.19-.41l.09.09a.19.19,0,0,1-.05-.15l-.24.06c0-.06,0-.1.14-.1-.15-.05-.39,0-.6-.07.12-.07-.13-.21.18-.24-.11.23.32,0,.37.17,0,0,0-.08,0-.14a.12.12,0,0,1,.09,0c.28-.22-.36-.1-.35-.32.18,0,.34,0,.3-.09s-.3,0-.43,0c.13-.14-.11-.15-.09-.22l-.07.08c-.17,0-.15-.1-.21-.2.14,0,.1.09.16.06-.31-.11.32-.25.11-.4.12-.07.34,0,.42-.07-.23-.17.24-.18,0-.36-.24,0-.18.06-.41-.07l.17.3-.35-.19c0,.09.15.18.11.24-.2-.09-.14-.08-.34,0,.36-.12-.2-.24,0-.38h.59c.26-.21-.3-.37-.16-.65l-.1.09c-.23,0,0-.17-.13-.26a1,1,0,0,0,.4-.08c-.15,0,0-.2-.39-.23l.26-.12c.11-.22-.56-.25-.49-.47.21.07.35,0,.51.11,0-.07,0-.13-.1-.13.12,0-.27-.2-.08-.27-.09,0-.29,0-.28-.12h.1c-.1,0-.13-.12-.35-.05.62-.22,0-.61.48-.8a2,2,0,0,1-.14-.49c.06,0,.1,0,.08,0,.18-.19-.57-.12-.36-.34s.17.12.29,0c.65,0-.09-.27.29-.42l0,0c.22-.12-.25-.28-.2-.47h.1a.94.94,0,0,1-.54-.54c.26,0,.14.08.4,0,0-.08-.42,0-.49-.14a1.3,1.3,0,0,1,.54-.18v.15c.36-.08,0-.2.05-.28H10c-.05-.23-.45-.23-.42-.48l-.12,0C9,65,9.65,65,9.36,64.85l.4,0a2.06,2.06,0,0,1-.46-.47,2.14,2.14,0,0,1,.62.4c0-.09,0-.31-.23-.35,0,0,.14.08.08.11-.31-.11-.47-.25-.46-.43.77,0,.19-.46.79-.59-.28-.31.12-.62.07-1-.59.13,0-.11-.62-.09,0-.08,0-.11,0-.12L9.92,62c.18-.06.14.08.27.07.05-.18.26-.07.43-.2-.22,0-.32-.06-.23-.17l-.29.15c-.32-.26.52-.22.19-.48l.2.08c-.12-.14,0-.5-.49-.63.07,0,.24-.06.28,0,.08-.32-.52-.71-.22-1l.15,0c0-.06-.28-.1-.13-.18s.15,0,.16,0-.26-.16-.18-.24l.17.07c.2-.31-.41-.48-.51-.74a.67.67,0,0,0,.65-.37h.07c.05-.37-.37-.62-.54-1,.48-.21.2-.71.47-1a.44.44,0,0,1-.39-.06c.09-.08-.31-.22.1-.21v0c.4-.06.29-.23.3-.35l-.53,0c.77-.34-.28-.87.41-1-.13-.09-.13-.18-.26-.26h.28a.89.89,0,0,0,0-.61l.2.06c0-.16-.81-.2-.83-.34l.42,0c0-.27.37-.55,0-.81.07,0,.19,0,.2,0,0-.12.29-.49-.29-.44.38,0,0-.28-.13-.43l.28,0c-.36-.13-.45-.13-.55-.3s.22,0,.15,0c.15-.13-.26-.1-.12-.27l.18.07c0-.14-.07-.13-.28-.21s.07-.27.32-.29c-.15,0-.36-.09-.28-.17a.36.36,0,0,1,.18,0c.19-.23-.32-.35-.05-.51a.54.54,0,0,0,.17,0c0,.18,0,.33,0,.32.26,0,.31-.15.66,0-.19-.13-.61-.33-.49-.48l.09,0,0,0s0-.07,0-.09.08-.08.08-.12c.21,0,.11-.18.12-.25-.28,0-.23-.09-.46,0,0,0,0,0,0,.06s0,0,0,0h0a1.76,1.76,0,0,0,0,.19c-.15-.06-.27-.13-.11-.21l-.46-.1c.4-.1.61-.3.85-.33-.16-.23-.1-.54-.63-.68-.07-.07.15-.08.23-.1s0,.08.12.1c-.13-.13,0-.38-.42-.41.17-.17.34.09.28-.14l.11,0c.59-.44-.94-.72-.17-1.18a.19.19,0,0,1-.13,0c.35-.51-.24-1.15.35-1.62.13-.13-.1-.18-.26-.3h.3l-.32-.21c-.22-.27.79-.26.37-.63H9.76c.06-.09-.06-.35.17-.29,0,0-.2-.07-.09-.1l.15,0-.22-.31c.06-.11.22-.09.36-.09s.3.06.3-.3a.45.45,0,0,0-.33-.24.88.88,0,0,0-.36,0s0,.09-.17.13a.29.29,0,0,0-.16,0,6,6,0,0,0-1.14.31,1.33,1.33,0,0,0,.28,0H8.32s0,0,0,0-.11,0-.07,0a.45.45,0,0,1,.17,0H8.16c.15,0,.29.12.43.18-.19,0-.35-.1-.46,0,.19.09.41,0,.53.13-.23,0-.39,0-.23.11a.36.36,0,0,1-.24-.09c.13.1,0,.23.26.31-.27,0,0,.3-.41.22.1,0,.31.21.32.29-.5-.23-.08.3-.64.17.46.19.15.44.39.67,0,0-.11-.05-.08-.06s-.2.12-.3.18c.39.06.46.24.69.36-.39.1-.45-.13-.81-.12.31,0,.29.27.56.24a.93.93,0,0,1-.45.11c.48.06.07.11.37.22-.26.13-.46,0-.33.18C7.61,46.49,7.44,46.33,7.44,46.33Zm.81,3.84h0V50.1Zm0,.32a.32.32,0,0,0,0-.14c.1,0,.2,0,.2,0S8.33,50.44,8.25,50.49Zm1.95-.67s0,.07-.07.08a.36.36,0,0,0,0-.09h0Z"/><path class="cls-1" d="M9.83,49.73l0,0-.06,0,.09,0Z"/><path class="cls-1" d="M9.42,78.21h0l0,0Z"/><polygon class="cls-1" points="7.71 54.83 7.79 54.83 7.72 54.8 7.71 54.83"/><path class="cls-1" d="M8.45,79.94l-.07,0Z"/><path class="cls-1" d="M8.39,80.69l-.1.1Z"/><path class="cls-1" d="M8.25,81.26h0Z"/><path class="cls-1" d="M7.92,72.13s0,0,0,0S7.87,72.09,7.92,72.13Z"/><path class="cls-1" d="M8.57,74.85l-.13-.09S8.41,74.84,8.57,74.85Z"/><polygon class="cls-1" points="7.58 69.09 7.58 69.09 7.58 69.07 7.58 69.09"/><path class="cls-1" d="M8.45,74.63c-.06.05,0,.09,0,.13S8.49,74.67,8.45,74.63Z"/><path class="cls-1" d="M8.12,83.75v0h0Z"/><path class="cls-1" d="M8.15,83.78l0,0S8.19,83.79,8.15,83.78Z"/><path class="cls-1" d="M8.26,83.88l-.07-.06S8.18,83.87,8.26,83.88Z"/><path class="cls-1" d="M8.25,83h0Z"/><path class="cls-1" d="M8.22,82.76c0,.06-.22.14-.15.22h.08C8,83,8.39,82.81,8.22,82.76Z"/><path class="cls-1" d="M9.48,81.8,9.4,82c.11,0,.25-.08.28,0C10,81.76,9.44,82.05,9.48,81.8Z"/><path class="cls-1" d="M9.64,81.2c0,.1.16,0,.22,0C9.76,81.13,9.73,81.12,9.64,81.2Z"/><path class="cls-1" d="M9.64,76.86H9.9C9.86,76.79,9.8,76.86,9.64,76.86Z"/><polygon class="cls-1" points="8.32 76.03 8.16 76.1 8.39 76.14 8.32 76.03"/><polygon class="cls-1" points="10.14 75.53 10.18 75.57 10.08 75.44 10.14 75.53"/><path class="cls-1" d="M10.05,68.25l-.32,0C9.79,68.32,10.14,68.33,10.05,68.25Z"/><path class="cls-1" d="M9.73,65.1c.16,0,.26-.12.1-.18S9.69,65.06,9.73,65.1Z"/><polygon class="cls-1" points="10.24 55.66 10.35 55.72 10.26 55.6 10.24 55.66"/><path class="cls-1" d="M35.52,84.46c.08,0,.28,0,.24,0l-.33,0Z"/><path class="cls-1" d="M36.13,84.05a1.38,1.38,0,0,0-.75-.1c.32.07.19.08.57.16,0,.06-.11.1-.23.09.09,0-.07.1.14.13s.26-.18,0-.28A.81.81,0,0,1,36.13,84.05Z"/><path class="cls-1" d="M36.65,78.17l0,0Z"/><path class="cls-1" d="M36.83,74.52a.07.07,0,0,0,.07,0S36.86,74.51,36.83,74.52Z"/><path class="cls-1" d="M37.19,73.9l0,0S37.22,73.9,37.19,73.9Z"/><path class="cls-1" d="M36.65,78.17l.1-.1C36.64,78.06,36.67,78.12,36.65,78.17Z"/><path class="cls-1" d="M35.33,83.24a.19.19,0,0,0,.09.05l0-.05Z"/><path class="cls-1" d="M36.92,79.77v0l.13,0Z"/><path class="cls-1" d="M37,81s-.27,0-.4-.05a.45.45,0,0,1,.2.06Z"/><path class="cls-1" d="M36.47,83l0,0Z"/><path class="cls-1" d="M37,78.89h0Z"/><path class="cls-1" d="M35.17,44.17h0S35.18,44.16,35.17,44.17Z"/><polygon class="cls-1" points="36.56 43.03 36.59 43.04 36.76 43 36.56 43.03"/><path class="cls-1" d="M37.55,72.76h0S37.57,72.77,37.55,72.76Z"/><path class="cls-1" d="M37.35,62.29c-.25.12-.33-.19-.61,0C36.85,62.26,37.18,62.44,37.35,62.29Z"/><path class="cls-1" d="M35.37,83.21s0,0,0,0A0,0,0,0,0,35.37,83.21Z"/><path class="cls-1" d="M36.74,62.28h0l0,0Z"/><path class="cls-1" d="M37.38,70.13l-.12,0Z"/><path class="cls-1" d="M37,72.09l0,0Z"/><path class="cls-1" d="M37,69.11s.06,0,0-.07h0S37,69.08,37,69.11Z"/><path class="cls-1" d="M37,68.06l-.06,0v0Z"/><path class="cls-1" d="M35,47.59a1.11,1.11,0,0,1,.25-.05C35.05,47.56,35,47.39,35,47.59Z"/><path class="cls-1" d="M35.49,83.24c-.07,0-.11,0-.12,0s0,0,0,0A.2.2,0,0,0,35.49,83.24Z"/><path class="cls-1" d="M34.77,69.07l0-.17A.33.33,0,0,0,34.77,69.07Z"/><path class="cls-1" d="M35,55.17l0,0S35,55.16,35,55.17Z"/><path class="cls-1" d="M34.77,68.41a.46.46,0,0,0,.19-.1l-.07,0Z"/><path class="cls-1" d="M35.26,47.54h0Z"/><path class="cls-1" d="M34.63,46.33c0,.17.35.1.56.15.1.21-.27.08-.46.14.09.14.42.25.4.34A.29.29,0,0,1,35,47c.29.14,0,.4.38.56l-.09,0a2.19,2.19,0,0,1,.5,0c0,.07.23.13,0,.16,0,0-.09,0-.16-.07l.1.08c-.34.06-.12-.11-.37-.11.11.15.4.32.3.43-.34,0-.12-.26-.42-.11l.13-.17c-.53.13,0-.11-.53,0-.1.23.17.26.07.49.19.05.28,0,.47,0,.34.33-.86.26-.4.49.22.07.65.09.42.26L35,49c0,.22.55.13.29.36-.15,0-.12-.17-.17-.14-.3.15.22.11.22.22l-.34,0c.05.23.3.49.36.75-.1,0-.21-.06-.31,0,.17.33,0,.71-.24,1l.29.12s-.13,0-.19,0,.19,0,.3.06-.17.1-.26.05c.25.22.54.62.23.86l-.09-.05c-.12.18.6.2.33.37l-.06,0c-.12.39.15.82-.3,1.11.43.06-.19.39.4.41-.29.22-.39.16-.59.47,0,.09.37.13.43.23H35l.33.14-.37.08.08.1s.13-.09.22-.08-.21.37-.37.37l.26.36a.49.49,0,0,1-.24-.11c.31.19-.33,0,0,.21.07,0,.18,0,.24,0a.3.3,0,0,0-.1.44l-.22,0a5.55,5.55,0,0,0,.1.86c.1-.11.47-.09.5,0l-.32,0c.2.06.12-.09.37,0,0,.11-.37.07-.48,0l.11.14c-.09,0-.14,0-.27,0,.2.06-.33.24,0,.32h-.1c0,.29.11.43.12.67.29,0,.22.1.45.17-.09.18-.31.38-.29.59s.24,0,.41.12c-.26,0-.23.22-.42.11a1.27,1.27,0,0,0,.26.66c.11,0,.15-.08.24-.06s-.11.14-.23.13l0,0c.39.37-.74.85-.21,1.14l0,0,.28.31c0,.13-.19-.09-.35,0,.43.33-.06.52.22.79-.75.21.06.74-.43,1l.18,0c.18.07-.1.09-.14.14.14,0,.16-.08.26,0,.21.61-.26,1.27-.42,1.9,0,.23.92.13.49.42l-.33-.08c.4.46,0,.95.32,1.4-.07,0-.17,0-.17-.07-.24.1,0,.35.18.36,0,.07-.17,0-.27.06s.3.24.06.29c0,0-.07,0-.09,0s0,.3.25.24c-.14.17.12.32,0,.46.31.09-.14.29.29.32-.45,0-.36.3-.15.41-.14,0-.14.09-.33,0,0,.12.09.24.32.21-.54.23.44.46-.25.59a4.46,4.46,0,0,1,.51,1c-.45,0-.05-.36-.52-.35.19.32.57.5.46.81-.06.08-.19,0-.27-.08.19.32,0,.61.21.89a.52.52,0,0,1-.13-.06c0,.05-.06.12.14.12l-.05-.06c.29-.08.62.22.78.23-.59-.09-.15.28-.89.13a.38.38,0,0,0,.27.07s-.12.07-.28,0c.11.19.33.12.33.3-.1,0-.14,0-.26,0,.2.09.39.18.31.33-.06,0-.14,0-.14,0,0,.26.52.44.33.72-.43-.08-.14.1-.52.11l.11.16.19-.07c0,.14.26.26.14.37l-.15-.1.07.25.14-.14c.19.13.47,0,.37.16,0,0,0,.14-.23.21h0c.12.06.24.13.15.23s-.41,0-.49,0c.31.07.09.32.42.4a.91.91,0,0,0-.32,0l.26,0c-.08.06-.12.07-.28.06,0,.19.48-.06.27.16,0,0-.06,0-.1,0-.1.22.17.43,0,.63-.38.06-.09-.18-.41-.11.07.29.45.61.36.89l0,0c.54,0-.26.21,0,.35a.6.6,0,0,0-.23,0c-.09.19.13.4.29.69l-.13,0c-.12.12-.07.3-.13.43.13,0,.11.11.31.06-.78.38.41.73-.23,1.07,0,0-.12-.1-.12-.07l.12.29c.23,0,.14,0,.32-.1s.25.12.25.19c-.16-.13-.37,0-.5.06a1.62,1.62,0,0,1,.22,0c-.41.15.46,0,.19.23h-.13c.07.07.23.14.19.23-.27,0-.12-.09-.34-.09,0,.12.5.23.24.33-.08,0-.08-.12-.15-.17-.32.12-.24.13-.29.22h0l-.14.2.08,0c.7.14.13.29.59.49-.43-.19-.25,0-.56,0-.08,0-.17.13-.26.11.25.09-.19.15.17.28-.1,0,0,.1-.26.08.08.12.17,0,.29,0,.34.19-.4.44.06.71.18.23.51.27.68.49a.44.44,0,0,1-.36-.06c-.14.11-.11.2,0,.31a.45.45,0,0,0-.27,0c0,.08.36.06.21.17a1.83,1.83,0,0,1-.39-.09c.09.11.27.21.36.32-.17,0-.26-.07-.37-.1.08.12.15.31.42.35l.1-.08s-.23,0-.28,0c-.21-.11.09-.15.19-.16l.06.08c.58-.08-.09-.31-.06-.46l.42.06-.34-.16c.1,0,.34,0,.4,0,.2-.11-.15-.09.08-.19h.07l-.12-.1c.09,0,.29,0,.23,0,.24-.19-.31-.31,0-.38l0,0c-.14-.27-.31,0-.66-.23l.75-.14-.31,0a.14.14,0,0,1,.16-.08c-.21-.1-.13,0-.33,0,.28-.13-.13-.37.36-.4-.24,0-.18.13-.34,0,.52,0-.09-.17.15-.29.27,0,.12.15.36,0-.45-.07.1-.24,0-.34-.37,0-.15-.22-.28-.4.13,0,.2-.32.34-.48h.06c-.37,0-.3-.19-.38-.31a.62.62,0,0,1,.41.09V79.8a.31.31,0,0,1-.23-.13l.28,0c0-.15-.32-.31-.14-.5-.26,0-.71.15-.89,0,.14,0,.38,0,.44,0s-.12-.07-.06-.1l.23.08c.11-.09-.19,0-.17-.12.2,0,.14,0,.3,0s-.08.06,0,.09a.47.47,0,0,1,.31-.21c-.12,0-.27,0-.3-.06s.24,0,.34-.14c-.13,0,0-.13-.29-.13,0,0,.14-.06.22-.07-.13-.08,0-.37-.35-.28l0,0h0c-.3-.26.17-.53,0-.79h.1c-.12-.15-.07-.34-.28-.44,0,0,.18-.11.3-.09-.08-.12-.19-.13,0-.3.18.12.16,0,.13.12.09-.15.24-.18,0-.34.26.05.32-.12.25-.19l-.18.11a.3.3,0,0,1,0-.23l.34,0c.4-.31-.69-.55,0-.79-.23-.08-.16.17-.43.1,0-.15.52-.29.52-.34.19-.19-.48-.18-.36-.38-.12,0-.43,0-.55-.1.05-.15.5-.18.6-.09s0,0-.07,0a.15.15,0,0,0,.22,0l-.12,0c.12-.07.11-.27.31-.22-.12-.11-.2-.05-.26,0,.17-.18,0-.28.12-.47-.06,0-.2.06-.2,0,.14-.27-.23-.12-.28-.31.18-.1.43,0,.28-.15.12-.11.32,0,.41,0-.23-.17.15-.31.19-.41l.1.09a.16.16,0,0,1-.05-.15l-.24.06c0-.06,0-.1.14-.1-.16-.05-.4,0-.61-.07.12-.07-.13-.21.19-.24-.11.23.31,0,.36.17,0,0,0-.08,0-.14s.07,0,.08,0c.29-.22-.35-.1-.35-.32.18,0,.34,0,.3-.09s-.29,0-.43,0c.14-.14-.1-.15-.09-.22l-.06.08c-.18,0-.15-.1-.21-.2.14,0,.09.09.16.06-.32-.11.32-.25.11-.4.12-.07.33,0,.41-.07-.23-.17.25-.18.06-.36-.24,0-.18.06-.42-.07l.17.3-.35-.19c0,.09.15.18.11.24-.19-.09-.13-.08-.33,0,.36-.12-.21-.24,0-.38h.59c.27-.21-.3-.37-.15-.65l-.1.09c-.24,0,0-.17-.13-.26a1,1,0,0,0,.39-.08c-.14,0,0-.2-.38-.23l.26-.12c.11-.22-.56-.25-.49-.47.21.07.35,0,.5.11,0-.07,0-.13-.1-.13.13,0-.26-.2-.07-.27-.09,0-.3,0-.28-.12h.1c-.1,0-.14-.12-.35-.05.61-.22-.05-.61.48-.8a1.66,1.66,0,0,1-.14-.49c.05,0,.09,0,.07,0,.19-.19-.56-.12-.36-.34s.17.12.3,0c.64,0-.09-.27.29-.42l0,0c.22-.12-.24-.28-.2-.47H37a.92.92,0,0,1-.53-.54c.25,0,.13.08.39,0,0-.08-.41,0-.48-.14a1.24,1.24,0,0,1,.53-.18l0,.15c.35-.08,0-.2,0-.28h.15c0-.23-.44-.23-.41-.48l-.12,0c-.39-.14.22-.12-.07-.25l.39,0a2,2,0,0,1-.45-.47,2,2,0,0,1,.61.4.32.32,0,0,0-.22-.35s.13.08.07.11c-.31-.11-.46-.25-.45-.43.76,0,.19-.46.78-.59-.28-.31.13-.62.08-1-.6.13,0-.11-.63-.09,0-.08,0-.11,0-.12l.37-.26c.18-.06.13.08.27.07,0-.18.26-.07.42-.2-.22,0-.31-.06-.23-.17l-.28.15c-.33-.26.51-.22.19-.48l.19.08c-.11-.14,0-.5-.48-.63.07,0,.23-.06.28,0,.07-.32-.53-.71-.22-1l.15,0c0-.06-.28-.1-.13-.18s.15,0,.15,0-.26-.16-.17-.24l.17.07c.19-.31-.41-.48-.51-.74a.67.67,0,0,0,.65-.37h.06c.06-.37-.36-.62-.54-1,.48-.21.2-.71.47-1a.42.42,0,0,1-.38-.06c.08-.08-.31-.22.09-.21v0c.39-.06.29-.23.3-.35l-.53,0c.77-.34-.28-.87.41-1-.14-.09-.14-.18-.27-.26h.29a1,1,0,0,0,0-.61l.2.06c0-.16-.82-.2-.83-.34l.42,0c0-.27.36-.55,0-.81.06,0,.18,0,.2,0,0-.12.29-.49-.29-.44.37,0,0-.28-.13-.43l.28,0c-.36-.13-.46-.13-.56-.3s.23,0,.16,0c.14-.13-.27-.1-.12-.27l.18.07c0-.14-.08-.13-.28-.21S36.78,51,37,51c-.15,0-.36-.09-.29-.17a.38.38,0,0,1,.19,0c.19-.23-.33-.35,0-.51a.47.47,0,0,0,.16,0c0,.18,0,.33,0,.32.26,0,.3-.15.66,0-.2-.13-.62-.33-.5-.48l.09,0,0,0s0-.07,0-.09a.35.35,0,0,0,.08-.12c.21,0,.11-.18.12-.25-.28,0-.24-.09-.47,0,0,0,0,0,.05.06s0,0,0,0h0A.92.92,0,0,1,37,50c-.14-.06-.26-.13-.11-.21l-.45-.1c.39-.1.6-.3.85-.33-.16-.23-.11-.54-.64-.68-.06-.07.16-.08.24-.1s0,.08.12.1c-.14-.13,0-.38-.42-.41.16-.17.34.09.28-.14l.11,0c.59-.44-.94-.72-.17-1.18a.21.21,0,0,1-.13,0c.35-.51-.24-1.15.35-1.62.13-.13-.1-.18-.27-.3h.31l-.33-.21c-.21-.27.8-.26.37-.63H37c0-.09-.06-.35.16-.29,0,0-.2-.07-.09-.1l.16,0L37,43.55c.07-.11.22-.09.37-.09s.3.06.3-.3a.45.45,0,0,0-.34-.24.9.9,0,0,0-.36,0s0,.09-.17.13a.27.27,0,0,0-.16,0,6.4,6.4,0,0,0-1.14.31,1.43,1.43,0,0,0,.29,0h-.23s0,0,0,0-.12,0-.08,0a.49.49,0,0,1,.18,0h-.25c.14,0,.28.12.42.18-.18,0-.35-.1-.46,0,.2.09.42,0,.53.13-.22,0-.39,0-.22.11a.36.36,0,0,1-.24-.09c.13.1,0,.23.26.31-.27,0,0,.3-.42.22.1,0,.32.21.32.29-.49-.23-.08.3-.63.17.45.19.15.44.39.67,0,0-.11-.05-.09-.06s-.19.12-.29.18c.38.06.46.24.69.36-.39.1-.45-.13-.82-.12.32,0,.29.27.56.24a.9.9,0,0,1-.45.11c.49.06.08.11.37.22-.25.13-.46,0-.32.18C34.79,46.49,34.63,46.33,34.63,46.33Zm.8,3.84h0l0-.07Zm0,.32a.61.61,0,0,0,0-.14c.1,0,.2,0,.19,0S35.52,50.44,35.44,50.49Zm2-.67s0,.07-.08.08a.16.16,0,0,0,0-.09h0Z"/><path class="cls-1" d="M37,49.73l0,0-.07,0,.09,0Z"/><path class="cls-1" d="M36.6,78.21h0l0,0Z"/><polygon class="cls-1" points="34.9 54.83 34.97 54.83 34.91 54.8 34.9 54.83"/><path class="cls-1" d="M35.64,79.94l-.08,0Z"/><path class="cls-1" d="M35.57,80.69l-.1.1A.3.3,0,0,0,35.57,80.69Z"/><path class="cls-1" d="M35.43,81.26h0Z"/><path class="cls-1" d="M35.1,72.13a0,0,0,0,0,0,0C35,72.05,35.06,72.09,35.1,72.13Z"/><path class="cls-1" d="M35.76,74.85l-.13-.09S35.6,74.84,35.76,74.85Z"/><polygon class="cls-1" points="34.77 69.09 34.77 69.09 34.77 69.07 34.77 69.09"/><path class="cls-1" d="M35.63,74.63a.08.08,0,0,0,0,.13S35.68,74.67,35.63,74.63Z"/><path class="cls-1" d="M35.31,83.75v0h0Z"/><path class="cls-1" d="M35.34,83.78l0,0S35.37,83.79,35.34,83.78Z"/><path class="cls-1" d="M35.44,83.88l-.07-.06S35.36,83.87,35.44,83.88Z"/><path class="cls-1" d="M35.44,83h0Z"/><path class="cls-1" d="M35.41,82.76c0,.06-.22.14-.16.22h.08C35.18,83,35.58,82.81,35.41,82.76Z"/><path class="cls-1" d="M36.67,81.8l-.08.19c.1,0,.25-.08.28,0C37.19,81.76,36.62,82.05,36.67,81.8Z"/><path class="cls-1" d="M36.82,81.2c.06.1.16,0,.22,0C36.94,81.13,36.92,81.12,36.82,81.2Z"/><path class="cls-1" d="M36.83,76.86h.25C37,76.79,37,76.86,36.83,76.86Z"/><polygon class="cls-1" points="35.5 76.03 35.34 76.1 35.58 76.14 35.5 76.03"/><polygon class="cls-1" points="37.33 75.53 37.36 75.57 37.27 75.44 37.33 75.53"/><path class="cls-1" d="M37.23,68.25l-.31,0C37,68.32,37.33,68.33,37.23,68.25Z"/><path class="cls-1" d="M36.91,65.1c.16,0,.26-.12.11-.18S36.87,65.06,36.91,65.1Z"/><polygon class="cls-1" points="37.43 55.66 37.53 55.72 37.45 55.6 37.43 55.66"/><path class="cls-1" d="M.32,73.82c.08.1.28,0,.24-.24l-.33-.21Z"/><path class="cls-1" d="M.93,71.9c-.16-.34-.44-.73-.75-.51.32.33.19.41.57.77,0,.29-.11.5-.23.45.08.1-.07.45.13.6a1.33,1.33,0,0,0,.06-1.33C.78,71.77.87,71.87.93,71.9Z"/><path class="cls-1" d="M1.45,44l0,.18A.8.8,0,0,0,1.45,44Z"/><path class="cls-1" d="M4.7,29c-.11.05-.15.09-.14.12S4.73,29.06,4.7,29Z"/><path class="cls-1" d="M7.44,29.11l-.17,0A.22.22,0,0,0,7.44,29.11Z"/><path class="cls-1" d="M1.45,44l.1-.46C1.44,43.51,1.47,43.78,1.45,44Z"/><path class="cls-1" d="M.13,68.05a.81.81,0,0,0,.09.25l0-.23Z"/><path class="cls-1" d="M1.71,51.63v.14l.14.11Z"/><path class="cls-1" d="M1.76,57.47c0-.13-.26-.18-.39-.23a.44.44,0,0,1,.2.29A.34.34,0,0,0,1.76,57.47Z"/><path class="cls-1" d="M1.27,66.74l0,.17Z"/><path class="cls-1" d="M1.77,47.44a.28.28,0,0,0,.11,0A.18.18,0,0,0,1.77,47.44Z"/><path class="cls-1" d="M46,67.52H46S46,67.56,46,67.52Z"/><path class="cls-1" d="M44.64,74.3l0-.1-.16,0Z"/><path class="cls-1" d="M12.84,29.47h0C12.67,29.49,12.75,29.49,12.84,29.47Z"/><path class="cls-1" d="M28.47,4.34c-.27-.51.86.25.4-.44C28.86,4,28.06,3.83,28.47,4.34Z"/><path class="cls-1" d="M.17,67.9v-.24A.94.94,0,0,0,.17,67.9Z"/><path class="cls-1" d="M28.87,3.9h0l-.06-.07Z"/><path class="cls-1" d="M19.89,21.48c0,.05.05.1.1.16S20,21.57,19.89,21.48Z"/><path class="cls-1" d="M16,28.9l.23,0Z"/><path class="cls-1" d="M15.47,19.47c-.06-.1-.06-.16-.19-.25a.13.13,0,0,0,0,.06C15.35,19.3,15.41,19.34,15.47,19.47Z"/><path class="cls-1" d="M13.29,15.46a.3.3,0,0,0,0,.1l.06.13A1.79,1.79,0,0,1,13.29,15.46Z"/><path class="cls-1" d="M45.89,52.3a.76.76,0,0,1-.25.23C45.84,52.45,45.91,53.19,45.89,52.3Z"/><path class="cls-1" d="M.29,68.05a.17.17,0,0,1-.12-.15v.17A.11.11,0,0,0,.29,68.05Z"/><path class="cls-1" d="M13.7,20.82a7.88,7.88,0,0,1-.55-.74A4.14,4.14,0,0,0,13.7,20.82Z"/><path class="cls-1" d="M30.52,27l.18,0A.26.26,0,0,0,30.52,27Z"/><path class="cls-1" d="M11.76,17.78a1.57,1.57,0,0,0,0-.53.23.23,0,0,0-.1-.07Z"/><path class="cls-1" d="M45.64,52.53Z"/><path class="cls-1" d="M46.31,57.77c0-.76-.37-.35-.58-.51-.1-.91.27-.42.46-.73-.1-.57-.43-1-.42-1.42.06,0,.08-.11.16,0-.29-.6,0-1.77-.38-2.47a.19.19,0,0,1,.09-.09.8.8,0,0,1-.51.11c0-.34-.23-.63,0-.76,0,.21.09.23.16.32l-.1-.35c.35-.32.12.48.38.48a7.66,7.66,0,0,1-.31-2c.34-.11.12,1.24.42.53l-.13.83c.54-.63,0,.5.54-.08.1-1.09-.18-1.21-.08-2.3-.19-.24-.28.08-.47-.16-.33-1.54.86-1.21.41-2.34-.23-.29-.66-.4-.43-1.21l.38.28c0-1.05-.55-.6-.29-1.7.15.19.13.82.17.66.3-.71-.22-.5-.22-1.05l.34-.11c0-1.12-.3-2.35-.36-3.58.1.06.21.28.31,0a20.56,20.56,0,0,1,.25-4.84l-.32-.62c0-.14.12-.27.18-.12.08-.65-.18,0-.31-.32s.14-.49.24-.27c-.19-.56-.42-1.34-.73-2.12-.14-.39-.34-.77-.47-1.14s-.31-.71-.46-1l.23.16c-.54-.92-1.13-.53-1.64-1.29l.17.06a5.38,5.38,0,0,0-3-1.3,2.94,2.94,0,0,0-.44,0h-.33l-.65,0A5.7,5.7,0,0,1,37.44,27c-.26.42-1.82-.19-1.94.4a8.44,8.44,0,0,0-2.23-.6c-.4,0-.59.37-1.08.43v-.31l-.67.33-.35-.37-.46.08c.18,0,.39.14.36.23a2.41,2.41,0,0,1-1.76-.38l-.85.13a3.27,3.27,0,0,0-.65.13c.05-.12,0-.16.35-.24l-.25.07s0,0,0,0,0-.05,0-.09,0-.17-.07,0a1,1,0,0,1-.14.25c0-.08-.05-.13-.11-.15a.33.33,0,0,0,0-.28l.22,0s0,0,0-.06V26l0-1-.07-1.39c-.1,0-.47,0-.51-.28a2.26,2.26,0,0,1,.33.13c-.2-.24-.12.11-.37-.3.27-.08.43.25.48.33a.33.33,0,0,1,.07-.13c.07.08.06.13.15.23s0,0,0,0l.05,0s0,0,0,0l.12,0c.34-.07.7-.15.81-.42l.08.07a9.42,9.42,0,0,0,2.92-2.28c-.19-.22.21-.55.26-1a7.54,7.54,0,0,0,1.78-2.53c.16-.79-.13-.3-.17-.69.26,0,.57-1,.57-.43A9,9,0,0,0,34.5,13c-.1.18-.18.37-.25.26,0-.29.13-.66.26-.62l0,.08a30.31,30.31,0,0,1-.09-3.08,4.17,4.17,0,0,0-.87-2.69l.06.07a11.14,11.14,0,0,0-1-1.24c-.35-.64.39.26.24-.28a16.9,16.9,0,0,1-1.49-1.59,4.32,4.32,0,0,0-1.49-1.23,1.74,1.74,0,0,0-.72-.88,5.27,5.27,0,0,0-1.29-.69c-.47-.22-1-.33-1.45-.51A5.92,5.92,0,0,1,25.16.07l.06.19c-.42.11-.45-.18-.73-.26,0,.14.39.22.14.28a17.44,17.44,0,0,0-4.93.2,11.9,11.9,0,0,0-4.7,2c-1,.82.07,1.1-1.25,1.92l0-.54A24.53,24.53,0,0,0,11.87,7.1,8.26,8.26,0,0,0,11,10.67c0-.15-.15-.17-.11-.4-.36.47-.16,1.89,0,1.88,0,.37-.17.09-.26.32-.15.51.38,1.22.17,1.51,0,0-.09-.13-.12-.22.12.31.2,1.52.41,1.16a18.56,18.56,0,0,0,.62,2.33c.43.31.5,1.47,1,1.39-.21.08-.09.47.16.88a3,3,0,0,0,.95.94c-.23-.05.23.48-.06.43.46.5,1,.84,1.05.58a2,2,0,0,0,.61.7,5.69,5.69,0,0,0,.79.38c.52.19,1,.34,1.15.78.65.19.52.07.73.08s.12,0,.14.08,0,.12.07.19a2.83,2.83,0,0,1,.06.46l.05.6.09,1.18c-.45-.05,0-1.72-.52-1.66.1.74.24,1.33.35,1.91a4.89,4.89,0,0,0,.12.57,1.69,1.69,0,0,1,0,.45h0c-.1,0-.11-.07-.12-.12a1.63,1.63,0,0,0-.15-.25,1,1,0,0,1,0,.14.79.79,0,0,1-.28,0h-.55a10.34,10.34,0,0,0-1.85.13s.15-.09.28-.12c-.26,0-.6-.07-.57.14l.25-.06c.42.3-1,.62-1.07.78.44-.59-1.3-.15-.6-.89-.18,0-.39.13-.35.27-.25,0-.33-.12-.08-.28-.93.12-.6.33-1.44.33,0-.1.18-.14.26-.25a2.66,2.66,0,0,1-1.56.3c0-.06,0-.14.17-.14-1.22,0-2.08.52-3.42.33.39-.43-.44-.15-.54-.51l-.78.16.32.16c-.68,0-1.23.4-1.83.39l.47-.25a6.43,6.43,0,0,0-1.24.41l.74-.09c-.6.4.2.43-.66.6.14-.12-.59.26-1,.25h0a3.62,3.62,0,0,1-.82.86c-.18,0-.22-.37-.34-.36a3.88,3.88,0,0,1-.49.94,1.52,1.52,0,0,0-.28,1c0-.16-.2-.24-.26-.21l.15.36c-.18.27-.23.31-.37.22-.25.94.51-.19.11.87,0-.09-.06,0-.07-.24a4.14,4.14,0,0,0,0,1.64,3.07,3.07,0,0,1,.08.7,4.41,4.41,0,0,1,0,.73c-.38.28-.09-.84-.41-.52a38.56,38.56,0,0,1,.36,4.22l0-.25c.53.19-.26,1,0,1.68,0-.16-.29-.22-.23-.17a17.29,17.29,0,0,0,.29,3.28l-.13-.18c-.12.55-.07,1.43-.14,2,.14.17.12.51.32.3-.78,1.81.41,3.45-.23,5,0-.19-.12-.45-.12-.3l.12,1.36c.23-.1.14-.17.32-.46a1.63,1.63,0,0,1,.25.9c-.16-.62-.38,0-.5.27.07-.05.14,0,.22,0-.42.71.46.12.18,1.09l-.12-.05a4,4,0,0,1,.19,1.1c-.27.16-.12-.39-.34-.42,0,.55.5,1.09.24,1.59-.08-.23-.08-.57-.15-.8a1.66,1.66,0,0,0-.29,1v0l-.14.93.08-.24C1,57.3.45,58,.91,59c-.44-.9-.25-.15-.56-.22-.08.24-.18.6-.26.5.24.44-.19.73.16,1.35-.09,0,0,.47-.25.38.08.57.17-.14.29-.09.34.88-.4,2.07.06,3.34C.53,65.3.86,65.5,1,66.52c-.16.34-.36-.28-.36-.28a2.89,2.89,0,0,0,0,1.49c-.09-.11-.16,0-.27.16,0,.42.35.28.21.83a1.61,1.61,0,0,1-.39-.42c.09.49.27,1,.36,1.49-.17.14-.26-.31-.37-.49.08.58.15,1.49.42,1.66l.1-.36c0,.21-.23.1-.28,0-.21-.49.09-.71.19-.74l.06.37C1.27,69.8.61,68.72.64,68l.42.3-.35-.75c.11-.16.34-.27.41.1.2-.53-.15-.47.08-.92,0,0,.05,0,.07,0l-.12-.51c.08.1.29-.09.23.23.24-.92-.31-1.48,0-1.83l0,.08c-.14-1.28-.31-.13-.67-1.08L1.5,63l-.31-.12c0-.13,0-.39.16-.34-.21-.49-.13.08-.33-.2.28-.64-.13-1.75.36-1.89-.24-.23-.18.6-.35-.07.53-.2-.08-.78.16-1.36.27.18.12.72.36.14-.45-.34.1-1.12,0-1.61-.37,0-.16-1.06-.28-1.88a14.62,14.62,0,0,0,.33-2.3l.07,0c-.37-.14-.3-.93-.38-1.5.22,0,.31.12.41.43v-.53a1.13,1.13,0,0,1-.22-.65l.28.14a8.42,8.42,0,0,1-.14-2.36c-.26-.06-.72.73-.89-.24.14,0,.38-.08.44.18a.84.84,0,0,1-.06-.47l.23.39c.1-.42-.19-.22-.17-.55.2,0,.14-.25.3-.2s-.08.29,0,.42a2.19,2.19,0,0,1,.3-1c-.11,0-.26,0-.29-.28,0-.71.24-.24.34-.66-.13-.17,0-.63-.29-.64,0-.21.14-.25.22-.33-.13-.37,0-1.73-.35-1.31l0,.09v-.06h0c-.3-1.21.16-2.52,0-3.72h.1a12.89,12.89,0,0,0-.28-2.11c0-.22.18-.5.29-.41a2.83,2.83,0,0,1,0-1.41c.17.55.16-.19.13.57a2.63,2.63,0,0,0,0-1.64c.26.26.32-.54.25-.88l-.19.5a5,5,0,0,1,0-.54c0-.19,0-.31,0-.58.12.07.23.18.34.25a2,2,0,0,0,0-.41v-.21c0-.13,0-.28,0-.41l-.11-.82a1.16,1.16,0,0,1,.54-1.3c-.07-.4-.43.5-.56.14.29-.56,1-.69,1.14-.78.61-.31.18-.83,1-1.11-.12,0-.41-.34.22-.66.64-.17.86.25.53.44-.13.06-.21,0-.21,0-.18.11-.39.23-.13.28l0-.14c.3,0,1.1-.16,1,.07.41-.19.16-.22-.19-.22a17,17,0,0,1,2.05-.07c-.15-.06-.28-.2-.13-.2,1.3.15.57-.23,1.45-.28.5.18-.18.43.71.28.54.13.11.32-.1.41a4.44,4.44,0,0,1,2,.2l-.42.09a3.21,3.21,0,0,1,.67,0l-.24-.24c.25,0,.46,0,.46.14.26-.15-.2-.39.31-.61.34.13,1-.12,1.13.19-1.05-.11.12.32-.77.37a1.65,1.65,0,0,1,.63,0s0,.07-.1.09c1,.28.46-.36,1.5-.35-.13.17.24.33.41.3-.42,0-.2-.3.19-.44.66.14.72-.1,1.07-.08l-.4-.07c.14-.18.47-.15.94-.21,0,.14-.43.1-.26.16a1,1,0,0,1,.87,0c.16,0,.32.09.49.12a2.78,2.78,0,0,0,.75,0c.55.12.15.33.68.42a3.88,3.88,0,0,1,1.49,0,4.54,4.54,0,0,0,0-1.53c-.24.33-.18.34-.41-.66l.14,2-.31,0,.25-.08c-.08-.45-.17-.86-.26-1.24a7.92,7.92,0,0,0,.08,1.06,5,5,0,0,1-.64,0c.47-.2.41-.14,0-.34a2.1,2.1,0,0,0,.45.11,3.51,3.51,0,0,0-.08-1,2.24,2.24,0,0,1,0-1l.59.06c0-.24,0-.29.06-.43a2,2,0,0,0,0-.35,4.33,4.33,0,0,0-.1-.71c0-.24-.09-.49-.12-.76s0-.28,0-.43v-.23l0-.38a5.26,5.26,0,0,1-.1.57c-.24-.1,0-1.14-.13-1.68.1,0,.17-.16.23-.33s-.18-.18-.27-.27-.41-.05-.82-.15l-.59-.11a.37.37,0,0,0-.26.12,4,4,0,0,1-.38-.44,2,2,0,0,0-1-.28,1.32,1.32,0,0,1-1-.38c.35,0,.12-.36.69-.11-.24-.18-.43-.37-.52-.27,0-.21-.81-.38-.85-.74-.15,0-.35.07-.56-.22,0-.06.08-.06.08-.06s-.44-.37-.43,0a5.24,5.24,0,0,0-.72-1.75,7.32,7.32,0,0,1-.37-.89,1.75,1.75,0,0,1,0-.81,9.16,9.16,0,0,1-.52-2.11c.06,0,.09,0,.09.11.09-.88-.62-.5-.45-1.53.33-.51.17.53.3.21.64-.13-.08-1.19.43-1.8l0,.16a1.92,1.92,0,0,0,.14-.87,2.37,2.37,0,0,1,.17-1.13.11.11,0,0,0,.09,0,4.43,4.43,0,0,1,.64-2.42c.08.35-.08.38.22.39.16-.32-.43-.14-.05-.78.26-.12.67-.45.94-.31a4.17,4.17,0,0,0-.41.53c.47-.07.54-.66.82-.89l.08.14c.68-.72.44-1,1.36-1.68l-.16,0c.31-.67.55-.09.93-.66l.35.27A6.5,6.5,0,0,1,20.06,2a5.79,5.79,0,0,1-.7.59,6.17,6.17,0,0,0-.74.59C19,3,19.82,2.68,20,2.44c-.14.07-.29.24-.46.23a1.87,1.87,0,0,1,.71-.58,2.76,2.76,0,0,1,1.05-.32c0,.39.5.33,1.1.35a2.07,2.07,0,0,1,1.52.37c1.39-.12,2.59.67,3.89,1.41-.16-.8.4.22.65-.34.34.17.45.29.45.33a6.35,6.35,0,0,1,.64,1c.08.3-.34-.14-.41,0,.54.57.08.4.31.88.09-.23.41,0,.64.36l-.21-.65a1,1,0,0,1,.59.84,1.31,1.31,0,0,0,.49.9L30.58,7c.44.4.94,1.77,1.56,2.17,0,.12-.17.29-.27.07.14.65.43,1.35.58,2.06a3.68,3.68,0,0,1,0,2l-.13-.12c0,.26.24.49,0,.79-.06,0-.13-.12-.16,0a1.75,1.75,0,0,1,0,1l-.1-.32c-.49,1.23-.17,2.09-.64,3.18-.19-.11-.46,0-.7.26s-.52.49-.73.64l0-.06a10.79,10.79,0,0,1-2.9,2.65,9.86,9.86,0,0,0-1.62.26c-.49,0-.31.45-.36.79l0,1.16c0,.48,0,1,0,1.47a10.34,10.34,0,0,1-.11,1.31c0-.12.12-.11.2,0a.5.5,0,0,1,.11.16,1.14,1.14,0,0,1,.07.32,4.19,4.19,0,0,0,.07,1c0,.3,0,.53-.17.64v-.23a3.33,3.33,0,0,0-.28,1.22c.57.05,1.36,0,2,0,.12-.18.22-.35.32-.53a6.61,6.61,0,0,0,.86.21,3.83,3.83,0,0,0,.69.08,10,10,0,0,0,1.44-.06c.94-.08,1.79-.17,2.22.18.38-.13.85-.13,1.23-.26l0,.28a19.22,19.22,0,0,0,2.88,0l-.27.2c.74,0,.93-.82,1.6-.83l.21.42c.32,0,.64,0,1,.05l.48,0a1.16,1.16,0,0,1,.16,0l.16,0a13.44,13.44,0,0,0,1.42.34.25.25,0,0,1-.27.08,5.08,5.08,0,0,1,.77.62c.25.24.49.41.66.17-.28.24.59.85.92,1.43h-.29a1.56,1.56,0,0,1,.87,1.06c0,.19-.2.2-.16-.05-.07.62.35.42.27,1.17-.07-.08-.12-.17-.2-.25a1.08,1.08,0,0,0,.33.9c.14.39-.06,1.25-.31,1.34a.87.87,0,0,1,.29.84c-.1.06-.15-.09-.18-.16-.19,1.11.32,1.65.05,2.41a.22.22,0,0,0-.17.13c0-.88,0-1.59,0-1.52-.25,0-.3.71-.65.14a5.4,5.4,0,0,1,.49,2.24.26.26,0,0,1-.09.09l0-.07a1.07,1.07,0,0,0,0,.44,2.86,2.86,0,0,0-.07.57c-.22.08-.12.82-.13,1.17.28,0,.24.43.47,0,0,.06,0-.07-.05-.3a.54.54,0,0,0,0-.15l0,0,0-.88a1.09,1.09,0,0,1,.11,1c.18.19.36.39.45.5-.39.48-.6,1.42-.84,1.55.15,1.08.1,2.54.63,3.22.07.31-.15.36-.24.47-.05-.17,0-.39-.12-.48.14.61.06,1.82.42,2-.16.77-.34-.44-.27.63l-.12-.15c-.59,2.1.94,3.41.19,5.73,0-.16.06-.24.13-.27-.34,2.64.31,5.45-.22,8.06-.11.75.13.83.31,1.28l-.3.16.35.78c.25,1.1-.75,1.9-.26,3.29l.2-.18c0,.5.12,1.58-.11,1.5,0,0,.21.16.1.36l-.16,0,.27,1.22c-.11.95-.62-.15-.65,1.24.06.52.46,1.47.56,1.28s.1-.53.26-.55l.08.47c.47.09.94.45,1.27-.71l-.29-.81.23-.26v.68c.22-.38,0-.63-.1-.9a.53.53,0,0,0,.25-.34l-.45-.79c.19-.1.36.35.47-.18-.21-.37-.41.36-.55-.26.21-.38.39-.27.2-.72.12-.07.2,0,.25.21-.14-.4-.06-1.07-.3-1.28.26-.4-.07-1.36.37-1.32a2.65,2.65,0,0,1-.37-1.08c.53.68,0-1.39.6-1.21-.47-.5-.21-1.81-.47-2.7,0,0,.11.15.09.23a3.47,3.47,0,0,1,.27-1c-.39-.06-.48-.84-.72-1.26.37-.61.46.37.82.18-.32,0-.32-1.06-.58-.86.23-.46.11-.4.44-.64-.49-.08-.09-.44-.39-.83.24-.67.46-.17.31-.91C46.13,57.11,46.31,57.77,46.31,57.77Zm-.85-17.71h0l0,.37Zm0-1.48c0,.18,0,.4,0,.64-.09.05-.19,0-.19-.15C45.32,39.15,45.37,38.8,45.45,38.58Zm-1.94,3.14c0-.23,0-.31.07-.34a3.58,3.58,0,0,0,0,.41l0,0A.3.3,0,0,1,43.51,41.72Z"/><path class="cls-1" d="M43.87,42.15a.24.24,0,0,1,0,.09A.61.61,0,0,0,44,42.1L43.87,42Z"/><path class="cls-1" d="M1.4,44.22v0l0,.06S1.39,44.23,1.4,44.22Z"/><polygon class="cls-1" points="32.17 26.81 32.18 26.88 32.31 26.82 32.17 26.81"/><path class="cls-1" d="M.44,52.42a.14.14,0,0,0-.08.1S.41,52.47.44,52.42Z"/><path class="cls-1" d="M.37,56l-.1.5A2.88,2.88,0,0,0,.37,56Z"/><path class="cls-1" d="M.23,58.68l.12,0h0Z"/><path class="cls-1" d="M15.82,27l.11,0C16.18,27,16,27,15.82,27Z"/><path class="cls-1" d="M2.88,28.67a2.57,2.57,0,0,1,.33-.33C3,28.44,2.8,28.53,2.88,28.67Z"/><polygon class="cls-1" points="13.76 20.9 13.77 20.89 13.7 20.82 13.76 20.9"/><path class="cls-1" d="M3.82,28.07a1.15,1.15,0,0,0-.61.27A6.65,6.65,0,0,0,3.82,28.07Z"/><path class="cls-1" d="M.11,70.48l0,.13H.14Z"/><path class="cls-1" d="M.14,70.62l0,.15C.17,70.7.17,70.65.14,70.62Z"/><path class="cls-1" d="M.24,71.08l-.07-.31C.17,70.88.16,71,.24,71.08Z"/><path class="cls-1" d="M.24,66.87l-.11,0A.12.12,0,0,0,.24,66.87Z"/><path class="cls-1" d="M.21,65.78a3.36,3.36,0,0,0-.16,1l.08,0C0,66.66.38,66,.21,65.78Z"/><path class="cls-1" d="M1.47,61.21l-.09.92c.11-.16.26-.38.28,0C2,61,1.42,62.41,1.47,61.21Z"/><path class="cls-1" d="M1.62,58.36c0,.5.16,0,.22,0C1.74,58.07,1.72,58,1.62,58.36Z"/><path class="cls-1" d="M1.62,37.8l.26.05C1.84,37.47,1.78,37.85,1.62,37.8Z"/><path class="cls-1" d="M.27,33.94l-.05.22s0,.06-.08.09.16.11.24.16A2.42,2.42,0,0,0,.27,33.94Z"/><path class="cls-1" d="M2.26,31.9V32l.07-.5Z"/><path class="cls-1" d="M13.77,16.17l-.26.2C13.65,16.58,14,16.49,13.77,16.17Z"/><path class="cls-1" d="M17.12,3.84a.73.73,0,0,0,.71-.33C17.56,3.66,17.22,3.7,17.12,3.84Z"/><polygon class="cls-1" points="28.22 29.34 27.92 29.45 28.49 29.36 28.22 29.34"/><polygon class="cls-2" points="65.3 86.39 64.09 84.8 64.89 84.19 64.89 83.18 66.89 83.18 66.89 85.18 65.3 86.39"/><path class="cls-2" d="M47.4,100.06l-1.21-1.59,2.24-1.7,1.21,1.58Zm4.48-3.42-1.22-1.58,2.24-1.71,1.22,1.58Zm4.47-3.41-1.21-1.59,2.24-1.71,1.21,1.59Zm4.48-3.42-1.22-1.59,2.24-1.71,1.22,1.59Z"/><polygon class="cls-2" points="43.33 103.17 41.57 101.68 42.87 100.16 43.4 100.61 43.95 100.18 45.16 101.77 43.33 103.17"/><path class="cls-2" d="M39,99.5l-2.58-2.18,1.29-1.53L40.29,98Zm-5.16-4.36L31.27,93l1.29-1.53,2.58,2.18Zm-5.15-4.36L26.11,88.6l1.3-1.53L30,89.25Z"/><polygon class="cls-2" points="23.54 86.41 22.04 85.14 22.04 83.18 24.04 83.18 24.04 84.22 24.83 84.89 23.54 86.41"/><path class="cls-2" d="M24,80.16H22v-3h2Zm0-6H22v-3h2Zm0-6H22v-3h2Zm0-6H22V59h2Zm0-6H22V53h2Zm0-6H22V47h2Z"/><polygon class="cls-2" points="24.04 43.94 22.04 43.94 22.04 41.44 24.54 41.44 24.54 43.44 24.04 43.44 24.04 43.94"/><path class="cls-2" d="M61.32,43.44H58.26v-2h3.06Zm-6.13,0H52.13v-2h3.06Zm-6.13,0H46v-2h3.06Zm-6.13,0H39.87v-2h3.06Zm-6.13,0H33.73v-2H36.8Zm-6.13,0H27.6v-2h3.07Z"/><polygon class="cls-2" points="66.89 43.94 64.89 43.94 64.89 43.44 64.39 43.44 64.39 41.44 66.89 41.44 66.89 43.94"/><path class="cls-2" d="M66.89,80.16h-2v-3h2Zm0-6h-2v-3h2Zm0-6h-2v-3h2Zm0-6h-2V59h2Zm0-6h-2V53h2Zm0-6h-2V47h2Z"/></g></g></svg>