<svg xmlns="http://www.w3.org/2000/svg" viewBox="0 0 76.83 84.26"><defs><style>.cls-1{fill:none;stroke:#ef7d05;stroke-miterlimit:10;stroke-width:2.5px;stroke-dasharray:4.88 4.88;}.cls-2{fill:#a0c4e8;}</style></defs><title>Element 259</title><g id="Ebene_2" data-name="Ebene 2"><g id="Ebene_2-2" data-name="Ebene 2"><circle class="cls-1" cx="50.2" cy="15.22" r="13.97"/><circle class="cls-1" cx="49.2" cy="56.31" r="13.97"/><path class="cls-1" d="M1.25,35.77a14,14,0,1,0,14-14A14,14,0,0,0,1.25,35.77Z"/><path class="cls-2" d="M48.47,54.7c-.07.06-.13.25,0,.26l.22-.27Z"/><path class="cls-2" d="M48.94,55.58a.81.81,0,0,0,.49-.6c-.25.24-.23.1-.52.39-.12,0-.14-.18-.07-.28-.07.06-.14-.14-.28,0,0,.3.2.38.47.27C49,55.47,49,55.53,48.94,55.58Z"/><path class="cls-2" d="M59.08,60.71l0-.07A.12.12,0,0,0,59.08,60.71Z"/><path class="cls-2" d="M65.42,63.76c-.06,0-.09,0-.1,0S65.42,63.79,65.42,63.76Z"/><path class="cls-2" d="M66.36,64.59l0,0S66.34,64.6,66.36,64.59Z"/><path class="cls-2" d="M59.08,60.71l.13.17C59.26,60.79,59.15,60.77,59.08,60.71Z"/><path class="cls-2" d="M50.69,55.49a.38.38,0,0,0-.13,0h.1Z"/><path class="cls-2" d="M56.14,59.68l0,0-.1.1Z"/><path class="cls-2" d="M54,58.75s.17-.21.24-.32c-.07.1-.13.13-.18.13A.47.47,0,0,0,54,58.75Z"/><path class="cls-2" d="M50.71,56.75h0Z"/><path class="cls-2" d="M57.67,60.44a.2.2,0,0,0,0,.1A.44.44,0,0,0,57.67,60.44Z"/><path class="cls-2" d="M48.13,58.36l0,0S48.12,58.35,48.13,58.36Z"/><polygon class="cls-2" points="48.27 55.28 48.3 55.31 48.44 55.25 48.27 55.28"/><path class="cls-2" d="M68.22,65.82h0C68.15,65.81,68.18,65.82,68.22,65.82Z"/><path class="cls-2" d="M62.35,73.64c.32-.11.15.47.54.27C62.77,73.89,62.61,73.45,62.35,73.64Z"/><path class="cls-2" d="M50.73,55.55l.09,0A.12.12,0,0,0,50.73,55.55Z"/><path class="cls-2" d="M62.89,73.91h0l0,0Z"/><path class="cls-2" d="M71.36,67.05l.2,0Z"/><path class="cls-2" d="M69.63,65.83l.07.07A.15.15,0,0,0,69.63,65.83Z"/><path class="cls-2" d="M72.38,67.32c-.07,0-.15,0-.11,0h.08C72.29,67.34,72.26,67.33,72.38,67.32Z"/><polygon class="cls-2" points="71.44 67.74 71.52 67.77 71.53 67.74 71.44 67.74"/><path class="cls-2" d="M50.8,64a1.14,1.14,0,0,1,.19-.19C50.82,63.88,50.63,63.64,50.8,64Z"/><path class="cls-2" d="M50.63,55.64c0-.06.07-.09.1-.09h-.07S50.62,55.61,50.63,55.64Z"/><path class="cls-2" d="M76.34,67.71l-.44.23A2.3,2.3,0,0,0,76.34,67.71Z"/><path class="cls-2" d="M56.83,77.28l-.06,0A.06.06,0,0,0,56.83,77.28Z"/><path class="cls-2" d="M74.69,68.72a2.21,2.21,0,0,0-.54,0,.36.36,0,0,0,0,.07Z"/><path class="cls-2" d="M51,63.77Z"/><path class="cls-2" d="M49.51,62.1c.12.28.39,0,.61-.05.24.3-.18.27-.3.46.18.17.56.19.62.36s-.06.07-.14.07c.36.1.31.65.76.76l-.07.07a1.85,1.85,0,0,1,.44-.25c.07.12.32.14.12.29,0-.08-.12-.05-.2-.06l.15.09c-.26.26-.19-.13-.42,0,.22.21.62.39.61.63-.29.18-.31-.42-.46,0l0-.36c-.39.46-.05-.2-.48.25.09.44.36.38.45.82.21,0,.24-.14.46-.13.56.43-.58.8,0,1,.26,0,.67-.11.59.28l-.39,0c.14.41.6,0,.55.51-.17,0-.26-.25-.27-.17-.16.38.28.09.37.3l-.29.18c.24.39.67.75.93,1.18-.1,0-.24,0-.28.13a3.6,3.6,0,0,1,.58,1.9l.37.09s-.08.15-.16.12c0,.26.18-.07.33,0s-.08.23-.2.19c.4.28,1,.87.88,1.41l-.11,0c0,.37.7.11.59.52l-.08,0c.2.74.78,1.39.61,2.09.43-.08.13.75.69.56-.09.51-.24.44-.17,1.07,0,.16.44.07.58.22l-.28.13.4.12-.28.28.15.14a.25.25,0,0,1,.15-.23.62.62,0,0,1,0,.81l.52.52c-.12,0-.21,0-.32-.1.44.21-.27.19.13.38,0-.07.18,0,.24-.07a.54.54,0,0,0,0,.41,4.42,4.42,0,0,0,.37.72l-.21,0a11.65,11.65,0,0,0,.63,1.34,13.49,13.49,0,0,0,.68,1.21c-.12-.38.09-.86.2-.73l-.08.55c.15-.18-.06-.37.17-.5.11.28,0,.72-.16.74l.22.12c0,.17-.07.18-.12.35.12-.2.28,1.06.47.67v.18l.3.42c.09.07.17.33.24.08s.26-.51.44-.8a6.1,6.1,0,0,1,.13-1.09c.24-.26.62-.31.9-1.05s-.07-.41-.09-.78c.17.27.43-.39.41.11.16-.42.26-.68.35-1a4.09,4.09,0,0,0,.13-.48l.07-.29,0-.22c-.12,0-.2.07-.26,0s.2-.19.31-.13v0c-.07-.8,1.33-1.21,1.06-1.93v0l0-.65c.15-.23.11.22.34.11-.15-.75.45-.89.39-1.48.85-.07.51-1.33,1.17-1.62l-.17,0c-.12-.18.17-.15.22-.15-.12-.08-.19,0-.25-.08a.4.4,0,0,1,0-.2l.1,0a.73.73,0,0,0,.21,0l.74-.19c.5-.1,1-.19,1.5-.33s-.13-.95.55-.78v.37c.66-.72,1.68-.71,2.36-1.37,0,.09,0,.19-.06.22.26.15.63-.26.56-.44.13,0,.1.15.22.21s.19-.09.26-.19.27-.25.41-.18,0,.11-.1.15c.15-.19,1-.39.59-.52.66-.14.87-.52,1.44-.6-.05-.15.2-.22.42-.3s.33-.16,0-.26c.63.2,1.26-.33,1.12-.49.14.08.43-.1.65,0,.27-.18.35-.34-.09-.32a2.27,2.27,0,0,0,.42-.11c.05,0,.12,0,.12-.06l-.08-.06a3.29,3.29,0,0,0-.52-.21c-.37-.13-.66-.22-.25-.39-.62-.24-1.1-.44-1.66-.62l-1.62-.51c.42-.3,1,.43,1.56.14a12.07,12.07,0,0,1-2.69-.7c-.11-.12.15-.15.25-.19-.64-.08-1-.52-1.64-.51,0,0,.09-.06.15-.07-.1,0-.19-.16-.27,0h.12c0,.34-.64.4-.72.53.4-.46-.42-.35.14-.91a.28.28,0,0,0-.24.19c-.08-.08-.07-.16.09-.26-.39,0-.36.2-.67.05,0-.09.12-.09.2-.18-.24.1-.48.21-.71,0,0-.05,0-.13.12-.09-.46-.18-1,.12-1.4-.28.32-.32-.11-.2,0-.55l-.31,0,0,.21c-.23-.11-.55,0-.7-.16l.24-.06-.47-.13.19.24c-.31.07-.17.44-.44.21.08,0-.23-.11-.26-.37h0c-.16.06-.33.12-.47-.05S65,62.12,65,62c-.24.23-.59-.17-.87.07a.55.55,0,0,0,.17-.27l-.2.18c-.08-.12-.08-.16,0-.3-.3-.18-.09.48-.39.12,0,0,0,0,.12-.05-.35-.27-.82-.19-1.13-.47.05-.39.35.06.36-.28-.54-.17-1.25-.07-1.71-.38l.07.08c-.28.45-.26-.4-.61-.29.07,0,.2-.23.16-.19A3.1,3.1,0,0,0,59.65,60l.12-.1c-.15-.2-.5-.3-.7-.45-.12.09-.23,0-.24.23-.35-1-1.45-.2-1.78-1.05.07,0,.22,0,.16-.06l-.55-.12c-.06.23,0,.16,0,.37a.43.43,0,0,1-.43.07c.29,0,.15-.33.1-.5,0,.08-.08.13-.1.2-.1-.49-.23.41-.48,0l.07-.1c-.16,0-.35.08-.49,0,.05-.27.2-.05.3-.25-.21-.08-.61.28-.69-.05.12,0,.24,0,.36,0-.07-.37-.13-.31-.26-.43v0l-.29-.29.06.12c-.54.52-.58-.12-1.11.14.51-.24.16-.2.31-.47-.05-.11-.15-.26-.08-.32-.26.15-.19-.3-.57-.08,0-.09-.17-.08,0-.29-.24,0,0,.18-.09.28-.46.16-.6-.71-1.26-.51-.48,0-.69.26-1.14.24-.06-.2.25-.28.25-.28a.52.52,0,0,0-.55-.25c.08-.06.07-.15,0-.27s-.25.27-.39,0a1.74,1.74,0,0,1,.31-.29c-.22,0-.47.09-.7.08,0-.18.22-.18.33-.25-.24,0-.61-.11-.79.11l.1.14c-.08,0,.06-.22.13-.24.27-.11.23.2.2.29h-.16c-.1.58.58.16.83.31l-.28.33.42-.19c0,.13,0,.36-.2.35.11.28.23-.05.31.23,0,0,0,.06,0,.06l.24,0c-.07.07-.09.29-.18.18.24.37.68,0,.68.31h0c.53.08.17-.26.67-.43l-.07.8.17-.26a.14.14,0,0,1,.07.2c.26-.11,0-.14.21-.27.12.36.7.18.55.64.18-.17-.15-.26.17-.3-.15.51.32,0,.44.37-.18.21-.32,0-.21.31.32-.36.38.28.6.28.16-.33.45,0,.81.07-.07.1.49.43.72.68l0,0c.21-.31.47-.11.71-.09a.43.43,0,0,1-.32.3l.2.09a.35.35,0,0,1,.33-.1l-.17.23c.28.11.67,0,.94.27.12-.23,0-.77.45-.77,0,.14-.13.36-.25.37,0,0,.16-.06.2,0l-.24.15c.11.16.16-.14.28-.06-.09.17,0,.17-.05.3S57.5,60,57.43,60a.61.61,0,0,1,.24.44c0-.11.11-.25.22-.22.27.1,0,.25.11.42.12-.1.23.11.35-.16.08,0,0,.17,0,.25.19,0,.65.26.63-.1l0,0h0c.57-.07.87.57,1.36.66l0,.09c.32,0,.62.2.9.09a.27.27,0,0,1,0,.34c.24,0,.31-.06.53.22-.27.06,0,.17-.26,0,.23.2.23.37.62.25-.2.19.07.38.23.37l-.11-.25a1.11,1.11,0,0,1,.38.18l-.2.27c.38.62,1.26-.18,1.4.62.23-.15-.23-.28,0-.47.23.15.29.7.37.74.27.32.52-.3.83,0,0-.13.09-.44.4-.42s.1.59-.1.6a.06.06,0,0,1-.05-.1c-.1,0-.23,0-.18.17l.08-.1c.07.17.42.31.26.45.24,0,.16-.14,0-.26.25.3.49.23.78.49,0-.09,0-.23,0-.21.43.35.31-.11.66,0,.11.25-.25.36.14.37.16.21-.08.31-.2.36.39-.07.5.39.65.51h-.2a.49.49,0,0,1,.28.07v-.26c.08.08.16.12.12.21.16-.1.09-.4.36-.51.08.17.43.06.35.36-.35-.27-.09.31-.44.21a.27.27,0,0,1,.23.11s0,0-.07.06c.26.42.32-.25.7-.07-.12.14,0,.35,0,.34-.15-.07,0-.3.25-.36.19.24.31,0,.43.1l-.12-.13c.12-.14.24-.06.43,0,0,.13-.19,0-.16.1.32-.2.3.49.66.41.07.17-.13.31,0,.44a.25.25,0,0,1,.31.15.43.43,0,0,0,.09.13s0,0,.06,0c.11-.21,0-.18.27-.33a1.12,1.12,0,0,1-.42,0,1.26,1.26,0,0,0,.42-.19c-.05,0-.35,0-.41-.07.24-.1.2-.06.2-.27.08.43.47,0,.53.27l-.41.47c0,.13.06.08.21,0s.38,0,.39,0l.07-.09c.34-.1.2.06.42,0-.31.08-.38.13-.56.18.25,0,.08,0,.86,0l-.41.1s.31,0,.7.06l.58,0c.07,0,.19,0,.18,0s0,0-.08,0c-.46,0-.82,0-1.16-.07,0,0-.16,0,.18.06-.3,0,.41.11-.06.11.16,0,.56.08.43.12l-.19,0c.2,0,.1.11.6.13-.74,0-.85,0-1,.13a.65.65,0,0,1-.67.07,1.34,1.34,0,0,1-.4.32s0-.09,0-.08c-.13-.05-.15.12-.15.27s0,.31-.25.3c-.33-.21.14-.25,0-.31-.31-.57-.43.29-.85,0l0-.06c-.29-.12-.39.43-.74.53a.2.2,0,0,0,0-.09,1.84,1.84,0,0,1-.76.91c0-.28.1-.19-.07-.4-.12.09.21.36,0,.55-.14-.09-.4-.11-.53-.35l.26-.13c-.28-.27-.34.16-.51.16l0-.15c-.39.22-.24.59-.69.75l.09.09c-.09.46-.29-.11-.41.26l-.23-.33a5.27,5.27,0,0,1-.66.78A2.48,2.48,0,0,1,66,70c-.16.06-.52.26-.53.47,0-.06.09-.18.18-.15A1,1,0,0,1,65,71c-.12-.5-.6-.21-1.07,0a.86.86,0,0,1-.57.41,5.54,5.54,0,0,1-.15.56,2.3,2.3,0,0,1-.23.4,4.1,4.1,0,0,0-.52.86c.65,0-.06.2.52.4,0,.17-.07.22-.11.22l-.53.31c-.21,0-.06-.2-.2-.24-.18.31-.29,0-.54.19.22,0,.24.24.08.4l.38-.16c.1.59-.65.2-.55.79L61.42,75c0,.28-.38.88,0,1.3-.09,0-.26,0-.26-.11-.31.54-.06,1.47-.53,1.79l-.12-.1c0,.08.05.11.09.15s0,.07,0,0L60.4,78s.18.26.09.24l-.12-.16c-.1,0,0,.1,0,.33a2.33,2.33,0,0,1,.06.78c-.19-.66-.29-.8-.31-.92l0-.13a4.36,4.36,0,0,0,0,.53c0,.24-.09.47-.17.5a3.1,3.1,0,0,0,0-.81.52.52,0,0,1,0-.37c0,.08-.25.27-.3.25s-.34,0,0-.19v0c.15-.14.24-.11.2-.27a3.68,3.68,0,0,0-.15-.35l-.5.18c.44-.9-.95-1.42-.46-2-.19-.09-.27-.26-.45-.35l.26-.11A3.12,3.12,0,0,0,58.07,74h.23c-.11-.28-.9,0-1-.25l.35-.25c-.22-.47-.1-1.1-.66-1.42.06,0,.18,0,.23,0-.09-.23-.13-1-.62-.66.34-.17-.19-.51-.45-.7l.27-.07c-.42-.07-.52,0-.74-.3,0-.09.17-.16.15,0,0-.3-.32-.08-.32-.43l.21,0c-.09-.25-.17-.19-.42-.24s-.14-.5.07-.64c-.15,0-.4,0-.4-.19a.19.19,0,0,1,.19,0c0-.49-.57-.47-.44-.87a.26.26,0,0,0,.13-.12,2.27,2.27,0,0,1,.21.59c.24-.11.16-.39.58-.33-.28-.13-.82-.32-.83-.62l.07-.08,0,0a.2.2,0,0,0-.12-.15.47.47,0,0,0,0-.24c.18-.12,0-.35-.08-.49-.25.13-.29-.06-.43.2,0,0,0,0,.09.09s0,0,.05,0h0l.16.31c-.17,0-.33-.1-.26-.31h-.49c.27-.34.31-.77.51-.92-.32-.34-.52-.9-1.12-.94-.11-.08.08-.19.14-.27s.11.13.19.13c-.23-.17-.35-.65-.71-.56,0-.35.38,0,.15-.34h.12c.19-1-1.42-.87-1.12-2,0,.08,0,.12-.07.16-.14-1.12-1.2-1.9-1.15-3.09,0-.32-.26-.25-.5-.34l.25-.19L50,58.4c-.41-.31.36-1-.31-1.33l-.16.15c0-.2-.37-.54-.14-.6,0,0-.22,0-.16-.09l.14-.07-.45-.35c0-.4.6-.2.39-.73-.14-.17-.66-.36-.73-.24a.27.27,0,0,1-.14.31l-.15-.14c-.44.16-.94.22-1,.78l.39.18-.16.19-.12-.24c-.13.23.08.24.24.29a.4.4,0,0,0-.17.23l.54.11c-.15.11-.39,0-.39.25.25.06.31-.3.54-.12-.13.23-.31.25-.07.35a.21.21,0,0,1-.26,0c.2.09.23.37.49.35-.17.26.29.48-.11.64a.93.93,0,0,1,.51.26c-.6,0,.2.52-.34.69.51,0,.49.59.88.81,0,0-.13,0-.12-.05,0,.2-.06.31-.09.47.37-.14.58.12.87.17-.24.38-.48.05-.78.27.29-.14.47.27.68.08-.14.27,0,.2-.3.42.46-.17.15.13.49.15-.11.35-.39.25-.13.47C49.77,62.27,49.51,62.1,49.51,62.1Zm3.73,6.22h0l-.07-.13Zm.25.55a2.08,2.08,0,0,0-.1-.24c.08-.06.18-.08.2,0S53.53,68.76,53.49,68.87Zm1.25-2c.08.07,0,.12,0,.15a.76.76,0,0,0-.1-.13h0A.36.36,0,0,1,54.74,66.91Z"/><path class="cls-2" d="M54.33,66.9l0,0,0,.08h.1Z"/><path class="cls-2" d="M59,60.63h0s0,0,0,0Z"/><polygon class="cls-2" points="56.43 76.72 56.5 76.69 56.42 76.67 56.43 76.72"/><path class="cls-2" d="M56.37,58.38a.25.25,0,0,0,0-.08A.12.12,0,0,0,56.37,58.38Z"/><path class="cls-2" d="M55.08,57.73l-.14-.17A.52.52,0,0,0,55.08,57.73Z"/><path class="cls-2" d="M54.13,57.15l-.07.1h0Z"/><path class="cls-2" d="M70.33,64.08h0C70.49,64.08,70.42,64.07,70.33,64.08Z"/><path class="cls-2" d="M65.28,62.53a.8.8,0,0,1,.21-.05C65.41,62.42,65.35,62.38,65.28,62.53Z"/><polygon class="cls-2" points="76.39 67.69 76.38 67.69 76.34 67.71 76.39 67.69"/><path class="cls-2" d="M65.71,62.58a.21.21,0,0,0-.22-.1A.3.3,0,0,0,65.71,62.58Z"/><path class="cls-2" d="M49.8,55.07l0,0,0,0Z"/><path class="cls-2" d="M49.73,55.07h-.07S49.71,55.1,49.73,55.07Z"/><path class="cls-2" d="M49.52,55.09h.14A.1.1,0,0,0,49.52,55.09Z"/><path class="cls-2" d="M51.08,55.79l.06-.09A.45.45,0,0,0,51.08,55.79Z"/><path class="cls-2" d="M51.5,55.94c-.08-.06-.15-.31-.31-.31l0,.07C51.27,55.59,51.34,56.06,51.5,55.94Z"/><path class="cls-2" d="M52.68,57.85l-.3-.22c0,.12,0,.29-.14.25C52.54,58.36,52.26,57.61,52.68,57.85Z"/><path class="cls-2" d="M53.68,58.47c-.21,0-.07.15-.1.2C53.73,58.63,53.77,58.62,53.68,58.47Z"/><path class="cls-2" d="M61.31,61.91l-.12.22C61.34,62.16,61.23,62,61.31,61.91Z"/><polygon class="cls-2" points="63.31 61.36 63.24 61.15 63.08 61.34 63.31 61.36"/><polygon class="cls-2" points="63.42 63.41 63.35 63.42 63.62 63.44 63.42 63.41"/><path class="cls-2" d="M71.32,67.52l.39.17S71.26,67.44,71.32,67.52Z"/><path class="cls-2" d="M66.69,69.86c-.13-.12-.32-.15-.36,0C66.46,69.86,66.64,69.92,66.69,69.86Z"/><polygon class="cls-2" points="59.4 77.16 59.54 77.22 59.37 77.05 59.4 77.16"/></g></g></svg>