<svg xmlns="http://www.w3.org/2000/svg" viewBox="0 0 76.82 83.48"><defs><style>.cls-1{fill:#a0c4e8;}.cls-2,.cls-3,.cls-4{fill:none;stroke:#ef7d00;stroke-miterlimit:10;stroke-width:2.5px;}.cls-2{stroke-dasharray:4.63 4.63;}.cls-3{stroke-dasharray:4.63 4.63;}.cls-4{stroke-dasharray:4.63 4.63;}</style></defs><title>Element 192</title><g id="Ebene_2" data-name="Ebene 2"><g id="Ebene_2-2" data-name="Ebene 2"><path class="cls-1" d="M34.69,77.08c.1,0,.27-.08.2-.18l-.34,0Z"/><path class="cls-1" d="M35,76.13a.79.79,0,0,0-.77.05c.34,0,.23.1.64.11.07.1,0,.23-.16.25.1,0,0,.2.22.19.18-.23.13-.42-.14-.54C34.84,76.13,34.94,76.14,35,76.13Z"/><path class="cls-1" d="M31.58,65.1v.09A.1.1,0,0,0,31.58,65.1Z"/><path class="cls-1" d="M29.34,58.32a.07.07,0,0,0,.09,0S29.36,58.3,29.34,58.32Z"/><path class="cls-1" d="M29.27,57.05v.07S29.3,57.06,29.27,57.05Z"/><path class="cls-1" d="M31.58,65.1l0-.21C31.51,64.91,31.58,65,31.58,65.1Z"/><path class="cls-1" d="M33.71,74.9a.35.35,0,0,0,.12.07l-.07-.08Z"/><path class="cls-1" d="M32.9,68l0,.06h.15Z"/><path class="cls-1" d="M33.77,70.23s-.28,0-.4,0c.12,0,.18,0,.22,0A.75.75,0,0,0,33.77,70.23Z"/><path class="cls-1" d="M34.6,74l.06.06Z"/><path class="cls-1" d="M32.37,66.33l.09-.06A.24.24,0,0,0,32.37,66.33Z"/><path class="cls-1" d="M7.51,3.44l0,0S7.5,3.42,7.51,3.44Z"/><path class="cls-1" d="M7.87.33l0,0,.15,0Z"/><path class="cls-1" d="M28.85,54.83h0S28.88,54.85,28.85,54.83Z"/><path class="cls-1" d="M21.72,35.62c-.16.3-.43-.25-.57.17C21.24,35.72,21.67,35.94,21.72,35.62Z"/><path class="cls-1" d="M33.73,74.83a.36.36,0,0,1,0-.09A.19.19,0,0,0,33.73,74.83Z"/><path class="cls-1" d="M21.15,35.79h0v.05Z"/><path class="cls-1" d="M27,50l-.1.09A.19.19,0,0,0,27,50Z"/><path class="cls-1" d="M27.87,53.78v-.1A.19.19,0,0,0,27.87,53.78Z"/><path class="cls-1" d="M25.91,48.31c0-.06,0-.09,0-.14l0,0S25.93,48.24,25.91,48.31Z"/><path class="cls-1" d="M25.2,46.36l0,0,0,.06Z"/><path class="cls-1" d="M9.77,9.31a.82.82,0,0,1,.2-.17C9.79,9.23,9.62,9,9.77,9.31Z"/><path class="cls-1" d="M33.86,74.85c-.07,0-.11,0-.13,0l0,.06A.23.23,0,0,0,33.86,74.85Z"/><path class="cls-1" d="M23.79,49l-.07-.33A1,1,0,0,0,23.79,49Z"/><path class="cls-1" d="M14.83,23.28l-.06-.06A.07.07,0,0,0,14.83,23.28Z"/><path class="cls-1" d="M23.35,47.75a.67.67,0,0,0,.12-.24h-.08Z"/><path class="cls-1" d="M10,9.14Z"/><path class="cls-1" d="M8.61,7.32c.1.3.39,0,.61,0,.23.32-.19.25-.33.44.17.18.55.24.6.41s-.06.07-.15.06c.36.13.26.68.71.83L10,9.14a1.77,1.77,0,0,1,.47-.22c.05.13.3.17.09.3,0-.08-.11-.06-.2-.07l.15.1c-.28.25-.18-.14-.42-.06.2.23.59.45.57.69-.31.16-.28-.44-.47-.07V9.45c-.42.43,0-.21-.5.21.06.46.34.42.4.87.21,0,.25-.13.46-.1.53.49-.64.76,0,1.05.25,0,.67-.06.57.33l-.4,0c.11.42.6,0,.51.56-.16,0-.23-.28-.25-.2-.19.38.27.12.35.33l-.3.16c.2.42.61.82.84,1.28-.11,0-.24,0-.29.1A3.78,3.78,0,0,1,12,16l.36.12c0,.06-.09.14-.16.11,0,.26.18-.05.32,0s-.09.22-.21.17c.38.32.92,1,.78,1.5l-.11-.05c0,.37.7.16.55.56l-.07,0c.14.76.68,1.46.46,2.16.43,0,.07.77.64.62-.12.51-.26.43-.24,1.07,0,.16.43.11.55.27l-.28.11.39.15-.29.27.13.15a.26.26,0,0,1,.17-.22.63.63,0,0,1-.11.81l.49.57c-.13,0-.21-.06-.31-.13.42.25-.28.18.1.4.05-.06.18,0,.25,0a.93.93,0,0,0,.18.84l-.22,0c.13.5.47,1,.66,1.54,0-.23.39-.31.48-.16l-.28.18c.22,0,.05-.21.36-.08,0,.22-.3.26-.44.18l.19.21c-.08.05-.15,0-.27,0,.22,0-.16.55.23.57l-.09.05c.2.55.39.76.57,1.2.27-.08.27.11.53.17a4.12,4.12,0,0,0,.12,1.19c.24.23.26,0,.46.07-.23.1-.07.49-.32.35a4.24,4.24,0,0,0,.68,1.12c.08-.1.09-.19.19-.18s0,.28-.13.31l0,0c.6.54-.14,1.81.55,2.16l0,0,.46.47c.05.27-.24-.09-.32.15.62.46.29,1,.73,1.37-.57.64.54,1.34.27,2l.16-.09c.21.08,0,.2,0,.31.12-.06.1-.2.22-.15a12.5,12.5,0,0,1,.86,3.64c.11.44,1-.07.75.61l-.37,0c.68.72.62,1.76,1.24,2.48-.09,0-.19,0-.21-.07-.17.26.22.66.41.59,0,.14-.16.1-.22.21s.44.34.25.52c0,0-.09,0-.12-.05.15.07.17.55.39.34,0,.36.33.56.27.87.35.06.05.59.48.49-.43.13-.14.68.13.8-.15,0-.07.23-.28.21.09.23.24.41.45.29-.36.6.71.69.14,1.16a12.94,12.94,0,0,1,1.17,1.74c-.43.13-.28-.66-.72-.47.38.51.87.71,1,1.32,0,.17-.21,0-.3,0,.38.51.36,1.12.77,1.55,0,0-.1,0-.15-.07s0,.26.21.18l-.09-.08c.22-.26.73.19.89.16-.62,0,0,.55-.76.53a.29.29,0,0,0,.31,0c0,.11-.07.17-.25.13.23.32.39.12.51.45-.1,0-.16,0-.28,0,.24.1.48.2.5.51-.06,0-.12.06-.15,0,.2.46.78.63.79,1.22-.46,0-.07.22-.41.38l.2.24.13-.18c.09.25.42.38.38.63l-.21-.13.23.44,0-.31c.27.18.44-.19.46.17-.06,0,.08.25-.08.45h0c.15.08.32.17.3.38s-.41.1-.47.16c.34,0,.29.54.66.58a.53.53,0,0,0-.31.07l.27,0c0,.14-.07.17-.22.2.08.36.41-.27.36.21,0,0-.06,0-.12,0,.05.44.44.73.45,1.15-.31.24-.2-.3-.45-.06.25.51.82,1,.93,1.52v-.11c.53-.11-.11.47.22.65-.06,0-.3,0-.24,0,.05.38.39.68.74,1.17l-.16,0a4.86,4.86,0,0,0,.16.83c.15,0,.18.16.34,0-.48,1,.87,1.2.49,2,0-.07-.18-.13-.16-.08l.31.49c.2-.12.11-.11.24-.29a.47.47,0,0,1,.35.27c-.23-.19-.35.13-.43.28.06,0,.15,0,.21-.07-.29.42.46-.11.33.36l-.12,0c.11.12.31.2.33.36-.23.16-.17-.1-.38,0,.09.21.63.25.45.54-.11-.07-.16-.2-.26-.27-.22.32-.13.32-.12.49h0v.41l0-.12c.75,0,.32.5.88.71-.54-.21-.26,0-.55.1,0,.12-.09.29-.18.28.29.09-.08.35.34.47-.09,0,.06.19-.18.23.15.2.14-.11.26-.13.43.23-.09.94.52,1.28.33.36.66.33,1,.67-.1.19-.37,0-.37,0a.53.53,0,0,0,.2.58c-.1,0-.15.06-.23.16.08.15.37,0,.32.25a1.59,1.59,0,0,1-.43,0c.15.16.39.29.55.46-.15.11-.29,0-.42-.07.15.2.35.53.63.5l0-.17c0,.07-.2.12-.27.07-.27-.11,0-.3.08-.35l.11.12c.48-.33-.29-.53-.37-.83l.44,0-.43-.17c.08-.1.28-.22.39-.1.12-.28-.2-.14,0-.39,0,0,0,0,.07,0l-.19-.15c.1,0,.27-.13.25,0,.1-.44-.5-.47-.25-.71l0,0c-.31-.45-.31,0-.78-.2l.62-.5-.31,0s0-.16.1-.19c-.26-.11-.11.08-.34,0,.18-.34-.36-.64.08-.86-.25,0-.09.3-.33.09.46-.25-.2-.27-.05-.58.28,0,.22.24.36-.07-.47,0-.06-.47-.21-.63-.35.12-.29-.36-.52-.64.12,0,0-.66,0-1l.06,0c-.37.07-.41-.26-.56-.45a.42.42,0,0,1,.44,0L32.92,68a.35.35,0,0,1-.3-.18l.28,0c-.11-.27-.5-.45-.46-.87-.25.07-.57.53-.87.21.13-.06.35-.16.44-.08s-.15-.07-.12-.16l.27.07c0-.2-.21,0-.24-.15.19-.07.1-.15.25-.18s0,.14.06.16a.59.59,0,0,1,.14-.48c-.1,0-.25.09-.31,0-.11-.28.19-.18.23-.37-.16,0-.09-.25-.37-.16,0-.08.1-.14.17-.2-.18-.1-.28-.66-.52-.39v0l0,0h0c-.44-.37-.19-1-.48-1.46l.09,0c-.2-.24-.28-.6-.55-.73,0-.08.1-.26.22-.26-.15-.19-.26-.17-.22-.54.24.16.12-.12.2.18,0-.31.11-.42-.26-.63.28,0,.23-.32.11-.42l-.1.25a1.05,1.05,0,0,1-.14-.41l.34,0c.17-.71-1-.79-.54-1.46-.27-.07,0,.37-.34.33-.06-.28.3-.72.27-.8,0-.42-.58-.17-.6-.58a.4.4,0,0,1-.58,0c-.05-.27.35-.49.5-.35s0,.1,0,.11.16.16.24,0h-.12c.07-.17-.07-.52.14-.5-.18-.16-.21,0-.22.14,0-.39-.18-.52-.2-.91,0,.08-.15.18-.17.12-.05-.55-.29-.14-.47-.47.1-.26.43-.08.17-.37,0-.25.28-.15.4-.1-.33-.24-.07-.64-.1-.83l.15.13a.5.5,0,0,1-.14-.24l-.19.17c0-.11,0-.19.07-.23-.19,0-.35.21-.62.09.07-.17-.26-.35,0-.5,0,.44.28-.16.45.17a.27.27,0,0,1-.08-.25s.06,0,.09,0c.13-.49-.4-.06-.54-.47.19,0,.29-.21.23-.26.05.16-.25.18-.44.07,0-.3-.19-.24-.23-.39V54c-.19,0-.21-.13-.33-.29.12-.06.15.13.18,0-.36-.1.14-.57-.16-.78.07-.17.31-.12.35-.26-.33-.24.1-.43-.19-.69-.19.17-.13.17-.44,0l.36.48-.45-.23c0,.17.26.3.26.41-.24-.1-.18-.1-.34,0,.26-.34-.36-.37-.22-.71l.56-.2c.1-.47-.54-.58-.58-1.14l0,.2c-.24,0-.14-.3-.29-.44.19-.05.22-.17.31-.29-.13.06-.12-.37-.5-.28l.16-.32c-.05-.44-.7-.27-.78-.69.25,0,.32-.18.56,0-.05-.13-.06-.26-.19-.21.09-.12-.38-.28-.25-.46-.1,0-.3,0-.34-.13a.19.19,0,0,1,.1,0c-.1,0-.21-.19-.37,0,.43-.61-.45-1.12-.08-1.65a5.73,5.73,0,0,1-.45-.84c.06,0,.09,0,.09,0,0-.42-.61,0-.57-.51.23-.32.24.16.31,0,.59-.28-.26-.46,0-.87l.06.06c.13-.29-.42-.43-.5-.79a.15.15,0,0,0,.09,0c-.39-.12-.65-.53-.86-.83.28,0,.18.11.4,0-.09-.14-.37.18-.55-.09.1-.14.14-.4.39-.52l.11.27c.28-.26-.14-.35-.13-.52l.15,0c-.2-.41-.57-.28-.71-.75l-.1.08c-.45-.11.13-.28-.23-.43l.35-.21a4.47,4.47,0,0,1-.75-.72,2.54,2.54,0,0,1,.84.52c-.05-.17-.22-.55-.44-.57.06.06.18.11.15.19a1,1,0,0,1-.71-.63c.74-.21-.13-.92.35-1.36-.48-.48-.3-1.18-.59-1.84-.47.44-.08-.19-.64.06-.1-.15-.11-.21-.08-.24l.18-.59c.12-.18.18.1.3,0-.08-.36.19-.23.26-.52-.19.12-.33,0-.33-.23l-.16.37c-.48-.37.33-.59-.15-1l.24.08c-.2-.21-.32-.91-.87-1,.05-.07.18-.18.26-.09-.14-.61-1-1.14-.84-1.7h.15c-.08-.09-.33-.09-.24-.28.06,0,.16,0,.15-.06s-.35-.21-.32-.38l.2.06c0-.64-.71-.74-1-1.19.42-.15.39-.66.37-.91h.07c-.19-.69-.76-1-1.14-1.58.31-.55-.29-1.38-.26-2.09,0,.12-.33.1-.41,0s-.43-.3,0-.41v.05c.33-.24.12-.51.05-.74l-.51.14c.5-.88-.84-1.51-.32-2.08-.17-.1-.24-.28-.41-.39l.26-.08a3,3,0,0,0-.36-1.14l.23,0c-.09-.29-.9-.09-1-.35l.37-.22c-.19-.49,0-1.12-.56-1.49.06,0,.18,0,.23,0-.07-.24-.06-1-.57-.72.35-.14-.15-.53-.41-.74l.28-.05c-.41-.11-.51-.08-.72-.37,0-.08.19-.14.16,0,0-.3-.32-.11-.29-.46l.21.05c-.07-.27-.16-.21-.4-.29s-.11-.51.11-.63c-.16,0-.4-.05-.39-.23a.2.2,0,0,1,.2,0c0-.5-.54-.53-.38-.92.08,0,.12-.07.13-.11a2.7,2.7,0,0,1,.18.61c.24-.09.18-.38.59-.28-.26-.16-.79-.39-.77-.7l.07-.07,0,0c0-.07,0-.12-.1-.16a.7.7,0,0,0,0-.25c.19-.1,0-.35-.05-.49-.26.1-.28-.09-.44.16,0,0,0,0,.09.1a.1.1,0,0,0,0,.05h0c0,.08.09.2.14.33-.17-.06-.33-.13-.24-.34a4.35,4.35,0,0,1-.49,0c.3-.32.37-.75.58-.88-.3-.37-.46-1-1-1-.11-.09.09-.18.15-.26s.1.14.19.15c-.22-.19-.31-.69-.68-.62,0-.36.38.05.18-.34l.12,0c.27-1-1.36-1-1-2.17,0,.08,0,.12-.08.15-.06-1.14-1.06-2-.93-3.21C10,4,9.79,4.09,9.56,4l.26-.17-.43-.18c-.4-.34.43-1-.22-1.37L9,2.4c0-.21-.33-.58-.1-.62,0,0-.22,0-.15-.11l.15-.06-.43-.38c0-.41.61-.16.45-.71C8.79.34,8.28.11,8.21.22A.28.28,0,0,1,8,.52L7.9.36c-.45.13-1,.15-1.1.71l.39.21L7,1.46,6.9,1.2c-.15.22.07.26.23.32a.37.37,0,0,0-.19.21l.53.16c-.16.1-.39,0-.41.23.24.07.33-.28.55-.09-.15.23-.33.24-.09.36a.24.24,0,0,1-.27,0c.19.11.21.39.47.39-.19.24.26.51-.16.64a.86.86,0,0,1,.49.3c-.59-.09.16.55-.39.67.51,0,.45.63.82.89,0,0-.13,0-.12-.06,0,.21-.08.31-.12.47.38-.11.57.16.86.25-.27.36-.48,0-.8.2.3-.12.45.31.67.14-.16.26-.05.2-.32.4.47-.13.13.14.47.19-.13.35-.41.22-.16.46C8.87,7.52,8.61,7.32,8.61,7.32Zm3.28,6.6h0a1.14,1.14,0,0,1-.06-.14A.57.57,0,0,0,11.89,13.92Zm.21.58L12,14.25c.08-.06.19-.07.2,0S12.15,14.39,12.1,14.5Zm1.39-1.88c.07.08,0,.13,0,.16l-.09-.15h0A.34.34,0,0,1,13.49,12.62Z"/><path class="cls-1" d="M13.09,12.58l0,0,0,.07h.1Z"/><path class="cls-1" d="M31.57,65.2h0s0,0,0,0Z"/><polygon class="cls-1" points="14.47 22.68 14.54 22.65 14.46 22.62 14.47 22.68"/><path class="cls-1" d="M31.81,68.72a.1.1,0,0,0,0,.06Z"/><path class="cls-1" d="M32.25,70.11l0,.23A.72.72,0,0,0,32.25,70.11Z"/><path class="cls-1" d="M32.5,71.22l.12,0h0Z"/><path class="cls-1" d="M26.13,54.49l0,0C26,54.38,26.06,54.44,26.13,54.49Z"/><path class="cls-1" d="M28.55,59.28a.78.78,0,0,1-.18-.11C28.38,59.26,28.4,59.33,28.55,59.28Z"/><path class="cls-1" d="M23.8,49h0s0,0,0,0Z"/><path class="cls-1" d="M28.29,58.93a.23.23,0,0,0,.08.24A.41.41,0,0,0,28.29,58.93Z"/><path class="cls-1" d="M34,75.85v.06h0Z"/><path class="cls-1" d="M34.08,75.9l.05,0S34.11,75.9,34.08,75.9Z"/><path class="cls-1" d="M34.24,76l-.11-.1S34.15,76,34.24,76Z"/><path class="cls-1" d="M33.64,74.41l-.1,0Z"/><path class="cls-1" d="M33.46,74c0,.11-.11.33,0,.45h.08C33.38,74.41,33.66,74,33.46,74Z"/><path class="cls-1" d="M34,71.79l.05.38c.08-.1.19-.23.27-.08C34.48,71.53,34.14,72.27,34,71.79Z"/><path class="cls-1" d="M33.76,70.63c.12.17.15-.06.21-.07C33.83,70.47,33.8,70.45,33.76,70.63Z"/><path class="cls-1" d="M30.88,62.63l.25-.07C31,62.42,31,62.59,30.88,62.63Z"/><polygon class="cls-1" points="29.09 61.55 28.99 61.74 29.24 61.73 29.09 61.55"/><polygon class="cls-1" points="30.48 60.02 30.54 60.08 30.36 59.86 30.48 60.02"/><path class="cls-1" d="M25.56,46.62l-.28.15C25.37,46.85,25.71,46.75,25.56,46.62Z"/><path class="cls-1" d="M23.17,40.93c.13-.12.17-.31,0-.36C23.18,40.71,23.11,40.88,23.17,40.93Z"/><polygon class="cls-1" points="17.4 23.36 17.54 23.44 17.38 23.25 17.4 23.36"/><path class="cls-1" d="M34.64,76.44c0-.07.08-.27,0-.24l-.12.31Z"/><path class="cls-1" d="M34.47,75.76a1.48,1.48,0,0,0-.29.69c.14-.29.12-.16.28-.5.06,0,.06.12,0,.24,0-.08.06.09.14-.1s-.07-.3-.22-.12A.65.65,0,0,1,34.47,75.76Z"/><path class="cls-1" d="M29.7,73.87l0,0A.08.08,0,0,0,29.7,73.87Z"/><path class="cls-1" d="M26.71,72.84s0,0,.05-.06S26.71,72.81,26.71,72.84Z"/><path class="cls-1" d="M26.29,72.34s0,0,0,0S26.3,72.32,26.29,72.34Z"/><path class="cls-1" d="M29.7,73.87l-.05-.12C29.61,73.85,29.67,73.84,29.7,73.87Z"/><path class="cls-1" d="M33.57,76.33a.15.15,0,0,0,.07-.07l0,0Z"/><path class="cls-1" d="M31.11,74h0a1.33,1.33,0,0,1,.06-.12Z"/><path class="cls-1" d="M32.16,74.24s-.11.25-.15.36a.41.41,0,0,1,.1-.17A1.67,1.67,0,0,0,32.16,74.24Z"/><path class="cls-1" d="M33.65,75.17l0,0Z"/><path class="cls-1" d="M30.39,73.73a.58.58,0,0,0,0-.1S30.4,73.7,30.39,73.73Z"/><path class="cls-1" d="M1.05,67.63s0,0,0,0S1,67.62,1.05,67.63Z"/><path class="cls-1" d="M.23,66h0s0-.1,0-.15Z"/><path class="cls-1" d="M25.44,71.73h0S25.46,71.71,25.44,71.73Z"/><path class="cls-1" d="M16.66,69.46c0,.27-.25.27-.18.58C16.5,69.93,16.74,69.65,16.66,69.46Z"/><path class="cls-1" d="M33.56,76.29h-.05S33.54,76.3,33.56,76.29Z"/><path class="cls-1" d="M16.48,70h0v0Z"/><path class="cls-1" d="M23.2,71.27a.62.62,0,0,0,0,.13A.45.45,0,0,0,23.2,71.27Z"/><path class="cls-1" d="M24.72,72.12l0-.05A.11.11,0,0,0,24.72,72.12Z"/><path class="cls-1" d="M22.25,71.41s0-.06-.06,0v0S22.23,71.36,22.25,71.41Z"/><path class="cls-1" d="M21.37,71.17s0,0,0,0h0Z"/><path class="cls-1" d="M3.76,68.26l0-.26C3.75,68.2,3.6,68.23,3.76,68.26Z"/><path class="cls-1" d="M33.62,76.18a.41.41,0,0,1-.06.11h0A.38.38,0,0,0,33.62,76.18Z"/><path class="cls-1" d="M21.61,73.54l-.13-.08A.41.41,0,0,0,21.61,73.54Z"/><path class="cls-1" d="M10.1,70l0,0S10.08,70,10.1,70Z"/><path class="cls-1" d="M21.05,73.38a.91.91,0,0,0,0-.21.16.16,0,0,0,0,.07Z"/><path class="cls-1" d="M3.79,68Z"/><path class="cls-1" d="M2.69,68.38c.13,0,.16-.33.25-.53.18,0,0,.29,0,.48.12-.06.29-.37.36-.33a.31.31,0,0,1,0,.15c.19-.25.32.07.54-.25a.31.31,0,0,1,0,.1,3.69,3.69,0,0,1,.12-.5c.06,0,.18-.19.13,0,0,0-.06.08-.1.14L4,67.61c0,.35-.12.09-.19.34.16-.08.38-.31.44-.19-.07.33-.25,0-.2.37L4,68c0,.54-.08-.06-.13.52.16.15.26-.11.42,0,.09-.17.06-.27.15-.44.37-.25,0,.88.31.5.11-.2.25-.61.33-.35l-.16.35c.18.09.26-.5.38-.19-.07.13-.18.08-.16.13,0,.33.15-.19.24-.16l-.07.33c.21,0,.49-.17.73-.17,0,.1-.11.19-.08.31.32-.09.57.2.78.47l.18-.25s0,.14,0,.18,0-.17.13-.27,0,.18,0,.26c.25-.19.66-.37.77,0l-.06.07c.11.16.33-.53.39-.23l0,0c.29.22.72.06.85.56.16-.4.27.27.45-.29.11.33,0,.42.23.68.06,0,.21-.33.31-.36l-.08.3.2-.28,0,.37.11,0a.32.32,0,0,1,0-.24c.17-.1.25.29.21.45l.37-.17c0,.12-.1.14-.16.21.24-.26-.06.32.16.08a.92.92,0,0,1,.09-.23.24.24,0,0,0,.33.21l-.08.2c.2.11.49,0,.74.1a.54.54,0,0,1,.14-.48l-.06.32c.1-.18,0-.14.12-.35.08.07,0,.38-.12.46l.14-.07a2.16,2.16,0,0,1-.1.25c.1-.18.11.37.27,0l0,.1c.25.07.39,0,.6,0,.08-.27.14-.19.26-.39.13.13.23.39.42.41s.1-.22.2-.36c-.06.25.13.28,0,.43a1,1,0,0,0,.62-.1c0-.11,0-.16,0-.24s.08.14,0,.25l0,0c.41-.28.5.92.89.48l0,0,.33-.2c.1.08-.12.17-.08.34.39-.33.41.18.71,0,0,.78.63.13.74.66l0-.18c.11-.15.05.12.08.17,0-.13,0-.17,0-.25.57-.06,1,.55,1.47.85.18.1.36-.86.49-.38l-.16.3c.49-.27.79.24,1.26,0-.05.07-.07.16-.11.15,0,.26.29.1.35-.09.05,0,0,.17,0,.28s.29-.24.26,0c0,0,0,.07-.06.09s.24.09.26-.19c.11.17.31,0,.38.15.15-.28.2.21.34-.2-.13.43.15.42.3.24-.07.12,0,.16-.05.33.11,0,.23,0,.27-.26,0,.58.5-.31.42.39a3.25,3.25,0,0,1,1-.25c-.13.43-.32,0-.43.41.31-.1.56-.43.79-.25,0,.07-.09.17-.13.24.31-.1.49.18.79,0a.28.28,0,0,1-.08.11s.08.09.13-.11l-.06,0c0-.31.35-.55.41-.69-.24.54.18.2-.14.88a.43.43,0,0,0,.13-.24c0,.05,0,.13-.06.27.2-.07.2-.29.34-.24a1.17,1.17,0,0,1-.11.23c.13-.17.26-.33.36-.22s0,.14-.07.13c.22,0,.51-.4.69-.15-.19.39,0,.16-.05.52l.16-.07V74.1c.11,0,.28-.19.34,0l-.12.12h.23L26.35,74c.16-.16.11-.46.23-.32,0,0,.11,0,.11.26h0c.09-.09.18-.2.24-.09s-.13.4-.14.48c.14-.29.28,0,.44-.31a1,1,0,0,0-.1.29l.11-.23a.35.35,0,0,1,0,.28c.14.09.08-.47.21-.22,0,0,0,.06-.07.08.16.16.4,0,.54.12,0,.37-.17,0-.2.37.26,0,.63-.29.84-.14l0-.06c.18-.5.11.31.3.1a.83.83,0,0,0-.1.22c.14.13.37,0,.66-.13l-.07.13c.07.14.23.14.32.22.07-.12.12-.08.14-.28.11.84.72-.23.83.47,0,0-.12.09-.09.1l.27,0c0-.23,0-.14,0-.33s.16-.21.22-.19c-.15.12-.1.36-.09.49,0-.07.05-.14.07-.21,0,.43.15-.44.24-.12l0,.11c.08,0,.18-.18.24-.13,0,.27-.1.1-.16.32.1,0,.33-.44.34-.16-.06.06-.12.05-.18.11,0,.33,0,.25.1.32h0l.12.19,0-.1c.31-.63.28,0,.57-.44-.27.37-.09.23-.19.52a.45.45,0,0,1,0,.28c.14-.22.08.22.28-.1,0,.1.08,0,0,.27.12,0,0-.17.06-.29.25-.27.26.49.61.12.24-.13.36-.44.59-.54a.51.51,0,0,1-.15.32c.06.17.14.17.26.08a.57.57,0,0,0,0,.27c.08,0,.14-.33.2-.16a2.31,2.31,0,0,1-.18.35c.11-.06.25-.21.36-.27,0,.17-.12.23-.19.33a.51.51,0,0,0,.41-.32l0-.11s0,.22-.08.26S34,76,34,75.93l.08,0c.09-.57-.28,0-.4,0l.17-.39-.23.3c0-.11,0-.34.13-.38,0-.23-.12.11-.14-.13a.12.12,0,0,1,0-.07l-.12.1c0-.08.06-.29.1-.22-.09-.27-.34.23-.32-.09l0,0c-.26.07-.1.29-.37.58l.09-.75-.1.28s-.06,0,0-.16c-.14.17,0,.13-.12.31,0-.3-.35,0-.24-.44-.1.21.06.2-.11.32.11-.51-.16,0-.19-.21s.16-.09.12-.35c-.18.43-.17-.15-.28-.09-.1.35-.23.09-.4.17,0-.12-.22-.27-.32-.43l0-.06c-.12.34-.24.24-.36.28a.7.7,0,0,1,.18-.36l-.09,0c-.06.11-.1.16-.18.18l.1-.26c-.13,0-.34.24-.45,0-.08.25-.07.72-.28.84a1.14,1.14,0,0,1,.15-.41s-.09.1-.1,0l.13-.2c-.05-.12-.09.18-.14.14.05-.19,0-.15,0-.3s0,.1.07,0a.51.51,0,0,1-.09-.34c0,.11-.07.25-.12.26s0-.24,0-.35c-.07.12-.11,0-.19.24,0,0,0-.14,0-.22-.1.1-.31,0-.33.27l0,0h0c-.29.22-.4-.28-.64-.22l0-.1c-.15.08-.3,0-.44.17,0,0,0-.2,0-.31-.12,0-.16.15-.26,0,.15-.14,0-.16.14-.09-.11-.12-.09-.28-.3-.06.11-.23,0-.33-.09-.28l0,.2a.19.19,0,0,1-.18-.06l.12-.31c-.15-.46-.65.53-.66-.17-.13.2.09.19,0,.44-.11-.08-.1-.57-.14-.58-.11-.23-.28.42-.42.25,0,.12-.07.43-.23.5s0-.52.09-.59,0,0,0,.08a.16.16,0,0,0,.1-.2l0,.11c0-.14-.2-.17-.1-.35a.17.17,0,0,0,0,.26c-.1-.21-.23-.07-.36-.23,0,.07,0,.21,0,.2-.19-.2-.16.19-.33.2,0-.2.15-.41-.05-.31-.06-.14.07-.3.13-.39-.2.18-.22-.22-.29-.28l.1-.07a.15.15,0,0,1-.14,0l0,.24s-.07-.07,0-.16c-.09.14-.07.39-.22.57,0-.13-.22.07-.15-.24.16.16.07-.31.24-.31,0,0-.08,0-.11,0a.08.08,0,0,1,0-.07c-.1-.32-.18.32-.36.26.07-.17.05-.34,0-.31s-.05.29-.15.41c-.08-.17-.16.06-.22,0l.06.08c-.08.16-.13.12-.23.15,0-.13.11-.07.09-.13-.17.27-.12-.37-.3-.21,0-.13.09-.32.06-.41-.21.18-.09-.28-.29-.14,0,.24,0,.19-.17.38l.29-.09L24,72c.07,0,.2-.1.23-.05-.13.17-.1.11-.12.31,0-.37-.26.15-.31-.12l.16-.56c-.1-.31-.39.2-.58,0l.05.12c-.1.22-.16,0-.25.06a.93.93,0,0,0,0-.39c0,.14-.16-.07-.29.31l0-.28c-.16-.16-.37.48-.53.37.12-.2.07-.35.23-.47-.05,0-.1-.07-.14.07,0-.13-.23.21-.24,0,0,.08-.11.27-.17.24a.29.29,0,0,1,0-.1c0,.1-.14.1-.15.33,0-.64-.52-.1-.53-.66a1.4,1.4,0,0,1-.45,0c0-.06,0-.1,0-.07-.11-.22-.26.52-.38.27s.14-.14.11-.27c.16-.64-.24,0-.26-.38l0,0c0-.24-.3.17-.44.08a.3.3,0,0,0,0-.09.84.84,0,0,1-.6.38c.12-.23.11-.11.15-.36-.08,0-.09.4-.25.43a1.7,1.7,0,0,1,0-.56l.13,0c0-.37-.17,0-.22-.12l.05-.14c-.2,0-.31.37-.51.28v.12c-.22.34,0-.24-.23,0l.07-.39a2.21,2.21,0,0,1-.52.33,2.34,2.34,0,0,1,.5-.5.27.27,0,0,0-.35.13s.1-.11.12,0c-.18.27-.34.38-.49.34.24-.73-.33-.3-.27-.9-.34.2-.49-.26-.8-.31-.06.61-.1,0-.25.59-.08,0-.1,0-.1,0l-.11-.41c0-.19.1-.11.13-.25-.14-.09,0-.27-.05-.45,0,.22-.14.29-.21.18l.05.31c-.3.25-.05-.55-.35-.3l.12-.17c-.14.08-.41-.12-.66.32,0-.07,0-.24.08-.27-.24-.14-.74.34-.86,0l.06-.14c-.06,0-.16.25-.19.08s.07-.14,0-.15-.2.21-.24.11l.1-.14c-.21-.27-.51.28-.76.31a.67.67,0,0,0-.13-.71l0-.06c-.29-.14-.61.2-.94.29-.05-.51-.54-.36-.75-.7a.55.55,0,0,1-.16.36c0-.11-.27.24-.15-.14h0c.06-.4-.1-.33-.2-.37l-.17.5c-.06-.82-.8.07-.76-.64-.11.11-.19.08-.29.19l.08-.27a.67.67,0,0,0-.49-.18l.1-.18c-.13-.06-.39.74-.51.72l.08-.42c-.23,0-.36-.48-.68-.17,0-.06.06-.17.1-.18s-.33-.39-.45.18c.1-.37-.23-.1-.39,0l.09-.26c-.2.31-.23.41-.4.46s0-.22.06-.14c-.07-.17-.16.23-.26,0l.1-.16c-.11-.05-.13,0-.25.22s-.2-.13-.15-.38c-.05.15-.17.33-.22.24A.22.22,0,0,1,7,67.17c-.15-.24-.38.23-.44-.07a.71.71,0,0,0,0-.17c.15,0,.27.1.26.12.07-.25,0-.33.15-.64-.15.16-.44.51-.53.36a.34.34,0,0,1,0-.09l0,0s0,0-.09,0,0-.09-.08-.11c0-.2-.11-.15-.17-.17-.07.27-.14.2-.13.45,0,0,0,0,.07,0l0,0v0l.16,0c-.09.12-.17.22-.2.05-.08.16-.16.33-.21.41,0-.4-.08-.65,0-.89-.23.1-.48,0-.74.45-.07,0,0-.16,0-.25s.08,0,.12-.09c-.14.1-.33,0-.46.31-.09-.2.17-.31,0-.3l.06-.11c-.21-.67-.85.74-1.06-.1a.21.21,0,0,1,0,.14c-.38-.46-1,0-1.37-.61-.1-.14-.18.08-.3.23l0-.3-.23.3c-.26.19-.13-.81-.51-.42l0,.21c-.08-.06-.32,0-.24-.18,0,0-.08.19-.09.08l0-.15-.29.2c-.13-.16.2-.6,0-.7a1,1,0,0,0-.38.48s.07.12,0,.28l-.1,0A2.2,2.2,0,0,0,0,67.2L.25,67v.23l-.12,0c0,.23.1.06.18,0a.74.74,0,0,0,0,.25L.56,67c0,.19-.17.34-.1.46.12-.18,0-.41.19-.51,0,.22-.05.38.08.23a.35.35,0,0,1-.11.23c.11-.12.21,0,.31-.23,0,.27.26,0,.13.42.05-.1.22-.3.29-.3-.26.48.24.1,0,.64.22-.43.38-.12.61-.32,0,0-.06.1-.07.07s.06.21.1.31c.11-.37.28-.42.42-.63,0,.39-.19.42-.26.78.08-.31.27-.25.31-.52a1,1,0,0,1,0,.46c.15-.47.1-.06.25-.33.06.27-.09.45.08.34A.4.4,0,0,1,2.69,68.38ZM6,68.44H6Zm.27.07-.11,0c0-.09,0-.19.08-.18S6.28,68.42,6.3,68.51Zm0-2c.06,0,.05,0,0,.09H6.23v0A1.12,1.12,0,0,0,6.27,66.48Z"/><path class="cls-1" d="M6.1,66.82h0v.07a.3.3,0,0,0,0-.08Z"/><path class="cls-1" d="M29.72,73.93h0v0Z"/><polygon class="cls-1" points="9.77 70.06 9.79 69.99 9.75 70.04 9.77 70.06"/><path class="cls-1" d="M30.9,75.26v.08A.11.11,0,0,0,30.9,75.26Z"/><path class="cls-1" d="M31.51,75.5l.06.12A.33.33,0,0,0,31.51,75.5Z"/><path class="cls-1" d="M32,75.77l0-.11h0Z"/><path class="cls-1" d="M24.25,73.94h0S24.2,74,24.25,73.94Z"/><path class="cls-1" d="M26.69,73.94a.38.38,0,0,1-.11.11S26.65,74.1,26.69,73.94Z"/><path class="cls-1" d="M21.62,73.55h0Z"/><path class="cls-1" d="M26.48,74c0,.06.06.06.1,0S26.52,74,26.48,74Z"/><path class="cls-1" d="M34,76.48l0,0,0,0Z"/><path class="cls-1" d="M34,76.46l0,0S34,76.43,34,76.46Z"/><path class="cls-1" d="M34.14,76.38l-.08.05S34.1,76.45,34.14,76.38Z"/><path class="cls-1" d="M33.39,76.18l0,.09A.46.46,0,0,0,33.39,76.18Z"/><path class="cls-1" d="M33.19,76.15s.06.24.14.2l0-.08C33.29,76.41,33.28,76,33.19,76.15Z"/><path class="cls-1" d="M32.73,74.71l.14.12c0-.11,0-.26.09-.26C32.84,74.2,32.93,74.81,32.73,74.71Z"/><path class="cls-1" d="M32.27,74.42c.1,0,0-.16.07-.21S32.24,74.31,32.27,74.42Z"/><path class="cls-1" d="M28.66,73.39l.07-.24C28.66,73.17,28.71,73.24,28.66,73.39Z"/><polygon class="cls-1" points="27.61 74.47 27.63 74.64 27.72 74.42 27.61 74.47"/><polygon class="cls-1" points="27.69 72.6 27.73 72.57 27.59 72.63 27.69 72.6"/><path class="cls-1" d="M21.59,71l-.07.31C21.59,71.24,21.69,70.9,21.59,71Z"/><path class="cls-1" d="M18.88,70.54c0-.16,0-.28-.12-.14S18.84,70.57,18.88,70.54Z"/><polygon class="cls-1" points="11.15 67.82 11.23 67.73 11.11 67.79 11.15 67.82"/><path class="cls-1" d="M34.87,74.73c0,.09.14.25.17.18l-.13-.31Z"/><path class="cls-1" d="M35.57,75a1.31,1.31,0,0,0-.29-.7c.1.31,0,.21.14.57,0,.07-.15,0-.21-.14,0,.09-.12,0,0,.19s.3.13.29-.11A.52.52,0,0,1,35.57,75Z"/><path class="cls-1" d="M41.37,72.11h0S41.36,72.12,41.37,72.11Z"/><path class="cls-1" d="M44.9,70.19a.06.06,0,0,0,0,.08S44.92,70.21,44.9,70.19Z"/><path class="cls-1" d="M45.68,70.15s0,0,0,0S45.68,70.17,45.68,70.15Z"/><path class="cls-1" d="M41.37,72.11l.15,0C41.47,72.05,41.43,72.11,41.37,72.11Z"/><path class="cls-1" d="M35.92,73.88a.34.34,0,0,0,0,.11.16.16,0,0,1,0-.06Z"/><path class="cls-1" d="M40,73.26l0,0,.05.13Z"/><path class="cls-1" d="M38.87,74s-.11-.26-.16-.37a.38.38,0,0,1,0,.2Z"/><path class="cls-1" d="M36.77,74.7v0A.43.43,0,0,0,36.77,74.7Z"/><path class="cls-1" d="M40.86,72.81l.07.08A.27.27,0,0,0,40.86,72.81Z"/><path class="cls-1" d="M72.24,51.33l0,0S72.25,51.32,72.24,51.33Z"/><path class="cls-1" d="M74.31,51.7v0l.07.13Z"/><path class="cls-1" d="M46.93,69.8h0S46.93,69.83,46.93,69.8Z"/><path class="cls-1" d="M56.67,63.66c-.24-.14,0-.38-.3-.52C56.44,63.22,56.45,63.61,56.67,63.66Z"/><path class="cls-1" d="M36,73.89l0,0S36,73.88,36,73.89Z"/><path class="cls-1" d="M56.37,63.14Z"/><path class="cls-1" d="M49.32,68.16l-.09-.09S49.27,68.12,49.32,68.16Z"/><path class="cls-1" d="M47.27,68.94h0Z"/><path class="cls-1" d="M50.07,67.24s.06,0,.08,0l0,0S50.12,67.27,50.07,67.24Z"/><path class="cls-1" d="M51.06,66.64l-.05,0s0,0,0,0Z"/><path class="cls-1" d="M69.29,53.27a1.54,1.54,0,0,1,.17.19C69.35,53.3,69.45,53.15,69.29,53.27Z"/><path class="cls-1" d="M36,74c0-.07,0-.1,0-.13l0,0A.35.35,0,0,0,36,74Z"/><path class="cls-1" d="M49,65.32l.18-.06A.55.55,0,0,0,49,65.32Z"/><path class="cls-1" d="M62.17,57.63l0-.05S62.16,57.6,62.17,57.63Z"/><path class="cls-1" d="M49.59,64.94a.53.53,0,0,0,.19.12s0,0,0-.08Z"/><path class="cls-1" d="M69.47,53.46h0Z"/><path class="cls-1" d="M70.16,52.26c-.15.09.12.35.2.56-.13.19-.23-.19-.39-.31-.06.15,0,.49-.06.53s-.07-.06-.09-.13c0,.32-.34.22-.29.62a.13.13,0,0,1-.06-.07,3.42,3.42,0,0,1,.28.43c-.06,0,0,.27-.16.08,0,0,0-.1,0-.18v.13c-.25-.26,0-.16-.1-.38-.08.18-.09.52-.25.5-.2-.27.19-.24-.11-.42l.23,0c-.4-.39.12,0-.29-.45-.27,0-.15.29-.42.34,0,.19.16.22.21.42-.13.47-.68-.59-.67-.07.06.23.26.61,0,.52L68,54c-.23.1.16.55-.19.46,0-.15.1-.21,0-.23-.29-.17,0,.25-.09.31l-.2-.27c-.19.18-.31.54-.53.74a.38.38,0,0,0-.16-.27c-.22.34-.68.37-1.09.38l0,.32s-.12-.09-.12-.15c-.17,0,.09.16.1.29s-.18-.09-.18-.19c-.08.34-.31.81-.69.68V56c-.23,0,.12.63-.18.49v-.07c-.44.12-.7.59-1.21.38.17.4-.46.06-.18.58-.36-.13-.35-.25-.75-.24-.09,0,.07.38,0,.5l-.16-.27,0,.36-.26-.27-.05.12c.05,0,.15.07.19.15s-.46,0-.54-.1l-.21.42a.42.42,0,0,1,0-.27c0,.37-.2-.26-.22.09.06,0,.08.16.11.21a.35.35,0,0,0-.46.16L61,58c-.27.11-.47.41-.75.57.15,0,.32.36.25.44l-.2-.26c.05.2.15.05.17.33-.12,0-.26-.28-.26-.4l-.07.17c-.05-.08-.05-.14-.11-.25.06.2-.39-.15-.28.2l-.06-.08c-.28.17-.35.34-.57.49.14.25,0,.25.07.48-.21,0-.51,0-.7.09s.08.23.1.41c-.14-.21-.33-.07-.32-.29a1.63,1.63,0,0,0-.49.6c.09.07.15.08.18.17s-.18,0-.24-.12v0c-.14.54-1.18-.15-1.18.47v0l-.14.41c-.15,0,0-.21-.2-.29-.08.55-.51.24-.62.64-.59-.53-.66.46-1.18.21l.11.14c0,.19-.14,0-.21,0,.08.12.16.09.17.2-.47.54-1.33.5-2,.72-.24.1.36.87-.14.67l-.09-.33c-.23.6-.9.53-1.16,1.08,0-.08-.06-.17,0-.19-.21-.15-.34.19-.24.36-.08,0-.11-.14-.2-.2s-.07.4-.24.22,0-.08,0-.11c0,.14-.29.14-.09.35-.23,0-.24.29-.45.23.07.31-.36,0-.16.43-.22-.4-.47-.15-.46.1,0-.14-.16-.07-.22-.26a.25.25,0,0,0,0,.4c-.5-.33-.21.64-.69.11a4.74,4.74,0,0,1-.7,1c-.23-.39.31-.24.06-.64-.2.34-.17.77-.52.86-.11,0-.06-.2-.07-.28-.2.34-.59.31-.72.68a.17.17,0,0,1,0-.14s-.16,0,0,.19l0-.08c.23.2.11.66.19.8-.22-.56-.34,0-.58-.69a.32.32,0,0,0,.07.27c-.07,0-.13-.06-.16-.23-.13.21.05.36-.12.46,0-.09,0-.14-.08-.25,0,.21,0,.43-.15.44,0-.05-.08-.11,0-.13-.22.17-.14.69-.51.69-.14-.42-.16-.07-.37-.38l-.08.18.15.12c-.13.08-.1.38-.27.34v-.19l-.2.2.21,0c0,.24.26.4,0,.41,0-.05-.13.07-.31-.08h0c0,.14,0,.29-.14.26a3.29,3.29,0,0,1-.25-.42c.1.3-.25.25-.16.58a.81.81,0,0,0-.14-.28l.08.25c-.1,0-.13-.06-.2-.2-.2.07.3.37,0,.32a.31.31,0,0,1,0-.11c-.26,0-.32.38-.58.39-.25-.28.12-.18-.1-.41-.25.23-.34.73-.66.82H42c.23.48-.34-.1-.34.2a.6.6,0,0,0-.09-.23c-.23,0-.31.34-.5.65l0-.13c-.18,0-.32.11-.47.12,0,.14-.05.16.1.31-.76-.45-.47.77-1.12.41,0,0,0-.16,0-.14l-.2.27c.14.19.11.1.26.22a.32.32,0,0,1-.06.32c0-.21-.19-.32-.31-.4a1.86,1.86,0,0,1,.11.19c-.35-.26.22.41-.12.29l-.05-.11c0,.1,0,.28-.12.3-.17-.21,0-.16-.1-.35-.1.08.05.57-.19.4,0-.09.08-.14.08-.23-.27-.2-.24-.12-.34-.12H38.2l.09,0c.22.68-.21.28-.16.78-.05-.48-.1-.23-.25-.5-.09,0-.21-.08-.23-.17,0,.27-.25-.07-.18.31-.06-.08-.1,0-.21-.17-.07.13.11.12.17.23,0,.4-.62-.09-.64.45-.12.29,0,.6-.1.86-.15-.09-.13-.34-.13-.34-.19-.05-.25,0-.3.18,0-.09-.08-.14-.17-.21s.13.34-.06.28c0-.1-.1-.27-.12-.38,0,.13,0,.35-.11.48-.11-.13-.07-.25-.09-.37a.6.6,0,0,0-.11.56l.12,0s-.14-.19-.13-.25c0-.24.19,0,.24.08l0,.09c.37.45.24-.25.41-.31l.15.39,0-.38c.09.07.23.26.19.35.21.12,0-.18.23,0a.13.13,0,0,1,0,.07l0-.17c0,.09.17.24.07.23.31.09.13-.45.37-.22v0c.19-.27-.13-.27-.12-.7l.51.57-.13-.28a.14.14,0,0,1,.15.1c0-.24-.09-.11-.13-.31.27.16.28-.32.56.08-.08-.23-.22-.08-.17-.3.31.42.11-.17.35,0s-.08.2.16.34c-.16-.44.28,0,.33-.19-.18-.31.13-.25.23-.46.06.11.41,0,.63,0l0,0c-.16-.33,0-.36.1-.5a.63.63,0,0,1,.13.4l.1-.06A.31.31,0,0,1,40,73l.11.25c.14-.1.12-.45.4-.4-.12-.23-.52-.53-.41-.79.08.11.21.31.19.39s0-.13.06-.1l0,.24c.14,0-.05-.19,0-.21.1.17.13.09.2.23s-.1,0-.09,0a.42.42,0,0,1,.35.14c-.06-.09-.13-.23-.09-.29s.17.18.3.21c0-.13.13-.07,0-.32,0,0,.12.09.18.15,0-.16.32-.24.08-.46h0v0h0c.09-.39.59-.16.77-.41l.05.09c.08-.19.28-.25.27-.5,0,0,.19.1.24.21.07-.13,0-.23.27-.19,0,.21.11.11-.05.18.18,0,.3.1.31-.22.08.24.27.2.3.1l-.19-.1a.4.4,0,0,1,.21-.12l.14.31c.5.17.16-.91.73-.46,0-.25-.24,0-.31-.32.16,0,.54.28.59.26.27,0-.09-.52.17-.53-.08-.09-.27-.34-.19-.53s.42.33.39.46-.06,0-.08,0a.16.16,0,0,0,.07.22l0-.11c.13.06.31-.06.37.13,0-.15-.06-.19-.17-.2.26,0,.27-.15.51-.16-.06,0-.16-.15-.13-.16.33,0,0-.26.14-.41.2.09.19.39.29.15.17,0,.19.26.19.37,0-.3.38-.06.49-.08l0,.14a.17.17,0,0,1,.11-.13l-.18-.18c.08,0,.12,0,.17.07,0-.16-.25-.31-.25-.56.12.07.13-.23.32,0-.27,0,.18.26,0,.41a.11.11,0,0,1,.13-.07.07.07,0,0,1,0,.08c.35.12-.09-.36.12-.47.07.16.22.25.24.2s-.2-.23-.19-.39c.2,0,.09-.18.17-.2h-.11c-.07-.17,0-.19.07-.29.08.11,0,.13,0,.16-.06-.33.4.14.44-.13.13.06.18.28.28.32,0-.3.3.1.37-.17-.18-.17-.15-.12-.16-.39l-.19.31v-.4c-.08,0-.1.24-.17.23,0-.22,0-.16-.14-.31.3.24.12-.31.38-.18l.3.5c.34.11.2-.47.53-.5l-.13,0c-.09-.22.14-.12.17-.25a.84.84,0,0,0,.29.28c-.08-.12.19-.1,0-.45l.25.15c.27,0-.05-.62.18-.69.06.22.22.29.16.5.07,0,.15,0,.08-.16.1.08.05-.34.21-.22,0-.09-.12-.27,0-.31a.28.28,0,0,1,0,.09c0-.09,0-.19-.13-.33.52.4.55-.39,1-.05a2.92,2.92,0,0,1,.38-.4c0,.06,0,.09,0,.09.28,0-.18-.56.13-.51.27.21,0,.22.11.28.36.54.2-.23.54,0v.06c.22.12.13-.37.33-.44a.28.28,0,0,0,.05.08A1,1,0,0,1,52.8,65c.08.25,0,.16.16.36,0-.08-.24-.34-.13-.49a1.25,1.25,0,0,1,.45.35l-.13.1c.25.26.17-.12.28-.11l.07.13c.19-.17,0-.51.24-.63l-.08-.08c-.08-.41.22.12.2-.2l.24.31a2.29,2.29,0,0,1,.21-.66,2.2,2.2,0,0,1-.05.75c.08,0,.26-.2.21-.39,0,0,0,.16-.07.13-.06-.33,0-.54.16-.63.37.67.54-.1,1,.33.14-.42.64-.25,1-.49-.43-.44.1-.08-.24-.59.06-.08.09-.09.12-.06l.43.16c.15.12,0,.17.07.28.2-.07.21.18.41.24-.14-.17-.1-.3,0-.29L57,63.37c.07-.42.47.31.55-.11l0,.21c.06-.17.46-.28.33-.77.06,0,.18.17.15.24.34-.12.4-.85.79-.74l0,.14c0-.07,0-.3.11-.21s.05.14.08.13,0-.31.14-.28l0,.18c.4,0,.24-.63.43-.86a.69.69,0,0,0,.69.35l0,.05c.37-.16.39-.66.62-1,.45.29.77-.24,1.23-.2a.45.45,0,0,1-.14-.37c.12,0,.05-.39.25,0h0c.26.31.36.13.48.06l-.25-.46c.71.47.67-.74,1.2-.25,0-.16.1-.22.11-.37l.14.24a1,1,0,0,0,.59-.31l0,.2c.16-.07-.24-.81-.11-.9l.26.33c.25-.15.7,0,.75-.47,0,0,.09.16,0,.2.13-.06.62,0,.27-.5.2.32.28-.13.33-.36l.13.25c-.07-.37-.12-.46,0-.64.06,0,.15.17.06.14.21.05,0-.29.2-.25l0,.19c.15-.07.09-.14,0-.36s.29-.09.44.11c-.07-.14-.1-.36,0-.35a.31.31,0,0,1,.07.18c.32,0,.16-.48.45-.33,0,.07.08.11.11.12-.18.1-.33.18-.32.15.13.22.29.17.37.54,0-.23,0-.71.19-.69l.06.07v0s.06,0,.07-.09a.25.25,0,0,0,.15,0c.13.17.22,0,.3,0-.16-.24,0-.26-.25-.4,0,0,0,0,0,.07l0,0v0a.74.74,0,0,1-.16.12c0-.15,0-.29.14-.2-.06-.18-.12-.36-.14-.45.3.28.59.34.74.53.14-.26.46-.39.32-.92,0-.1.15.08.21.14s-.05.09,0,.16c0-.19.33-.26.17-.6.24,0,.09.35.27.17l0,.11c.72.25.19-1.21,1-.85,0,0-.08,0-.12-.07.7,0,.92-.93,1.71-.79.21,0,.1-.21.1-.42l.19.24,0-.39c.09-.35.76.41.79-.17l-.14-.16c.12,0,.25-.29.35-.08,0,0-.07-.2,0-.13l.09.13.1-.38c.25,0,.29.55.59.41a.84.84,0,0,0,0-.63s-.16,0-.24-.16l0-.12c-.23-.41-.4-.86-.8-1v.34l-.17-.16.12-.1c-.18-.13-.13.06-.12.2a.56.56,0,0,0-.2-.17l.08.47c-.12-.14-.12-.35-.28-.37,0,.22.28.31.23.5-.18-.14-.25-.3-.25-.09a.31.31,0,0,1-.08-.24c0,.17-.19.18-.1.42-.21-.18-.23.22-.45-.16a.72.72,0,0,1,0,.44c-.14-.53-.29.14-.55-.36.15.46-.25.39-.29.73,0,0,0-.12,0-.11-.12,0-.22-.08-.33-.11.19.34.08.51.12.77-.32-.25-.16-.44-.39-.73.17.27,0,.4.13.6a.85.85,0,0,1-.35-.3c.23.43,0,.13,0,.43-.26-.12-.27-.37-.34-.15C70.12,52.49,70.16,52.26,70.16,52.26Zm-3.08,2.86h0l.06,0Zm-.29.18a.42.42,0,0,0,.13-.07c.06.08.1.17.07.19S66.88,55.34,66.79,55.3Zm1.63,1.29c0,.06-.07,0-.1,0a.28.28,0,0,0,.06-.08s0,0,0,0A1.12,1.12,0,0,1,68.42,56.59Z"/><path class="cls-1" d="M68.32,56.22a0,0,0,0,1,0,0l-.06,0a.31.31,0,0,0,0,.08Z"/><path class="cls-1" d="M41.31,72.1h0l0,0Z"/><polygon class="cls-1" points="62.43 57.31 62.47 57.37 62.46 57.3 62.43 57.31"/><path class="cls-1" d="M39.18,72.26a.1.1,0,0,0-.06-.05S39.16,72.24,39.18,72.26Z"/><path class="cls-1" d="M38.45,72.63l-.16,0A.56.56,0,0,0,38.45,72.63Z"/><path class="cls-1" d="M37.83,72.84l.05.11h0Z"/><path class="cls-1" d="M46.26,67.35s0,0,0,0S46.27,67.29,46.26,67.35Z"/><path class="cls-1" d="M44,69.46a.76.76,0,0,1,0-.16S44,69.32,44,69.46Z"/><path class="cls-1" d="M48.94,65.33Z"/><path class="cls-1" d="M44.17,69.23c-.07,0-.1,0-.12.07S44.16,69.29,44.17,69.23Z"/><path class="cls-1" d="M35.42,74.15h0a.08.08,0,0,1,0,0Z"/><path class="cls-1" d="M35.41,74.2v0S35.42,74.23,35.41,74.2Z"/><path class="cls-1" d="M35.38,74.34l0-.1S35.35,74.26,35.38,74.34Z"/><path class="cls-1" d="M36.21,73.83l-.05-.09A.44.44,0,0,0,36.21,73.83Z"/><path class="cls-1" d="M36.41,73.67c-.07,0-.24-.11-.28,0l0,.08C36.12,73.59,36.45,73.85,36.41,73.67Z"/><path class="cls-1" d="M38,74.2l-.23,0c.09.07.21.17.14.25C38.28,74.62,37.71,74.31,38,74.2Z"/><path class="cls-1" d="M38.62,74c-.08.1.08.14.11.19C38.74,74.06,38.74,74,38.62,74Z"/><path class="cls-1" d="M42.7,71.52l.12.22C42.88,71.67,42.77,71.66,42.7,71.52Z"/><polygon class="cls-1" points="42.8 69.91 42.64 69.82 42.73 70.05 42.8 69.91"/><polygon class="cls-1" points="44.2 71.19 44.19 71.24 44.27 71.09 44.2 71.19"/><path class="cls-1" d="M51,67l-.18-.26C50.8,66.78,51,67.09,51,67Z"/><path class="cls-1" d="M53.81,64.89c.11.12.25.15.22,0C54,64.9,53.82,64.84,53.81,64.89Z"/><polygon class="cls-1" points="62.95 59.95 62.95 60.08 63.02 59.93 62.95 59.95"/><path class="cls-1" d="M34.73,76.54c.06.08.24.15.27,0l-.25-.23Z"/><path class="cls-1" d="M35.67,76.08a.8.8,0,0,0-.55-.55c.21.28.08.25.34.57,0,.13-.2.14-.3.07.05.08-.16.14,0,.29.3,0,.41-.2.32-.49C35.57,76,35.62,76.05,35.67,76.08Z"/><path class="cls-1" d="M41.92,65.48l-.07,0A.13.13,0,0,0,41.92,65.48Z"/><path class="cls-1" d="M45.68,58.84c0,.06,0,.09,0,.11S45.71,58.84,45.68,58.84Z"/><path class="cls-1" d="M46.61,57.87l0,.05S46.63,57.89,46.61,57.87Z"/><path class="cls-1" d="M41.92,65.48l.19-.13C42,65.28,42,65.4,41.92,65.48Z"/><path class="cls-1" d="M35.77,74.21a.23.23,0,0,0,0,.14s0-.07,0-.11Z"/><path class="cls-1" d="M40.58,68.57l0,.05a.87.87,0,0,0,.09.11Z"/><path class="cls-1" d="M39.41,70.87c0-.05-.2-.2-.3-.28a.28.28,0,0,1,.11.2Z"/><path class="cls-1" d="M37,74.24v.08S37.05,74.26,37,74.24Z"/><path class="cls-1" d="M41.5,67l.1,0A.17.17,0,0,0,41.5,67Z"/><path class="cls-1" d="M73.63,2.37l.05,0S73.64,2.35,73.63,2.37Z"/><path class="cls-1" d="M76.27.39v0l.14.08Z"/><path class="cls-1" d="M48.05,55.94h0C48,56,48.05,56,48.05,55.94Z"/><path class="cls-1" d="M58.17,36.56c-.33.1-.09-.51-.51-.31C57.77,36.27,57.89,36.75,58.17,36.56Z"/><path class="cls-1" d="M35.83,74.17a.26.26,0,0,1,.05-.09A.14.14,0,0,0,35.83,74.17Z"/><path class="cls-1" d="M57.66,36.25h0l0,0Z"/><path class="cls-1" d="M50.49,51a.2.2,0,0,0-.13,0A.23.23,0,0,0,50.49,51Z"/><path class="cls-1" d="M48.21,54.43l.08-.07Z"/><path class="cls-1" d="M51.14,49s.09,0,.09-.12h0S51.21,48.92,51.14,49Z"/><path class="cls-1" d="M52.18,47h-.07a.25.25,0,0,1,0,.07Z"/><path class="cls-1" d="M70.59,8.35a1.24,1.24,0,0,1,.27,0C70.67,8.32,70.76,8,70.59,8.35Z"/><path class="cls-1" d="M35.91,74.28c-.06,0-.08-.07-.08-.11s0,0,0,.07A.11.11,0,0,0,35.91,74.28Z"/><path class="cls-1" d="M49.23,47.83l.2-.29A1.64,1.64,0,0,0,49.23,47.83Z"/><path class="cls-1" d="M63.15,22.35v-.09A.08.08,0,0,0,63.15,22.35Z"/><path class="cls-1" d="M49.88,46.61a.51.51,0,0,0,.27-.09.23.23,0,0,0,0-.07Z"/><path class="cls-1" d="M70.86,8.38Z"/><path class="cls-1" d="M71.36,6c-.16.29.25.31.4.47-.1.4-.33,0-.56.07,0,.26.18.59.08.75-.06,0-.1,0-.14-.07.13.37-.36.7-.18,1.14a.16.16,0,0,1-.1,0,1.74,1.74,0,0,1,.47.2c-.07.14.07.36-.17.29,0-.08,0-.13-.07-.2v.19c-.37,0,0-.25-.23-.37,0,.32,0,.77-.15.93-.33-.11.15-.53-.26-.4l.29-.26c-.61,0,.13-.18-.49-.22-.32.37-.1.55-.41.93.11.18.26.1.37.28,0,.76-1,.07-.84.72.14.22.5.47.13.67l-.28-.29c-.25.4.36.5-.1.8-.09-.14.06-.38,0-.34-.41.14.09.3,0,.51l-.32-.11c-.18.46-.22,1-.43,1.56-.07-.07-.12-.2-.27-.14a4.25,4.25,0,0,1-1.22,1.77l.14.36c0,.05-.17,0-.19,0-.22.17.16.1.2.26s-.24.09-.27,0c0,.52-.14,1.4-.65,1.68l0-.13c-.28.28.33.66-.08.84v-.09c-.5.66-.68,1.58-1.36,1.92.31.3-.55.62-.06.94-.47.27-.5.11-1,.59-.11.14.2.4.15.62l-.27-.14.14.41-.39,0,0,.21a.26.26,0,0,1,.28,0,.7.7,0,0,1-.7.51l-.12.78c-.1-.07-.08-.2-.11-.32.09.5-.32-.09-.24.36.09,0,.15.11.21.15-.26.07-.45.44-.53.75l-.16-.15c-.31.46-.46,1.08-.76,1.62.2-.15.5.07.44.25l-.32-.09c.12.2.2-.11.3.22-.14.19-.4,0-.43-.2l0,.3c-.1,0-.11-.12-.21-.19.12.2-.52.28-.29.59l-.09,0c-.3.55-.33.85-.56,1.3.25.14.1.29.23.53a4.14,4.14,0,0,0-.84,1c0,.34.17.19.25.39-.24-.1-.43.31-.48,0a4.63,4.63,0,0,0-.42,1.33c.13,0,.21-.07.27,0a.23.23,0,0,1-.33.12v0c0,.86-1.49,1.21-1.31,2v0l-.06.69c-.17.24-.08-.24-.33-.13.06.81-.56.92-.57,1.55-.87,0-.68,1.39-1.38,1.68l.17,0c.08.22-.18.11-.26.19.12.06.21-.07.25.06a13.75,13.75,0,0,1-2.24,3.3c-.26.41.69.68,0,1l-.21-.3c-.11,1-1,1.74-1.1,2.74,0-.09-.13-.14-.09-.22-.3.07-.36.65-.19.75-.08.12-.17-.06-.3,0s0,.59-.23.57c0,0,0-.09,0-.13,0,.17-.31.53,0,.55-.28.25-.21.66-.49.83.18.31-.42.47-.06.73-.39-.24-.62.38-.54.68-.08-.13-.22.1-.34-.06-.12.23-.15.48.07.55-.7.16-.06,1-.8.95a14.91,14.91,0,0,1-.57,2.15c-.38-.24.32-.69-.11-.89-.14.66,0,1.18-.38,1.7-.13.12-.13-.18-.17-.26-.14.66-.63,1.09-.69,1.72a.34.34,0,0,1-.05-.17c0,.11-.18.2,0,.29v-.13c.35,0,.33.7.46.79-.42-.45-.4.44-.91-.19a.28.28,0,0,0,.17.27c-.09.08-.17.07-.26-.1-.09.41.17.38,0,.71-.09,0-.09-.13-.17-.22.08.26.16.51-.06.75,0,0-.13,0-.08-.13-.23.49,0,1.05-.43,1.49-.29-.36-.22.11-.56,0l-.05.33.22,0c-.14.25,0,.59-.23.75l0-.26-.19.49.27-.19c0,.34.43.2.16.47,0-.08-.13.25-.4.27h0c0,.18.09.36-.09.5s-.35-.23-.43-.24c.21.27-.23.62,0,.92a.48.48,0,0,0-.26-.18l.17.22c-.13.08-.17.07-.3,0-.23.32.47.12.08.43,0,0-.05,0,0-.13-.32.35-.28.86-.59,1.18-.39-.07.09-.37-.26-.4-.23.58-.2,1.33-.56,1.82L42.2,63c.43.32-.44.26-.36.65,0-.09-.21-.23-.17-.18a3.75,3.75,0,0,0-.42,1.41l-.08-.13c-.22.15-.36.52-.54.72.09.13,0,.25.21.27-1.06.34-.35,1.54-1.25,1.85,0-.07,0-.23,0-.17l-.17.59c.22.07.16,0,.37,0a.47.47,0,0,1,0,.46c0-.31-.33-.17-.49-.13.07,0,.12.09.19.12-.52.08.38.26-.07.51l-.09-.08c0,.17,0,.38-.06.52-.27-.07,0-.21-.22-.33-.1.23.22.67-.12.73,0-.12,0-.25,0-.38-.39.06-.33.13-.46.26h0l-.32.29.12-.05c.47.6-.18.61,0,1.19-.19-.56-.19-.18-.44-.35-.12,0-.28.15-.34.07.13.29-.32.19-.13.6-.09,0-.11.18-.3,0-.05.26.17,0,.27.1.11.5-.78.62-.65,1.33-.06.51.19.74.12,1.22-.2.06-.25-.28-.25-.28a.61.61,0,0,0-.31.58c-.06-.08-.14-.08-.27-.07-.07.18.25.28,0,.43a1.59,1.59,0,0,1-.26-.35c0,.23,0,.51,0,.75-.18,0-.16-.24-.22-.37-.06.26-.18.65,0,.85l.16-.1c0,.09-.22-.06-.23-.15-.09-.29.23-.23.32-.19l0,.17c.58.12.22-.61.4-.88l.31.31-.15-.45c.13,0,.35,0,.33.22.29-.1,0-.25.26-.31.05,0,.06,0,.06,0V74c.06.08.28.11.16.2.4-.24,0-.72.38-.71v0c.14-.56-.24-.19-.36-.73l.8.1-.25-.19s.11-.13.21-.06c-.08-.29-.13,0-.25-.23.38-.12.25-.74.71-.57-.16-.2-.28.15-.29-.19.51.18.09-.34.42-.45.2.19,0,.34.29.23-.33-.35.33-.39.35-.63-.32-.18.09-.48.15-.85.1.07.5-.51.77-.74l0,0c-.29-.23-.07-.5,0-.76a.43.43,0,0,1,.27.36l.11-.21a.35.35,0,0,1-.06-.35l.21.18c.14-.29,0-.71.37-1-.22-.15-.78-.06-.73-.52.13.06.35.15.34.28,0,0,0-.17,0-.21l.12.26c.18-.11-.12-.17,0-.29.17.09.17,0,.3.06s-.13.07-.09.16A.66.66,0,0,1,41.5,67c-.1,0-.23-.13-.2-.25.14-.28.26,0,.44-.09-.09-.14.13-.25-.12-.39,0-.08.17,0,.26,0,0-.2.32-.69,0-.67l0,0s0,0,0,0h0c0-.61.68-.91.81-1.43l.09,0c0-.33.28-.65.19-1a.27.27,0,0,1,.35,0c0-.25,0-.32.28-.56,0,.3.17,0,0,.28.22-.23.4-.22.32-.65.17.22.39-.06.39-.22l-.26.1a1.31,1.31,0,0,1,.23-.4l.25.23c.66-.38-.06-1.35.77-1.47-.13-.26-.31.23-.48,0,.18-.24.75-.29.79-.37.36-.27-.25-.56.06-.88a.38.38,0,0,1-.38-.44c.18-.24.61-.09.61.12s-.08.08-.11.06,0,.24.15.2l-.09-.09c.18-.08.36-.44.48-.27,0-.25-.12-.17-.25,0,.33-.26.28-.53.57-.82-.09,0-.24,0-.21,0,.4-.44-.08-.33.06-.7.26-.11.34.27.39-.14.22-.16.3.1.34.23,0-.42.45-.52.58-.68v.21a.58.58,0,0,1,.09-.28l-.26,0c.09-.08.14-.16.22-.11-.08-.18-.39-.11-.47-.41.18-.07.1-.46.4-.35-.31.35.3.1.16.47a.34.34,0,0,1,.14-.24s0,0,0,.08c.46-.26-.22-.35,0-.75.13.13.34.06.35,0-.09.16-.31-.06-.35-.28.26-.19.06-.33.15-.46l-.14.13c-.13-.14,0-.26,0-.46.13,0,0,.2.08.17-.16-.35.53-.3.5-.68.17-.08.3.14.43.07,0-.43.4-.23.4-.65-.26,0-.21,0-.3-.31l-.14.62-.12-.51c-.09.16,0,.41-.14.49-.08-.26,0-.21-.25-.23.43,0,.05-.54.4-.68l.52.28c.44-.26.1-.83.5-1.27l-.18.12c-.17-.18.14-.33.15-.54.16.11.28,0,.43,0-.14-.06.2-.37-.12-.6l.35-.1c.31-.36-.25-.73,0-1.09.13.22.35.1.34.44.07-.13.17-.23,0-.3.15,0,0-.49.19-.52,0-.1-.22-.21-.13-.35a.14.14,0,0,1,.09,0c-.09,0,0-.3-.26-.27.76-.11.57-1.15,1.22-1.25a7.68,7.68,0,0,1,.35-1s.09,0,0,.09c.36-.28-.38-.49,0-.8.39-.06,0,.3.21.22.6.25.19-.53.67-.63V45c.31-.11.06-.63.29-1a.21.21,0,0,0,.08.05,2,2,0,0,1,.07-1.26c.17.22,0,.21.3.27,0-.16-.39-.15-.3-.48.18,0,.4-.18.66-.08l-.14.28c.39,0,.18-.36.32-.48l.12.09c.19-.45-.16-.64.11-1.08h-.13c-.21-.44.31-.11.19-.5l.39.11a4.67,4.67,0,0,1,.06-1.08,2.56,2.56,0,0,1,.15,1c.09-.16.28-.57.15-.74,0,.08,0,.21-.05.25a1,1,0,0,1,0-1c.65.42.63-.76,1.28-.72.06-.71.72-1.08,1-1.78-.65,0,.09-.2-.47-.45,0-.17.09-.23.14-.22l.57-.31c.22,0,0,.22.17.27.22-.32.3,0,.57-.18-.22-.05-.21-.26,0-.42l-.4.14c0-.63.67-.17.65-.8l.09.24c0-.3.49-.91.18-1.39.09,0,.27,0,.25.14.38-.55.24-1.56.76-1.88l.1.12c0-.14-.14-.33.07-.4,0,0,.1.12.14.07s-.08-.42.08-.52l.08.2c.48-.48.11-1.08.28-1.61.39.21.76-.18.94-.37l.05,0a6.14,6.14,0,0,0,.47-2c.63-.16.88-1.22,1.45-1.71-.12.05-.3-.18-.28-.31s-.05-.55.29-.34l0,.05c.41.08.47-.27.61-.5l-.45-.29c1-.25.61-1.73,1.4-1.74,0-.21.06-.4,0-.61l.25.15a3.89,3.89,0,0,0,.63-1.11l.12.2c.17-.27-.52-.74-.4-1l.42.12c.26-.5.85-.83.78-1.51.05,0,.15.11.12.2.14-.23.74-.77.18-1,.34.17.31-.49.31-.84l.22.17c-.19-.39-.28-.45-.19-.81.07-.06.23,0,.11.11.26-.19-.13-.32.17-.56l.09.2c.16-.25.06-.27,0-.51a.47.47,0,0,1,.56-.38c-.11-.1-.22-.34-.07-.46a.19.19,0,0,1,.12.15c.4-.34.06-.79.46-1a.24.24,0,0,0,.17,0,3.14,3.14,0,0,1-.35.57c.23.12.41-.13.61.25,0-.31-.22-.89,0-1.1h.1v0a.22.22,0,0,0,.05-.19.85.85,0,0,0,.19-.19c.2.07.27-.26.35-.39-.25-.13-.12-.28-.41-.22,0,0,0,0,0,.13a.12.12,0,0,0,0,.08l0,0c0,.09-.09.21-.16.35-.07-.18-.12-.35.1-.43-.12-.15-.24-.32-.29-.4.44,0,.82-.27,1.06-.21.09-.49.44-1,.12-1.55,0-.15.2-.07.3-.07s0,.17,0,.24c0-.3.33-.73,0-1,.3-.23.2.33.37-.12l.07.11c1-.53-.12-1.77,1-2.31-.07,0-.11.06-.17,0,.84-.87.86-2.27,1.87-3,.24-.24,0-.38,0-.64l.3.07-.15-.46c0-.55,1-.39.92-1.16l-.22,0c.14-.17.22-.67.41-.53,0,0-.15-.16,0-.19L76,2.1V1.5c.3-.32.52.35.84-.17,0-.23-.1-.79-.23-.77a.29.29,0,0,1-.34.1l0-.23C75.87.18,75.52-.19,75,.11l.08.45h-.25L75,.28c-.27,0-.16.24-.1.4a.39.39,0,0,0-.29,0l.23.52c-.18-.05-.25-.31-.45-.15.11.24.44.05.43.35-.27.05-.4-.07-.33.19a.21.21,0,0,1-.18-.2c0,.23-.17.45,0,.64-.31,0-.22.57-.6.34a1,1,0,0,1,.09.59c-.32-.51-.31.53-.78.19.32.42-.19.81-.14,1.28,0,0-.07-.11,0-.13-.14.17-.3.16-.44.24.33.21.25.56.37.84-.46.06-.32-.37-.68-.46.28.14.05.56.33.6-.3.08-.18.11-.52,0,.41.26,0,.21.17.5-.36.15-.44-.15-.47.21C71.38,6.37,71.36,6,71.36,6Zm-2.93,7.29h0l.06-.15A1.24,1.24,0,0,0,68.43,13.32Zm-.31.58a1.17,1.17,0,0,0,.14-.25c.1,0,.18.1.14.15S68.24,13.85,68.12,13.9Zm2.37-.31c0,.11-.08.12-.13.1a1.22,1.22,0,0,0,0-.17l0,0A.47.47,0,0,1,70.49,13.59Z"/><path class="cls-1" d="M70.26,13.25s0,0,0,0l-.09,0,.06.08Z"/><path class="cls-1" d="M41.84,65.54h0S41.83,65.54,41.84,65.54Z"/><polygon class="cls-1" points="63.37 21.64 63.44 21.67 63.41 21.59 63.37 21.64"/><path class="cls-1" d="M39.29,68.27H39.2S39.25,68.28,39.29,68.27Z"/><path class="cls-1" d="M38.49,69.62l-.19.15A.88.88,0,0,0,38.49,69.62Z"/><path class="cls-1" d="M37.81,70.61a.32.32,0,0,0,.09.08h0Z"/><path class="cls-1" d="M46.51,53.62a.09.09,0,0,0,0,0C46.53,53.45,46.51,53.53,46.51,53.62Z"/><path class="cls-1" d="M44.41,58.94a1.92,1.92,0,0,1,0-.22C44.32,58.8,44.27,58.86,44.41,58.94Z"/><path class="cls-1" d="M49.2,47.87h0l0,0Z"/><path class="cls-1" d="M44.51,58.49a.27.27,0,0,0-.13.23A.39.39,0,0,0,44.51,58.49Z"/><path class="cls-1" d="M35.24,75.14l0,0,0,0Z"/><path class="cls-1" d="M35.24,75.22v.07S35.26,75.24,35.24,75.22Z"/><path class="cls-1" d="M35.24,75.44v-.15A.1.1,0,0,0,35.24,75.44Z"/><path class="cls-1" d="M36.1,73.8,36,73.74A.28.28,0,0,0,36.1,73.8Z"/><path class="cls-1" d="M36.3,73.36c-.07.09-.32.15-.34.33l.06,0C35.92,73.6,36.41,73.54,36.3,73.36Z"/><path class="cls-1" d="M38.37,72.18l-.27.32c.13,0,.31,0,.24.15C38.87,72.35,38.08,72.63,38.37,72.18Z"/><path class="cls-1" d="M39.1,71.15c-.06.21.14.07.19.11C39.26,71.09,39.26,71.05,39.1,71.15Z"/><path class="cls-1" d="M43.37,63.15l.22.14C43.64,63.12,43.5,63.24,43.37,63.15Z"/><polygon class="cls-1" points="43.02 60.99 42.81 61.06 42.98 61.24 43.02 60.99"/><polygon class="cls-1" points="45.11 60.95 45.11 61.03 45.16 60.74 45.11 60.95"/><path class="cls-1" d="M52.21,47.47l-.3-.1C51.91,47.49,52.21,47.68,52.21,47.47Z"/><path class="cls-1" d="M55,41.52c.17,0,.35-.1.27-.28C55.21,41.36,55,41.44,55,41.52Z"/><polygon class="cls-1" points="64.78 24.37 64.81 24.54 64.85 24.27 64.78 24.37"/><path class="cls-2" d="M61.11,39.7a7.37,7.37,0,1,1-8.39-6.19A7.37,7.37,0,0,1,61.11,39.7Z"/><path class="cls-1" d="M52.49,41.38c.06-.06.15-.24.07-.24l-.2.27Z"/><path class="cls-1" d="M52.42,40.64a1.27,1.27,0,0,0-.46.59c.22-.24.17-.11.42-.4.08,0,0,.14,0,.24.06-.06,0,.12.18,0s0-.32-.23-.19C52.32,40.75,52.39,40.69,52.42,40.64Z"/><path class="cls-1" d="M47.27,37.14l0,0A.08.08,0,0,0,47.27,37.14Z"/><path class="cls-1" d="M44,35.09a.06.06,0,0,0,.07,0S44,35.07,44,35.09Z"/><path class="cls-1" d="M43.62,34.45s0,0,0,0S43.64,34.44,43.62,34.45Z"/><path class="cls-1" d="M47.27,37.14l0-.14C47.17,37.09,47.24,37.1,47.27,37.14Z"/><path class="cls-1" d="M51.28,40.91a.26.26,0,0,0,.1,0h-.07Z"/><path class="cls-1" d="M48.88,37.74h0l.08-.1Z"/><path class="cls-1" d="M50,38.33s-.17.22-.24.32a.41.41,0,0,1,.15-.14A1.48,1.48,0,0,0,50,38.33Z"/><path class="cls-1" d="M51.59,39.78l0,0Z"/><path class="cls-1" d="M48.1,37.23l0-.09A.36.36,0,0,0,48.1,37.23Z"/><path class="cls-1" d="M15.38,21.2s0,0,0,0S15.37,21.19,15.38,21.2Z"/><path class="cls-1" d="M14.75,19.25h0l.08-.13Z"/><path class="cls-1" d="M42.75,33.55h0S42.78,33.54,42.75,33.55Z"/><path class="cls-1" d="M33,28.31c0,.28-.33.18-.3.52C32.77,28.73,33.1,28.53,33,28.31Z"/><path class="cls-1" d="M51.27,40.86l-.05,0S51.26,40.87,51.27,40.86Z"/><path class="cls-1" d="M32.74,28.83h0v0Z"/><path class="cls-1" d="M40.26,32.34a.56.56,0,0,0,0,.12A.55.55,0,0,0,40.26,32.34Z"/><path class="cls-1" d="M41.86,33.7l0-.06Z"/><path class="cls-1" d="M39.13,32.16s0-.07-.05-.06a.08.08,0,0,0,0,0S39.12,32.1,39.13,32.16Z"/><path class="cls-1" d="M38.16,31.61a.13.13,0,0,0,0,.06h0Z"/><path class="cls-1" d="M18.4,22.75a1,1,0,0,1,.07-.25C18.39,22.68,18.21,22.66,18.4,22.75Z"/><path class="cls-1" d="M51.36,40.78s-.07.08-.09.08h0A.21.21,0,0,0,51.36,40.78Z"/><path class="cls-1" d="M38,34.07l-.13-.13A.4.4,0,0,0,38,34.07Z"/><path class="cls-1" d="M25.38,26.64h-.05S25.35,26.66,25.38,26.64Z"/><path class="cls-1" d="M37.39,33.72a.57.57,0,0,0,0-.22.34.34,0,0,0-.06.06Z"/><path class="cls-1" d="M18.48,22.5h0Z"/><path class="cls-1" d="M17.13,22.51c.14.09.25-.28.38-.45.23,0-.05.29-.08.48.16,0,.41-.27.48-.21a.27.27,0,0,1-.07.14c.26-.19.35.18.66-.06a.29.29,0,0,1,0,.09A2.48,2.48,0,0,1,18.7,22c.07,0,.24-.13.15.09,0,0-.09.06-.15.11l.12,0c-.1.34-.15,0-.28.28.19,0,.49-.19.55,0-.15.3-.3,0-.31.3l-.1-.2c-.14.53-.08-.09-.25.47.17.21.32,0,.49.19.14-.14.12-.25.26-.39.46-.13-.19.87.25.6.17-.16.4-.52.45-.24l-.24.31c.18.14.38-.42.47-.07-.11.11-.22,0-.21.07,0,.35.2-.13.31-.07l-.15.31c.24.07.6,0,.87.07-.06.09-.15.16-.15.28.39,0,.63.4.82.74l.25-.2s0,.15-.07.18.1-.16.21-.23,0,.2-.08.25c.32-.1.83-.14.89.25l-.08.05c.1.2.48-.42.5-.09l-.06,0c.3.31.82.3.88.84.26-.34.26.36.57-.14.06.37-.05.43.14.76.06.07.3-.26.42-.26l-.15.27.29-.2-.11.36.13,0a.28.28,0,0,1,0-.24c.2,0,.23.38.16.52l.45,0a.44.44,0,0,1-.22.15c.33-.18-.13.3.17.14,0-.07.1-.15.14-.21a.31.31,0,0,0,.34.32l-.13.17c.22.19.56.21.84.36-.05-.14.15-.45.25-.43l-.13.3c.15-.15,0-.15.2-.31.09.09-.11.36-.22.42l.18,0c0,.09-.1.12-.16.22.15-.14.05.41.3.15l0,.08a5.11,5.11,0,0,0,.68.24c.14-.24.2-.13.37-.3.12.17.2.47.41.56s.15-.18.3-.29c-.12.22.09.31-.1.42a1.52,1.52,0,0,0,.73.11c0-.11,0-.17.06-.23s.08.16,0,.26l0,0c.52-.15.41,1.08.94.77h0l.42-.08c.1.11-.18.12-.16.31.51-.2.44.33.83.22-.18.76.7.33.72.9l.08-.17c.15-.11,0,.14.06.2.06-.12,0-.18.09-.24.67.13,1,.88,1.54,1.35.19.16.57-.73.63-.21l-.24.24c.62-.1.87.51,1.45.45-.06.05-.11.14-.15.11,0,.26.32.2.41,0,.06.05-.07.16-.08.27s.38-.14.31.09c0,0-.07.06-.09.06s.25.18.33-.09c.09.2.36.06.41.27.23-.22.19.28.43-.08-.23.39.1.47.3.34-.1.1,0,.17-.11.32.11.05.26,0,.35-.17,0,.59.64-.15.41.52a4.59,4.59,0,0,1,1.21.09c-.24.39-.36-.15-.58.27.38,0,.73-.24,1,0,.05.1-.13.15-.2.2.38,0,.54.35.91.28a.23.23,0,0,1-.11.08c.06,0,.08.12.18-.06l-.08,0c.07-.3.51-.43.59-.56-.37.46.18.27-.32.84a.37.37,0,0,0,.2-.2c0,.06,0,.14-.12.25.24,0,.28-.22.44-.13,0,.09-.1.1-.17.2.17-.12.35-.25.45-.1s-.06.13-.1.1c.25.11.65-.22.82.09-.29.33,0,.18-.15.51l.2,0,0-.19c.12.08.36-.1.4.07l-.16.08.26.07-.06-.2c.22-.1.22-.42.33-.24-.05,0,.12.08.08.3h0c.12-.07.24-.14.28,0s-.22.35-.24.43c.21-.24.33.09.57-.16a.94.94,0,0,0-.18.26l.18-.19c0,.1,0,.14-.08.27.15.14.18-.44.28-.15,0,0,0,0-.09.06.15.21.47.08.6.3-.13.35-.21,0-.3.3.3.09.78-.08,1,.14l0-.06c.3-.44.07.34.32.19a.7.7,0,0,0-.15.19c.14.17.43.09.79.1l-.1.1c0,.16.24.22.32.33.1-.1.16,0,.21-.24,0,.88.88,0,.87.76,0,0-.15,0-.12.07l.33,0c.09-.22,0-.14.06-.33a.33.33,0,0,1,.3-.12c-.2.07-.18.33-.2.47,0-.07.09-.12.12-.19-.07.44.25-.39.3,0l-.07.1c.1,0,.25-.12.31-.05-.1.25-.14.07-.25.26.11,0,.46-.32.42,0-.08,0-.15,0-.23,0,0,.34,0,.27.06.36h0l.12.23v-.1c.48-.53.34,0,.74-.26-.39.28-.15.21-.31.46,0,.1,0,.22,0,.29.21-.17.05.24.35,0,0,.09.08.06-.06.26.15,0,.06-.16.13-.26.34-.2.2.58.67.32.31-.05.51-.31.79-.34,0,.17-.23.28-.23.28,0,.18.13.2.28.16a.57.57,0,0,0-.1.25c.1,0,.23-.28.27-.09a3.65,3.65,0,0,1-.27.3c.13,0,.32-.13.46-.16-.06.17-.19.2-.28.27a.57.57,0,0,0,.53-.18l0-.13s-.09.21-.15.24-.09-.16,0-.25H52c.2-.54-.33-.08-.46-.19l.27-.33-.32.22c0-.11.12-.33.22-.34,0-.24-.16.08-.14-.17,0,0,0-.05,0-.06l-.16,0c.06-.07.13-.27.16-.18-.06-.31-.44.11-.35-.2h0c-.31,0-.17.25-.53.46l.24-.73-.17.25s-.06-.07,0-.17c-.2.13-.05.12-.2.26,0-.31-.4-.07-.19-.51-.16.17,0,.22-.18.29.22-.48-.2,0-.19-.28.16-.22.2,0,.21-.31-.3.36-.17-.21-.31-.19-.18.32-.28,0-.5,0,.07-.1-.2-.35-.28-.54l0,0c-.21.3-.32.15-.47.16.11-.19.17-.26.28-.31l-.1-.06a.32.32,0,0,1-.24.13l.16-.23c-.14-.06-.43.13-.52-.13-.14.21-.21.7-.48.74.06-.12.17-.33.24-.36S48,38,48,37.9l.19-.16c0-.13-.14.15-.2.09.1-.17,0-.15.11-.28s0,.1.08.05a.41.41,0,0,1,0-.37c-.05.1-.13.23-.2.22s.07-.23,0-.36c-.1.1-.12-.08-.27.18,0,0,0-.15,0-.23-.14.07-.36-.16-.43.16v0h0c-.38.12-.41-.42-.7-.45l.05-.08c-.2,0-.35-.12-.55,0,0,0,0-.21.07-.3-.15,0-.21.09-.29-.14.2-.09,0-.15.18-.05-.1-.15,0-.3-.34-.15.18-.19.06-.34-.05-.31V36a.32.32,0,0,1-.2-.12l.2-.27c-.08-.51-.85.31-.73-.4-.19.16.07.23-.13.43-.11-.11,0-.61,0-.63-.09-.26-.4.33-.53.12,0,.11-.17.4-.36.42s.08-.52.21-.56,0,.05,0,.08.15,0,.16-.16l-.08.09c0-.14-.19-.23,0-.38-.15,0-.14.15-.09.24-.09-.24-.26-.15-.38-.35,0,.08,0,.21-.07.19-.18-.27-.22.14-.42.09,0-.22.25-.36,0-.33,0-.16.13-.28.22-.34-.27.11-.22-.3-.29-.39l.13,0a.18.18,0,0,1-.15,0l-.07.23c0-.06-.07-.08,0-.17-.13.11-.16.37-.36.5,0-.15-.26,0-.13-.29.15.21.13-.29.33-.23-.05,0-.09,0-.12-.08a.12.12,0,0,1,.06-.06c-.06-.35-.26.26-.46.14.11-.14.12-.32.07-.31s-.11.28-.25.36c-.06-.19-.19,0-.25,0l0,.1c-.11.14-.16.08-.28.08.06-.12.13,0,.12-.11-.25.22-.06-.41-.31-.3,0-.14.16-.3.14-.4-.27.11,0-.31-.3-.23-.07.23,0,.18-.27.32h.36l-.35.2c.08.05.25,0,.28,0-.18.12-.14.08-.2.27.06-.37-.33.06-.34-.22l.3-.52c-.07-.33-.49.07-.67-.2l0,.14c-.15.18-.17-.06-.3,0a.77.77,0,0,0,.11-.38c-.07.13-.18-.12-.39.21v-.29c-.15-.2-.51.36-.67.19.17-.15.15-.32.35-.38-.06,0-.1-.1-.17,0,0-.12-.31.13-.28-.06-.07.06-.18.23-.25.18a.31.31,0,0,1,0-.09c0,.09-.18.05-.22.28.1-.65-.59-.28-.5-.84a2,2,0,0,1-.52-.12c0-.05,0-.09.07-.06-.09-.26-.39.43-.49.14s.19-.09.18-.23c.3-.58-.28-.06-.23-.47h.05c0-.25-.38.07-.53-.07a.21.21,0,0,0,0-.08A1,1,0,0,1,36,31c.18-.2.14-.08.24-.32-.1,0-.19.37-.37.35a1.34,1.34,0,0,1,.1-.56l.14.07c.11-.35-.18-.09-.22-.19l.08-.13c-.24-.07-.43.27-.65.11l0,.12c-.32.27,0-.25-.26-.07l.15-.36a2.47,2.47,0,0,1-.66.15,2.35,2.35,0,0,1,.67-.34c-.08,0-.29-.13-.43,0,.05,0,.14-.08.14,0-.25.21-.46.27-.62.17.41-.65-.33-.41-.15-1-.43.08-.51-.43-.87-.58-.17.59-.11,0-.39.51-.09,0-.12,0-.1-.08l-.06-.45c0-.19.14-.07.2-.2-.15-.14,0-.26,0-.47-.08.2-.21.24-.27.11v.33c-.4.14,0-.57-.35-.42l.17-.13c-.18,0-.46-.26-.82.1,0-.07.07-.23.14-.24-.25-.23-.91.08-1-.31l.1-.12c-.08,0-.24.19-.23,0s.09-.11.07-.14-.27.15-.3,0l.14-.11c-.19-.33-.64.11-.93.06a.67.67,0,0,0,0-.76l0-.05c-.3-.24-.74,0-1.14,0,0-.52-.55-.54-.73-.95,0,.1-.18.29-.26.3s-.35.15-.14-.19l0,0c.14-.37-.07-.37-.18-.44l-.28.45c.08-.84-.93-.21-.76-.9-.14.07-.23,0-.37.09l.14-.24a.92.92,0,0,0-.53-.35l.15-.15c-.14-.09-.58.61-.72.55l.17-.39c-.26-.13-.32-.6-.76-.4,0-.05.1-.16.15-.15-.11-.07-.31-.5-.55,0,.18-.33-.24-.18-.45-.11l.15-.23c-.28.25-.34.33-.54.33,0-.06.07-.22.09-.13-.05-.19-.23.18-.31,0L23,23c-.12-.09-.16,0-.33.14s-.21-.2-.1-.43c-.1.12-.27.26-.31.16a.29.29,0,0,1,.12-.14c-.12-.29-.47.1-.49-.22a.34.34,0,0,0,.06-.16c.17.1.3.19.27.2.13-.22,0-.34.3-.59-.21.11-.6.37-.68.19a.47.47,0,0,1,0-.09l0,0s-.06,0-.11,0a.23.23,0,0,0-.07-.13c.09-.19-.1-.19-.17-.23-.13.24-.2.15-.23.4,0,0,0,0,.08,0h0l0,0a.67.67,0,0,1,.18.08c-.12.09-.24.16-.24,0a3.86,3.86,0,0,1-.32.34c.1-.39,0-.68.12-.9-.29,0-.55-.19-.94.2-.09,0,0-.17,0-.26s.09,0,.15-.05c-.19.05-.38-.15-.59.15-.07-.23.25-.25,0-.31l.08-.08c-.12-.75-1.12.44-1.2-.47a.22.22,0,0,1,0,.14c-.35-.58-1.21-.32-1.46-1.07-.09-.17-.22,0-.4.13l.12-.28-.32.22c-.34.1,0-.85-.51-.58l-.07.19c-.08-.09-.36-.07-.23-.26,0,0-.14.17-.12,0l.07-.14-.37.11c-.13-.21.34-.54.08-.71-.13,0-.51.24-.52.35a.28.28,0,0,1,0,.28l-.13,0c-.25.4-.55.78-.49,1.19l.3-.16-.06.22-.14-.06c0,.23.11.09.22,0a.54.54,0,0,0,0,.25l.37-.3c-.07.17-.25.28-.19.42.17-.14.13-.39.31-.44,0,.22-.13.36,0,.25a.39.39,0,0,1-.17.2c.15-.09.24.06.4-.13-.05.27.3.09.07.47.08-.08.31-.23.39-.2-.39.38.26.18-.06.65.33-.36.46,0,.76-.12,0,0-.09.08-.09.05s0,.23.05.35c.21-.34.4-.33.6-.5-.06.4-.29.36-.43.7.15-.28.36-.16.45-.41a1.05,1.05,0,0,1-.09.45c.25-.42.12,0,.34-.24,0,.28-.19.42,0,.37C17.35,22.43,17.13,22.51,17.13,22.51ZM21,23.7h0l-.08,0Zm.29.16a.62.62,0,0,0-.12-.08c0-.09.1-.17.12-.15S21.27,23.77,21.27,23.86Zm.35-2c.06,0,.05.05,0,.1h-.1s0,0,0,0Z"/><path class="cls-1" d="M21.35,22.1h0a.2.2,0,0,0,0,.07l.06-.06Z"/><path class="cls-1" d="M47.29,37.2h0a.09.09,0,0,1,0,.05S47.29,37.22,47.29,37.2Z"/><polygon class="cls-1" points="24.99 26.58 25.02 26.52 24.97 26.55 24.99 26.58"/><path class="cls-1" d="M48.4,38.94a.17.17,0,0,0,0,.07S48.4,39,48.4,38.94Z"/><path class="cls-1" d="M49.06,39.38l0,.14A.53.53,0,0,0,49.06,39.38Z"/><path class="cls-1" d="M49.52,39.8l.07-.1h0Z"/><path class="cls-1" d="M41,35.36h0C40.87,35.38,40.91,35.38,41,35.36Z"/><path class="cls-1" d="M43.79,36.19a.51.51,0,0,1-.15.07C43.68,36.31,43.71,36.33,43.79,36.19Z"/><path class="cls-1" d="M38,34.08Z"/><path class="cls-1" d="M43.53,36.19c0,.08.06.09.11.07S43.59,36.18,43.53,36.19Z"/><path class="cls-1" d="M51.74,41.2l0,0,0,0Z"/><path class="cls-1" d="M51.79,41.19h0S51.81,41.16,51.79,41.19Z"/><path class="cls-1" d="M51.93,41.15l-.1,0S51.87,41.21,51.93,41.15Z"/><path class="cls-1" d="M51.11,40.69l-.06.09Z"/><path class="cls-1" d="M50.88,40.6s0,.26.12.25l0-.07C50.94,40.89,51,40.48,50.88,40.6Z"/><path class="cls-1" d="M50.61,39l.14.17c0-.11,0-.26.15-.24C50.83,38.53,50.83,39.17,50.61,39Z"/><path class="cls-1" d="M50.14,38.55c.12,0,.08-.13.11-.18S50.12,38.43,50.14,38.55Z"/><path class="cls-1" d="M46.16,36.31l.13-.22C46.2,36.08,46.24,36.18,46.16,36.31Z"/><polygon class="cls-1" points="44.74 37.03 44.74 37.21 44.89 37.02 44.74 37.03"/><polygon class="cls-1" points="45.19 35.19 45.24 35.17 45.07 35.19 45.19 35.19"/><path class="cls-1" d="M38.45,31.49l-.13.29C38.4,31.76,38.58,31.46,38.45,31.49Z"/><path class="cls-1" d="M35.41,30.14c0-.15,0-.29-.11-.18C35.35,30,35.35,30.16,35.41,30.14Z"/><polygon class="cls-1" points="27 24.81 27.11 24.75 26.95 24.76 27 24.81"/><path class="cls-3" d="M22.41,21.81a7.37,7.37,0,1,1-5.09-9.1A7.38,7.38,0,0,1,22.41,21.81Z"/><circle class="cls-4" cx="34.32" cy="74.85" r="7.37"/></g></g></svg>