<svg xmlns="http://www.w3.org/2000/svg" viewBox="0 0 110.03 112.21"><defs><style>.cls-1{fill:#9fc4e8;}.cls-2{fill:#ef7d00;}</style></defs><title>Element 196</title><g id="Ebene_2" data-name="Ebene 2"><g id="Ebene_2-2" data-name="Ebene 2"><path class="cls-1" d="M49.89,45.73l0,.26A1,1,0,0,0,49.89,45.73Z"/><path class="cls-1" d="M48.4,20.83c0,.19.06.26.09.27C48.46,20.93,48.43,20.78,48.4,20.83Z"/><path class="cls-1" d="M48.48,16.55v.26A.39.39,0,0,0,48.48,16.55Z"/><path class="cls-1" d="M49.89,45.73l.06-.67C49.84,45,49.89,45.41,49.89,45.73Z"/><path class="cls-1" d="M50.91,80.42a1.27,1.27,0,0,0,.11.36L51,80.44Z"/><path class="cls-1" d="M50.9,56.7v.2a.75.75,0,0,0,.15.16Z"/><path class="cls-1" d="M51.92,78.49l0,.24Z"/><path class="cls-1" d="M50.55,50.66a.16.16,0,0,0,.1-.08S50.58,50.62,50.55,50.66Z"/><path class="cls-1" d="M64.51,89.46s0,0,0,0S64.44,89.45,64.51,89.46Z"/><path class="cls-1" d="M48.31,8.75v0C48.36,9,48.34,8.87,48.31,8.75Z"/><path class="cls-1" d="M107.35,9.67c.25-.81.33,1.32.6.1C107.84,9.88,107.52,8.66,107.35,9.67Z"/><path class="cls-1" d="M50.93,80.2l0-.34A2.36,2.36,0,0,0,50.93,80.2Z"/><path class="cls-1" d="M108,9.77h0l0-.13Z"/><path class="cls-1" d="M61.71,2.82a.44.44,0,0,0-.19-.12S61.57,2.76,61.71,2.82Z"/><path class="cls-1" d="M50,5.78l.27-.18A1.79,1.79,0,0,0,50,5.78Z"/><path class="cls-1" d="M68.65,2.42a1.27,1.27,0,0,0,.49,0l-.07,0A.62.62,0,0,1,68.65,2.42Z"/><path class="cls-1" d="M75.89,2.42l-.14,0h-.23Z"/><path class="cls-1" d="M86.35,91.82a1,1,0,0,1-.3-.29C86.14,91.75,85.08,91.7,86.35,91.82Z"/><path class="cls-1" d="M51.07,80.41a.25.25,0,0,1-.14-.21l0,.24A.07.07,0,0,0,51.07,80.41Z"/><path class="cls-1" d="M69,.21l1.15,0C69.78.22,69.36.21,69,.21Z"/><path class="cls-1" d="M109.66,58.36l0,.26A.53.53,0,0,0,109.66,58.36Z"/><path class="cls-1" d="M73.51.21a2.36,2.36,0,0,0,.64.19.46.46,0,0,0,.14-.07Z"/><path class="cls-1" d="M86.05,91.53Z"/><path class="cls-1" d="M101.12,91.48H101a.63.63,0,0,1,.15.08s0,0,.06-.08Z"/><path class="cls-1" d="M49.87,46v0a.62.62,0,0,1,0,.1S49.86,46.06,49.87,46Z"/><polygon class="cls-1" points="109.8 60.75 109.73 60.75 109.79 60.94 109.8 60.75"/><path class="cls-1" d="M49.7,57.89a.24.24,0,0,0-.06.16A.46.46,0,0,0,49.7,57.89Z"/><path class="cls-1" d="M50,63l0,.73C50,63.41,50,63.18,50,63Z"/><path class="cls-1" d="M50.1,66.92a.24.24,0,0,0,.13.07h0Z"/><path class="cls-1" d="M48.52,4.59l.11-.12C48.86,4.18,48.69,4.36,48.52,4.59Z"/><path class="cls-1" d="M47.48,23.12c-.06-.19-.12-.38-.17-.59C47.31,22.86,47.32,23.12,47.48,23.12Z"/><path class="cls-1" d="M68.82.2h0Z"/><path class="cls-1" d="M47.26,21.67a2.38,2.38,0,0,0,.05.86A4.14,4.14,0,0,0,47.26,21.67Z"/><path class="cls-1" d="M51.12,83.92v.18s0,0,0,0Z"/><path class="cls-1" d="M51.16,84.13l.05.24C51.2,84.26,51.2,84.16,51.16,84.13Z"/><path class="cls-1" d="M51.36,84.91a4,4,0,0,1-.15-.54A.91.91,0,0,0,51.36,84.91Z"/><path class="cls-1" d="M50.9,78.72l-.11,0A.14.14,0,0,0,50.9,78.72Z"/><path class="cls-1" d="M50.76,77.15a6.85,6.85,0,0,0,0,1.47l.08,0C50.62,78.42,51,77.5,50.76,77.15Z"/><path class="cls-1" d="M49.47,36.78l.26.06C49.66,36.29,49.63,36.84,49.47,36.78Z"/><polygon class="cls-1" points="47.77 31.19 47.65 31.73 47.9 31.97 47.77 31.19"/><polygon class="cls-1" points="49.36 27.74 49.41 27.98 49.26 27.07 49.36 27.74"/><path class="cls-1" d="M74.6,2.67l-.17-.31C74.06,2.41,74,2.77,74.6,2.67Z"/><path class="cls-1" d="M96.12,2.35a1.57,1.57,0,0,0,1.22.1A12.16,12.16,0,0,0,96.12,2.35Z"/><polygon class="cls-1" points="107.27 55.04 107.17 54.61 107.25 55.42 107.27 55.04"/><path class="cls-1" d="M46.31,12.14V12a.44.44,0,0,1,0-.19C46.28,11.91,46.3,12,46.31,12.14Z"/><path class="cls-1" d="M109.34,44.71l.32-.24c-.2-.38-.12.63-.37-.16,0-.77.37-.52.48-.08l-.12-.93c.1,0,.15.17.28.22-.2-.38.32-1.59,0-2.14l.1-.05c0-2-.11-3-.13-4.63-.28,0-.21-.68-.44-1.17.09-1.22.31-2.58.29-4.05-.14-1-.24-.3-.41-.76.26-.08.23-1.55.42-.79,0-1.76,0-2.25-.26-4.48-.11.24-.15.51-.24.37,0-.4.11-.92.23-.86l0,.11c-.39-2.51.74-5.78.21-7.78l0,.11-.28-2.06c0-1,.19.57.35-.14-.43-2.23.06-3.52-.22-5.36a7.65,7.65,0,0,0,.31-3.3c0-.66,0-1.34,0-2a5.94,5.94,0,0,0-.54-2.41l-.07.23c-.53-.49-.41-.76-.8-1.17,0,.15.45.66.07.41a4.22,4.22,0,0,0-1.93-1A4.13,4.13,0,0,0,105.5.48h-.81c-1.08,0-2.16-.06-3.25-.12C99.25.24,97.06.08,94.9,0,93.33,0,94,.92,92,.5l.57-.33c-3.18.39-6.51,0-9.62.32.19-.08.19-.18.5-.17A4.09,4.09,0,0,0,81,.5c-.48,0-.11-.18-.41-.28C80,.08,79,.53,78.61.29c-.06,0,.18-.08.3-.1-.43.12-2,0-1.59.25-1.17-.13-2.23.12-3.17,0-.6.31-2-.15-2.19.29.08-.45-2-.37-2.79-.15.25-.14-.64-.14-.35-.33C68,.21,67.2.3,67.35.53,65.8,0,64.23,1,63.35.27c-2.5.24-4.82.41-7.07.51.08-.45,2.49,0,2.39-.51C57.2.39,56.2.61,55,.71a5.81,5.81,0,0,0-2.07.79c-.54.25.17-.34.35-.5a31.78,31.78,0,0,0-2.71,1.89A13.31,13.31,0,0,0,48.3,5s.09-.21.22-.37c-.28.26-.7.59-.53.7L48.23,5c.63-.23-.66,1.53-.54,1.7,0-.44-.36-.1-.68.23s-.63.69-.61,0c-.14.23-.25.73-.08.7-.16.24-.19.42-.25.46S46,8,46,7.66a2.3,2.3,0,0,0,0,1.15c0,.16.09.26.13.36a2.66,2.66,0,0,1,.19,1c-.1,0-.16-.24-.28-.35a7.08,7.08,0,0,1,.34,1.07v-.72a2.82,2.82,0,0,1,2.51-2.8A1.51,1.51,0,0,1,49,6.88c.73-.55.63-.78,1-1.1l-.45.33c0-.25.37-.56.84-1,.13.07-.39.46-.18.35.35-.72,1.46-.81,2.15-1.56.44-.17.23.24.6.07a2,2,0,0,1,1-.59,3.5,3.5,0,0,0,.92-.42c-.14-.07-.23-.09-.22-.14a.46.46,0,0,1,.11-.12l.11-.1.11-.09a6.35,6.35,0,0,0-1.37.83,11.63,11.63,0,0,1,.86-.86c-.49.22-1,.68-1.27.84.39-.49.38-.39,0-.42a2,2,0,0,0,.94-.43A1.73,1.73,0,0,1,55,2a2.83,2.83,0,0,1,.37.06l0,.59c1.45.26,2.57-.3,4.45-.15l-.6-.11c.25-.23,1.15,0,1.76-.12,0,.19.32.26.58.39,0-.15,1.38,0,1.55-.38l.84.26c1.51.1,1.73-.57,3.18-.5-.44.22.23.36-.75.51.49,0,.92,0,.93-.1.29.12,1.35-.27,1.8-.08.2-.08.27-.29.81-.27.06,0,0,.09,0,.09s.86-.13.38-.35c1.5.62,4.19,0,5.49.49,1.06-.07,2.34-.13,3.31-.15-.07.06,0,.1-.19.08,1.33.18.82-.57,2.33-.36.77.32-.8.17-.32.29.21.65,1.82-.09,2.84.29l-.24,0c.77.22,1.89-.25,3.16-.2,0,0-.06.06,0,.1a16.49,16.49,0,0,1,3.74-.53c-.39.25-.56.13-.33.39.55,0-.16-.42.94-.49.35.14,1.14.26,1.25.54h-1c.53.36,1.34,0,1.88.05L93,2.59c1.59,0,1.61-.45,3.31-.42l-.18-.12c.93-.38.78.22,1.71-.07l.28.4c.61-.1,2.14-.38,3.24-.46a15.33,15.33,0,0,1-2.7.62,8.8,8.8,0,0,0,2.38-.22,2.36,2.36,0,0,1-.79.07,7.72,7.72,0,0,1,2.93-.46c-.1.39.68.43,1.61.46l.71,0a1.86,1.86,0,0,1,.51.09.78.78,0,0,1,.54.5,1.41,1.41,0,0,1,.75.69,1.52,1.52,0,0,1,.16.51,4.29,4.29,0,0,1,0,.63c-.06,1.11-.15,2.26-.13,3.5.59-.88,0,.73.63.58a2.21,2.21,0,0,1,0,.85l-.37,1.77c-.18.41-.13-.56-.27-.5,0,1.27-.26.53-.42,1.37.22-.17.31.45.23,1.17l.28-1c.32,1.78-.51,1.54-.19,3.33l-.19-.57c.11.92,0,3.4.48,4.3-.07.16-.23.38-.28,0-.07,2.2.52,4.89.22,6.6L107.3,26c0,.41.28.71.13,1.22-.06,0-.15-.16-.16,0a4.81,4.81,0,0,1,.18,1.63l-.17-.46c-.19,2.14.41,3.29.51,5.09-.44,0-.58,1.68-.65,2.52l-.06,0a59.26,59.26,0,0,0,.53,6.56c-.47,1.43-.2,4.86-.46,7.16.08-.35.34.06.38.47s.31,1.5-.09,1.41v-.19c-.39.41-.29,1.52-.3,2.39l.53.14c-.77,2.27.28,6-.41,7.2.14.54.13,1.22.27,1.77l-.29,0a39.91,39.91,0,0,0,0,4.15l-.2-.38c0,1.06.82,1.34.83,2.32l-.42.29c0,1.85-.36,3.72,0,5.54-.06,0-.18-.08-.2-.38,0,.87-.29,3.37.29,3-.38,0,0,1.91.13,2.9l-.28-.15a4.44,4.44,0,0,1,.56,2c0,.28-.23.25-.16-.12-.14.93.27.72.12,1.85l-.18-.42a2.53,2.53,0,0,0,0,.65,3.54,3.54,0,0,1,0,.49c-.12.56-1,1.45-1.23,1.41a1.43,1.43,0,0,1-.47,1.12c-.12,0,0-.2,0-.29-1.1,1.1-1.23,2-2.17,2.6a.26.26,0,0,0-.24,0c.86-.87,1.5-1.64,1.46-1.56-.2-.16-.88.56-.64-.27a7.24,7.24,0,0,1-1.71,2.52,2.83,2.83,0,0,1-2.8,2.45H95.83l-.22.17c1.5.21.92-.45,2.47,0-.3.12-1.2,0-1,.06,1,.42.75-.13,1.53,0l.13.35c.4,0,.81.06,1.24.08l.63,0H101a1.18,1.18,0,0,0,.53,0c.17,0,.34-.08.5-.14l.45-.24c.25-.16.42-.32.63-.48.37-.32.71-.65,1-1,0,.14-.18.44.22.22a65.52,65.52,0,0,0,4.83-5.55,9.75,9.75,0,0,0,.18-1c.09-.22.3-.42.25-.12.4-1.36-.15-.1-.14-.77a2.84,2.84,0,0,1,0-.38.27.27,0,0,1,.07-.16c.05-.06.12,0,.16.13a20.65,20.65,0,0,1-.22-5.83l.09.3c.12-1.22-.6-1.38-.33-2.52l0,.22c.13-2.66-.14-5.6.31-7.63-.43-.39.18-2.64-.41-2.81a16.61,16.61,0,0,0,.6-3.22c0-.57-.37-.85-.43-1.56l.31,0-.33-1,.37-.51-.08-.66c0,.27-.14.56-.22.52a4.74,4.74,0,0,1,.37-2.55l-.26-2.45c.12.06.16.47.24.79-.31-1.3.33-.23,0-1.43-.07.16-.18-.09-.25-.12a10.19,10.19,0,0,0,.11-3l.22.2c0-1.82-.11-3.83-.1-5.87C109.74,45.48,109.37,45.31,109.34,44.71ZM103.7,91.8l.39-.38h0ZM105,90.52c-.12,0-.13-.14,0-.3,0,.13.37-.2.64-.39C105.45,90,105.22,90.27,105,90.52Z"/><path class="cls-1" d="M93.25,92.73a1.73,1.73,0,0,0,1,.06l.13-.06Z"/><path class="cls-1" d="M49.14,93.4c.15-.09.09-.27-.39-.27a3.83,3.83,0,0,1-.39.27A4.07,4.07,0,0,0,49.14,93.4Z"/><path class="cls-1" d="M46.78,91.55c-.42-.28-.87-.84-1-.38.52.41.49.61,1.15.8.32.29.52.58.39.64.17,0,.61.44.92.3-.48-.43-1-.75-1.62-1.26C46.55,91.47,46.71,91.56,46.78,91.55Z"/><path class="cls-1" d="M46.77,52.06l0,.26A.68.68,0,0,0,46.77,52.06Z"/><path class="cls-1" d="M47,27.55c0,.19,0,.27.07.28C47,27.65,47,27.51,47,27.55Z"/><path class="cls-1" d="M47.32,23.37l0,.24A.35.35,0,0,0,47.32,23.37Z"/><path class="cls-1" d="M46.77,52.06l.11-.65C46.77,51.36,46.8,51.74,46.77,52.06Z"/><path class="cls-1" d="M45.46,86.17a1.72,1.72,0,0,0,.09.36l0-.34Z"/><path class="cls-1" d="M47,62.87v.2a1.07,1.07,0,0,0,.14.16Z"/><path class="cls-1" d="M47.09,71.16c0-.19-.27-.25-.39-.32a.59.59,0,0,1,.19.41A.35.35,0,0,0,47.09,71.16Z"/><path class="cls-1" d="M46.6,84.31l0,.23Z"/><path class="cls-1" d="M47.1,56.93a.18.18,0,0,0,.1-.07A.15.15,0,0,0,47.1,56.93Z"/><path class="cls-1" d="M58.76,94.05s0,0,0,0S58.69,94.05,58.76,94.05Z"/><path class="cls-1" d="M49.14,92.66l.14,0a.8.8,0,0,0,0-.15Z"/><path class="cls-1" d="M47.68,15.71v0C47.71,15.94,47.7,15.83,47.68,15.71Z"/><path class="cls-1" d="M101.65,15.17c.26-.8.33,1.29.61.09C102.15,15.38,101.82,14.17,101.65,15.17Z"/><path class="cls-1" d="M45.5,86v-.33A1.61,1.61,0,0,0,45.5,86Z"/><path class="cls-1" d="M102.26,15.26h0l0-.12Z"/><path class="cls-1" d="M56.79,8.52a.47.47,0,0,0-.18-.12S56.65,8.46,56.79,8.52Z"/><path class="cls-1" d="M47.11,11.21l0-.33A1.47,1.47,0,0,0,47.11,11.21Z"/><path class="cls-1" d="M63.61,8.12a1.23,1.23,0,0,0,.48,0l-.07,0A.6.6,0,0,1,63.61,8.12Z"/><path class="cls-1" d="M70.72,8.12l-.13-.06-.23,0Z"/><path class="cls-1" d="M80.35,93.92a1,1,0,0,1-.33-.26C80.13,93.86,79.09,93.93,80.35,93.92Z"/><path class="cls-1" d="M45.62,86.17A.27.27,0,0,1,45.5,86v.24S45.59,86.22,45.62,86.17Z"/><path class="cls-1" d="M63.9,5.9,65,6C64.71,5.92,64.3,5.9,63.9,5.9Z"/><path class="cls-1" d="M104,63l0,.26A.68.68,0,0,0,104,63Z"/><path class="cls-1" d="M68.38,5.9a2.31,2.31,0,0,0,.63.2L69.15,6Z"/><path class="cls-1" d="M80,93.66Z"/><path class="cls-1" d="M72.58,94.33c1.08,0,.51-.36.74-.58,1.28-.1.59.28,1,.46.8-.09,1.41-.43,2-.42,0,.06.16.09,0,.16.84-.29,2.51,0,3.5-.38a.29.29,0,0,1,.13.09.55.55,0,0,1-.15-.51c.48,0,.89-.23,1.07,0-.29,0-.32.09-.45.17l.5-.11c.46.35-.69.12-.69.38a15.17,15.17,0,0,1,2.89-.3c.16.34-1.77.11-.76.41l-1.17-.13c.9.54-.71,0,.11.54,1.54.1,1.72-.17,3.26-.08.34-.18-.12-.27.23-.46,2.18-.34,1.71.85,3.32.4a1.69,1.69,0,0,1,1.71-.43l-.39.38c1.49,0,.85-.55,2.41-.29-.28.15-1.17.13-.94.17,1,.31.71-.22,1.49-.22l.16.35c1.58-.06,3.33-.3,5.08-.37-.09.11-.39.21,0,.32.55,0,1.12-.07,1.7-.07.3,0,.54,0,1,0a4.6,4.6,0,0,0,1.19-.29A4.11,4.11,0,0,0,103.49,92a3.85,3.85,0,0,0,.53-1.1,4.34,4.34,0,0,0,.14-.6l.06-.53-.3-.81c0-.19.13-.35.19-.15.11-.83-.18,0-.3-.44s.17-.63.26-.33a19.57,19.57,0,0,1-.23-5.73l.09.31c.12-1.21-.6-1.36-.33-2.48l.06.21c.12-2.61-.15-5.5.3-7.49-.43-.38.19-2.59-.4-2.76a17,17,0,0,0,.59-3.17c0-.56-.37-.84-.43-1.53l.31,0-.32-.94.36-.5-.07-.65c0,.26-.14.55-.23.51a4.52,4.52,0,0,1,.37-2.5l-.26-2.41c.12.05.17.46.25.77-.32-1.28.32-.23,0-1.41-.07.16-.18-.08-.24-.11a10.59,10.59,0,0,0,.11-2.91l.21.19c.05-1.78-.1-3.76-.1-5.76-.1.71-.47.55-.5,0l.32-.23c-.2-.38-.12.61-.37-.17,0-.75.37-.5.48-.07l-.11-.91c.09-.06.15.16.27.21-.2-.37.33-1.57,0-2.11l.09,0c0-2-.11-2.91-.12-4.54-.28,0-.22-.67-.45-1.15.09-1.2.31-2.53.29-4-.14-1-.24-.29-.41-.75.26-.08.23-1.52.42-.77,0-1.73,0-2.21-.26-4.41-.11.24-.15.51-.24.37,0-.4.11-.9.23-.85l0,.11c-.39-2.46.74-5.68.21-7.64l0,.11-.28-2c0-.94.19.56.35-.13-.43-2.2.06-3.47-.22-5.27a7.25,7.25,0,0,0,.31-3.24c0-.65,0-1.32,0-1.94a5.73,5.73,0,0,0-.56-2.4l-.06.23c-.53-.48-.43-.75-.81-1.15,0,.15.45.65.07.41a4.17,4.17,0,0,0-1.94-1,3.35,3.35,0,0,0-.54-.08l-.49,0H99c-1.06,0-2.13-.06-3.2-.12-2.14-.11-4.3-.27-6.42-.35-1.54,0-.88.92-2.83.5l.56-.33c-3.13.39-6.39,0-9.45.32.18-.08.19-.18.48-.18a3.93,3.93,0,0,0-2.4.19c-.47,0-.11-.18-.4-.28-.65-.14-1.63.31-2,.07-.06,0,.18-.08.3-.1-.42.12-2,0-1.56.25C71,6,69.93,6.26,69,6.1c-.59.31-2-.15-2.15.29.08-.45-2-.37-2.74-.15.24-.14-.63-.15-.35-.34-.82,0-1.58.09-1.44.33-1.53-.54-3.07.43-3.93-.26-2.46.24-4.73.41-6.95.51.08-.45,2.45,0,2.35-.52-1,.1-1.87.24-2.7.35-.41.05-.82.09-1.26.12l-.69,0a4.1,4.1,0,0,0-1,.11c-.71.14.33-.33.61-.39A4.21,4.21,0,0,0,45.55,8.6a3.69,3.69,0,0,0-.27,1,2.81,2.81,0,0,0,0,.5c0,.16,0,.25,0,.38,0,.48,0,1,.11,1.42,0,0-.08-.21-.12-.4,0,.37-.07.86.14.82l-.06-.36c.3-.59.63,1.46.78,1.53-.58-.63-.15,1.84-.89.85,0,.24.14.54.28.49,0,.36-.12.47-.28.11.11,1.31.33.85.32,2-.1,0-.13-.24-.25-.37a5,5,0,0,1,.3,2.22c-.06-.06-.13.06-.13-.24,0,1.73.51,3,.33,4.85-.44-.56-.15.65-.52.75l.11,1,.18-.41a18.09,18.09,0,0,1,.15,2.46l-.16-.67.07,1.68.14-.95c.2.91.48-.1.37,1.1a8.47,8.47,0,0,1-.22,1.36h0A3.55,3.55,0,0,1,46,31.31c-.12.17-.41-.14-.49,0,.31.44.08,2.1.42,2.65-.08-.18-.28-.19-.32-.13l.25.36c-.08.42-.12.48-.27.41-.05,1.25.47-.39.27,1.09,0-.12-.06-.06-.1-.31-.11,1.49.16,2.88,0,4.24-.38.41-.09-1.19-.41-.73.07,2,.45,4.08.36,6l0-.36c.53.27-.26,1.42,0,2.39,0-.24-.29-.31-.24-.25a34.69,34.69,0,0,0,.3,4.65L45.75,51c-.13.76-.08,2-.14,2.85.14.25.12.73.31.44-.77,2.56.42,4.89-.23,7.16,0-.27-.11-.65-.12-.43L45.7,63c.23-.16.14-.26.32-.67a3.13,3.13,0,0,1,.24,1.28c-.15-.87-.37,0-.5.38.07-.06.15.07.22,0-.41,1,.47.17.19,1.56l-.12-.08a8.76,8.76,0,0,1,.19,1.55c-.27.24-.13-.55-.35-.58,0,.78.51,1.54.24,2.25-.07-.33-.07-.81-.15-1.14A3.26,3.26,0,0,0,45.7,69V69l-.14,1.32.08-.33c.7,1,.13,2,.58,3.31C45.8,72,46,73.05,45.68,73c-.08.34-.18.85-.26.7.24.63-.19,1,.16,1.93-.09,0,0,.66-.25.52.07.81.17-.19.29-.12.33,1.25-.4,2.94.05,4.74.19,1.55.52,1.84.68,3.28-.15.48-.35-.4-.35-.4a6,6,0,0,0,0,2.11c-.08-.15-.15,0-.26.23,0,.59.35.4.21,1.18a2.14,2.14,0,0,1-.39-.59c.09.69.27,1.38.36,2.11-.17.19-.26-.44-.37-.69.09.82.12,2.07.46,2.4a3.43,3.43,0,0,1,.06-.57c0,.31-.24.15-.28-.07-.21-.69.09-1,.19-1l.06.52c.57-.53-.09-2.07-.06-3.11l.42.43L46,85.45c.11-.23.34-.38.4.13.21-.74-.14-.66.09-1.3,0-.07,0,0,.07,0l-.13-.72c.09.14.3-.13.24.32.24-1.3-.31-2.1,0-2.59l0,.11c-.14-1.81-.31-.18-.67-1.53l.76-.92-.31-.17c0-.19,0-.56.16-.49-.21-.7-.14.12-.33-.29.28-.89-.13-2.47.35-2.67-.23-.33-.18.85-.34-.1.53-.28-.09-1.11.15-1.93.27.25.13,1,.37.21-.46-.5.1-1.6,0-2.29-.36,0-.15-1.51-.27-2.67A31.5,31.5,0,0,0,47,65.32l.06,0c-.36-.21-.29-1.33-.37-2.14.22,0,.31.18.4.62v-.76a1.87,1.87,0,0,1-.22-.91l.28.19A16.9,16.9,0,0,1,47,59c-.26-.08-.72,1-.89-.34.14-.06.38-.11.43.25a1.81,1.81,0,0,1,0-.66l.23.56c.1-.6-.19-.32-.17-.79.19,0,.14-.35.3-.28,0,.12-.09.41,0,.59a3.91,3.91,0,0,1,.3-1.4c-.11,0-.26,0-.29-.39,0-1,.24-.35.34-.94-.14-.24,0-.89-.29-.91,0-.3.14-.35.22-.47-.13-.52,0-2.45-.35-1.86l0,.14,0-.09h0c-.29-1.72.17-3.57.05-5.28h.09a24,24,0,0,0-.27-3c0-.3.18-.71.29-.58a5.61,5.61,0,0,1,0-2c.17.78.15-.27.13.8a5.25,5.25,0,0,0,0-2.33c.25.37.32-.76.24-1.24l-.18.7A14.68,14.68,0,0,1,47,38l.33.26c.41-2.07-.69-3.74,0-5.32-.23-.54-.16,1.13-.44.64a17,17,0,0,1,.53-2.25c.18-1.3-.49-1.22-.36-2.58-.12.17-.44.34-.55-.68,0-1,.5-1.18.59-.57,0,.22,0,.34-.06.33,0,.3.09.71.22.33L47.13,28c.12-.48.11-1.79.3-1.48-.11-.72-.19-.31-.25.22.17-1.22,0-1.91.12-3.17-.07.2-.21.39-.21.19.15-1.85-.22-.81-.27-2.07.18-.71.43.26.28-1,.12-.77.31-.17.41.14a8.6,8.6,0,0,1,.19-2.8l.1.6a5.38,5.38,0,0,1-.06-1l-.23.34c0-.35,0-.66.14-.65-.16-.36-.4.28-.61-.44.12-.48-.13-1.45.18-1.61-.1,1.49.32-.16.37,1.1a3.41,3.41,0,0,1,0-.9c0-.05.06,0,.08.15.28-1.43-.36-.66-.35-2.13.18.18.34-.35.3-.59,0,.6-.3.29-.43-.26.14-1-.1-1-.09-1.52l-.06.56c-.18-.19-.16-.66-.21-1.32.13-.06.09.6.15.36a1.26,1.26,0,0,1-.08-.58,1.43,1.43,0,0,1,.14-.51c.17-.31.4-.56.55-.9.31-.16.27.2.5.09a.62.62,0,0,1,.61-.31,2.85,2.85,0,0,0,.29,0,.81.81,0,0,0,.21,0,3.32,3.32,0,0,0,.41,0c-.35-.24-.41-.18.44-.41-.32,0-.69.05-1,.09a1.75,1.75,0,0,0-.61.2A1.8,1.8,0,0,1,49.35,8a2.42,2.42,0,0,0-1.19.36c.32-.37.34-.28,0-.39a3.58,3.58,0,0,0,1-.14,3.29,3.29,0,0,1,1.33,0l0,.59c1.42.26,2.53-.3,4.37-.16l-.59-.1c.24-.23,1.14,0,1.73-.13-.05.2.32.27.58.4,0-.15,1.35,0,1.51-.39l.83.26c1.48.11,1.7-.56,3.13-.49-.43.21.22.35-.74.51.47,0,.9,0,.91-.1.28.12,1.33-.27,1.77-.08.2-.09.26-.29.8-.28.06,0,0,.1,0,.1s.84-.13.37-.35c1.47.62,4.11,0,5.4.48,1-.06,2.29-.13,3.24-.14-.06.06,0,.1-.18.08,1.31.18.8-.57,2.29-.36.76.31-.79.17-.32.29.21.65,1.8-.09,2.8.29l-.25,0c.77.22,1.87-.25,3.12-.2,0,0-.06.06,0,.1A16.55,16.55,0,0,1,85,7.62c-.37.26-.54.14-.31.4.53,0-.16-.42.91-.49.35.14,1.13.26,1.23.54h-1c.52.36,1.31,0,1.84.05l-.06.16c1.55,0,1.57-.45,3.24-.42l-.17-.12c.91-.39.77.22,1.68-.07l.27.4c.6-.1,2.11-.38,3.19-.46a16.8,16.8,0,0,1-2.66.62A8.09,8.09,0,0,0,95.44,8a2.08,2.08,0,0,1-.78.08,7.35,7.35,0,0,1,2.89-.46c-.11.38.67.43,1.58.46a5.09,5.09,0,0,1,1.22.1.69.69,0,0,1,.52.48,1.25,1.25,0,0,1,.74.65,1.36,1.36,0,0,1,.16.48,4.05,4.05,0,0,1,0,.61c-.06,1.09-.15,2.22-.13,3.45.6-.87,0,.71.63.56a2.17,2.17,0,0,1,0,.84L101.89,17c-.17.41-.13-.54-.27-.49-.05,1.25-.26.53-.42,1.35.22-.17.31.44.23,1.15l.28-1c.33,1.75-.51,1.51-.19,3.27l-.19-.56c.11.91,0,3.34.49,4.22-.08.16-.24.37-.29,0-.07,2.16.53,4.81.22,6.48l-.15-.16c.05.4.29.7.13,1.21-.06,0-.14-.17-.15,0a5,5,0,0,1,.17,1.61l-.17-.46c-.19,2.11.41,3.23.52,5-.44,0-.59,1.65-.66,2.48l-.06,0a54.61,54.61,0,0,0,.54,6.44c-.48,1.41-.2,4.78-.47,7,.08-.35.34.05.39.46s.3,1.47-.1,1.38V56.2c-.39.4-.29,1.5-.3,2.35l.53.14c-.77,2.23.28,5.85-.4,7.07.13.54.13,1.21.26,1.74l-.29,0c-.07,1.49-.1,2.24,0,4.08l-.2-.37c0,1,.82,1.31.84,2.27l-.43.29c0,1.82-.36,3.65,0,5.45-.06,0-.18-.08-.2-.38,0,.86-.29,3.31.29,3-.37,0,0,1.87.13,2.85l-.27-.15a4.44,4.44,0,0,1,.55,2c0,.27-.23.24-.15-.13-.15.92.26.72.11,1.82L102,87.8a2.19,2.19,0,0,0,.28,1.38,2.19,2.19,0,0,1-.05,1c-.11.3-.31.5-.45.49a.7.7,0,0,1-.3.88c-.11,0,0-.18,0-.25a4.53,4.53,0,0,1-1.21.67,1.74,1.74,0,0,1-.29.07l-.37,0a2.59,2.59,0,0,1-.77-.08.27.27,0,0,0-.19-.17h1.51c.28,0,.43-.08.4,0-.11-.23-.64-.18-.28-.61a1,1,0,0,1-.37.21c-.26.07-.54.14-.83.19a5.27,5.27,0,0,1-1.65.13.51.51,0,0,1-.13-.09l.1,0a1.8,1.8,0,0,0-.62.05A4.54,4.54,0,0,0,96,91.6c-.12-.21-1.16-.12-1.66-.13,0,.28-.61.24,0,.47-.08,0,.1,0,.43,0l.22,0,0,0,1.25,0a2,2,0,0,1-1.37.11,7.57,7.57,0,0,1-.7.45c-.69-.39-2-.6-2.2-.84-1.53.16-3.61.1-4.58.63-.43.07-.5-.15-.66-.23a4.06,4.06,0,0,0,.69-.13c-.87.14-2.59.06-2.79.43-1.1-.17.61-.34-.9-.28l.21-.12c-3-.59-4.83,1-8.13.19.23,0,.34.07.39.13-3.76-.33-7.74.31-11.45-.22a3.27,3.27,0,0,0-1.81.31l-.22-.3-1.1.35c-1.56.25-2.7-.74-4.68-.26l.26.2c-.71,0-2.25.12-2.13-.11a.49.49,0,0,1-.51.1l0-.15-1.74.27c-1.35-.12.21-.63-1.76-.66-.73.06-2.08.46-1.81.56s.76.1.78.26l-.67.08c-.12.47-.64,1,1,1.27l1.14-.28.37.22-1,0a1.62,1.62,0,0,0,1.28-.11.74.74,0,0,0,.48.25l1.12-.44c.14.18-.5.36.25.46.53-.21-.5-.41.37-.55.55.22.39.39,1,.21.09.12,0,.19-.3.25.57-.15,1.51-.06,1.81-.31.57.26,1.93-.07,1.88.37a4.63,4.63,0,0,1,1.53-.36c-1,.52,2,0,1.72.59.71-.47,2.56-.21,3.82-.47a.55.55,0,0,1-.32.09,6.45,6.45,0,0,1,1.37.27c.09-.39,1.2-.48,1.79-.72.87.38-.52.46-.25.82,0-.32,1.51-.32,1.21-.58.67.23.58.11.92.44.11-.49.62-.09,1.17-.39,1,.25.24.46,1.3.31C73.52,94.15,72.58,94.33,72.58,94.33Zm25.13-.85h-.52Zm2.11,0c-.26,0-.58,0-.92,0-.07-.09,0-.19.22-.19C99,93.34,99.5,93.39,99.82,93.48Zm-4.47-2c.34,0,.45,0,.49.07l-.58,0,0,0A.35.35,0,0,1,95.35,91.53Z"/><path class="cls-1" d="M94.75,91.9l-.14,0,.2.06.12-.09Z"/><path class="cls-1" d="M46.73,52.36v0a.19.19,0,0,1,0,.09Z"/><polygon class="cls-1" points="104.1 65.36 104.03 65.36 104.09 65.55 104.1 65.36"/><path class="cls-1" d="M45.76,64a.34.34,0,0,0-.07.15S45.74,64.07,45.76,64Z"/><path class="cls-1" d="M45.7,69l-.1.71C45.66,69.42,45.68,69.19,45.7,69Z"/><path class="cls-1" d="M45.56,72.88a.4.4,0,0,0,.12.07h0Z"/><path class="cls-1" d="M45.23,11.47a.76.76,0,0,0,0-.15C45.16,11,45.18,11.21,45.23,11.47Z"/><path class="cls-1" d="M45.89,29.75c0-.2-.1-.39-.14-.59C45.73,29.48,45.73,29.74,45.89,29.75Z"/><path class="cls-1" d="M63.78,5.9h0Z"/><path class="cls-1" d="M45.76,28.31a2.71,2.71,0,0,0,0,.85A4,4,0,0,0,45.76,28.31Z"/><path class="cls-1" d="M45.43,89.61v.19l0,0Z"/><path class="cls-1" d="M45.47,89.82l0,.25C45.5,89.94,45.5,89.84,45.47,89.82Z"/><path class="cls-1" d="M45.64,90.61a3.53,3.53,0,0,1-.13-.54A.9.9,0,0,0,45.64,90.61Z"/><path class="cls-1" d="M45.56,84.5l-.1-.06A.17.17,0,0,0,45.56,84.5Z"/><path class="cls-1" d="M45.53,83a7.41,7.41,0,0,0-.15,1.44l.08,0C45.31,84.2,45.71,83.3,45.53,83Z"/><path class="cls-1" d="M46.79,76.46l-.08,1.3c.11-.22.26-.52.28.07C47.32,76.19,46.75,78.17,46.79,76.46Z"/><path class="cls-1" d="M47,72.43c0,.7.16,0,.22,0C47.07,72,47.05,71.9,47,72.43Z"/><path class="cls-1" d="M47,43.26l.26.07C47.17,42.79,47.11,43.32,47,43.26Z"/><polygon class="cls-1" points="45.63 37.68 45.47 38.2 45.71 38.45 45.63 37.68"/><polygon class="cls-1" points="47.45 34.38 47.49 34.62 47.4 33.72 47.45 34.38"/><path class="cls-1" d="M69.45,8.37l-.16-.32C68.93,8.11,68.85,8.46,69.45,8.37Z"/><path class="cls-1" d="M90.6,8.05a1.5,1.5,0,0,0,1.19.1A11.48,11.48,0,0,0,90.6,8.05Z"/><polygon class="cls-1" points="101.57 59.75 101.47 59.33 101.56 60.13 101.57 59.75"/><path class="cls-1" d="M58.21,32.85c0,.09,0,.28,0,.24l0-.33Z"/><path class="cls-1" d="M58.55,33.46a1.59,1.59,0,0,0,.09-.74c-.06.31-.07.18-.13.56-.06,0-.09-.11-.09-.23,0,.09-.08-.07-.1.14s.15.26.24.05A.53.53,0,0,1,58.55,33.46Z"/><path class="cls-1" d="M63.58,34l0,0Z"/><path class="cls-1" d="M66.7,34.16a.08.08,0,0,0,0,.07S66.71,34.19,66.7,34.16Z"/><path class="cls-1" d="M67.23,34.53l0,0S67.22,34.55,67.23,34.53Z"/><path class="cls-1" d="M63.58,34l.09.1C63.67,34,63.62,34,63.58,34Z"/><path class="cls-1" d="M59.25,32.66a.36.36,0,0,0,0,.09l0,0Z"/><path class="cls-1" d="M62.21,34.25h0a.69.69,0,0,1,0,.13Z"/><path class="cls-1" d="M61.16,34.3a2.08,2.08,0,0,0,0-.39c0,.11,0,.17-.06.19A1.91,1.91,0,0,0,61.16,34.3Z"/><path class="cls-1" d="M59.48,33.8l0,0Z"/><path class="cls-1" d="M63,34.31a.41.41,0,0,1,0,.1A.31.31,0,0,0,63,34.31Z"/><path class="cls-1" d="M92.45,32.2v0S92.46,32.2,92.45,32.2Z"/><path class="cls-1" d="M93.68,33.59h0v.16Z"/><path class="cls-1" d="M68.21,34.89h0S68.19,34.91,68.21,34.89Z"/><path class="cls-1" d="M77.15,34.68c-.11-.25.16-.32,0-.6C77.17,34.19,77,34.52,77.15,34.68Z"/><path class="cls-1" d="M59.27,32.7h0A0,0,0,0,0,59.27,32.7Z"/><path class="cls-1" d="M77.16,34.08h0l0,0Z"/><path class="cls-1" d="M70.45,34.72a.51.51,0,0,0,0-.13A.37.37,0,0,0,70.45,34.72Z"/><path class="cls-1" d="M68.78,34.32l0,0Z"/><path class="cls-1" d="M71.32,34.32s0,.06.06,0,0,0,0,0S71.34,34.36,71.32,34.32Z"/><path class="cls-1" d="M72.22,34.32a.14.14,0,0,0,0-.06s0,0,0,0Z"/><path class="cls-1" d="M89.71,32.33a2.17,2.17,0,0,1,0,.25C89.74,32.38,89.87,32.31,89.71,32.33Z"/><path class="cls-1" d="M59.25,32.82a.25.25,0,0,1,0-.12l0,0A.28.28,0,0,0,59.25,32.82Z"/><path class="cls-1" d="M71.35,32.1l.15,0A.33.33,0,0,0,71.35,32.1Z"/><path class="cls-1" d="M83.23,32.37l0,0S83.24,32.34,83.23,32.37Z"/><path class="cls-1" d="M71.92,32.1a1.14,1.14,0,0,0,.08.2.19.19,0,0,0,0-.08Z"/><path class="cls-1" d="M89.75,32.59h0Z"/><path class="cls-1" d="M90.7,31.92c-.14,0-.07.36-.1.57s-.07-.27-.13-.46c-.1.1-.18.44-.25.42a.37.37,0,0,1,0-.15c-.11.29-.32,0-.44.38a.37.37,0,0,1,0-.09,4.62,4.62,0,0,1,0,.5c-.06,0-.11.24-.14,0,0,0,0-.09.06-.17l-.06.1c-.06-.34.08-.12.08-.37-.12.11-.27.4-.36.3,0-.34.22-.11.09-.42l.15.13c-.11-.53.09,0,0-.53-.2-.1-.22.17-.42.07,0,.19,0,.28,0,.47-.28.34-.22-.85-.43-.4,0,.22-.07.65-.21.43l0-.39c-.18,0-.1.55-.3.3,0-.15.15-.13.12-.18-.13-.3-.09.22-.19.22l0-.34c-.2,0-.42.3-.65.36a.55.55,0,0,0,0-.31c-.28.17-.6,0-.87-.24l-.11.29s0-.13,0-.19,0,.19-.06.3-.08-.17,0-.25c-.19.25-.53.53-.73.22l0-.09c-.15-.12-.17.6-.32.33l0,0c-.33-.13-.7.14-1-.3,0,.42-.33-.19-.35.4-.19-.3-.14-.4-.41-.6-.07,0-.1.37-.19.43V32.3l-.12.33-.07-.37-.08.08a.39.39,0,0,1,.07.23c-.13.13-.32-.22-.32-.38l-.31.26a.53.53,0,0,1,.1-.24c-.16.31,0-.33-.18,0a1,1,0,0,1,0,.25.23.23,0,0,0-.37-.11l0-.22c-.23-.05-.48.11-.73.1.09.1.07.47,0,.51l0-.33c0,.2.08.12,0,.37-.09,0-.06-.37,0-.48l-.11.12c0-.1,0-.15,0-.28,0,.21-.19-.32-.26,0V32c-.25,0-.37.11-.58.13,0,.28-.08.22-.14.44-.16-.09-.33-.31-.51-.28s0,.23-.1.4c0-.26-.19-.23-.09-.41a1,1,0,0,0-.56.25c0,.11.06.15,0,.24s-.11-.11-.1-.23v0c-.31.39-.72-.74-1-.21v0l-.26.27c-.12,0,.07-.19,0-.35-.28.43-.44-.06-.67.23-.18-.76-.63,0-.87-.43v.17c-.06.18-.07-.1-.12-.14,0,.14.07.16,0,.26-.53.21-1.08-.26-1.62-.42-.2,0-.12.92-.36.49l.07-.33c-.4.4-.82,0-1.2.33,0-.08,0-.18.06-.18-.08-.24-.31,0-.31.19-.06,0,0-.18,0-.28s-.21.31-.25.07a.12.12,0,0,1,0-.1c0,.12-.25,0-.2.25-.15-.13-.28.12-.4,0-.07.31-.25-.15-.27.29,0-.46-.26-.37-.35-.16,0-.13-.08-.14,0-.33-.11,0-.2.09-.19.33-.19-.55-.39.43-.49-.26a3.77,3.77,0,0,1-.89.51c0-.45.31,0,.3-.52-.27.19-.42.58-.69.47-.06-.06,0-.2.07-.28-.27.19-.52,0-.76.21a.26.26,0,0,1,0-.12s-.1-.07-.1.13l0,0c.07.3-.19.62-.2.78.08-.59-.23-.15-.11-.89a.41.41,0,0,0-.06.27s-.06-.12,0-.28c-.17.12-.11.33-.26.33,0-.1,0-.14,0-.25-.07.19-.15.38-.28.3s0-.14,0-.14c-.22,0-.37.52-.61.33.07-.43-.09-.14-.1-.51l-.13.11,0,.18c-.11,0-.21.26-.31.14l.09-.15-.22.07.12.14c-.11.19,0,.47-.14.37,0,0-.11,0-.17-.23h0c-.06.12-.11.25-.2.15s0-.41,0-.49c-.06.31-.27.09-.34.42a1.84,1.84,0,0,0,0-.31l0,.25a.37.37,0,0,1,0-.28c-.16,0,0,.48-.14.27,0,0,0-.06,0-.09-.19-.11-.37.16-.54,0,0-.37.15-.09.09-.41-.25.07-.52.45-.76.37l0,0c0,.53-.18-.27-.31,0a.59.59,0,0,0,0-.23c-.16-.09-.34.13-.59.3l0-.14c-.09-.12-.25-.07-.36-.13,0,.13-.09.11-.05.31-.33-.78-.63.42-.91-.23,0,0,.08-.12,0-.12l-.25.13c0,.23,0,.14.09.32s-.1.24-.16.24c.11-.15,0-.37,0-.5a1.62,1.62,0,0,1,0,.22c-.13-.41,0,.46-.19.19v-.12c-.06.06-.12.22-.19.18,0-.26.07-.12.07-.34-.1,0-.19.51-.28.24,0-.08.1-.08.14-.15-.1-.31-.11-.23-.18-.28h0l-.17-.14,0,.09c-.12.69-.25.12-.42.58.16-.43,0-.25,0-.55,0-.09-.11-.18-.09-.27-.08.25-.13-.19-.25.17,0-.1-.08,0-.06-.26-.11.08,0,.17,0,.3-.16.33-.37-.41-.6.05-.2.19-.23.52-.42.68a.51.51,0,0,1,0-.36c-.1-.14-.17-.11-.26,0a.66.66,0,0,0,0-.27c-.08,0-.05.36-.15.21a2.66,2.66,0,0,1,.07-.39c-.09.09-.17.27-.27.36a.78.78,0,0,1,.09-.37.57.57,0,0,0-.3.43l.07.09s0-.23,0-.28c.09-.21.12.09.13.19l-.07.07c.07.57.27-.1.4-.06l-.06.41.14-.34c0,.11,0,.34,0,.4.1.21.09-.15.17.08,0,0,0,.06,0,.07l.1-.12c0,.09,0,.29,0,.23.17.24.27-.31.33,0v0c.23-.14,0-.3.19-.66l.12.75,0-.3s.07,0,.07.15c.08-.21,0-.13,0-.33.12.28.32-.13.34.36,0-.23-.11-.18,0-.34,0,.52.15-.09.25.15s-.13.13,0,.37c.07-.46.21.1.29,0,0-.36.2-.15.34-.27,0,.12.28.2.42.33v.06c0-.37.17-.3.28-.38a.88.88,0,0,1-.08.41h.09A.33.33,0,0,1,62.3,34l0,.27c.13,0,.26-.32.42-.14,0-.26-.13-.71,0-.88a1.08,1.08,0,0,1,0,.43s.06-.12.09-.06l-.07.24c.07.1,0-.2.1-.18,0,.2,0,.14,0,.3s0-.08-.07,0a.43.43,0,0,1,.17.3c0-.11,0-.27,0-.29s.05.23.12.34c0-.14.12,0,.12-.29,0,0,0,.13.06.21.07-.13.31,0,.24-.35l0,0h0c.22-.29.45.17.67,0V34c.13-.11.29-.07.38-.28,0,0,.09.18.08.3.1-.08.11-.19.25,0-.1.17,0,.15-.1.12.13.09.16.25.29,0,0,.25.1.31.16.24l-.09-.18a.21.21,0,0,1,.19,0l0,.34c.26.4.47-.69.67,0,.07-.24-.14-.17-.08-.44.12,0,.25.52.29.52.17.19.15-.48.33-.36,0-.11,0-.43.08-.54s.15.49.08.59,0,0,0-.07a.18.18,0,0,0,0,.22l0-.11c.06.12.23.1.19.3a.17.17,0,0,0,0-.26c.15.17.24,0,.4.12,0-.06,0-.2,0-.2.23.15.1-.23.26-.28.09.18,0,.43.13.28.1.13,0,.32,0,.41.15-.22.27.15.36.2l-.08.09A.13.13,0,0,1,68,35l0-.24s.08,0,.08.14c.05-.15,0-.39.06-.61.06.12.18-.13.2.19-.19-.11,0,.32-.14.37,0,0,.07,0,.11,0a.13.13,0,0,1,0,.09c.18.28.08-.36.27-.35,0,.17,0,.33.07.3s0-.3,0-.44c.12.14.14-.1.2-.08l-.07-.07c0-.18.08-.15.16-.21,0,.14-.07.1,0,.16.09-.31.21.32.34.11.06.12,0,.33.06.42.14-.23.16.24.31.05-.05-.24-.05-.18,0-.41l-.25.16.16-.34c-.07,0-.16.15-.2.11.08-.2.07-.14,0-.34.1.36.21-.21.33,0v.59c.18.26.32-.31.56-.16l-.08-.1c0-.24.15,0,.22-.13a1,1,0,0,0,.08.39c0-.14.17,0,.19-.38l.1.26c.19.11.22-.56.4-.49-.05.21,0,.35-.09.51.06,0,.11,0,.11-.1,0,.12.17-.27.23-.08,0-.09,0-.3.1-.28a.31.31,0,0,1,0,.1c0-.1.11-.13,0-.35.19.61.52-.05.68.48a1.59,1.59,0,0,1,.42-.14c0,.06,0,.1,0,.08.17.18.11-.57.29-.37s-.1.18,0,.3c0,.65.23-.09.36.29l0,0c.1.22.24-.25.39-.2v.09a.9.9,0,0,1,.47-.53c0,.26-.07.14,0,.39.07,0,0-.41.12-.48a1.55,1.55,0,0,1,.15.53l-.13,0c.07.36.17,0,.24,0v.15c.2,0,.2-.44.41-.41l0-.12c.12-.39.1.22.21-.07l0,.4a2,2,0,0,1,.41-.46,2.36,2.36,0,0,1-.34.62.28.28,0,0,0,.29-.23s-.06.14-.09.08c.09-.31.21-.47.36-.46,0,.76.4.19.51.79.26-.29.53.12.84.07-.11-.59.09,0,.07-.63.07,0,.1,0,.11,0l.22.37c.05.18-.07.13-.06.27s.06.26.17.42c0-.22.05-.31.14-.23l-.12-.28c.22-.32.19.51.41.19l-.07.19c.12-.11.42,0,.54-.48,0,.07,0,.24,0,.28.28.07.62-.52.83-.22l0,.15s.09-.28.15-.13,0,.15,0,.16.14-.27.21-.18l-.06.17c.27.2.41-.41.64-.51a.68.68,0,0,0,.31.65V35c.31.06.53-.36.82-.53.18.47.6.2.89.46a.54.54,0,0,1,.06-.38c.07.09.19-.31.18.1h0c0,.39.19.29.3.3l0-.53c.28.77.74-.28.9.41.07-.13.15-.13.22-.27v.29a.64.64,0,0,0,.51,0l0,.2c.13,0,.16-.82.29-.83l0,.42c.23,0,.47.36.7,0,0,.06,0,.19-.05.2s.42.29.38-.29c0,.38.24,0,.36-.13l0,.28c.11-.36.11-.46.26-.55s0,.22,0,.15c.12.14.09-.27.23-.12l-.05.18c.12,0,.11-.07.18-.28s.22.07.24.32c0-.15.08-.36.15-.29a.29.29,0,0,1,0,.19c.2.19.3-.33.44,0a.42.42,0,0,0,0,.16c-.16,0-.29,0-.27,0,0,.26.12.3,0,.66.1-.2.28-.62.41-.5s0,0,0,.09v0s0,0,.08,0,.06.07.1.08c0,.21.15.11.21.12,0-.28.08-.23,0-.46,0,0,0,0-.05,0l0,0v0l-.15,0c0-.14.1-.26.17-.1,0-.18.07-.37.09-.46.09.39.25.61.28.85.19-.16.46-.11.58-.63.06-.07.06.15.08.23s-.07.05-.08.12c.11-.13.33-.05.35-.42.14.17-.08.34.12.28l0,.11c.38.59.61-.94,1-.18a.29.29,0,0,1-.05-.13c.48.33,1-.32,1.46.21.13.11.15-.13.23-.3l0,.3.14-.35c.2-.26.34.74.59.26l0-.21c.09,0,.29-.12.27.12,0,0,0-.21.06-.11v.16l.22-.27c.17.11,0,.63.22.66a.88.88,0,0,0,.23-.57s-.09-.1-.1-.25l.09-.09a2.33,2.33,0,0,0-.13-1.26l-.14.28,0-.23h.12c-.07-.21-.11,0-.16.1a.51.51,0,0,0-.06-.24l-.15.44c0-.18.07-.36,0-.46-.06.21.07.41,0,.54-.07-.21,0-.38-.14-.2a.42.42,0,0,1,0-.25c-.07.14-.19.06-.23.31-.07-.26-.24.07-.24-.37,0,.1-.12.34-.19.36.12-.53-.25,0-.22-.6-.09.48-.33.21-.49.48,0,0,0-.12,0-.09s-.11-.18-.17-.27a1.69,1.69,0,0,1-.23.72c-.11-.38.07-.46,0-.82,0,.31-.2.31-.16.58a1.38,1.38,0,0,1-.12-.44c0,.49-.07.08-.14.38-.13-.24,0-.46-.17-.31A.39.39,0,0,1,90.7,31.92Zm-3.2.85h0l.07,0Zm-.27,0h.12c0,.1,0,.2,0,.19S87.27,32.85,87.23,32.77Zm.57,1.95s-.06,0-.06-.07l.07,0v0C87.81,34.63,87.81,34.68,87.8,34.72Z"/><path class="cls-1" d="M87.88,34.35a0,0,0,0,1,0,0l0-.06s0,.06,0,.08Z"/><path class="cls-1" d="M63.55,33.93h0s0,0,0,0A0,0,0,0,0,63.55,33.93Z"/><polygon class="cls-1" points="83.53 32.23 83.53 32.3 83.55 32.24 83.53 32.23"/><path class="cls-1" d="M62.07,33a.64.64,0,0,0,0-.07A.25.25,0,0,0,62.07,33Z"/><path class="cls-1" d="M61.43,32.91l-.09-.1Z"/><path class="cls-1" d="M60.94,32.77a.53.53,0,0,0,0,.12h0Z"/><path class="cls-1" d="M68.74,32.44l0,0C68.81,32.37,68.78,32.39,68.74,32.44Z"/><path class="cls-1" d="M66.42,33.09A.74.74,0,0,1,66.5,33S66.42,32.93,66.42,33.09Z"/><path class="cls-1" d="M71.34,32.1Z"/><path class="cls-1" d="M66.6,33c0-.05-.07,0-.1,0S66.57,33,66.6,33Z"/><path class="cls-1" d="M58.81,32.64h0s0,0,0,0Z"/><path class="cls-1" d="M58.78,32.67l0,0S58.78,32.7,58.78,32.67Z"/><path class="cls-1" d="M58.7,32.78l.06-.07S58.71,32.7,58.7,32.78Z"/><path class="cls-1" d="M59.46,32.77v-.1A.25.25,0,0,0,59.46,32.77Z"/><path class="cls-1" d="M59.66,32.74s-.12-.22-.19-.15v.08C59.5,32.52,59.61,32.91,59.66,32.74Z"/><path class="cls-1" d="M60.48,34l-.16-.08c0,.11.06.25,0,.28C60.52,34.52,60.26,34,60.48,34Z"/><path class="cls-1" d="M61,34.16c-.08.05,0,.15,0,.22C61.05,34.28,61.06,34.25,61,34.16Z"/><path class="cls-1" d="M64.7,34.16v.25C64.76,34.38,64.7,34.31,64.7,34.16Z"/><polygon class="cls-1" points="65.41 32.84 65.35 32.68 65.31 32.91 65.41 32.84"/><polygon class="cls-1" points="65.83 34.66 65.8 34.69 65.92 34.6 65.83 34.66"/><path class="cls-1" d="M72.06,34.57l0-.32C72,34.31,72,34.66,72.06,34.57Z"/><path class="cls-1" d="M74.75,34.25c0,.15.1.25.15.1S74.78,34.21,74.75,34.25Z"/><polygon class="cls-1" points="82.81 34.76 82.76 34.87 82.86 34.78 82.81 34.76"/><path class="cls-1" d="M50.12,92.35c.05,0,.14,0,.12-.11l-.16-.08Z"/><path class="cls-1" d="M50.43,91.52c-.08-.14-.22-.3-.37-.21.16.14.09.18.28.33,0,.12-.05.21-.12.19s0,.19.07.26a.49.49,0,0,0,0-.57S50.4,91.51,50.43,91.52Z"/><path class="cls-1" d="M50.69,79.6l0,.08S50.68,79.63,50.69,79.6Z"/><path class="cls-1" d="M50.78,72.21a.11.11,0,0,0,0,.09S50.79,72.2,50.78,72.21Z"/><path class="cls-1" d="M51,71s0,0,0,.08A.12.12,0,0,0,51,71Z"/><path class="cls-1" d="M50.69,79.6l.05-.2C50.69,79.39,50.7,79.51,50.69,79.6Z"/><path class="cls-1" d="M50,89.88a.36.36,0,0,0,0,.11s0-.07,0-.1Z"/><path class="cls-1" d="M50.82,82.86v.06l.07,0Z"/><path class="cls-1" d="M50.85,85.36c0-.06-.14-.08-.2-.1a.17.17,0,0,1,.1.12A.22.22,0,0,0,50.85,85.36Z"/><path class="cls-1" d="M50.6,89.32l0,.07S50.61,89.34,50.6,89.32Z"/><path class="cls-1" d="M50.85,81.07l0,0Z"/><path class="cls-1" d="M49.8,11.17h0S49.8,11.15,49.8,11.17Z"/><path class="cls-1" d="M50.49,8.27v0h.08Z"/><path class="cls-1" d="M51.14,68.65h0C51.15,68.72,51.15,68.68,51.14,68.65Z"/><path class="cls-1" d="M51,47.46c-.13.24-.16-.4-.3,0C50.79,47.39,51,47.75,51,47.46Z"/><path class="cls-1" d="M50.05,89.82v-.11A.2.2,0,0,0,50.05,89.82Z"/><path class="cls-1" d="M50.74,47.43h0l0,0Z"/><path class="cls-1" d="M51.06,63.33a.18.18,0,0,0-.07.05S51,63.37,51.06,63.33Z"/><path class="cls-1" d="M50.86,67.29l0-.1A.2.2,0,0,0,50.86,67.29Z"/><path class="cls-1" d="M50.86,61.27a.21.21,0,0,0,0-.14l0,0A.12.12,0,0,1,50.86,61.27Z"/><path class="cls-1" d="M50.86,59.13l0,0a.2.2,0,0,0,0,.07Z"/><path class="cls-1" d="M49.86,17.68a.38.38,0,0,1,.13-.1C49.89,17.61,49.85,17.3,49.86,17.68Z"/><path class="cls-1" d="M50.11,89.88a.07.07,0,0,1-.06-.06.2.2,0,0,0,0,.07Z"/><path class="cls-1" d="M49.75,61.18l0-.34C49.76,60.94,49.75,61.06,49.75,61.18Z"/><path class="cls-1" d="M49.88,33V33A.11.11,0,0,0,49.88,33Z"/><path class="cls-1" d="M49.75,59.83a.5.5,0,0,0,.1-.19l0,0Z"/><path class="cls-1" d="M50,17.58Z"/><path class="cls-1" d="M49.66,15.34c0,.32.18.15.28.22.06.38-.13.18-.23.31s.22.42.22.6c0,0,0,.05-.08,0,.14.26,0,.76.19,1.06l0,0a.41.41,0,0,1,.25,0c0,.15.12.27,0,.32s0-.09-.08-.13l.05.15c-.17.14-.06-.21-.19-.21a2.7,2.7,0,0,1,.15.87c-.17,0-.05-.53-.21-.23L50,18c-.27.27,0-.21-.27,0,0,.47.09.52,0,1,.09.11.14,0,.23.07.17.66-.42.52-.2,1,.12.13.33.18.22.52l-.2-.12c0,.45.28.26.15.73-.07-.08-.06-.35-.09-.28-.15.3.11.21.11.44l-.17.05c0,.48.15,1,.18,1.54-.05,0-.1-.12-.15,0A8,8,0,0,1,49.76,25l.14.24c0,.06-.06.11-.09.05-.06.25.09,0,.15.13s-.08.19-.13.1a3.46,3.46,0,0,1,.11,1.72l0-.09c-.06.37.3.41.16.75l0-.06a10.63,10.63,0,0,1-.15,2.26c.21.11-.1.78.2.83a3.22,3.22,0,0,0-.3.95c0,.17.18.25.21.46h-.15l.16.28-.18.15,0,.2c0-.08.07-.17.11-.16a.93.93,0,0,1-.19.76l.13.72c-.06,0-.08-.13-.12-.23.16.39-.16.07,0,.43,0,0,.1,0,.13,0a1.77,1.77,0,0,0-.06.88l-.1-.06c0,.54,0,1.13,0,1.74.05-.22.24-.17.26,0l-.17.07c.1.11.06-.19.19.05,0,.22-.19.15-.24,0l.06.27s-.08,0-.14-.06c.1.11-.16.47,0,.64h0c0,.6.06.88.07,1.37.14,0,.11.2.22.35a6.18,6.18,0,0,0-.14,1.2c.07.3.11.08.2.22-.13,0-.12.46-.21.23A8.85,8.85,0,0,0,50,42.78c.05-.07.08-.15.12-.11s-.05.27-.12.26v0c.19.74-.37,1.71-.11,2.3v0l.14.62c0,.28-.1-.17-.18,0,.22.66,0,1,.12,1.58-.38.43,0,1.5-.22,2.07l.09,0c.09.15,0,.18-.07.29s.08-.16.13-.07a27.86,27.86,0,0,1-.21,3.85c0,.46.46.26.24.85l-.16-.17c.2.94,0,1.93.16,2.85,0-.05-.09-.06-.09-.15-.12.2,0,.72.1.73s-.09,0-.14.12.15.49,0,.59,0,0,0-.09c.06.13,0,.6.13.47-.07.35.06.67,0,.94.15.18-.08.59.14.65-.23,0-.18.61-.08.83-.06-.08-.07.19-.16.1,0,.25,0,.48.16.44-.27.46.22.92-.13,1.18.12.74.21,1.43.26,2.09-.23,0,0-.73-.26-.7A6,6,0,0,1,50,65.85c0,.16-.1-.09-.14-.15.1.64,0,1.23.11,1.79,0,0,0-.06-.06-.12,0,.11,0,.26.07.24l0-.1c.15-.18.31.44.39.46-.3-.19-.08.55-.45.25,0,.08.07.17.14.15s-.06.14-.14,0c.06.4.17.26.16.62-.05,0-.07-.07-.12-.11a1,1,0,0,1,.15.67s-.07,0-.07-.08c0,.53.26.89.16,1.47-.21-.17-.07.19-.25.22l0,.31.09-.12c0,.27.13.51.07.74l-.07-.2,0,.5.07-.28c.1.27.24,0,.19.33,0-.08,0,.27-.12.41h0a.65.65,0,0,1,.08.47c-.06.05-.21,0-.25,0,.16.13,0,.63.21.8a.12.12,0,0,0-.15,0l.12.11c0,.12-.06.14-.14.12,0,.38.24-.12.14.33,0,0,0,0,0-.09-.05.44.08.86,0,1.27-.19.13,0-.36-.21-.22a14.26,14.26,0,0,1,.19,1.81l0-.11c.26.08-.13.43,0,.72,0-.07-.15-.09-.12-.07a6.74,6.74,0,0,0,.15,1.4l-.07-.08a7.91,7.91,0,0,0-.06.86c.07.08,0,.22.15.13-.38.78.21,1.48-.11,2.16,0-.08-.06-.19-.06-.13l.06.59c.12-.05.07-.08.16-.2a.61.61,0,0,1,.12.38c-.07-.26-.18,0-.25.12s.08,0,.11,0c-.2.3.24.05.1.46l-.06,0a1.51,1.51,0,0,1,.09.47c-.13.07-.06-.17-.17-.18,0,.24.25.47.12.68,0-.1,0-.24-.08-.34a.71.71,0,0,0-.14.43v0l-.07.4.05-.1c.34.3.06.6.29,1-.22-.39-.13-.06-.28-.09s-.09.25-.13.21c.12.19-.1.31.08.58-.05,0,0,.2-.13.16,0,.24.09-.06.15,0,.17.38-.2.89,0,1.43s.26.55.34,1c-.08.14-.18-.12-.18-.12a1,1,0,0,0,0,.63s-.08,0-.14.07.18.12.11.36a1,1,0,0,1-.2-.18c0,.21.14.42.18.63-.08.06-.13-.13-.18-.2,0,.24.08.63.21.71l0-.16c0,.09-.12,0-.14,0a.21.21,0,0,1,.09-.32l0,.16c.28-.16,0-.62,0-.94l.2.13-.17-.32c.06-.06.17-.11.2,0,.11-.22-.07-.2,0-.39,0,0,0,0,0,0l-.06-.22s.14,0,.11.1c.12-.39-.15-.63,0-.78v0c-.07-.54-.15,0-.33-.46l.37-.28-.15,0c0-.06,0-.17.08-.15-.11-.2-.07,0-.17-.08.14-.27-.06-.75.18-.81-.11-.1-.09.26-.17,0,.26-.08,0-.33.08-.58.13.08.06.31.18.06-.23-.15,0-.48,0-.69-.18,0-.08-.45-.14-.8a6.4,6.4,0,0,0,.17-1h0c-.19-.07-.15-.4-.19-.65.11,0,.15.06.2.19v-.23a.43.43,0,0,1-.11-.28l.14.06a3.21,3.21,0,0,1-.07-1c-.13,0-.36.31-.44-.1.07,0,.18,0,.21.08,0,0-.06-.13,0-.2l.12.16c0-.18-.1-.09-.09-.23s.07-.11.15-.09,0,.13,0,.18a.82.82,0,0,1,.15-.42c-.05,0-.13,0-.14-.12,0-.3.12-.1.17-.28s0-.27-.15-.28c0-.09.07-.1.11-.14s0-.74-.18-.56v0h0c-.15-.52.08-1.08,0-1.6h0a5.3,5.3,0,0,0-.14-.91c0-.09.09-.21.15-.17a.93.93,0,0,1,0-.6c.08.23.07-.09.06.24,0-.31.12-.38,0-.7.12.11.16-.23.12-.38l-.09.21a2.26,2.26,0,0,1,0-.45l.17.08c.2-.62-.35-1.12,0-1.6-.12-.17-.08.34-.22.19a3.91,3.91,0,0,1,.26-.68c.1-.39-.24-.36-.18-.77,0,0-.21.1-.27-.21s.25-.35.3-.17,0,.1,0,.1,0,.21.12.1l-.06,0c.06-.14.05-.54.15-.44-.06-.22-.1-.1-.13.06.09-.37,0-.57.06-1,0,.06-.1.11-.1,0,.07-.55-.11-.24-.14-.62.09-.21.22.08.14-.3.06-.23.16,0,.21,0-.12-.34.07-.65.09-.84l.05.18a1,1,0,0,1,0-.29l-.12.1c0-.1,0-.19.07-.19s-.19.08-.3-.14c.06-.14-.06-.43.09-.48,0,.45.16-.05.19.33a.61.61,0,0,1,0-.27s0,0,0,.05c.14-.43-.18-.2-.17-.65.09.06.16-.1.15-.17,0,.18-.15.08-.22-.08s0-.31,0-.46l0,.17c-.08-.06-.07-.2-.1-.4.07,0,.05.18.08.11-.16-.22.16-.5.05-.81.06-.14.17,0,.21-.14-.11-.34.12-.37,0-.73-.12.1-.09.12-.21-.14L51,66l-.17-.38c0,.18.08.38.06.49-.1-.19-.07-.17-.17-.08.18-.25-.1-.49,0-.77H51c.13-.42-.15-.76-.08-1.31l0,.18c-.11-.08,0-.35-.06-.53.1,0,.13-.09.19-.17s0-.41-.19-.46l.13-.24c.06-.45-.28-.52-.24-1,.1.13.17-.06.25.23,0-.15,0-.28,0-.28s-.13-.4,0-.53-.14-.08-.14-.24,0,0,0,0-.06-.26-.17-.12c.3-.44,0-1.24.24-1.62,0-.32-.07-.7-.07-1,0,0,.05,0,0,.05.09-.39-.29-.24-.19-.69.16-.22.09.24.15.1.33-.06,0-.54.15-.84l0,.07c.11-.23-.13-.56-.1-.94a0,0,0,0,0,.05,0,2.83,2.83,0,0,1-.27-1.1c.13.11.07.16.2.09,0-.16-.21,0-.25-.27.07-.11.13-.34.27-.37v.3c.18-.15,0-.39,0-.55l.08,0c0-.47-.22-.48-.21-1l-.06.05c-.19-.28.11-.23,0-.5l.2-.09a5.91,5.91,0,0,1-.23-1,4,4,0,0,1,.31.8c0-.18,0-.61-.12-.7,0,.07.07.16,0,.23a1.52,1.52,0,0,1-.23-.87c.39.07.1-.93.4-1.19a11.26,11.26,0,0,1,0-2c-.29.26,0-.22-.31-.17,0-.17,0-.24,0-.25l.18-.52c.09-.13.07.16.13.14,0-.37.13-.16.21-.4-.1.05-.15-.14-.11-.35l-.14.3c-.16-.52.26-.45.09-1l.1.16c-.06-.27,0-1-.24-1.27,0,0,.12-.11.14,0a11.46,11.46,0,0,1-.11-2l.07,0c0-.12-.14-.21-.06-.36,0,0,.07,0,.08,0a.91.91,0,0,1-.09-.48l.08.14c.1-.64-.2-1-.25-1.51.22,0,.29-.5.32-.75h0a12.09,12.09,0,0,0-.27-1.94,11,11,0,0,0,.23-2.12c0,.1-.17,0-.19-.14S50.79,35,51,35v.06c.2-.12.15-.45.15-.71l-.26,0c.38-.67-.14-1.76.2-2.13-.06-.16-.06-.37-.13-.53h.14a6.16,6.16,0,0,0,0-1.23l.1.12c0-.32-.4-.4-.41-.69L51,29.8a5,5,0,0,0,0-1.64.13.13,0,0,1,.1.11c0-.25.14-1-.15-.9.19,0,0-.56-.06-.86l.14,0a1,1,0,0,1-.28-.61c0-.08.11-.07.08,0,.07-.28-.14-.22-.06-.55l.09.13c0-.29,0-.26-.14-.42s0-.54.16-.58a.34.34,0,0,1-.14-.36s.07,0,.09.07c.09-.47-.17-.7,0-1a.1.1,0,0,0,.08-.05,5.12,5.12,0,0,1,0,.65c.13,0,.15-.31.33-.07a1.94,1.94,0,0,1-.24-1,.08.08,0,0,1,0,0v0a.31.31,0,0,0,0-.19,1,1,0,0,0,0-.24c.11,0,.06-.35.06-.5-.14,0-.11-.19-.23,0,0,0,0,0,0,.13s0,.05,0,.06h0v.38a.41.41,0,0,1-.05-.42,2.62,2.62,0,0,1-.23-.21c.2-.2.31-.6.43-.66-.08-.46-.05-1.09-.32-1.38,0-.13.08-.15.12-.2s0,.17.06.21c-.07-.27,0-.78-.21-.84.08-.34.17.18.14-.27l0,.06c.3-.9-.47-1.46-.09-2.45,0,.07,0,.1-.06.12.16-1.13-.16-2.34.1-3.45.06-.32-.06-.35-.15-.55l.15-.07L50.65,12c-.13-.47.37-.81.13-1.41l-.1.08c0-.21-.06-.68,0-.64s-.1-.07,0-.15h.08l-.14-.53c.06-.4.32.07.33-.53,0-.22-.23-.62-.28-.54s-.05.23-.13.23l0-.2c-.23,0-.47-.19-.63.31L50,9l-.11.11V8.78c-.11.17,0,.27,0,.39a.19.19,0,0,0-.12.14l.22.34c-.09,0-.18-.15-.23.08s.2-.16.27.11c-.11.16-.19.11-.1.31-.06,0-.1,0-.13-.09.08.17,0,.45.16.54-.13.17,0,.59-.19.57a1,1,0,0,1,.18.46c-.26-.29,0,.59-.3.52.24.21.11.77.24,1.15,0,0-.06-.06,0-.1a1.21,1.21,0,0,1-.14.42c.2,0,.24.36.36.54-.19.26-.23-.16-.41-.08.16,0,.16.45.29.37-.12.2-.06.17-.22.27.25,0,0,.19.19.35-.12.29-.23.08-.15.4C49.74,15.62,49.66,15.34,49.66,15.34Zm.42,7.57h0c0-.07,0-.12,0-.16S50.08,22.83,50.08,22.91Zm0,.63a2.18,2.18,0,0,0,0-.27.06.06,0,0,1,.09.06S50.12,23.45,50.08,23.54Zm1-1.34c0,.1,0,.13,0,.15a1.41,1.41,0,0,0,0-.18h0Z"/><path class="cls-1" d="M50.87,22s0,0,0-.05l0,.06.05,0Z"/><path class="cls-1" d="M50.66,79.69h0l0,0S50.66,79.7,50.66,79.69Z"/><polygon class="cls-1" points="49.81 32.33 49.85 32.33 49.82 32.27 49.81 32.33"/><path class="cls-1" d="M50.18,83.2s0,0,0,0S50.17,83.22,50.18,83.2Z"/><path class="cls-1" d="M50.15,84.71l0,.21A1.49,1.49,0,0,0,50.15,84.71Z"/><path class="cls-1" d="M50.08,85.87l.06,0h0Z"/><path class="cls-1" d="M49.92,67.37s0,0,0-.05S49.89,67.29,49.92,67.37Z"/><path class="cls-1" d="M50.24,72.88a1.27,1.27,0,0,1-.06-.18C50.17,72.8,50.16,72.87,50.24,72.88Z"/><path class="cls-1" d="M49.75,61.22h0v0Z"/><path class="cls-1" d="M50.18,72.44a.46.46,0,0,0,0,.26A.76.76,0,0,0,50.18,72.44Z"/><path class="cls-1" d="M50,90.92v0h0Z"/><path class="cls-1" d="M50,91l0,.06S50.05,91,50,91Z"/><path class="cls-1" d="M50.09,91.17l0-.13S50.05,91.14,50.09,91.17Z"/><path class="cls-1" d="M50.08,89.38l0,0Z"/><path class="cls-1" d="M50.07,88.91c0,.11-.11.28-.08.44h0C50,89.29,50.15,89,50.07,88.91Z"/><path class="cls-1" d="M50.7,87l0,.39c.05-.07.12-.16.14,0C51,86.87,50.68,87.47,50.7,87Z"/><path class="cls-1" d="M50.78,85.74c0,.21.08,0,.11,0C50.84,85.61,50.82,85.58,50.78,85.74Z"/><path class="cls-1" d="M50.78,77l.12,0C50.89,76.81,50.86,77,50.78,77Z"/><polygon class="cls-1" points="50.12 75.27 50.04 75.42 50.15 75.5 50.12 75.27"/><polygon class="cls-1" points="51.03 74.27 51.05 74.34 51 74.07 51.03 74.27"/><path class="cls-1" d="M51,59.51l-.16.05C50.85,59.67,51,59.69,51,59.51Z"/><path class="cls-1" d="M50.82,53.14a.3.3,0,0,0,0-.36A2,2,0,0,0,50.82,53.14Z"/><polygon class="cls-1" points="51.08 34.02 51.13 34.15 51.09 33.91 51.08 34.02"/><path class="cls-1" d="M105.16,89.24c0,.05.14,0,.12-.1l-.16-.09Z"/><path class="cls-1" d="M105.47,88.41c-.08-.14-.22-.31-.38-.21.16.14.1.17.29.33,0,.12-.06.21-.12.19s0,.2.07.26a.53.53,0,0,0,0-.58S105.44,88.4,105.47,88.41Z"/><path class="cls-1" d="M105.73,76.34l0,.08S105.72,76.37,105.73,76.34Z"/><path class="cls-1" d="M105.82,68.87s0,.08,0,.08S105.83,68.85,105.82,68.87Z"/><path class="cls-1" d="M106,67.59a.2.2,0,0,0,0,.07A.09.09,0,0,0,106,67.59Z"/><path class="cls-1" d="M105.73,76.34l0-.2C105.72,76.13,105.74,76.25,105.73,76.34Z"/><path class="cls-1" d="M105.07,86.75a.36.36,0,0,0,0,.11s0-.07,0-.1Z"/><path class="cls-1" d="M105.86,79.64v.06a.18.18,0,0,0,.07,0Z"/><path class="cls-1" d="M105.89,82.17c0-.06-.14-.08-.2-.1a.18.18,0,0,1,.1.13Z"/><path class="cls-1" d="M105.64,86.18l0,.07S105.65,86.2,105.64,86.18Z"/><path class="cls-1" d="M105.89,77.83l0,0Z"/><path class="cls-1" d="M104.83,7.07h0S104.84,7.05,104.83,7.07Z"/><path class="cls-1" d="M105.53,4.14v0h.08Z"/><path class="cls-1" d="M106.18,65.25h0C106.19,65.32,106.19,65.29,106.18,65.25Z"/><path class="cls-1" d="M106.08,43.8c-.13.25-.17-.39-.31,0C105.83,43.74,106,44.11,106.08,43.8Z"/><path class="cls-1" d="M105.09,86.68a.33.33,0,0,1,0-.1A.16.16,0,0,0,105.09,86.68Z"/><path class="cls-1" d="M105.77,43.77h0v0Z"/><path class="cls-1" d="M106.09,59.87l-.06.05S106.07,59.91,106.09,59.87Z"/><path class="cls-1" d="M105.89,63.88l0-.1S105.9,63.85,105.89,63.88Z"/><path class="cls-1" d="M105.9,57.79c0-.06,0-.08,0-.15l0,0A.14.14,0,0,1,105.9,57.79Z"/><path class="cls-1" d="M105.9,55.62s0,0,0,0v.07Z"/><path class="cls-1" d="M104.9,13.66a.31.31,0,0,1,.13-.1C104.93,13.59,104.89,13.27,104.9,13.66Z"/><path class="cls-1" d="M105.15,86.75a.07.07,0,0,1-.06-.07v.08Z"/><path class="cls-1" d="M104.79,57.7l0-.35A1.94,1.94,0,0,0,104.79,57.7Z"/><path class="cls-1" d="M104.92,29.21v-.08A.11.11,0,0,0,104.92,29.21Z"/><path class="cls-1" d="M104.79,56.33a.37.37,0,0,0,.09-.19l0,0Z"/><path class="cls-1" d="M105,13.56Z"/><path class="cls-1" d="M104.7,11.29c0,.33.18.15.28.22.06.39-.13.18-.23.32s.22.43.21.61c0,0,0,.05-.08,0,.15.26,0,.77.2,1.07l0,0a.41.41,0,0,1,.25-.05c0,.15.12.27,0,.33,0-.09,0-.1-.08-.14l0,.15c-.17.14-.06-.21-.19-.21a2.75,2.75,0,0,1,.15.88c-.17.05-.06-.54-.21-.23l.07-.35c-.27.27,0-.22-.27,0,0,.47.09.52,0,1,.09.11.14,0,.23.07.17.67-.43.53-.2,1,.11.13.33.18.21.53l-.19-.12c0,.45.28.26.15.73-.08-.08-.06-.35-.09-.28-.15.3.11.21.11.45l-.17,0c0,.48.15,1,.18,1.55,0,0-.1-.12-.15,0a8.11,8.11,0,0,1-.12,2.09l.14.25c0,.05-.06.1-.09,0-.06.26.09,0,.15.14s-.09.19-.13.1a3.65,3.65,0,0,1,.11,1.74l0-.09c-.06.37.3.42.16.76l0-.07a9.64,9.64,0,0,1-.15,2.29c.22.12-.09.79.2.84a3.76,3.76,0,0,0-.29,1c0,.17.18.25.21.46h-.15l.16.29-.18.15,0,.2c0-.08.06-.17.11-.16a1,1,0,0,1-.19.77l.13.73c-.06,0-.08-.14-.12-.24.16.4-.16.07,0,.43,0,0,.09,0,.12,0a1.94,1.94,0,0,0,0,.89l-.11-.06c0,.54,0,1.15,0,1.76,0-.22.24-.17.25,0l-.16.07c.1.11.06-.19.19.05s-.19.15-.24,0l0,.28s-.07,0-.13-.07c.1.12-.17.48,0,.65h0c0,.61.06.89.06,1.39.15,0,.11.2.23.35a7.27,7.27,0,0,0-.15,1.21c.07.31.12.09.21.23-.13,0-.12.47-.21.24a7.9,7.9,0,0,0,.13,1.34c0-.07.07-.15.12-.11s-.06.28-.12.26v0c.19.75-.37,1.73-.11,2.33v0l.14.62c0,.29-.1-.17-.18,0,.22.67,0,1.06.11,1.61-.37.43,0,1.51-.21,2.09l.09,0c.09.14,0,.18-.07.29s.08-.17.13-.07a28.43,28.43,0,0,1-.21,3.89c0,.47.46.27.24.86l-.16-.17c.2,1,0,2,.16,2.89,0-.06-.09-.06-.09-.15-.12.19,0,.73.09.73s-.08,0-.13.12.15.5,0,.6,0,0,0-.09c.06.13,0,.6.13.48-.07.35.06.67,0,1,.16.18-.07.6.15.66-.23,0-.18.61-.08.83-.07-.07-.07.19-.16.11,0,.25,0,.48.16.44-.27.46.22.93-.13,1.2.12.75.2,1.44.26,2.12-.23,0,0-.75-.26-.72a6.68,6.68,0,0,1,.23,1.64c0,.17-.1-.09-.14-.14.1.64,0,1.23.11,1.8,0,0,0-.06-.07-.12,0,.11,0,.26.07.25l0-.11c.14-.18.31.45.39.47-.3-.19-.08.56-.45.26,0,.07.07.16.14.15s-.06.14-.14,0c0,.4.16.26.16.62,0,0-.07-.07-.13-.11a1,1,0,0,1,.16.68s-.07,0-.07-.08c0,.53.26.9.16,1.48-.21-.17-.07.2-.26.23l.06.31.09-.12c0,.27.13.51.07.75l-.08-.2,0,.51.07-.29c.1.27.24,0,.19.33,0-.07,0,.27-.12.42h0a.7.7,0,0,1,.08.47c-.06,0-.21,0-.25,0,.16.14,0,.64.21.81a.15.15,0,0,0-.16,0l.13.11c0,.13-.06.15-.14.13,0,.38.24-.12.14.33,0,0,0,0-.05-.09,0,.45.08.87,0,1.29-.19.12-.05-.36-.21-.22a12.74,12.74,0,0,1,.18,1.82l0-.1c.27.08-.13.43,0,.72,0-.07-.15-.09-.12-.07a6.91,6.91,0,0,0,.15,1.42l-.07-.08a8.29,8.29,0,0,0-.06.87c.06.08,0,.22.15.13-.39.79.21,1.5-.11,2.19,0-.08-.06-.2-.06-.13l.06.59c.11-.05.07-.08.16-.2a.62.62,0,0,1,.12.39c-.08-.27-.18,0-.25.11s.08,0,.11,0c-.2.31.23.06.09.48l-.06,0a1.33,1.33,0,0,1,.1.48c-.14.07-.06-.17-.17-.18,0,.24.25.47.12.69,0-.1,0-.25-.08-.35a.61.61,0,0,0-.14.44v0l-.07.4,0-.1c.35.3.07.61.3,1-.22-.39-.13-.06-.28-.09s-.09.26-.13.21c.12.19-.1.32.08.59,0,0,0,.2-.13.16,0,.25.09-.06.15,0,.17.38-.2.9,0,1.45s.25.56.34,1c-.08.14-.18-.13-.18-.13a1.11,1.11,0,0,0,0,.65s-.08,0-.14.07.18.12.11.36a.65.65,0,0,1-.2-.18c0,.21.14.42.18.64-.08.06-.13-.13-.18-.21,0,.25.07.64.21.72l.05-.16c0,.09-.12.05-.14,0s0-.31.09-.32l0,.16c.29-.16,0-.63,0-1l.21.13-.17-.32c0-.07.17-.12.2,0,.1-.23-.07-.2,0-.4,0,0,0,0,0,0l-.06-.22s.14,0,.11.1c.12-.4-.15-.64,0-.79l0,0c-.07-.55-.16,0-.33-.46l.37-.28-.15-.06s0-.17.08-.15c-.11-.21-.07,0-.17-.08.14-.28-.06-.76.18-.82-.12-.1-.09.26-.17,0,.26-.08,0-.34.08-.59.13.08.06.32.18.07-.23-.16,0-.49,0-.7-.19,0-.08-.46-.14-.82a6.13,6.13,0,0,0,.17-1h0c-.19-.07-.15-.41-.19-.65.11,0,.15,0,.2.18V79.7a.41.41,0,0,1-.11-.28l.14.06a3,3,0,0,1-.07-1c-.13,0-.36.32-.45-.1.07,0,.19,0,.22.07a.29.29,0,0,1,0-.2l.12.17c0-.18-.1-.09-.09-.24.1,0,.07-.11.15-.09s0,.13,0,.19a.86.86,0,0,1,.15-.43c-.06,0-.13,0-.15-.12,0-.31.12-.11.17-.29s0-.27-.14-.27c0-.09.07-.11.11-.15s0-.74-.18-.56v0h0c-.15-.52.08-1.09,0-1.61h.05a5.59,5.59,0,0,0-.14-.92c0-.09.09-.21.15-.17a1,1,0,0,1,0-.61c.09.24.08-.08.07.24,0-.31.12-.38,0-.71.13.12.16-.23.13-.38l-.09.22a2.35,2.35,0,0,1,0-.46l.16.08c.21-.63-.34-1.14,0-1.62-.12-.17-.08.34-.22.2,0-.3.26-.6.26-.69.1-.4-.24-.37-.18-.79-.06,0-.21.11-.27-.21s.25-.35.3-.17,0,.1,0,.1.05.22.11.1l-.06,0c.06-.14.06-.54.16-.45-.06-.22-.1-.09-.13.07.08-.37,0-.58.06-1,0,.07-.1.12-.1.06.07-.56-.12-.25-.14-.63.09-.22.21.08.14-.31.06-.23.16,0,.2,0-.11-.35.08-.66.1-.86l0,.19a1,1,0,0,1,0-.29l-.12.1c0-.11,0-.2.07-.2s-.2.09-.3-.13c.06-.15-.07-.44.09-.49,0,.45.16-.05.18.33a.85.85,0,0,1,0-.27s0,0,0,0c.14-.43-.18-.2-.18-.65.09.06.17-.1.15-.17,0,.18-.14.08-.21-.08s0-.32,0-.47l0,.17c-.09-.06-.07-.2-.1-.4.07,0,0,.18.08.11-.16-.22.16-.51,0-.82.06-.14.17,0,.21-.14-.12-.35.12-.38,0-.74-.12.1-.09.12-.21-.14l.08.61-.17-.39c0,.18.07.38,0,.49-.09-.18-.06-.16-.16-.08.18-.25-.11-.49,0-.78h.3c.13-.43-.15-.77-.08-1.33l0,.18c-.12-.08,0-.35-.06-.53.1,0,.13-.1.19-.18s0-.41-.19-.46l.13-.25c.06-.45-.28-.52-.25-1,.11.13.18-.07.26.22,0-.15,0-.28,0-.28s-.13-.4,0-.54-.15-.08-.14-.24,0,0,0,0-.07-.26-.18-.11c.31-.45,0-1.26.25-1.65a8.69,8.69,0,0,1-.07-1s0,0,0,0c.1-.39-.28-.24-.18-.69.16-.24.09.24.15.09.32-.06,0-.54.15-.85v.07c.11-.23-.12-.57-.1-1,0,0,0,0,0,0a3.18,3.18,0,0,1-.26-1.12c.12.11.06.16.19.09s-.2.05-.24-.28c.07-.1.13-.34.27-.37V51c.17-.16,0-.4,0-.57l.08,0c0-.47-.22-.48-.21-1l-.06.06c-.19-.28.11-.24,0-.51l.19-.09a7.6,7.6,0,0,1-.22-1,3.39,3.39,0,0,1,.3.81,1.42,1.42,0,0,0-.11-.71c0,.07.07.16,0,.23a1.46,1.46,0,0,1-.23-.88c.38.07.1-.94.39-1.21a11.55,11.55,0,0,1,0-2c-.3.27,0-.22-.31-.17,0-.17,0-.24,0-.26l.19-.52c.09-.13.06.16.13.15,0-.39.13-.16.21-.42-.11.05-.15-.13-.11-.35l-.14.31c-.17-.53.25-.46.09-1l.1.17c-.06-.28,0-1-.25-1.29,0,0,.12-.11.15,0,0-.66-.27-1.47-.11-2l.07,0c0-.12-.14-.21-.06-.37,0,0,.07,0,.07,0A1,1,0,0,1,106,38l.08.14c.1-.65-.2-1-.26-1.53.23,0,.3-.5.33-.76h0a10.29,10.29,0,0,0-.27-2,12.1,12.1,0,0,0,.24-2.15c0,.1-.17,0-.2-.14s-.15-.45,0-.42v.05c.2-.12.15-.45.15-.71l-.26-.05c.38-.68-.14-1.78.2-2.15-.07-.17-.07-.37-.13-.53h.14a7.26,7.26,0,0,0,0-1.25l.1.12c0-.32-.41-.41-.41-.7l.21-.09a5.14,5.14,0,0,0,0-1.66.13.13,0,0,1,.1.12c0-.26.14-1-.15-.92.19,0,0-.57-.06-.87l.14,0a1,1,0,0,1-.28-.62c0-.08.11-.07.07,0,.08-.28-.13-.21,0-.55l.09.12c0-.28,0-.26-.14-.42s0-.54.16-.58a.37.37,0,0,1-.15-.37s.08,0,.09.07c.1-.48-.16-.71,0-1,0,0,.07,0,.08-.06a5,5,0,0,1,0,.66c.13,0,.15-.3.33-.06a2,2,0,0,1-.25-1l0,0v0a.4.4,0,0,0,0-.19,1,1,0,0,0,0-.24c.11,0,.06-.36.06-.51-.14,0-.12-.19-.23,0,0,0,0,0,0,.13s0,.05,0,.07h0c0,.1,0,.23,0,.38a.41.41,0,0,1,0-.42l-.23-.21c.2-.21.3-.62.43-.68-.08-.46-.06-1.1-.32-1.39,0-.14.08-.16.12-.2s0,.16.06.2c-.07-.26,0-.78-.21-.85.08-.33.17.19.14-.27l0,.06c.3-.9-.47-1.47-.09-2.48,0,.07,0,.11-.07.12.17-1.14-.15-2.36.11-3.49.06-.32-.06-.36-.15-.55l.15-.07-.17-.34c-.13-.47.37-.82.13-1.42l-.11.08c0-.22-.06-.69.06-.65s-.11-.07,0-.16h.08l-.14-.53c.06-.41.31.07.33-.53,0-.23-.23-.64-.28-.56s0,.24-.13.24l0-.2c-.24,0-.47-.2-.64.3l.15.35-.12.12v-.3c-.11.17,0,.28,0,.39a.28.28,0,0,0-.13.15l.23.34c-.09,0-.18-.15-.23.08.1.16.2-.15.27.11-.11.17-.19.12-.1.32-.06,0-.1,0-.13-.1.07.18,0,.47.16.56-.13.17,0,.59-.19.57a1.1,1.1,0,0,1,.18.47c-.26-.3,0,.6-.3.52.24.22.11.78.24,1.17,0,0-.06-.07,0-.1a1.46,1.46,0,0,1-.14.42c.19,0,.24.36.36.54-.19.27-.23-.16-.41-.07.16,0,.16.46.29.37-.12.2-.06.17-.22.28.25,0,0,.19.19.35-.12.3-.23.08-.15.4C104.78,11.57,104.7,11.29,104.7,11.29Zm.42,7.66h0a1,1,0,0,1,0-.16A1.1,1.1,0,0,0,105.12,19Zm0,.65a2.44,2.44,0,0,0,0-.28.06.06,0,0,1,.09.06S105.16,19.5,105.12,19.6Zm1-1.37c0,.11,0,.14,0,.15a1.49,1.49,0,0,0,0-.17v0Z"/><path class="cls-1" d="M105.91,18.05s0,0,0,0l0,.06s0,0,0,0Z"/><path class="cls-1" d="M105.7,76.44v0l0,0A0,0,0,0,1,105.7,76.44Z"/><polygon class="cls-1" points="104.85 28.49 104.89 28.49 104.86 28.43 104.85 28.49"/><path class="cls-1" d="M105.22,80l0,0S105.21,80,105.22,80Z"/><path class="cls-1" d="M105.19,81.52l0,.21A1.49,1.49,0,0,0,105.19,81.52Z"/><path class="cls-1" d="M105.12,82.69s0,0,.06,0h0Z"/><path class="cls-1" d="M105,64v0C104.92,63.81,104.93,63.88,105,64Z"/><path class="cls-1" d="M105.28,69.54a1.27,1.27,0,0,1-.06-.18C105.21,69.46,105.2,69.53,105.28,69.54Z"/><path class="cls-1" d="M104.79,57.74h0v0Z"/><path class="cls-1" d="M105.22,69.1a.46.46,0,0,0,0,.26A.76.76,0,0,0,105.22,69.1Z"/><path class="cls-1" d="M105.06,87.8v.06h0Z"/><path class="cls-1" d="M105.07,87.86l0,.07S105.09,87.87,105.07,87.86Z"/><path class="cls-1" d="M105.12,88.06l0-.13S105.08,88,105.12,88.06Z"/><path class="cls-1" d="M105.12,86.24l-.05,0Z"/><path class="cls-1" d="M105.11,85.77a1.15,1.15,0,0,0-.08.44h0C105,86.15,105.19,85.87,105.11,85.77Z"/><path class="cls-1" d="M105.74,83.79l0,.4c0-.07.12-.17.14,0C106,83.7,105.71,84.31,105.74,83.79Z"/><path class="cls-1" d="M105.81,82.56c0,.21.08,0,.11,0C105.87,82.43,105.86,82.4,105.81,82.56Z"/><path class="cls-1" d="M105.82,73.66l.12,0C105.92,73.51,105.89,73.68,105.82,73.66Z"/><polygon class="cls-1" points="105.15 71.96 105.08 72.12 105.19 72.19 105.15 71.96"/><polygon class="cls-1" points="106.06 70.95 106.08 71.02 106.04 70.75 106.06 70.95"/><path class="cls-1" d="M106,56l-.16,0C105.89,56.17,106.07,56.19,106,56Z"/><path class="cls-1" d="M105.86,49.55a.3.3,0,0,0,0-.36A2.15,2.15,0,0,0,105.86,49.55Z"/><polygon class="cls-1" points="106.12 30.2 106.17 30.33 106.13 30.09 106.12 30.2"/><path class="cls-1" d="M105.49,4.47s0-.14-.06-.12l-.06.16Z"/><path class="cls-1" d="M105,4.16a.33.33,0,0,0-.14.38c.09-.16.11-.1.21-.29a.11.11,0,0,1,.13.12s.12,0,.16-.07a.24.24,0,0,0-.37,0S105,4.19,105,4.16Z"/><path class="cls-1" d="M97.15,3.91h0Z"/><path class="cls-1" d="M92.32,3.81s.05,0,.05,0S92.31,3.8,92.32,3.81Z"/><path class="cls-1" d="M91.49,3.63h.05S91.5,3.62,91.49,3.63Z"/><path class="cls-1" d="M97.15,3.91,97,3.85C97,3.91,97.09,3.89,97.15,3.91Z"/><path class="cls-1" d="M103.88,4.56l.07,0-.07,0Z"/><path class="cls-1" d="M99.28,3.77h0a.43.43,0,0,0,0-.07Z"/><path class="cls-1" d="M100.92,3.75s0,.13-.06.19,0-.08.08-.09A.44.44,0,0,0,100.92,3.75Z"/><path class="cls-1" d="M103.51,4l0,0Z"/><path class="cls-1" d="M98.11,3.74a.43.43,0,0,0,0-.05A.09.09,0,0,0,98.11,3.74Z"/><path class="cls-1" d="M52.35,4.8v0S52.34,4.8,52.35,4.8Z"/><path class="cls-1" d="M50.46,4.1h0s0,0,0-.08Z"/><path class="cls-1" d="M90,3.45h0S90,3.44,90,3.45Z"/><path class="cls-1" d="M76.11,3.56c.15.12-.26.16,0,.3C76.07,3.8,76.3,3.64,76.11,3.56Z"/><path class="cls-1" d="M103.84,4.54h0Z"/><path class="cls-1" d="M76.09,3.86Z"/><path class="cls-1" d="M86.5,3.54s0,0,0,.06S86.52,3.57,86.5,3.54Z"/><path class="cls-1" d="M89.09,3.74l-.06,0Z"/><path class="cls-1" d="M85.15,3.73s-.05,0-.09,0,0,0,0,0A.06.06,0,0,1,85.15,3.73Z"/><path class="cls-1" d="M83.75,3.74l0,0h0Z"/><path class="cls-1" d="M56.61,4.73a.31.31,0,0,1-.06-.13C56.57,4.7,56.36,4.74,56.61,4.73Z"/><path class="cls-1" d="M103.88,4.48s0,.06,0,.06h0A.06.06,0,0,0,103.88,4.48Z"/><path class="cls-1" d="M85.09,4.84l-.22,0A.75.75,0,0,0,85.09,4.84Z"/><path class="cls-1" d="M66.67,4.71l0,0S66.66,4.73,66.67,4.71Z"/><path class="cls-1" d="M84.21,4.84a.28.28,0,0,0-.13-.09s0,0,0,0Z"/><path class="cls-1" d="M56.55,4.6Z"/><path class="cls-1" d="M55.08,4.94c.21,0,.1-.19.14-.29.26-.05.12.13.21.23s.28-.22.4-.21,0,0,0,.08c.17-.15.5,0,.69-.19,0,0,0,0,0,0a.59.59,0,0,1,0-.25c.09,0,.17-.12.21,0s-.06.05-.09.08l.1,0c.09.18-.14.06-.14.19.2-.06.42-.2.57-.15s-.35.06-.15.21l-.23-.07c.18.27-.14,0,0,.27.31,0,.34-.09.65,0,.06-.09,0-.14,0-.23.43-.17.34.43.66.2.08-.11.11-.33.33-.21l-.07.19c.29,0,.17-.28.47-.15,0,.08-.23.07-.18.09s.14-.11.29-.11l0,.17c.32,0,.66-.15,1-.18,0,.05-.08.1,0,.15a3.44,3.44,0,0,1,1.35.13l.16-.15s.07.07,0,.09c.17.06,0-.09.09-.15a.07.07,0,0,1,.06.13,1.59,1.59,0,0,1,1.13-.11l-.06,0c.24.06.27-.3.49-.16l0,0c.52.06,1.09-.07,1.48.15.07-.21.51.09.54-.2.3.14.21.2.63.29.11,0,.16-.18.3-.21v.15l.19-.16.1.19.13,0c-.05,0-.11-.07-.1-.12.2-.07.49.11.49.19l.48-.13c0,.06-.09.08-.16.12.26-.16,0,.16.28,0,0,0,0-.09,0-.12a.85.85,0,0,0,.58,0l0,.11c.35,0,.74,0,1.14,0-.14,0-.11-.24,0-.25l0,.16c.07-.1-.12-.06,0-.18s.1.18,0,.23l.18,0s0,.07,0,.13c.08-.1.31.17.42,0v0c.4,0,.57-.06.9-.06,0-.14.13-.11.22-.23a3.17,3.17,0,0,0,.79.15c.2-.07.06-.12.15-.21,0,.13.3.12.15.21a3.4,3.4,0,0,0,.87-.13c0-.05-.1-.07-.07-.12s.17.06.16.12h0c.49-.19,1.12.38,1.51.11h0L75,4.6c.18,0-.11.1,0,.18.44-.22.69,0,1-.11.28.37,1,0,1.35.21l0-.09c.1-.08.12,0,.19.07s-.1-.08,0-.12A11.3,11.3,0,0,1,80.06,5c.31,0,.18-.46.56-.25l-.11.16c.62-.19,1.26,0,1.87-.16,0,0,0,.09-.1.09.13.12.47,0,.47-.09s0,.09.08.14.32-.16.39,0,0,0-.06,0,.39,0,.31-.12c.23.06.43-.07.61,0,.12-.16.39.07.43-.15,0,.23.4.18.54.08,0,.07.12.07.07.16.16,0,.31,0,.28-.16.3.27.61-.22.78.13a12.59,12.59,0,0,1,1.37-.26c0,.23-.48,0-.46.26.41-.09.65-.28,1.06-.23.11,0-.06.1-.1.14.42-.1.8,0,1.17-.1,0,0,0,0-.08.06s.17,0,.16-.07l-.07,0c-.11-.15.29-.32.3-.39-.12.29.37.07.17.44a.14.14,0,0,0,.1-.14c.07,0,.09.06,0,.14.26-.05.17-.16.4-.16,0,0,0,.07-.07.13a.46.46,0,0,1,.44-.15s0,.06,0,.06c.34,0,.58-.25,1-.16-.11.21.13.07.15.26l.2-.06-.08-.09c.17,0,.33-.13.48-.07l-.13.08.33,0-.19-.07c.18-.1,0-.24.22-.18,0,0,.18,0,.27.11h0a.34.34,0,0,1,.31-.08c0,.06,0,.21,0,.25.09-.16.42,0,.52-.21a.24.24,0,0,0,0,.16l.07-.13c.08,0,.09.06.08.14.25,0-.08-.24.21-.14,0,0,0,0-.06,0,.3.05.57-.08.84,0,.08.19-.23,0-.14.21a5.45,5.45,0,0,1,1.18-.18l-.07,0c0-.27.28.13.47,0,0,0-.06.15,0,.12A3,3,0,0,0,97,4.35l0,.07a5,5,0,0,0,.56.07c0-.07.15-.06.09-.16.5.39,1-.21,1.41.11-.05,0-.13.06-.08.06l.38-.06c0-.11,0-.07-.13-.16a.32.32,0,0,1,.25-.12c-.17.08,0,.19.07.25s0-.07,0-.11c.2.21,0-.23.31-.09l0,.06c.11,0,.2-.11.31-.1s-.11.07-.12.18c.16,0,.31-.26.45-.12a2,2,0,0,0-.23.07c.15.16.17.12.29.14h0l.27.07-.07,0c.19-.35.39-.07.65-.3-.25.22,0,.13-.06.28s.17.09.14.13c.12-.12.21.1.38-.08,0,0,.13,0,.1.13.16,0,0-.09,0-.15.25-.16.58.2.93,0s.37-.26.65-.35c.1.08-.08.18-.08.18a.51.51,0,0,0,.42,0s0,.07,0,.13.07-.18.23-.11a.71.71,0,0,1-.12.2c.14,0,.27-.14.42-.18s-.09.13-.14.18c.16,0,.42-.07.47-.21l-.11,0c.06,0,0,.12,0,.14s-.2,0-.21-.09l.11,0c-.11-.29-.41,0-.62,0L104,4.1l-.21.17s-.08-.17,0-.2c-.14-.1-.13.07-.25,0s0,0,0,0l-.14.06s0-.14.06-.11c-.25-.12-.41.15-.51,0l0,0c-.35.07,0,.16-.3.34l-.18-.38,0,.15s-.11,0-.1-.08c-.14.11,0,.07,0,.17-.18-.14-.49.06-.53-.18-.07.12.17.09,0,.17-.06-.26-.22,0-.38-.07.05-.14.2-.07,0-.19-.1.23-.32-.05-.45,0s-.3.07-.53.13c0-.06-.43-.1-.64-.16v0c0,.18-.26.14-.42.18a.22.22,0,0,1,.12-.2h-.15c0,.06-.08.09-.18.11l0-.14c-.2,0-.4.17-.66.07,0,.13.2.36-.07.45,0-.07,0-.19,0-.22s-.08.06-.13,0L98.48,4c-.12-.05-.06.1-.15.09s-.07-.07-.06-.15.08,0,.12,0a.41.41,0,0,1-.28-.15c0,.06,0,.13-.07.15s-.07-.12-.19-.17-.18,0-.18.14-.07-.07-.09-.11-.49,0-.37.18h0c-.34.15-.71-.08-1,0v0c-.2.06-.45,0-.59.14s-.14-.09-.12-.14c-.15,0-.17.09-.39,0,.15-.09,0-.08.16-.07-.2,0-.25-.12-.46,0,.07-.13-.15-.16-.25-.12l.14.09a1.38,1.38,0,0,1-.29,0l.05-.16c-.41-.21-.74.34-1.05,0-.11.12.22.08.12.22-.18,0-.38-.26-.44-.26-.26-.09-.24.24-.51.18a.17.17,0,0,1-.13.27c-.19,0-.23-.25-.12-.3s.07,0,.07,0,.14,0,.07-.11l0,.06c-.09-.06-.35-.06-.29-.15-.14,0-.06.09,0,.12-.24-.08-.37,0-.62-.06,0,0,.07.11,0,.1-.37-.07-.17.12-.41.14s0-.21-.2-.14,0-.15,0-.2c-.23.11-.43-.08-.55-.1l.11,0a.42.42,0,0,1-.18,0l.06.12c-.07,0-.13,0-.12-.07s.05.2-.09.3c-.1-.06-.29.07-.32-.09.29,0,0-.16.22-.18a.28.28,0,0,1-.18,0s0,0,0,0c-.28-.14-.13.18-.42.18a.11.11,0,0,0-.12-.15c.12,0,.06.14,0,.21s-.2.05-.3.05l.11,0c0,.09-.13.08-.26.1s.12,0,.07-.07c-.14.15-.32-.17-.53-.06-.09-.06,0-.17-.09-.21-.22.12-.24-.12-.48,0,.07.11.08.09-.09.2l.4-.08L88,3.8c.12,0,.25-.07.32,0-.12.09-.1.06,0,.16-.16-.18-.32.11-.5,0V3.6c-.28-.13-.49.15-.86.08l.12,0c0,.12-.23,0-.34.06s-.07-.13-.12-.19-.26,0-.3.19l-.16-.13c-.29-.05-.33.28-.62.25.09-.11,0-.18.15-.26-.09,0-.18,0-.18.05s-.26.13-.35,0,0,.15-.16.14a.08.08,0,0,1,0,0s-.16.07-.07.18c-.29-.31-.81,0-1.07-.25a4.86,4.86,0,0,1-.64.08s0,0,0,0c-.26-.09-.16.28-.45.18s.15-.09.06-.15c0-.32-.35,0-.55-.14l0,0c-.15-.11-.37.12-.62.1a.08.08,0,0,0,0,0,1.42,1.42,0,0,1-.72.26c.07-.12.11-.06.06-.19s0,.2-.18.24-.22-.13-.24-.27h.2c-.1-.18-.26,0-.37,0l0-.08c-.31,0-.31.22-.64.21l0,.06c-.18.19-.15-.11-.33,0l0-.19a4.82,4.82,0,0,1-.63.23,1.63,1.63,0,0,1,.52-.31c-.12,0-.4,0-.46.11s.11-.07.15,0a.7.7,0,0,1-.56.23c0-.38-.62-.1-.79-.39-.41.14-.82-.06-1.3,0,.17.3-.15,0-.12.31-.11,0-.15,0-.16,0l-.34-.19c-.08-.08.1-.06.09-.13-.24,0-.1-.13-.26-.21,0,.11-.09.15-.23.11l.2.14c-.35.17-.3-.25-.65-.09l.11-.1c-.18.06-.65,0-.83.25,0,0-.07-.12,0-.15-.43,0-1,.27-1.28.12l0-.08c-.08,0-.14.14-.24.07s0-.08,0-.08-.22.13-.32.08l.09-.08c-.42-.1-.64.2-1,.26,0-.22-.32-.3-.49-.33v0a4.49,4.49,0,0,0-1.27.27c-.28-.24-.94-.1-1.39-.24.07,0,0,.17-.09.2S68,3.8,68,3.6h0c-.08-.2-.29-.14-.46-.15l0,.26c-.44-.38-1.15.15-1.39-.2-.11.07-.24.07-.35.13V3.5a3.05,3.05,0,0,0-.81,0l.08-.1c-.21,0-.26.41-.45.42l-.06-.22c-.36,0-.72-.18-1.07,0a.09.09,0,0,1,.07-.1c-.17,0-.65-.14-.59.15,0-.19-.37,0-.56.07l0-.14c-.17.17-.17.22-.4.27-.05,0-.05-.11,0-.07-.18-.08-.14.13-.35,0l.08-.09c-.19,0-.17,0-.28.15s-.35,0-.37-.17a.22.22,0,0,1-.24.15.08.08,0,0,1,0-.09c-.31-.1-.47.16-.68,0a.1.1,0,0,0,0-.08,2.08,2.08,0,0,1,.42,0c0-.13-.2-.15,0-.33-.16.1-.43.31-.63.25,0,0,0,0,0,0h0a.16.16,0,0,0-.12,0,.53.53,0,0,0-.16,0c0-.11-.23-.06-.33-.06s-.12.12,0,.23,0,0,.08,0h.29c-.08.07-.16.13-.27,0L59.33,4c-.14-.2-.4-.3-.44-.42-.3.07-.71.05-.9.31-.09,0-.1-.07-.13-.12s.11,0,.13-.06c-.17.07-.51,0-.55.21-.21-.08.13-.17-.17-.13l0-.06c-.59-.3-1,.47-1.61.09,0,0,.07,0,.08.07-.74-.17-1.53.15-2.26-.11-.2-.06-.23.06-.35.15l-.05-.15L52.9,4c-.3.12-.53-.38-.92-.13l.05.1c-.14,0-.44.06-.42-.06s0,.11-.1.05V3.83L51.16,4c-.26-.06.05-.31-.34-.33-.15,0-.41.23-.36.28s.15.05.15.13l-.13,0c0,.24-.12.47.2.64l.23-.15L51,4.7h-.19c.11.11.18,0,.25,0a.22.22,0,0,0,.1.13l.22-.23c0,.1-.1.19,0,.24.1-.11-.1-.21.07-.28.11.11.08.2.2.1a.1.1,0,0,1-.06.13c.12-.07.3,0,.36-.15.11.13.38,0,.37.18a.64.64,0,0,1,.3-.18c-.18.26.39,0,.34.3.14-.24.51-.11.76-.24,0,0,0,.06-.07,0,.14,0,.19.09.28.13,0-.19.23-.24.35-.36.17.19-.11.23-.05.41,0-.16.3-.16.24-.29.13.12.11.06.18.22,0-.24.12,0,.23-.19.19.12.05.23.26.15C55.27,4.85,55.08,4.94,55.08,4.94Zm5-.43Zm.41,0h-.18s0-.09,0-.09S60.39,4.47,60.45,4.51Zm-.88-1c.07,0,.09,0,.1,0l-.12,0v0A.12.12,0,0,1,59.57,3.54Z"/><path class="cls-1" d="M59.45,3.72h0l0,0a.08.08,0,0,1,0,0Z"/><path class="cls-1" d="M97.21,3.93h0l0,0Z"/><polygon class="cls-1" points="66.2 4.78 66.2 4.74 66.17 4.77 66.2 4.78"/><path class="cls-1" d="M99.5,4.41l0,0A.05.05,0,0,0,99.5,4.41Z"/><path class="cls-1" d="M100.5,4.44l.14,0Z"/><path class="cls-1" d="M101.26,4.51a.13.13,0,0,0,0-.06h0Z"/><path class="cls-1" d="M89.14,4.68h0C89.05,4.71,89.09,4.7,89.14,4.68Z"/><path class="cls-1" d="M92.75,4.35a.67.67,0,0,1-.12.06C92.7,4.43,92.75,4.43,92.75,4.35Z"/><path class="cls-1" d="M85.12,4.85h0Z"/><path class="cls-1" d="M92.47,4.41a.18.18,0,0,0,.16,0A.43.43,0,0,0,92.47,4.41Z"/><path class="cls-1" d="M104.56,4.58h0v0Z"/><path class="cls-1" d="M104.6,4.56l0,0S104.61,4.54,104.6,4.56Z"/><path class="cls-1" d="M104.73,4.51l-.09,0S104.71,4.55,104.73,4.51Z"/><path class="cls-1" d="M103.55,4.51v0A.07.07,0,0,0,103.55,4.51Z"/><path class="cls-1" d="M103.24,4.53c.08,0,.19.1.29.07v0C103.49,4.64,103.31,4.44,103.24,4.53Z"/><path class="cls-1" d="M102,3.9l.25,0c0-.06-.1-.13,0-.14C101.91,3.63,102.3,3.92,102,3.9Z"/><path class="cls-1" d="M101.17,3.82c.14,0,0-.08,0-.11S101.07,3.77,101.17,3.82Z"/><path class="cls-1" d="M95.41,3.82l0-.13C95.32,3.71,95.43,3.74,95.41,3.82Z"/><polygon class="cls-1" points="94.31 4.48 94.42 4.56 94.47 4.44 94.31 4.48"/><polygon class="cls-1" points="93.66 3.57 93.71 3.55 93.53 3.59 93.66 3.57"/><path class="cls-1" d="M84,3.61l0,.16C84.1,3.74,84.12,3.56,84,3.61Z"/><path class="cls-1" d="M79.83,3.77c0-.08-.17-.13-.24,0C79.68,3.73,79.78,3.79,79.83,3.77Z"/><polygon class="cls-1" points="67.31 3.52 67.39 3.46 67.24 3.51 67.31 3.52"/><path class="cls-2" d="M32,107.07a18,18,0,0,1-2.17-.13l.24-2a16.12,16.12,0,0,0,1.93.12,6.56,6.56,0,0,0,.89,0l.11,2C32.71,107.06,32.38,107,32,107.07Zm4.13-.48-.44-2a23.8,23.8,0,0,0,2.77-.8l.66,1.88A25.16,25.16,0,0,1,36.17,106.59Zm-9.36-.23c-1-.24-2-.54-2.94-.8l.57-1.92c.86.25,1.88.54,2.84.78ZM42,104.55l-.87-1.8a15,15,0,0,0,2.42-1.43L44.76,103A18,18,0,0,1,42,104.55Zm5.11-3.73-1.49-1.35a15.72,15.72,0,0,0,1.69-2.25l1.7,1.06A19.31,19.31,0,0,1,47.15,100.82Zm3.4-5.23-1.78-.91.45-.9c.3-.59.6-1.19.92-1.79l1.77.94c-.32.59-.61,1.17-.9,1.75Zm2.83-5.14-1.66-1.12a20.47,20.47,0,0,1,2-2.47l1.46,1.37A17.19,17.19,0,0,0,53.38,90.45Zm3.86-4.11L56,84.75A22.44,22.44,0,0,1,58.65,83l1,1.75A17.73,17.73,0,0,0,57.24,86.34Zm5-2.82-.82-1.83.06,0a28.35,28.35,0,0,1,2.88-1l.54,1.92A22.46,22.46,0,0,0,62.27,83.52Zm13.8,0-.21-.07c-.89-.3-1.73-.59-2.59-.83l.54-1.93c.92.26,1.82.57,2.7.87l.2.07ZM67.7,82l-.2-2a15.56,15.56,0,0,1,3.2,0l-.21,2A14.45,14.45,0,0,0,67.7,82Z"/><path class="cls-2" d="M21,98.76H18v-2h3Zm-6,0H12v-2h3Zm-6,0H6v-2H9Z"/><path class="cls-2" d="M9,103H6v-2H9Zm-6,0H0v-2H3Z"/><path class="cls-2" d="M9,107.93H6v-2H9Zm-6,0H0v-2H3Z"/><path class="cls-2" d="M21.07,111.9h-2v-3h2Zm0-6h-2v-3h2Zm0-6h-2v-3h2Z"/><path class="cls-2" d="M21,112.21H18v-2h3Zm-6,0H12v-2h3Zm-6,0H6v-2H9Z"/></g></g></svg>