<svg xmlns="http://www.w3.org/2000/svg" viewBox="0 0 109.47 66.73"><defs><style>.cls-1{fill:#9fc4e8;}.cls-2{fill:#ee7d00;}</style></defs><title>Element 198</title><g id="Ebene_2" data-name="Ebene 2"><g id="Ebene_2-2" data-name="Ebene 2"><path class="cls-1" d="M97.25,2c.49,0,1.14.07,1-.36-.61.07-.66-.12-1.29.06-.39-.11-.66-.3-.56-.41-.16,0-.64-.2-.89,0a4.11,4.11,0,0,0,1.85.55C97.47,1.9,97.31,1.92,97.25,2Z"/><path class="cls-1" d="M99.46,62c-.07.14-.14.25-.09.24S99.48,62,99.46,62Z"/><path class="cls-1" d="M96.4,63.84a.3.3,0,0,0-.2,0Z"/><path class="cls-1" d="M101,39l-.1.64C101,39.72,101,39.34,101,39Z"/><path class="cls-1" d="M101.71,5.36a1.67,1.67,0,0,0-.24-.32l.19.32Z"/><path class="cls-1" d="M100.73,28.44v-.19a.65.65,0,0,0-.13-.16Z"/><path class="cls-1" d="M101.07,20.64a.64.64,0,0,1-.2-.4.37.37,0,0,0-.2.08C100.66,20.5,100.94,20.57,101.07,20.64Z"/><path class="cls-1" d="M85.22.18s0,0,0,.05S85.28.18,85.22.18Z"/><path class="cls-1" d="M94.63,1.57l-.13,0a.9.9,0,0,0,0,.16Z"/><path class="cls-1" d="M89,63.74h0C89.22,63.71,89.11,63.72,89,63.74Z"/><path class="cls-1" d="M22.77,60.62c0,.35-.16.15-.34,0s-.32-.35-.25.2C22.25,60.68,23,61.44,22.77,60.62Z"/><path class="cls-1" d="M101.76,5.6l.13.34A1.88,1.88,0,0,0,101.76,5.6Z"/><path class="cls-1" d="M71.7,63.91a.63.63,0,0,0,.18.12S71.83,64,71.7,63.91Z"/><path class="cls-1" d="M65,64.3a1.19,1.19,0,0,0-.47,0l.07,0A.71.71,0,0,1,65,64.3Z"/><path class="cls-1" d="M58.06,64.3a.45.45,0,0,0,.12.06h.22Z"/><path class="cls-1" d="M69.74,8.86c0-.1.06-.16.07-.2s0,0,0,0h-.37A1,1,0,0,1,69.74,8.86Z"/><path class="cls-1" d="M101.57,5.42c.08,0,.13.07.19.18l-.1-.24S101.57,5.36,101.57,5.42Z"/><path class="cls-1" d="M64.73,66.52l-1.1,0C63.94,66.51,64.34,66.52,64.73,66.52Z"/><path class="cls-1" d="M60.34,66.52a1.87,1.87,0,0,0-.62-.19.54.54,0,0,0-.13.07Z"/><path class="cls-1" d="M55.32,10.63l.13,0-.19-.06-.12.08Z"/><path class="cls-1" d="M101,38.78a.39.39,0,0,1,0-.09s0,0,0,.05Z"/><path class="cls-1" d="M21.59,11.57l.05,0,.09-.21A1.15,1.15,0,0,0,21.59,11.57Z"/><path class="cls-1" d="M102,27.35a.4.4,0,0,0,.08-.15S102,27.27,102,27.35Z"/><path class="cls-1" d="M102.07,22.43l.1-.7A5,5,0,0,0,102.07,22.43Z"/><path class="cls-1" d="M102.21,18.64a.26.26,0,0,0-.12-.07h0Z"/><path class="cls-1" d="M84.84,66.19H84.7C84.35,66.25,84.59,66.23,84.84,66.19Z"/><path class="cls-1" d="M101.35,61a2.66,2.66,0,0,1-.13.61C101.39,61.3,101.51,61.06,101.35,61Z"/><path class="cls-1" d="M64.85,66.53h0Z"/><path class="cls-1" d="M101.22,61.6a7.52,7.52,0,0,0-.45.78A2.1,2.1,0,0,0,101.22,61.6Z"/><path class="cls-1" d="M99.31,2.21s0,0,0,0l.2.11Z"/><path class="cls-1" d="M99.07,2.12a.45.45,0,0,0,.2.11Z"/><path class="cls-1" d="M98.63,1.91a3.55,3.55,0,0,1,.44.21A.72.72,0,0,0,98.63,1.91Z"/><path class="cls-1" d="M102.23,8.78a4,4,0,0,0,.07-1.55l-.09,0C102.44,7.44,102.07,8.48,102.23,8.78Z"/><path class="cls-1" d="M101.06,13.85c-.11.23-.26.52-.29-.06-.32,1.61.25-.33.2,1.34Z"/><path class="cls-1" d="M100.6,19.05c.1.44.12.54.22,0C100.77,18.4,100.66,19.09,100.6,19.05Z"/><path class="cls-1" d="M100.82,47.66l-.26-.07C100.6,48.12,100.66,47.59,100.82,47.66Z"/><polygon class="cls-1" points="102.14 53.12 102.3 52.61 102.06 52.36 102.14 53.12"/><polygon class="cls-1" points="100.31 56.35 100.28 56.12 100.37 57 100.31 56.35"/><path class="cls-1" d="M59.29,64.06l.16.31C59.81,64.31,59.88,64,59.29,64.06Z"/><path class="cls-1" d="M37.41,64.27a11.64,11.64,0,0,0,1.16.11A1.46,1.46,0,0,0,37.41,64.27Z"/><polygon class="cls-1" points="22.34 17.52 22.44 17.94 22.36 17.15 22.34 17.52"/><path class="cls-1" d="M102.44,15.48c-.08-.79-.17.19-.29.12-.34-1.22.4-2.88-.06-4.64-.2-1.52-.48-1.81-.71-3.21.07-.24.16-.16.24,0a2.47,2.47,0,0,1,.14.38A3.27,3.27,0,0,0,101.38,6c.14.12.15,0,.17-.32-.26-.57-.47-.24-.72-1a1.74,1.74,0,0,1,.64.37A7.15,7.15,0,0,0,99.91,3.4c0-.26.52.15.76.32-.57-.69-1.73-1.5-2.1-1.39.13.12.25.26.37.39-.24-.17,0-.28.23-.18.71.31.73.78.67.88a2.65,2.65,0,0,0-.42-.33c0,.39.38.72.79,1.13a4.33,4.33,0,0,1,1.06,1.42,4.66,4.66,0,0,0-.56-.22,6,6,0,0,1,.71.86c0,.25-.23.44-.42,0,0,.74.32.58.18,1.23,0,.07-.05,0-.07,0,.08.22.11.45.17.68-.09-.14-.28.12-.24-.3-.2,1.22.32,2,0,2.51l0-.1c.14,1.77.31.17.66,1.5l-.75.89.31.17c0,.19,0,.55-.16.48.21.68.13-.12.33.28-.28.88.13,2.42-.36,2.62.24.32.18-.84.34.1-.52.27.09,1.09-.15,1.89-.27-.25-.12-1-.36-.2.45.48-.1,1.56,0,2.24.37,0,.16,1.47.28,2.61a27.74,27.74,0,0,0-.33,3.2l-.07,0c.37.2.3,1.29.38,2.09-.22,0-.31-.18-.41-.61v.75a1.9,1.9,0,0,1,.23.89l-.28-.18a16.15,16.15,0,0,1,.14,3.28c.26.07.72-1,.89.33-.14,0-.38.1-.44-.25a1.54,1.54,0,0,1,.06.65l-.23-.55c-.11.59.19.31.17.78-.2,0-.14.34-.3.27s.08-.4,0-.58a3.69,3.69,0,0,1-.31,1.37c.12,0,.27,0,.3.38,0,1-.24.34-.34.92.13.24,0,.88.29.9,0,.29-.14.34-.22.45.13.52,0,2.41.35,1.83l0-.14v.09c.3,1.68-.16,3.5,0,5.18h-.1a24.73,24.73,0,0,0,.28,2.94c0,.29-.18.7-.3.57a5.13,5.13,0,0,1,0,2c-.18-.77-.16.27-.13-.78a5,5,0,0,0,0,2.28c-.26-.36-.32.75-.25,1.22l.19-.7a14.29,14.29,0,0,1,0,1.47l-.33-.26c-.38,1.87.5,3.4.12,4.83l.08.15c0-.3.1-.65.24-.39a5.52,5.52,0,0,1-.09.68l.1.19a6.28,6.28,0,0,1,.63,1.84c0-.14.07-.29.11-.45s.39.21.48.11a6.32,6.32,0,0,1-.09-1.38,3.25,3.25,0,0,0-.22-1.34c.08.18.28.19.32.13l-.26-.36c.08-.4.12-.46.28-.4,0-1.22-.47.39-.27-1.06,0,.12.06.06.1.3.1-1.46-.16-2.82,0-4.16.38-.39.09,1.17.41.72-.07-1.93-.45-4-.36-5.86l0,.35c-.53-.26.26-1.4,0-2.34,0,.23.29.3.23.24a32.93,32.93,0,0,0-.29-4.55L102,40c.12-.76.07-2,.13-2.8-.13-.24-.11-.71-.31-.43.78-2.51-.41-4.79.23-7,0,.27.12.64.12.43l-.12-1.9c-.23.15-.14.25-.32.65a3,3,0,0,1-.25-1.25c.16.86.38,0,.5-.37-.07.06-.14-.07-.22,0,.41-1-.46-.16-.18-1.52l.12.07a6.78,6.78,0,0,1-.19-1.51c.27-.23.12.53.34.57,0-.77-.5-1.51-.24-2.21.08.33.08.8.15,1.12a3,3,0,0,0,.29-1.4v.05l.14-1.3-.08.33c-.7-1-.13-2-.59-3.25.44,1.26.25.21.56.31.08-.33.17-.83.26-.69-.24-.61.19-1-.17-1.88C102.28,16,102.19,15.34,102.44,15.48Z"/><path class="cls-1" d="M99.24,64.16a7.78,7.78,0,0,1-3.36.68h-52l-.37.06-.16-.06H29.94a15.39,15.39,0,0,1-9.3-3.52l0,0a4.55,4.55,0,0,0,2,3.16,13.72,13.72,0,0,0,3.77,1.92l-.1-.19c.59-.1.66.22,1.09.28-.05-.14-.6-.21-.24-.27H28l.77,0h1.55c1,0,2.08.06,3.13.11,2.1.12,4.22.27,6.29.36,1.52,0,.86-.93,2.77-.5l-.54.33c3.06-.4,6.26,0,9.26-.32-.18.07-.19.17-.48.17a3.85,3.85,0,0,0,2.35-.18c.47,0,.11.17.4.27.63.15,1.59-.3,1.93-.06.05,0-.18.07-.3.09.42-.11,1.93,0,1.53-.24,1.13.13,2.16-.13,3,0,.59-.31,1.93.15,2.11-.29-.08.45,2,.36,2.69.15-.24.14.61.14.34.33.81,0,1.55-.09,1.41-.32,1.49.54,3-.44,3.85.26,2.41-.25,4.64-.41,6.81-.52-.08.45-2.4,0-2.31.52A31.68,31.68,0,0,1,79.91,66c.52.06-.3.19-.48.27,2-.19,4,0,5.8-.21,0,0-.2.09-.39.13.36,0,.84.06.8-.14l-.35,0c-.58-.29,1.43-.62,1.49-.78-.61.59,1.81.15.84.9.23,0,.53-.14.48-.28.35,0,.46.12.1.28,1.3-.11.84-.33,2-.33,0,.1-.24.14-.36.26A4.79,4.79,0,0,1,92,65.84c-.06.06.06.14-.24.14a16.49,16.49,0,0,0,2.32-.25c.72-.08,1.59-.18,2.56-.37-.23.29-.06.28.21.24s.61-.17.73,0a7,7,0,0,0,1-.61,2.63,2.63,0,0,1-.48.06A4.58,4.58,0,0,0,99.24,64.16Z"/><path class="cls-1" d="M20,19.12A6.6,6.6,0,0,0,19.84,21H22c0-.11.06-.17.17-.15V21h0c.35-.42.26-1.45.27-2.26l-.53-.14a6.28,6.28,0,0,0,.29-1.84A10.28,10.28,0,0,1,22.4,15c.2-1.08.79-2,1.37-2.13a6.1,6.1,0,0,1,.9-1.14l.14.25a7.07,7.07,0,0,1,3.07-.91l-.29.22a2.14,2.14,0,0,0,1.05-.42,1.88,1.88,0,0,1,1.08-.43l.29.42c1.78,0,3.58.37,5.33,0,0,.06-.08.19-.37.2.84,0,3.24.29,2.94-.29,0,.38,1.83,0,2.79-.13l-.14.28a4,4,0,0,1,2-.55c.27,0,.24.22-.12.15.9.14.7-.27,1.78-.12l-.4.18a2,2,0,0,0,1.35-.28c.58-.11,1.75.07,1.88.32a1.54,1.54,0,0,1,1.17-.29c.08.1-.12.16-.22.19,1.54.19,2.29-.33,3.35,0a.21.21,0,0,0,.17.16c-1.22,0-2.2,0-2.11,0,0,.26,1,.3.2.66a9.7,9.7,0,0,1,3.11-.5.6.6,0,0,1,.13.09l-.1,0a1.75,1.75,0,0,0,.61,0,7.29,7.29,0,0,0,.79.08c.12.21,1.14.11,1.63.12,0-.28.6-.23,0-.46.08,0-.09,0-.42,0a1.05,1.05,0,0,0-.21,0l0,0-1.22,0a2,2,0,0,1,1.34-.1c.25-.18.53-.37.68-.46.68.4,2,.61,2.16.85,1.5-.16,3.54-.11,4.48-.63.43-.07.49.15.65.23a3.91,3.91,0,0,0-.67.12c.85-.13,2.53-.05,2.74-.42,1.07.17-.61.34.87.28l-.2.11a9.92,9.92,0,0,0,3.9-.15l1.23-.15.59-.06s.13,0,.11,0V9.74c0-.44,0-.87,0-1.34a3.3,3.3,0,0,1,.28-1.08c-.08.19-.11.29-.18.32A7.36,7.36,0,0,1,74.44,3.3a5.49,5.49,0,0,1,2.32-1.11A5.56,5.56,0,0,1,78,2.1c.44,0,.91.08,1.36.14a3,3,0,0,0,1.77-.31l.23.3,1.07-.34c1.53-.26,2.65.74,4.58.25l-.25-.2c.7,0,2.2-.12,2.09.11a.48.48,0,0,1,.49-.1l0,.16,1.7-.27c1.32.11-.21.62,1.72.65.72-.06,2-.46,1.78-.56s-.74-.1-.76-.26l.65-.08A3.08,3.08,0,0,0,94.66,1,.8.8,0,0,0,95,1.1l.32-.32-.68.06h0c-.09-.2-.37-.38-1.11-.53L92.39.61,92,.38h1a1.53,1.53,0,0,0-1.26.1.78.78,0,0,0-.47-.25l-1.1.45C90,.48,90.64.31,89.9.21c-.51.2.5.4-.36.54-.53-.21-.38-.38-1-.2-.09-.12,0-.2.3-.25-.56.14-1.49.06-1.78.31-.56-.27-1.89.06-1.83-.38A4.71,4.71,0,0,1,83.71.6C84.65.07,81.78.57,82,0c-.69.47-2.51.21-3.75.47A.63.63,0,0,1,78.6.38a7.57,7.57,0,0,1-.83-.1,4.62,4.62,0,0,0-.69-.09C77,.57,75.81.9,75.31,1.4c-.5,0-.42-.14-.26-.35s.45-.4.24-.52c.12.23-1.47,1-1,1.12-.76.18-.59.25-1.11.22.2.46-.52.51-.72,1.19a1.6,1.6,0,0,1-.68.34c-.1,0-.21.09-.47.65-.37.37-.11-.35,0-.56-.65,1,0,.66,0,1-.55,1.34-.55.48-.92.89a10.4,10.4,0,0,0-.1,2.36c-.07,0-.1.18-.16,0a2.37,2.37,0,0,1,.06.41.41.41,0,0,1,0,.1s0,0,0,0v.07a1.65,1.65,0,0,1,0,.32c0,.17-.12.11-.2.15A1.21,1.21,0,0,0,69.8,9a.16.16,0,0,1-.06-.09,1.14,1.14,0,0,1,.11.5c-.38,0-.85.24-1,0a.59.59,0,0,0,.45-.17l-.49.11c-.45-.35.67-.12.67-.38a14.52,14.52,0,0,1-2.83.3c-.15-.34,1.73-.11.75-.42l1.14.13c-.87-.53.7,0-.11-.53-1.5-.1-1.68.17-3.18.07-.34.19.11.28-.23.47-2.14.34-1.68-.85-3.25-.4A1.69,1.69,0,0,1,60.08,9l.38-.39c-1.46,0-.83.56-2.36.3.27-.15,1.15-.13.92-.18-1-.3-.69.22-1.46.22l-.15-.34c-1.55.06-3.26.3-5,.36.09-.1.39-.2,0-.31a40.6,40.6,0,0,1-6.72-.24l-.8.29c-.18,0-.34-.13-.14-.19-.81-.11,0,.19-.43.3s-.62-.17-.32-.25a18.79,18.79,0,0,1-5.61.22l.29-.09c-1.18-.12-1.33.6-2.42.33l.21,0c-2.57-.13-5.4.14-7.35-.3-.2.21-.79.15-1.46.15s-1.37.12-1.39.43a14.53,14.53,0,0,0-1.53.15,5.15,5.15,0,0,0-1.91.86c-.53.41-.49.91-.93,1.53l-.26-.17a8.16,8.16,0,0,0-.34,1.06,3.77,3.77,0,0,0-.59.32,6.59,6.59,0,0,0-.24.71c.11-.27.39-.51.44-.44-.2.54-.44,1.17-.66,1.7a2.89,2.89,0,0,1-.44.95l0,.7.06.6L20,18.38c-.12-.05-.16-.44-.24-.76.31,1.26-.33.23,0,1.39C19.82,18.85,19.93,19.09,20,19.12Zm34.82-8.23,0,0a.43.43,0,0,1-.13.14c-.33,0-.44,0-.48-.07ZM52.42,9h.51l-.51,0Zm-1.17,0c.07.1,0,.2-.21.19.11-.06-.38-.12-.69-.2Z"/><path class="cls-1" d="M99.74,63.88l0,0,.07-.08Z"/><path class="cls-1" d="M101.48,57.71c-.14-.08-.28.07-.08.4l.42.12Z"/><path class="cls-1" d="M101.63,60.34c.21.4.39,1,.73.71-.26-.51-.17-.63-.58-1.08-.11-.36,0-.67.11-.64-.11-.11-.12-.61-.38-.73a3.61,3.61,0,0,0,.34,1.75C101.78,60.5,101.69,60.36,101.63,60.34Z"/><path class="cls-1" d="M68.62,64.38l.23,0A.53.53,0,0,0,68.62,64.38Z"/><path class="cls-1" d="M46.63,64.19c.16,0,.23,0,.24-.07C46.72,64.15,46.59,64.17,46.63,64.19Z"/><path class="cls-1" d="M42.87,63.83l.22,0A.29.29,0,0,0,42.87,63.83Z"/><path class="cls-1" d="M68.62,64.38,68,64.27C68,64.38,68.33,64.35,68.62,64.38Z"/><path class="cls-1" d="M99.49,65a1.85,1.85,0,0,0,.29-.24l-.29.18Z"/><path class="cls-1" d="M78.32,64.11h.17a.67.67,0,0,0,.15-.14Z"/><path class="cls-1" d="M85.76,64.06c-.17,0-.23.27-.29.39a.5.5,0,0,1,.36-.19A.37.37,0,0,0,85.76,64.06Z"/><path class="cls-1" d="M97.5,64.41l.18-.08Z"/><path class="cls-1" d="M73,64.05a.18.18,0,0,0-.07-.1A.15.15,0,0,0,73,64.05Z"/><path class="cls-1" d="M98.09,49.75l0,0S98.11,49.8,98.09,49.75Z"/><path class="cls-1" d="M100.82,58.05l-.07-.1a.44.44,0,0,0-.15,0Z"/><path class="cls-1" d="M36,63.47h0C36.21,63.44,36.11,63.45,36,63.47Z"/><path class="cls-1" d="M5.3,22.34c-.68-.1.94-.54-.06-.6C5.32,21.82,4.53,22.38,5.3,22.34Z"/><path class="cls-1" d="M99.27,65a3,3,0,0,1-.32.12A1.35,1.35,0,0,0,99.27,65Z"/><path class="cls-1" d="M5.24,21.74Z"/><path class="cls-1" d="M21.66,60.59a.33.33,0,0,0,0,.19S21.71,60.71,21.66,60.59Z"/><path class="cls-1" d="M32,64l-.29,0A1.17,1.17,0,0,0,32,64Z"/><path class="cls-1" d="M17.91,56.38a1,1,0,0,0-.17-.39.11.11,0,0,0,0,.08A.47.47,0,0,1,17.91,56.38Z"/><path class="cls-1" d="M15,50.73a.56.56,0,0,0,0,.13l.11.17Z"/><path class="cls-1" d="M89.05,32.61A1,1,0,0,1,89,33C89.09,32.81,89.59,33.61,89.05,32.61Z"/><path class="cls-1" d="M99.42,64.84a.26.26,0,0,1-.15.2l.22-.12S99.48,64.84,99.42,64.84Z"/><path class="cls-1" d="M15.83,57.17l-.43-.91A8.94,8.94,0,0,0,15.83,57.17Z"/><path class="cls-1" d="M47.93,19.81l.23,0A.42.42,0,0,0,47.93,19.81Z"/><path class="cls-1" d="M14,53.61a2.35,2.35,0,0,0-.09-.6.37.37,0,0,0-.12-.07Z"/><path class="cls-1" d="M89,33Z"/><path class="cls-1" d="M92.62,38.61c-.43-.86-.53-.24-.81-.32-.62-1,0-.6,0-1-.41-.6-1-.93-1.2-1.41,0-.07,0-.17.13-.1-.61-.54-1-2-1.79-2.61A.26.26,0,0,1,89,33a.63.63,0,0,1-.39.36c-.2-.38-.57-.61-.43-.86.11.24.21.21.33.29l-.3-.36c.12-.52.39.5.62.38a12.27,12.27,0,0,1-1.46-2.16c.23-.29.83,1.35.68.41l.37,1c.11-1,.26.58.43-.34-.55-1.27-.87-1.29-1.41-2.55-.31-.19-.2.22-.51,0-1.23-1.6.13-1.72-1.14-2.92-.44-.22-.84-.1-1.38-1.07l.54,0C83.93,24.11,84,25,83,23.8c.3.05.93.65.8.47-.53-.88-.66-.31-1.24-.76l.09-.36a16.76,16.76,0,0,0-4.41-2c.12-.07.43-.06.1-.3-1-.3-2.11-.62-3.23-.85-.56-.1-1.13-.21-1.7-.26l-1.52-.16-.73.29c-.17,0-.31-.13-.13-.19-.75-.11,0,.19-.4.3s-.56-.16-.29-.25a15.79,15.79,0,0,1-5.14.22l.27-.09c-1.08-.12-1.22.6-2.22.33l.19-.05c-2.35-.13-4.94.14-6.73-.3-.34.42-2.32-.19-2.47.4a13.86,13.86,0,0,0-2.84-.6c-.51,0-.75.37-1.38.43v-.3l-.85.32-.45-.37-.58.08c.23,0,.49.14.46.23a3.7,3.7,0,0,1-2.25-.38l-2.16.26c0-.12.41-.16.7-.24-1.16.31-.21-.33-1.27,0,.14.07-.08.19-.1.25a8,8,0,0,0-2.61-.11l.17-.21c-1.6-.06-3.38.1-5.17.09.64.1.49.47,0,.51l-.21-.33c-.34.2.55.12-.14.37-.68,0-.46-.37-.07-.48l-.82.12c0-.1.15-.15.2-.28-.34.21-1.41-.32-1.89,0l-.05-.1c-1.8,0-2.61.11-4.08.13,0,.28-.6.22-1,.44a31.2,31.2,0,0,0-3.57-.28c-.91.14-.26.24-.67.4-.07-.25-1.37-.23-.69-.41a36.56,36.56,0,0,0-4,.26c.22.1.46.15.33.23-.36.05-.81-.1-.76-.23l.09,0c-2.2.38-5.09-.75-6.85-.22l.1,0L10,20c-.84-.05.5-.2-.12-.36a9,9,0,0,1-2.5.17,5.51,5.51,0,0,0-2.45.31,3.86,3.86,0,0,0-3.28,1.33,5.84,5.84,0,0,0-1.23,2,11,11,0,0,0-.42,2l.17-.14c.2.56-.05.69,0,1.11.12-.09,0-.62.21-.3a11.71,11.71,0,0,0,1.18,2.94c.43.85.83,1.72,1.22,2.6.79,1.76,1.54,3.55,2.34,5.27.6,1.26,1.18.28,1.61,2l-.52-.29c1.64,2.31,2.62,5.1,4.19,7.38-.15-.11-.24-.07-.36-.31.06.63,1,1.91,1.16,1.83.17.39-.12.17-.08.45.14.58.94,1.15.87,1.54,0,.06-.14-.11-.21-.2.28.29.79,1.58.87,1.13.35,1,1,1.7,1.25,2.5.52.33.68,1.64,1.14,1.59-.43.14.51,1.77,1,2.25-.22-.13.13.56-.15.43.35.65.73,1.22.88,1a2.63,2.63,0,0,0,.41,1.06,5.74,5.74,0,0,0,.71.83c.49.48.94.84,1,1.38a19,19,0,0,0,5.89,3.1c-.25.44-2.13-.89-2.26-.46a33.12,33.12,0,0,0,5,1.3c.5.16-.32.14-.51.18a27.7,27.7,0,0,0,3,.25,18.29,18.29,0,0,0,2.58-.12s-.19.08-.36.12c.33,0,.77.07.73-.14l-.32.06c-.53-.3,1.31-.63,1.37-.78-.56.58,1.65.14.76.89.22,0,.49-.14.44-.28.33,0,.43.12.1.28,1.18-.11.76-.33,1.83-.32,0,.09-.22.13-.33.25a4.13,4.13,0,0,1,2-.3c-.06.06,0,.13-.22.13,1.55,0,2.65-.51,4.35-.33-.5.44.58.15.67.52l.92-.11-.37-.18a14.65,14.65,0,0,1,2.21-.15l-.6.16,1.51-.07-.86-.14c.82-.2-.08-.48,1-.37-.22,0,.8,0,1.22.22h0a2.87,2.87,0,0,1,1.4-.15c.15.12-.13.41,0,.49.39-.31,1.88-.08,2.38-.42a.23.23,0,0,0-.12.32l.33-.26c.37.09.43.13.37.28,1.12,0-.36-.47,1-.27-.11,0-.06.06-.27.1,1.33.11,2.58-.16,3.8,0,.36.38-1.07.09-.66.41,1.77-.07,3.67-.45,5.38-.36l-.32,0c.24-.53,1.27.26,2.14,0-.21,0-.28.29-.22.24a28,28,0,0,0,4.17-.3l-.22.13c.69.13,1.82.07,2.56.14.22-.14.65-.12.39-.32,2.3.78,4.39-.41,6.43.24-.25,0-.58.11-.39.12l1.74-.13c-.14-.23-.23-.14-.59-.32A2.51,2.51,0,0,1,79,64.89c-.78.15,0,.37.34.5,0-.07.06-.15,0-.22.91.41.15-.47,1.39-.19l-.06.12a7,7,0,0,1,1.39-.19c.21.27-.49.13-.53.35.71,0,1.39-.51,2-.24-.3.07-.73.07-1,.15a2.66,2.66,0,0,0,1.29.28h0l1.19.14-.31-.08c.88-.7,1.8-.13,3-.58-1.15.43-.19.25-.28.55.3.08.76.18.63.26.56-.24.94.19,1.73-.16,0,.09.6,0,.47.25.73-.08-.17-.17-.11-.29,1.12-.33,2.64.4,4.25,0a22.35,22.35,0,0,0,2.93-.79c.46.1-.31.4-.31.4a3.12,3.12,0,0,0,1.92-.43c-.11.12,0,.15.3.17.52-.29.21-.44.92-.73a1.53,1.53,0,0,1-.31.64,5.25,5.25,0,0,0,1.41-1.63c.26-.06-.07.5-.2.77a5.84,5.84,0,0,0,.44-.58,5.3,5.3,0,0,0,.33-.68,3.86,3.86,0,0,0,.14-.63.73.73,0,0,0-.08-.39,2.73,2.73,0,0,1-.23.45c.09-.26.28-.07.24.16a1,1,0,0,1-.34.72.42.42,0,0,1-.33.11l.22-.46c-.38.09-.59.47-.93.9a3.26,3.26,0,0,1-1.25,1.07c.07-.19.13-.37.18-.55a5,5,0,0,1-.76.69c-.24,0-.42-.21,0-.42-.67,0-.52.3-1.11.22-.07,0,0,0,0-.08l-.62.21c.12-.1-.13-.28.26-.27-1.11-.1-1.82.39-2.27.09l.1,0c-1.63.14-.16.31-1.38.67l-.82-.76-.16.31c-.16,0-.49,0-.43-.16-.63.21.1.14-.26.33-.8-.28-2.22.13-2.4-.35-.29.23.77.18-.09.34-.25-.53-1,.09-1.73-.15.23-.27.92-.13.19-.37-.45.45-1.44-.1-2.06,0,0,.36-1.35.15-2.39.27a25.36,25.36,0,0,0-2.93-.33l0-.06c-.19.36-1.19.29-1.92.37,0-.22.16-.31.56-.4h-.69a1.61,1.61,0,0,1-.81.22l.17-.28a13.63,13.63,0,0,1-3,.14c-.06.26.93.72-.31.89,0-.14-.09-.38.24-.43a1.52,1.52,0,0,1-.6,0l.5-.23c-.53-.1-.28.19-.71.17,0-.2-.31-.14-.25-.3s.37.09.53,0a3.12,3.12,0,0,1-1.25-.3c0,.11,0,.26-.35.29-.91,0-.31-.24-.85-.34-.22.14-.8,0-.81.29-.27,0-.32-.14-.42-.22-.47.13-2.2,0-1.67.35l.12,0-.08,0h0c-1.54.29-3.21-.17-4.74,0v-.09a19.51,19.51,0,0,0-2.69.27c-.27,0-.64-.18-.52-.29a4.54,4.54,0,0,1-1.79,0c.71-.17-.24-.15.72-.13a4.24,4.24,0,0,0-2.09,0c.33-.25-.68-.32-1.11-.24l.63.18a11.88,11.88,0,0,1-1.34,0l.23-.33c-1.86-.41-3.35.69-4.77,0-.49.23,1,.16.57.43a12.93,12.93,0,0,1-2-.52c-1.17-.18-1.09.49-2.32.36.16.12.31.44-.61.55-.86-.05-1.05-.5-.51-.59.2,0,.3,0,.29.06.28,0,.64-.09.3-.22l-.11.12c-.42-.12-1.6-.11-1.32-.3-.65.11-.28.19.2.25-1.1-.17-1.72,0-2.85-.12.18.07.35.21.17.21-1.66-.15-.73.22-1.85.27-.64-.18.22-.43-.91-.28-.69-.12-.14-.31.13-.41a6.93,6.93,0,0,1-2.51-.19l.54-.1a4.4,4.4,0,0,1-.86.06l.31.23c-.32,0-.59,0-.58-.14-.33.16.25.4-.4.61-.43-.12-1.3.13-1.44-.18,1.33.1-.15-.32,1-.37a2.7,2.7,0,0,1-.8,0s0-.06.13-.08c-1.28-.28-.59.36-1.91.35.17-.18-.31-.34-.53-.3.54,0,.26.3-.23.43-.85-.14-.92.1-1.37.09l.51.06c-.17.18-.6.16-1.19.21-.05-.13.54-.09.33-.15-.64.3-1.53-.3-2.35-.14-.39-.14,0-.33-.35-.45a1.42,1.42,0,0,1-1-.15,2.62,2.62,0,0,0-1-.26c.22.3.29.26-.46.3a15.5,15.5,0,0,0,1.65.21c-.36,0-.74.11-1.12.12.5.14,1.08.07,1.37.16-.53.11-.48,0-.26.3-.63-.48-1.43-.06-2.16-.56l.21-.56c-1-.62-2.11-.46-3.4-1.4l.38.35c-.3.1-.85-.47-1.31-.69.15-.14-.07-.37-.16-.61,0,.07-.25-.11-.51-.27s-.52-.35-.71-.26a5.71,5.71,0,0,1-.3-.67,3.48,3.48,0,0,0-1-.86,2,2,0,0,1-.92-1c.37.22.23-.3.75.28-.19-.32-.33-.65-.46-.6,0-.28-.78-.94-.79-1.37-.16-.12-.37-.08-.58-.52,0-.06.09,0,.09,0s-.47-.61-.47-.13c-.06-1.46-1.74-3.26-1.8-4.52-.49-.8-1.06-1.78-1.47-2.52.08,0,.09-.05.15.11-.38-1.13-.84-.38-1.27-1.66,0-.75.48.55.39.12.49-.47-.82-1.39-.89-2.36l.13.17c-.12-.71-1-1.37-1.46-2.39,0,0,.07,0,.09,0a12.28,12.28,0,0,1-2-2.68c.38.18.34.38.48.08-.26-.42-.31.31-.82-.51,0-.34-.23-1,0-1.23l.44.8c.1-.57-.56-1-.72-1.49l.16,0c-.68-1.21-1-1.05-1.71-2.39l0,.19c-.72-.55-.12-.71-.75-1.3l.23-.4C5.58,32.9,4.7,31.83,4.19,31a13.55,13.55,0,0,1,1.65,1.83,6.8,6.8,0,0,0-1.17-1.76,1.79,1.79,0,0,1,.39.59,6.07,6.07,0,0,1-1.6-2.09c.8-.17-1.22-2.63-.73-3.37a2.29,2.29,0,0,1,0-2.1,3.47,3.47,0,0,1,1.68-1.44c-.84-.27.46-.24.16-.75.42-.2.62-.21.66-.18a7.17,7.17,0,0,1,1.46.16c.34.17-.44.15-.37.3,1,0,.39.23,1.09.37-.15-.21.39-.31,1-.22l-.9-.29c1.57-.32,1.35.52,2.93.19l-.5.2c.82-.12,3,0,3.79-.49.15.07.33.24,0,.28,1.94.07,4.31-.52,5.82-.22l-.15.15c.36,0,.63-.28,1.08-.13,0,.06-.14.15,0,.16A4.2,4.2,0,0,1,22,22l-.41.17c1.89.2,2.9-.41,4.48-.51,0,.44,1.49.58,2.23.65l0,.07A48,48,0,0,0,34,21.86c1.27.48,4.29.2,6.32.47-.31-.08.05-.35.41-.39s1.32-.31,1.25.1h-.17c.36.4,1.34.29,2.1.3l.13-.53c2,.77,5.25-.28,6.34.41.49-.13,1.08-.13,1.56-.26l0,.28a31,31,0,0,0,3.66,0l-.34.2c.94,0,1.18-.81,2-.83l.25.42c1.63,0,3.28.37,4.89,0,0,.06-.07.19-.34.2.77,0,3,.29,2.69-.29,0,.38,1.68,0,2.56-.13l-.13.28a3.55,3.55,0,0,1,1.8-.55c.25,0,.22.22-.11.15.82.15.64-.26,1.63-.12l-.37.18a1.75,1.75,0,0,0,1.24-.28c.53-.11,1.6.07,1.72.32a1.1,1.1,0,0,1,1-.23c0,.1-.12.14-.21.16,1.28.3,2,0,2.86.51a.23.23,0,0,0,.09.21c-1-.34-1.84-.48-1.75-.49,0,.26.75.45,0,.68a4.73,4.73,0,0,1,2.65.27,1.27,1.27,0,0,1,.07.12h-.1a1.71,1.71,0,0,0,.5.16,4,4,0,0,0,.59.35c0,.24.8.54,1.14.78.12-.26.57.07.25-.4,0,0-.09,0-.34-.15l-.17-.07h0l-1-.47a1.44,1.44,0,0,1,1.09.45,6.31,6.31,0,0,1,.75-.07c.32.64,1.07,1.49,1,1.78,1.11.68,2.12,2,2.94,2.47.24.28.07.46.07.62-.15-.19-.27-.42-.39-.47.47.58,1.11,2,1.52,2,.31,1-.55-.33.12.84l-.18-.11c.7,2.64,2.83,3.42,3.52,6.39,0-.2-.08-.3,0-.37,1.26,3.15,3.48,6,4.54,9.22.34.89.6.87,1,1.3l-.17.32.76.71c.87,1.13.46,2.5,1.7,3.85l.08-.3c.26.58,1,1.73.77,1.75.07,0,.29.08.31.35l-.13.09,1,1.27c.45,1.12-.65.12.14,1.7.35.55,1.27,1.45,1.25,1.18s-.23-.65-.09-.74l.34.5c.47-.12,1.1.07.71-1.39l-.72-.78.05-.4.41.76a1.32,1.32,0,0,0-.63-1,.69.69,0,0,0,0-.5L99.74,54c.1-.19.53.24.3-.41-.4-.32-.15.59-.63,0,0-.53.18-.49-.25-.92.07-.12.2,0,.35.13-.36-.39-.68-1.18-1-1.3,0-.58-.86-1.51-.45-1.67a4,4,0,0,1-1-1.05c.86.52-.79-1.58-.18-1.64-.72-.35-1.25-1.95-2-2.83.06,0,.18.11.21.21a5.24,5.24,0,0,1-.33-1.22c-.38.11-.92-.73-1.38-1.09,0-.86.63.21.84-.17-.26.18-.91-1.06-1-.7-.06-.64-.13-.51,0-.93-.48.13-.33-.46-.82-.76-.18-.88.3-.41-.26-1.18C92.08,37.94,92.62,38.61,92.62,38.61ZM78.23,21.21h0l.46.16Zm-1.89-.59c.23.08.52.14.83.24,0,.12-.07.19-.25.12C77,21,76.61,20.78,76.34,20.62Zm3,3.23c-.27-.1-.32-.19-.33-.26l.45.2h0A.46.46,0,0,1,79.32,23.85Z"/><path class="cls-1" d="M79.94,23.77l.11,0a1.71,1.71,0,0,0-.11-.14l-.13,0Z"/><path class="cls-1" d="M68.89,64.42h0l.08,0Z"/><polygon class="cls-1" points="50.03 19.68 50.04 19.75 50.2 19.68 50.03 19.68"/><path class="cls-1" d="M79.32,65.39a.29.29,0,0,0,.14.07A.29.29,0,0,0,79.32,65.39Z"/><path class="cls-1" d="M83.83,65.45l.64.1C84.19,65.49,84,65.47,83.83,65.45Z"/><path class="cls-1" d="M87.29,65.59a.26.26,0,0,0,.07-.12h0Z"/><path class="cls-1" d="M32.2,65.92h-.13C31.75,66,32,66,32.2,65.92Z"/><path class="cls-1" d="M48.6,65.26l-.53.14C48.36,65.42,48.59,65.42,48.6,65.26Z"/><polygon class="cls-1" points="15.87 57.28 15.88 57.27 15.83 57.17 15.87 57.28"/><path class="cls-1" d="M47.31,65.39a2.17,2.17,0,0,0,.76,0A3.22,3.22,0,0,0,47.31,65.39Z"/><path class="cls-1" d="M102.1,62.44l.09-.18s0,0,0,0Z"/><path class="cls-1" d="M102.16,62.22a.93.93,0,0,0,0-.23C102.18,62.09,102.14,62.18,102.16,62.22Z"/><path class="cls-1" d="M102.24,61.52l0,.47A.78.78,0,0,0,102.24,61.52Z"/><path class="cls-1" d="M97.86,65.39l0,.11A.12.12,0,0,0,97.86,65.39Z"/><path class="cls-1" d="M96.37,65.6a4,4,0,0,0,1.42,0l0-.09C97.61,65.71,96.68,65.43,96.37,65.6Z"/><path class="cls-1" d="M90.51,64.36l1.17.08c-.2-.11-.47-.26.06-.28C90.27,63.83,92,64.4,90.51,64.36Z"/><path class="cls-1" d="M86.89,64.2c.63,0,0-.16,0-.22C86.52,64.08,86.42,64.1,86.89,64.2Z"/><path class="cls-1" d="M60.72,64.2l.06-.26C60.3,64,60.78,64,60.72,64.2Z"/><polygon class="cls-1" points="55.71 65.52 56.18 65.68 56.41 65.44 55.71 65.52"/><polygon class="cls-1" points="52.76 63.7 52.97 63.66 52.16 63.75 52.76 63.7"/><path class="cls-1" d="M15.72,51.62l-.21.27C15.71,52.16,16.05,52.05,15.72,51.62Z"/><path class="cls-1" d="M6.7,34.92a1.26,1.26,0,0,0-.4-1A9.27,9.27,0,0,0,6.7,34.92Z"/><polygon class="cls-1" points="45 22.2 44.62 22.31 45.34 22.22 45 22.2"/><path class="cls-2" d="M13.69,57h0a8.87,8.87,0,0,1-3.39-.67l.76-1.85a6.74,6.74,0,0,0,2.63.52Zm3.41-.68-.76-1.85A6.75,6.75,0,0,0,18.57,53L20,54.4A8.7,8.7,0,0,1,17.1,56.34ZM7.39,54.43a8.86,8.86,0,0,1-1.94-2.89l1.85-.77A6.89,6.89,0,0,0,8.8,53Zm14.53-2.92-1.85-.76a6.85,6.85,0,0,0,.53-2.65l1.45,0,.55,0A8.86,8.86,0,0,1,21.92,51.51ZM5,48.13H4.76a8.84,8.84,0,0,1,.66-3.4l1.85.75a6.91,6.91,0,0,0-.51,2.62Zm15-2.72a6.77,6.77,0,0,0-1.51-2.23l1.4-1.42a8.65,8.65,0,0,1,1.95,2.87ZM8.76,43.24,7.34,41.83a9,9,0,0,1,2.88-1.95L11,41.72A7.11,7.11,0,0,0,8.76,43.24Zm7.53-1.55a7,7,0,0,0-2.61-.5l0-2h0a9,9,0,0,1,3.36.65Z"/><path class="cls-2" d="M42.65,30.43h0a8.77,8.77,0,0,1-3.4-.67L40,27.91a6.74,6.74,0,0,0,2.63.52Zm3.41-.68-.77-1.84a6.81,6.81,0,0,0,2.24-1.51L49,27.82A8.83,8.83,0,0,1,46.06,29.75Zm-9.71-1.91A8.92,8.92,0,0,1,34.41,25l1.84-.78a7,7,0,0,0,1.51,2.24Zm14.53-2.91L49,24.16a6.83,6.83,0,0,0,.52-2.64l2-.06v.06A8.86,8.86,0,0,1,50.88,24.93ZM34,21.54h-.25a8.88,8.88,0,0,1,.66-3.4l1.85.76a6.87,6.87,0,0,0-.51,2.62Zm15-2.72a6.77,6.77,0,0,0-1.51-2.23l1.4-1.42a8.65,8.65,0,0,1,2,2.87ZM37.72,16.65,36.3,15.24a9,9,0,0,1,2.88-2L40,15.14A6.92,6.92,0,0,0,37.72,16.65Zm7.52-1.54a6.77,6.77,0,0,0-2.6-.51l0-2h0a9,9,0,0,1,3.36.65Z"/><path class="cls-2" d="M71.26,57h0a8.87,8.87,0,0,1-3.39-.67l.76-1.85a6.74,6.74,0,0,0,2.63.52Zm3.41-.68-.76-1.85A6.89,6.89,0,0,0,76.15,53l1.41,1.41A8.7,8.7,0,0,1,74.67,56.34ZM65,54.43A8.86,8.86,0,0,1,63,51.54l1.85-.77A6.89,6.89,0,0,0,66.37,53Zm14.53-2.92-1.85-.76a6.85,6.85,0,0,0,.53-2.65l1.45,0,.55,0A8.86,8.86,0,0,1,79.49,51.51ZM62.58,48.13h-.25a9,9,0,0,1,.66-3.4l1.86.75a6.92,6.92,0,0,0-.52,2.62Zm15-2.72a6.77,6.77,0,0,0-1.51-2.23l1.4-1.42a8.83,8.83,0,0,1,2,2.87ZM66.34,43.24l-1.43-1.41a9,9,0,0,1,2.88-1.95l.78,1.84A7,7,0,0,0,66.34,43.24Zm7.52-1.55a7,7,0,0,0-2.61-.5l0-2h0a9,9,0,0,1,3.36.65Z"/><path class="cls-2" d="M24.15,41.24l-1.42-1.42,2.12-2.12,1.42,1.42ZM28.39,37,27,35.58l2.13-2.12,1.41,1.41Zm4.24-4.25-1.41-1.41,2.12-2.12,1.41,1.41Z"/><path class="cls-2" d="M100.57,30.43h0a8.76,8.76,0,0,1-3.39-.67l.76-1.85a6.78,6.78,0,0,0,2.63.52Zm3.41-.68-.77-1.85a6.74,6.74,0,0,0,2.24-1.5l1.42,1.42A9,9,0,0,1,104,29.75Zm-9.71-1.91A8.77,8.77,0,0,1,92.33,25l1.84-.78a6.81,6.81,0,0,0,1.51,2.24Zm14.53-2.91L107,24.16a6.83,6.83,0,0,0,.52-2.64l2-.06v.06A9,9,0,0,1,108.8,24.93ZM91.86,21.54h-.22a8.88,8.88,0,0,1,.66-3.4l1.85.76a6.87,6.87,0,0,0-.51,2.62Zm15.07-2.72a7,7,0,0,0-1.52-2.23l1.41-1.42a8.91,8.91,0,0,1,2,2.87ZM95.64,16.65l-1.42-1.41a9,9,0,0,1,2.88-2l.77,1.85A6.77,6.77,0,0,0,95.64,16.65Zm7.52-1.54a6.82,6.82,0,0,0-2.61-.51l0-2h0a9,9,0,0,1,3.37.65Z"/><path class="cls-2" d="M82.06,42l-1.41-1.41,2.12-2.12,1.41,1.41Zm4.24-4.24-1.41-1.42L87,34.24l1.42,1.42Zm4.25-4.24-1.42-1.42L91.25,30l1.42,1.41Z"/><path class="cls-2" d="M62.39,39.67l-2.13-2.12,1.42-1.41,2.12,2.12Zm-4.25-4.24L56,33.31l1.42-1.41L59.56,34ZM53.9,31.19l-2.12-2.12,1.41-1.42,2.12,2.12Z"/></g></g></svg>