<svg xmlns="http://www.w3.org/2000/svg" viewBox="0 0 92.99 80.87"><defs><style>.cls-1{fill:#ef7d05;}.cls-2{fill:#a0c4e8;}.cls-3{fill:#94bce5;}</style></defs><title>Element 261</title><g id="Ebene_2" data-name="Ebene 2"><g id="Ebene_2-2" data-name="Ebene 2"><path class="cls-1" d="M85.16,26.59l-2.35.84a40.13,40.13,0,0,0-2-4.46l2.22-1.15A41.2,41.2,0,0,1,85.16,26.59ZM80.4,17.37l-2.05,1.42a38.48,38.48,0,0,0-3-3.82l1.86-1.67A39.41,39.41,0,0,1,80.4,17.37Zm-6.94-7.7-1.63,1.89a39.57,39.57,0,0,0-3.89-2.93l1.37-2.09A39.54,39.54,0,0,1,73.46,9.67ZM64.8,4,63.7,6.22a38.46,38.46,0,0,0-4.51-1.85L60,2A40.27,40.27,0,0,1,64.8,4ZM55,.68l-.48,2.45a39.15,39.15,0,0,0-4.83-.63L49.8,0A38.8,38.8,0,0,1,55,.68ZM44.76,2.5a37.44,37.44,0,0,0-4.84.61L39.45.65A42.3,42.3,0,0,1,44.61,0ZM35.21,4.34a36.84,36.84,0,0,0-4.52,1.83L29.6,3.91A41.88,41.88,0,0,1,34.42,2ZM26.45,8.56a38.45,38.45,0,0,0-3.9,2.92l-1.63-1.9a40.55,40.55,0,0,1,4.16-3.11Zm-7.4,6.32a37.05,37.05,0,0,0-3,3.81L14,17.26a40.49,40.49,0,0,1,3.23-4.06Zm-5.57,8a38.42,38.42,0,0,0-2,4.46l-2.35-.86a40.25,40.25,0,0,1,2.1-4.76Z"/><rect class="cls-1" x="87.95" y="24.01" width="5.2" height="2.5" transform="translate(21.09 88.6) rotate(-57.94)"/><polygon class="cls-1" points="87.47 32.53 85.48 35.71 82.31 33.72 83.63 31.6 84.69 32.27 85.36 31.21 87.47 32.53"/><rect class="cls-1" x="75.54" y="26.36" width="2.5" height="4.86" transform="translate(11.63 78.59) rotate(-57.94)"/><path class="cls-2" d="M47.33,36.33c.09,0,.28,0,.24,0l-.33,0Z"/><path class="cls-2" d="M47.94,36.13a3,3,0,0,0-.74-.05c.32,0,.18,0,.56.08,0,0-.1.05-.23.05.09,0-.07,0,.14.06s.27-.09,0-.14A1.61,1.61,0,0,1,47.94,36.13Z"/><path class="cls-2" d="M48.46,33.28l0,0Z"/><path class="cls-2" d="M48.64,31.52l.07,0Z"/><path class="cls-2" d="M49,31.22h0S49,31.22,49,31.22Z"/><path class="cls-2" d="M48.46,33.28l.1,0C48.46,33.23,48.48,33.26,48.46,33.28Z"/><path class="cls-2" d="M47.15,35.74l.08,0,0,0Z"/><path class="cls-2" d="M48.73,34.06v0h.13Z"/><path class="cls-2" d="M48.78,34.66a2.87,2.87,0,0,0-.39,0c.11,0,.17,0,.19,0Z"/><path class="cls-2" d="M48.29,35.61h0Z"/><path class="cls-2" d="M48.79,33.63h0Z"/><path class="cls-2" d="M46.68,16.93h0Z"/><path class="cls-2" d="M48.07,16.24h0Z"/><path class="cls-2" d="M49.37,30.67h0Z"/><path class="cls-2" d="M49.16,25.6c-.25.06-.32-.09-.6,0A1.7,1.7,0,0,0,49.16,25.6Z"/><path class="cls-2" d="M47.18,35.72v0S47.17,35.72,47.18,35.72Z"/><path class="cls-2" d="M48.56,25.59Z"/><path class="cls-2" d="M49.2,29.39l-.12,0Z"/><path class="cls-2" d="M48.8,30.34l0,0S48.8,30.33,48.8,30.34Z"/><path class="cls-2" d="M48.8,28.9s.06,0,0,0h0S48.85,28.89,48.8,28.9Z"/><path class="cls-2" d="M48.8,28.39h-.06l0,0Z"/><path class="cls-2" d="M46.81,18.49a2.06,2.06,0,0,1,.26,0C46.87,18.47,46.79,18.39,46.81,18.49Z"/><path class="cls-2" d="M47.3,35.74a.25.25,0,0,1-.12,0s0,0,0,0Z"/><path class="cls-2" d="M46.58,28.88l.05-.08A.1.1,0,0,0,46.58,28.88Z"/><path class="cls-2" d="M46.85,22.16l0,0Z"/><path class="cls-2" d="M46.58,28.56a.56.56,0,0,0,.2,0h-.07Z"/><path class="cls-2" d="M47.07,18.46Z"/><path class="cls-2" d="M46.4,17.93c0,.07.36,0,.57.05s-.27,0-.46.07c.1.06.44.11.43.15a.85.85,0,0,1-.16,0c.29.06,0,.18.38.25h.42s.23.07,0,.08c0,0-.09,0-.17,0l.11,0c-.35,0-.12-.05-.38-.05.11.07.4.16.3.21-.34,0-.11-.13-.41-.05l.12-.09c-.53.07,0-.05-.53,0-.1.11.17.12.07.23.19,0,.28,0,.47,0,.34.16-.85.12-.4.24.23,0,.66,0,.43.12l-.39,0c0,.11.56.07.3.18s-.13-.09-.17-.07c-.31.07.21.05.21.11h-.34c.06.11.3.24.36.37a.81.81,0,0,0-.31,0c.17.16,0,.34-.24.49l.29.06a.5.5,0,0,1-.19,0c-.11.06.19,0,.3,0s-.16.05-.25,0c.25.11.53.31.22.42l-.09,0c-.12.08.6.09.33.17h-.05c-.13.19.14.4-.3.54.42,0-.19.19.4.2-.29.1-.4.07-.6.23,0,0,.37.06.43.11h-.3l.32.06-.37,0,.08.05a.55.55,0,0,1,.23,0c.14.07-.22.18-.38.18l.26.17a.72.72,0,0,1-.24-.05c.31.09-.33,0,0,.1a2,2,0,0,1,.25,0c-.19,0-.19.14-.11.21l-.21,0c-.06.13.1.28.09.42a1,1,0,0,1,.51,0l-.33,0c.2,0,.12-.05.37,0a1,1,0,0,1-.48,0l.12.06c-.1,0-.15,0-.28,0,.21,0-.32.11,0,.15h-.1c0,.15.11.21.13.33.28,0,.22,0,.44.08-.09.09-.31.18-.28.29s.24,0,.4.05c-.25,0-.23.11-.41.06,0,.12.05.16.26.32a.66.66,0,0,1,.23,0s-.1.06-.23.06h0c.38.18-.75.41-.22.55h0l.28.15c0,.07-.2,0-.36,0,.43.16-.06.25.23.38-.76.1.05.36-.43.49h.18c.17,0-.11.05-.15.07.14,0,.16,0,.26,0,.21.29-.26.61-.42.92-.05.11.92.06.5.2l-.34,0c.4.22,0,.46.33.68-.08,0-.18,0-.18,0-.24,0,0,.18.19.18,0,0-.18,0-.28,0s.31.11.07.14l-.1,0c.12,0,0,.14.25.11-.13.08.12.16,0,.22.31,0-.15.15.29.16-.46,0-.37.14-.15.2-.14,0-.15,0-.34,0,0,.06.09.12.33.11-.54.11.43.22-.26.28a2,2,0,0,1,.51.5c-.45,0,0-.18-.52-.17.19.15.58.24.47.39s-.2,0-.27,0c.18.15-.05.29.2.43a.42.42,0,0,1-.12,0s-.07.06.14.06l-.06,0a3.45,3.45,0,0,1,.78.11c-.59,0-.15.14-.89.06a.72.72,0,0,0,.27,0s-.12,0-.27,0c.11.09.33.06.32.15l-.25,0c.19,0,.38.09.3.16s-.14,0-.14,0,.52.21.33.35c-.43,0-.14.05-.51.05l.11.08.18,0c0,.06.27.12.14.18l-.15-.05.07.12.14-.07c.19.07.47,0,.37.08s0,.06-.22.1h0c.12,0,.25.06.16.11s-.42,0-.5,0c.32,0,.09.15.42.19a1.11,1.11,0,0,0-.31,0l.25,0a.51.51,0,0,1-.27,0c0,.09.47,0,.26.08,0,0,0,0-.09,0s.16.21,0,.31c-.37,0-.09-.09-.4-.06.06.15.45.3.36.43l0,0c.53,0-.26.1,0,.17a1.5,1.5,0,0,0-.24,0c-.08.1.13.19.3.34l-.14,0c-.12.06-.07.15-.13.21.14,0,.11,0,.31,0-.77.18.42.35-.23.51,0,0-.12,0-.12,0l.13.14a1.26,1.26,0,0,0,.32,0c.13,0,.24.06.24.1a.94.94,0,0,0-.5,0h.22c-.41.07.47,0,.19.11h-.12c.06,0,.22.07.19.11-.27,0-.13,0-.35,0,0,.06.51.11.24.16-.07,0-.07-.06-.15-.08-.31.06-.23.06-.28.1h0l-.14.1.09,0c.69.07.12.15.58.24-.43-.09-.25,0-.55,0a.86.86,0,0,1-.27.05c.25,0-.19.07.17.14-.1,0,0,.05-.25,0,.07,0,.16,0,.29,0,.33.09-.41.21,0,.34.19.11.52.13.68.23a.72.72,0,0,1-.35,0c-.15.06-.12.1,0,.16a1.28,1.28,0,0,0-.27,0c0,.05.36,0,.22.09l-.4,0c.09,0,.28.1.36.15a1.27,1.27,0,0,1-.37-.05.64.64,0,0,0,.43.17l.09,0s-.23,0-.28,0c-.21,0,.1-.08.19-.08l.07,0c.57,0-.09-.15-.06-.23l.41,0-.34-.07a.88.88,0,0,1,.4,0c.21-.06-.15-.05.08-.1h.08l-.13-.06c.09,0,.3,0,.24,0,.24-.1-.32-.15,0-.19h0c-.14-.13-.3,0-.66-.11l.75-.07h-.3s0,0,.15,0c-.2-.05-.13,0-.33,0,.28-.06-.13-.17.36-.19-.23,0-.18.06-.34,0,.52,0-.09-.08.15-.13s.13.07.37,0c-.46,0,.1-.11,0-.16-.36,0-.15-.11-.27-.2.12,0,.2-.15.33-.23h.06c-.37,0-.3-.09-.37-.15a1.24,1.24,0,0,1,.4,0v-.05c-.12,0-.18,0-.22-.07h.27c0-.07-.32-.14-.14-.24a2.55,2.55,0,0,1-.88,0,1.4,1.4,0,0,1,.43,0s-.11,0-.06-.05l.24,0c.1,0-.2,0-.18-.06.2,0,.15,0,.3,0s-.08,0,0,.05a.54.54,0,0,1,.3-.11.75.75,0,0,1-.29,0c0-.08.24,0,.34-.07-.14,0,0-.07-.29-.07,0,0,.14,0,.22,0-.13,0,0-.18-.35-.13h0c-.29-.13.17-.26,0-.38h.1c-.11-.08-.07-.16-.28-.22a.63.63,0,0,1,.3,0c-.07-.06-.19-.06,0-.14s.15,0,.12,0,.25-.08,0-.16c.25,0,.32-.06.24-.09l-.18.05s0-.07,0-.11l.33,0c.4-.15-.69-.27,0-.38-.23,0-.17.08-.44,0,0-.07.52-.14.53-.16.18-.09-.49-.09-.36-.19a1.14,1.14,0,0,1-.55,0,1,1,0,0,1,.59,0s0,0-.07,0a.31.31,0,0,0,.23,0h-.12c.12,0,.11-.13.3-.1a.26.26,0,0,0-.26,0c.18-.08,0-.13.12-.23a.54.54,0,0,1-.2,0c.15-.13-.22-.06-.28-.15.18-.05.44,0,.28-.07a.74.74,0,0,1,.42,0c-.23-.09.15-.16.19-.2l.09,0s0-.05,0-.07l-.24,0a.19.19,0,0,1,.14,0c-.15,0-.39,0-.6,0,.12,0-.13-.11.18-.12-.11.11.32,0,.37.08s0,0,0-.07l.09,0c.28-.11-.36-.05-.35-.16.18,0,.34,0,.3,0s-.3,0-.43,0c.13-.07-.11-.07-.09-.11l-.07,0c-.17,0-.15-.05-.21-.09.14,0,.1,0,.16,0-.31,0,.32-.12.11-.19.12,0,.34,0,.42,0-.23-.09.24-.09,0-.18a.64.64,0,0,1-.41,0L49,30l-.35-.09s.15.09.11.12a.57.57,0,0,0-.34,0c.36-.06-.2-.12,0-.19h.59c.26-.11-.3-.19-.16-.32l-.1,0c-.23,0,0-.08-.13-.12a2,2,0,0,0,.4,0c-.15,0,0-.1-.39-.11l.26-.06c.11-.11-.56-.12-.49-.23a1.93,1.93,0,0,1,.51.06s0-.07-.1-.07c.12,0-.27-.09-.08-.13-.09,0-.29,0-.28-.05a.31.31,0,0,1,.1,0,1,1,0,0,0-.35,0c.62-.11,0-.3.48-.39a.57.57,0,0,1-.14-.23c.06,0,.1,0,.08,0,.18-.09-.57-.06-.36-.16s.17.05.29,0c.65,0-.09-.13.29-.2h0c.22-.05-.25-.13-.2-.22h.1a.94.94,0,0,1-.54-.26,1.35,1.35,0,0,0,.4,0s-.42,0-.49-.07a2.94,2.94,0,0,1,.54-.09v.08c.36,0,0-.1.05-.14H49c0-.11-.45-.11-.42-.23h-.12c-.39-.07.22-.06-.07-.12l.4,0a2.47,2.47,0,0,1-.46-.23,2.7,2.7,0,0,1,.62.19s0-.15-.23-.17c0,0,.14,0,.08.06-.31-.06-.47-.13-.46-.21.77,0,.19-.22.79-.29-.28-.15.12-.3.07-.47-.59.06,0-.06-.62,0,0-.05,0-.06,0-.07l.36-.12c.18,0,.14,0,.27,0s.26,0,.42-.1c-.21,0-.31,0-.22-.08l-.29.07c-.32-.13.52-.11.19-.24l.2,0c-.12-.06,0-.24-.49-.3a.66.66,0,0,1,.28,0c.07-.16-.52-.35-.22-.47l.15,0s-.28-.06-.13-.09a.81.81,0,0,0,.16,0c-.05,0-.26-.08-.18-.12l.17,0c.2-.15-.41-.23-.51-.36a.87.87,0,0,0,.65-.18h.07c.05-.18-.37-.3-.54-.47.48-.1.2-.34.47-.5a1,1,0,0,1-.39,0c.09,0-.31-.1.1-.1v0c.4,0,.29-.11.3-.17h-.53c.77-.16-.28-.42.41-.51-.13,0-.13-.09-.26-.13h.28c.07-.11.11-.17,0-.3l.2,0c0-.08-.81-.1-.83-.17l.42,0c0-.13.37-.26,0-.39.06,0,.19,0,.2,0s.29-.24-.29-.22c.38,0,0-.13-.13-.2h.28c-.36-.06-.45-.06-.55-.15s.22,0,.15,0c.15-.06-.26,0-.12-.13l.18,0c0-.07-.07-.06-.28-.1s.07-.13.32-.14c-.15,0-.36,0-.28-.08a.77.77,0,0,1,.18,0c.19-.11-.32-.16-.05-.24a.54.54,0,0,0,.17,0c0,.09,0,.17,0,.16a2.34,2.34,0,0,1,.66,0c-.19-.06-.61-.16-.49-.23h.11s0,0,0,0,.08,0,.08-.06c.21,0,.11-.08.12-.12a1.76,1.76,0,0,0-.46,0s0,0,0,0l0,0h0s0,.05,0,.09-.26-.06-.1-.1l-.46-.05c.4-.05.61-.15.85-.16-.16-.11-.1-.26-.63-.33-.07,0,.15,0,.23,0s0,0,.12,0c-.13-.06,0-.19-.42-.2.17-.08.34,0,.28-.07l.11,0c.59-.21-.94-.35-.18-.59a.28.28,0,0,1-.13,0c.33-.27-.31-.56.22-.82.1-.08-.13-.09-.31-.13l.3,0-.35-.08c-.25-.11.74-.19.26-.33h-.2s-.12-.16.11-.15c0,0-.21,0-.11,0h.16l-.27-.12c.12-.1.63,0,.66-.13a1.45,1.45,0,0,0-.57-.13s-.09.05-.25.06l-.09-.05a3.86,3.86,0,0,0-1.26.07l.28.08-.22,0,0-.07c-.21,0,0,.06.11.09a.9.9,0,0,0-.25,0l.44.08c-.18,0-.36,0-.46,0,.21,0,.41,0,.54,0-.21,0-.38,0-.2.08a.73.73,0,0,1-.25,0c.15.05.06.11.31.14-.26,0,.07.13-.37.13a.9.9,0,0,1,.36.11c-.53-.07,0,.14-.59.12.47.06.21.19.47.28l-.09,0s-.18.06-.27.1a2.72,2.72,0,0,1,.72.12,4.47,4.47,0,0,1-.82,0c.31,0,.31.11.58.08a1.92,1.92,0,0,1-.44.07c.49,0,.08,0,.38.08-.24.07-.45,0-.31.1A.7.7,0,0,1,46.4,17.93Zm.85,1.81h0v0S47.24,19.72,47.25,19.74Zm0,.15a.08.08,0,0,0,0-.07c.1,0,.2,0,.2,0A.43.43,0,0,0,47.25,19.89Zm2-.32s0,0-.07,0l0,0h.11Z"/><path class="cls-2" d="M48.83,19.52h0l-.06,0h.09Z"/><path class="cls-2" d="M48.42,33.31h0Z"/><polygon class="cls-2" points="46.71 21.99 46.78 21.99 46.72 21.97 46.71 21.99"/><path class="cls-2" d="M47.45,34.14h0Z"/><path class="cls-2" d="M47.39,34.5l-.1.06Z"/><path class="cls-2" d="M47.25,34.78h0Z"/><path class="cls-2" d="M46.92,30.36h0Z"/><path class="cls-2" d="M47.57,31.68l-.13-.05S47.41,31.68,47.57,31.68Z"/><polygon class="cls-2" points="46.58 28.89 46.58 28.89 46.58 28.88 46.58 28.89"/><path class="cls-2" d="M47.45,31.57c-.06,0-.05.05,0,.06S47.49,31.59,47.45,31.57Z"/><path class="cls-2" d="M47.12,36h0Z"/><path class="cls-2" d="M47.15,36l0,0S47.18,36,47.15,36Z"/><path class="cls-2" d="M47.26,36.05l-.07,0S47.18,36,47.26,36.05Z"/><path class="cls-2" d="M47.25,35.62h0Z"/><path class="cls-2" d="M47.22,35.51s-.22.06-.15.1h.08C47,35.6,47.39,35.53,47.22,35.51Z"/><path class="cls-2" d="M48.48,35l-.08.09c.11,0,.25,0,.28,0C49,35,48.44,35.16,48.48,35Z"/><path class="cls-2" d="M48.64,34.75s.16,0,.22,0A.24.24,0,0,0,48.64,34.75Z"/><path class="cls-2" d="M48.64,32.65h.26S48.8,32.65,48.64,32.65Z"/><polygon class="cls-2" points="47.32 32.25 47.16 32.29 47.39 32.3 47.32 32.25"/><polygon class="cls-2" points="49.14 32.01 49.18 32.03 49.08 31.96 49.14 32.01"/><path class="cls-2" d="M49.05,28.48h-.32C48.79,28.52,49.14,28.53,49.05,28.48Z"/><path class="cls-2" d="M48.73,27c.16,0,.26-.06.1-.09S48.69,26.94,48.73,27Z"/><polygon class="cls-2" points="49.24 22.39 49.35 22.42 49.26 22.36 49.24 22.39"/><path class="cls-2" d="M25.55,61.53c.05.07.19.21.2.15l-.22-.25Z"/><path class="cls-2" d="M26.18,61.77a2.19,2.19,0,0,0-.48-.58c.19.26.09.18.32.48,0,.06-.12,0-.21-.12.05.07-.09,0,0,.16s.27.1.17-.1A1.2,1.2,0,0,1,26.18,61.77Z"/><path class="cls-2" d="M29.35,59.33h0Z"/><path class="cls-2" d="M31.22,57.72s0,.05,0,.07S31.24,57.74,31.22,57.72Z"/><path class="cls-2" d="M31.77,57.68h0S31.78,57.7,31.77,57.68Z"/><path class="cls-2" d="M29.35,59.33l.12,0C29.4,59.28,29.39,59.33,29.35,59.33Z"/><path class="cls-2" d="M26,60.82a.16.16,0,0,0,0,.09.11.11,0,0,1,0,0Z"/><path class="cls-2" d="M28.77,60.29h0l.08.11Z"/><path class="cls-2" d="M28.22,60.91a2.48,2.48,0,0,0-.25-.3c.07.09.1.14.1.17Z"/><path class="cls-2" d="M26.94,61.49v0A.07.07,0,0,1,26.94,61.49Z"/><path class="cls-2" d="M29.24,59.91l.07.07Z"/><path class="cls-2" d="M44.2,42l0,0Z"/><path class="cls-2" d="M45.86,42.26v0l.11.11Z"/><path class="cls-2" d="M32.57,57.39h0S32.57,57.42,32.57,57.39Z"/><path class="cls-2" d="M37.41,52.26c-.23-.12-.14-.32-.42-.43C37.08,51.9,37.22,52.21,37.41,52.26Z"/><path class="cls-2" d="M26,60.83l0,0Z"/><path class="cls-2" d="M37,51.83Z"/><path class="cls-2" d="M33.7,56,33.6,56Z"/><path class="cls-2" d="M32.49,56.67h0Z"/><path class="cls-2" d="M33.9,55.26s.06,0,.05,0l0,0S34,55.27,33.9,55.26Z"/><path class="cls-2" d="M34.41,54.75l0,0v0Z"/><path class="cls-2" d="M42.76,43.59a1.4,1.4,0,0,1,.2.16C42.81,43.61,42.84,43.49,42.76,43.59Z"/><path class="cls-2" d="M26.11,60.93c-.05,0-.07-.08-.07-.1a0,0,0,0,1,0,0Z"/><path class="cls-2" d="M32.36,53.67l.11-.05A.14.14,0,0,0,32.36,53.67Z"/><path class="cls-2" d="M39.17,47.23v0S39.15,47.21,39.17,47.23Z"/><path class="cls-2" d="M32.67,53.35a.51.51,0,0,0,.19.09l0-.06Z"/><path class="cls-2" d="M43,43.75Z"/><path class="cls-2" d="M43,42.75c-.08.07.22.29.35.46s-.23-.16-.4-.26c0,.13.21.41.16.44a.4.4,0,0,1-.12-.11c.15.27-.16.19,0,.52l-.08,0a4.51,4.51,0,0,1,.37.34s.1.23-.08.08c0,0,0-.09-.08-.15l0,.11c-.27-.22,0-.14-.21-.32,0,.15.13.43,0,.42-.26-.23,0-.21-.25-.35h.18c-.44-.32.08,0-.39-.37-.18,0,0,.24-.18.28.11.16.21.19.32.35.08.39-.73-.48-.52,0,.13.19.42.5.18.43l-.24-.3c-.14.07.33.45,0,.37-.08-.12,0-.17-.05-.18-.29-.15.1.2.05.25l-.26-.22c-.07.15,0,.44-.1.61a.77.77,0,0,0-.22-.22c0,.28-.37.31-.66.32l.15.26s-.12-.07-.15-.12.13.13.19.24-.17-.07-.21-.15c.07.28.08.67-.25.56l0-.08c-.17,0,.33.52.06.4l0-.05c-.28.1-.29.49-.75.32.27.33-.32.05.09.48-.31-.1-.36-.21-.65-.2-.05,0,.21.32.2.42L39.29,47l.16.29-.29-.22v.1a.42.42,0,0,1,.19.13c0,.17-.32,0-.44-.09l0,.36a.56.56,0,0,1-.12-.23c.13.31-.25-.22-.13.07a1.41,1.41,0,0,1,.17.18c-.18-.09-.27,0-.29.13l-.13-.16c-.17.09-.2.34-.34.48.12,0,.37.29.35.35l-.25-.21c.12.17.13,0,.25.27-.08,0-.3-.22-.34-.33l0,.15a2,2,0,0,1-.18-.21c.11.17-.34-.12-.13.17l-.08-.07c-.14.14-.13.28-.23.41.2.2.11.2.23.4-.14,0-.4,0-.48.08s.15.19.23.34c-.18-.18-.27-.06-.35-.24a.74.74,0,0,0-.13.49c.1.06.15.07.2.15s-.14,0-.22-.11l0,0c.1.44-.93-.13-.69.39v0l0,.34c-.09,0-.09-.17-.25-.24.14.46-.29.21-.22.54-.63-.44-.31.38-.79.18l.13.12c.09.15-.11,0-.16,0s.15.08.19.17c-.14.44-.78.42-1.2.6-.14.08.59.72.15.56L34,52c.06.51-.47.45-.45.9,0-.07-.11-.14-.08-.16-.22-.12-.18.17,0,.3,0,0-.14-.11-.23-.16s.1.33-.09.19A.28.28,0,0,1,33,53c.05.11-.16.11.07.28-.18,0-.07.24-.25.19.17.26-.25,0,0,.36-.32-.33-.4-.11-.3.09-.08-.12-.15-.06-.26-.21-.06.06-.05.17.12.33-.49-.28.09.52-.46.09a2.6,2.6,0,0,1-.13.86c-.31-.32.14-.2-.2-.53,0,.28.17.64-.05.71s-.12-.16-.16-.23c0,.28-.32.26-.28.57a.43.43,0,0,1-.05-.12s-.11,0,0,.16l0-.07c.26.17.34.55.45.66-.38-.46-.24,0-.69-.57a.46.46,0,0,0,.15.23c-.05,0-.11-.05-.2-.19,0,.17.17.3.09.38s-.08-.12-.16-.21c.1.18.19.36.06.37s-.1-.09-.08-.11c-.1.14.15.57-.11.58-.27-.35-.15-.06-.42-.32v.16l.15.09c-.06.06.07.31-.07.28l-.06-.16-.07.17.17,0c.07.2.34.32.18.33,0,0-.07.06-.25-.06h0c.06.12.11.24,0,.22S30,57,30,57c.19.25-.08.21.11.48a1.64,1.64,0,0,0-.21-.23l.15.21a.43.43,0,0,1-.22-.17c-.12.06.36.31.11.27,0,0,0,0,0-.09-.19,0-.09.32-.28.32-.29-.23,0-.15-.24-.34-.09.19,0,.61-.17.68h.06c.36.39-.29-.09-.18.16a.74.74,0,0,0-.15-.19c-.15,0-.09.29-.12.54l-.08-.11c-.14,0-.19.1-.29.11.08.11,0,.13.19.25-.73-.37-.06.64-.67.35,0,0,0-.13-.06-.12l-.05.23a1.18,1.18,0,0,0,.28.18c.08.11.11.23.08.26-.05-.17-.26-.26-.38-.33l.15.16c-.36-.22.32.34,0,.24l-.08-.09c0,.08.09.23,0,.25-.21-.18-.05-.13-.21-.29,0,.07.25.47,0,.33,0-.08,0-.11,0-.19-.28-.16-.23-.1-.3-.1H27.2l.09,0c.42.56-.06.23.17.64-.21-.39-.16-.19-.37-.41a.49.49,0,0,1-.23-.14c.13.22-.21-.06,0,.26-.07-.07-.06,0-.22-.15,0,.12.13.11.22.2.14.33-.5-.08-.3.38,0,.24.23.49.25.71a.62.62,0,0,1-.23-.28c-.15-.05-.18,0-.15.15A.78.78,0,0,0,26.2,61c0,.06.23.28.07.24a2.35,2.35,0,0,1-.23-.32c0,.11.09.29.1.4a.81.81,0,0,1-.21-.31.58.58,0,0,0,.13.47l.11,0s-.18-.15-.2-.2.14,0,.21.06v.08c.44.37.08-.21.18-.26l.26.32-.17-.32c.1.06.27.22.28.3.2.09-.06-.15.15,0l.05.05,0-.13c.05.07.22.19.14.18.26.08-.07-.37.19-.18v0c0-.23-.2-.23-.36-.58l.6.47-.21-.23s.07,0,.15.08c-.1-.2-.1-.09-.22-.26.26.13.09-.27.45.06-.14-.18-.19-.06-.24-.24.39.35,0-.15.25,0s0,.16.24.27c-.29-.36.19,0,.17-.15-.25-.26,0-.22,0-.38.08.09.29,0,.46,0l0,0c-.25-.27-.12-.3-.12-.41a.71.71,0,0,1,.24.33l.06-.06a.29.29,0,0,1-.09-.22l.18.21c.06-.08-.09-.38.13-.34-.17-.18-.57-.43-.6-.65.11.1.28.26.29.33s-.05-.12,0-.09l.12.2c.12,0-.11-.16-.06-.17s.12.07.23.19-.09,0,0,0a.45.45,0,0,1,.32.11c-.09-.08-.19-.19-.18-.23s.19.14.3.17c-.08-.12.07-.06-.14-.27,0,0,.13.07.19.12-.05-.13.15-.2-.12-.38h0v0h0c-.09-.33.37-.14.4-.35l.07.07c0-.15.11-.2,0-.41,0,0,.17.08.25.17,0-.1-.07-.19.12-.15s.13.09,0,.14c.13,0,.26.09.14-.18.16.2.28.17.26.08l-.18-.08c0-.06.07-.08.12-.1l.21.26c.44.14-.22-.76.37-.39-.12-.2-.19,0-.35-.26.1,0,.51.23.53.21.22,0-.26-.43-.07-.44-.1-.07-.34-.28-.34-.43s.43.27.46.38-.05,0-.07,0,0,.12.13.18l-.08-.09c.12,0,.21-.05.32.11a.19.19,0,0,0-.19-.17c.21,0,.14-.13.31-.14-.06,0-.18-.11-.16-.13.23,0-.1-.21,0-.34.18.08.29.32.27.13.14,0,.23.21.28.3-.08-.24.26,0,.34-.06l0,.11c0-.07,0-.09,0-.11l-.19-.14a.13.13,0,0,1,.14.05c-.08-.14-.3-.26-.39-.46.11,0,0-.19.24,0-.18,0,.24.21.18.33,0,0,0-.06.07-.06a.23.23,0,0,1,0,.07c.3.1-.21-.3-.1-.39.11.13.27.21.26.17s-.23-.19-.29-.33c.16,0,0-.14.05-.17H32.4c-.11-.14-.06-.16-.06-.25.11.1,0,.11.09.14-.17-.27.34.11.27-.11.12,0,.24.23.33.26-.09-.24.25.08.21-.14-.2-.14-.16-.09-.26-.32l0,.26-.15-.34s0,.2,0,.2c-.09-.18-.06-.14-.22-.26.31.2,0-.26.21-.16l.41.42c.29.09,0-.39.2-.41l-.11,0c-.15-.18.06-.1,0-.21a1.64,1.64,0,0,0,.32.24c-.1-.1.11-.09-.16-.38l.24.13c.18,0-.28-.52-.13-.58.12.19.27.24.31.42,0,0,.09,0,0-.14.1.07-.1-.28.06-.18,0-.08-.18-.23-.13-.25a.27.27,0,0,1,.06.07c-.06-.07,0-.16-.22-.28.54.33.26-.32.73,0a1,1,0,0,1,.13-.33s.07.07,0,.07c.22,0-.35-.46-.1-.42s.07.18.19.23c.47.44.06-.19.4,0v0c.21.1,0-.31.08-.36l.07.07a.86.86,0,0,1-.11-.64c.15.21,0,.13.25.3,0-.06-.3-.28-.28-.41a2.3,2.3,0,0,1,.47.29l-.06.09c.29.21.08-.11.16-.1l.11.12c.07-.15-.2-.43-.07-.53l-.09-.07c-.21-.34.21.1.07-.17l.3.26a2,2,0,0,1-.1-.55,2.63,2.63,0,0,1,.25.63.25.25,0,0,0,0-.33s0,.14,0,.11c-.16-.27-.2-.45-.12-.53.53.56.36-.08.84.28,0-.35.38-.21.53-.42-.49-.36,0-.06-.41-.48,0-.07,0-.08.07-.05l.38.13c.16.1.06.13.16.23.12-.06.22.14.39.2-.16-.14-.19-.25-.08-.24L37.57,52c-.11-.36.47.25.37-.1l.09.18c0-.15.24-.24,0-.65.06,0,.19.14.2.2.2-.1,0-.71.3-.61l.09.12c0-.06-.14-.25,0-.18s.09.11.11.11-.11-.26,0-.24l.09.15c.29,0-.06-.52,0-.72a.72.72,0,0,0,.64.29l0,0c.21-.14,0-.56.08-.84.44.24.48-.2.83-.17a.67.67,0,0,1-.24-.3c.1,0-.11-.33.17,0h0c.3.26.31.1.38,0L40.27,49c.7.38.22-.62.79-.22-.05-.13,0-.17-.06-.31l.2.21a.48.48,0,0,0,.32-.26l.11.16c.09-.06-.48-.67-.43-.75l.32.28c.13-.13.52,0,.38-.4,0,.05.12.14.11.17s.44,0,0-.42c.27.27.16-.11.11-.29l.18.21c-.19-.31-.26-.39-.24-.54,0,0,.17.14.09.12.17,0-.13-.24.05-.21l.1.15c.08-.05,0-.11-.1-.29s.17-.08.36.09c-.1-.12-.21-.3-.12-.29a.42.42,0,0,1,.12.15c.24,0-.07-.4.2-.28l.13.1c-.09.09-.17.15-.18.13.18.18.29.14.48.45-.08-.2-.28-.59-.12-.58l.07.06v0s0,0,0-.07.08,0,.11,0c.16.14.16,0,.2,0-.2-.2-.12-.21-.33-.33,0,0,0,0,0,.06s0,0,0,0v0l-.08.11C43,46,43,45.91,43.1,46c-.11-.14-.22-.29-.27-.37.33.23.57.29.75.45,0-.22.19-.33-.12-.78,0-.07.14.08.22.12s0,.07,0,.14c0-.16.15-.22-.1-.5.2,0,.2.28.26.13l.07.1c.63.21-.33-1,.44-.71a.23.23,0,0,1-.12-.06c.51,0,.33-.77,1-.66.15,0,0-.18-.09-.35l.23.2-.17-.32c-.07-.3.72.33.52-.15l-.17-.13c.08,0,.08-.24.24-.07,0,0-.14-.17,0-.11l.11.11-.07-.31c.18,0,.43.45.59.34a1.08,1.08,0,0,0-.27-.53s-.12,0-.24-.13v-.1a2.89,2.89,0,0,0-1-.83l.12.28-.19-.13.06-.08c-.19-.11-.08,0,0,.17a.84.84,0,0,0-.21-.15l.24.4c-.14-.12-.22-.29-.35-.31.11.18.33.25.36.41-.19-.11-.3-.24-.22-.07a.47.47,0,0,1-.15-.2c.06.14-.07.15.09.35-.23-.15-.09.18-.4-.13a.86.86,0,0,1,.15.36c-.31-.44-.16.12-.54-.3.28.39,0,.33.06.61,0,0-.07-.09,0-.09s-.2-.06-.29-.09a2,2,0,0,1,.38.64c-.33-.21-.28-.37-.56-.6.23.22.12.33.32.49a1,1,0,0,1-.37-.24c.34.35,0,.1.19.35-.24-.1-.34-.3-.31-.12A.44.44,0,0,1,43,42.75Zm-1.18,2.38h0l0,0S41.85,45.1,41.84,45.13Zm-.15.15a.19.19,0,0,0,.07-.06c.08.07.14.14.12.16S41.77,45.32,41.69,45.28Zm1.69,1.06s0,0-.08,0,0,0,0-.07l0,0Z"/><path class="cls-2" d="M43.17,46a0,0,0,0,1,0,0l-.06,0,.06.07Z"/><path class="cls-2" d="M29.29,59.32h0l0,0Z"/><polygon class="cls-2" points="39.24 46.97 39.29 47.02 39.26 46.96 39.24 46.97"/><path class="cls-2" d="M27.79,59.46l-.06,0A.09.09,0,0,0,27.79,59.46Z"/><path class="cls-2" d="M27.39,59.77l-.12,0C27.33,59.77,27.36,59.78,27.39,59.77Z"/><path class="cls-2" d="M27,60l.08.09h0Z"/><path class="cls-2" d="M31.14,55.36v0C31.12,55.28,31.12,55.31,31.14,55.36Z"/><path class="cls-2" d="M30.3,57.12,30.25,57S30.19,57,30.3,57.12Z"/><polygon class="cls-2" points="32.34 53.67 32.35 53.68 32.36 53.67 32.34 53.67"/><path class="cls-2" d="M30.32,56.93c-.07,0-.08,0-.07.06S30.33,57,30.32,56.93Z"/><path class="cls-2" d="M25.74,61.05h0l0,0Z"/><path class="cls-2" d="M25.75,61.09v0S25.77,61.11,25.75,61.09Z"/><path class="cls-2" d="M25.77,61.2l0-.08S25.72,61.14,25.77,61.2Z"/><path class="cls-2" d="M26.19,60.78l-.07-.08Z"/><path class="cls-2" d="M26.28,60.65s-.22-.09-.21,0l.05.06C26,60.58,26.38,60.79,26.28,60.65Z"/><path class="cls-2" d="M27.63,61.08l-.15,0c.09.06.22.14.2.2C28,61.43,27.48,61.17,27.63,61.08Z"/><path class="cls-2" d="M28,60.9c0,.09.11.11.15.16C28.14,61,28.13,60.93,28,60.9Z"/><path class="cls-2" d="M30.1,58.83l.18.19C30.29,59,30.21,59,30.1,58.83Z"/><polygon class="cls-2" points="29.56 57.5 29.41 57.43 29.56 57.61 29.56 57.5"/><polygon class="cls-2" points="31.08 58.56 31.09 58.6 31.09 58.47 31.08 58.56"/><path class="cls-2" d="M34.49,55l-.23-.21C34.27,54.87,34.52,55.13,34.49,55Z"/><path class="cls-2" d="M35.77,53.29c.12.1.24.12.15,0S35.76,53.24,35.77,53.29Z"/><polygon class="cls-2" points="40.63 49.15 40.67 49.26 40.67 49.14 40.63 49.15"/><path class="cls-3" d="M49.89,39.48c.08,0,.27,0,.23,0H49.8Z"/><path class="cls-3" d="M50.48,39.29a3.09,3.09,0,0,0-.74,0c.32,0,.19,0,.56,0,0,0-.1.05-.22.05.08,0-.07,0,.13,0s.26-.09,0-.13Z"/><path class="cls-3" d="M49.48,36.54v.05A.11.11,0,0,0,49.48,36.54Z"/><path class="cls-3" d="M47.63,35.71a.08.08,0,0,0,0-.07A.15.15,0,0,0,47.63,35.71Z"/><path class="cls-3" d="M47.27,35.34l0,0S47.27,35.32,47.27,35.34Z"/><path class="cls-3" d="M49.48,36.54v-.11C49.43,36.51,49.47,36.51,49.48,36.54Z"/><path class="cls-3" d="M49.66,39.06h0Z"/><path class="cls-3" d="M50.32,37v0l.11-.08Z"/><path class="cls-3" d="M50.78,37.53a1.69,1.69,0,0,0-.34.17.53.53,0,0,1,.18-.07Z"/><path class="cls-3" d="M50.73,38.71h0Z"/><path class="cls-3" d="M50,36.55l.06-.08Z"/><path class="cls-3" d="M49.2,39.88h0Z"/><polygon class="cls-3" points="50.61 39.48 50.62 39.49 50.78 39.5 50.61 39.48"/><path class="cls-3" d="M46.49,35.07h0S46.5,35.05,46.49,35.07Z"/><path class="cls-3" d="M43.19,40.39c.22-.12.33,0,.58-.12C43.66,40.31,43.32,40.27,43.19,40.39Z"/><path class="cls-3" d="M49.7,39v0S49.69,39,49.7,39Z"/><polygon class="cls-3" points="43.77 40.27 43.77 40.27 43.79 40.26 43.77 40.27"/><path class="cls-3" d="M45,35.9A.36.36,0,0,0,45,36Z"/><path class="cls-3" d="M46.21,35.72l0,0Z"/><path class="cls-3" d="M44.69,36.6s0,0,0,0l0,0S44.65,36.58,44.69,36.6Z"/><path class="cls-3" d="M44.27,37.07l0,0v0Z"/><path class="cls-3" d="M48.9,40.77l.2.15C49,40.8,48.93,40.72,48.9,40.77Z"/><path class="cls-3" d="M49.82,39h-.11Z"/><path class="cls-3" d="M46.17,38.2h0Z"/><path class="cls-3" d="M46.82,41.43l0,0S46.83,41.4,46.82,41.43Z"/><path class="cls-3" d="M46.05,38.33a.54.54,0,0,0-.17-.1l0,.05Z"/><path class="cls-3" d="M49.11,40.92h0Z"/><path class="cls-3" d="M48.76,40.28s.29.2.46.31-.24-.11-.4-.2c.06.08.32.29.29.31L49,40.61c.21.2,0,.09.2.36l-.07,0,.38.31s.14.19-.05.05c0,0,0-.08-.1-.13l.06.09c-.28-.21-.07-.11-.26-.27,0,.11.22.35.11.32-.24-.23,0-.15-.26-.32l.13.05c-.42-.32.05,0-.4-.35-.11,0,.08.17,0,.15.12.14.2.19.31.34.14.32-.62-.57-.37-.19.12.18.38.52.19.38L48.6,41c-.08,0,.29.46.07.3s0-.14-.06-.17c-.21-.21.1.2.07.22l-.2-.27c0,.08,0,.33,0,.43a1.38,1.38,0,0,0-.14-.27c0,.2-.22.06-.36-.11l0,.29a1.2,1.2,0,0,1-.06-.18c-.06-.09.05.18.07.29s-.08-.15-.09-.24c0,.25-.08.57-.21.27v-.09c-.07-.1,0,.6-.08.34V41.8c-.14-.12-.3.16-.38-.29,0,.41-.1-.19-.17.38a4.31,4.31,0,0,0-.06-.6s-.11.35-.16.4l.07-.29-.12.29.07-.35,0,.06a.82.82,0,0,1,0,.23c-.09.12-.06-.24,0-.39l-.18.21a1.12,1.12,0,0,1,.11-.22c-.16.27.11-.3,0,0,0,.07-.07.17-.09.22,0-.17,0-.2-.08-.15l.1-.18c0-.08-.18,0-.25,0a1.39,1.39,0,0,1-.28.42l.17-.28c-.13.16,0,.12-.21.3a1.46,1.46,0,0,1,.26-.39l-.1.07.17-.22c-.13.15.14-.29-.09,0l.06-.07c-.06,0-.15,0-.22,0a1.91,1.91,0,0,1-.34.28c0-.11.14-.3.08-.33s-.19.14-.33.22c.19-.16.13-.2.29-.28-.07,0-.1,0-.32,0a1.15,1.15,0,0,1-.19.14s.06-.1.17-.16h0c-.4.06.53-.56,0-.41h-.27c0-.06.19,0,.33-.12-.44,0,0-.16-.28-.17.72-.2-.09-.22.38-.35l-.18,0c-.17,0,.1,0,.14,0a1.19,1.19,0,0,1-.25,0c-.22-.19.27-.38.45-.47s-.86-.26-.44-.24l.31.12c-.33-.25.09-.23-.14-.49.06,0,.15.09.14.1.22.09.06-.08-.1-.18,0,0,.15.09.24.13s-.22-.23,0-.11l.07.06c-.09-.07.07,0-.16-.19.13,0,0-.15.11-.08-.21-.22.17,0-.14-.27.33.31.31.18.2,0,.08.11.12.08.23.23,0,0,0-.11-.16-.28.38.36-.15-.42.29.09a1.08,1.08,0,0,1,0-.6c.2.39-.09.1.15.5,0-.21-.12-.57,0-.52a.82.82,0,0,1,.08.25c0-.2.19,0,.2-.28a.49.49,0,0,1,0,.12s.06.05,0-.14v.06a2.83,2.83,0,0,1-.12-.76c.11.57.15.11.26.83a1.35,1.35,0,0,0,0-.26s.05.1.07.26c0-.13,0-.33,0-.33a1.56,1.56,0,0,1,0,.25c0-.19,0-.39.07-.31s0,.13,0,.13.12-.52.24-.34c0,.42,0,.13,0,.5l0-.11,0-.18s.1-.25.14-.13l0,.15.1-.07-.05-.14c.07-.18,0-.46.1-.35s.06,0,.06.22h0c0-.11.09-.23.12-.13s-.07.4-.08.48c.08-.3.13-.07.23-.38a2.48,2.48,0,0,0-.07.3l.07-.24a.56.56,0,0,1,0,.27c.06.06.08-.46.12-.24a.63.63,0,0,1,0,.09c.06.12.21-.11.25,0-.1.35-.09.06-.16.36.11,0,.37-.33.44-.2v0c.24-.46,0,.26.12.07a1.87,1.87,0,0,0-.12.19c0,.12.18,0,.38-.1l-.09.1c0,.13.06.13.06.2a.89.89,0,0,0,.21-.22c-.39.67.51-.1.16.46,0,0-.12,0-.11.06h.17a2,2,0,0,0,.21-.24c.11-.08.21-.12.24-.09-.16,0-.28.23-.37.33l.17-.13c-.27.3.37-.28.21,0l-.1.07c.07,0,.22-.08.21,0-.2.16-.12,0-.3.16,0,0,.48-.2.28,0-.07,0-.09,0-.16,0-.23.21-.16.17-.19.22h0l-.08.14.06-.06c.61-.3.17,0,.6-.1-.41.12-.22.1-.49.23a.8.8,0,0,1-.21.15c.23-.07-.15.13.19,0-.09,0,0,0-.22.13.09,0,.15-.08.26-.12.34-.06-.31.29.15.23a3.9,3.9,0,0,1,.69,0,.91.91,0,0,1-.34,0c-.13.08-.09.11,0,.13a1,1,0,0,0-.25.07s.35,0,.21,0l-.38,0c.09,0,.27,0,.37.07a1.59,1.59,0,0,1-.37,0,.9.9,0,0,0,.43.09l.09,0s-.22,0-.27,0c-.21,0,.08-.07.18-.09l.06,0c.55-.11-.11-.13-.08-.19l.4,0h-.34a.83.83,0,0,1,.39-.07c.18-.1-.16,0,0-.11a.11.11,0,0,1,.07,0l-.13,0c.09,0,.28-.08.23,0,.2-.16-.34-.08,0-.2h0c-.18-.1-.29.07-.66.09l.68-.31-.29.09s0,0,.13-.09c-.21,0-.12.06-.31.1.23-.17-.18-.12.24-.32-.21.07-.13.13-.3.13.45-.24-.12,0,.07-.2s.14,0,.33-.14c-.42.17,0-.17-.08-.18-.31.18-.2,0-.34,0,.1-.07.06-.25.1-.41l0,0c-.29.2-.29.09-.39.09a1.15,1.15,0,0,1,.34-.22l-.05,0a.4.4,0,0,1-.21.08l.21-.16c-.07-.06-.35.08-.3-.12-.17.18-.43.54-.62.6a1.56,1.56,0,0,1,.31-.29s-.1.06-.08,0l.19-.14c0-.1-.15.12-.16.08s.07-.12.18-.23,0,.08,0,0a.52.52,0,0,1,.11-.3c-.07.09-.18.2-.22.19s.14-.19.16-.3c-.1.08-.06-.06-.24.17,0,0,.06-.13.1-.2-.11.08-.19-.09-.33.19v0h0c-.26.16-.15-.29-.33-.26l.05-.08c-.13,0-.2,0-.34.13a.51.51,0,0,1,.08-.28c-.09,0-.13.13-.16-.05s0-.14.11-.09c0-.1,0-.26-.2,0,.12-.22,0-.32,0-.26v.19s-.08,0-.12-.05l.12-.31c-.09-.44-.49.57-.48-.11-.09.22.07.18,0,.43-.07-.05-.08-.53-.11-.54-.1-.19-.17.46-.28.32a1,1,0,0,1-.1.53,1,1,0,0,1,0-.58s0,0,0,.07a.25.25,0,0,0,.05-.22l0,.12c0-.12-.16-.12-.12-.3a.21.21,0,0,0,0,.25c-.11-.17-.17,0-.29-.13,0,.07,0,.2,0,.2s-.06.23-.16.28c-.07-.17,0-.42-.11-.27a.56.56,0,0,1,0-.4c-.09.23-.22-.12-.3-.15l.05-.11c0,.07-.06.07-.09.07l.07.23s-.07,0-.08-.13a4.83,4.83,0,0,1,0,.59c-.06-.1-.1.15-.17-.15.15.08-.08-.3,0-.37s0,0-.09,0a.14.14,0,0,1,0-.09c-.2-.23,0,.36-.13.39,0-.18-.11-.31-.12-.27s.09.27.08.41c-.12-.1-.06.12-.11.12l.07.05c0,.17,0,.16-.05.23,0-.13,0-.11,0-.16,0,.31-.24-.25-.26,0-.08-.1-.12-.3-.19-.36,0,.24-.21-.18-.24,0a.5.5,0,0,1,.13.39l.1-.23,0,.36c.05,0,0-.18.09-.16,0,.2,0,.14.11.31-.21-.29,0,.25-.21.06l-.25-.52c-.25-.17-.07.37-.28.33l.1.06c.1.21-.07.08-.07.19A1.4,1.4,0,0,0,45,36c.08.12-.11.07.1.39l-.21-.16c-.18,0,.22.52.1.55-.11-.19-.25-.25-.28-.42,0,0-.09,0,0,.12-.1-.07.09.28-.06.17,0,.07.18.22.13.24l-.06-.07c.06.07,0,.14.22.27-.52-.33-.19.25-.65,0a.85.85,0,0,1,0,.3s-.08,0-.05,0c-.21,0,.43.36.2.35s-.11-.15-.24-.17c-.55-.31,0,.17-.37.07l0,0c-.22,0,.14.26.05.34l-.08,0a1,1,0,0,1,.37.48c-.23-.11-.11-.09-.36-.16,0,.06.39.13.43.23a2.73,2.73,0,0,1-.53-.07v-.08c-.35-.07,0,.11-.09.14l-.15,0c0,.15.39.25.33.37h.11c.36.15-.22,0,0,.15l-.39,0a3.22,3.22,0,0,1,.41.32,1.87,1.87,0,0,1-.57-.3s0,.19.19.23c0,0-.13-.06-.07-.07.29.1.44.18.43.27-.75,0-.2.25-.77.34.28.18-.1.4,0,.64.56-.19,0,.06.61-.07.05,0,.05.06,0,.07l-.31.23c-.16.08-.14,0-.27,0s-.24.12-.37.24c.2-.07.31,0,.25.06l.24-.18c.34.07-.44.29-.08.36H43c.14.05.12.34.6.21-.05,0-.19.13-.25.11,0,.25.66.17.49.45l-.13.07c.06,0,.26-.1.17,0s-.13.07-.13.09.28-.06.24,0l-.16.06c0,.29.5,0,.68,0-.32.29-.32.51-.3.61l-.05,0c.15.21.56,0,.82,0-.17.47.26.42.34.75a.57.57,0,0,1,.21-.32c0,.1.24-.21.07.14h0c-.13.37,0,.32.09.36l.21-.48c-.06.8.58-.09.52.58.08-.11.14-.1.21-.22l0,.27a.4.4,0,0,0,.4.1l-.06.19c.11,0,.19-.79.27-.8v.41c.17,0,.37.36.52,0,0,.07,0,.19,0,.2s.36.24.25-.31c.06.36.19,0,.24-.17l0,.27c0-.36,0-.45,0-.57s.08.2,0,.14c.12.12,0-.26.12-.14l0,.17c.08,0,.05-.09,0-.29s.16,0,.26.24c0-.15-.07-.35,0-.3a.35.35,0,0,1,0,.17c.21.13.06-.37.26-.16a.64.64,0,0,0,.08.14c-.1,0-.19.07-.19,0,.1.24.21.23.27.59,0-.22-.06-.64.08-.57l.05.07v0s0,0,0-.07.08,0,.11,0c.11.18.15,0,.2,0-.15-.23-.07-.22-.24-.39,0,0,0,0,0,.06s0,0,0,0v0l-.09.08c0-.15-.07-.26,0-.16-.07-.16-.15-.33-.18-.41.25.3.47.41.61.59,0-.21.23-.29,0-.74,0-.07.13.09.19.14s0,.06,0,.13c0-.16.14-.2-.1-.47.18.06.2.28.25.14l.06.09c.3.11.22-.14.12-.35s-.19-.41.2-.31a.33.33,0,0,1-.13,0c.46-.11.06-.67.63-.77.13-.05-.08-.14-.23-.24l.29.07-.3-.18c-.22-.17.77-.05.33-.32l-.2,0c.05,0-.09-.19.14-.15,0,0-.21,0-.1-.06l.15,0-.25-.17c.12-.1.62.07.65-.11a1,1,0,0,0-.54-.16s-.1,0-.26,0l-.08,0a6.08,6.08,0,0,0-1.24,0l.27.07h-.22v0c-.21,0,0,0,.1.07a1.8,1.8,0,0,0-.24,0l.43.09a2.76,2.76,0,0,0-.46,0,4.34,4.34,0,0,1,.53.08c-.21,0-.37,0-.2,0a1.64,1.64,0,0,1-.24,0c.13,0,0,.07.28.13-.25,0,.05.11-.37,0,.1,0,.32.12.33.16-.49-.18-.06.08-.59-.09.45.17.16.16.39.31,0,0-.1-.05-.08-.05a.66.66,0,0,1-.26,0,2.33,2.33,0,0,1,.6.37c-.35-.12-.39-.22-.72-.36.28.13.25.19.49.3a1.55,1.55,0,0,1-.4-.16c.42.23.06.06.3.23-.23-.08-.39-.22-.29-.1A1,1,0,0,1,48.76,40.28Zm-.27,1.35h0l0,0Zm-.1,0a0,0,0,0,0,0,0c.05.09.09.18.07.18A.77.77,0,0,0,48.39,41.68Zm1.18,1.54c0,.05,0,0-.07,0a.16.16,0,0,0,0-.06v0Z"/><path class="cls-3" d="M49.44,42.88s0,0,0,0l0,0,0,.08Z"/><path class="cls-3" d="M49.47,36.6h0l0,0Z"/><polygon class="cls-3" points="46.96 41.33 46.94 41.4 46.96 41.34 46.96 41.33"/><path class="cls-3" d="M49.41,37.83s0,0,0,.05Z"/><path class="cls-3" d="M49.53,38.1l-.06.09S49.53,38.12,49.53,38.1Z"/><path class="cls-3" d="M49.53,38.36l.1,0h0Z"/><path class="cls-3" d="M46.77,37.48h0Z"/><path class="cls-3" d="M47.7,36.76a.89.89,0,0,1-.05.13S47.68,36.92,47.7,36.76Z"/><polygon class="cls-3" points="46.18 38.2 46.17 38.2 46.17 38.2 46.18 38.2"/><path class="cls-3" d="M47.6,36.88c0,.06,0,0,0,0S47.62,36.84,47.6,36.88Z"/><path class="cls-3" d="M49.67,39.24h0Z"/><path class="cls-3" d="M49.7,39.25h0Z"/><path class="cls-3" d="M49.8,39.27l-.07,0S49.72,39.27,49.8,39.27Z"/><path class="cls-3" d="M49.74,39l-.09,0Z"/><path class="cls-3" d="M49.7,38.88s-.2.09-.13.1h.08C49.5,39,49.86,38.85,49.7,38.88Z"/><path class="cls-3" d="M50.72,38.06l0,.13c.09-.06.21-.13.25-.1C51.19,37.84,50.73,38.21,50.72,38.06Z"/><path class="cls-3" d="M50.72,37.69c.07,0,.13-.07.19-.1A.2.2,0,0,0,50.72,37.69Z"/><path class="cls-3" d="M48.93,36,49,35.8C49,35.82,49,35.89,48.93,36Z"/><polygon class="cls-3" points="48.11 37.1 48.09 37.26 48.17 37.05 48.11 37.1"/><polygon class="cls-3" points="48.32 35.31 48.35 35.28 48.24 35.35 48.32 35.31"/><path class="cls-3" d="M44.15,36.83l.25.18C44.38,37,44.12,36.72,44.15,36.83Z"/><path class="cls-3" d="M43.6,38.67c-.16,0-.26,0-.12.09S43.63,38.7,43.6,38.67Z"/><polygon class="cls-3" points="45.87 43.58 45.8 43.67 45.9 43.61 45.87 43.58"/><path class="cls-1" d="M7.89,52.87l2.37-.8a38.38,38.38,0,0,0,1.86,4.5l-2.24,1.1A41.1,41.1,0,0,1,7.89,52.87Zm4.58,9.3,2.08-1.38a38.47,38.47,0,0,0,2.95,3.88l-1.89,1.64A40.59,40.59,0,0,1,12.47,62.17ZM19.26,70l1.67-1.87a38.1,38.1,0,0,0,3.83,3l-1.41,2.06A40.56,40.56,0,0,1,19.26,70Zm8.56,5.86L29,73.64a36.74,36.74,0,0,0,4.47,1.93l-.84,2.36A41.08,41.08,0,0,1,27.82,75.87Zm9.78,3.48.53-2.44a37.08,37.08,0,0,0,4.82.71l-.21,2.5A42.49,42.49,0,0,1,37.6,79.35Zm10.22-1.63a37.26,37.26,0,0,0,4.85-.52l.43,2.47a40.64,40.64,0,0,1-5.17.55Z"/><rect class="cls-1" x="-0.13" y="52.85" width="5.2" height="2.5" transform="translate(-44.18 26.59) rotate(-56.86)"/><polygon class="cls-1" points="5.69 46.88 7.74 43.74 10.88 45.79 9.51 47.88 8.46 47.2 7.78 48.25 5.69 46.88"/><rect class="cls-1" x="15.05" y="48.39" width="2.5" height="4.86" transform="translate(-35.16 36.68) rotate(-56.86)"/><path class="cls-2" d="M84.78,53.71c.09,0,.29,0,.24-.1l-.33-.07Z"/><path class="cls-2" d="M85.36,52.93a.84.84,0,0,0-.76-.13c.33.1.19.14.58.25,0,.11-.1.2-.22.19.09,0-.06.17.15.23.25-.15.25-.35,0-.53C85.21,52.89,85.29,52.93,85.36,52.93Z"/><path class="cls-2" d="M79.25,43.79l0,.06A.1.1,0,0,0,79.25,43.79Z"/><path class="cls-2" d="M72,43.27a.09.09,0,0,0,.06-.08S72,43.25,72,43.27Z"/><path class="cls-2" d="M70.66,43.39h.07S70.66,43.36,70.66,43.39Z"/><path class="cls-2" d="M79.25,43.79l-.15-.17C79.05,43.72,79.17,43.73,79.25,43.79Z"/><path class="cls-2" d="M84.34,51.58a.41.41,0,0,0,.11.07l-.06-.08Z"/><path class="cls-2" d="M82.18,45.24l0,0,.12-.07Z"/><path class="cls-2" d="M84,47.05s-.26.1-.37.16c.11-.05.18-.05.23,0A.61.61,0,0,0,84,47.05Z"/><path class="cls-2" d="M85.31,50.79l.06.05Z"/><path class="cls-2" d="M80.72,44.15l0-.1A.19.19,0,0,0,80.72,44.15Z"/><path class="cls-2" d="M83.8,71.61l0,0S83.8,71.6,83.8,71.61Z"/><polygon class="cls-2" points="85.52 69.24 85.53 69.28 85.69 69.29 85.52 69.24"/><path class="cls-2" d="M68.36,44.3h0C68.41,44.24,68.38,44.26,68.36,44.3Z"/><path class="cls-2" d="M63.75,64.19c.25-.23.32.37.6,0C64.24,64.25,63.91,63.91,63.75,64.19Z"/><path class="cls-2" d="M84.36,51.52a.29.29,0,0,1,0-.09A.2.2,0,0,0,84.36,51.52Z"/><path class="cls-2" d="M64.35,64.22h0l0,0Z"/><path class="cls-2" d="M64.87,48.72H65A.2.2,0,0,0,64.87,48.72Z"/><path class="cls-2" d="M67.63,45.65l-.1,0Z"/><path class="cls-2" d="M64.49,50.87c0,.05-.08.06-.06.14h0S64.43,50.92,64.49,50.87Z"/><path class="cls-2" d="M64.14,53s0,0,.06,0v-.07Z"/><path class="cls-2" d="M81,76.19a1,1,0,0,1,.23.13C81.09,76.19,81.23,76,81,76.19Z"/><path class="cls-2" d="M84.5,51.54a.18.18,0,0,1-.14,0l0,0A.16.16,0,0,0,84.5,51.54Z"/><path class="cls-2" d="M66.62,51.51l-.11.26A1.27,1.27,0,0,0,66.62,51.51Z"/><path class="cls-2" d="M69.14,76.05l.07,0A.06.06,0,0,0,69.14,76.05Z"/><path class="cls-2" d="M66.41,52.6a.41.41,0,0,0-.22.13l.06,0Z"/><path class="cls-2" d="M81.24,76.33h0Z"/><path class="cls-2" d="M82,74.51c-.16.2.21.32.34.5-.12.33-.31-.05-.52-.09-.06.21.09.55,0,.66s-.08,0-.12-.11c.08.38-.45.45-.39.9l-.08,0a1.72,1.72,0,0,1,.36.35c-.09.09,0,.35-.23.19.07,0,0-.12,0-.21a.85.85,0,0,1,0,.17c-.31-.19.07-.21-.1-.41-.12.26-.2.66-.42.71-.23-.25.31-.37-.09-.46l.33-.08c-.52-.28.17-.08-.36-.4-.37.14-.23.41-.61.54,0,.2.18.21.2.42-.32.59-.8-.49-.94.09,0,.24.17.64-.21.57l-.07-.39c-.35.12,0,.62-.45.52,0-.16.24-.22.17-.25-.36-.18-.09.27-.28.34l-.16-.3a9.64,9.64,0,0,1-1.16.72c0-.11.06-.23-.07-.31a2.13,2.13,0,0,1-1.73,0l-.2.31s-.09-.14,0-.2c-.21-.12,0,.19-.11.3s-.16-.18-.08-.26a2.21,2.21,0,0,1-.75.28.9.9,0,0,1-.73-.21l.1-.08c-.28-.15-.47.52-.7.18l.07,0c-.32-.14-.68-.21-1-.34a1.12,1.12,0,0,1-.73-.61c-.29.35-.5-.46-.82,0-.18-.47,0-.47-.37-.94-.09-.11-.38.17-.57.11l.19-.25-.4.11.14-.37-.17-.05a.26.26,0,0,1,0,.26c-.29-.08-.33-.59-.22-.71-.21-.07-.4-.17-.61-.26.1-.07.2,0,.31,0-.45,0,.21-.26-.21-.29,0,.08-.15.11-.2.14a.78.78,0,0,0-.37-.65l.2-.09c-.12-.18-.27-.36-.42-.55a3.3,3.3,0,0,1-.42-.61c0,.21-.35.35-.45.22l.26-.2c-.22,0,0,.2-.35.12-.05-.19.28-.27.42-.22l-.2-.16c.08-.06.15,0,.27-.07-.22,0,.13-.47-.23-.47l.08,0c-.17-.46-.35-.64-.46-1-.27.06-.25-.11-.51-.18,0-.33.2-.7.12-1.05s-.25-.06-.42-.16c.25,0,.21-.41.4-.23a5.06,5.06,0,0,0-.29-1.18c-.1.06-.15.14-.23.1s.1-.26.23-.24l0,0c-.38-.71.75-1.63.22-2.19l0,0-.28-.58c0-.27.2.16.36,0-.43-.63.06-1-.23-1.51.76-.4,0-1.42.43-2l-.18,0c-.17-.14.11-.17.15-.27-.14,0-.16.15-.26.06a12.53,12.53,0,0,1,.42-3.66c0-.44-.92-.25-.5-.81l.33.16c-.39-.9,0-1.83-.32-2.71.08.05.18.05.18.14.24-.19,0-.69-.19-.69,0-.14.18,0,.28-.11s-.31-.47-.07-.57c0,0,.08,0,.1.09-.13-.14,0-.52-.24-.43.15-.28-.1-.56.09-.78-.29-.19.22-.47-.2-.59.43.09.43-.43.29-.66.12.1.18-.12.34,0,0-.2,0-.4-.22-.44.64-.18-.14-.9.59-.84a5.75,5.75,0,0,1,.12-.94,7.23,7.23,0,0,1,.29-.86c.35.26-.3.57.12.79.09-.55,0-1,.4-1.4.13-.07.11.19.14.27.2-.53.7-.75.9-1.24A.19.19,0,0,1,69,47c.06-.07.21-.09.07-.24l0,.1c-.31-.11-.12-.72-.2-.86.24.55.49-.19.74.55a.28.28,0,0,0-.06-.29c.1,0,.17,0,.19.2.2-.29,0-.39.23-.58.06.08,0,.15.07.27,0-.26.06-.49.33-.57,0,.06.08.11,0,.15.36-.27.44-.83,1-.89,0,.46.22,0,.39.39l.2-.19-.16-.13c.22-.08.33-.41.57-.37l-.12.21a3,3,0,0,1,.4-.2l-.29-.07c.19-.25-.16-.44.19-.43-.06.06.25-.06.42.12h0c.09-.14.19-.31.39-.24s0,.41.09.48c.06-.32.54-.17.64-.52a.56.56,0,0,0,0,.32l.06-.27c.13.06.15.11.14.26.34,0-.15-.46.27-.28,0,0,0,.06-.07.1.41.09.78-.22,1.15-.06.1.39-.32.08-.2.4a5.52,5.52,0,0,0,.81-.19,1.59,1.59,0,0,1,.81,0l-.09-.06c.18-.52.34.32.64.15-.08,0-.15.27-.12.21.31.17.72.05,1.28.1l-.11.1c.16.18.49.26.66.42.11-.09.22,0,.24-.23a.86.86,0,0,0,.8.64c.34.05.68.14.74.58-.07,0-.22,0-.17,0l.49.22c.12-.21,0-.16.06-.36a.41.41,0,0,1,.43,0c-.28,0-.24.29-.25.45,0-.06.11-.1.15-.16-.06.49.35-.31.45.16l-.1.07c.16,0,.37,0,.45.18-.15.23-.2,0-.36.12.15.14.66,0,.6.3-.12,0-.21-.12-.33-.14-.09.37,0,.33,0,.48v0c0,.12.09.24.12.37v-.13c.7-.21.42.35,1,.39-.56,0-.24.09-.5.24,0,.12,0,.29-.12.3.29,0,0,.34.4.35-.08.06.09.16-.14.25.17.14.12-.13.23-.18.47.15,0,.87.6,1.12.31.33.67.29,1,.64-.12.18-.37,0-.37,0a.5.5,0,0,0,.14.57c-.09,0-.15,0-.24.13.06.15.37,0,.28.26a1.67,1.67,0,0,1-.42-.07c.14.16.33.31.46.49-.16.08-.28-.07-.4-.12.11.2.24.53.52.57l.07-.15c0,.08-.22.07-.28,0-.24-.15.05-.28.15-.31l.08.13c.54-.23-.16-.56-.22-.83l.44,0-.41-.21c.09-.09.3-.19.4-.06.14-.26-.19-.15,0-.39,0,0,.05,0,.07,0l-.17-.17c.1,0,.27-.12.25,0,.11-.45-.5-.48-.25-.73l0,0c-.32-.44-.3.06-.77-.16l.57-.55-.3.09c0-.06,0-.17.08-.2-.28-.09-.1.09-.33.07.14-.37-.45-.57-.06-.86-.25,0,0,.31-.31.15.41-.34-.24-.23-.16-.56.26-.09.26.19.33-.15-.44.12-.19-.44-.39-.57-.3.22-.38-.28-.71-.44.09-.06-.27-.64-.44-.94l0,0c-.3.23-.5-.05-.73-.15.15-.16.24-.2.4-.18l-.17-.16a.41.41,0,0,1-.36,0l.22-.18c-.27-.17-.69-.12-.91-.49-.16.2-.14.75-.57.69.06-.13.18-.34.3-.33,0,0-.17,0-.2,0l.27-.11c-.1-.18-.19.11-.29,0,.1-.16,0-.17.08-.29s.06.13.15.09a.62.62,0,0,1-.2-.48c0,.11-.14.23-.25.19-.27-.14,0-.26-.09-.43-.13.08-.24-.13-.38.13-.08,0,0-.17,0-.26-.2,0-.7-.29-.66.08l0,0h0c-.58.1-.93-.55-1.48-.54l0-.09c-.33,0-.68-.1-.93.08-.09,0-.18-.21-.13-.32-.24,0-.28.14-.59-.06.25-.15-.07-.17.25-.09-.29-.14-.36-.28-.71,0,.13-.25-.22-.33-.37-.26l.21.19a1.39,1.39,0,0,1-.46,0l.08-.33c-.68-.37-1.11.72-1.66.14-.14.26.37.11.25.4-.28,0-.67-.42-.77-.41-.45-.1-.27.57-.71.54a.39.39,0,0,1,0,.58c-.28,0-.48-.37-.33-.52a.08.08,0,0,1,.12,0c.08-.07.18-.15,0-.24v.12c-.18-.09-.56.07-.53-.15-.18.19,0,.22.15.22-.42,0-.57.19-1,.24.09,0,.19.13.14.16-.58.11-.14.31-.45.52-.28-.06-.13-.42-.41-.11-.27,0-.2-.26-.15-.39-.22.37-.66.22-.88.3l.12-.19a.59.59,0,0,1-.24.21l.23.14c-.12,0-.21.08-.26,0,0,.19.29.29.22.58-.19,0-.28.37-.51.15.44-.19-.23-.23.07-.51a.38.38,0,0,1-.24.17s0-.06,0-.1c-.54.06,0,.42-.33.69-.07-.18-.3-.19-.33-.11.14-.12.25.17.22.39-.31.09-.17.29-.29.38l.17-.07c.07.17,0,.25-.16.42-.1-.08.07-.19,0-.18,0,.36-.59.13-.65.51-.19,0-.26-.21-.41-.17-.07.42-.45.15-.54.58.26,0,.22,0,.25.36.08-.2.15-.4.24-.6l0,.53c.11-.14.12-.4.23-.46,0,.27,0,.21.2.28-.44,0-.13.51-.49.59L66,47.08c-.5.21-.18.84-.61,1.24l.19-.11c.16.18-.16.32-.15.53-.16-.1-.28,0-.42,0,.13.05-.2.38.14.58l-.34.13c-.27.41.34.7.13,1.07-.16-.18-.36,0-.41-.37,0,.14-.13.26,0,.3-.14.06.16.47-.06.56.07.08.27.15.21.3a.19.19,0,0,1-.1,0c.1,0,.07.27.32.18-.69.32-.18,1.2-.7,1.54,0,.32.09.71.11,1-.06,0-.1,0-.08-.06-.18.38.57.23.36.66-.31.22-.17-.23-.29-.09-.65.06.09.51-.29.8l0-.07c-.22.22.25.54.2.9a.22.22,0,0,0-.1,0,1.93,1.93,0,0,1,.54,1.06c-.26-.11-.14-.16-.4-.09,0,.15.42,0,.49.26-.14.1-.26.32-.54.35V57.4c-.36.15,0,.38-.05.53l-.16,0c.05.45.45.45.42.93l.12-.05c.39.26-.22.22.07.48l-.4.08a4.36,4.36,0,0,1,.46.92c-.29-.18-.44-.54-.62-.77,0,.17,0,.58.23.67,0-.07-.14-.15-.08-.22a.94.94,0,0,1,.46.83c-.77-.06-.19.89-.79,1.13.28.61-.12,1.2-.07,1.9.59-.25,0,.21.62.17,0,.16,0,.22,0,.24l-.36.49c-.18.12-.14-.15-.27-.14,0,.36-.26.15-.43.39.22,0,.32.13.23.33l.29-.29c.32.5-.52.43-.19.94l-.2-.16c.12.26,0,1,.49,1.21-.07.05-.24.11-.28,0-.08.62.52,1.38.22,1.86l-.15,0c0,.11.28.2.13.34-.06,0-.15,0-.16,0s.28.33.2.5l-.18-.14c-.17.69.46,1,.66,1.51-.44.07-.51.62-.49.9H63.8c.13.81.73,1.21,1.15,1.78a1.42,1.42,0,0,0,.17,1,5.69,5.69,0,0,1,.52,1.13c0-.13.3-.18.41-.1s.52.18.18.41l0-.06c-.24.35.06.57.25.78l.42-.32c-.06.52.32.82.7,1s.71.39.66.78c.22,0,.38.13.6.12l-.17.23a3.22,3.22,0,0,0,1.1.71l-.2.13c.3.17.75-.54,1-.43l-.1.42c.52.24,1,.8,1.63.58,0,.06-.07.17-.17.17.26.07,1,.54,1,0-.07.37.58.13.9,0l-.08.26c.3-.31.31-.4.67-.49.08,0,.06.23-.05.15.28.16.24-.25.56-.08l-.13.17c.29,0,.27-.06.43-.27s.53,0,.6.29c0-.15.17-.36.34-.3a.19.19,0,0,1-.05.19c.5.14.66-.42,1-.2a.26.26,0,0,0,.08.16,3.54,3.54,0,0,1-.67.06c0,.25.36.25.15.64.25-.24.6-.69.92-.66a.28.28,0,0,1,.06.08l0,0a.2.2,0,0,0,.18-.09.62.62,0,0,0,.27,0c.09.19.39,0,.54,0-.09-.26.11-.29-.14-.45,0,0,0,0-.11.09s0,0-.06,0v0L78,80c.08-.17.17-.31.38-.21,0-.19.05-.4.06-.5.31.31.77.36.92.57.4-.32,1-.58,1-1.17.08-.13.21,0,.29.09s-.12.13-.12.22c.16-.26.66-.46.51-.8.37,0,0,.39.38.08v.13c.54-.05.73-.45.87-.87s.29-.79.89-.91a.22.22,0,0,1-.18,0,3.33,3.33,0,0,0,1.12-1.32,4.44,4.44,0,0,1,1-1.43c.23-.25,0-.37-.06-.62l.3,0-.21-.43c-.07-.5,1-.56.65-1.28l-.22,0c.11-.19,0-.68.23-.6,0,0-.19-.11-.08-.17l.16,0-.19-.55c.13-.4.62.12.68-.49,0-.24-.43-.66-.54-.57a.29.29,0,0,1-.26.23l-.08-.2c-.46,0-.93-.16-1.28.25l.27.31-.23.08v-.25c-.22.13,0,.23.09.34a.42.42,0,0,0-.26.1c.15.11.27.22.41.33-.19,0-.34-.17-.47,0,.18.16.42-.08.52.17-.23.11-.39,0-.24.23a.23.23,0,0,1-.23-.12c.12.17,0,.39.22.52-.29.08-.06.51-.49.38a.71.71,0,0,1,.25.48c-.42-.4-.21.47-.72.21.4.34,0,.67,0,1.07,0,0-.08-.1,0-.12-.12.15-.27.13-.39.19.33.2.26.49.38.75-.44,0-.32-.35-.67-.48.28.15.07.49.33.57-.28,0-.16.07-.49,0,.39.3,0,.17.14.46-.35,0-.41-.23-.45.08C82,74.8,82,74.51,82,74.51Zm-4.85,4h0l.13-.06Zm-.55.1.24,0c0,.1,0,.2,0,.2S76.74,78.71,76.64,78.64Zm1.7,1.62c-.09.07-.14,0-.17,0l.17-.08v0A.38.38,0,0,1,78.34,80.26Z"/><path class="cls-2" d="M78.42,79.86l0,0-.07,0v.1Z"/><path class="cls-2" d="M79.31,43.86h0a.07.07,0,0,1,0,0Z"/><polygon class="cls-2" points="69.68 76.32 69.64 76.38 69.72 76.36 69.68 76.32"/><path class="cls-2" d="M81.59,46.43a.19.19,0,0,0,0,.08A.13.13,0,0,0,81.59,46.43Z"/><path class="cls-2" d="M82.5,47.44l0,.21A.71.71,0,0,0,82.5,47.44Z"/><path class="cls-2" d="M83,48.34l.11-.05h0Z"/><path class="cls-2" d="M69,47s0,0,0,0S68.94,47.05,69,47Z"/><path class="cls-2" d="M72.89,44.14a.57.57,0,0,1-.12.17C72.86,44.31,72.93,44.3,72.89,44.14Z"/><polygon class="cls-2" points="66.63 51.48 66.62 51.48 66.62 51.51 66.63 51.48"/><path class="cls-2" d="M72.55,44.37a.2.2,0,0,0,.22-.06A.3.3,0,0,0,72.55,44.37Z"/><path class="cls-2" d="M84.48,52.47v.05h0Z"/><path class="cls-2" d="M84.52,52.52l0,0S84.55,52.52,84.52,52.52Z"/><path class="cls-2" d="M84.65,52.68l-.09-.11S84.57,52.66,84.65,52.68Z"/><path class="cls-2" d="M84.33,51.13h0Z"/><path class="cls-2" d="M84.19,50.74c0,.1-.13.3,0,.41h.08C84.07,51.12,84.39,50.77,84.19,50.74Z"/><path class="cls-2" d="M84.61,48.56c0,.13.07.26.1.39.07-.11.16-.26.26-.11C85,48.24,84.8,49,84.61,48.56Z"/><path class="cls-2" d="M84.09,47.44c.17.15.13-.09.18-.11C84.11,47.27,84.07,47.26,84.09,47.44Z"/><path class="cls-2" d="M76.73,42.92l.06-.25C76.62,42.68,76.77,42.77,76.73,42.92Z"/><path class="cls-2" d="M75.05,44.13l.14.15.07-.23Z"/><path class="cls-2" d="M74,42.36l.07,0-.27.13Z"/><path class="cls-2" d="M63.92,52.62l.31,0C64.19,52.49,63.84,52.42,63.92,52.62Z"/><path class="cls-2" d="M64.18,58.79c-.16.06-.26.23-.1.34C64.1,59,64.22,58.86,64.18,58.79Z"/><polygon class="cls-2" points="66.8 77.11 66.63 77.08 66.87 77.21 66.8 77.11"/><path class="cls-2" d="M77.05,58.93c0-.09,0-.28,0-.24L77,59Z"/><path class="cls-2" d="M76.87,58.32a2.61,2.61,0,0,0-.05.74c0-.32,0-.18.07-.56,0,0,0,.1,0,.23,0-.09,0,.07,0-.14s-.08-.27-.13-.05A.77.77,0,0,1,76.87,58.32Z"/><path class="cls-2" d="M74.19,57.8l0,0S74.2,57.81,74.19,57.8Z"/><path class="cls-2" d="M72.53,57.62s0,0,0-.07A.14.14,0,0,0,72.53,57.62Z"/><path class="cls-2" d="M72.25,57.25l0,0S72.25,57.23,72.25,57.25Z"/><path class="cls-2" d="M74.19,57.8l0-.1C74.14,57.8,74.17,57.78,74.19,57.8Z"/><path class="cls-2" d="M76.5,59.11s0,0,0-.08l0,0Z"/><path class="cls-2" d="M74.92,57.53h0a.62.62,0,0,1,0-.13Z"/><path class="cls-2" d="M75.48,57.48s0,.27,0,.39a.78.78,0,0,1,0-.19A1.56,1.56,0,0,0,75.48,57.48Z"/><path class="cls-2" d="M76.37,58l0,0S76.38,58,76.37,58Z"/><path class="cls-2" d="M74.52,57.47v0Z"/><path class="cls-2" d="M58.83,59.58v0Z"/><path class="cls-2" d="M58.18,58.19h0v0Z"/><path class="cls-2" d="M71.73,56.89h0S71.74,56.87,71.73,56.89Z"/><path class="cls-2" d="M67,57.1c0,.25-.09.32,0,.6A2.36,2.36,0,0,0,67,57.1Z"/><path class="cls-2" d="M76.48,59.08h0S76.48,59.09,76.48,59.08Z"/><path class="cls-2" d="M67,57.7h0v0Z"/><path class="cls-2" d="M70.54,57.06s0,.09,0,.12A.68.68,0,0,0,70.54,57.06Z"/><path class="cls-2" d="M71.43,57.46l0,0S71.42,57.46,71.43,57.46Z"/><path class="cls-2" d="M70.08,57.46s0-.06,0,0v0S70.06,57.41,70.08,57.46Z"/><path class="cls-2" d="M69.6,57.46a.13.13,0,0,0,0,.06v0Z"/><path class="cls-2" d="M60.29,59.45c0-.08,0-.17,0-.26C60.28,59.39,60.21,59.47,60.29,59.45Z"/><path class="cls-2" d="M76.5,59a.55.55,0,0,1,0,.12l0,0Z"/><path class="cls-2" d="M70.06,59.68l-.08,0A.1.1,0,0,0,70.06,59.68Z"/><path class="cls-2" d="M63.74,59.41l0,0S63.74,59.44,63.74,59.41Z"/><path class="cls-2" d="M69.75,59.68a.62.62,0,0,0,0-.2s0,0,0,.07Z"/><path class="cls-2" d="M60.27,59.19Z"/><path class="cls-2" d="M59.77,59.86c.07,0,0-.36,0-.57s0,.27.07.46c0-.1.09-.44.13-.43a.43.43,0,0,1,0,.16c0-.29.17,0,.23-.38a.28.28,0,0,1,0,.09c0-.18,0-.37,0-.51s.06-.23.07,0c0,0,0,.09,0,.17l0-.11c0,.35-.05.12-.05.38.07-.11.14-.4.2-.3,0,.34-.12.11-.06.42l-.07-.13c.06.53,0,0,0,.53.11.1.12-.17.22-.07,0-.19,0-.28,0-.47s.11.85.22.4c0-.23,0-.66.12-.43l0,.39c.1,0,.06-.56.17-.3s-.08.13-.07.18c.07.3.05-.22.1-.22v.34c.11-.06.23-.3.35-.36a.81.81,0,0,0,0,.31c.15-.17.32,0,.46.24l.06-.29a.5.5,0,0,1,0,.19c0,.11,0-.19,0-.3s0,.16,0,.25c.1-.25.28-.53.39-.22l0,.09c.08.12.09-.6.16-.33v.05c.18.13.37-.14.51.3,0-.42.17.19.18-.4.1.29.07.4.22.6,0,0,.05-.37.1-.43v.31l.07-.33,0,.37,0-.08a.9.9,0,0,1,0-.23c.07-.14.17.22.17.38l.16-.26a.72.72,0,0,1,0,.24c.09-.31,0,.33.09,0a2,2,0,0,1,0-.25c0,.19.13.19.2.11v.21c.12.06.25-.1.39-.09a1,1,0,0,1,0-.51v.33c0-.2,0-.12,0-.37.06,0,0,.37,0,.48l.06-.12c0,.1,0,.15,0,.28,0-.21.1.32.14,0v.1c.14,0,.2-.11.31-.13,0-.28,0-.22.08-.44.08.09.17.31.27.28s0-.23,0-.4c0,.25.1.23,0,.41.12,0,.15,0,.3-.25a.75.75,0,0,1,0-.24s.06.1.06.23v0c.17-.38.39.75.52.22v0l.14-.28c.06.05,0,.2,0,.36.15-.43.23.06.36-.23.09.76.33,0,.46.43v-.18c0-.17,0,.11.06.15,0-.14,0-.16,0-.26.28-.21.58.26.86.42.11,0,.06-.92.19-.49l0,.33c.21-.4.43,0,.64-.33,0,.08,0,.18,0,.18,0,.24.16,0,.16-.19,0,0,0,.18,0,.28s.11-.31.14-.07a.87.87,0,0,1,0,.1c0-.12.13,0,.1-.25.08.13.15-.12.21,0,0-.31.13.15.15-.29,0,.46.13.37.18.16,0,.13,0,.14,0,.33.05,0,.1-.09.09-.33.11.54.21-.43.27.26a2,2,0,0,1,.47-.51c0,.45-.17,0-.16.52.14-.19.22-.58.36-.47s0,.2,0,.27c.14-.18.28,0,.4-.2a.43.43,0,0,1,0,.12s0,.07,0-.14l0,.06a3.54,3.54,0,0,1,.1-.78c0,.59.12.15.06.89a1.09,1.09,0,0,0,0-.27.51.51,0,0,1,0,.27c.09-.11.06-.33.14-.32a2.42,2.42,0,0,1,0,.25c0-.19.08-.38.15-.3s0,.14,0,.14c.12,0,.2-.52.33-.33,0,.43,0,.14,0,.51l.07-.11,0-.18c.06,0,.11-.26.16-.14l0,.15.11-.07-.06-.14c.06-.19,0-.47.07-.37s.06,0,.09.22h0c0-.12.06-.25.11-.16s0,.42,0,.5c0-.31.14-.09.17-.42a1.59,1.59,0,0,0,0,.31l0-.25A.67.67,0,0,1,73,59c.08,0,0-.48.07-.27,0,0,0,0,0,.09s.2-.16.29,0c0,.37-.08.09,0,.41.13-.07.27-.46.4-.37l0,0c0-.53.09.26.16,0a1.5,1.5,0,0,0,0,.24c.09.08.18-.13.32-.3l0,.14c0,.12.14.07.19.13a.71.71,0,0,0,0-.31c.18.77.33-.42.49.23,0,0,0,.12,0,.12l.13-.13a2.13,2.13,0,0,0,0-.32c0-.13,0-.24.08-.24a.94.94,0,0,0,0,.5,1.62,1.62,0,0,1,0-.22c.07.41,0-.47.1-.19v.12c0-.06.07-.22.1-.19,0,.27,0,.13,0,.35,0,0,.1-.51.15-.24,0,.07-.06.08-.08.15.05.31.06.23.1.28h0l.09.14,0-.09c.07-.69.14-.12.22-.58-.08.43,0,.25,0,.55a.65.65,0,0,1,.05.27c0-.25.07.19.13-.17,0,.1,0,0,0,.26.05-.08,0-.17,0-.3.08-.33.2.41.32-.05.1-.19.12-.52.22-.68a.85.85,0,0,1,0,.35c.06.15.1.12.15,0a1.28,1.28,0,0,0,0,.27s0-.36.08-.21,0,.28,0,.39c0-.09.1-.27.14-.36a1.31,1.31,0,0,1,0,.37.71.71,0,0,0,.16-.43l0-.09s0,.23,0,.28c0,.21-.07-.1-.07-.19l0-.07c0-.57-.14.1-.21.06l0-.41-.07.34a.88.88,0,0,1,0-.4c0-.21,0,.15-.09-.08V58l-.05.12c0-.09,0-.29,0-.23-.08-.24-.14.31-.17,0v0c-.13.14,0,.3-.11.66L76,57.75v.3s0,0,0-.15c0,.21,0,.13,0,.33-.06-.28-.17.13-.18-.36,0,.23,0,.18,0,.34,0-.52-.08.09-.13-.15s.07-.13,0-.37c0,.46-.1-.1-.15,0,0,.36-.1.15-.18.27,0-.12-.15-.2-.22-.33v-.06c0,.37-.09.3-.15.37a1.49,1.49,0,0,1,0-.4h0c0,.12,0,.18-.07.22l0-.27c-.07,0-.14.32-.23.14a3.16,3.16,0,0,1,0,.88,1.91,1.91,0,0,1,0-.43s0,.11,0,.06l0-.24c0-.1,0,.2-.06.18,0-.2,0-.15,0-.3s0,.08,0,0a.58.58,0,0,1-.09-.3c0,.11,0,.27,0,.29s0-.24-.06-.34c0,.14-.06,0-.06.29,0,0,0-.14,0-.22,0,.13-.17,0-.13.36v0h0c-.11.29-.24-.17-.35,0v-.1c-.07.11-.16.07-.21.28a.79.79,0,0,1,0-.3c0,.07,0,.19-.13,0s0-.15,0-.12-.08-.25-.15,0c0-.25,0-.32-.09-.24l0,.18s-.07,0-.1,0l0-.33c-.14-.4-.26.69-.36,0,0,.24.07.17,0,.44a3.65,3.65,0,0,1-.15-.53c-.09-.18-.08.49-.18.37a1.11,1.11,0,0,1,0,.54c-.07,0-.08-.5,0-.59s0,0,0,.07a.31.31,0,0,0,0-.23v.12c0-.12-.12-.11-.1-.3a.29.29,0,0,0,0,.26c-.08-.18-.13,0-.21-.12a.75.75,0,0,1,0,.2c-.13-.15-.06.22-.14.28,0-.18,0-.44-.07-.28a.84.84,0,0,1,0-.42c-.08.23-.14-.15-.19-.19l0-.09s0,0-.06,0l0,.24a.19.19,0,0,1,0-.14c0,.15,0,.39,0,.6,0-.12-.1.13-.11-.18.1.11,0-.32.07-.37s0,0-.06,0,0-.07,0-.09c-.09-.28,0,.36-.14.35,0-.18,0-.33,0-.3s0,.3,0,.44c-.06-.14-.07.1-.1.08l0,.07a.27.27,0,0,1-.09.21c0-.14,0-.1,0-.16-.05.31-.11-.32-.18-.11,0-.12,0-.34,0-.42-.08.23-.09-.24-.17,0a.64.64,0,0,1,0,.41l.14-.16-.09.34s.09-.15.11-.11a.66.66,0,0,0,0,.34c0-.36-.11.2-.17,0v-.59c-.09-.26-.17.31-.29.16l0,.1c0,.23-.08,0-.12.13a2,2,0,0,0,0-.4c0,.15-.09,0-.1.39l-.06-.26c-.1-.11-.11.56-.21.49a2.51,2.51,0,0,1,0-.51s-.06,0-.06.1c0-.12-.09.27-.12.08,0,.09,0,.29,0,.28a.31.31,0,0,1,0-.1A1,1,0,0,0,70,58c-.1-.61-.28,0-.36-.48a.72.72,0,0,1-.22.14c0-.06,0-.1,0-.08-.09-.18-.06.57-.16.37s.06-.18,0-.3c0-.65-.12.09-.18-.29v0c0-.22-.12.25-.21.2a.29.29,0,0,0,0-.1.91.91,0,0,1-.25.54,1.08,1.08,0,0,0,0-.4s0,.42-.06.49a3.17,3.17,0,0,1-.08-.53l.07,0c0-.36-.09,0-.13,0v-.16c-.11.06-.11.45-.22.42v.12c-.06.39,0-.22-.11.07l0-.4a1.78,1.78,0,0,1-.22.46,3.41,3.41,0,0,1,.18-.62s-.13,0-.16.23c0,0,0-.14.06-.08,0,.31-.12.47-.2.46,0-.77-.21-.19-.27-.79-.14.29-.28-.12-.44-.07.05.59,0,0,0,.63,0,0-.06,0-.06,0l-.12-.36c0-.18,0-.14,0-.27s0-.26-.09-.42c0,.21,0,.31-.08.23l.07.28c-.12.32-.11-.52-.23-.19l0-.2c-.06.12-.22,0-.28.49a.66.66,0,0,1,0-.28c-.15-.07-.33.52-.44.22v-.15s0,.28-.08.13a.81.81,0,0,0,0-.16s-.08.26-.11.18l0-.17c-.14-.2-.22.41-.34.51a.88.88,0,0,0-.17-.65v-.07c-.17,0-.29.37-.44.54-.1-.48-.32-.2-.48-.47a.82.82,0,0,1,0,.39c0-.09-.1.31-.09-.1h0c0-.4-.1-.29-.16-.3v.53c-.15-.77-.39.28-.47-.41,0,.13-.09.13-.12.26V57c-.1-.07-.15-.11-.28,0l0-.2c-.07,0-.09.81-.16.83v-.42c-.13,0-.25-.37-.37,0,0-.06,0-.19,0-.2s-.22-.29-.2.29c0-.38-.13,0-.19.13v-.28c-.06.36-.06.45-.14.55s0-.22,0-.15c-.06-.14,0,.27-.12.12l0-.18c-.06,0-.05.07-.09.28s-.12-.07-.13-.32c0,.15,0,.36-.08.28a.62.62,0,0,1,0-.18c-.11-.19-.16.33-.24,0a.54.54,0,0,0,0-.16c.09,0,.15,0,.15,0a2.72,2.72,0,0,1,0-.66c0,.19-.14.62-.21.49s0,0,0-.08v0s0,0,0,0,0-.08-.06-.08c0-.21-.08-.11-.11-.12a1.76,1.76,0,0,0,0,.46s0,0,0,0,0,0,0,0v0h.08c0,.14,0,.26-.09.1,0,.18,0,.37-.05.46,0-.4-.13-.61-.14-.85-.11.16-.25.1-.31.63,0,.07,0-.15-.05-.23s0-.05.05-.12c-.06.13-.18.05-.19.42-.08-.17,0-.34-.06-.28v-.11c-.2-.59-.32.94-.55.18a.28.28,0,0,1,0,.13c-.25-.33-.52.31-.78-.21-.07-.11-.07.12-.12.3v-.3l-.08.35c-.1.25-.18-.74-.31-.26v.2s-.15.12-.14-.11c0,0,0,.21,0,.11v-.16l-.11.27c-.09-.12,0-.63-.12-.66a1.45,1.45,0,0,0-.12.57s.05.09.05.25l-.05.09a4.16,4.16,0,0,0,.07,1.26l.08-.28,0,.22-.06,0c0,.21.06,0,.08-.11a.9.9,0,0,0,0,.25l.07-.44a1.61,1.61,0,0,0,0,.46c0-.21,0-.41,0-.54,0,.21,0,.38.07.2a.57.57,0,0,1,0,.25c0-.15.11-.06.13-.31,0,.26.13-.07.12.37a1.1,1.1,0,0,1,.11-.36c-.07.53.13,0,.11.6.05-.48.18-.22.26-.48,0,0,0,.12,0,.09s.06.18.09.27a3.21,3.21,0,0,1,.12-.72,5.58,5.58,0,0,1,0,.82c0-.31.1-.31.08-.58a2.12,2.12,0,0,1,.06.44c0-.49,0-.08.08-.38.07.24,0,.45.09.31A.7.7,0,0,1,59.77,59.86Zm1.7-.85h0Zm.14,0h-.06a.39.39,0,0,1,0-.19A1,1,0,0,0,61.61,59Zm-.3-1.95s0,0,0,.07l0,0v0A.61.61,0,0,1,61.31,57.06Z"/><path class="cls-2" d="M61.27,57.43s0,0,0,0,0,0,0,.06v-.09Z"/><path class="cls-2" d="M74.21,57.85h0v0Z"/><polygon class="cls-2" points="63.58 59.55 63.58 59.48 63.57 59.54 63.58 59.55"/><path class="cls-2" d="M75,58.81a.17.17,0,0,0,0,.07S75,58.84,75,58.81Z"/><path class="cls-2" d="M75.34,58.87l0,.1A.88.88,0,0,1,75.34,58.87Z"/><path class="cls-2" d="M75.6,59v-.12h0Z"/><path class="cls-2" d="M71.45,59.34s0,0,0,0S71.43,59.39,71.45,59.34Z"/><path class="cls-2" d="M72.68,58.69a.4.4,0,0,1,0,.13S72.68,58.85,72.68,58.69Z"/><polygon class="cls-2" points="70.07 59.68 70.07 59.68 70.06 59.68 70.07 59.68"/><path class="cls-2" d="M72.58,58.81c0,.06,0,0,.06,0S72.6,58.77,72.58,58.81Z"/><path class="cls-2" d="M76.73,59.14h0v0Z"/><path class="cls-2" d="M76.74,59.11l0,0S76.75,59.08,76.74,59.11Z"/><path class="cls-2" d="M76.79,59l0,.07S76.78,59.08,76.79,59Z"/><path class="cls-2" d="M76.38,59v0Z"/><path class="cls-2" d="M76.28,59s.06.22.1.15v-.08C76.36,59.26,76.3,58.87,76.28,59Z"/><path class="cls-2" d="M75.84,57.78l.09.08c0-.11,0-.25,0-.28C75.82,57.26,76,57.82,75.84,57.78Z"/><path class="cls-2" d="M75.57,57.62c.05,0,0-.16,0-.22A.24.24,0,0,0,75.57,57.62Z"/><path class="cls-2" d="M73.6,57.62v-.25S73.6,57.46,73.6,57.62Z"/><polygon class="cls-2" points="73.22 58.94 73.25 59.1 73.27 58.87 73.22 58.94"/><polygon class="cls-2" points="73 57.12 73.01 57.08 72.95 57.18 73 57.12"/><path class="cls-2" d="M69.68,57.21v.32C69.72,57.47,69.72,57.12,69.68,57.21Z"/><path class="cls-2" d="M68.25,57.53c0-.15,0-.26-.08-.1S68.23,57.57,68.25,57.53Z"/><polygon class="cls-2" points="63.96 57.02 63.99 56.91 63.94 57 63.96 57.02"/><path class="cls-2" d="M77.05,64.65c0-.08,0-.28,0-.24l0,.33Z"/><path class="cls-2" d="M76.87,64a2.65,2.65,0,0,0-.05.75c0-.32,0-.19.07-.57,0,0,0,.11,0,.23,0-.08,0,.08,0-.13s-.08-.27-.13-.06A.79.79,0,0,1,76.87,64Z"/><path class="cls-2" d="M74.19,63.53l0,0S74.2,63.53,74.19,63.53Z"/><path class="cls-2" d="M72.53,63.34s0,0,0-.07A.19.19,0,0,0,72.53,63.34Z"/><path class="cls-2" d="M72.25,63l0,0S72.25,63,72.25,63Z"/><path class="cls-2" d="M74.19,63.53l0-.11C74.14,63.53,74.17,63.5,74.19,63.53Z"/><path class="cls-2" d="M76.5,64.84a.64.64,0,0,0,0-.09s0,0,0,0Z"/><path class="cls-2" d="M74.92,63.26h0a.71.71,0,0,1,0-.14Z"/><path class="cls-2" d="M75.48,63.21s0,.27,0,.39a.68.68,0,0,1,0-.19A1.48,1.48,0,0,0,75.48,63.21Z"/><path class="cls-2" d="M76.37,63.7l0,0S76.38,63.69,76.37,63.7Z"/><path class="cls-2" d="M74.52,63.2v0Z"/><path class="cls-2" d="M58.83,65.31v0Z"/><path class="cls-2" d="M58.18,63.92v0Z"/><path class="cls-2" d="M71.73,62.62h0S71.74,62.6,71.73,62.62Z"/><path class="cls-2" d="M67,62.83c0,.25-.09.32,0,.6A2.36,2.36,0,0,0,67,62.83Z"/><path class="cls-2" d="M76.48,64.8s0,0,0,0S76.48,64.81,76.48,64.8Z"/><path class="cls-2" d="M67,63.43h0v0Z"/><path class="cls-2" d="M70.54,62.79c0,.05,0,.09,0,.12A.62.62,0,0,0,70.54,62.79Z"/><path class="cls-2" d="M71.43,63.19l0,0S71.42,63.18,71.43,63.19Z"/><path class="cls-2" d="M70.08,63.18s0-.06,0,0v0S70.06,63.14,70.08,63.18Z"/><path class="cls-2" d="M69.6,63.19a.09.09,0,0,0,0,.05h0Z"/><path class="cls-2" d="M60.29,65.17c0-.08,0-.16,0-.25C60.28,65.12,60.21,65.19,60.29,65.17Z"/><path class="cls-2" d="M76.5,64.68a.44.44,0,0,1,0,.12h0Z"/><path class="cls-2" d="M70.06,65.4l-.08,0A.09.09,0,0,0,70.06,65.4Z"/><path class="cls-2" d="M63.74,65.13l0,0S63.74,65.17,63.74,65.13Z"/><path class="cls-2" d="M69.75,65.4a.54.54,0,0,0,0-.19s0,0,0,.07Z"/><path class="cls-2" d="M60.27,64.92Z"/><path class="cls-2" d="M59.77,65.59c.07,0,0-.37,0-.58s0,.27.07.46c0-.09.09-.43.13-.42a.4.4,0,0,1,0,.16c0-.29.17,0,.23-.38a.28.28,0,0,1,0,.09c0-.19,0-.38,0-.51s.06-.23.07,0c0,0,0,.09,0,.16l0-.1c0,.35-.05.12-.05.38.07-.12.14-.4.2-.31,0,.34-.12.12-.06.42l-.07-.13c.06.54,0,0,0,.54.11.1.12-.18.22-.08,0-.19,0-.28,0-.46.15-.34.11.85.22.4,0-.23,0-.66.12-.43l0,.38c.1,0,.06-.55.17-.29S61,65,61,65.07c.07.3.05-.22.1-.22v.34c.11,0,.23-.3.35-.36a.81.81,0,0,0,0,.31c.15-.17.32,0,.46.25l.06-.3a.54.54,0,0,1,0,.19c0,.11,0-.18,0-.3s0,.17,0,.26c.1-.25.28-.54.39-.22l0,.08c.08.12.09-.6.16-.32v0c.18.13.37-.14.51.3,0-.42.17.19.18-.4.1.29.07.4.22.59,0,0,.05-.37.1-.43v.31l.07-.32,0,.37,0-.08a.9.9,0,0,1,0-.23c.07-.14.17.21.17.37l.16-.26a.73.73,0,0,1,0,.25c.09-.32,0,.32.09,0a1.85,1.85,0,0,1,0-.24c0,.18.13.19.2.11v.21c.12,0,.25-.1.39-.1a.93.93,0,0,1,0-.5v.33c0-.21,0-.13,0-.37.06,0,0,.37,0,.47l.06-.11c0,.1,0,.15,0,.27,0-.2.1.33.14,0v.09c.14,0,.2-.11.31-.12,0-.28,0-.22.08-.45.08.09.17.31.27.29s0-.24,0-.41c0,.26.1.24,0,.42.12,0,.15,0,.3-.26a.69.69,0,0,1,0-.24s.06.11.06.23v0c.17-.38.39.75.52.21v0l.14-.28c.06,0,0,.19,0,.35.15-.43.23.06.36-.22.09.75.33,0,.46.43V65.3c0-.17,0,.1.06.14,0-.14,0-.16,0-.25.28-.22.58.26.86.42.11,0,.06-.92.19-.5l0,.33c.21-.39.43,0,.64-.32,0,.08,0,.17,0,.17,0,.24.16,0,.16-.18,0,0,0,.18,0,.28s.11-.31.14-.07a.41.41,0,0,1,0,.09c0-.11.13,0,.1-.24.08.13.15-.13.21,0,0-.31.13.15.15-.29,0,.45.13.36.18.15,0,.14,0,.14,0,.33.05,0,.1-.09.09-.32.11.54.21-.44.27.26a2.05,2.05,0,0,1,.47-.52c0,.46-.17.05-.16.52.14-.18.22-.57.36-.46s0,.19,0,.27c.14-.18.28,0,.4-.2a.5.5,0,0,1,0,.12s0,.07,0-.14l0,.06a3.45,3.45,0,0,1,.1-.78c0,.58.12.14.06.89a1.2,1.2,0,0,0,0-.28.54.54,0,0,1,0,.28c.09-.11.06-.33.14-.32s0,.13,0,.25c0-.19.08-.39.15-.3s0,.13,0,.13c.12,0,.2-.51.33-.33,0,.44,0,.15,0,.52l.07-.11,0-.18c.06,0,.11-.27.16-.15l0,.16.11-.07-.06-.15c.06-.19,0-.47.07-.36s.06,0,.09.22h0c0-.12.06-.24.11-.15s0,.41,0,.49c0-.31.14-.08.17-.42a1.7,1.7,0,0,0,0,.32l0-.26a.72.72,0,0,1,0,.28c.08,0,0-.47.07-.27,0,0,0,.06,0,.1s.2-.16.29,0c0,.38-.08.09,0,.41.13-.07.27-.45.4-.36l0,0c0-.53.09.26.16,0a1.43,1.43,0,0,0,0,.24c.09.08.18-.14.32-.3l0,.13c0,.13.14.07.19.14a.75.75,0,0,0,0-.32c.18.78.33-.41.49.23,0,0,0,.12,0,.12l.13-.12a2.13,2.13,0,0,0,0-.32c0-.14,0-.24.08-.24a.94.94,0,0,0,0,.5,1.62,1.62,0,0,1,0-.22c.07.41,0-.47.1-.19v.12c0-.06.07-.22.1-.19,0,.27,0,.13,0,.35,0,0,.1-.51.15-.24,0,.07-.06.07-.08.15.05.31.06.23.1.28h0l.09.14,0-.08c.07-.7.14-.13.22-.58-.08.43,0,.25,0,.55a.6.6,0,0,1,.05.26c0-.24.07.19.13-.16,0,.09,0,0,0,.25.05-.08,0-.17,0-.29.08-.33.2.4.32-.05.1-.19.12-.52.22-.68a.88.88,0,0,1,0,.35c.06.14.1.12.15,0a1.19,1.19,0,0,0,0,.26s0-.35.08-.21,0,.28,0,.39c0-.09.1-.27.14-.36a1.26,1.26,0,0,1,0,.37.64.64,0,0,0,.16-.42l0-.1a.85.85,0,0,1,0,.28c0,.21-.07-.09-.07-.19l0-.06c0-.57-.14.09-.21.06l0-.42-.07.35a.93.93,0,0,1,0-.41c0-.2,0,.15-.09-.08V63.7l-.05.12c0-.08,0-.29,0-.23-.08-.24-.14.31-.17,0v0c-.13.14,0,.31-.11.67L76,63.47v.31s0,0,0-.16c0,.21,0,.14,0,.33-.06-.28-.17.13-.18-.35,0,.23,0,.18,0,.34,0-.53-.08.09-.13-.15s.07-.13,0-.37c0,.45-.1-.1-.15,0,0,.36-.1.15-.18.27,0-.12-.15-.2-.22-.33v-.06c0,.36-.09.29-.15.37a1.43,1.43,0,0,1,0-.4h0a.43.43,0,0,1-.07.22l0-.28c-.07,0-.14.33-.23.14a3.22,3.22,0,0,1,0,.89,1.88,1.88,0,0,1,0-.43s0,.11,0,.05l0-.23c0-.1,0,.19-.06.17,0-.2,0-.14,0-.3s0,.09,0,0a.62.62,0,0,1-.09-.3.72.72,0,0,1,0,.29c-.06,0,0-.24-.06-.34,0,.14-.06,0-.06.29,0,0,0-.14,0-.22,0,.13-.17,0-.13.35v0h0c-.11.3-.24-.16-.35,0v-.09c-.07.11-.16.06-.21.27a.77.77,0,0,1,0-.29c0,.07,0,.18-.13,0s0-.15,0-.13-.08-.24-.15,0c0-.25,0-.32-.09-.24l0,.18s-.07,0-.1,0l0-.33c-.14-.41-.26.69-.36,0,0,.23.07.16,0,.43-.06,0-.13-.52-.15-.52-.09-.18-.08.49-.18.36a1.14,1.14,0,0,1,0,.55,1.06,1.06,0,0,1,0-.59s0,0,0,.06a.27.27,0,0,0,0-.22v.12c0-.12-.12-.11-.1-.3a.27.27,0,0,0,0,.25c-.08-.17-.13,0-.21-.12a.83.83,0,0,1,0,.21c-.13-.15-.06.22-.14.27,0-.18,0-.43-.07-.28a.81.81,0,0,1,0-.41c-.08.23-.14-.15-.19-.19l0-.1c0,.06,0,.06-.06.06l0,.23a.19.19,0,0,1,0-.14c0,.16,0,.4,0,.61,0-.12-.1.13-.11-.18.1.1,0-.32.07-.37s0,0-.06,0,0-.06,0-.08c-.09-.28,0,.36-.14.35,0-.18,0-.34,0-.3s0,.3,0,.43c-.06-.14-.07.1-.1.09l0,.06c0,.18,0,.16-.09.21,0-.14,0-.09,0-.15-.05.31-.11-.33-.18-.12,0-.12,0-.33,0-.41-.08.23-.09-.24-.17-.05a.64.64,0,0,1,0,.41l.14-.17-.09.35s.09-.15.11-.11a.61.61,0,0,0,0,.33c0-.36-.11.21-.17,0v-.59c-.09-.27-.17.3-.29.15l0,.11c0,.23-.08,0-.12.12a1.87,1.87,0,0,0,0-.39c0,.15-.09,0-.1.38L70.39,63c-.1-.1-.11.56-.21.5a2.37,2.37,0,0,1,0-.51s-.06,0-.06.1c0-.13-.09.26-.12.08,0,.08,0,.29,0,.27a.24.24,0,0,1,0-.09.94.94,0,0,0,0,.35c-.1-.62-.28,0-.36-.49a.78.78,0,0,1-.22.15c0-.06,0-.1,0-.08-.09-.18-.06.57-.16.36s.06-.17,0-.29c0-.65-.12.09-.18-.29v0c0-.22-.12.24-.21.2a.31.31,0,0,0,0-.1.91.91,0,0,1-.25.53,1,1,0,0,0,0-.39s0,.42-.06.49a3.16,3.16,0,0,1-.08-.54h.07c0-.36-.09,0-.13,0V63c-.11,0-.11.44-.22.42v.11c-.06.39,0-.21-.11.07l0-.39a2.15,2.15,0,0,1-.22.46,3,3,0,0,1,.18-.62s-.13,0-.16.22c0,0,0-.13.06-.07,0,.31-.12.46-.2.46,0-.77-.21-.2-.27-.79-.14.28-.28-.12-.44-.08.05.6,0,0,0,.63,0,0-.06,0-.06,0l-.12-.36c0-.18,0-.14,0-.28s0-.26-.09-.42c0,.22,0,.31-.08.23l.07.28c-.12.33-.11-.51-.23-.19l0-.19c-.06.11-.22,0-.28.49a.66.66,0,0,1,0-.28c-.15-.08-.33.52-.44.22v-.15s0,.28-.08.13a.79.79,0,0,0,0-.16s-.08.26-.11.17l0-.16c-.14-.2-.22.4-.34.51a.92.92,0,0,0-.17-.66v-.06c-.17,0-.29.37-.44.54-.1-.48-.32-.2-.48-.47a.83.83,0,0,1,0,.39c0-.09-.1.3-.09-.1h0c0-.4-.1-.29-.16-.3v.52c-.15-.76-.39.29-.47-.4,0,.13-.09.13-.12.26v-.28c-.1-.08-.15-.11-.28,0l0-.21c-.07,0-.09.82-.16.84v-.43c-.13,0-.25-.36-.37,0a.56.56,0,0,1,0-.2c-.06,0-.22-.28-.2.3,0-.38-.13,0-.19.13v-.28c-.06.35-.06.45-.14.55s0-.22,0-.15c-.06-.15,0,.26-.12.11l0-.18c-.06,0-.05.08-.09.29s-.12-.07-.13-.33c0,.16,0,.36-.08.29a.62.62,0,0,1,0-.18c-.11-.19-.16.32-.24,0a.67.67,0,0,0,0-.17c.09,0,.15,0,.15,0a2.63,2.63,0,0,1,0-.65c0,.19-.14.61-.21.49s0,0,0-.09v0s0,0,0,0,0-.07-.06-.07c0-.22-.08-.12-.11-.13a1.84,1.84,0,0,0,0,.47s0,0,0-.05v0l.08,0c0,.14,0,.26-.09.11,0,.18,0,.36-.05.45,0-.39-.13-.6-.14-.84-.11.15-.25.1-.31.63,0,.07,0-.15-.05-.24s0,0,.05-.12c-.06.14-.18.06-.19.42-.08-.16,0-.33-.06-.27v-.12c-.2-.59-.32.94-.55.19a.25.25,0,0,1,0,.13c-.25-.34-.52.31-.78-.22-.07-.11-.07.13-.12.31v-.3l-.08.35c-.1.25-.18-.75-.31-.26v.2s-.15.12-.14-.11c0,0,0,.21,0,.1v-.16l-.11.27c-.09-.11,0-.62-.12-.65a1.44,1.44,0,0,0-.12.56s.05.1.05.26l-.05.08a4.23,4.23,0,0,0,.07,1.27l.08-.29,0,.23H58.3c0,.22.06,0,.08-.1a1,1,0,0,0,0,.25l.07-.45a1.66,1.66,0,0,0,0,.47c0-.21,0-.41,0-.55,0,.21,0,.39.07.21a.52.52,0,0,1,0,.24c0-.14.11-.06.13-.3,0,.26.13-.07.12.37a1.09,1.09,0,0,1,.11-.37c-.07.53.13,0,.11.6.05-.47.18-.21.26-.47,0,0,0,.11,0,.09s.06.18.09.27a3.21,3.21,0,0,1,.12-.72,5.59,5.59,0,0,1,0,.82c0-.32.1-.32.08-.58a1.93,1.93,0,0,1,.06.44c0-.49,0-.09.08-.39.07.24,0,.46.09.31A.76.76,0,0,1,59.77,65.59Zm1.7-.85h0l0,0Zm.14,0h-.06a.43.43,0,0,1,0-.19A.84.84,0,0,0,61.61,64.73Zm-.3-1.94s0,0,0,.07l0,0v0A.53.53,0,0,1,61.31,62.79Z"/><path class="cls-2" d="M61.27,63.15a0,0,0,0,0,0,0s0,0,0,.06v-.09Z"/><path class="cls-2" d="M74.21,63.57h0v0Z"/><polygon class="cls-2" points="63.58 65.27 63.58 65.2 63.57 65.26 63.58 65.27"/><path class="cls-2" d="M75,64.54a.17.17,0,0,0,0,.07S75,64.56,75,64.54Z"/><path class="cls-2" d="M75.34,64.6l0,.1Z"/><path class="cls-2" d="M75.6,64.74v-.12h0Z"/><path class="cls-2" d="M71.45,65.07s0,0,0,0S71.43,65.11,71.45,65.07Z"/><path class="cls-2" d="M72.68,64.41a.4.4,0,0,1,0,.13S72.68,64.57,72.68,64.41Z"/><polygon class="cls-2" points="70.07 65.41 70.07 65.4 70.06 65.4 70.07 65.41"/><path class="cls-2" d="M72.58,64.54c0,.06,0,0,.06,0S72.6,64.5,72.58,64.54Z"/><path class="cls-2" d="M76.73,64.87h0v0Z"/><path class="cls-2" d="M76.74,64.83l0,0S76.75,64.8,76.74,64.83Z"/><path class="cls-2" d="M76.79,64.73l0,.07S76.78,64.81,76.79,64.73Z"/><path class="cls-2" d="M76.38,64.74v0Z"/><path class="cls-2" d="M76.28,64.77s.06.21.1.15v-.08C76.36,65,76.3,64.59,76.28,64.77Z"/><path class="cls-2" d="M75.84,63.51l.09.08c0-.11,0-.26,0-.28C75.82,63,76,63.55,75.84,63.51Z"/><path class="cls-2" d="M75.57,63.35c.05-.05,0-.16,0-.22A.24.24,0,0,0,75.57,63.35Z"/><path class="cls-2" d="M73.6,63.35v-.26S73.6,63.19,73.6,63.35Z"/><polygon class="cls-2" points="73.22 64.67 73.25 64.83 73.27 64.59 73.22 64.67"/><polygon class="cls-2" points="73 62.85 73.01 62.81 72.95 62.9 73 62.85"/><path class="cls-2" d="M69.68,62.94v.31S69.72,62.84,69.68,62.94Z"/><path class="cls-2" d="M68.25,63.26c0-.16,0-.26-.08-.11S68.23,63.3,68.25,63.26Z"/><polygon class="cls-2" points="63.96 62.75 63.99 62.64 63.94 62.73 63.96 62.75"/></g></g></svg>