<svg xmlns="http://www.w3.org/2000/svg" viewBox="0 0 76.13 125.1"><defs><style>.cls-1{fill:#9fc4e8;}.cls-2{fill:#ee7d00;}</style></defs><title>Element 195</title><g id="Ebene_2" data-name="Ebene 2"><g id="Ebene_2-2" data-name="Ebene 2"><path class="cls-1" d="M35.72,125c.09.14.29.07.25-.32l-.34-.28Z"/><path class="cls-1" d="M36.35,122.42c-.16-.46-.45-1-.76-.69.32.45.19.56.57,1,0,.39-.11.68-.23.61.09.14-.07.61.14.82a2.37,2.37,0,0,0,0-1.82C36.2,122.25,36.29,122.39,36.35,122.42Z"/><path class="cls-1" d="M12.15,105.11l0,.23A.66.66,0,0,0,12.15,105.11Z"/><path class="cls-1" d="M9.21,84.7c.22.07.31.1.34.07C9.34,84.69,9.17,84.66,9.21,84.7Z"/><path class="cls-1" d="M5.13,83.75l.23,0A.35.35,0,0,0,5.13,83.75Z"/><path class="cls-1" d="M12.15,105.11a5.9,5.9,0,0,1-.06-.59C12,104.51,12.07,104.83,12.15,105.11Z"/><path class="cls-1" d="M35.53,117.18a1.53,1.53,0,0,0,.09.34l0-.32Z"/><path class="cls-1" d="M20,109.42h.19a.7.7,0,0,0,.16-.14Z"/><path class="cls-1" d="M28,109.37c-.18,0-.25.27-.32.4a.67.67,0,0,1,.4-.2A.35.35,0,0,0,28,109.37Z"/><path class="cls-1" d="M36.7,115.39l0,.23Z"/><path class="cls-1" d="M15,108.21a.17.17,0,0,0,0-.12A.16.16,0,0,0,15,108.21Z"/><path class="cls-1" d="M61.5,115.66h0S61.5,115.72,61.5,115.66Z"/><path class="cls-1" d="M59.67,124.85v-.13l-.16,0Z"/><path class="cls-1" d="M2.86,81.2v0C2.85,81.43,2.86,81.32,2.86,81.2Z"/><path class="cls-1" d="M34.22,30.29c-.76-.15,1.17-.5,0-.62C34.36,29.76,33.29,30.26,34.22,30.29Z"/><path class="cls-1" d="M35.57,117v-.32A1.68,1.68,0,0,0,35.57,117Z"/><path class="cls-1" d="M34.25,29.67h-.12Z"/><path class="cls-1" d="M5,64.26a.59.59,0,0,0-.13.17S4.91,64.39,5,64.26Z"/><path class="cls-1" d="M2.92,76.84,3,76.53A2.86,2.86,0,0,0,2.92,76.84Z"/><path class="cls-1" d="M5.43,57.89a1.06,1.06,0,0,0,.1-.44l0,.06A.5.5,0,0,1,5.43,57.89Z"/><path class="cls-1" d="M7.31,51.47l-.1.1,0,.2Z"/><path class="cls-1" d="M67.61,96.73a1.42,1.42,0,0,1-.38.16C67.46,96.89,67.07,97.81,67.61,96.73Z"/><path class="cls-1" d="M35.69,117.18a.26.26,0,0,1-.12-.21l0,.23S35.67,117.22,35.69,117.18Z"/><path class="cls-1" d="M3.26,57.14c.08-.37.21-.72.31-1.08A7.44,7.44,0,0,0,3.26,57.14Z"/><path class="cls-1" d="M72.83,49.22l.14.22A.49.49,0,0,0,72.83,49.22Z"/><path class="cls-1" d="M4.43,52.85a2.55,2.55,0,0,0,.4-.53.66.66,0,0,0,0-.15Z"/><path class="cls-1" d="M67.23,96.89Z"/><path class="cls-1" d="M64.71,103.53c.42-.92-.14-.59-.25-.88.44-1.14.5-.39.85-.68a15.57,15.57,0,0,1,.45-1.91c.07,0,.14-.1.15,0C66,99.26,67,98,67.09,97a.27.27,0,0,1,.14-.06.62.62,0,0,1-.53-.11c.2-.42.19-.87.49-.91-.14.24-.06.31-.06.46l.14-.47c.52-.22-.21.64,0,.76a13.29,13.29,0,0,1,1-2.59c.37,0-.7,1.55,0,.84l-.64.93c.88-.5-.36.58.53.16.78-1.25.62-1.53,1.4-2.78,0-.38-.3,0-.32-.42.7-2,1.56-1,1.89-2.6,0-.46-.33-.8.4-1.65l.17.52c.72-1.24-.11-1,.85-2.17,0,.3-.43,1-.28.88.74-.7.14-.71.5-1.36l.38,0c.34-.68.67-1.41,1-2.16l.5-1.14.14-.29.17-.36a1.5,1.5,0,0,0,.17-.93c.1.13.19.64.32,0A37.82,37.82,0,0,1,76.09,75l-.27-.79c0-.18.15-.34.2-.14.15-.79-.19,0-.29-.43s.2-.6.28-.31a17.56,17.56,0,0,1,0-5.51l.07.29c.18-1.15-.55-1.32-.22-2.39l0,.21a23.16,23.16,0,0,0-.06-3.9l0-.95-.09-.89a11.44,11.44,0,0,1,0-1.64c-.25-.15-.27-.8-.38-1.4s-.27-1.17-.58-1.18c0-.74,0-1,0-1.38a5.92,5.92,0,0,0-.29-1.79c-.17-.54-.64-.66-.94-1.28l.29-.13-.63-.75c.07-.21.1-.4.15-.6L73,49.44c.1.24.11.55,0,.55a4.46,4.46,0,0,1-.73-2.4,21,21,0,0,0-1.42-1.94c.13,0,.38.29.61.53-.94-.93.17-.38-.7-1.23,0,.18-.2,0-.27,0a4.18,4.18,0,0,0-.56-1.18,14,14,0,0,0-1-1.25l.29,0a34.72,34.72,0,0,0-3.82-4.29c.43.58,0,.71-.39.34l.07-.39c-.42-.11.36.49-.39.16-.51-.52-.1-.61.29-.4l-.75-.53c0-.11.22,0,.35-.06-.41-.09-.94-1.31-1.58-1.39l0-.11c-.8-.61-1.4-1-2-1.41s-1.08-.74-1.79-1.14c-.18.23-.69-.15-1.22-.2-.49-.34-1-.77-1.53-1.11a18.13,18.13,0,0,0-1.81-1c-1-.3-.36.1-.84.06.06-.31-1.3-.78-.53-.69-.82-.28-1.34-.46-1.92-.63a12,12,0,0,0-2.3-.52c.2.16.44.27.29.33-.39-.06-.83-.33-.75-.44h.11a8.91,8.91,0,0,1-1.88-.43l-2-.55c-.65-.18-1.3-.37-1.9-.48a5.15,5.15,0,0,0-1.68.06l.11,0-2,.19c-.92-.08.55-.18-.13-.37a13.78,13.78,0,0,1-2.72.23,8.7,8.7,0,0,0-2.45.22,6.67,6.67,0,0,0-3.24.15,18.78,18.78,0,0,1-3.53.79l.16.14c-.41.33-.59.09-1,.17.1.12.56,0,.3.18A42.38,42.38,0,0,0,15.6,35.33c-1.19,1-.07,1.24-1.74,2.29L14,37c-1.91,2.48-4.24,4.8-5.54,7.59,0-.19-.05-.25.11-.5a3.44,3.44,0,0,0-1,2.17c-.24.4-.21,0-.44.22a3.05,3.05,0,0,0-.45,1c-.09.36-.17.68-.35.79s0-.2,0-.32c-.06.44-.81,1.79-.39,1.53-.61,1-.68,2.06-1.13,2.86.09.65-.78,1.79-.37,2.11C4,54.22,3.6,56.26,3.63,57c-.09-.26-.26.59-.39.27-.15.81-.2,1.56.06,1.47-.85,1.39-.06,3-.82,3.81,0,.6,0,1.19,0,1.76l.05.84,0,.4a2.57,2.57,0,0,0,0,.31V66l0,.23,0,.44-.07.85c0,.57-.1,1.11-.14,1.65-.45-.15.3-2.33-.2-2.32a29.85,29.85,0,0,1-.29,5.2c-.14.5-.15-.32-.21-.51-.1,2-.61,3.85-.63,5.66,0,0-.05-.21-.06-.39,0,.35-.19.8,0,.79v-.35c.38-.51.42,1.48.57,1.57-.51-.68-.41,1.73-1,.68,0,.23.06.54.21.5-.1.34-.19.44-.3.07-.07,1.26.21.85,0,2-.1,0-.1-.26-.2-.39l.07.46a2.67,2.67,0,0,1,0,.56A9,9,0,0,1,.2,84.43c-.06,0-.17.18-.1-.26L0,85c.55,0,1.08.07,1.57.08s1,0,1.28,0A9.23,9.23,0,0,1,5,85.33c-.59.37.59.22.64.62h1l-.37-.24a8.61,8.61,0,0,0,1.23,0h.58l.3,0a.73.73,0,0,1,.19.07c-.16,0-.27.07-.59.09h.41a1.24,1.24,0,0,1,.27,0,2.07,2.07,0,0,1,.51.22,1.68,1.68,0,0,0-.54-.41c.34,0,.39-.1.43-.17s.12-.12.52.23c-.1-.05.06.07.22.29a1,1,0,0,1,.24.76h0a1.48,1.48,0,0,1,.27,1.33c-.12.17-.42-.13-.5,0,.32.42.09,2,.43,2.55-.08-.18-.28-.19-.32-.13l.26.35c-.09.4-.13.46-.29.39,0,1,.32.09.33.56l0,1.19.65-1,.32-.37c0,.11,0,.09-.08.3.3-.37.57-.75.82-1.13l-1-.32a20,20,0,0,1,0,2.68c-.39.38-.08-1.15-.41-.71,0,1.89.41,3.92.29,5.76l.05-.35c.54.26-.29,1.37-.05,2.29,0-.22-.29-.3-.23-.23a12.17,12.17,0,0,0,0,2,11.09,11.09,0,0,0,.42,2.56,1.24,1.24,0,0,1-.18-.22,6.68,6.68,0,0,0,1,2.81c.24.15.55.53.52.18a4.34,4.34,0,0,0,2.78,2.49c1.17.42,2.3.54,3.45.89-.27,0-.68.09-.45.11.71,0,1.28-.07,1.91-.1-.14-.24-.24-.15-.63-.33a2.82,2.82,0,0,1,1.22-.25c-.84.16,0,.38.37.51-.06-.07.06-.15,0-.23,1,.43.16-.47,1.49-.19l-.07.13a7.23,7.23,0,0,1,1.49-.2c.22.28-.53.13-.56.36.75,0,1.48-.52,2.16-.25-.32.08-.78.08-1.1.15a3,3,0,0,0,1.38.3h-.05l1.27.14-.32-.08c.94-.72,1.91-.13,3.18-.6-1.23.44-.2.25-.3.57.33.08.82.18.68.26.6-.25,1,.2,1.85-.16,0,.1.64,0,.5.26.78-.08-.18-.18-.12-.3a3.17,3.17,0,0,1,1.87.09,3.77,3.77,0,0,1,1.25,1.15,2.86,2.86,0,0,1,.23.75c.06.26.13.47.19.69a7.53,7.53,0,0,1,.34,1.53c-.16.47-.36-.38-.36-.38a5.33,5.33,0,0,0,0,2c-.09-.15-.16,0-.27.22,0,.57.36.38.21,1.13a1.86,1.86,0,0,1-.4-.57c.09.67.28,1.33.37,2-.17.18-.26-.42-.38-.67.08.79.16,2,.44,2.27l.09-.5c0,.28-.23.14-.28-.07-.22-.67.09-1,.19-1l.07.5c.58-.51-.1-2-.06-3l.42.42-.35-1c.11-.22.35-.37.41.12.21-.71-.15-.63.09-1.24,0-.07,0,0,.07,0l-.13-.69c.09.13.3-.12.24.31.25-1.26-.32-2,0-2.5l0,.11c-.12-1-.37-1-.42-.94s-.17.11-.63-.3a2.49,2.49,0,0,0-.12-1.19,2.11,2.11,0,0,0-.34.16c-.15-.12-.51-.28-.4-.37-.77,0,.07.15-.38.24A3,3,0,0,0,33,110c-.51,0-.94,0-1-.26-.31.24.83.18-.09.35-.26-.54-1.07.09-1.85-.16.24-.27,1-.13.2-.37-.48.46-1.54-.11-2.2,0,0,.38-1.45.16-2.56.28a31.1,31.1,0,0,0-3.14-.34l0-.06c-.2.38-1.27.31-2.05.38,0-.22.17-.31.59-.41h-.73a1.7,1.7,0,0,1-.87.23l.18-.28c-.51,0-1,.08-1.43.1a3.11,3.11,0,0,1-1.53-.34c-.17.21.73,1-.61.74,0-.15.05-.39.39-.33a1.13,1.13,0,0,1-.6-.17,5.12,5.12,0,0,0,.56,0c-.47-.28-.33.07-.73-.12.09-.18-.23-.27-.1-.39.1,0,.3.24.48.23a2.11,2.11,0,0,1-.93-.85c0,.12-.14.23-.45,0-.71-.55-.08-.38-.4-.78-.25-.06-.53-.55-.76-.38-.16-.21-.08-.33-.07-.46a3.68,3.68,0,0,1-.69-.94c-.21-.35-.34-.62-.41-.31l0,.12,0-.07h0a3.7,3.7,0,0,1-.52-2.33,18,18,0,0,0,.11-2.53h.1a20.74,20.74,0,0,0-.25-2.88c0-.29.2-.68.32-.55a4.88,4.88,0,0,1,0-1.92c.16.76.16-.25.12.78a4.71,4.71,0,0,0,0-2.24c.25.36.33-.73.26-1.19l-.19.68a11.29,11.29,0,0,1,0-1.44l.33.25a4.73,4.73,0,0,0,.1-1.39L12.37,87l-1.81,3c-.29.48-.51,1-.74,1.43l1.63.52a3.48,3.48,0,0,1,.14-2.12c-.24-.53-.17,1.08-.45.61a13.89,13.89,0,0,1,.54-2.16,2.26,2.26,0,0,0,0-.74,2.09,2.09,0,0,0-.24-.68c-.24-.38-.45-.72-1-1.41,0,.12,0,.26-.12.28s-.35-.12-.83-.36a3,3,0,0,1-.78-.61c-.08-.15.05-.29.44-.22s.39.2.36.23c.36.12.81.43.49,0l-.2,0a2.7,2.7,0,0,0-1.24-.57c-.11,0-.25,0-.3-.06l-.09,0c-.08,0-.1-.08,0-.12-.35,0-.43,0-.36.1a.63.63,0,0,0,.2.09l.27.08A3,3,0,0,0,8,84.2l-.37-.07L6.88,84a11.53,11.53,0,0,1-1.52-.23c.19.09.35.25.16.23-1.75-.37-.81.13-2,0-.33-.13-.25-.23-.25-.3s0-.06-.1-.08l-.21,0a1.1,1.1,0,0,0-.27,0c-.32-.17.08-.32.13-.41-.19.1-.4,0-.41-.07a2.53,2.53,0,0,1,.23-.3.12.12,0,0,0,.1,0c-.06,0,0,0,0-.07a1.06,1.06,0,0,0-.26.1c.06-.1.07-.16.17-.14-.11-.34-.44.21-.56-.5.19-.43.08-1.39.42-1.5-.32,1.4.34-.11.21,1.1a2.93,2.93,0,0,1,.14-.85s.06,0,.06.15c.49-1.31-.27-.68,0-2.08.15.21.39-.27.38-.51-.09.57-.34.23-.4-.31.28-.88,0-1,.13-1.46l-.15.53c-.15-.21-.06-.66,0-1.29.15,0,0,.58.1.36-.21-.74.57-1.52.5-2.52.19-.43.34,0,.48-.38-.07-1.12.42-1.14.4-2.31-.29.29-.24.36-.35-.48l-.11,1.9-.18-1.26c-.08.57,0,1.22-.11,1.56-.12-.61-.06-.54-.31-.3.48-.72,0-1.57.4-2.43l.59.12c.47-1.32,0-2.43.47-4.19l-.19.56c-.1-.15-.08-.33,0-.72a7.33,7.33,0,0,0,0-1c.2.06.28-.29.42-.52-.16,0,.08-1.26-.31-1.45l.34-.74c.25-1.37-.38-1.66-.06-3,.14.44.39-.14.39.77.08-.44.19-.83,0-.86.17-.23,0-1.28.22-1.65-.05-.21-.23-.31-.09-.8a.06.06,0,0,1,.1,0c-.1,0,.07-.8-.26-.42a7.33,7.33,0,0,0,1-2.47,6.41,6.41,0,0,1,1-2.27c.29-1,.74-2,1.07-2.88,0,.08.09.05,0,.19.66-1-.19-.93.65-2.09.63-.48-.2.74.12.4.7.16.67-1.57,1.57-2.13l-.09.21c.59-.46.7-1.62,1.45-2.54,0,0,0,.08.08.07a6.47,6.47,0,0,1,.7-1.49l.51-.82.56-.72c0,.44-.25.47.1.49.32-.39-.42-.17.22-1,.34-.15.93-.6,1.19-.46l-.64.7c.61-.09.81-.93,1.25-1.2l.06.16c1.06-1,.78-1.35,2-2.31h-.2c.45-.83.72-.25,1.24-1l.44.18a14.51,14.51,0,0,1,2.29-2A23.52,23.52,0,0,1,20,35.2c.43-.35,1.59-1,1.74-1.34a1.83,1.83,0,0,1-.6.44,5.12,5.12,0,0,1,.85-.92c.18-.15.38-.3.59-.45s.46-.24.72-.36c.08.39.76.13,1.55-.21a3.87,3.87,0,0,1,2.19-.49,10.2,10.2,0,0,1,1.35-.59A13.48,13.48,0,0,1,29.87,31l1.52-.27c.52-.09,1.07-.12,1.63-.22-.89-.49.66-.11.44-.71a2,2,0,0,1,.78-.11,15.89,15.89,0,0,1,1.66.26c.39.16-.5.16-.44.3,1.16,0,.5.24,1.27.37-.17-.21.39-.34,1.05-.28l-.94-.25c1.61-.4,1.45.44,3.08.18l-.52.17a17.43,17.43,0,0,0,3.93-.25c.14.1.31.3-.06.28a31.52,31.52,0,0,0,3.17.31,10.18,10.18,0,0,1,2.77.69l-.19.1c.38,0,.72-.11,1.11.21-.05.05-.19.1,0,.16a4.18,4.18,0,0,1,1.46.35H51.1c1.77.8,2.91.79,4.48,1.4-.19.36,1.05,1.28,1.66,1.75l-.05,0c.47.31.93.55,1.37.8s.83.51,1.24.74a15.88,15.88,0,0,1,2.51,1.56c.68,1.21,3.1,3.22,4.13,5.09-.13-.31.31-.17.57.1.22.45,1.08.92.69,1.09l-.09-.14a1.47,1.47,0,0,0,.29.92c.19.36.44.73.64,1.07l.53-.17a5.25,5.25,0,0,0,.65,1.64c.26.57.57,1.14.88,1.68a11.36,11.36,0,0,1,.8,1.53,2.53,2.53,0,0,1,.19,1.23c.29.42.51,1,.81,1.43l-.29.06c.35,1.34.43,2,.94,3.66l-.29-.29c.21.92,1,1,1.2,1.92l-.39.33c.07.42.11.84.15,1.27s0,.84,0,1.26a8.54,8.54,0,0,0,.28,2.5c-.06,0-.19-.08-.22-.35,0,.79-.42,3.15.2,2.86-.39,0-.12,1.79,0,2.74l-.28-.16a4,4,0,0,1,.48,2c0,.26-.24.22-.15-.13-.19.87.24.69,0,1.75l-.16-.4a1.82,1.82,0,0,0,.23,1.33c.08.57-.15,1.71-.42,1.83A1.44,1.44,0,0,1,74,77.32c-.1.07-.15-.13-.17-.23-.27,1.5.23,2.25-.1,3.28-.09,0-.14.08-.18.16.06-1.19.12-2.15.14-2.06-.26,0-.35,1-.68.17.08.39.21.92.31,1.47a8.09,8.09,0,0,1,.09.83,1.71,1.71,0,0,1,0,.62l-.09,0,0,0,0,.09s0,0,0,.15a4.46,4.46,0,0,0-.45.65c-.24,0-.64.91-.89,1.33.27.1-.08.63.42.23,0,.06,0-.1.16-.38a.69.69,0,0,0,.07-.2v0l.57-1a1.9,1.9,0,0,1-.55,1.2,5.75,5.75,0,0,1,.08.81c-.67.38-1.48,1.39-1.78,1.43-.58,1.36-1.58,3.1-1.56,4.17-.14.4-.37.35-.52.44a2.93,2.93,0,0,0,.21-.64c-.28.81-1.15,2.21-.9,2.57-.65.85,0-.69-.66.62v-.23c-1.89,2.24-1.33,4.55-3.44,7,.14-.18.2-.27.28-.28-1.89,3.13-3,6.83-4.27,10.29-.35,1-.07,1.17,0,1.81l-.34.19c.06.37.17.74.26,1.1.15,1.52-.86,2.6-.4,4.51l.21-.24c0,.68.07,2.15-.16,2a.47.47,0,0,1,.09.49h-.17l.2,1.68c-.18,1.28-.61-.24-.78,1.63,0,.69.32,2,.45,1.77s.15-.71.32-.72l0,.64c.47.16.91.71,1.37-.86l-.21-1.13.26-.34-.06.94a1.5,1.5,0,0,0,0-1.25.75.75,0,0,0,.28-.45l-.41-1.12c.2-.12.35.51.49-.22-.19-.52-.44.47-.54-.38.24-.52.41-.36.24-1,.12-.08.2,0,.25.3-.14-.56,0-1.47-.28-1.76.28-.55,0-1.86.41-1.8a4.09,4.09,0,0,1-.33-1.46c.26.47.27,0,.31-.54s.11-1.14.39-1a2.74,2.74,0,0,1-.13-1.57,16.69,16.69,0,0,0,.25-1.91c0,.07.07.21,0,.3a4.65,4.65,0,0,1,.62-1.12c-.37-.2-.15-1.2-.16-1.81.65-.62.26.63.7.51-.32-.07.2-1.42-.15-1.26.43-.5.31-.46.74-.63-.42-.29.15-.56.08-1.16.59-.73.51,0,.78-1C64.92,102.65,64.71,103.53,64.71,103.53Zm10.42-22h0c0,.28.05.58-.08.71C75.17,82.12,75.1,81.88,75.13,81.53Zm.08-2c0,.25,0,.55,0,.88-.1.07-.2,0-.19-.22C75,80.27,75.11,79.8,75.21,79.5Zm-2.85,3.42c.12-.3.22-.37.3-.38l-.25.51,0,0A.36.36,0,0,1,72.36,82.92Z"/><path class="cls-1" d="M72.41,83.61a1,1,0,0,1,0,.12,1,1,0,0,0,.15-.13l0-.15Z"/><path class="cls-1" d="M12.2,105.38v0a.14.14,0,0,1,0,.09S12.2,105.4,12.2,105.38Z"/><polygon class="cls-1" points="73.88 51.31 73.81 51.34 73.93 51.49 73.88 51.31"/><path class="cls-1" d="M21.06,110.73s.06,0,.14.07Z"/><path class="cls-1" d="M25.88,110.8l.68.1A4.83,4.83,0,0,0,25.88,110.8Z"/><path class="cls-1" d="M29.59,110.94a.26.26,0,0,0,.07-.12h0Z"/><path class="cls-1" d="M1,76.81s0-.1,0-.15C1,76.32,1,76.55,1,76.81Z"/><path class="cls-1" d="M10,86.92a2.56,2.56,0,0,0-.31-.34C9.8,86.79,9.85,87,10,86.92Z"/><polygon class="cls-1" points="3.23 57.26 3.23 57.26 3.26 57.14 3.23 57.26"/><path class="cls-1" d="M9.27,86.12a4.9,4.9,0,0,0,.42.46A.94.94,0,0,0,9.27,86.12Z"/><path class="cls-1" d="M35.51,120.49l0,.18a0,0,0,0,1,0,0Z"/><path class="cls-1" d="M35.54,120.69l0,.19C35.57,120.79,35.57,120.71,35.54,120.69Z"/><path class="cls-1" d="M35.65,121.3l-.08-.42C35.57,121,35.56,121.21,35.65,121.3Z"/><path class="cls-1" d="M35.64,115.58l-.11-.06A.2.2,0,0,0,35.64,115.58Z"/><path class="cls-1" d="M35.61,114.08a6.91,6.91,0,0,0-.16,1.39l.08,0C35.38,115.29,35.79,114.42,35.61,114.08Z"/><path class="cls-1" d="M33,109.68a10.83,10.83,0,0,1,1.31.11c-.23-.14-.61-.32.12-.27a3.21,3.21,0,0,0-.56-.13.92.92,0,0,0-.2,0c-.07,0,0,0,0,.1S33.86,109.7,33,109.68Z"/><path class="cls-1" d="M29.16,109.51c.67-.05,0-.16,0-.22C28.76,109.39,28.66,109.42,29.16,109.51Z"/><path class="cls-1" d="M12.05,96.86l.26.07C12.28,96.41,12.21,96.92,12.05,96.86Z"/><polygon class="cls-1" points="10.77 91.48 10.6 91.99 10.84 92.23 10.77 91.48"/><polygon class="cls-1" points="11.72 91.21 11.76 91.44 11.66 90.57 11.72 91.21"/><path class="cls-1" d="M7.16,52.68l-.35,0C6.75,53.06,7.07,53.25,7.16,52.68Z"/><path class="cls-1" d="M18,36.42a1.32,1.32,0,0,0,1-.57A11,11,0,0,0,18,36.42Z"/><polygon class="cls-1" points="69.23 47.57 68.93 47.29 69.4 47.88 69.23 47.57"/><polygon class="cls-2" points="26.88 24.75 24.88 22.95 26.22 21.47 26.45 21.67 26.61 21.41 28.31 22.47 26.88 24.75"/><path class="cls-2" d="M30,19.79l-1.7-1.06L30,16l1.7,1.06Zm3.35-5.37-1.69-1.06,1.68-2.68L35,11.74ZM36.7,9.05,35,8l1.68-2.68,1.69,1.06Z"/><polygon class="cls-2" points="39.96 3.68 39.9 3.58 38.37 2.62 40 0 41.65 2.62 40.12 3.58 40.06 3.68 40.01 3.65 39.96 3.68"/><path class="cls-2" d="M50,19.65,48.35,17,50,15.92l1.68,2.66Zm-3.36-5.32L45,11.67l1.7-1.07,1.67,2.66ZM43.32,9,41.64,6.34l1.69-1.06L45,7.94Z"/><polygon class="cls-2" points="53.14 24.59 51.7 22.31 53.4 21.25 53.56 21.5 53.78 21.3 55.13 22.78 53.14 24.59"/><path class="cls-2" d="M57.49,20.63l-1.35-1.48L58.5,17l1.34,1.48Zm4.71-4.29-1.35-1.48,2.36-2.14,1.34,1.48Z"/><polygon class="cls-2" points="66.68 11.8 65.56 10.57 68.34 8.04 68.34 11.8 66.68 11.8"/><path class="cls-2" d="M68.34,39.6h-2V36.82h2Zm0-5.56h-2V31.26h2Zm0-5.56h-2V25.7h2Zm0-5.56h-2V20.14h2Zm0-5.56h-2V14.58h2Z"/><polygon class="cls-2" points="68.34 44.88 65.84 44.88 65.84 42.88 66.34 42.88 66.34 42.38 68.34 42.38 68.34 44.88"/><path class="cls-2" d="M62.79,44.88H59.73v-2h3.06Zm-6.12,0H53.61v-2h3.06Zm-6.12,0H47.49v-2h3.06Zm-6.12,0H41.37v-2h3.06Zm-6.12,0H35.26v-2h3.05Zm-6.11,0H29.14v-2H32.2Zm-6.12,0H23v-2h3.06Zm-6.12,0H16.9v-2H20Z"/><polygon class="cls-2" points="13.84 44.88 11.34 44.88 11.34 42.38 13.34 42.38 13.34 42.88 13.84 42.88 13.84 44.88"/><path class="cls-2" d="M13.34,39.6h-2V36.82h2Zm0-5.56h-2V31.26h2Zm0-5.56h-2V25.7h2Zm0-5.56h-2V20.14h2Zm0-5.56h-2V14.58h2Z"/><polygon class="cls-2" points="11.34 11.8 11.34 8.05 14.13 10.56 13.01 11.8 11.34 11.8"/><path class="cls-2" d="M22.46,20.77,20,18.59l1.34-1.48,2.42,2.18Zm-4.83-4.36-2.42-2.18,1.34-1.48L19,14.93Z"/></g></g></svg>