<svg xmlns="http://www.w3.org/2000/svg" viewBox="0 0 159.14 93.59"><defs><style>.cls-1{fill:#9fc4e8;}.cls-2{fill:#ef7d00;}</style></defs><title>Element 197</title><g id="Ebene_2" data-name="Ebene 2"><g id="Ebene_2-2" data-name="Ebene 2"><path class="cls-1" d="M116.47,32.17c0,.1.16.23.26.1l-.12-.33Z"/><path class="cls-1" d="M117.67,32a.69.69,0,0,0-.24-.76c0,.36-.06.29,0,.71a.21.21,0,0,1-.34,0c0,.1-.23.09-.17.31a.47.47,0,0,0,.61-.41C117.64,31.83,117.65,31.93,117.67,32Z"/><path class="cls-1" d="M130.45,24.09l-.1,0Z"/><path class="cls-1" d="M138.75,19.94c-.06,0-.07.08-.06.11S138.78,20,138.75,19.94Z"/><path class="cls-1" d="M140.34,19.62l-.09,0S140.33,19.65,140.34,19.62Z"/><path class="cls-1" d="M130.45,24.09l.27,0C130.68,24,130.57,24.05,130.45,24.09Z"/><path class="cls-1" d="M118.85,30.09a.3.3,0,0,0,0,.16.44.44,0,0,1,.08-.11Z"/><path class="cls-1" d="M127.08,26.42l-.06,0a.86.86,0,0,0,0,.15Z"/><path class="cls-1" d="M124.47,28.16c.06,0-.07-.28-.11-.4a.28.28,0,0,1,0,.25A.88.88,0,0,0,124.47,28.16Z"/><path class="cls-1" d="M120.1,30.59l0,.08Z"/><path class="cls-1" d="M129,25.3a.29.29,0,0,0,.07.08A.27.27,0,0,0,129,25.3Z"/><path class="cls-1" d="M114.26,20.65l0,0S114.24,20.66,114.26,20.65Z"/><polygon class="cls-1" points="111.58 22.03 111.52 22.02 111.32 22 111.58 22.03"/><path class="cls-1" d="M143.12,18.79h0C143.05,18.85,143.09,18.83,143.12,18.79Z"/><path class="cls-1" d="M154.87,3c-.06.39-.52-.27-.54.27C154.41,3.2,154.92,3.44,154.87,3Z"/><path class="cls-1" d="M118.94,30.08,119,30A.21.21,0,0,0,118.94,30.08Z"/><path class="cls-1" d="M154.33,3.3h0v0Z"/><path class="cls-1" d="M149.26,16.33l-.1-.1S149.2,16.29,149.26,16.33Z"/><path class="cls-1" d="M144.48,17.65h.13A.25.25,0,0,0,144.48,17.65Z"/><path class="cls-1" d="M151.59,15.18c.07,0,.1,0,.18,0l0,0S151.67,15.2,151.59,15.18Z"/><path class="cls-1" d="M154.16,14.45l-.06,0-.08,0Z"/><path class="cls-1" d="M121,16.15a.7.7,0,0,1-.23-.15C120.86,16.15,120.56,16.41,121,16.15Z"/><path class="cls-1" d="M119,30.22c0-.07,0-.11,0-.14l-.06.06S118.92,30.21,119,30.22Z"/><path class="cls-1" d="M151.07,13l.43-.08A2.47,2.47,0,0,0,151.07,13Z"/><path class="cls-1" d="M138.08,7.38l-.07.07A.1.1,0,0,0,138.08,7.38Z"/><path class="cls-1" d="M152.73,12.55a.69.69,0,0,0,.29.12s0-.05,0-.08Z"/><path class="cls-1" d="M120.73,16Z"/><path class="cls-1" d="M118.68,18c.34-.21,0-.41-.07-.64.35-.34.33.12.57.19.21-.24.23-.65.43-.75,0,0,.09,0,.09.13.12-.42.8-.5.94-1l.09.06a1.34,1.34,0,0,1-.31-.41c.15-.1.17-.37.35-.2-.1,0,0,.14-.06.23l.11-.19c.32.22-.16.24,0,.46.26-.29.49-.75.79-.81.22.26-.52.43,0,.5l-.45.11c.56.3-.25.11.31.45.55-.21.47-.48,1-.68,0-.23-.17-.22-.15-.45.54-.71,1,.42,1.28-.27,0-.28-.13-.68.36-.69l.06.4c.51-.24,0-.63.65-.69,0,.18-.32.32-.23.32.49.08.14-.32.39-.46l.22.27c.5-.34,1-.87,1.52-1.24,0,.11,0,.26.15.28a5.88,5.88,0,0,1,2.41-1l.14-.4c.06,0,.18.05.13.14.33,0-.07-.17,0-.34a.14.14,0,0,1,.22.17,2.89,2.89,0,0,1,1.84-1.17l-.07.13c.47-.09.2-.77.7-.71l-.05.08c.94-.32,1.82-1,2.69-.95,0-.44,1-.23.78-.8.63,0,.53.2,1.33.05.21-.06.14-.46.36-.62l.13.27.19-.43.32.26.2-.17a.26.26,0,0,1-.27-.13.87.87,0,0,1,1,0l.74-.59c0,.12-.1.22-.18.34.33-.48.21.26.5-.17-.08,0,0-.18-.05-.24a1.55,1.55,0,0,0,1.05-.32l0,.23c.64-.21,1.27-.62,2-.89a.26.26,0,0,1-.17-.47l.2.27c.06-.24-.26,0-.07-.37.27-.06.3.29.19.44l.28-.22c0,.08,0,.16,0,.28.06-.24.66.1.73-.3l0,.09c.71-.25,1-.47,1.56-.68-.08-.27.17-.28.27-.56a6.11,6.11,0,0,0,1.5-.17c.33-.24,0-.26.16-.47.1.24.61.07.39.32a7.48,7.48,0,0,0,1.51-.67c-.11-.09-.22-.1-.19-.2s.36,0,.36.15l0,0A2.06,2.06,0,0,1,151.05,3a3.81,3.81,0,0,0,.72.06s.07,0,.15-.16l0,0c.08-.1.23-.27.33-.22s-.15.12-.21.34c.09-.06.16,0,.2,0a1,1,0,0,1,.17.31,1.85,1.85,0,0,0,.52.78c-.4.82,1,1.59.87,2.45l.13-.12c.24.08,0,.25.05.38.11-.08,0-.25.18-.19a17.33,17.33,0,0,1,1.78,4.47c.2.52,1,0,.74.39a1.42,1.42,0,0,0-.36,0c.21,0,.36.24.3.29s-.23,0-.34.22c0-.08,0-.17,0-.18s-.05-.08-.07-.08a.86.86,0,0,0-.3.09c-.18.1-.32.24-.3.33-.19,0-.08-.16-.22-.23s-.54.43-.73.23c0,0,.05-.09.09-.12-.13.15-.75.14-.53.37-.47,0-.78.35-1.17.28-.14.36-.77.06-.72.51-.09-.45-.85-.14-1.06.14,0-.16-.27-.07-.22-.28-.31.09-.57.25-.44.46-.74-.36-1,.75-1.53.21a23.48,23.48,0,0,1-2.37,1.35c-.12-.44.88-.35.69-.78-.71.44-1,.93-1.81,1.12-.21,0,0-.23.08-.32-.68.47-1.47.53-2,1,0,0,0-.11.09-.17-.12.07-.33.06-.24.25l.11-.1c.32.19-.29.78-.25.93,0-.63-.71.12-.64-.7a.26.26,0,0,0-.07.32c-.15,0-.22,0-.15-.24-.43.29-.18.42-.6.6,0-.09,0-.17,0-.29-.14.27-.27.54-.66.62,0-.06-.07-.12,0-.16-.59.3-.82.93-1.57,1.05,0-.48-.28,0-.47-.35l-.31.26.22.1c-.32.14-.49.5-.8.52l.16-.25-.54.34.38,0c-.23.33.24.41-.22.52.07-.08-.3.14-.56,0h0c-.1.18-.2.37-.47.4-.11-.08-.13-.39-.2-.45,0,.36-.69.44-.73.83a.4.4,0,0,0-.09-.31l0,.29c-.17,0-.21,0-.26-.18-.45.17.35.36-.25.42,0,0,0-.06.06-.13-.56.15-.9.64-1.42.77-.31-.26.36-.29.05-.49a11.54,11.54,0,0,1-1.85,1.4l.14,0c.17.51-.61,0-.81.42.06-.08,0-.31,0-.25a5.33,5.33,0,0,0-1.4,1.14l0-.16a6.85,6.85,0,0,0-1,.42c0,.17-.18.24,0,.35-1.25-.17-1.38,1.33-2.46,1.22.08-.05.14-.23.07-.19l-.56.5c.17.16.15.07.38.14a.67.67,0,0,1-.28.46c.2-.31-.2-.32-.39-.35.06.05.06.14.1.2-.54-.14.2.42-.39.48l0-.12c-.14.16-.2.39-.4.48-.22-.18.11-.22,0-.42-.24.18-.22.75-.59.67.07-.13.22-.23.29-.36a.66.66,0,0,0-.62.06h0l-.5.16h.15c.07.78-.56.53-.73,1.19.17-.63-.07-.25-.21-.53-.15,0-.37,0-.37-.06-.06.33-.44.06-.51.54-.07-.07-.22.14-.32-.09-.21.24.16.1.21.21-.21.54-1.16.31-1.46,1.08-.37.5-.27.83-.62,1.28-.24,0-.09-.37-.09-.37a.89.89,0,0,0-.65.47c0-.1-.09-.13-.23-.16-.16.15.09.37-.23.43a1,1,0,0,1,0-.44c-.17.23-.27.53-.44.77-.16-.09,0-.31,0-.46-.2.25-.55.62-.46.89l.22-.05c-.08.08-.19-.15-.15-.24.08-.33.36-.16.43-.09l-.12.17c.51.33.57-.55.92-.75l.11.43.12-.52c.13,0,.32.19.2.35.35,0,.11-.26.44-.22,0,0,0,0,0,.06l.15-.26c0,.1.21.21,0,.26.53-.1.46-.72.8-.57l0,.05c.48-.52-.13-.29.09-.88l.71.41-.12-.29c.07,0,.2-.09.24,0,.1-.33-.11-.09-.1-.34.44,0,.71-.63,1-.28,0-.26-.37,0-.16-.3.38.37.3-.31.69-.29.07.28-.25.33.14.35-.1-.48.55-.25.72-.47-.19-.31.4-.44.7-.78,0,.12.81-.28,1.22-.39l0,.06c-.13-.35.26-.53.48-.75a.39.39,0,0,1,0,.46l.25-.15a.43.43,0,0,1,.17-.37l.09.27c.31-.21.49-.67,1-.78-.1-.23-.7-.4-.34-.82.09.11.22.3.14.42,0,0,.07-.18.18-.18l-.06.31c.25,0,0-.23.17-.3.1.17.19,0,.24.2s-.17,0-.19.11a.86.86,0,0,1,.61,0,.22.22,0,0,1,0-.32c.33-.21.24.13.48.1,0-.16.29-.16.15-.42.1-.05.19.05.27.1.1-.21.78-.49.43-.65h-.05l0,0h0c.42-.58,1.26-.53,1.76-1l0,.09c.28-.3.73-.47.87-.79a.28.28,0,0,1,.34.16c.22-.21.2-.32.65-.38-.18.29.16.09-.21.26.38-.11.53,0,.77-.44,0,.29.4.15.53,0l-.32,0a1.84,1.84,0,0,1,.5-.26l.06.34c.87,0,1-1.24,1.79-.9.08-.3-.45,0-.41-.29.35-.12.89.15,1,.1.52-.05.2-.64.72-.76a.36.36,0,0,1,0-.6c.35-.12.61.25.45.44s-.13,0-.14,0-.2.2,0,.26v-.13c.21,0,.65-.2.63,0,.2-.21,0-.22-.19-.19.5,0,.66-.29,1.15-.38-.1,0-.22-.13-.15-.16.7-.15.19-.33.6-.57.32.06.09.44.46.11.31,0,.18.26.12.39.3-.38.79-.19,1-.25l-.17.18a1,1,0,0,1,.31-.19l-.21-.17c.14,0,.24-.06.28,0,.06-.2-.25-.32-.08-.62.2,0,.45-.33.63-.07-.57.11.17.27-.24.5a.4.4,0,0,1,.31-.12s0,.06,0,.09c.6.07.09-.42.61-.61,0,.19.25.26.32.19-.21.08-.21-.23-.07-.43.38,0,.32-.24.5-.29h-.22c0-.19.17-.23.39-.38.07.13-.18.18-.07.2.14-.39.69.07,1-.27.2.05.13.31.3.33.32-.37.52.05.88-.28-.21-.19-.21-.12,0-.44-.21.12-.43.27-.64.41l.33-.5c-.21.08-.39.32-.53.33.14-.27.14-.2,0-.35.41.22.5-.42.92-.3L147,17c.6.07.8-.6,1.51-.68l-.25,0c0-.25.4-.17.58-.33,0,.2.2.22.33.3-.06-.13.48-.15.42-.54l.37.14c.56-.08.44-.73,1-.82-.09.25.19.32-.12.56.18,0,.34-.05.31-.18.13.09.4-.4.61-.26.05-.11,0-.31.22-.35a.12.12,0,0,1,0,.09c0-.09.27-.21,0-.37.7.44,1.49-.47,2.09-.1a7.32,7.32,0,0,1,1.15-.42c0,.06,0,.09,0,.09.52.07.16-.62.76-.54.35.25-.26.23-.05.31.11.31.27.25.45.15a1.34,1.34,0,0,1,.32-.14.94.94,0,0,1,.5,0l-.12.07a1.19,1.19,0,0,0,.78-.21,2.43,2.43,0,0,1,.83-.36.17.17,0,0,0,.1.08.59.59,0,0,1,.17-.25l.12-.11c.05,0,.13-.06,0-.17-.25-.35-.45-.66-.62-.92.38.22.28.28.55.25-.16-.26-.49-.07-.77-.51.1-.12.08-.46.33-.56l.25.51c.27-.27-.32-.69-.38-.95h.16a2.14,2.14,0,0,0-.16-.27l-.12-.13-.24-.16a1,1,0,0,1-.44-.5l-.08.11c-.5-.14.07-.36-.34-.54l.31-.27a7.36,7.36,0,0,1-.95-.89,3.33,3.33,0,0,1,1,.64c-.1-.21-.38-.69-.61-.71.08.07.22.13.2.24a1.39,1.39,0,0,1-.9-.78c.72-.28-.37-1.14,0-1.71-.63-.58-.65-1.47-1.16-2.28-.35.59-.15-.23-.65.12-.14-.17-.17-.25-.15-.28V2.54c.07-.23.22.11.33,0-.21-.44.12-.31.1-.67a.18.18,0,0,1-.25,0c-.07-.05-.13-.14-.24-.42a1.74,1.74,0,0,1,0,.59c-.66-.47-.08-1.12-.91-1.85l.31.14a2.18,2.18,0,0,1-.17-.21c-.07-.06-.1-.25-.26-.17l-.86.16c-.59.12-1.19.32-1.23.58-.07-.06-.19-.21,0-.28-.87.07-1.74.89-2.45.76l0-.16c-.14.08-.2.34-.42.24,0-.06,0-.16-.05-.15s-.34.36-.56.34l.12-.21c-.84,0-1.09.74-1.71,1C146,1.92,145.29,2,145,2V2a8.11,8.11,0,0,0-2.17,1.33c-.68-.27-1.79.46-2.7.54.15,0,.11.32,0,.42s-.41.5-.53.11l.07,0c-.29-.31-.64,0-1,.07l.15.5c-1.09-.37-1.95,1.14-2.65.7-.13.21-.37.31-.5.51l-.11-.26a5.73,5.73,0,0,0-1.44.61l0-.24c-.38.15-.12,1-.44,1.12L133.44,7c-.63.3-1.43.27-1.88.91,0-.06-.05-.18,0-.24-.3.13-1.26.3-.9.77-.17-.34-.66.28-.92.6l-.07-.28c-.13.46-.09.55-.44.84-.11,0-.18-.16,0-.16-.37,0-.12.36-.56.42l.06-.23c-.33.14-.27.22-.35.49a.61.61,0,0,1-.8,0,.41.41,0,0,1-.27.47.18.18,0,0,1,0-.21c-.62.11-.63.7-1.13.65A.23.23,0,0,0,126,11a5,5,0,0,1,.75-.35c-.12-.23-.48-.08-.37-.54-.19.31-.46.93-.85,1a.25.25,0,0,1-.08-.05l0,0a.29.29,0,0,0-.19.15.94.94,0,0,0-.31.08c-.14-.16-.45.11-.62.2.15.23-.09.32.22.41,0,0,0-.05.13-.12s.05,0,.05-.07v0l.42-.24c-.07.2-.15.38-.41.34,0,.21,0,.42,0,.53-.42-.22-1-.16-1.14-.34-.44.42-1.17.76-1.23,1.4-.11.14-.24,0-.33-.08.06-.09.16-.14.17-.23-.23.28-.84.53-.72.89-.45.07,0-.41-.44-.07v-.14c-1.28.07-1.11,1.74-2.58,1.74.1,0,.15,0,.2,0-1.41.46-2.35,1.81-3.82,2.17-.4.14-.3.35-.4.64l-.25-.2-.14.53c-.34.55-1.29,0-1.61.87l.2.1c-.24.14-.59.64-.71.44,0,.05.07.22-.08.21l-.11-.11a6,6,0,0,0-.32.68.31.31,0,0,1-.46,0c-.12-.05-.24-.24-.61.41-.09.27,0,.62.25.66a4.57,4.57,0,0,0,.48.09c-.08,0-.1-.06.06,0a1.07,1.07,0,0,0,.32.08,3.19,3.19,0,0,0,.9.08l-.13-.1s-.11,0-.12-.06l.22.08,0,.05,0,0c.16.2,0,0,0-.13a.35.35,0,0,0,.26.07,3.17,3.17,0,0,1-.07-.56c.16.1.14.37.38.28,0-.27-.41-.18-.28-.48.29,0,.36.19.41-.09a.19.19,0,0,1,.08.26c.06-.24.37-.39.31-.65.32.07.52-.49.77-.12a1,1,0,0,1,.24-.63c0,.63.61-.4.86.12-.06-.54.66-.72.91-1.2,0,.05,0,.14,0,.15.24-.12.38,0,.58-.06-.19-.35.11-.65.17-1,.48.14.08.49.36.74-.19-.26.31-.57.07-.73.34.06.24,0,.53.18-.23-.44.15-.19.16-.56.44,0,.33.34.58,0C118.88,17.68,118.68,18,118.68,18Zm7.8-5.45h0l-.17.1Zm.7-.38-.31.15c-.07-.07-.09-.17,0-.2S127,12.18,127.18,12.19Zm-2.42-.92c.1-.09.16-.06.2,0a.89.89,0,0,0-.18.14v0A.4.4,0,0,1,124.76,11.27Z"/><path class="cls-1" d="M124.74,11.71l0,0,.1,0v-.1Z"/><path class="cls-1" d="M130.33,24.11h0l0,0Z"/><polygon class="cls-1" points="137.32 7.86 137.3 7.79 137.26 7.88 137.32 7.86"/><path class="cls-1" d="M126,25.56a.19.19,0,0,0-.09,0S126,25.56,126,25.56Z"/><path class="cls-1" d="M124.39,26.55l-.28.06A1.2,1.2,0,0,0,124.39,26.55Z"/><path class="cls-1" d="M123.08,27.25a.66.66,0,0,0,0,.11h0Z"/><path class="cls-1" d="M143.69,15.93a.09.09,0,0,0,.05,0C143.85,15.8,143.77,15.85,143.69,15.93Z"/><path class="cls-1" d="M137.54,19.34a1.7,1.7,0,0,1,.15-.22C137.57,19.16,137.48,19.2,137.54,19.34Z"/><polygon class="cls-1" points="151.02 13.03 151.02 13.04 151.07 13.03 151.02 13.03"/><path class="cls-1" d="M138,19a.38.38,0,0,0-.29.13A.51.51,0,0,0,138,19Z"/><path class="cls-1" d="M117.78,30.87l-.06,0,0,0Z"/><path class="cls-1" d="M117.74,30.94l0,.08S117.75,31,117.74,30.94Z"/><path class="cls-1" d="M117.6,31.18l.09-.16S117.58,31.09,117.6,31.18Z"/><path class="cls-1" d="M119.43,29.8l0-.1A.16.16,0,0,0,119.43,29.8Z"/><path class="cls-1" d="M119.89,29.42c-.13.07-.41,0-.54.21l0,.07C119.37,29.52,119.88,29.64,119.89,29.42Z"/><path class="cls-1" d="M122.64,29l-.45.21c.13,0,.31.1.14.25C123,29.41,122.08,29.36,122.64,29Z"/><path class="cls-1" d="M124,28.31c-.19.19.09.13.12.18C124.19,28.32,124.21,28.27,124,28.31Z"/><path class="cls-1" d="M133.45,22.62l.1.24C133.71,22.73,133.5,22.77,133.45,22.62Z"/><polygon class="cls-1" points="134.71 20.46 134.46 20.41 134.48 20.66 134.71 20.46"/><polygon class="cls-1" points="136.65 21.52 136.59 21.59 136.85 21.36 136.65 21.52"/><path class="cls-1" d="M153.77,14.82l-.14-.29C153.51,14.62,153.57,15,153.77,14.82Z"/><path class="cls-1" d="M157.84,9.64a.29.29,0,0,0-.1-.46C157.8,9.36,157.77,9.58,157.84,9.64Z"/><polygon class="cls-1" points="138.28 4.69 138.39 4.53 138.14 4.73 138.28 4.69"/><path class="cls-2" d="M94.37,60.58a6.43,6.43,0,0,1-1.93-.27L93,58.4a5.7,5.7,0,0,0,2.52.09l.3,2A11.5,11.5,0,0,1,94.37,60.58Zm4.57-.9-.65-1.89c.83-.29,1.73-.65,2.68-1.09l.84,1.81C100.8,59,99.83,59.37,98.94,59.68Zm5.6-2.55-1-1.75.49-.27c.69-.39,1.36-.8,2-1.23l1.12,1.66c-.69.46-1.41.9-2.14,1.31Zm5.13-3.48-1.3-1.51a24.37,24.37,0,0,0,2-2l1.49,1.34A25.69,25.69,0,0,1,109.67,53.65ZM113.84,49l-1.66-1.12a20.42,20.42,0,0,0,1.42-2.47l1.8.86A21.28,21.28,0,0,1,113.84,49Zm2.7-5.67-1.92-.57a17.63,17.63,0,0,0,.59-2.78l2,.26A19.3,19.3,0,0,1,116.54,43.33Zm-1.19-6.18a17,17,0,0,0-.3-2.83l2-.36a20.78,20.78,0,0,1,.33,3.13ZM71.71,32.62l-1.8-.87A23,23,0,0,1,71.52,29l1.66,1.12A23.15,23.15,0,0,0,71.71,32.62Zm42.62-1.06a22.12,22.12,0,0,0-1.11-2.64L115,28a22.66,22.66,0,0,1,1.21,2.89ZM74.92,27.83l-1.54-1.27a30.23,30.23,0,0,1,2.08-2.29l1.41,1.41C76.2,26.36,75.54,27.08,74.92,27.83Zm36.85-1.4-.06-.09a27.48,27.48,0,0,0-1.66-2.2l1.52-1.3a27.45,27.45,0,0,1,1.8,2.38l.08.11ZM79,23.73l-1.27-1.54a28.62,28.62,0,0,1,2.5-1.84L81.35,22A27.28,27.28,0,0,0,79,23.73Zm29-1.64a18.22,18.22,0,0,0-2.26-1.72l1.09-1.68a21.23,21.23,0,0,1,2.5,1.91Zm-24.2-1.51L83,18.79c.42-.21.84-.41,1.28-.6s1-.43,1.56-.63l.72,1.86c-.5.19-1,.39-1.48.61S84.23,20.39,83.85,20.58ZM103.29,19a17.61,17.61,0,0,0-2.68-.91l.49-1.94a20.61,20.61,0,0,1,3,1Zm-14-.52-.54-1.92a30.59,30.59,0,0,1,3-.68l.33,2C91.16,18,90.21,18.25,89.27,18.51Zm8.54-.87A22.64,22.64,0,0,0,95,17.58l-.09-2a23.26,23.26,0,0,1,3.13.07Z"/><path class="cls-1" d="M83.62,43c.07.06.27.1.25,0l-.3-.15Z"/><path class="cls-1" d="M84.33,42.62a.91.91,0,0,0-.75-.09,2.1,2.1,0,0,1,.56.16c0,.08-.13.12-.24.09.08,0-.1.08.09.17s.33-.2.12-.34A.41.41,0,0,1,84.33,42.62Z"/><path class="cls-1" d="M77.21,37.6l0,.06S77.22,37.62,77.21,37.6Z"/><path class="cls-1" d="M72.09,35.23a.07.07,0,0,0,.08,0S72.09,35.2,72.09,35.23Z"/><path class="cls-1" d="M71.29,34.56l0,0S71.31,34.55,71.29,34.56Z"/><path class="cls-1" d="M77.21,37.6l-.09-.16C77.06,37.54,77.15,37.55,77.21,37.6Z"/><path class="cls-1" d="M83.32,42.08l.1,0h-.06Z"/><path class="cls-1" d="M79.55,38.45l0,0,.09-.11Z"/><path class="cls-1" d="M81.26,39.25s-.17.21-.24.31a.37.37,0,0,1,.17-.13A.52.52,0,0,0,81.26,39.25Z"/><path class="cls-1" d="M83.78,41h0Z"/><path class="cls-1" d="M78.36,37.79a.44.44,0,0,0,0-.1A.36.36,0,0,0,78.36,37.79Z"/><path class="cls-1" d="M41.24,56.6h-.05S41.24,56.62,41.24,56.6Z"/><polygon class="cls-1" points="40.09 58.87 40.08 58.84 39.92 58.87 40.09 58.87"/><path class="cls-1" d="M69.7,33.67h0C69.76,33.66,69.73,33.66,69.7,33.67Z"/><path class="cls-1" d="M53.15,33.85c.27.16-.17.41.19.57C53.28,34.33,53.43,33.91,53.15,33.85Z"/><path class="cls-1" d="M83.33,42l0,0S83.32,42,83.33,42Z"/><path class="cls-1" d="M53.34,34.42h0l0,0Z"/><path class="cls-1" d="M65.6,32.86a.51.51,0,0,0,0,.13A.4.4,0,0,0,65.6,32.86Z"/><path class="cls-1" d="M68.52,33.93l-.06-.06A.11.11,0,0,0,68.52,33.93Z"/><path class="cls-1" d="M64,33s-.05-.07-.11,0,0,0,0,0S63.91,33,64,33Z"/><polygon class="cls-1" points="62.28 32.88 62.31 32.93 62.37 32.92 62.28 32.88"/><path class="cls-1" d="M41.34,52a1.09,1.09,0,0,1-.26,0C41.28,52,41.32,52.22,41.34,52Z"/><path class="cls-1" d="M83.44,42l-.11.07h0A.19.19,0,0,0,83.44,42Z"/><path class="cls-1" d="M63.62,35.21l-.24-.06A.61.61,0,0,0,63.62,35.21Z"/><path class="cls-1" d="M45.72,42v.06S45.74,42.06,45.72,42Z"/><path class="cls-1" d="M62.66,35.12a.64.64,0,0,0-.12-.21.16.16,0,0,0,0,.07Z"/><path class="cls-1" d="M41.08,52Z"/><path class="cls-1" d="M41.56,53.65c0-.23-.36-.14-.56-.2-.08-.29.28-.11.48-.18-.09-.18-.41-.35-.39-.48s.09,0,.16,0c-.28-.22.07-.54-.27-.8l.1,0a2,2,0,0,1-.51,0c0-.11-.2-.23,0-.24,0,.07.08.09.15.13l-.08-.13c.35,0,.09.17.35.21-.08-.23-.33-.53-.2-.68.33,0,.05.41.38.24L41,51.7c.56-.11-.06.15.53.06.16-.3-.12-.39,0-.7-.17-.11-.28,0-.45-.14-.22-.54.92-.18.55-.62-.2-.13-.6-.27-.33-.46l.36.17c.1-.3-.5-.31-.17-.58.13.1.07.28.12.25.34-.14-.18-.21-.13-.38l.34.06c.05-.34-.06-.77,0-1.16.08.06.17.15.29.1,0-.52.4-.94.76-1.28l-.2-.28s.15,0,.18,0c.17-.12-.16-.09-.24-.21s.21-.06.27,0c-.13-.4-.11-1.06.34-1.21l0,.1c.22-.17-.39-.54,0-.63l0,.07a4.33,4.33,0,0,0,.44-.75,1,1,0,0,1,.66-.48c-.3-.31.47-.35,0-.72.42-.1.46,0,.87-.22.08-.08-.18-.36-.13-.52l.24.19-.12-.35.36.15,0-.16a.28.28,0,0,1-.25-.06c0-.26.52-.27.64-.17l.15-.56c.08.09.06.18.07.29,0-.42.27.18.22-.21-.07,0-.12-.13-.16-.18.22,0,.39-.19.51-.38L47,41a10.58,10.58,0,0,0,.84-.9c-.18,0-.4-.27-.33-.38l.25.2c-.07-.2-.18,0-.22-.29.15-.09.33.2.33.34l.07-.22c.07.07.07.14.15.24-.08-.21.46,0,.31-.33l.07.07c.31-.3.43-.47.69-.7-.16-.22,0-.26-.07-.5a2.28,2.28,0,0,0,.87-.28c.1-.25-.08-.23-.1-.43.16.2.4,0,.37.24a3.56,3.56,0,0,0,.66-.74c-.1-.06-.17-.07-.19-.16s.22,0,.28.1v0c.13-.3.49-.3.82-.31s.65,0,.72-.3v0l.28-.45c.2-.05,0,.23.17.31.24-.61.7-.23.95-.64.53.58,1-.41,1.52-.06l-.08-.17c0-.2.15.06.24.08s-.16-.12-.12-.23c.8-.46,1.84-.18,2.73-.14.32,0,.07-1,.54-.56l-.09.34c.64-.46,1.36-.1,2-.43,0,.07,0,.17-.1.17.14.24.51,0,.52-.19.1,0,0,.18.08.28s.36-.29.42-.05c0,0,0,.07-.06.09s.42,0,.34-.23c.24.14.49-.11.68.07.15-.29.41.19.49-.24-.06.45.4.41.58.21-.07.13.12.16,0,.34.18,0,.35,0,.35-.28.25.58.73-.33.81.38a5.8,5.8,0,0,1,1.6-.22c-.11.43-.54-.06-.61.4.48-.09.83-.42,1.26-.2.1.09-.12.18-.17.24.49-.07.86.24,1.32.13,0,0-.07.07-.12.09s.17.12.21-.08l-.09,0c0-.32.48-.51.54-.66-.3.53.36.26-.06.91a.32.32,0,0,0,.18-.23c.06.06.07.14-.06.27.32,0,.28-.27.53-.18,0,.09-.09.11-.15.21.19-.14.37-.28.56-.13,0,.05,0,.13-.09.11.37.09.79-.3,1.14,0-.26.36.09.18,0,.54l.25,0,0-.2c.19.07.45-.12.57,0l-.19.09.38.06-.16-.2c.26-.11.15-.45.36-.26-.06,0,.19.08.21.32h0c.14-.08.28-.16.39,0a4.31,4.31,0,0,1-.19.46c.21-.26.48.09.71-.17A.73.73,0,0,0,73,37l.17-.2c.06.11.06.15,0,.29.25.15.1-.48.33-.16,0,0,0,0-.1.06.27.22.66.1.9.34-.06.38-.28,0-.31.31.43.11,1-.05,1.38.21l0-.07c.27-.46.18.37.48.23-.06,0-.18.24-.15.19.24.2.61.13,1.08.17l-.1.1c.1.19.38.26.52.4.11-.1.2,0,.23-.24.18.95,1.18.11,1.36.92-.06,0-.19,0-.14.07l.45.08c.07-.22,0-.15,0-.35a.35.35,0,0,1,.36-.09c-.24.05-.16.33-.14.48,0-.06.08-.12.1-.19,0,.47.25-.4.4,0l-.07.1c.14,0,.31-.1.4,0-.07.26-.16.06-.27.25.17.07.54-.29.57,0-.1,0-.2,0-.3,0,0,.36.07.3.16.4h0l.2.26,0-.11c.51-.52.47.09.94-.18-.45.26-.15.2-.31.46,0,.11.1.25,0,.31.24-.16.13.28.47,0,0,.09.14.07,0,.28.2,0,0-.17.1-.28.4-.17.45.66,1,.42.42,0,.57-.33,1-.31,0,.19-.25.27-.25.27.08.2.14.22.33.22a.47.47,0,0,0-.16.22c.07,0,.32-.19.29,0l-.37.18a1,1,0,0,1,.48.06c-.15.1-.28,0-.39.08a1.2,1.2,0,0,0,.51.19.83.83,0,0,0,.08-.12c0,.06-.22.08-.28.06-.22,0,0-.17.14-.22l.09.06c.26-.14.19-.26,0-.32s-.35-.05-.41-.12c.12-.08.25-.15.38-.22a1.84,1.84,0,0,0-.42.09c0-.11.16-.32.3-.28,0-.28-.22,0-.22-.26,0,0,0,0,0-.06l-.23,0c.08-.06.12-.27.19-.16-.21-.39-.61.06-.58-.28h0c-.43,0-.16.26-.59.47l.13-.78-.17.26a.12.12,0,0,1,0-.18c-.23.12,0,.13-.2.27-.07-.34-.57-.13-.4-.58-.16.17.1.24-.17.29.18-.49-.26,0-.32-.33.17-.21.26,0,.2-.31-.3.37-.28-.24-.46-.24-.17.33-.37,0-.66,0,.07-.11-.36-.41-.52-.63l0-.05c-.2.3-.4.13-.6.11.11-.19.17-.25.31-.3l-.16-.07a.33.33,0,0,1-.28.1l.16-.22c-.22-.09-.57.08-.75-.22-.13.22-.11.74-.46.76,0-.13.14-.35.24-.36s-.14.06-.16,0l.22-.15c-.08-.15-.15.14-.24.07.09-.17,0-.16.07-.29s0,.11.12.06a.51.51,0,0,1-.15-.41c0,.11-.12.24-.21.22s0-.25-.05-.4c-.11.1-.18-.09-.31.17-.06,0,0-.16,0-.24-.17.07-.53-.21-.54.13l0,0h0c-.49.1-.67-.5-1.09-.55l0-.09c-.26,0-.51-.16-.75,0-.06,0-.07-.23,0-.32-.19,0-.25.09-.43-.17.24-.08,0-.16.22,0-.18-.17-.16-.34-.5-.19a.19.19,0,0,0-.17-.33l.08.23a.74.74,0,0,1-.31-.14l.18-.29c-.29-.56-1.06.31-1.14-.45-.21.17.18.25,0,.46-.19-.13-.23-.66-.29-.68-.22-.28-.44.35-.69.12,0,.13-.08.44-.34.46s-.08-.56.08-.6.07,0,0,.09.19,0,.15-.18l-.07.1c-.06-.15-.35-.24-.22-.4-.19,0-.13.16,0,.25-.21-.25-.42-.15-.66-.36,0,.08,0,.23,0,.21-.35-.28-.25.15-.54.11-.1-.22.2-.39-.13-.34-.13-.17.06-.31.16-.38-.33.13-.43-.3-.57-.38l.17,0a.34.34,0,0,1-.23,0V34c-.06-.06-.13-.09-.1-.18-.13.12-.06.4-.28.55-.07-.15-.36,0-.3-.29.3.2.05-.31.35-.27a.24.24,0,0,1-.2-.07.07.07,0,0,1,.06-.07c-.25-.36-.25.3-.58.2.09-.16,0-.35-.05-.33.13,0,0,.31-.18.4-.18-.19-.26,0-.37,0l.11.1c-.09.16-.18.1-.35.12,0-.14.16-.06.13-.13-.25.25-.3-.41-.58-.26-.08-.14.07-.33,0-.43-.31.16-.22-.31-.55-.19,0,.25.06.2-.19.38l.49-.05-.37.26c.14,0,.32-.07.39,0-.18.15-.15.1-.13.31-.1-.4-.41.11-.57-.18l.13-.57c-.27-.33-.64.18-1-.05l.11.13c-.1.22-.26,0-.42,0a.6.6,0,0,0-.06-.41c0,.14-.31-.06-.42.32L65.05,33c-.33-.15-.47.5-.79.39.13-.2,0-.36.24-.48-.11,0-.21-.07-.23.06,0-.13-.34.23-.42,0-.06.08-.09.29-.22.26a.19.19,0,0,1,0-.1c0,.1-.21.11-.13.34-.28-.64-.94-.06-1.21-.59a3.57,3.57,0,0,1-.76.11c0-.06,0-.09,0-.07-.3-.2-.2.55-.54.34-.17-.31.19-.17.08-.29,0-.65-.42.09-.66-.28l.06,0c-.19-.22-.44.25-.73.21a.19.19,0,0,0,0-.1,1.48,1.48,0,0,1-.82.6c.07-.26.12-.15,0-.4-.12.05.07.41-.17.5-.09-.13-.28-.24-.34-.51l.24,0c-.16-.35-.31,0-.44,0V32.8c-.36.09-.32.49-.71.52l.06.11c-.15.41-.21-.19-.38.13l-.12-.38a5.6,5.6,0,0,1-.65.58A1.84,1.84,0,0,1,57,33c-.14,0-.47.11-.5.32,0,0,.1-.16.17-.11a.76.76,0,0,1-.57.59c-.12-.75-.75,0-1.1-.54-.4.43-1,.16-1.55.42.4.48-.15.08.09.64-.11.09-.16.09-.18.06l-.52-.19c-.16-.12.07-.17,0-.29-.3.07-.22-.2-.47-.27.12.19,0,.33-.17.32l.33.16c-.26.45-.54-.32-.8.16l.05-.24c-.15.2-.75.36-.71.89-.07,0-.19-.17-.12-.25-.52.17-.75,1-1.25,1l-.05-.14c-.06.08,0,.32-.18.26,0-.06,0-.15-.09-.13s-.07.35-.22.36v-.21c-.52.14-.39.8-.66,1.12a.73.73,0,0,0-.87-.17l0-.06c-.51.31-.59.87-.86,1.38-.56-.13-1,.63-1.56.81.12,0,.23.25.19.34s0,.45-.31.16l0,0c-.35-.21-.45.07-.59.22l.37.38c-.93-.11-.7,1.23-1.42,1,0,.18-.08.31-.05.5l-.22-.18a2.27,2.27,0,0,0-.59.79l-.12-.19c-.16.2.5.72.38.92l-.39-.18c-.25.35-.8.55-.66,1.13,0,0-.15-.11-.14-.18-.1.17-.63.57-.08.77-.34-.17-.25.38-.21.66l-.24-.16c.23.33.31.38.3.67-.06.05-.23,0-.13-.09-.22.14.17.27-.06.44l-.13-.16c-.1.2,0,.22.13.41s-.22.36-.47.29c.13.09.27.28.16.37a.18.18,0,0,1-.15-.12c-.33.28.08.62-.25.77a.34.34,0,0,0-.17,0,1.32,1.32,0,0,1,.21-.47c-.24-.09-.37.12-.63-.19.1.26.41.71.22.89h-.09l0,0a.13.13,0,0,0,0,.16c-.06.06-.11.09-.13.16-.21,0-.2.23-.24.34.27.07.18.21.45.14,0,0,0,0,0-.11a.13.13,0,0,0,0-.06l0,0,.07-.29c.11.13.2.26,0,.34l.38.29c-.42,0-.72.28-1,.26.07.39-.1.87.37,1.2,0,.12-.18.08-.27.1s0-.13-.08-.18c.09.23-.08.61.27.73-.22.21-.31-.21-.32.15l-.1-.07c-.68.61.74,1.26-.09,1.92a.2.2,0,0,1,.14-.08A2.74,2.74,0,0,0,39.36,54a2,2,0,0,1-.21,1.33c-.11.25.13.28.31.42l-.3.06.35.25c.27.35-.72.67-.2,1.1l.2-.07c0,.17.16.51-.08.5,0,0,.22,0,.12.11l-.15,0,.31.38c-.07.33-.63,0-.59.5.08.17.54.44.63.35A.25.25,0,0,1,40,58.7l.11.14c.46-.06.94-.07,1.21-.44L41,58.21l.21-.11,0,.2c.2-.15,0-.19-.14-.25a.45.45,0,0,0,.24-.14l-.47-.18c.17,0,.37.06.45-.11-.22-.09-.39.16-.55,0,.2-.14.37-.12.18-.24a.25.25,0,0,1,.25,0c-.15-.11-.08-.32-.33-.36.25-.15-.1-.42.34-.43-.11,0-.36-.2-.38-.32.53.19,0-.43.59-.39-.48-.14-.23-.55-.48-.82,0,0,.11,0,.09.07,0-.16.18-.2.28-.29-.39,0-.48-.27-.72-.42.39-.17.46.14.83.09-.32,0-.31-.34-.58-.29.24-.13.12-.12.45-.17-.49-.06-.07-.14-.36-.28.26-.19.46,0,.33-.26C41.4,53.44,41.56,53.65,41.56,53.65Zm.26-5.48h0l0,.12Zm.13-.44a1.31,1.31,0,0,0-.07.19c-.09,0-.18-.07-.16-.11S41.86,47.77,42,47.73Zm-2.15.35c0-.09,0-.1.1-.09a.62.62,0,0,0,0,.15h0A.35.35,0,0,1,39.8,48.08Z"/><path class="cls-1" d="M40.1,48.33s0,0,0,0l.08,0-.08-.05Z"/><path class="cls-1" d="M77.25,37.67h0a.09.09,0,0,1,0,.05Z"/><polygon class="cls-1" points="45.5 42.5 45.44 42.45 45.47 42.52 45.5 42.5"/><path class="cls-1" d="M79.21,39.7a.11.11,0,0,0,0,.08Z"/><path class="cls-1" d="M80.2,40.27l.1.17A.5.5,0,0,0,80.2,40.27Z"/><path class="cls-1" d="M80.93,40.79l.07-.1h0Z"/><path class="cls-1" d="M68.09,35.76h0C68,35.8,68,35.79,68.09,35.76Z"/><path class="cls-1" d="M72.18,36.41l-.17.08C72.07,36.53,72.12,36.56,72.18,36.41Z"/><polygon class="cls-1" points="63.65 35.22 63.65 35.22 63.62 35.22 63.65 35.22"/><path class="cls-1" d="M71.84,36.41a.15.15,0,0,0,.17.08C72,36.45,71.91,36.4,71.84,36.41Z"/><path class="cls-1" d="M83.48,42.4v0h0Z"/><path class="cls-1" d="M83.52,42.41l0,0S83.55,42.41,83.52,42.41Z"/><path class="cls-1" d="M83.63,42.47l-.07,0S83.55,42.47,83.63,42.47Z"/><path class="cls-1" d="M83.24,41.88l-.06.08Z"/><path class="cls-1" d="M83,41.79c0,.05,0,.27.12.24l.05-.07C83.09,42.09,83.15,41.66,83,41.79Z"/><path class="cls-1" d="M82.21,40l.23.2c0-.12,0-.28.13-.24C82.38,39.54,82.54,40.25,82.21,40Z"/><path class="cls-1" d="M81.46,39.5c.16,0,.07-.14.1-.19C81.43,39.35,81.39,39.36,81.46,39.5Z"/><path class="cls-1" d="M75.44,36.6l.12-.23C75.43,36.35,75.52,36.46,75.44,36.6Z"/><polygon class="cls-1" points="73.75 37.31 73.8 37.5 73.94 37.31 73.75 37.31"/><polygon class="cls-1" points="73.75 35.34 73.81 35.33 73.58 35.33 73.75 35.34"/><path class="cls-1" d="M62.6,32.64l0,.32C62.7,32.91,62.75,32.55,62.6,32.64Z"/><path class="cls-1" d="M57.61,33.14c-.08-.15-.23-.23-.29-.07C57.43,33.08,57.56,33.18,57.61,33.14Z"/><polygon class="cls-1" points="44.41 39.9 44.39 39.75 44.33 39.96 44.41 39.9"/><path class="cls-1" d="M73,53.56c0,.1.18.21.27.07l-.15-.32Z"/><path class="cls-1" d="M74.2,53.18a.66.66,0,0,0-.32-.74c.09.37,0,.31.08.72a.21.21,0,0,1-.35,0c0,.11-.24.14-.16.35a.53.53,0,0,0,.6-.52C74.15,53,74.17,53.13,74.2,53.18Z"/><path class="cls-1" d="M85.05,40.76l-.1.06A.21.21,0,0,0,85.05,40.76Z"/><path class="cls-1" d="M92,33.7c-.06,0-.07.07-.06.1S92,33.72,92,33.7Z"/><path class="cls-1" d="M93.5,33.7h-.08S93.48,33.73,93.5,33.7Z"/><path class="cls-1" d="M85.05,40.76l.25-.15C85.23,40.53,85.15,40.67,85.05,40.76Z"/><path class="cls-1" d="M75.24,51a.33.33,0,0,0,0,.17.83.83,0,0,1,.07-.13Z"/><path class="cls-1" d="M83,44.77l0,.07A.42.42,0,0,0,83,45Z"/><path class="cls-1" d="M80.75,47.51c.06,0-.13-.26-.2-.36a.29.29,0,0,1,0,.25A.45.45,0,0,0,80.75,47.51Z"/><path class="cls-1" d="M76.6,51.23l0,.09Z"/><path class="cls-1" d="M84.51,42.64h.11A.14.14,0,0,0,84.51,42.64Z"/><path class="cls-1" d="M49,75.54s0,0,0,0S49,75.52,49,75.54Z"/><path class="cls-1" d="M46.91,71.61l0,0,.14-.07Z"/><path class="cls-1" d="M96.16,34.52h0C96.07,34.52,96.11,34.52,96.16,34.52Z"/><path class="cls-1" d="M90.45,55.7c.4-.14,0,.63.48.37C90.81,56.05,90.83,55.44,90.45,55.7Z"/><path class="cls-1" d="M75.33,51a.94.94,0,0,1,.1-.1C75.37,50.89,75.34,50.92,75.33,51Z"/><path class="cls-1" d="M90.93,56.07h0l0,0Z"/><path class="cls-1" d="M100.92,37.71l.11-.08S101,37.65,100.92,37.71Z"/><path class="cls-1" d="M98.06,34.63l.11.08A.59.59,0,0,0,98.06,34.63Z"/><path class="cls-1" d="M101.22,40.21c0,.06-.07.08-.06.18l0,0S101.16,40.28,101.22,40.21Z"/><path class="cls-1" d="M100,42.5h.08l0-.09Z"/><path class="cls-1" d="M58.23,78.21A.9.9,0,0,1,58.1,78C58.13,78.15,57.67,78.19,58.23,78.21Z"/><path class="cls-1" d="M75.35,51.1a.14.14,0,0,1,0-.15l-.06.08S75.32,51.1,75.35,51.1Z"/><path class="cls-1" d="M103.38,40.75l-.15.5A2.71,2.71,0,0,0,103.38,40.75Z"/><path class="cls-1" d="M79.3,72.57l-.08.09A.14.14,0,0,0,79.3,72.57Z"/><path class="cls-1" d="M102.37,43a.57.57,0,0,0-.31.11.32.32,0,0,0,0,.09Z"/><path class="cls-1" d="M58.1,77.94h0Z"/><path class="cls-1" d="M54.73,78.16c.48.12.3-.3.44-.48.58,0,.21.31.37.53.37,0,.69-.34,1-.29,0,.06.06.09,0,.16.41-.23,1.11.13,1.57-.23a.2.2,0,0,1,.05.09,1,1,0,0,1,0-.51c.2,0,.39-.21.46,0-.13,0-.15.08-.21.15l.22-.09c.18.35-.3.1-.32.36.44-.09.94-.35,1.26-.24.07.34-.76.08-.33.4l-.51-.16c.37.56-.31,0,0,.54.68.13.76-.11,1.43,0,.15-.19-.05-.28.1-.47.93-.37.77.83,1.46.35.16-.24.21-.64.71-.47l-.14.4c.65,0,.32-.59,1-.41-.1.17-.49.19-.39.22.47.26.29-.25.62-.29l.11.33a20.39,20.39,0,0,0,2.12-.66c0,.11-.14.24,0,.31a10.21,10.21,0,0,1,3-.35L69,77c.08,0,.18.09.11.16.37,0,0-.18.11-.34s.3.1.2.22a4.33,4.33,0,0,1,2.32-.92l-.1.12c.54,0,.36-.74.91-.65l-.07.08c1.09-.3,2.15-1,3.1-1,0-.45,1.1-.32.89-.88.7-.06.59.13,1.49-.15.23-.1.13-.5.36-.7l.17.26.17-.5.38.19.19-.22c-.1,0-.27,0-.31-.07A1.13,1.13,0,0,1,80,72.3c.24-.26.46-.55.69-.83.06.11-.06.25-.12.4.26-.59.27.2.52-.34-.1,0-.09-.17-.11-.22a1.77,1.77,0,0,0,1.06-.7l.07.21a8.55,8.55,0,0,0,.93-.81c.29-.32.58-.64.9-.94a.25.25,0,0,1-.34-.37l.3.16c0-.26-.28.09-.2-.31.26-.2.42.11.35.31.08-.11.14-.24.21-.36.08,0,0,.16.12.26,0-.26.72-.27.63-.68l.09,0c.61-.64.77-1,1.23-1.59-.21-.18,0-.36,0-.67a5.81,5.81,0,0,0,1.27-1.22c.15-.44-.12-.24-.14-.49.23.11.56-.43.53,0a6.91,6.91,0,0,0,.79-1.78c-.14,0-.24.12-.28,0s.28-.29.38-.21v0a3.49,3.49,0,0,1,.93-1.52c0,.06.1,0,.22-.1a3.76,3.76,0,0,0,.28-.29,1.1,1.1,0,0,0,.29-.66v.05l.26-.86c.26-.3,0,.3.32.15.17-1,.88-1.16,1.07-1.94,1-.06,1.14-1.75,2-2.13l-.17-.06c0-.27.22-.15.34-.25-.13-.06-.26.09-.26-.07a25.51,25.51,0,0,1,3.38-4.17c.41-.51-.54-.83.27-1.26l.14.38c.42-1.31,1.54-2.2,2-3.45,0,.1.1.16,0,.26.35-.08.58-.82.42-.93.13-.15.17.06.32,0s.14-.74.42-.72c0,0,0,.1,0,.15,0-.21.5-.66.17-.68.39-.32.43-.83.78-1-.11-.38.59-.6.28-.91a.23.23,0,0,0,.26,0,1.76,1.76,0,0,0,.37-.39h0a2.61,2.61,0,0,0,.08-.35l0-.18v-.11a1,1,0,0,0-.06-.38c.11.14.2-.26.36-.09.06-.39,0-.75-.21-.72.64-.66-.32-1.44.34-1.87a6.34,6.34,0,0,0-1.71-3.16c.18-.13.43.11.6.38s.33.53.54.41a4.06,4.06,0,0,0-1.13-1c-.39-.24-.75-.45-1.19-.76-.21-.18.24-.11.36-.1l-1.35-.57a3.76,3.76,0,0,0-1.18-.36s.12,0,.21,0c-.15,0-.32-.2-.38,0h.16c.13.36-.81.35-.89.49.46-.46-.69-.42,0-1a.28.28,0,0,0-.3.19c-.13-.09-.16-.18,0-.28-.59-.08-.45.18-1,0,0-.09.14-.1.23-.2a1.3,1.3,0,0,1-1,0s0-.14.14-.11c-.8-.15-1.4.27-2.26.11.24-.46-.31-.11-.41-.47a2.82,2.82,0,0,0-.48.19l.23.13c-.43.1-.72.44-1.08.47l.24-.26c-.24.12-.49.23-.72.37a3.73,3.73,0,0,1,.47,0c-.31.33.22.4-.3.53.08-.08-.34.18-.63.09h0c-.11.21-.19.43-.48.52-.13,0-.2-.37-.28-.4,0,.35-.68.68-.64,1.08a.34.34,0,0,0-.17-.27l.06.29c-.18.07-.23.07-.32-.07-.41.36.46.21-.14.53,0-.05,0-.06,0-.16-.54.39-.7,1-1.17,1.4-.4-.1.25-.45-.12-.49a14.67,14.67,0,0,1-1.29,2.19l.12-.09c.35.42-.57.3-.63.77,0-.1-.15-.28-.12-.22a6,6,0,0,0-1,1.71l0-.17a9.88,9.88,0,0,0-.85.86.41.41,0,0,1,0,.11l0,.49-.09,0h0l0,0a.35.35,0,0,0,.16,0c-.79.37-.44,1.84-1.5,2.23.07-.09.06-.29,0-.22L81.9,44c.22.09.17,0,.42,0a.72.72,0,0,1-.14.57c.11-.38-.29-.23-.49-.19.07,0,.1.12.16.15-.58.07.32.35-.26.62l-.07-.1c-.09.21-.1.46-.28.62-.26-.1.06-.26-.1-.41-.2.26,0,.82-.43.87,0-.15.16-.3.2-.46a.74.74,0,0,0-.61.27h0l-.47.32.16,0c.25.77-.46.71-.49,1.42,0-.69-.13-.23-.32-.46-.16,0-.37.14-.4,0,0,.35-.43.19-.42.7-.08-.06-.19.2-.33,0-.18.3.18,0,.25.16-.11.61-1.14.62-1.32,1.48-.31.6-.16.91-.46,1.46-.26,0-.14-.37-.14-.37a1.09,1.09,0,0,0-.62.64c0-.11-.12-.11-.26-.12-.16.19.14.37-.2.5a1.49,1.49,0,0,1-.1-.45c-.14.27-.21.61-.37.88-.17-.06,0-.31,0-.46-.19.29-.51.73-.4,1l.22-.09c-.07.1-.2-.12-.18-.22.06-.35.37-.23.45-.17l-.11.19c.56.25.55-.68.87-1l.17.42.07-.56c.14,0,.35.13.25.32.36-.08.08-.3.44-.33,0,0,0,0,0,.06l.12-.31c0,.1.25.17.08.26.55-.23.38-.85.76-.78l0,.05c.43-.65-.17-.27,0-.93l.82.24-.18-.26c.07,0,.19-.15.26,0,0-.36-.13-.06-.16-.32.46-.08.61-.85,1-.58-.08-.26-.38.14-.22-.26.46.27.25-.4.66-.5.12.26-.2.41.21.31-.2-.46.53-.43.66-.71-.26-.25.3-.57.54-1,.07.1.75-.57,1.14-.85l0,0c-.23-.3.13-.62.28-.94a.39.39,0,0,1,.15.46l.21-.26A.49.49,0,0,1,83,44.4l.17.23c.26-.36.26-.9.74-1.26-.2-.16-.84,0-.67-.61.13.06.34.16.31.33,0-.06,0-.22.1-.27l.07.32c.22-.16-.09-.21,0-.38.17.11.21,0,.32.05s-.16.11-.14.22a1.35,1.35,0,0,1,.58-.39.23.23,0,0,1-.17-.3c.19-.43.29,0,.5-.3-.09-.17.16-.49-.15-.59,0-.2.15-.25.23-.35a.81.81,0,0,1,0-.11l-.15.61c.09-.27.57-.77.19-.77l-.05,0v0h0c.23-.75,1.07-1.07,1.42-1.71l.08.06c.18-.41.54-.79.57-1.16.07-.1.32-.12.38,0,.15-.31.08-.4.51-.67-.07.36.19,0-.12.34.34-.28.52-.26.59-.78.1.28.45-.06.52-.25l-.33.11a2,2,0,0,1,.4-.46l.19.29c.42-.19.52-.58.66-.91s.3-.66.76-.6c0-.31-.44.17-.48-.16.32-.22.9-.1,1-.15.49-.11.08-.67.6-.81-.11-.07-.33-.31,0-.62.39-.1.61.3.44.47s-.12,0-.13,0-.19.2,0,.25v-.13c.21,0,.62-.13.58.09.2-.17,0-.23-.15-.21.45,0,.64-.19,1.09-.11-.07-.06-.16-.19-.08-.2.66.1.28-.23.76-.29.26.19-.13.41.35.32.27.15,0,.31-.09.4.43-.2.73.28.94.36l-.23,0a.58.58,0,0,1,.35,0l-.07-.27c.12.08.23.11.2.21.18-.11,0-.41.33-.54.15.16.6.05.56.37-.53-.29,0,.32-.52.22a.44.44,0,0,1,.32.11s0,.06-.08.06c.44.45.36-.27.92,0a.23.23,0,0,0,.11.36c-.22-.09,0-.32.25-.37.31.27.43.07.62.16l-.19-.15c.14-.14.31,0,.58,0,0,.14-.26,0-.19.09.4-.17.51.56,1,.54.13.19-.11.31,0,.46.45,0,.24.37.62.4.06-.24,0-.23.36-.24a3.33,3.33,0,0,0-.63-.21,3.33,3.33,0,0,1,.54-.07c-.16-.13-.44-.1-.54-.19.28-.08.24,0,.23-.26.06.23.21.25.37.29s.35.06.4.27l-.41.43c.07.24.23.31.41.43A.81.81,0,0,1,101,37l0-.23c.24,0,.17.36.3.54-.2,0-.23.17-.34.28.14,0,.06.45.44.48a3.81,3.81,0,0,1-.24.32c-.11.53.56.66.43,1.23-.2-.19-.37,0-.48-.34,0,.18-.07.33.06.36-.14.08.19.55,0,.69.07.09.27.16.21.37a.16.16,0,0,1-.1,0c.09,0,.06.32.31.22a1.14,1.14,0,0,0-.23.15h0c-.22.08-.43.47-.62.76s-.38.58-.7.64a12.2,12.2,0,0,1-.66,1.2s-.08,0,0-.1c-.46.34.28.59-.25,1-.44.08,0-.37-.16-.27-.59-.3-.36.67-.91.8l0-.11c-.37.14-.24.79-.58,1.19a.11.11,0,0,0-.08,0A3.3,3.3,0,0,1,97,47.71c-.12-.28,0-.27-.25-.33-.09.2.38.18.19.59-.2,0-.49.24-.74.12l.23-.36c-.42,0-.3.46-.48.61l-.11-.11c-.33.57,0,.8-.43,1.36h.13c.11.54-.36.15-.34.62l-.39-.12a8,8,0,0,1-.38,1.36,3.89,3.89,0,0,1,.12-1.27c-.14.2-.46.72-.37.94,0-.11,0-.27.12-.32A1.57,1.57,0,0,1,94,52.06c-.58-.51-.9,1-1.59.92-.27.89-1.1,1.38-1.64,2.25.69,0-.16.26.38.56-.11.22-.17.29-.21.28l-.71.39c-.25,0,0-.26-.11-.32-.34.4-.34,0-.67.23.22.06.15.33-.09.52l.48-.18c-.15.79-.79.23-.94,1l0-.3c-.12.38-.8,1.15-.6,1.74-.1,0-.29,0-.23-.17a2.43,2.43,0,0,0-.2.29,1.59,1.59,0,0,0-.15.29l0,.08c-.06.12,0,.09-.05.12l0,.08c-.06.21-.1.43-.15.65a1.7,1.7,0,0,1-.55,1.08l-.09-.13c-.05.16.1.38-.14.48-.05,0-.09-.13-.14-.07s0,.5-.19.63l0-.24c-.62.6-.38,1.31-.73,2-.35-.26-.88.17-1.14.39l0,0a16.36,16.36,0,0,0-1.32,2.29,2.7,2.7,0,0,0-1.15.69,4.76,4.76,0,0,1-1.25.9c.15,0,.2.28.1.42s-.27.62-.49.29l.06-.05c-.36-.19-.66.14-.93.34l.27.45c-1.16-.06-1.82,1.58-2.61,1.27-.12.22-.35.35-.48.57l-.13-.25a10,10,0,0,0-1.46.74L75,72c-.38.16-.11,1-.47,1.15l-.28-.34c-.66.36-1.5.24-2,.88,0-.06,0-.18.07-.24-.32.14-1.35.19-1,.69-.13-.35-.73.2-1.07.49l0-.29c-.22.44-.2.56-.63.77-.12,0-.16-.19,0-.16-.4-.05-.21.33-.69.29L69,75c-.38.07-.33.16-.49.41a.66.66,0,0,1-.84-.12c0,.16-.17.42-.42.39,0-.09,0-.16.06-.2-.68-.07-.89.49-1.38.3,0-.09-.06-.13-.1-.15a4.79,4.79,0,0,1,.88-.11c0-.26-.47-.23-.21-.63-.29.24-.77.76-1.19.72l-.07-.08,0,0a.3.3,0,0,0-.24.09,1,1,0,0,0-.34,0c-.08-.19-.48,0-.69,0,.05.28-.22.26.06.47,0,0,0,0,.17-.07l.08,0v0l.51-.09c-.14.17-.29.32-.54.18-.08.19-.18.39-.23.49-.34-.36-.9-.51-1-.75-.61.24-1.45.26-1.82.78-.18.07-.21-.15-.28-.23.1,0,.22,0,.27-.13-.35.15-1.05.09-1.13.46-.46-.15.25-.35-.37-.27l.08-.11a1.85,1.85,0,0,0-1.61.08,1.55,1.55,0,0,1-1.7-.15c.09.06.13.09.14.16-1.45-.5-3.21-.33-4.41-1.4-.34-.27-.48-.07-.8,0l.05-.31-.54.1c-.34,0-.5-.34-.66-.62a.92.92,0,0,0-.79-.61l0,.23c-.21-.21-.78-.49-.59-.63,0,0-.22.1-.23-.06l.1-.12L48,72.61c-.26-.48.51-.37.06-1-.22-.17-.8-.34-.84-.21s.07.29-.06.38L47,71.65a4.1,4.1,0,0,0-.64.27c-.17.13-.26.39-.15.82.19.09.37.18.56.25l-.06.28a3.52,3.52,0,0,1-.31-.35c0,.35.26.35.48.4a.42.42,0,0,0,0,.34,5.51,5.51,0,0,0,.69.06c-.08.18-.42.09-.24.41.32,0,.12-.45.5-.27,0,.33-.13.4.21.46,0,.11-.14.13-.26.1.29.06.58.4.83.29.06.36.76.44.49.79a1.86,1.86,0,0,1,.79.06c-.65.24.75.47.39.91.5-.25,1.16.3,1.78.3,0,0-.13.07-.16,0,.28.17.32.31.48.47.18-.35.67-.28,1-.43.25.48-.36.36-.35.75.08-.31.74-.09.68-.39.23.3.22.17.28.52.18-.46.3,0,.6-.25.37.33,0,.47.5.43C55.18,78.09,54.73,78.16,54.73,78.16Zm11-.86h0l-.21,0Zm.89-.17-.39.06c-.05-.09,0-.19.06-.2S66.42,77.08,66.57,77.13Zm-2.16-1.59c.13-.05.19,0,.21,0l-.23.07v0A.57.57,0,0,1,64.41,75.54Z"/><path class="cls-1" d="M64.22,75.93l0,0,.09.05,0-.09Z"/><path class="cls-1" d="M84.93,40.83h0Z"/><polygon class="cls-1" points="78.51 73.25 78.47 73.19 78.44 73.28 78.51 73.25"/><path class="cls-1" d="M81.69,44.35a.12.12,0,0,0-.1,0A.19.19,0,0,0,81.69,44.35Z"/><path class="cls-1" d="M80.3,45.91l-.27.16A1.19,1.19,0,0,0,80.3,45.91Z"/><path class="cls-1" d="M79.13,47a.3.3,0,0,0,.07.11h0Z"/><path class="cls-1" d="M98.67,32.84l.06,0C98.89,32.86,98.79,32.84,98.67,32.84Z"/><path class="cls-1" d="M90.7,33.16a2,2,0,0,1,.16-.24C90.72,33,90.62,33,90.7,33.16Z"/><polygon class="cls-1" points="103.39 40.69 103.39 40.69 103.38 40.75 103.39 40.69"/><path class="cls-1" d="M91.2,32.74a.54.54,0,0,0-.34.18A.8.8,0,0,0,91.2,32.74Z"/><path class="cls-1" d="M74.21,52l-.06,0a.05.05,0,0,1,0,0Z"/><path class="cls-1" d="M74.17,52.09l0,.08S74.19,52.12,74.17,52.09Z"/><path class="cls-1" d="M74.06,52.35l.08-.18S74,52.27,74.06,52.35Z"/><path class="cls-1" d="M75.8,50.56l0-.08A.15.15,0,0,0,75.8,50.56Z"/><path class="cls-1" d="M76.23,50.08c-.12.09-.42.12-.53.32l0,.08C75.71,50.3,76.25,50.3,76.23,50.08Z"/><path class="cls-1" d="M79,49l-.43.35c.14,0,.33,0,.18.21C79.48,49.24,78.5,49.46,79,49Z"/><path class="cls-1" d="M80.29,47.81c-.17.26.12.11.15.16C80.49,47.76,80.5,47.71,80.29,47.81Z"/><path class="cls-1" d="M87.5,38l.18.18C87.79,38,87.6,38.1,87.5,38Z"/><polygon class="cls-1" points="87.95 35.32 87.68 35.39 87.79 35.62 87.95 35.32"/><path class="cls-1" d="M90.2,35.56l0,.09a1.92,1.92,0,0,1,.18-.31A1.7,1.7,0,0,0,90.2,35.56Z"/><path class="cls-1" d="M100.09,41.92l.29.13C100.43,41.89,100.15,41.66,100.09,41.92Z"/><path class="cls-1" d="M95.31,49.42c-.19,0-.41.14-.37.35C95.07,49.62,95.28,49.53,95.31,49.42Z"/><polygon class="cls-1" points="79.08 69.83 79.15 69.64 78.94 69.91 79.08 69.83"/><path class="cls-2" d="M74.5,54.15l-1.83-.81.39-.88a4.07,4.07,0,0,0-.47-.48l1.32-1.51A4.58,4.58,0,0,1,75.1,52l.18.41Z"/><path class="cls-2" d="M45.47,57.14l-.92-1.77c.93-.48,1.83-.93,2.7-1.36l.87,1.81C47.27,56.23,46.38,56.67,45.47,57.14Zm5.34-2.58L50,52.74c1-.43,1.9-.83,2.79-1.19l.74,1.86C52.66,53.76,51.76,54.14,50.81,54.56Zm5.49-2.19-.66-1.88c1-.35,2-.66,2.91-.93l.55,1.93C58.2,51.74,57.26,52,56.3,52.37Zm5.63-1.58-.4-2a28.24,28.24,0,0,1,3.07-.46l.19,2A26.86,26.86,0,0,0,61.93,50.79Zm8.4,0a11.41,11.41,0,0,0-2.7-.47l.12-2a13.25,13.25,0,0,1,3.18.56Z"/><path class="cls-2" d="M40.28,60,39.2,58.31l1.25-.8.93-.61.07.13.41-.23,1,1.75-1.3.72-.87.49Z"/><path class="cls-2" d="M6.33,78.81,5.6,76.94c.91-.35,1.9-.77,2.93-1.23l.82,1.83C8.28,78,7.27,78.44,6.33,78.81Zm6-2.65-.87-1.8c.94-.46,1.89-.94,2.86-1.43l.91,1.77C14.21,75.21,13.24,75.7,12.29,76.16Zm5.77-3-.94-1.77,2.81-1.53,1,1.74C20,72.17,19,72.69,18.06,73.2Zm5.66-3.14-1-1.74c.94-.54,1.87-1.07,2.78-1.61l1,1.73Zm5.58-3.27-1-1.71L31,63.42l1,1.71Zm5.52-3.35-1-1.7L36.5,60l1.06,1.7Z"/><path class="cls-2" d="M1.31,81.09,0,78.6l1.28-.28c.44-.09.9-.21,1.39-.36l.56,1.92L3,80l.11.2Z"/><path class="cls-2" d="M9.83,93.59H9.61l.07-2h.15a9.37,9.37,0,0,0,2.4-.41l.55,1.92A11,11,0,0,1,9.83,93.59Zm5.8-1.5-.76-1.85q1.22-.49,2.61-1.17l.86,1.81C17.38,91.34,16.47,91.74,15.63,92.09ZM6.69,91.4,5.34,88.82l1.78-.93,1.34,2.58ZM21,89.55,20,87.78c.83-.44,1.68-.9,2.54-1.38l1,1.75C22.68,88.64,21.82,89.11,21,89.55Zm5.12-2.86-1-1.73c.82-.48,1.65-1,2.48-1.49l1,1.71C27.78,85.69,26.94,86.2,26.1,86.69ZM4,86.24,2.65,83.66l1.78-.92,1.34,2.58Zm27.1-2.6L30,82l2.45-1.56,1.08,1.68C32.76,82.6,31.94,83.12,31.1,83.64ZM36,80.48l-1.1-1.67,2.42-1.61,1.12,1.66Zm4.85-3.26-1.12-1.65,2.39-1.65,1.14,1.64C42.54,76.08,41.73,76.63,40.87,77.22Zm4.8-3.34-1.15-1.63c1.16-.82,2-1.42,2.36-1.69l1.18,1.62C47.67,72.46,46.84,73.06,45.67,73.88Zm4.82-3-.92-1.77,2.57-1.35.93,1.77Zm5.15-2.69-.92-1.77,2.57-1.35.93,1.77Zm5.15-2.69-.92-1.77,2.57-1.35.93,1.77Zm5.35-2.9-1.38-1.45,2.1-2,1.39,1.44C67.21,61.58,66.45,62.3,66.14,62.59Zm4.2-4.05-1.4-1.43,2.06-2,1.41,1.42Z"/></g></g></svg>