<?xml version="1.0" encoding="UTF-8" standalone="no"?>
<!DOCTYPE svg PUBLIC "-//W3C//DTD SVG 1.1//EN" "http://www.w3.org/Graphics/SVG/1.1/DTD/svg11.dtd">
<svg width="100%" height="100%" viewBox="0 0 77 85" version="1.1" xmlns="http://www.w3.org/2000/svg" xmlns:xlink="http://www.w3.org/1999/xlink" xml:space="preserve" xmlns:serif="http://www.serif.com/" style="fill-rule:evenodd;clip-rule:evenodd;stroke-miterlimit:1.41421;">
    <g>
        <path d="M46.86,1.071C46.86,0.93 46.719,0.841 46.5,1.071L46.5,1.471L46.86,1.071Z" style="fill:rgb(148,188,229);fill-rule:nonzero;"/>
        <path d="M44.799,2.171C44.61,2.551 44.46,3.06 44.799,3.1C44.889,2.611 45.04,2.64 45.11,2.1C45.33,1.841 45.61,1.781 45.65,1.901C45.65,1.761 46.08,1.6 46.08,1.33C45.557,1.481 45.122,1.844 44.879,2.33C44.79,2.37 44.82,2.231 44.799,2.171Z" style="fill:rgb(148,188,229);fill-rule:nonzero;"/>
        <path d="M20.22,23.99L20.399,23.881C20.335,23.908 20.274,23.945 20.22,23.99Z" style="fill:rgb(148,188,229);fill-rule:nonzero;"/>
        <path d="M3.919,38.68C4.06,38.54 4.049,38.5 3.99,38.52C3.93,38.54 3.81,38.74 3.919,38.68Z" style="fill:rgb(148,188,229);fill-rule:nonzero;"/>
        <path d="M8.64,39.071L8.31,39.071C8.418,39.095 8.531,39.095 8.64,39.071Z" style="fill:rgb(148,188,229);fill-rule:nonzero;"/>
        <path d="M20.22,23.99L19.75,24.29C19.79,24.39 20,24.16 20.22,23.99Z" style="fill:rgb(148,188,229);fill-rule:nonzero;"/>
        <path d="M42,5.79C42.064,5.711 42.118,5.623 42.16,5.531L42,5.741L42,5.79Z" style="fill:rgb(148,188,229);fill-rule:nonzero;"/>
        <path d="M26.669,17.75L26.79,17.631C26.794,17.571 26.794,17.511 26.79,17.45L26.669,17.75Z" style="fill:rgb(148,188,229);fill-rule:nonzero;"/>
        <path d="M31.72,13.071C31.6,13.171 31.72,13.401 31.77,13.531C31.762,13.395 31.809,13.261 31.899,13.16C31.852,13.111 31.788,13.079 31.72,13.071Z" style="fill:rgb(148,188,229);fill-rule:nonzero;"/>
        <path d="M40.099,6.071L40.219,5.91L40.099,6.071Z" style="fill:rgb(148,188,229);fill-rule:nonzero;"/>
        <path d="M23,21.071C22.963,21.06 22.925,21.06 22.89,21.071C22.925,21.086 22.964,21.086 23,21.071Z" style="fill:rgb(148,188,229);fill-rule:nonzero;"/>
        <path d="M42.87,7.861L42.919,7.861C42.9,7.83 42.889,7.81 42.87,7.861Z" style="fill:rgb(148,188,229);fill-rule:nonzero;"/>
        <path d="M46.5,0.631L46.5,0.741C46.544,0.765 46.591,0.785 46.639,0.801L46.5,0.631Z" style="fill:rgb(148,188,229);fill-rule:nonzero;"/>
        <path d="M15.31,39.381C15.109,39.401 15.21,39.401 15.31,39.381Z" style="fill:rgb(148,188,229);fill-rule:nonzero;"/>
        <path d="M36.74,61.53C36.1,61.831 37.29,60.53 36.39,61.07C36.45,61.07 36.39,61.27 36.319,61.52C36.25,61.77 36.319,61.73 36.319,61.74C36.319,61.751 36.399,61.74 36.48,61.69L36.74,61.53Z" style="fill:rgb(148,188,229);fill-rule:nonzero;"/>
        <path d="M41.809,5.881L41.61,6.08C41.686,6.024 41.753,5.957 41.809,5.881Z" style="fill:rgb(148,188,229);fill-rule:nonzero;"/>
        <path d="M36.39,61.07L36.299,61.07L36.39,61.07Z" style="fill:rgb(148,188,229);fill-rule:nonzero;"/>
        <path d="M30,39.22C29.961,39.168 29.91,39.126 29.85,39.1C29.85,39.1 29.859,39.16 30,39.22Z" style="fill:rgb(148,188,229);fill-rule:nonzero;"/>
        <path d="M19.049,38.841L19.319,38.841L19.049,38.841Z" style="fill:rgb(148,188,229);fill-rule:nonzero;"/>
        <path d="M35.64,38.841C35.771,38.872 35.908,38.872 36.04,38.841L35.98,38.841C35.87,38.884 35.749,38.884 35.64,38.841Z" style="fill:rgb(148,188,229);fill-rule:nonzero;"/>
        <path d="M38.149,39.861L38.22,39.801L38.22,39.711L38.149,39.861Z" style="fill:rgb(148,188,229);fill-rule:nonzero;"/>
        <path d="M37.339,26.12C37.463,25.916 37.607,25.725 37.77,25.551C37.49,25.81 37.859,24.39 37.339,26.12Z" style="fill:rgb(148,188,229);fill-rule:nonzero;"/>
        <path d="M41.87,5.68C41.888,5.753 41.866,5.83 41.809,5.881L42,5.741C42,5.741 41.91,5.671 41.87,5.68Z" style="fill:rgb(148,188,229);fill-rule:nonzero;"/>
        <path d="M35.879,36.731L36.819,36.731C36.506,36.714 36.192,36.714 35.879,36.731Z" style="fill:rgb(148,188,229);fill-rule:nonzero;"/>
        <path d="M63.29,31.881L63.419,31.7C63.359,31.746 63.314,31.809 63.29,31.881Z" style="fill:rgb(148,188,229);fill-rule:nonzero;"/>
        <path d="M41.179,36.981C40.994,37.324 40.827,37.678 40.679,38.04C40.672,38.087 40.672,38.134 40.679,38.18L41.179,36.981Z" style="fill:rgb(148,188,229);fill-rule:nonzero;"/>
        <path d="M50.519,24.74C50.799,24.74 50.889,24.74 50.929,24.81L50.45,24.81C50.469,24.781 50.493,24.754 50.519,24.731L50.519,24.74ZM54.23,26.591L53.469,26.591C53.41,26.5 53.469,26.41 53.65,26.41C53.559,26.45 54,26.511 54.23,26.58L54.23,26.591ZM52.48,26.591L52.049,26.591L52.48,26.591ZM39.21,18.75C38.939,19.611 39.419,19.261 39.549,19.5C39.33,20.551 39.16,19.89 38.879,20.191C38.874,20.762 38.837,21.333 38.77,21.901C38.7,21.901 38.649,22.011 38.62,21.901C38.605,22.375 38.514,22.845 38.35,23.29L38.23,23.731C38.169,23.941 38.12,24.151 38.069,24.35C37.978,24.676 37.927,25.012 37.919,25.35C37.881,25.422 37.831,25.487 37.77,25.54C37.934,25.348 38.154,25.212 38.399,25.151C38.25,25.66 38.399,25.85 38.049,26.24C38.149,25.941 38.049,25.99 38.049,25.89L38.049,26.341C38.049,26.461 37.97,26.511 37.79,26.531C37.79,26.341 38.02,25.761 37.79,25.861C37.79,26.12 37.7,26.37 37.66,26.611C38.562,26.467 39.475,26.4 40.389,26.41C40.54,26.74 38.2,26.52 39.309,26.81L37.899,26.691C38.529,27.2 36.899,26.691 37.45,27.2C38.289,27.245 39.13,27.245 39.969,27.2L40.889,27.151C41.149,27.132 41.41,27.132 41.669,27.151C41.96,26.97 41.58,26.881 41.87,26.7C43.679,26.381 43.29,27.511 44.62,27.08C44.969,26.87 45.099,26.461 46.049,26.671L45.73,27.04C46.96,27.04 46.429,26.511 47.73,26.761C47.5,26.901 46.73,26.881 46.94,26.921C47.78,27.211 47.53,26.72 48.179,26.72L48.309,27.04C49.629,26.99 51.08,26.761 52.54,26.7C52.46,26.79 52.21,26.901 52.54,26.99C54.443,26.889 56.351,26.97 58.24,27.231L58.91,26.95C59.07,26.95 59.21,27.071 59.04,27.131C59.73,27.231 59.04,26.95 59.4,26.841C59.759,26.731 59.919,27 59.669,27.08C61.233,26.745 62.842,26.674 64.429,26.87L64.179,26.961C65.179,27.071 65.309,26.381 66.24,26.64L66,26.671L67.73,26.671C68.062,26.635 68.397,26.635 68.73,26.671C68.484,26.868 68.215,27.036 67.929,27.171C68.25,27.171 68,27.33 67.839,27.45C67.679,27.571 67.559,27.691 67.719,27.921C66.918,28.322 66.163,28.811 65.469,29.381C65.12,29.691 65.219,30.111 64.86,30.56L64.639,30.37L64.299,31.14L63.759,31.14L63.429,31.58C63.599,31.441 63.849,31.35 63.889,31.43C63.458,32.011 62.851,32.438 62.16,32.651L60.929,34.24C60.87,34.131 61.08,33.861 61.219,33.62C60.669,34.62 60.86,33.54 60.36,34.43C60.5,34.43 60.44,34.6 60.46,34.66C59.781,35.103 59.179,35.653 58.679,36.29L58.679,36.04C57.589,37.04 56.54,38.321 55.36,39.49C55.849,39.14 56,39.49 55.679,39.85L55.32,39.77C55.23,40.131 55.759,39.49 55.469,40.111C55,40.531 54.919,40.16 55.11,39.841L54.65,40.45C54.549,40.45 54.65,40.25 54.589,40.14C54.509,40.49 53.45,40.841 53.37,41.39L53.269,41.39C52.089,42.56 51.639,43.171 50.69,44.14C50.86,44.35 50.44,44.68 50.309,45.14C49.429,45.808 48.585,46.523 47.78,47.28C47.28,47.97 47.78,47.61 47.61,47.99C47.4,47.871 46.61,48.73 46.879,48.171C46.025,49.045 45.22,49.967 44.469,50.93C44.679,50.86 44.87,50.73 44.839,50.871C44.639,51.14 44.24,51.331 44.19,51.22L44.19,51.14C43,52.911 40.36,54.07 39.559,55.551L39.559,55.47L38.56,56.85C37.98,57.371 38.759,56.39 38.25,56.69C37.25,58.27 36.169,58.69 35.31,59.94C35.22,59.958 35.133,59.985 35.049,60.02L35,60.07L34.87,60.07C34.81,60.07 34.779,60.131 34.71,60.23C34.64,60.331 34.24,60.881 34.589,60.23L34.299,60.761C33.99,61.27 34.299,60.761 34.43,60.47L34.49,60.371L34.29,60.711C34.189,60.89 34.16,60.961 34,61.211C34.065,60.737 34.225,60.281 34.47,59.871L34.549,59.751C34.585,59.673 34.615,59.593 34.64,59.511L34.75,59.201L35.21,57.951C35.509,57.11 35.799,56.28 36.1,55.461C36.5,54.24 35.46,54.461 36.299,53.07L36.47,53.6C36.83,51.001 37.96,48.501 38.37,45.98C38.37,46.14 38.48,46.171 38.37,46.411C38.74,45.961 38.939,44.511 38.759,44.411C38.89,44.03 38.95,44.411 39.11,44.161C39.389,43.68 39.2,42.781 39.5,42.571C39.549,42.571 39.5,42.73 39.5,42.83C39.5,42.461 39.98,41.27 39.639,41.52C39.73,41.301 39.799,41.08 39.87,40.861L40.059,40.091C40.216,39.409 40.423,38.741 40.679,38.091C40.683,37.749 40.745,37.411 40.86,37.091C40.07,37.091 39.2,36.98 38.859,37.261C39.059,37.04 38.379,36.961 37.48,36.95C37.001,36.933 36.522,36.988 36.06,37.111C36.259,36.98 35.529,36.98 35.77,36.801C35.08,36.801 34.45,36.89 34.569,37.111C33.299,36.591 32.02,37.52 31.31,36.861C29.259,37.091 27.37,37.25 25.529,37.35C25.6,36.921 27.529,37.35 27.48,36.861C26.002,37.14 24.503,37.287 23,37.301C22.56,37.24 23.259,37.111 23.41,37.04C21.669,37.22 20.04,37.04 18.49,37.23C18.49,37.23 18.66,37.151 18.819,37.12C18.509,37.12 18.109,37.051 18.14,37.25L18.439,37.25C18.93,37.531 17.23,37.841 17.169,37.99C17.689,37.43 15.64,37.85 16.46,37.14C16.259,37.14 16.009,37.27 16.06,37.401C15.759,37.401 15.66,37.29 15.97,37.14C14.87,37.24 15.259,37.45 14.27,37.45C14.27,37.35 14.47,37.321 14.569,37.2C13.992,37.455 13.357,37.555 12.73,37.49C12.73,37.49 12.68,37.361 12.93,37.361C12.258,37.394 11.59,37.474 10.93,37.6C10.609,37.651 10.29,37.691 9.93,37.711L9.479,37.711C9.35,37.721 9.219,37.721 9.089,37.711C9.49,37.301 8.81,37.571 9.089,37.22L8.66,37.321C8.647,37.377 8.647,37.434 8.66,37.49C8.407,37.51 8.157,37.546 7.91,37.6C7.62,37.6 7.319,37.691 7.259,37.6L7.899,37.45L7.379,37.45L7.549,37.261L7.049,37.58L6.74,37.64C6.509,37.64 5.74,38.1 6.47,37.511C6.816,37.245 7.185,37.007 7.569,36.801C7.569,36.64 7.68,36.381 8.12,36.1C8.319,36.1 8.49,36.301 8.62,36.281C8.569,36.22 8.62,36.14 8.62,36.051C8.709,35.916 8.816,35.795 8.939,35.691C9.235,35.439 9.471,35.125 9.629,34.77C9.569,34.93 9.689,35.071 9.75,35.06L9.819,34.68C10.12,34.511 10.189,34.5 10.24,34.68C11.04,34.011 9.7,34.571 10.74,33.881C10.68,33.961 10.74,33.95 10.609,34.12C11.609,33.361 12.27,32.39 13.189,31.711C13.68,31.711 12.52,32.45 13,32.41C14.169,31.261 15.21,29.81 16.439,28.801L16.2,28.97C16.02,28.45 17.2,28.361 17.66,27.64C17.54,27.801 17.66,28.02 17.66,27.941C18.621,27.059 19.508,26.099 20.31,25.071L20.25,25.301C20.799,24.961 21.54,24.22 22.089,23.79C22.149,23.56 22.46,23.31 22.149,23.33C24.22,22.441 24.879,20.33 26.689,19.47C26.529,19.631 26.37,19.921 26.5,19.801L27.609,18.631C27.37,18.551 27.359,18.631 27,18.77C27.135,18.433 27.347,18.132 27.62,17.89C27.189,18.481 27.87,18.151 28.18,18.02C28.1,18.02 28.12,17.881 28.06,17.85C28.939,17.571 27.859,17.43 28.89,16.85L28.89,16.97C29.132,16.61 29.41,16.275 29.72,15.97C30.04,16.031 29.46,16.37 29.58,16.54C30.049,16.091 30.21,15.321 30.81,15.111C30.66,15.35 30.359,15.62 30.21,15.861C30.609,15.751 30.974,15.541 31.27,15.25L32.169,14.6L31.91,14.731C32.069,13.731 33.049,13.531 33.569,12.47C33.06,13.47 33.569,12.761 33.73,13.031C34,12.901 34.37,12.68 34.339,12.821C34.56,12.301 35.1,12.37 35.41,11.62C35.49,11.62 35.819,11.261 35.89,11.511C36.339,11 35.669,11.511 35.629,11.37C36.18,10.441 37.689,10.011 38.5,8.68C39.33,7.68 39.299,7.281 40.07,6.361C40.469,6.201 40.07,6.83 40.07,6.83C40.569,6.536 41.002,6.141 41.339,5.671C41.339,5.821 41.45,5.781 41.66,5.731C42,5.381 41.66,5.261 42.24,4.921C42.245,5.129 42.208,5.337 42.129,5.531C42.5,5.08 42.809,4.531 43.19,4.091C43.419,4.091 43.089,4.52 43.009,4.741C43.46,4.231 44.2,3.451 44.179,3.12L43.799,3.35C43.969,3.171 44.04,3.421 43.94,3.58C43.65,4.12 43.259,4.08 43.179,4.031L43.45,3.701C42.759,3.591 42.24,4.921 41.589,5.481L41.589,4.951L41.16,5.781C40.96,5.841 40.71,5.781 40.99,5.43C40.4,5.701 40.679,5.901 40.139,6.1C40.07,6.1 40.08,6.1 40.139,6.031L39.769,6.531C39.769,6.39 39.509,6.39 39.82,6.18C38.819,6.741 38.73,7.58 38.23,7.631L38.279,7.551C37.279,8.671 38.37,7.87 37.77,8.881L36.77,8.881L36.85,9.191C36.73,9.29 36.49,9.481 36.45,9.361C36.16,9.89 36.609,9.361 36.45,9.75C35.72,10.06 35.02,11.231 34.58,11C34.58,11.35 35.22,10.651 34.74,11.301C34.24,11.08 34.12,11.981 33.46,12.301C33.46,11.97 34.009,11.64 33.35,11.93C33.35,12.531 32.35,12.75 31.939,13.2C32.149,13.481 31.12,14.151 30.48,14.89C29.709,15.375 28.971,15.91 28.27,16.49L28.27,16.43C28.379,16.801 27.649,17.43 27.2,17.89C27.08,17.711 27.109,17.571 27.319,17.25L26.85,17.68C26.779,17.938 26.637,18.171 26.439,18.35L26.379,18.051C25.784,18.785 25.114,19.455 24.379,20.051C24.5,20.27 25.48,19.97 24.74,20.861C24.62,20.79 24.439,20.651 24.62,20.41C24.532,20.575 24.405,20.717 24.25,20.821L24.439,20.35C24.009,20.611 24.379,20.66 24.069,20.91C23.95,20.77 23.77,21.011 23.71,20.861C23.649,20.711 24.009,20.691 24.069,20.531C23.757,20.787 23.392,20.971 23,21.071C23.1,21.12 23.169,21.261 23,21.5C22.39,22.08 22.629,21.5 22.21,21.79C22.14,22.02 21.66,22.281 21.839,22.5C21.72,22.599 21.562,22.64 21.41,22.611C21.169,22.99 19.93,24.011 20.49,23.901L20.589,23.841L20.54,23.89C19.68,25.071 18.24,25.781 17.279,26.83L17.22,26.761C16.619,27.344 16.064,27.972 15.56,28.64C15.37,28.801 15.009,28.91 15.009,28.75C14.69,29.211 14.278,29.599 13.799,29.89C14.169,29.33 13.54,29.89 14.21,29.35C13.54,29.861 13.299,29.87 12.799,30.671C12.87,30.29 12.129,30.881 11.879,31.2L12.439,30.93C12.15,31.229 11.839,31.507 11.509,31.761L11.509,31.381C9.979,32.261 9.66,33.961 8.259,34.381C8.069,34.85 9.049,33.87 8.93,34.381C8.607,34.625 8.254,34.826 7.879,34.981C7.508,35.176 7.151,35.396 6.81,35.64C6.029,36.24 5.81,36.571 5.74,36.83C5.574,37.27 5.268,37.642 4.87,37.89C5.279,37.66 5.939,37.47 5.49,38.02C5.31,38.174 5.119,38.314 4.919,38.441C5.02,38.58 4.49,38.85 3.72,38.921C3.841,38.793 3.988,38.691 4.149,38.62C4.31,38.41 4.589,38.091 3.95,38.511L4.1,38.511C3.91,38.64 3.689,38.821 3.45,39C4.02,39.06 4.85,39.091 4.27,39.22C5.49,39.12 5.02,39.04 4.479,38.981C5.11,39.048 5.745,39.074 6.379,39.06C7.029,39.06 7.66,39.06 8.47,39.06C8.229,39 8.089,38.87 8.33,38.87C8.709,38.899 9.09,38.899 9.47,38.87C9.709,38.87 9.72,38.87 9.79,38.79C9.859,38.711 9.939,38.611 10.46,38.591C11.06,38.761 10.25,39 11.299,38.85C11.939,38.97 11.43,39.151 11.18,39.24C11.961,39.161 12.751,39.225 13.509,39.43L13.009,39.52C13.271,39.475 13.535,39.459 13.799,39.47L13.52,39.24C13.81,39.24 14.06,39.24 14.049,39.381C14.359,39.23 13.819,39 14.43,38.801C14.819,38.91 15.62,38.671 15.759,38.97C14.52,38.87 15.899,39.27 14.85,39.321C15.095,39.286 15.344,39.286 15.589,39.321C15.64,39.321 15.589,39.381 15.47,39.401C16.649,39.671 16.009,39.06 17.24,39.071C17.08,39.23 17.529,39.39 17.73,39.35C17.23,39.35 17.49,39.071 17.939,38.941C18.73,39.071 18.799,38.841 19.21,38.861L18.74,38.79C18.899,38.631 19.29,38.651 19.839,38.591C19.89,38.73 19.339,38.691 19.54,38.74C20.149,38.45 20.91,39.051 21.759,38.85C22.16,38.97 21.759,39.171 22.149,39.25C23.149,39.031 23.149,39.48 24.149,39.301C23.859,39.071 23.81,39.12 24.509,38.901L22.74,39.071L23.79,38.74C23.299,38.74 22.79,38.89 22.45,38.85C22.95,38.66 22.899,38.72 22.66,38.531C23.339,38.87 24.009,38.33 24.79,38.531L24.79,39.091C25.97,39.341 26.879,38.801 28.419,38.95L27.919,38.85C28.129,38.631 28.919,38.85 29.37,38.731C29.319,38.91 29.629,38.981 29.839,39.1C29.839,38.961 30.96,39.1 31.1,38.74L31.79,38.981C33.02,39.091 33.2,38.45 34.39,38.511C34.029,38.72 34.569,38.85 33.77,39C34.169,39 34.529,39 34.529,38.901C34.759,39.02 35.629,38.651 36,38.83C36.169,38.75 36.22,38.551 36.669,38.56L36.669,38.66C36.669,38.66 37.37,38.531 36.98,38.321C37.15,38.397 37.328,38.457 37.509,38.5C37.643,38.541 37.78,38.568 37.919,38.58C38.219,38.6 38.52,38.6 38.819,38.58C38.763,39.037 38.564,39.464 38.25,39.801C38.089,40.58 37.85,41.651 37.64,42.401C37.64,42.33 37.549,42.401 37.64,42.231C37.169,43.231 37.98,43.02 37.45,44.15C36.98,44.671 37.45,43.481 37.25,43.82C36.609,43.82 36.919,45.28 36.339,45.97L36.339,45.77C35.96,46.32 36.129,47.32 35.799,48.31C35.799,48.31 35.799,48.251 35.71,48.31C35.726,49.345 35.605,50.378 35.35,51.381C35.2,51.011 35.35,50.911 35.06,51.02C34.97,51.461 35.48,51.02 35.299,51.881C35.089,52.121 34.799,52.711 34.52,52.72L34.74,51.911C34.299,52.23 34.45,52.911 34.27,53.371L34.14,53.27C33.83,54.52 34.14,54.65 33.77,55.97L33.919,55.86C34.06,56.701 33.54,56.421 33.589,57.22L33.169,57.341C33.169,57.591 33.1,58.03 33.06,58.53L32.96,59.291C32.91,59.6 32.859,59.89 32.81,60.14C32.78,59.955 32.78,59.766 32.81,59.581C32.81,59.371 32.81,59.14 32.859,58.9C32.859,58.48 32.93,58.051 32.939,57.72C32.87,57.961 32.759,58.36 32.68,58.72C32.588,59.08 32.541,59.449 32.54,59.82C32.54,59.68 32.54,59.511 32.6,59.36C32.66,59.211 32.6,59.19 32.6,59.121C32.615,59.067 32.638,59.016 32.669,58.97C32.69,59.183 32.69,59.397 32.669,59.61C32.669,59.844 32.649,60.074 32.609,60.301C32.542,60.812 32.432,61.317 32.279,61.81C31.692,62.473 31.301,63.288 31.149,64.161C30.778,65.464 30.299,66.735 29.72,67.961C29.72,68.14 29.66,68.32 29.62,68.511C30.68,67.341 31.48,66.61 32.41,65.751C33.339,64.89 34.41,63.97 35.509,62.751C34.509,62.921 36.21,62.03 35.79,61.621C36.009,61.381 36.16,61.22 36.259,61.131C36.359,61.041 36.379,61.02 36.41,61.02L37.669,60.251C38.029,60.131 37.439,60.661 37.569,60.72C38.33,60.02 38.049,60.591 38.649,60.211C38.399,60.211 38.649,59.74 39.169,59.381L38.39,59.78C39.19,58.541 39.62,59.24 40.44,57.99L40.24,58.44C40.69,57.841 42.24,56.44 42.389,55.64C42.53,55.64 42.769,55.581 42.559,55.841C43.879,54.621 45.04,52.671 46.23,51.841L46.23,52.041C46.44,51.77 46.45,51.44 46.849,51.24C46.849,51.301 46.849,51.44 46.969,51.341C47.177,50.938 47.46,50.579 47.799,50.28L47.639,50.661C49.009,49.551 49.269,48.48 50.24,47.371C50.53,47.671 51.599,46.801 52.129,46.371L52.129,46.43C53.356,45.121 54.498,43.734 55.549,42.281C56.7,41.77 58.49,39.611 60,38.461C59.75,38.611 59.809,38.191 60,37.93C60.37,37.68 60.66,36.861 60.879,37.18L60.769,37.29C61.269,37.29 61.839,36.6 62.349,36.111L62.08,35.671C63.9,34.881 65.32,32.051 66.5,31.79C66.73,31.39 67.12,31 67.349,30.591L67.519,30.801C67.98,30.39 68.33,30.08 68.69,29.73L69.4,29.02L70.66,27.72C70.606,27.861 70.546,28.011 70.48,28.171C71.089,27.571 71.2,27.171 71.2,26.91C71.2,26.651 71.099,26.441 71.48,26.051L72.57,25.531L73.389,24.73C72.389,24.73 71.389,24.631 70.25,24.6C69.69,24.6 69.11,24.6 68.519,24.6C68.24,24.6 67.95,24.6 67.66,24.651C67.42,24.66 67.183,24.69 66.95,24.74C66.96,24.697 66.985,24.658 67.019,24.631C67.019,24.631 67.15,24.56 67.389,24.551L67,24.551L66.589,24.551C66.309,24.551 65.99,24.551 65.71,24.551C65.15,24.551 64.71,24.62 64.83,24.901C64.83,24.54 63.269,24.901 62.46,25.02L62.589,24.761C62.091,25.084 61.513,25.263 60.919,25.281C60.69,25.281 60.719,25.071 61.019,25.14C60.259,25 60.429,25.39 59.509,25.25L59.849,25.08C59.446,25.019 59.034,25.116 58.7,25.35C58.21,25.45 57.219,25.281 57.11,25.04C56.836,25.281 56.466,25.381 56.11,25.31C56.04,25.22 56.21,25.171 56.299,25.14C54.99,24.961 54.36,25.45 53.46,25.14C53.442,25.064 53.384,25.003 53.309,24.981C54.309,24.981 55.179,24.981 55.099,24.981C55.099,24.731 54.259,24.691 54.929,24.35C54.086,24.669 53.191,24.828 52.29,24.821C52.247,24.803 52.21,24.776 52.179,24.74L52.269,24.74C52.097,24.71 51.921,24.71 51.75,24.74C51.529,24.698 51.304,24.675 51.08,24.671C50.98,24.47 50.08,24.56 49.7,24.551C49.7,24.821 49.19,24.77 49.7,24.99C49.629,24.99 49.78,24.99 50.059,24.99C50.116,24.997 50.173,24.997 50.23,24.99L51.23,24.99C50.881,25.173 50.474,25.209 50.099,25.091C49.911,25.244 49.713,25.388 49.509,25.52C48.94,25.151 47.839,24.95 47.69,24.72C46.41,24.87 44.69,24.821 43.879,25.321C43.519,25.381 43.469,25.18 43.33,25.1C43.523,25.08 43.714,25.04 43.9,24.981C43.179,25.111 41.759,25.031 41.58,25.381C40.669,25.22 42.099,25.06 40.839,25.12L41,25.071L40.679,25.071L40.54,25.02C40.463,25.011 40.386,25.011 40.309,25.02C40.103,25.036 39.899,25.073 39.7,25.131C39.595,24.808 39.575,24.464 39.639,24.131C39.779,23.363 40.064,22.63 40.48,21.97C40.379,22.14 40.33,22.22 40.259,22.24C41.49,19.361 41.879,16.011 43.259,13.24C43.48,12.765 43.537,12.231 43.419,11.72L43.75,11.62L43.75,10.62C43.9,9.31 45.089,8.691 45.129,6.991L44.87,7.071C45.08,6.52 45.309,5.261 45.49,5.421C45.404,5.286 45.404,5.115 45.49,4.981L45.639,4.981L45.82,3.52C46.259,2.52 46.339,3.87 46.82,2.31C46.94,1.721 46.91,0.531 46.75,0.721C46.589,0.91 46.469,1.29 46.32,1.261L46.41,0.711C46.019,0.481 45.71,-0.059 45.009,1.151L45.009,2.151L44.71,2.381L45,1.631C44.779,1.914 44.699,2.281 44.78,2.631C44.626,2.682 44.5,2.794 44.429,2.941L44.559,3.941C44.36,4 44.36,3.441 44.08,4.011C44.139,4.491 44.57,3.731 44.48,4.461C44.16,4.83 44.04,4.66 44.04,5.221C43.91,5.221 43.879,5.131 43.889,4.91C43.889,5.401 43.57,6.131 43.73,6.43C43.349,6.81 43.309,7.981 42.929,7.821C42.99,8.26 42.973,8.707 42.879,9.14C42.639,8.221 42.37,10.691 41.879,10.33C42.139,11.031 41.44,12.421 41.37,13.5C41.37,13.43 41.37,13.301 41.37,13.22C41.215,13.577 41.017,13.913 40.78,14.22C41.12,14.401 40.929,15.301 41,15.841C40.44,16.43 40.71,15.301 40.32,15.41C40.62,15.461 40.23,16.7 40.549,16.54C40.169,17 40.299,16.961 39.919,17.14C40.339,17.37 39.839,17.651 39.98,18.14C39.53,18.83 39.5,18.2 39.379,19.08C39.139,19.551 39.21,18.75 39.21,18.75Z" style="fill:rgb(148,188,229);fill-rule:nonzero;"/>
        <path d="M50,25.071L49.879,25.071L50.049,25.131L50.139,25.051L50,25.071Z" style="fill:rgb(148,188,229);fill-rule:nonzero;"/>
        <path d="M20.43,23.861L20.509,23.861L20.43,23.861Z" style="fill:rgb(148,188,229);fill-rule:nonzero;"/>
        <path d="M64.58,30.401L64.629,30.45L64.7,30.301L64.58,30.401Z" style="fill:rgb(148,188,229);fill-rule:nonzero;"/>
        <path d="M28.18,18.011C28.18,18.011 28.25,18.011 28.319,18.011C28.39,18.011 28.25,17.99 28.18,18.011Z" style="fill:rgb(148,188,229);fill-rule:nonzero;"/>
        <path d="M31.299,15.24L31.799,14.91C31.569,15.071 31.419,15.151 31.299,15.24Z" style="fill:rgb(148,188,229);fill-rule:nonzero;"/>
        <path d="M33.759,13.171C33.768,13.131 33.768,13.09 33.759,13.051L33.759,13.171Z" style="fill:rgb(148,188,229);fill-rule:nonzero;"/>
        <path d="M18.83,37.071L19,37.071C19.24,36.981 19,37 18.83,37.071Z" style="fill:rgb(148,188,229);fill-rule:nonzero;"/>
        <path d="M7.52,36.761C7.525,36.824 7.525,36.887 7.52,36.95C7.669,36.821 7.77,36.731 7.52,36.761Z" style="fill:rgb(148,188,229);fill-rule:nonzero;"/>
        <path d="M35.779,36.731L35.879,36.731L35.779,36.731Z" style="fill:rgb(148,188,229);fill-rule:nonzero;"/>
        <path d="M7.149,37.261C7.399,37.111 7.47,37.031 7.5,36.95C7.359,37.071 7.16,37.191 7.149,37.261Z" style="fill:rgb(148,188,229);fill-rule:nonzero;"/>
        <path d="M44.099,3.881L44.219,3.781L44.099,3.881Z" style="fill:rgb(148,188,229);fill-rule:nonzero;"/>
        <path d="M44.2,3.741L44.309,3.6C44.25,3.651 44.2,3.701 44.2,3.741Z" style="fill:rgb(148,188,229);fill-rule:nonzero;"/>
        <path d="M44.53,3.301L44.309,3.6C44.4,3.511 44.519,3.421 44.53,3.301Z" style="fill:rgb(148,188,229);fill-rule:nonzero;"/>
        <path d="M40.879,6.651L40.879,6.761C40.897,6.726 40.897,6.685 40.879,6.651Z" style="fill:rgb(148,188,229);fill-rule:nonzero;"/>
        <path d="M40,7.54C40.363,7.352 40.699,7.117 41,6.841L41,6.761C40.86,7 40.049,7.231 40,7.54Z" style="fill:rgb(148,188,229);fill-rule:nonzero;"/>
        <path d="M35.16,10.301L36.009,9.62C35.799,9.68 35.529,9.741 35.87,9.39C34.66,10.071 36.24,9.37 35.16,10.301Z" style="fill:rgb(148,188,229);fill-rule:nonzero;"/>
        <path d="M32.589,12.45C32.98,12.02 32.48,12.341 32.46,12.281C32.259,12.6 32.21,12.68 32.589,12.45Z" style="fill:rgb(148,188,229);fill-rule:nonzero;"/>
        <path d="M14.71,28.81L14.589,28.591C14.279,28.921 14.649,28.66 14.71,28.81Z" style="fill:rgb(148,188,229);fill-rule:nonzero;"/>
        <path d="M12.14,32.87L12.56,32.68L12.56,32.381L12.14,32.87Z" style="fill:rgb(148,188,229);fill-rule:nonzero;"/>
        <path d="M8.95,33.43L9.069,33.281L8.58,33.841L8.95,33.43Z" style="fill:rgb(148,188,229);fill-rule:nonzero;"/>
        <path d="M38,39.421L38.37,39.24C38.379,39.071 38,39.31 38,39.421Z" style="fill:rgb(148,188,229);fill-rule:nonzero;"/>
        <path d="M33.609,55.74C33.346,55.974 33.208,56.319 33.24,56.671C33.381,56.368 33.505,56.057 33.609,55.74Z" style="fill:rgb(148,188,229);fill-rule:nonzero;"/>
        <path d="M62.99,35.401L62.809,35.72L63.219,35.191L62.99,35.401Z" style="fill:rgb(148,188,229);fill-rule:nonzero;"/>
        <path d="M1.18,78.761L1.18,76.4L3.54,76.4" style="fill:none;stroke:rgb(239,125,5);stroke-width:2.36px;"/>
        <path d="M8.14,76.4L70.259,76.4" style="fill:none;stroke:rgb(239,125,5);stroke-width:2.36px;stroke-dasharray:4.6,4.6;"/>
        <path d="M72.57,76.4L74.919,76.4L74.919,78.761" style="fill:none;stroke:rgb(239,125,5);stroke-width:2.36px;"/>
        <path d="M74.919,81.461L74.919,83.82L72.57,83.82" style="fill:none;stroke:rgb(239,125,5);stroke-width:2.36px;"/>
        <path d="M67.96,83.82L5.839,83.82" style="fill:none;stroke:rgb(239,125,5);stroke-width:2.36px;stroke-dasharray:4.6,4.6;"/>
        <path d="M3.54,83.82L1.18,83.82L1.18,81.461" style="fill:none;stroke:rgb(239,125,5);stroke-width:2.36px;"/>
        <path d="M9.049,34.111L9.049,31.75L11.41,31.75" style="fill:none;stroke:rgb(239,125,5);stroke-width:2.36px;"/>
        <path d="M16.24,31.75L62.11,31.75" style="fill:none;stroke:rgb(239,125,5);stroke-width:2.36px;stroke-dasharray:4.83,4.83;"/>
        <path d="M64.53,31.75L66.889,31.75L66.889,34.111" style="fill:none;stroke:rgb(239,125,5);stroke-width:2.36px;"/>
        <path d="M66.889,38.551L66.889,71.82" style="fill:none;stroke:rgb(239,125,5);stroke-width:2.36px;stroke-dasharray:4.44,4.44;"/>
        <path d="M66.889,74.041L66.889,76.4L64.53,76.4" style="fill:none;stroke:rgb(239,125,5);stroke-width:2.36px;"/>
        <path d="M59.7,76.4L13.819,76.4" style="fill:none;stroke:rgb(239,125,5);stroke-width:2.36px;stroke-dasharray:4.83,4.83;"/>
        <path d="M11.41,76.4L9.049,76.4L9.049,74.041" style="fill:none;stroke:rgb(239,125,5);stroke-width:2.36px;"/>
        <path d="M9.049,69.61L9.049,36.33" style="fill:none;stroke:rgb(239,125,5);stroke-width:2.36px;stroke-dasharray:4.44,4.44;"/>
    </g>
</svg>
