<?xml version="1.0" encoding="UTF-8" standalone="no"?>
<!DOCTYPE svg PUBLIC "-//W3C//DTD SVG 1.1//EN" "http://www.w3.org/Graphics/SVG/1.1/DTD/svg11.dtd">
<svg width="100%" height="100%" viewBox="0 0 76 85" version="1.1" xmlns="http://www.w3.org/2000/svg" xmlns:xlink="http://www.w3.org/1999/xlink" xml:space="preserve" xmlns:serif="http://www.serif.com/" style="fill-rule:evenodd;clip-rule:evenodd;stroke-miterlimit:1.41421;">
    <g>
        <path d="M1.25,54.64C1.252,55.476 1.387,56.306 1.649,57.1" style="fill:none;stroke:rgb(239,125,5);stroke-width:2.5px;"/>
        <path d="M4.919,61.921C10.819,67.411 23.22,71.19 37.569,71.19C57.629,71.19 73.889,63.801 73.889,54.68C73.889,46.4 60.48,39.551 42.99,38.361" style="fill:none;stroke:rgb(239,125,5);stroke-width:2.5px;stroke-dasharray:4.88,5.85;"/>
        <path d="M40.07,38.18C39.24,38.18 38.41,38.18 37.569,38.18" style="fill:none;stroke:rgb(239,125,5);stroke-width:2.5px;"/>
        <path d="M65.74,70.921C65.74,63.85 53.129,58.121 37.569,58.121C22.009,58.121 9.399,63.921 9.399,70.921C9.399,77.921 22,83.751 37.569,83.751C53.139,83.751 65.74,78.01 65.74,70.921Z" style="fill:none;stroke:rgb(239,125,5);stroke-width:2.5px;stroke-dasharray:5.12,5.12;"/>
        <path d="M6.77,39.151C6.689,39.151 6.5,39.051 6.52,39.151L6.83,39.29L6.77,39.151Z" style="fill:rgb(148,188,229);fill-rule:nonzero;"/>
        <path d="M6.089,39.25C6.291,39.402 6.523,39.508 6.77,39.56C6.479,39.41 6.609,39.441 6.27,39.27C6.27,39.211 6.399,39.22 6.509,39.27C6.439,39.27 6.6,39.22 6.419,39.131C6.24,39.04 6.12,39.131 6.29,39.321C6.219,39.309 6.151,39.286 6.089,39.25Z" style="fill:rgb(148,188,229);fill-rule:nonzero;"/>
        <path d="M4.18,43.39L4.229,43.39L4.18,43.39Z" style="fill:rgb(148,188,229);fill-rule:nonzero;"/>
        <path d="M3.169,46.02L3.109,45.97C3.122,45.995 3.144,46.012 3.169,46.02Z" style="fill:rgb(148,188,229);fill-rule:nonzero;"/>
        <path d="M2.68,46.371C2.68,46.371 2.649,46.35 2.68,46.371Z" style="fill:rgb(148,188,229);fill-rule:nonzero;"/>
        <path d="M4.18,43.39L4.06,43.39C4.16,43.47 4.149,43.421 4.18,43.39Z" style="fill:rgb(148,188,229);fill-rule:nonzero;"/>
        <path d="M6.649,40.091C6.631,40.066 6.607,40.045 6.58,40.03L6.649,40.091Z" style="fill:rgb(148,188,229);fill-rule:nonzero;"/>
        <path d="M4.31,42.131L4.189,42.071L4.31,42.131Z" style="fill:rgb(148,188,229);fill-rule:nonzero;"/>
        <path d="M4.549,41.211C4.667,41.276 4.791,41.329 4.919,41.37C4.81,41.321 4.759,41.29 4.75,41.26L4.549,41.211Z" style="fill:rgb(148,188,229);fill-rule:nonzero;"/>
        <path d="M4,42.76L3.899,42.76L4,42.76Z" style="fill:rgb(148,188,229);fill-rule:nonzero;"/>
        <path d="M17.23,54.36L17.22,54.371L17.22,54.53L17.23,54.36Z" style="fill:rgb(148,188,229);fill-rule:nonzero;"/>
        <path d="M2.069,47.1C2.069,47.1 2.06,47.081 2.069,47.1Z" style="fill:rgb(148,188,229);fill-rule:nonzero;"/>
        <path d="M1.52,55.49C1.52,55.24 1.97,55.18 1.97,54.9C1.919,55.01 1.45,55.32 1.52,55.49Z" style="fill:rgb(148,188,229);fill-rule:nonzero;"/>
        <path d="M6.6,40.111C6.6,40.111 6.609,40.12 6.6,40.111Z" style="fill:rgb(148,188,229);fill-rule:nonzero;"/>
        <path d="M2,54.921" style="fill:rgb(148,188,229);fill-rule:nonzero;"/>
        <path d="M2.47,47.76L2.419,47.76L2.47,47.76Z" style="fill:rgb(148,188,229);fill-rule:nonzero;"/>
        <path d="M1.81,49.921C1.81,49.921 1.74,49.921 1.81,49.97C1.81,49.97 1.759,49.97 1.81,49.921Z" style="fill:rgb(148,188,229);fill-rule:nonzero;"/>
        <path d="M1.58,50.74L1.64,50.74L1.58,50.74Z" style="fill:rgb(148,188,229);fill-rule:nonzero;"/>
        <path d="M13.64,53.19C13.645,53.274 13.645,53.357 13.64,53.44C13.66,53.24 13.779,53.171 13.64,53.19Z" style="fill:rgb(148,188,229);fill-rule:nonzero;"/>
        <path d="M6.5,40.04C6.56,40.04 6.589,40.091 6.6,40.111L6.5,40.04Z" style="fill:rgb(148,188,229);fill-rule:nonzero;"/>
        <path d="M3.93,50.621L3.85,50.73C3.888,50.704 3.916,50.665 3.93,50.621Z" style="fill:rgb(148,188,229);fill-rule:nonzero;"/>
        <path d="M7.83,53.27C7.83,53.27 7.839,53.24 7.83,53.27Z" style="fill:rgb(148,188,229);fill-rule:nonzero;"/>
        <path d="M3.79,51.1C3.72,51.092 3.649,51.092 3.58,51.1L3.79,51.1Z" style="fill:rgb(148,188,229);fill-rule:nonzero;"/>
        <path d="M12,55.6C12,55.6 11.95,55.6 11.939,55.53L12.009,55.53C12,55.51 12,55.56 12,55.6ZM11.43,53.65L11.529,53.65C11.529,53.74 11.529,53.841 11.529,53.841C11.529,53.841 11.46,53.74 11.43,53.661L11.43,53.65ZM11.669,53.65L11.72,53.65L11.669,53.65ZM14.52,52.76C14.39,52.76 14.52,53.121 14.439,53.331C14.359,53.541 14.37,53.06 14.319,52.871C14.23,52.97 14.16,53.31 14.1,53.301C14.089,53.248 14.089,53.193 14.1,53.14C14.009,53.44 13.81,53.14 13.71,53.53C13.705,53.501 13.705,53.47 13.71,53.44C13.718,53.61 13.718,53.781 13.71,53.951C13.649,53.951 13.609,54.18 13.58,53.951C13.58,53.951 13.58,53.86 13.629,53.791L13.58,53.89C13.52,53.551 13.649,53.77 13.649,53.51C13.54,53.631 13.41,53.921 13.33,53.82C13.33,53.48 13.529,53.701 13.41,53.4L13.54,53.53C13.43,53.001 13.62,53.53 13.54,52.99C13.359,52.9 13.35,53.171 13.169,53.081C13.169,53.26 13.169,53.35 13.169,53.541C12.93,53.89 12.96,52.69 12.79,53.15C12.74,53.371 12.73,53.801 12.6,53.581L12.6,53.19C12.43,53.19 12.509,53.751 12.33,53.49C12.33,53.341 12.46,53.36 12.43,53.32C12.31,53.02 12.35,53.541 12.259,53.541L12.259,53.201C12.08,53.201 11.879,53.501 11.689,53.57C11.72,53.466 11.72,53.355 11.689,53.251C11.439,53.43 11.149,53.251 10.91,53.02L10.819,53.31C10.819,53.31 10.819,53.18 10.819,53.121C10.819,53.06 10.819,53.31 10.819,53.43C10.819,53.551 10.75,53.26 10.819,53.171C10.66,53.421 10.35,53.711 10.169,53.39L10.169,53.31C10.04,53.19 10.02,53.911 9.89,53.64L9.89,53.581C9.589,53.461 9.259,53.73 9.029,53.291C9.029,53.711 8.74,53.1 8.72,53.69C8.549,53.4 8.589,53.291 8.359,53.091C8.29,53.091 8.259,53.461 8.18,53.52L8.18,53.211L8,53.53L7.939,53.161L7.87,53.24C7.913,53.309 7.933,53.389 7.93,53.47C7.81,53.6 7.649,53.251 7.64,53.091L7.37,53.35C7.375,53.263 7.406,53.179 7.459,53.11C7.31,53.421 7.459,52.78 7.299,53.11C7.31,53.193 7.31,53.277 7.299,53.36C7.283,53.252 7.181,53.176 7.072,53.193C7.034,53.199 6.999,53.215 6.97,53.24L6.97,53.03C6.77,53.03 6.549,53.131 6.319,53.131C6.395,53.289 6.395,53.472 6.319,53.631L6.319,53.301C6.319,53.501 6.379,53.43 6.319,53.671C6.24,53.671 6.319,53.301 6.319,53.201L6.209,53.31C6.209,53.211 6.209,53.161 6.209,53.041C6.209,53.24 6.04,52.711 5.97,53.041L5.97,52.921C5.74,52.921 5.629,53.03 5.45,53.041C5.45,53.32 5.37,53.26 5.31,53.49C5.18,53.39 5.029,53.171 4.859,53.19C4.689,53.211 4.859,53.43 4.77,53.6C4.77,53.341 4.6,53.36 4.689,53.18C4.498,53.208 4.319,53.296 4.18,53.43C4.18,53.541 4.24,53.581 4.18,53.671C4.12,53.76 4.08,53.56 4.089,53.44C3.95,53.631 3.79,53.44 3.64,53.27C3.49,53.1 3.529,52.951 3.43,53.27C3.387,53.368 3.337,53.462 3.279,53.551C3.279,53.501 3.359,53.36 3.39,53.201C3.14,53.621 3.33,53.131 3.109,53.411C3.35,53.041 3.35,53.051 3.279,53.1C3.209,53.15 3.069,53.22 3.35,52.99L3.14,53.161C2.919,53.331 3.25,53.06 3.299,53.02L3,53.161L2.919,53.161C2.919,53.161 2.99,53.001 3.14,52.9C3.25,52.809 3.38,52.744 3.52,52.711C3.52,52.711 2.52,52.791 3.009,52.711L3.35,52.711C3.16,52.661 3.16,52.711 3.209,52.551C3.295,52.374 3.295,52.167 3.209,51.99C3.279,51.99 3.37,52.06 3.359,52.091C3.609,52.091 3.45,51.841 3.259,51.78C3.259,51.78 3.43,51.78 3.54,51.78C3.649,51.78 3.299,51.52 3.54,51.551C3.54,51.551 3.6,51.551 3.62,51.61C3.64,51.671 3.709,51.4 3.43,51.371C3.589,51.28 3.43,51.091 3.569,51.041C3.29,50.89 3.77,50.871 3.359,50.72C3.79,50.86 3.779,50.61 3.589,50.47C3.72,50.53 3.75,50.47 3.919,50.47C3.919,50.381 3.919,50.27 3.66,50.22C4.229,50.22 3.339,49.76 4.029,49.871C3.897,49.582 3.809,49.275 3.77,48.961C4.2,49.1 3.77,49.24 4.189,49.371C4.08,49.081 3.75,48.841 3.919,48.64C4,48.64 4.1,48.73 4.16,48.78C4.06,48.49 4.339,48.35 4.16,48.07C4.202,48.088 4.24,48.115 4.27,48.15C4.27,48.15 4.359,48.081 4.16,48.02L4.16,48.081C3.859,48.081 3.62,47.74 3.47,47.68C4.009,47.921 3.669,47.52 4.35,47.85C4.283,47.78 4.195,47.734 4.1,47.72C4.1,47.72 4.229,47.72 4.37,47.78C4.31,47.61 4.08,47.591 4.129,47.47C4.208,47.503 4.285,47.54 4.359,47.581C4.189,47.461 4.029,47.341 4.14,47.251C4.25,47.161 4.279,47.251 4.27,47.32C4.27,47.121 3.87,46.841 4.109,46.69C4.509,46.881 4.27,46.69 4.629,46.76L4.56,46.621L4.419,46.621C4.419,46.52 4.22,46.35 4.419,46.31L4.54,46.421L4.54,46.22L4.37,46.28C4.22,46.131 3.919,46.15 4.06,46.051C4.2,45.951 4.06,45.961 4.319,45.97C4.22,45.89 4.12,45.801 4.229,45.76C4.339,45.72 4.62,45.9 4.7,45.911C4.419,45.77 4.7,45.65 4.39,45.49C4.479,45.544 4.577,45.581 4.68,45.6L4.45,45.49C4.539,45.453 4.64,45.453 4.729,45.49C4.819,45.371 4.27,45.4 4.509,45.291C4.509,45.291 4.569,45.291 4.589,45.36C4.75,45.23 4.589,45.001 4.7,44.881C5.08,44.951 4.75,45.041 5.069,45.091C5.069,44.85 4.779,44.51 4.93,44.331C4.43,44.14 5.229,44.26 5.02,44.08C5.02,44.08 5.29,44.201 5.24,44.171C5.359,44.06 5.24,43.841 5.109,43.58L5.24,43.651C5.379,43.651 5.37,43.45 5.459,43.381C5.339,43.31 5.379,43.26 5.18,43.23C6.009,43.23 4.959,42.571 5.649,42.53C5.649,42.53 5.74,42.631 5.75,42.611L5.75,42.361C5.64,42.342 5.529,42.342 5.419,42.361C5.299,42.29 5.22,42.2 5.229,42.151C5.35,42.29 5.589,42.26 5.72,42.26C5.648,42.241 5.578,42.218 5.509,42.191C5.939,42.191 5.08,42.03 5.39,41.961L5.5,41.961C5.5,41.881 5.33,41.78 5.379,41.731C5.64,41.79 5.479,41.83 5.689,41.901C5.689,41.81 5.259,41.58 5.54,41.58C5.6,41.64 5.54,41.7 5.64,41.75C5.97,41.75 5.89,41.75 5.959,41.691L6.14,41.591L5.879,41.591C5.25,41.27 5.879,41.33 5.45,41.051C5.81,41.321 5.68,41.151 5.959,41.26C6.051,41.236 6.148,41.236 6.24,41.26C6.029,41.12 6.45,41.26 6.149,41C6.24,41 6.149,40.93 6.41,41C6.41,40.89 6.24,41 6.129,40.93C5.85,40.691 6.609,40.73 6.24,40.401C6.12,40.171 5.819,40.03 5.72,39.83C5.841,39.841 5.954,39.894 6.04,39.981C6.209,39.981 6.2,39.87 6.12,39.75C6.2,39.792 6.289,39.813 6.379,39.81C6.379,39.74 6.06,39.66 6.229,39.62C6.399,39.58 6.479,39.74 6.58,39.81C6.52,39.7 6.37,39.571 6.31,39.461C6.434,39.5 6.547,39.568 6.64,39.66C6.604,39.486 6.484,39.34 6.319,39.27L6.209,39.27C6.209,39.27 6.439,39.33 6.47,39.37C6.649,39.51 6.35,39.45 6.25,39.421L6.25,39.35C5.689,39.22 6.25,39.6 6.25,39.7L5.87,39.52L6.16,39.75C6.049,39.75 5.819,39.68 5.779,39.6C5.56,39.6 5.899,39.72 5.66,39.72C5.66,39.72 5.6,39.72 5.589,39.72L5.68,39.841C5.6,39.841 5.399,39.76 5.47,39.73C5.189,39.801 5.689,40.06 5.37,40.01C5.439,40.25 5.66,40.131 5.95,40.39L5.2,40.25L5.479,40.37L5.319,40.37C5.49,40.51 5.45,40.37 5.62,40.5C5.319,40.5 5.62,40.81 5.18,40.68C5.39,40.79 5.39,40.68 5.5,40.801C5,40.671 5.549,40.95 5.29,40.961C5.029,40.97 5.209,40.81 4.95,40.83C5.37,41.02 4.799,40.97 4.859,41.071C5.2,41.191 4.95,41.28 5.02,41.45C4.91,41.45 4.75,41.62 4.589,41.7L4.529,41.7C4.87,41.83 4.77,41.93 4.81,42.051C4.675,42.013 4.552,41.945 4.45,41.85L4.45,41.941C4.56,41.99 4.609,42.04 4.629,42.111L4.379,42C4.379,42.12 4.609,42.321 4.379,42.41C4.62,42.5 5.1,42.51 5.209,42.72C5.069,42.688 4.934,42.634 4.81,42.56C4.81,42.56 4.91,42.64 4.81,42.651L4.609,42.51C4.49,42.51 4.779,42.611 4.75,42.651C4.56,42.591 4.6,42.651 4.45,42.591C4.299,42.53 4.54,42.591 4.45,42.53C4.348,42.593 4.227,42.614 4.109,42.591C4.22,42.591 4.359,42.671 4.37,42.72C4.379,42.77 4.14,42.72 4.02,42.72C4.14,42.79 4.02,42.821 4.259,42.91C4.259,42.91 4.12,42.91 4.04,42.91C4.14,43.01 3.99,43.191 4.31,43.22C4.529,43.49 4.029,43.56 4.089,43.78L4,43.921C4.08,44.071 4,44.191 4.169,44.331C4.169,44.331 3.97,44.331 3.859,44.331C3.859,44.43 4.009,44.48 3.81,44.551C3.68,44.411 3.66,44.551 3.72,44.43C3.609,44.51 3.45,44.49 3.72,44.69C3.49,44.57 3.39,44.69 3.439,44.751L3.64,44.751C3.646,44.81 3.624,44.87 3.58,44.911L3.27,44.78C2.81,44.89 3.799,45.4 3.1,45.371C3.299,45.501 3.299,45.291 3.54,45.43C3.459,45.52 2.97,45.49 2.959,45.52C2.74,45.61 3.379,45.801 3.22,45.911C3.339,45.911 3.649,46.001 3.72,46.14C3.64,46.24 3.2,46.14 3.129,46.03C3.06,45.921 3.129,46.03 3.209,46.03C3.172,45.956 3.093,45.912 3.009,45.921L3,45.921C2.859,45.921 2.83,46.091 2.66,45.99C2.715,46.059 2.815,46.071 2.884,46.015C2.894,46.009 2.902,46 2.91,45.99C2.7,46.081 2.839,46.201 2.689,46.31C2.75,46.31 2.89,46.31 2.89,46.31C2.68,46.47 3.069,46.461 3.08,46.61C2.89,46.61 2.68,46.461 2.779,46.61C2.64,46.661 2.47,46.541 2.39,46.48C2.569,46.671 2.18,46.671 2.109,46.73L2.04,46.631C2.062,46.671 2.062,46.72 2.04,46.76L2.279,46.76C2.279,46.76 2.22,46.82 2.12,46.76C2.259,46.841 2.509,46.841 2.689,46.98C2.56,46.98 2.77,47.18 2.459,47.1C2.609,46.97 2.149,47.03 2.14,46.881C2.14,46.921 2.14,46.951 2.14,46.97C2.114,46.981 2.085,46.981 2.06,46.97C1.75,47.051 2.379,47.15 2.33,47.31C2.16,47.24 1.99,47.251 2.02,47.31C2.049,47.371 2.31,47.31 2.43,47.461C2.259,47.53 2.49,47.6 2.43,47.65L2.509,47.65C2.669,47.72 2.629,47.77 2.669,47.86C2.529,47.86 2.6,47.76 2.529,47.77C2.799,47.94 2.169,47.86 2.33,48.03C2.2,48.03 2.009,47.94 1.919,47.961C2.1,48.161 1.649,48.03 1.79,48.22C2.029,48.22 1.97,48.22 2.169,48.381L2.069,48.121L2.359,48.36C2.359,48.291 2.259,48.18 2.359,48.15C2.529,48.27 2.47,48.251 2.669,48.27C2.299,48.27 2.819,48.51 2.56,48.551L2,48.44C1.7,48.52 2.209,48.81 2,48.97L2.109,48.97C2.33,49.07 2.109,49.11 2.18,49.201C2.053,49.164 1.921,49.146 1.79,49.15C1.93,49.15 1.729,49.291 2.1,49.43L1.819,49.43C1.66,49.57 2.299,49.78 2.189,49.921C2,49.81 1.839,49.841 1.72,49.69C1.72,49.69 1.66,49.78 1.79,49.82C1.66,49.82 2,50.041 1.79,50.041C1.87,50.041 2.06,50.15 2.029,50.201L1.93,50.201C2.029,50.201 2.04,50.331 2.259,50.341C1.62,50.341 2.169,50.801 1.62,50.791C1.638,50.924 1.638,51.057 1.62,51.19C1.56,51.19 1.52,51.19 1.549,51.19C1.33,51.28 2.069,51.44 1.819,51.541C1.569,51.64 1.68,51.411 1.549,51.43C0.919,51.27 1.549,51.65 1.18,51.65C0.95,51.65 1.359,51.921 1.279,52.051C1.247,52.045 1.212,52.045 1.18,52.051C1.393,52.176 1.537,52.394 1.569,52.64C1.33,52.551 1.459,52.541 1.189,52.541C1.189,52.621 1.609,52.541 1.64,52.73C1.447,52.803 1.245,52.851 1.04,52.871L1.04,52.711C0.649,52.77 0.99,52.93 0.899,53.01L0.81,53.01C0.81,53.291 1.209,53.23 1.109,53.48L1.25,53.421C1.649,53.421 0.97,53.6 1.25,53.631L0.79,53.82C0.87,53.89 1.149,53.98 1.2,54.06C0.994,54.13 0.767,54.096 0.589,53.97C0.589,54.081 0.52,54.31 0.74,54.251C0.74,54.251 0.609,54.251 0.689,54.161C1.02,54.161 1.169,54.161 1.12,54.301C0.279,54.77 0.66,54.89 0.12,55.4C0.086,55.453 0.046,55.5 0,55.541C0.72,55.28 0.649,55.68 1.2,55.65C1.529,55.07 1.35,55.65 1.799,55.041C1.91,55.041 1.939,55.041 1.919,55.041C1.921,55.162 1.938,55.283 1.97,55.4C1.97,55.581 1.79,55.53 1.709,55.671C1.93,55.671 1.66,55.93 1.709,56.091C1.79,55.871 1.97,55.78 2.08,55.871C2.051,55.778 2.028,55.685 2.009,55.591C2.479,55.27 2.089,56.1 2.589,55.791L2.41,55.98C2.629,55.871 3.16,55.98 3.35,55.51C3.35,55.581 3.419,55.751 3.35,55.801C3.64,55.871 3.93,55.28 4.12,55.591L4.12,55.74C4.12,55.74 4.209,55.461 4.259,55.61C4.31,55.76 4.259,55.76 4.259,55.77C4.259,55.78 4.39,55.51 4.45,55.591L4.45,55.76C4.689,55.961 4.819,55.36 5.029,55.26C4.997,55.512 5.099,55.763 5.299,55.921L5.299,55.98C5.58,56.041 5.779,55.621 6.049,55.451C6.2,55.93 6.589,55.65 6.85,55.921C6.822,55.788 6.844,55.649 6.91,55.53C6.97,55.621 7.08,55.23 7.069,55.631L7,55.631C7,56.02 7.169,55.921 7.27,55.93L7.27,55.4C7.52,56.171 7.939,55.121 8.08,55.81C8.14,55.68 8.22,55.68 8.279,55.551L8.279,55.831C8.428,55.902 8.601,55.902 8.75,55.831L8.7,56.03C8.819,56.03 8.85,55.211 8.959,55.201L8.959,55.621C9.169,55.621 9.379,55.98 9.58,55.621C9.58,55.68 9.58,55.801 9.58,55.82C9.58,55.841 9.959,56.11 9.919,55.53C9.919,55.9 10.14,55.53 10.25,55.39L10.25,55.671C10.35,55.32 10.35,55.22 10.48,55.121C10.609,55.02 10.48,55.341 10.48,55.27C10.58,55.421 10.56,55.01 10.689,55.15L10.64,55.331C10.75,55.331 10.74,55.26 10.799,55.051C10.859,54.841 11,55.121 11.02,55.371C11.02,55.22 11.089,55.01 11.149,55.081C11.164,55.143 11.164,55.208 11.149,55.27C11.33,55.451 11.41,54.94 11.54,55.211C11.531,55.266 11.531,55.324 11.54,55.381C11.399,55.381 11.279,55.381 11.299,55.381C11.299,55.64 11.41,55.68 11.299,56.03C11.39,55.841 11.54,55.421 11.649,55.541L11.649,55.631L11.72,55.631C11.79,55.631 11.779,55.711 11.81,55.711C11.81,55.921 11.95,55.82 12.009,55.831C12.009,55.551 12.069,55.6 12.009,55.36L11.96,55.411C11.91,55.461 11.96,55.411 11.96,55.411L11.819,55.411C11.819,55.27 11.91,55.15 11.97,55.31C11.97,55.131 12.029,54.94 12.049,54.85C12.129,55.24 12.29,55.451 12.31,55.69C12.49,55.53 12.73,55.581 12.83,55.051C12.879,54.99 12.89,55.201 12.91,55.291C12.93,55.381 12.85,55.291 12.83,55.411C12.93,55.27 13.129,55.35 13.14,54.98C13.27,55.15 13.08,55.32 13.25,55.26L13.25,55.371C13.6,55.961 13.79,54.421 14.18,55.171C14.167,55.128 14.167,55.083 14.18,55.041C14.62,55.371 15.06,54.711 15.5,55.23C15.62,55.341 15.629,55.1 15.7,54.921L15.7,55.22L15.819,54.871C15.99,54.61 16.149,55.6 16.359,55.11L16.359,54.911C16.439,54.911 16.609,54.78 16.6,55.02C16.6,55.02 16.6,54.81 16.66,54.911L16.66,54.921L16.85,54.64C17.009,54.751 16.85,55.27 17.069,55.291C17.19,55.125 17.256,54.926 17.259,54.72C17.259,54.72 17.169,54.631 17.16,54.47L17.24,54.381C17.294,53.954 17.24,53.52 17.08,53.121L16.96,53.411L16.91,53.18L17,53.18C16.93,52.97 16.899,53.18 16.859,53.291C16.855,53.204 16.834,53.12 16.799,53.041L16.68,53.491C16.68,53.301 16.73,53.121 16.68,53.02C16.629,53.23 16.75,53.43 16.68,53.57C16.62,53.36 16.629,53.19 16.56,53.371C16.535,53.289 16.535,53.202 16.56,53.121C16.5,53.27 16.39,53.19 16.359,53.43C16.29,53.171 16.14,53.51 16.14,53.07C16.14,53.171 16.029,53.421 15.97,53.44C16.069,52.911 15.75,53.44 15.759,52.85C15.689,53.32 15.47,53.06 15.339,53.331C15.339,53.331 15.339,53.211 15.339,53.24C15.339,53.27 15.23,53.06 15.18,52.97C15.163,53.223 15.099,53.471 14.99,53.701C14.879,53.32 14.99,53.24 14.99,52.871C14.99,53.19 14.83,53.19 14.87,53.461C14.803,53.322 14.762,53.174 14.75,53.02C14.75,53.51 14.68,53.11 14.629,53.411C14.509,53.171 14.629,52.951 14.47,53.1C14.434,52.985 14.453,52.86 14.52,52.76Z" style="fill:rgb(148,188,229);fill-rule:nonzero;"/>
        <path d="M12,55.23L12,55.171L12,55.251L12,55.23Z" style="fill:rgb(148,188,229);fill-rule:nonzero;"/>
        <path d="M8.1,53.131L8.1,53.201L8.12,53.14L8.1,53.131Z" style="fill:rgb(148,188,229);fill-rule:nonzero;"/>
        <path d="M5.799,41.921L5.919,41.87C5.877,41.88 5.836,41.896 5.799,41.921Z" style="fill:rgb(148,188,229);fill-rule:nonzero;"/>
        <path d="M6.069,41.5L5.959,41.5L6.069,41.5Z" style="fill:rgb(148,188,229);fill-rule:nonzero;"/>
        <path d="M4.279,48.28C4.279,48.28 4.31,48.32 4.279,48.28Z" style="fill:rgb(148,188,229);fill-rule:nonzero;"/>
        <path d="M4.259,46.091L4.37,46.201C4.37,46.201 4.41,46.14 4.259,46.091Z" style="fill:rgb(148,188,229);fill-rule:nonzero;"/>
        <path d="M3.939,50.6" style="fill:rgb(148,188,229);fill-rule:nonzero;"/>
        <path d="M4.33,46.291C4.399,46.291 4.399,46.291 4.33,46.201C4.259,46.11 4.299,46.251 4.33,46.291Z" style="fill:rgb(148,188,229);fill-rule:nonzero;"/>
        <path d="M6.799,39.731" style="fill:rgb(148,188,229);fill-rule:nonzero;"/>
        <path d="M6.77,39.7C6.77,39.7 6.74,39.68 6.77,39.7Z" style="fill:rgb(148,188,229);fill-rule:nonzero;"/>
        <path d="M6.7,39.591L6.7,39.66C6.7,39.66 6.77,39.631 6.7,39.591Z" style="fill:rgb(148,188,229);fill-rule:nonzero;"/>
        <path d="M6.49,40.24L6.58,40.24L6.49,40.24Z" style="fill:rgb(148,188,229);fill-rule:nonzero;"/>
        <path d="M6.459,40.421C6.459,40.421 6.7,40.421 6.66,40.31L6.58,40.31C6.72,40.35 6.31,40.33 6.459,40.421Z" style="fill:rgb(148,188,229);fill-rule:nonzero;"/>
        <path d="M5,40.731L5.12,40.611C5.009,40.611 4.859,40.611 4.859,40.51C4.52,40.591 5.129,40.551 5,40.731Z" style="fill:rgb(148,188,229);fill-rule:nonzero;"/>
        <path d="M4.729,41.12C4.729,41.02 4.58,41.071 4.529,41.04C4.479,41.01 4.629,41.14 4.729,41.12Z" style="fill:rgb(148,188,229);fill-rule:nonzero;"/>
        <path d="M3.709,44.301L3.47,44.211C3.479,44.28 3.56,44.24 3.709,44.301Z" style="fill:rgb(148,188,229);fill-rule:nonzero;"/>
        <path d="M4.779,45.301L4.95,45.301L4.729,45.201L4.779,45.301Z" style="fill:rgb(148,188,229);fill-rule:nonzero;"/>
        <path d="M2.919,45.121L2.899,45.081L2.959,45.211L2.919,45.121Z" style="fill:rgb(148,188,229);fill-rule:nonzero;"/>
        <path d="M1.379,50.53L1.689,50.6C1.689,50.6 1.31,50.44 1.379,50.53Z" style="fill:rgb(148,188,229);fill-rule:nonzero;"/>
        <path d="M0.919,53.331C0.74,53.411 0.6,53.551 0.75,53.56C0.899,53.57 1,53.36 0.919,53.331Z" style="fill:rgb(148,188,229);fill-rule:nonzero;"/>
        <path d="M7.45,55.661L7.399,55.76L7.49,55.68L7.45,55.661Z" style="fill:rgb(148,188,229);fill-rule:nonzero;"/>
        <path d="M16.799,52.791C16.799,52.911 16.939,53.041 17.109,52.871L17,52.51L16.799,52.791Z" style="fill:rgb(148,188,229);fill-rule:nonzero;"/>
        <path d="M18.419,52.36C18.549,52.07 18.629,51.65 18.31,51.51C18.31,51.93 18.149,51.86 18.14,52.341C17.98,52.51 17.75,52.49 17.71,52.341C17.71,52.461 17.379,52.501 17.399,52.74C17.801,52.761 18.17,52.518 18.31,52.14C18.419,52.18 18.399,52.301 18.419,52.36Z" style="fill:rgb(148,188,229);fill-rule:nonzero;"/>
        <path d="M37,39.27L36.859,39.27C36.905,39.284 36.954,39.284 37,39.27Z" style="fill:rgb(148,188,229);fill-rule:nonzero;"/>
        <path d="M48.349,31.051C48.269,31.12 48.259,31.171 48.269,31.2C48.28,31.23 48.389,31.06 48.349,31.051Z" style="fill:rgb(148,188,229);fill-rule:nonzero;"/>
        <path d="M50.5,29.921L50.37,29.99C50.429,29.97 50.49,29.921 50.5,29.921Z" style="fill:rgb(148,188,229);fill-rule:nonzero;"/>
        <path d="M37,39.27L37.37,39.131C37.27,39.03 37.12,39.18 37,39.27Z" style="fill:rgb(148,188,229);fill-rule:nonzero;"/>
        <path d="M20.46,49.85C20.412,49.907 20.375,49.971 20.35,50.041L20.48,49.9L20.46,49.85Z" style="fill:rgb(148,188,229);fill-rule:nonzero;"/>
        <path d="M32.14,43.171L32.04,43.24C32.035,43.297 32.035,43.354 32.04,43.41L32.14,43.171Z" style="fill:rgb(148,188,229);fill-rule:nonzero;"/>
        <path d="M28.35,46.041C28.439,46.041 28.299,45.74 28.259,45.621C28.282,45.722 28.256,45.83 28.189,45.911C28.229,45.968 28.285,46.013 28.35,46.041Z" style="fill:rgb(148,188,229);fill-rule:nonzero;"/>
        <path d="M22,50.131L21.91,50.251L22,50.131Z" style="fill:rgb(148,188,229);fill-rule:nonzero;"/>
        <path d="M34.91,41.2L35,41.2C34.971,41.19 34.939,41.19 34.91,41.2Z" style="fill:rgb(148,188,229);fill-rule:nonzero;"/>
        <path d="M15,48.121C15,48.121 15,48.15 15,48.121Z" style="fill:rgb(148,188,229);fill-rule:nonzero;"/>
        <path d="M17.14,53.371L17.08,53.32L16.95,53.4L17.14,53.371Z" style="fill:rgb(148,188,229);fill-rule:nonzero;"/>
        <path d="M54.24,27.591C54.15,27.691 54.2,27.651 54.24,27.591Z" style="fill:rgb(148,188,229);fill-rule:nonzero;"/>
        <path d="M51.66,4.341C52.169,4.27 51.25,5.04 51.969,4.85C51.849,4.801 52.21,4.131 51.66,4.341Z" style="fill:rgb(148,188,229);fill-rule:nonzero;"/>
        <path d="M20.58,49.81L20.74,49.69C20.68,49.721 20.626,49.761 20.58,49.81Z" style="fill:rgb(148,188,229);fill-rule:nonzero;"/>
        <path d="M52,4.85L52.08,4.85L52,4.85Z" style="fill:rgb(148,188,229);fill-rule:nonzero;"/>
        <path d="M62.269,21.43C62.216,21.42 62.163,21.42 62.11,21.43C62.11,21.43 62.169,21.43 62.269,21.43Z" style="fill:rgb(148,188,229);fill-rule:nonzero;"/>
        <path d="M56,25.6L56.169,25.51C56.109,25.532 56.051,25.562 56,25.6Z" style="fill:rgb(148,188,229);fill-rule:nonzero;"/>
        <path d="M65.179,18.78C65.269,18.78 65.32,18.78 65.41,18.64C65.374,18.734 65.279,18.792 65.179,18.78Z" style="fill:rgb(148,188,229);fill-rule:nonzero;"/>
        <path d="M67.549,15.321C67.549,15.321 67.549,15.39 67.549,15.43L67.679,15.58L67.549,15.321Z" style="fill:rgb(148,188,229);fill-rule:nonzero;"/>
        <path d="M8.37,39.33L7.979,39.33L8.089,39.33C8.27,39.381 8.379,39.43 8.33,39.33L8.37,39.33Z" style="fill:rgb(148,188,229);fill-rule:nonzero;"/>
        <path d="M20.56,49.98C20.524,49.929 20.524,49.862 20.56,49.81L20.46,49.9C20.46,49.9 20.52,49.98 20.56,49.98Z" style="fill:rgb(148,188,229);fill-rule:nonzero;"/>
        <path d="M64,16.921L64.54,16.571C64.35,16.673 64.169,16.789 64,16.921Z" style="fill:rgb(148,188,229);fill-rule:nonzero;"/>
        <path d="M31,22.52L30.899,22.631C30.939,22.6 31,22.571 31,22.52Z" style="fill:rgb(148,188,229);fill-rule:nonzero;"/>
        <path d="M65.219,15.99C65.319,16.009 65.42,16.009 65.519,15.99L65.45,15.99L65.219,15.99Z" style="fill:rgb(148,188,229);fill-rule:nonzero;"/>
        <path d="M13,32.921C13.129,32.77 13.21,32.78 13.27,32.81L13.02,33.04C13.005,33.002 12.998,32.961 13,32.921ZM16.27,32.95L15.85,33.25C15.75,33.25 15.73,33.091 15.85,33.03C15.79,33.12 16.049,32.99 16.24,32.921L16.27,32.95ZM15.27,33.671L15.04,33.861L15.27,33.671ZM10.48,41.58C10.12,41.08 10.02,41.58 9.77,41.58C9.25,41.051 9.77,41.14 9.77,40.83C9.419,40.51 8.939,40.43 8.77,40.151C8.77,40.091 8.77,40.03 8.89,40.04C8.75,39.979 8.627,39.886 8.529,39.77L8.379,39.631C8.242,39.479 8.065,39.368 7.87,39.31C7.899,39.301 7.93,39.301 7.959,39.31C7.752,39.31 7.544,39.294 7.339,39.26C7.43,39.151 7.339,38.981 7.68,39.03C7.569,39.1 7.68,39.14 7.74,39.2C7.731,39.148 7.731,39.093 7.74,39.04C8.25,39.04 7.669,39.24 8.009,39.31C8.048,38.982 8.247,38.694 8.54,38.54C8.689,38.64 8.45,38.861 8.419,38.901C8.39,38.941 8.339,39.02 8.54,39.051L8.2,39.151C8.879,39.31 8.06,39.151 8.759,39.401C8.81,39.401 8.83,39.401 8.839,39.401C8.85,39.401 8.839,39.401 8.919,39.28C9.126,39.043 9.374,38.843 9.649,38.691C9.649,38.421 9.43,38.51 9.47,38.24C10.279,37.24 10.77,38.341 11.24,37.43C11.299,37.1 11.12,36.7 11.779,36.5L11.779,36.941C12.48,36.461 11.839,36.211 12.71,35.881C12.71,36.1 12.25,36.381 12.379,36.341C13.02,36.24 12.58,35.921 12.93,35.66L13.21,35.881C13.91,35.29 14.569,34.5 15.339,33.881C15.339,34 15.279,34.18 15.529,34.131C16.522,33.26 17.633,32.536 18.83,31.98L19.04,31.47C19.12,31.401 19.279,31.47 19.22,31.571C19.669,31.37 19.12,31.401 19.22,31.18C19.319,30.961 19.609,31.1 19.52,31.27C20.133,30.312 20.988,29.532 22,29.01L21.91,29.18C22.54,28.861 22.18,28.18 22.859,28.071L22.79,28.191C24.069,27.401 25.24,26.191 26.419,25.87C26.35,25.401 27.73,25.14 27.419,24.611C28.05,24.501 28.661,24.295 29.23,24C29.5,23.83 29.39,23.421 29.68,23.131L29.87,23.381L30.109,22.79L30.56,22.921L30.81,22.631C30.68,22.711 30.48,22.711 30.439,22.631C30.83,22.171 31.71,21.95 31.819,22.071L32.819,21.071C32.819,21.191 32.71,21.361 32.609,21.53C33.02,20.841 32.91,21.711 33.279,21.08C33.169,21.08 33.21,20.901 33.189,20.841C33.726,20.666 34.208,20.356 34.589,19.941L34.589,20.171C35.45,19.611 36.27,18.81 37.189,18.171C36.799,18.33 36.66,17.98 36.91,17.75L37.21,17.93C37.21,17.64 36.85,18.04 37.06,17.58C37.43,17.35 37.52,17.711 37.379,17.941L37.73,17.54C37.819,17.6 37.73,17.711 37.799,17.83C37.85,17.54 38.72,17.56 38.799,17.091L38.89,17.151C39.809,16.47 40.16,16.071 40.889,15.5C40.74,15.26 41.07,15.091 41.16,14.75C41.856,14.428 42.524,14.051 43.16,13.62C43.54,13.16 43.16,13.33 43.269,13.04C43.45,13.22 44.099,12.711 43.87,13.111C44.537,12.591 45.162,12.019 45.74,11.401C45.57,11.401 45.419,11.45 45.429,11.33C45.44,11.211 45.91,11.111 45.96,11.23C46.86,10.071 49,9.921 49.599,8.781L49.599,8.841L50.339,7.921C50.799,7.64 50.2,8.27 50.61,8.16C51.36,7.06 52.24,7.02 52.9,6.16C53.99,6.29 55.169,4.41 56.299,4.16C56.299,4.16 56.2,4.08 56.16,4.04C56.16,3.821 56.28,4.04 56.32,4.1C56.32,3.961 56.21,3.981 56.2,3.87C56.274,3.766 56.365,3.675 56.469,3.6C56.561,3.721 56.638,3.852 56.7,3.991C56.94,4.404 57.19,4.814 57.45,5.22C58,6.14 58.48,7.031 59,7.921C59.519,8.81 60,7.781 60.37,8.921L59.91,8.921C61.299,10.12 62.08,11.87 63.4,13.08C63.269,13.08 63.19,13.08 63.089,12.961C63.089,13.401 63.9,14.06 64.089,13.961C64.23,14.191 63.98,14.12 64,14.31C64.11,14.691 64.799,14.881 64.73,15.18C64.73,15.231 64.61,15.18 64.549,15.1C64.79,15.22 65.2,16.02 65.28,15.671C65.28,15.76 65.28,15.79 65.339,15.801C65.4,15.81 65.339,15.801 65.339,15.85L65.44,15.93C65.509,15.981 65.599,16.06 65.549,16.1C65.73,16.16 65.549,16.22 65.549,16.25C65.549,16.28 65.419,16.31 65.549,16.481C65.483,16.419 65.405,16.371 65.32,16.341C65.32,16.29 65.15,16.341 65.009,16.47C64.736,16.654 64.507,16.897 64.339,17.18C64.339,16.99 63.96,17.28 63.98,17.03C63.599,17.321 63.299,17.651 63.509,17.78C62.509,17.87 62.36,19.18 61.509,18.921C60.509,19.921 59.57,20.861 58.61,21.7C58.379,21.31 59.71,20.83 59.389,20.481C58.756,21.317 58.013,22.064 57.179,22.7C56.889,22.83 57.179,22.441 57.24,22.31C56.379,23.18 55.349,23.66 54.629,24.5C54.629,24.5 54.679,24.361 54.74,24.26C54.58,24.401 54.309,24.5 54.45,24.651L54.58,24.49C55.03,24.49 54.28,25.49 54.339,25.631C54.28,24.95 53.41,26.14 53.419,25.211C53.33,25.321 53.25,25.5 53.36,25.6C53.169,25.691 53.07,25.66 53.139,25.41C52.599,25.95 52.95,25.97 52.389,26.41C52.339,26.33 52.389,26.22 52.389,26.08C52.247,26.508 51.946,26.865 51.549,27.08C51.549,27.01 51.44,26.99 51.549,26.89C50.769,27.5 50.5,28.31 49.549,28.81C49.549,28.27 49.169,28.921 48.9,28.651L48.5,29.091L48.79,29.091C48.379,29.39 48.169,29.881 47.79,30.091L48,29.74L47.269,30.37L47.79,30.16C47.49,30.62 48.12,30.5 47.509,30.83C47.599,30.711 47.089,31.131 46.75,31.111C46.629,31.399 46.404,31.631 46.12,31.76C45.969,31.76 45.94,31.381 45.839,31.361C45.839,31.76 44.919,32.14 44.839,32.6C44.857,32.484 44.806,32.367 44.71,32.301L44.71,32.631C44.469,32.711 44.419,32.7 44.36,32.551C43.759,32.941 44.82,32.79 44.019,33.14C44.019,33.08 44.019,33.071 44.099,32.95C43.349,33.381 42.87,34.06 42.169,34.43C41.759,34.27 42.669,33.95 42.259,33.85C41.467,34.688 40.619,35.469 39.719,36.191L39.91,36.1C40.099,36.611 39.099,36.37 38.799,36.901C38.89,36.79 38.799,36.56 38.799,36.631C38.068,37.162 37.397,37.772 36.799,38.45L36.799,38.26C36.318,38.527 35.851,38.817 35.399,39.131C35.399,39.321 35.14,39.47 35.399,39.53C33.75,39.78 33.399,41.53 31.96,41.79C32.08,41.7 32.189,41.47 32.089,41.551L31.27,42.31C31.48,42.441 31.47,42.31 31.759,42.31C31.686,42.563 31.531,42.784 31.319,42.941C31.629,42.52 31.1,42.64 30.85,42.671C30.919,42.671 30.91,42.81 30.96,42.861C30.25,42.861 31.16,43.29 30.359,43.54L30.359,43.41C30.16,43.64 30.04,43.93 29.759,44.1C29.489,43.961 29.939,43.81 29.83,43.62C29.47,43.901 29.41,44.551 28.93,44.621C29.04,44.451 29.259,44.28 29.37,44.111C29.07,44.09 28.774,44.183 28.54,44.371L27.839,44.711L28.049,44.661C28.049,45.551 27.2,45.44 26.87,46.26C27.2,45.48 26.819,45.99 26.68,45.711C26.48,45.711 26.18,45.86 26.2,45.711C26.06,46.121 25.609,45.911 25.41,46.501C25.339,46.43 25.1,46.72 25.02,46.501C24.689,46.841 25.21,46.57 25.25,46.69C24.87,47.39 23.66,47.371 23.1,48.36C22.5,49.041 22.56,49.36 22,50.02C21.68,50.02 22,49.6 22,49.6C21.595,49.722 21.243,49.975 21,50.32C21,50.201 20.91,50.19 20.739,50.18C20.48,50.4 20.739,50.6 20.319,50.751C20.287,50.579 20.287,50.402 20.319,50.23C20.049,50.551 19.839,50.93 19.56,51.23C19.37,51.161 19.609,50.881 19.66,50.701C19.33,51.041 18.779,51.541 18.83,51.85L19.12,51.751C18.989,51.86 18.919,51.61 18.989,51.501C19.18,51.091 19.5,51.23 19.58,51.301L19.379,51.52C19.97,51.801 20.279,50.74 20.779,50.411L20.83,50.9L21.109,50.26C21.279,50.26 21.489,50.4 21.29,50.621C21.75,50.541 21.5,50.28 21.93,50.251C21.989,50.251 21.989,50.251 21.93,50.31L22.189,49.97C22.189,50.091 22.419,50.161 22.189,50.27C22.93,50.01 22.97,49.27 23.379,49.381L23.379,49.44C24.129,48.711 23.27,49.14 23.689,48.39L24.56,48.68L24.46,48.371C24.549,48.32 24.73,48.211 24.77,48.371C24.97,47.97 24.64,48.31 24.71,48.01C25.29,47.93 25.77,47.06 26.149,47.381C26.149,47.091 25.649,47.53 26,47.07C26.43,47.4 26.45,46.621 27,46.541C27.049,46.841 26.609,46.99 27.129,46.9C27.08,46.371 27.919,46.44 28.189,46.131C27.989,45.831 28.79,45.501 29.25,45.001C29.25,45.131 30.379,44.421 30.96,44.16L30.96,44.22C30.839,43.85 31.39,43.52 31.72,43.22C31.83,43.401 31.819,43.52 31.72,43.75L32.069,43.49C32.104,43.298 32.207,43.123 32.359,43L32.439,43.29C32.899,42.93 33.189,42.29 33.899,42.03C33.779,41.801 33,41.81 33.529,41.2C33.64,41.301 33.799,41.47 33.669,41.64C33.669,41.58 33.79,41.401 33.939,41.37L33.819,41.74C34.16,41.62 33.819,41.48 34.08,41.341C34.2,41.5 34.33,41.341 34.39,41.48C34.45,41.62 34.149,41.56 34.109,41.68C34.357,41.522 34.646,41.442 34.939,41.45C34.837,41.375 34.816,41.231 34.891,41.129C34.905,41.111 34.921,41.094 34.939,41.08C35.399,40.72 35.25,41.151 35.58,41.08C35.58,40.89 35.99,40.78 35.83,40.54C35.96,40.43 36.069,40.54 36.169,40.54C36.33,40.26 37.279,39.671 36.819,39.62L36.74,39.62C37.35,38.801 38.48,38.54 39.2,37.85L39.2,37.93C39.61,37.49 40.2,37.111 40.419,36.691C40.559,36.58 40.849,36.591 40.86,36.691C41.079,36.364 41.398,36.118 41.769,35.99C41.509,36.39 41.98,35.99 41.469,36.361C41.99,36.091 42.19,36.14 42.53,35.551C42.53,35.881 43.07,35.551 43.25,35.321L42.809,35.41C43.027,35.222 43.261,35.054 43.509,34.91L43.589,35.27C44.78,34.881 44.9,33.441 46.03,33.441C46.139,33.071 45.41,33.691 45.48,33.31C45.94,33.02 46.679,33.06 46.82,32.961C47.53,32.671 47.089,32.16 47.82,31.79C47.669,31.79 47.4,31.56 47.82,31.12C48.24,30.68 48.65,31.12 48.429,31.401C48.33,31.49 48.259,31.49 48.24,31.461C48.12,31.6 47.969,31.78 48.24,31.75L48.24,31.611C48.53,31.551 49.129,31.091 49.11,31.35C49.37,31.02 49.11,31.091 48.849,31.22C49.377,30.915 49.888,30.581 50.379,30.22C50.25,30.22 50.08,30.22 50.169,30.12C51.11,29.611 50.419,29.66 50.96,29.191C51.4,29.091 51.099,29.631 51.589,29.071C52.019,28.91 51.849,29.27 51.769,29.45C52.16,28.881 52.849,28.841 53.179,28.651L52.95,28.93C53.074,28.794 53.21,28.67 53.36,28.56L53.059,28.49C53.25,28.401 53.389,28.301 53.45,28.381C53.519,28.131 53.08,28.16 53.29,27.74C53.58,27.68 53.879,27.151 54.139,27.341C53.389,27.77 54.4,27.54 53.849,28.01C53.966,27.881 54.11,27.779 54.269,27.711C54.269,27.711 54.269,27.78 54.269,27.83C55.089,27.571 54.36,27.321 55.04,26.83C55.04,27.04 55.4,26.98 55.49,26.83C55.219,27.03 55.179,26.691 55.349,26.401C55.87,26.18 55.769,25.961 56.009,25.81L55.71,25.95C55.71,25.74 55.919,25.6 56.19,25.321C56.299,25.421 55.969,25.611 56.12,25.571C56.269,25.071 57.07,25.27 57.419,24.75C57.71,24.691 57.639,25 57.879,24.93C58.269,24.35 58.589,24.7 59.03,24.14C58.73,24.06 58.74,24.14 59.03,23.651L58.219,24.461L58.599,23.75C58.32,23.95 58.11,24.301 57.919,24.39C58.08,24.03 58.089,24.1 57.839,24.04C58.429,24.04 58.46,23.321 59.04,23.191L59.379,23.671C60.19,23.401 60.379,22.571 61.299,22.06L60.96,22.18C60.96,21.901 61.469,21.76 61.69,21.48C61.78,21.66 61.99,21.591 62.179,21.6C62.08,21.49 62.809,21.151 62.66,20.78L63.19,20.711C63.94,20.28 63.639,19.711 64.339,19.24C64.269,19.56 64.65,19.45 64.339,19.901C64.559,19.74 64.78,19.62 64.7,19.51C64.9,19.51 65.15,18.841 65.469,18.841C65.469,18.7 65.469,18.52 65.669,18.35L65.73,18.421C65.73,18.421 66.04,18.03 65.73,18.02C66.36,18.08 67.349,17.111 68.129,16.571C67.905,16.306 67.759,15.984 67.71,15.64L66.849,14.64L66.269,13.941C66.339,13.941 66.349,13.881 66.4,13.941C66.099,13.23 65.669,13.941 65.32,13.1C65.32,12.571 65.73,13.37 65.669,13.1C66.12,12.611 64.98,12.321 64.95,11.64L65.059,11.72C64.98,11.24 64.23,11.01 63.839,10.41C63.875,10.405 63.904,10.382 63.919,10.35C63.273,10.011 62.702,9.546 62.24,8.98C62.57,8.98 62.53,9.151 62.66,8.89C62.45,8.671 62.379,9.211 61.96,8.761C61.96,8.52 61.78,8.091 61.96,7.87L62.32,8.33C62.429,7.881 61.86,7.73 61.73,7.45L61.87,7.39C61.299,6.7 60.98,6.93 60.429,6.14L60.429,6.29C59.799,6.1 60.339,5.81 59.799,5.56L60.019,5.2C59.506,4.838 59.021,4.437 58.57,4C59.072,4.225 59.543,4.514 59.969,4.861C59.769,4.58 59.25,3.941 58.969,3.921C59.08,4 59.259,4.091 59.299,4.23C58.639,4.009 58.09,3.539 57.769,2.921C58.21,2.671 57.469,1.801 56.879,0.921C56.56,1.182 56.17,1.342 55.759,1.381C55.559,1.56 55.37,1.741 55.179,1.901L54.679,2.301C54.44,2.481 54.179,2.64 53.919,2.801C53.338,3.136 52.781,3.511 52.25,3.921C53.009,4.1 51.929,4.18 52.37,4.62C52.129,4.841 52.019,4.91 51.969,4.89L50.969,5.191C50.669,5.191 51.139,4.901 51.03,4.801C50.429,5.191 50.639,4.801 50.16,4.93C50.37,5.04 50.16,5.33 49.769,5.5L50.4,5.39C49.79,6.25 49.4,5.491 48.78,6.39L48.919,6.051C48.57,6.45 47.379,7.18 47.259,7.881C47.15,7.881 46.95,7.81 47.11,7.64C46.11,8.321 45.21,9.7 44.25,10.031L44.25,9.781C44.089,9.95 44.089,10.241 43.769,10.29C43.769,10.29 43.769,10.12 43.669,10.18C43.57,10.241 43.33,10.75 43.03,10.861L43.139,10.571C42.049,11.131 41.889,12.01 41.139,12.691C40.879,12.341 40.03,12.79 39.61,13.01L39.61,12.95C38.644,13.74 37.756,14.62 36.96,15.58C36.02,15.68 34.64,17.051 33.439,17.58C33.64,17.53 33.609,17.881 33.439,18.051C33.27,18.22 32.95,18.801 32.75,18.441L32.839,18.381C32.419,18.2 31.98,18.66 31.58,18.941L31.83,19.421C30.339,19.56 29.299,21.64 28.33,21.5C28.16,21.79 27.85,22.02 27.689,22.31L27.529,22.071C26.853,22.466 26.214,22.921 25.62,23.43L25.68,23.14C25.189,23.48 25.56,24.24 25.129,24.591L24.74,24.341C23.91,24.97 22.839,25.341 22.24,26.22C22.187,26.122 22.211,26 22.299,25.93C21.899,26.211 20.6,26.83 21.089,27.191C20.859,26.89 20.21,27.801 19.85,28.27L19.759,27.99C19.709,28.429 19.494,28.832 19.16,29.12C19.009,29.18 18.919,29.02 19.16,28.95C18.649,29.151 18.99,29.41 18.39,29.671L18.47,29.381C18.029,29.691 18.12,29.74 18,30.08C17.879,30.421 17.14,30.631 16.93,30.48C16.95,30.752 16.798,31.008 16.549,31.12C16.46,31.071 16.549,30.95 16.549,30.89C15.72,31.27 15.669,31.95 15.009,32.1C14.968,32.044 14.898,32.017 14.83,32.03C15.149,31.775 15.483,31.538 15.83,31.321C15.669,31.12 15.18,31.421 15.339,30.87C15.08,31.301 14.7,32.111 14.169,32.35L14.06,32.35L14.06,32.29C13.95,32.346 13.86,32.433 13.799,32.54C13.651,32.592 13.51,32.663 13.379,32.75C13.2,32.62 12.779,33.051 12.54,33.22C12.73,33.43 12.399,33.62 12.819,33.591C12.77,33.591 12.819,33.53 12.99,33.41C13.022,33.383 13.049,33.348 13.069,33.31L13.629,32.861C13.569,33.141 13.35,33.36 13.069,33.421C13.065,33.622 13.045,33.822 13.009,34.02C12.46,33.941 11.73,34.22 11.5,34.091C10.89,34.74 9.899,35.41 9.77,36.16C9.609,36.37 9.45,36.16 9.319,36.16C9.41,36.03 9.549,35.941 9.569,35.83C9.24,36.24 8.41,36.75 8.569,37.12C7.959,37.361 8.649,36.64 7.99,37.2L7.99,37.04C7.791,37.101 7.603,37.188 7.43,37.301C7.181,37.461 6.944,37.638 6.72,37.83C6.359,38.157 6.024,38.511 5.72,38.89C6.14,39.273 6.54,39.677 6.919,40.1C7.083,40.294 7.231,40.502 7.359,40.72C7.469,40.931 7.556,41.152 7.62,41.381C7.62,41.25 7.549,41.18 7.62,41.12C8.62,43.051 10.509,44.501 11.35,46.53C11.62,47.07 11.85,46.99 12.22,47.18L12.049,47.461L12.71,47.76C13.439,48.331 13.029,49.44 14.089,50.07L14.169,49.831C14.379,50.18 15.029,50.831 14.799,50.831C14.859,50.831 15.049,50.831 15.06,51.001L14.939,51.1L15.75,51.74C16.12,52.43 15.18,52.02 15.83,52.94C16.12,53.24 16.91,53.631 16.899,53.44C16.89,53.251 16.72,53.03 16.839,52.93L17.129,53.19C17.549,52.97 18.129,52.921 17.81,51.97L17.189,51.61L17.24,51.31L17.589,51.74C17.589,51.371 17.299,51.32 17.06,51.22C17.114,51.103 17.114,50.968 17.06,50.85L16.319,50.591C16.419,50.421 16.779,50.591 16.6,50.201C16.259,50.081 16.45,50.68 16.04,50.36C16.04,49.98 16.22,49.951 15.85,49.76C15.919,49.65 16.029,49.671 16.16,49.76C15.85,49.581 15.589,49.1 15.29,49.11C15.29,48.69 14.58,48.26 14.95,48.03C14.641,47.935 14.359,47.767 14.129,47.541C14.89,47.661 13.49,46.61 14.029,46.39C13.399,46.39 13.029,45.331 12.339,44.911C12.39,44.911 12.5,44.911 12.52,45.001C12.395,44.752 12.31,44.485 12.27,44.211C11.93,44.4 11.48,43.95 11.08,43.821C11.08,43.191 11.629,43.821 11.83,43.441C11.589,43.651 11.06,42.941 10.95,43.23C10.95,42.79 10.839,42.901 10.95,42.551C10.509,42.79 10.669,42.31 10.24,42.24C10.109,41.651 10.52,41.85 10.04,41.45C10,41.25 10.48,41.58 10.48,41.58Z" style="fill:rgb(148,188,229);fill-rule:nonzero;"/>
        <path d="M13,33.41L12.95,33.47L13.08,33.47L13.08,33.361L13,33.41Z" style="fill:rgb(148,188,229);fill-rule:nonzero;"/>
        <path d="M29.99,23.43L29.95,23.381L29.899,23.49L29.99,23.43Z" style="fill:rgb(148,188,229);fill-rule:nonzero;"/>
        <path d="M30.859,42.53C30.824,42.52 30.785,42.52 30.75,42.53L30.859,42.53Z" style="fill:rgb(148,188,229);fill-rule:nonzero;"/>
        <path d="M28.509,44.191L28.12,44.35C28.254,44.309 28.385,44.256 28.509,44.191Z" style="fill:rgb(148,188,229);fill-rule:nonzero;"/>
        <path d="M26.649,45.4C26.643,45.44 26.643,45.481 26.649,45.52L26.649,45.4Z" style="fill:rgb(148,188,229);fill-rule:nonzero;"/>
        <path d="M54.73,24.171C54.758,24.162 54.781,24.139 54.79,24.111C54.919,23.921 54.83,24.051 54.73,24.171Z" style="fill:rgb(148,188,229);fill-rule:nonzero;"/>
        <path d="M46.71,30.921C46.763,30.812 46.827,30.708 46.9,30.611C46.74,30.731 46.62,30.81 46.71,30.921Z" style="fill:rgb(148,188,229);fill-rule:nonzero;"/>
        <path d="M63.929,16.941L63.99,16.901L63.929,16.941Z" style="fill:rgb(148,188,229);fill-rule:nonzero;"/>
        <path d="M47.29,30.35C47.133,30.401 46.997,30.498 46.9,30.631C47.045,30.562 47.177,30.467 47.29,30.35Z" style="fill:rgb(148,188,229);fill-rule:nonzero;"/>
        <path d="M18.859,51.01L18.77,51.01L18.859,51.01Z" style="fill:rgb(148,188,229);fill-rule:nonzero;"/>
        <path d="M18.779,51.11L18.71,51.201C18.71,51.201 18.79,51.14 18.779,51.11Z" style="fill:rgb(148,188,229);fill-rule:nonzero;"/>
        <path d="M18.549,51.411L18.71,51.201C18.64,51.251 18.549,51.31 18.549,51.411Z" style="fill:rgb(148,188,229);fill-rule:nonzero;"/>
        <path d="M21.29,49.371L21.29,49.27C21.283,49.303 21.283,49.338 21.29,49.371Z" style="fill:rgb(148,188,229);fill-rule:nonzero;"/>
        <path d="M22,48.81C21.819,48.921 21.439,48.961 21.24,49.18L21.24,49.27C21.279,49.06 21.93,49.07 22,48.81Z" style="fill:rgb(148,188,229);fill-rule:nonzero;"/>
        <path d="M25.73,47.61L25.08,47.99C25.25,47.99 25.47,47.99 25.22,48.24C26.16,47.921 24.919,48.161 25.73,47.61Z" style="fill:rgb(148,188,229);fill-rule:nonzero;"/>
        <path d="M27.68,46.36C27.39,46.64 27.779,46.49 27.799,46.551C27.939,46.32 28,46.26 27.68,46.36Z" style="fill:rgb(148,188,229);fill-rule:nonzero;"/>
        <path d="M41.12,36.41L41.24,36.64C41.46,36.421 41.179,36.551 41.12,36.41Z" style="fill:rgb(148,188,229);fill-rule:nonzero;"/>
        <path d="M42.9,33.441L42.559,33.49L42.589,33.76L42.9,33.441Z" style="fill:rgb(148,188,229);fill-rule:nonzero;"/>
        <path d="M45.5,33.78L45.41,33.89L45.769,33.51L45.5,33.78Z" style="fill:rgb(148,188,229);fill-rule:nonzero;"/>
        <path d="M68.53,16.22L68.19,16.301L68.339,16.41C68.339,16.51 68.509,16.56 68.71,16.47C68.668,16.375 68.607,16.29 68.53,16.22Z" style="fill:rgb(148,188,229);fill-rule:nonzero;"/>
        <path d="M60.5,5.921C60.549,5.667 60.417,5.413 60.179,5.31C60.32,5.551 60.379,5.841 60.5,5.921Z" style="fill:rgb(148,188,229);fill-rule:nonzero;"/>
        <path d="M31.069,19.49L31.21,19.26L30.89,19.6L31.069,19.49Z" style="fill:rgb(148,188,229);fill-rule:nonzero;"/>
        <path d="M55.799,14.16C55.799,14.08 55.65,13.93 55.61,14.01L55.759,14.31L55.799,14.16Z" style="fill:rgb(148,188,229);fill-rule:nonzero;"/>
        <path d="M55,13.981C55.033,14.242 55.152,14.485 55.339,14.671C55.219,14.361 55.339,14.45 55.169,14.091C55.169,14.01 55.339,14.091 55.41,14.2C55.41,14.111 55.549,14.2 55.41,13.99C55.269,13.78 55.059,13.91 55.08,14.16C55.07,14.12 55.049,14.04 55,13.981Z" style="fill:rgb(148,188,229);fill-rule:nonzero;"/>
        <path d="M48.549,18.131L48.61,18.131C48.591,18.12 48.568,18.12 48.549,18.131Z" style="fill:rgb(148,188,229);fill-rule:nonzero;"/>
        <path d="M44.629,20.81C44.644,20.782 44.644,20.749 44.629,20.72C44.629,20.72 44.599,20.79 44.629,20.81Z" style="fill:rgb(148,188,229);fill-rule:nonzero;"/>
        <path d="M43.759,21L43.809,21C43.809,21 43.75,20.981 43.759,21Z" style="fill:rgb(148,188,229);fill-rule:nonzero;"/>
        <path d="M48.549,18.131L48.389,18.131C48.44,18.22 48.48,18.151 48.549,18.131Z" style="fill:rgb(148,188,229);fill-rule:nonzero;"/>
        <path d="M54.639,15.25C54.65,15.215 54.65,15.176 54.639,15.14L54.639,15.25Z" style="fill:rgb(148,188,229);fill-rule:nonzero;"/>
        <path d="M50.07,16.671C50.055,16.626 50.039,16.583 50.019,16.54L50.07,16.671Z" style="fill:rgb(148,188,229);fill-rule:nonzero;"/>
        <path d="M51.33,15.671C51.33,15.671 51.45,15.921 51.509,16.02C51.488,15.956 51.488,15.885 51.509,15.821L51.33,15.671Z" style="fill:rgb(148,188,229);fill-rule:nonzero;"/>
        <path d="M53.669,14.551L53.669,14.5C53.665,14.517 53.665,14.534 53.669,14.551Z" style="fill:rgb(148,188,229);fill-rule:nonzero;"/>
        <path d="M49.11,17.31L49,17.231C49.029,17.266 49.067,17.294 49.11,17.31Z" style="fill:rgb(148,188,229);fill-rule:nonzero;"/>
        <path d="M14.27,45.751C14.27,45.751 14.25,45.76 14.27,45.751Z" style="fill:rgb(148,188,229);fill-rule:nonzero;"/>
        <path d="M11.939,45.74L11.85,45.61L11.939,45.74Z" style="fill:rgb(148,188,229);fill-rule:nonzero;"/>
        <path d="M42.349,21.6C42.37,21.551 42.36,21.571 42.349,21.6Z" style="fill:rgb(148,188,229);fill-rule:nonzero;"/>
        <path d="M31.529,29.921C31.799,30.03 31.529,30.33 31.87,30.421C31.79,30.29 31.779,29.921 31.529,29.921Z" style="fill:rgb(148,188,229);fill-rule:nonzero;"/>
        <path d="M54.58,15.25C54.58,15.25 54.58,15.27 54.58,15.25Z" style="fill:rgb(148,188,229);fill-rule:nonzero;"/>
        <path d="M39.7,23.77L39.809,23.85C39.781,23.815 39.743,23.787 39.7,23.77Z" style="fill:rgb(148,188,229);fill-rule:nonzero;"/>
        <path d="M42,22.571L41.929,22.571C41.952,22.581 41.977,22.581 42,22.571Z" style="fill:rgb(148,188,229);fill-rule:nonzero;"/>
        <path d="M38.879,24.921C38.879,24.921 38.799,24.921 38.79,24.921C38.79,24.921 38.819,24.861 38.879,24.921Z" style="fill:rgb(148,188,229);fill-rule:nonzero;"/>
        <path d="M37.77,25.691L37.83,25.691C37.89,25.691 37.83,25.691 37.83,25.691L37.77,25.691Z" style="fill:rgb(148,188,229);fill-rule:nonzero;"/>
        <path d="M17.549,43.151C17.473,43.106 17.402,43.052 17.339,42.99C17.48,43.14 17.359,43.321 17.549,43.151Z" style="fill:rgb(148,188,229);fill-rule:nonzero;"/>
        <path d="M54.549,15.131C54.549,15.191 54.549,15.22 54.549,15.25C54.549,15.28 54.549,15.25 54.549,15.25C54.563,15.212 54.563,15.169 54.549,15.131Z" style="fill:rgb(148,188,229);fill-rule:nonzero;"/>
        <path d="M40.15,26.691L39.95,26.79C40.021,26.767 40.088,26.734 40.15,26.691Z" style="fill:rgb(148,188,229);fill-rule:nonzero;"/>
        <path d="M25.46,37.24L25.46,37.301C25.46,37.301 25.46,37.28 25.46,37.24Z" style="fill:rgb(148,188,229);fill-rule:nonzero;"/>
        <path d="M39.46,27.2C39.391,27.161 39.317,27.134 39.24,27.12C39.24,27.12 39.24,27.171 39.24,27.2L39.46,27.2Z" style="fill:rgb(148,188,229);fill-rule:nonzero;"/>
        <path d="M18.47,39.56C18.47,39.49 18.549,39.56 18.589,39.56L18.52,39.651L18.47,39.56ZM20.319,40.56L20.18,40.651C20.109,40.58 20.06,40.49 20.1,40.47C20.14,40.45 20.22,40.53 20.31,40.56L20.319,40.56ZM20,40.801L19.93,40.87L20,40.801ZM16.58,44.381C16.75,44.26 16.45,44.03 16.359,43.841C16.49,43.6 16.609,43.99 16.79,44.091C16.859,43.921 16.79,43.571 16.85,43.52C16.91,43.47 16.93,43.52 16.95,43.64C16.95,43.31 17.33,43.341 17.27,42.93L17.339,42.99C17.22,42.871 17.113,42.741 17.02,42.6C17.089,42.54 17.02,42.31 17.189,42.481C17.14,42.481 17.189,42.591 17.189,42.671L17.189,42.52C17.47,42.75 17.189,42.7 17.31,42.91C17.399,42.7 17.399,42.341 17.58,42.33C17.81,42.58 17.37,42.631 17.71,42.75L17.45,42.75C17.91,43.08 17.319,42.75 17.79,43.171C18.08,43.071 17.95,42.83 18.25,42.74C18.189,42.54 18.06,42.52 18.009,42.33C18.14,41.81 18.779,42.821 18.759,42.27C18.689,42.04 18.46,41.68 18.759,41.73L18.93,42.08C19.189,41.941 18.74,41.54 19.129,41.571C19.18,41.72 19.029,41.81 19.129,41.821C19.47,41.95 19.129,41.56 19.23,41.47L19.46,41.73C19.669,41.5 19.799,41.1 20.029,40.85C20.08,40.941 20.1,41.06 20.22,41.1C20.526,40.747 20.962,40.53 21.43,40.5L21.43,40.171C21.43,40.171 21.56,40.24 21.56,40.31C21.759,40.31 21.46,40.151 21.45,40.01C21.439,39.87 21.649,40.08 21.649,40.18C21.74,39.81 21.99,39.27 22.41,39.341L22.41,39.45C22.669,39.45 22.259,38.81 22.6,38.901L22.6,38.97C23.08,38.77 23.37,38.22 23.939,38.341C23.75,37.961 24.46,38.2 24.129,37.7C24.54,37.77 24.54,37.901 24.98,37.821C25.08,37.821 24.89,37.421 24.98,37.29L25.169,37.54L25.12,37.171L25.419,37.41L25.48,37.27C25.419,37.27 25.31,37.22 25.259,37.151C25.339,36.921 25.77,37.03 25.87,37.151L26.089,36.66C26.16,36.77 26.089,36.85 26.089,36.95C26.089,36.551 26.319,37.18 26.33,36.81C26.259,36.81 26.23,36.66 26.2,36.6C26.399,36.691 26.609,36.53 26.72,36.361L26.81,36.551C27.12,36.39 27.339,36.03 27.649,35.801C27.48,35.801 27.29,35.49 27.359,35.401L27.589,35.631C27.529,35.43 27.419,35.631 27.399,35.321C27.54,35.26 27.7,35.56 27.689,35.691L27.77,35.49C27.815,35.571 27.856,35.655 27.89,35.74C27.83,35.53 28.33,35.821 28.21,35.48L28.27,35.551C28.589,35.321 28.66,35.12 28.91,34.921C28.74,34.691 28.91,34.671 28.819,34.43C29.06,34.361 29.399,34.43 29.609,34.2C29.819,33.97 29.509,33.98 29.49,33.79C29.649,33.99 29.859,33.79 29.85,34.04C30.081,33.845 30.262,33.599 30.379,33.321C30.279,33.26 30.22,33.26 30.189,33.171C30.16,33.08 30.39,33.171 30.46,33.26C30.62,32.671 31.79,33.26 31.779,32.551L31.93,32.091C32.1,32.02 31.93,32.31 32.16,32.35C32.25,31.76 32.73,32 32.85,31.571C33.509,32.01 33.589,30.95 34.169,31.12L34,31.1C34,30.91 34.16,31.1 34.24,31.1C34.149,30.99 34.06,31.03 34.049,30.921C34.56,30.27 35.529,30.14 36.29,29.78C36.549,29.64 35.87,28.941 36.43,29.06L36.54,29.39C36.79,28.711 37.54,28.66 37.819,28.04C37.819,28.12 37.89,28.2 37.819,28.24C38.06,28.35 38.2,27.97 38.08,27.81C38.169,27.81 38.2,27.941 38.31,27.99C38.419,28.04 38.379,27.551 38.58,27.711C38.58,27.711 38.58,27.79 38.58,27.821C38.58,27.68 38.899,27.611 38.669,27.441C38.93,27.441 38.939,27.091 39.179,27.111C39.089,26.79 39.58,27.01 39.339,26.631C39.599,27 39.879,26.691 39.86,26.441C39.86,26.58 40.04,26.441 40.11,26.66C40.225,26.586 40.258,26.431 40.184,26.315C40.165,26.285 40.139,26.26 40.11,26.24C40.669,26.5 40.33,25.53 40.879,25.99C41.089,25.557 41.351,25.15 41.66,24.78C41.91,25.151 41.299,25.1 41.599,25.47C41.809,25.071 41.769,24.62 42.16,24.47C42.28,24.47 42.23,24.66 42.25,24.75C42.46,24.361 42.9,24.31 43.049,23.901C43.066,23.946 43.066,23.995 43.049,24.04C43.099,23.99 43.219,24.04 43.049,23.841L43.049,23.921C42.78,23.75 42.91,23.26 42.82,23.12C43.08,23.671 43.2,23.03 43.49,23.74C43.501,23.638 43.468,23.537 43.4,23.461C43.48,23.461 43.549,23.461 43.58,23.671C43.719,23.43 43.519,23.31 43.71,23.18C43.769,23.26 43.71,23.31 43.799,23.421C43.799,23.2 43.799,22.97 43.969,22.921C43.969,22.981 44.059,23.03 43.969,23.06C44.219,22.841 44.12,22.31 44.53,22.24C44.7,22.651 44.71,22.24 44.95,22.56L45.049,22.361L44.87,22.26C45.019,22.16 44.98,21.85 45.169,21.861L45.169,22.06L45.389,21.81L45.16,21.81C45.16,21.551 44.86,21.441 45.11,21.381C45.11,21.441 45.25,21.28 45.45,21.381C45.45,21.231 45.45,21.08 45.61,21.08C45.769,21.08 45.83,21.421 45.889,21.47C45.78,21.171 46.169,21.16 46.059,20.83C46.095,20.93 46.15,21.021 46.219,21.1L46.28,20.921C46.389,20.921 46.429,20.97 46.509,21.1C46.73,20.99 46.16,20.76 46.509,20.76C46.509,20.76 46.509,20.81 46.509,20.87C46.799,20.78 46.86,20.41 47.15,20.35C47.429,20.611 47.009,20.56 47.28,20.77C47.54,20.481 47.639,19.93 47.99,19.77L47.91,19.77C47.639,19.321 48.29,19.821 48.29,19.51C48.29,19.571 48.419,19.78 48.389,19.72C48.65,19.64 48.73,19.31 48.94,18.95L48.94,19.091C49.129,19.091 49.299,18.91 49.46,18.861C49.46,18.731 49.46,18.691 49.349,18.56C50.21,18.89 49.86,17.66 50.599,17.921C50.599,17.921 50.599,18.091 50.599,18.071L50.83,17.74C50.669,17.58 50.71,17.66 50.54,17.56C50.469,17.458 50.469,17.323 50.54,17.22C50.54,17.441 50.759,17.52 50.9,17.58C50.839,17.58 50.82,17.45 50.769,17.401C51.169,17.611 50.519,17 50.9,17.071L50.96,17.171C50.96,17.06 50.96,16.881 51.089,16.841C51.29,17.03 51.089,17.01 51.2,17.191C51.32,17.08 51.139,16.6 51.41,16.731C51.41,16.83 51.33,16.89 51.32,16.99C51.629,17.151 51.599,17.08 51.719,17.051L52.009,17.051L51.91,17.051C51.65,16.381 52.15,16.72 52.08,16.2C52.139,16.7 52.2,16.43 52.36,16.68C52.46,16.68 52.599,16.731 52.629,16.81C52.629,16.54 52.9,16.81 52.83,16.461C52.889,16.53 52.94,16.39 53.059,16.6C53.139,16.45 52.929,16.49 52.87,16.381C52.87,15.97 53.57,16.381 53.57,15.79C53.7,15.461 53.57,15.16 53.679,14.87C53.849,14.941 53.83,15.2 53.83,15.2C54.04,15.2 54.11,15.131 54.16,14.961C54.16,15.04 54.25,15.08 54.36,15.151C54.429,15.06 54.21,14.81 54.36,14.841C54.422,14.961 54.469,15.088 54.5,15.22C54.559,15.071 54.559,14.841 54.62,14.691C54.75,14.801 54.7,14.95 54.73,15.071C54.809,14.91 54.969,14.7 54.849,14.45L54.71,14.45C54.71,14.45 54.87,14.62 54.86,14.68C54.86,14.93 54.65,14.68 54.589,14.68L54.589,14.571C54.169,14.171 54.32,14.881 54.139,14.97L53.96,14.591L53.96,14.99C53.86,14.93 53.7,14.76 53.74,14.651C53.5,14.571 53.74,14.841 53.49,14.73C53.481,14.712 53.481,14.69 53.49,14.671L53.49,14.861C53.49,14.77 53.299,14.631 53.41,14.631C53.059,14.631 53.259,15.12 53,14.93C52.799,15.26 53.16,15.2 53.16,15.64L52.57,15.14L52.719,15.41C52.719,15.41 52.62,15.41 52.549,15.341C52.549,15.591 52.65,15.43 52.71,15.64C52.4,15.52 52.4,16.03 52.08,15.64C52.16,15.87 52.32,15.691 52.259,15.93C51.91,15.54 52.139,16.131 51.87,16.03C51.75,15.78 51.96,15.81 51.69,15.711C51.879,16.131 51.379,15.81 51.32,15.961C51.53,16.26 51.179,16.26 51.07,16.49C51.009,16.381 50.61,16.58 50.37,16.6C50.559,16.921 50.37,16.99 50.259,17.14C50.164,17.034 50.114,16.894 50.12,16.75L50,16.841C50.044,16.928 50.044,17.032 50,17.12L50,16.691C49.849,16.821 49.87,17.18 49.559,17.191C49.7,17.401 50.15,17.64 50.03,17.941C49.94,17.83 49.79,17.651 49.82,17.56C49.849,17.47 49.82,17.7 49.75,17.68L49.69,17.43C49.54,17.43 49.759,17.62 49.69,17.66C49.58,17.5 49.559,17.591 49.469,17.45C49.379,17.31 49.589,17.45 49.57,17.39C49.431,17.422 49.286,17.393 49.169,17.31C49.25,17.39 49.33,17.52 49.28,17.58C49.23,17.64 49.089,17.43 48.94,17.421C48.94,17.56 48.79,17.52 48.94,17.76C48.94,17.76 48.799,17.691 48.73,17.64C48.73,17.801 48.37,17.95 48.65,18.131C48.559,18.56 47.99,18.401 47.799,18.7L47.74,18.62C47.65,18.83 47.429,18.941 47.44,19.191C47.44,19.191 47.23,19.131 47.179,19.02C47.099,19.171 47.179,19.27 46.879,19.27C46.879,19.04 46.75,19.18 46.879,19.071C46.669,19.12 46.54,19.02 46.53,19.361C46.44,19.12 46.219,19.2 46.19,19.361L46.41,19.43C46.349,19.504 46.27,19.56 46.179,19.591L46.019,19.29C45.45,19.211 45.849,20.29 45.2,19.921C45.2,20.171 45.469,19.921 45.559,20.191C45.379,20.27 44.94,20 44.889,20.03C44.58,20.03 44.99,20.56 44.71,20.62C44.799,20.7 45.019,20.93 44.929,21.14C44.839,21.35 44.45,20.87 44.48,20.731C44.509,20.591 44.549,20.731 44.58,20.731C44.61,20.731 44.58,20.58 44.5,20.52L44.549,20.631C44.4,20.58 44.2,20.75 44.139,20.551C44.139,20.731 44.2,20.75 44.32,20.731C44.03,20.731 44.019,20.95 43.759,21C43.83,21 43.94,21.12 43.91,21.14C43.53,21.24 43.91,21.421 43.75,21.6C43.53,21.54 43.53,21.231 43.429,21.5C43.24,21.5 43.219,21.26 43.21,21.151C43.21,21.461 42.78,21.27 42.66,21.321L42.66,21.171C42.646,21.234 42.606,21.288 42.549,21.321L42.74,21.481C42.66,21.481 42.61,21.481 42.559,21.481C42.559,21.64 42.83,21.76 42.849,22.02C42.7,21.97 42.7,22.29 42.49,22.02C42.78,21.941 42.269,21.79 42.49,21.6C42.471,21.662 42.414,21.703 42.349,21.7C42.337,21.675 42.337,21.646 42.349,21.62C41.96,21.551 42.46,21.981 42.23,22.14C42.15,21.921 42,21.921 42,21.921C42,21.921 42.219,22.12 42.21,22.301C41.98,22.301 42.12,22.5 42.03,22.54L42.16,22.54C42.23,22.7 42.16,22.74 42.07,22.861C41.98,22.76 42.07,22.72 42.07,22.691C42.139,23.03 41.62,22.631 41.58,22.91C41.44,22.91 41.379,22.651 41.259,22.631C41.259,22.95 40.929,22.58 40.849,22.87C41.049,23.02 41.019,22.97 41.03,23.25L41.24,22.89L41.24,23.321C41.33,23.25 41.339,23.051 41.419,23.04C41.419,23.27 41.419,23.211 41.58,23.341C41.24,23.151 41.45,23.691 41.16,23.611L40.82,23.131C40.44,23.08 40.599,23.66 40.23,23.76L40.379,23.76C40.48,23.98 40.219,23.921 40.19,24.06C40.11,23.95 39.999,23.866 39.87,23.821C39.96,23.93 39.65,23.961 39.87,24.301L39.58,24.18C39.29,24.27 39.65,24.83 39.389,24.941C39.33,24.72 39.15,24.68 39.2,24.45C39.129,24.5 39.04,24.52 39.12,24.631C39,24.571 39.12,25 38.89,24.901C38.89,24.99 39.019,25.171 38.89,25.211C38.866,25.191 38.845,25.167 38.83,25.14C38.89,25.211 38.83,25.341 38.98,25.461C38.39,25.14 38.37,25.97 37.859,25.691C37.737,25.868 37.597,26.032 37.439,26.18C37.439,26.131 37.379,26.111 37.439,26.1C37.129,26.1 37.649,26.651 37.299,26.66C36.99,26.49 37.299,26.43 37.169,26.381C36.75,25.89 36.95,26.66 36.569,26.47L36.569,26.41C36.319,26.321 36.43,26.83 36.2,26.93C36.203,26.904 36.203,26.877 36.2,26.85C36.225,27.159 36.131,27.467 35.939,27.711C35.85,27.461 35.939,27.53 35.759,27.35C35.7,27.441 36.029,27.671 35.91,27.85C35.714,27.801 35.534,27.701 35.39,27.56L35.54,27.43C35.25,27.211 35.35,27.591 35.23,27.611L35.14,27.47C34.93,27.691 35.14,28.01 34.89,28.18L34.98,28.25C35.069,28.671 34.73,28.171 34.759,28.5L34.49,28.22C34.45,28.474 34.373,28.72 34.259,28.95C34.208,28.686 34.208,28.415 34.259,28.151C34.16,28.22 33.96,28.41 34.029,28.6C34.029,28.54 34.029,28.43 34.1,28.45C34.18,28.79 34.1,29.02 33.93,29.151C33.5,28.51 33.33,29.35 32.839,28.98C32.68,29.45 32.12,29.361 31.77,29.68C32.25,30.06 31.66,29.78 32.049,30.25C31.99,30.35 31.95,30.361 31.91,30.341L31.43,30.24C31.26,30.151 31.43,30.071 31.339,29.97C31.12,30.08 31.109,29.821 30.879,29.79C31.04,29.941 31,30.091 30.879,30.1L31.2,30.211C31.12,30.68 30.66,29.98 30.58,30.441L30.58,30.22C30.51,30.41 30.06,30.6 30.21,31.1C30.149,31.1 30.02,30.95 30.049,30.87C29.669,31.06 29.609,31.87 29.169,31.79L29,31.68C29,31.77 29.06,31.99 28.89,31.93C28.72,31.87 28.83,31.79 28.79,31.801C28.75,31.81 28.79,32.14 28.649,32.131L28.649,31.941C28.2,32.03 28.39,32.64 28.169,32.941C27.995,32.697 27.681,32.6 27.399,32.7L27.399,32.651C26.99,32.89 26.97,33.421 26.72,33.821C26.22,33.6 25.859,34.211 25.35,34.26C25.45,34.26 25.54,34.54 25.509,34.62C25.48,34.7 25.46,35.04 25.23,34.7C24.93,34.43 24.819,34.64 24.68,34.7L24.97,35.14C24.169,34.78 24.23,36.04 23.629,35.631C23.629,35.79 23.52,35.87 23.52,36.04L23.35,35.81C23.096,35.894 22.868,36.042 22.689,36.24L22.629,36.04C22.46,36.14 22.91,36.85 22.77,36.97L22.48,36.66C22.2,36.881 21.689,36.79 21.64,37.31C21.64,37.25 21.54,37.151 21.58,37.1C21.439,37.191 20.89,37.25 21.29,37.68C21.06,37.381 20.97,37.87 20.919,38.12L20.75,37.921C20.83,38.301 20.89,38.381 20.75,38.591C20.689,38.591 20.58,38.441 20.68,38.461C20.45,38.461 20.68,38.75 20.47,38.76L20.47,38.571C20.31,38.66 20.379,38.73 20.419,38.95C20.46,39.171 20.1,39.1 19.93,38.95C20,39.08 20.04,39.31 19.93,39.31C19.885,39.265 19.86,39.204 19.859,39.14C19.5,39.14 19.689,39.671 19.359,39.571C19.326,39.523 19.281,39.486 19.23,39.461C19.43,39.321 19.589,39.22 19.589,39.25C19.439,39.04 19.259,39.12 19.169,38.74C19.169,38.99 19.169,39.49 18.97,39.51C18.97,39.51 18.919,39.51 18.899,39.45C18.85,39.45 18.839,39.45 18.83,39.56C18.774,39.545 18.715,39.545 18.66,39.56C18.52,39.401 18.41,39.56 18.33,39.651C18.5,39.87 18.33,39.91 18.609,40.03L18.609,39.941C18.61,39.924 18.61,39.907 18.609,39.89L18.79,39.731C18.79,39.89 18.79,40.03 18.649,39.97C18.71,40.151 18.779,40.33 18.81,40.421C18.47,40.18 18.129,40.16 17.96,39.99C17.819,40.29 17.46,40.49 17.62,40.99C17.62,41.091 17.46,40.921 17.379,40.881C17.299,40.841 17.439,40.78 17.379,40.7C17.319,40.91 17.009,41.04 17.189,41.361C16.919,41.361 17.089,41.02 16.89,41.24L16.89,41.12C16.08,40.99 16.7,42.441 15.74,42.211C15.793,42.211 15.843,42.233 15.879,42.27C15.089,42.43 14.879,43.41 13.96,43.421C13.74,43.421 13.859,43.651 13.87,43.87L13.649,43.66L13.649,44.06C13.56,44.451 12.79,43.78 12.77,44.39L12.93,44.53C12.79,44.53 12.649,44.881 12.529,44.68C12.529,44.68 12.62,44.881 12.529,44.831L12.43,44.701L12.319,45.121C12.049,45.18 11.98,44.591 11.66,44.791C11.58,44.93 11.66,45.4 11.71,45.461C11.817,45.434 11.929,45.478 11.99,45.57L12,45.72C12.259,46.1 12.46,46.551 12.91,46.621L12.91,46.26L13.1,46.4L12.96,46.52C13.169,46.631 13.12,46.44 13.1,46.291C13.16,46.355 13.235,46.403 13.319,46.43L13.189,45.921C13.319,46.06 13.33,46.27 13.509,46.27C13.509,46.041 13.189,46.001 13.24,45.791C13.45,45.89 13.529,46.051 13.52,45.791C13.59,45.849 13.627,45.939 13.62,46.03C13.62,45.85 13.819,45.801 13.72,45.57C13.97,45.711 13.98,45.291 14.24,45.65C14.185,45.499 14.185,45.333 14.24,45.18C14.399,45.72 14.56,44.98 14.859,45.47C14.689,45.001 15.129,45.001 15.169,44.64C15.169,44.64 15.169,44.76 15.169,44.751C15.299,44.751 15.419,44.751 15.54,44.81C15.319,44.49 15.439,44.291 15.39,44.03C15.75,44.23 15.58,44.461 15.839,44.72C15.64,44.47 15.89,44.291 15.68,44.111C15.93,44.22 15.839,44.111 16.089,44.36C15.81,43.95 16.089,44.22 16.04,43.91C16.33,44 16.35,44.251 16.43,44.01C16.629,44.131 16.58,44.381 16.58,44.381Z" style="fill:rgb(148,188,229);fill-rule:nonzero;"/>
        <path d="M18.589,39.921C18.612,39.93 18.637,39.93 18.66,39.921L18.66,39.841L18.589,39.921Z" style="fill:rgb(148,188,229);fill-rule:nonzero;"/>
        <path d="M48.62,18.131" style="fill:rgb(148,188,229);fill-rule:nonzero;"/>
        <path d="M25.169,37.631L25.129,37.571L25.14,37.64L25.169,37.631Z" style="fill:rgb(148,188,229);fill-rule:nonzero;"/>
        <path d="M51,17.571L51.059,17.571C51.041,17.564 51.019,17.564 51,17.571Z" style="fill:rgb(148,188,229);fill-rule:nonzero;"/>
        <path d="M51.83,17.04L52,17.04C51.943,17.03 51.885,17.03 51.83,17.04Z" style="fill:rgb(148,188,229);fill-rule:nonzero;"/>
        <path d="M52.509,16.711C52.494,16.672 52.474,16.635 52.45,16.6L52.509,16.711Z" style="fill:rgb(148,188,229);fill-rule:nonzero;"/>
        <path d="M43.15,24.051C43.11,24.16 43.139,24.12 43.15,24.051Z" style="fill:rgb(148,188,229);fill-rule:nonzero;"/>
        <path d="M45.599,21.421C45.605,21.477 45.605,21.534 45.599,21.591C45.65,21.571 45.7,21.551 45.599,21.421Z" style="fill:rgb(148,188,229);fill-rule:nonzero;"/>
        <path d="M40.169,26.68" style="fill:rgb(148,188,229);fill-rule:nonzero;"/>
        <path d="M45.46,21.691C45.522,21.697 45.58,21.653 45.589,21.591C45.54,21.611 45.469,21.62 45.46,21.691Z" style="fill:rgb(148,188,229);fill-rule:nonzero;"/>
        <path d="M55.19,14.921" style="fill:rgb(148,188,229);fill-rule:nonzero;"/>
        <path d="M55.2,14.83L55.2,14.78C55.2,14.78 55.19,14.801 55.2,14.83Z" style="fill:rgb(148,188,229);fill-rule:nonzero;"/>
        <path d="M55.24,14.671L55.24,14.78C55.24,14.78 55.269,14.74 55.24,14.671Z" style="fill:rgb(148,188,229);fill-rule:nonzero;"/>
        <path d="M54.32,15.361L54.32,15.45C54.323,15.421 54.323,15.39 54.32,15.361Z" style="fill:rgb(148,188,229);fill-rule:nonzero;"/>
        <path d="M54.089,15.571C54.169,15.571 54.37,15.631 54.41,15.52L54.41,15.45C54.419,15.6 54.049,15.39 54.089,15.571Z" style="fill:rgb(148,188,229);fill-rule:nonzero;"/>
        <path d="M52.33,15.301L52.589,15.22C52.49,15.16 52.349,15.071 52.429,14.981C52,14.921 52.629,15.14 52.33,15.301Z" style="fill:rgb(148,188,229);fill-rule:nonzero;"/>
        <path d="M51.61,15.64C51.69,15.52 51.519,15.51 51.49,15.461C51.48,15.591 51.469,15.62 51.61,15.64Z" style="fill:rgb(148,188,229);fill-rule:nonzero;"/>
        <path d="M47.07,19L46.929,18.79C46.87,18.921 47,18.921 47.07,19Z" style="fill:rgb(148,188,229);fill-rule:nonzero;"/>
        <path d="M46.99,20.711L47.169,20.78L47.07,20.56L46.99,20.711Z" style="fill:rgb(148,188,229);fill-rule:nonzero;"/>
        <path d="M45.389,19.62L45.41,19.571L45.32,19.75L45.389,19.62Z" style="fill:rgb(148,188,229);fill-rule:nonzero;"/>
        <path d="M37.819,25.35L38.029,25.58C38.06,25.5 37.859,25.2 37.819,25.35Z" style="fill:rgb(148,188,229);fill-rule:nonzero;"/>
        <path d="M34.72,28.051C34.589,27.95 34.439,27.93 34.47,28.1C34.56,28.06 34.71,28.111 34.72,28.051Z" style="fill:rgb(148,188,229);fill-rule:nonzero;"/>
        <path d="M24.54,34.95L24.549,34.821L24.47,34.981L24.54,34.95Z" style="fill:rgb(148,188,229);fill-rule:nonzero;"/>
        <path d="M59.28,20.76C59.349,20.711 59.5,20.591 59.46,20.591L59.179,20.78L59.28,20.76Z" style="fill:rgb(148,188,229);fill-rule:nonzero;"/>
        <path d="M59.669,20.26C59.446,20.369 59.237,20.507 59.049,20.671C59.32,20.5 59.219,20.591 59.54,20.39C59.54,20.39 59.48,20.481 59.379,20.551C59.45,20.551 59.379,20.631 59.519,20.551C59.66,20.47 59.69,20.341 59.519,20.43L59.669,20.26Z" style="fill:rgb(148,188,229);fill-rule:nonzero;"/>
        <path d="M58.66,18.03C58.66,18.03 58.66,18.04 58.66,18.03Z" style="fill:rgb(148,188,229);fill-rule:nonzero;"/>
        <path d="M57.929,16.74L58,16.74C57.977,16.731 57.952,16.731 57.929,16.74Z" style="fill:rgb(148,188,229);fill-rule:nonzero;"/>
        <path d="M58.07,16.321C58.07,16.321 58.089,16.301 58.07,16.321Z" style="fill:rgb(148,188,229);fill-rule:nonzero;"/>
        <path d="M58.66,18.03L58.719,17.941C58.639,18 58.669,18 58.66,18.03Z" style="fill:rgb(148,188,229);fill-rule:nonzero;"/>
        <path d="M58.83,20.47L58.919,20.47L58.83,20.47Z" style="fill:rgb(148,188,229);fill-rule:nonzero;"/>
        <path d="M59.269,18.401L59.379,18.321L59.269,18.401Z" style="fill:rgb(148,188,229);fill-rule:nonzero;"/>
        <path d="M59.61,18.77C59.494,18.835 59.383,18.908 59.28,18.99C59.333,18.951 59.39,18.918 59.45,18.89L59.61,18.77Z" style="fill:rgb(148,188,229);fill-rule:nonzero;"/>
        <path d="M59.099,18.071C59.129,18.055 59.156,18.034 59.179,18.01L59.099,18.071Z" style="fill:rgb(148,188,229);fill-rule:nonzero;"/>
        <path d="M49.849,6.79L50,6.7L49.849,6.79Z" style="fill:rgb(148,188,229);fill-rule:nonzero;"/>
        <path d="M58.089,15.731C58.089,15.731 58.11,15.72 58.089,15.731Z" style="fill:rgb(148,188,229);fill-rule:nonzero;"/>
        <path d="M55.389,12.45C55.219,12.631 55.089,12.571 54.91,12.801C55,12.731 55.299,12.591 55.389,12.45Z" style="fill:rgb(148,188,229);fill-rule:nonzero;"/>
        <path d="M58.86,20.441C58.86,20.441 58.839,20.441 58.86,20.441Z" style="fill:rgb(148,188,229);fill-rule:nonzero;"/>
        <path d="M54.91,12.801" style="fill:rgb(148,188,229);fill-rule:nonzero;"/>
        <path d="M57.32,14.981L57.219,15.06L57.32,14.981Z" style="fill:rgb(148,188,229);fill-rule:nonzero;"/>
        <path d="M57.469,15.85C57.469,15.85 57.469,15.841 57.469,15.85Z" style="fill:rgb(148,188,229);fill-rule:nonzero;"/>
        <path d="M56.75,14.921C56.75,14.921 56.75,14.87 56.75,14.921C56.75,14.921 56.78,14.841 56.75,14.921Z" style="fill:rgb(148,188,229);fill-rule:nonzero;"/>
        <path d="M56.5,14.54" style="fill:rgb(148,188,229);fill-rule:nonzero;"/>
        <path d="M50,9.051L50.15,8.921C50,9.011 49.9,9 50,9.051Z" style="fill:rgb(148,188,229);fill-rule:nonzero;"/>
        <path d="M59,20.37L58.9,20.441L59,20.37Z" style="fill:rgb(148,188,229);fill-rule:nonzero;"/>
        <path d="M55,16.191L55,16.111C54.99,16.136 54.99,16.165 55,16.191Z" style="fill:rgb(148,188,229);fill-rule:nonzero;"/>
        <path d="M54.799,15.97C54.85,15.927 54.893,15.876 54.929,15.821L54.87,15.821L54.799,15.97Z" style="fill:rgb(148,188,229);fill-rule:nonzero;"/>
        <path d="M52.419,8.361L52.419,8.43L52.37,8.43L52.419,8.361ZM51.009,9.731L51.009,9.68C51.055,9.636 51.11,9.602 51.169,9.58C51.089,9.611 51.07,9.671 51,9.731L51.009,9.731ZM50.929,9.631C50.929,9.631 50.91,9.631 50.929,9.631ZM49.349,8.921C49.349,8.981 49.66,8.731 49.839,8.62C50.019,8.511 49.639,8.81 49.5,8.941C49.61,8.941 49.9,8.75 49.91,8.79L49.79,8.921C50.049,8.79 49.889,9.031 50.219,8.861C50.202,8.886 50.177,8.907 50.15,8.921L50.549,8.62C50.549,8.62 50.769,8.52 50.549,8.62C50.549,8.62 50.46,8.62 50.4,8.7L50.5,8.7C50.24,8.93 50.379,8.7 50.169,8.89C50.299,8.89 50.57,8.761 50.519,8.89C50.25,9.1 50.36,8.89 50.16,9.1L50.259,8.921C49.86,9.281 50.259,8.861 49.83,9.241C49.83,9.381 50.03,9.241 50.009,9.361C50.169,9.261 50.23,9.18 50.389,9.091C50.74,8.991 49.769,9.68 50.19,9.491C50.389,9.37 50.74,9.131 50.599,9.321L50.269,9.531C50.269,9.62 50.75,9.241 50.599,9.47C50.45,9.7 50.45,9.47 50.419,9.531C50.219,9.761 50.62,9.43 50.65,9.47L50.379,9.68C50.48,9.68 50.74,9.68 50.86,9.68C50.766,9.729 50.681,9.793 50.61,9.87C50.82,9.87 50.74,10.12 50.61,10.341L50.87,10.211C50.87,10.211 50.78,10.301 50.73,10.33C50.679,10.361 50.879,10.22 50.98,10.171C51.08,10.12 50.87,10.301 50.79,10.341C51.04,10.261 51.37,10.22 51.169,10.481L51.089,10.481C51.089,10.611 51.62,10.191 51.44,10.41C51.44,10.611 51.75,10.591 51.44,10.95C51.799,10.72 51.379,11.191 51.86,10.85C51.679,11.091 51.58,11.131 51.5,11.35C51.5,11.401 51.83,11.171 51.9,11.171L51.65,11.361L51.95,11.211L51.669,11.45L51.759,11.45C51.759,11.45 51.849,11.341 51.919,11.29C51.99,11.24 51.839,11.54 51.71,11.631L52.009,11.631C51.938,11.677 51.861,11.715 51.78,11.74C52.08,11.62 51.53,11.941 51.78,11.83C51.844,11.78 51.911,11.734 51.98,11.691C51.86,11.83 51.9,11.89 51.98,11.901L51.799,12.01C51.799,12.131 52.019,12.131 52.089,12.23C52.197,12.102 52.335,12.002 52.49,11.941L52.24,12.14C52.419,12.04 52.32,12.04 52.54,11.93C52.54,11.99 52.259,12.171 52.16,12.22L52.29,12.22C52.21,12.28 52.16,12.301 52.059,12.381C52.24,12.27 51.849,12.651 52.16,12.461L52.08,12.52C52.15,12.62 52.269,12.6 52.339,12.671C52.57,12.5 52.54,12.571 52.74,12.461C52.74,12.571 52.589,12.77 52.66,12.821C52.73,12.87 52.86,12.7 53.009,12.62C52.809,12.77 52.879,12.83 52.7,12.901C52.799,12.961 52.82,12.98 53.07,12.961C53.122,12.899 53.182,12.845 53.25,12.801C53.25,12.801 53.19,12.91 53.089,12.98C53.48,12.87 52.69,13.7 53.19,13.48L53.49,13.41C53.49,13.48 53.32,13.5 53.21,13.631C53.639,13.481 53.29,13.83 53.58,13.75C53.03,14.27 53.799,13.961 53.48,14.341L53.62,14.231C53.78,14.151 53.559,14.321 53.54,14.361C53.519,14.401 53.65,14.24 53.74,14.191C54.059,14.27 53.839,14.76 53.86,15.06C53.86,15.171 54.629,14.56 54.36,14.901L54.07,15.071C54.509,14.99 54.29,15.39 54.669,15.341C54.61,15.341 54.53,15.441 54.519,15.421C54.349,15.591 54.589,15.54 54.75,15.421C54.75,15.421 54.61,15.53 54.54,15.6C54.469,15.671 54.849,15.5 54.669,15.66L54.58,15.66C54.69,15.611 54.58,15.77 54.83,15.591C54.769,15.72 55.009,15.591 54.91,15.76C55.179,15.611 54.91,15.95 55.219,15.7C54.86,15.961 55,16.01 55.219,15.921C55.099,15.99 55.129,16.03 54.969,16.131C54.969,16.131 55.089,16.131 55.28,16.01C54.9,16.41 55.74,15.901 55.21,16.361C55.427,16.317 55.652,16.317 55.87,16.361C55.509,16.62 55.75,16.26 55.37,16.551C55.599,16.551 55.95,16.37 55.94,16.551C55.929,16.731 55.769,16.651 55.7,16.68C55.929,16.68 55.809,16.91 56.08,16.85L55.969,16.85C55.969,16.85 55.969,16.93 56.11,16.85L56.049,16.85C56.26,16.695 56.489,16.564 56.73,16.461C56.24,16.78 56.73,16.631 56.049,17.03C56.132,16.994 56.21,16.947 56.28,16.89C56.28,16.89 56.2,16.981 56.059,17.06C56.2,17.06 56.36,16.901 56.4,16.961L56.179,17.1C56.36,17.01 56.54,16.93 56.5,17.03C56.46,17.131 56.4,17.111 56.389,17.091C56.379,17.071 56.91,16.93 56.82,17.091C56.46,17.321 56.73,17.211 56.44,17.441L56.559,17.441L56.69,17.31C56.69,17.361 56.969,17.24 56.9,17.31L56.75,17.37L56.87,17.37L56.95,17.231C57.129,17.16 57.32,16.95 57.28,17.071C57.24,17.191 57.28,17.071 57.15,17.27C57.259,17.27 57.379,17.171 57.33,17.27C57.28,17.37 56.99,17.51 56.929,17.571C57.2,17.401 57.08,17.62 57.36,17.45C57.27,17.501 57.186,17.561 57.11,17.631L57.32,17.49C57.265,17.566 57.198,17.63 57.12,17.68C57.12,17.76 57.479,17.381 57.37,17.571L57.28,17.571C57.28,17.711 57.509,17.62 57.46,17.76C57.179,18 57.349,17.76 57.11,17.961C57.229,18.02 57.62,17.89 57.61,18.04C58.04,17.731 57.45,18.26 57.679,18.16C57.608,18.197 57.542,18.24 57.479,18.29C57.479,18.401 57.679,18.341 57.889,18.341L57.769,18.41C57.7,18.52 57.769,18.551 57.769,18.62C57.865,18.583 57.953,18.529 58.03,18.461C57.5,19.04 58.54,18.461 58.11,18.941C58.11,18.941 57.99,18.941 57.99,18.99L58.16,18.99C58.249,18.927 58.329,18.853 58.4,18.77C58.519,18.7 58.62,18.66 58.639,18.691C58.488,18.763 58.355,18.869 58.25,19L58.429,18.87C58.139,19.171 58.809,18.6 58.639,18.87L58.54,18.93C58.599,18.93 58.75,18.85 58.74,18.93C58.54,19.1 58.62,18.98 58.44,19.111C58.49,19.111 58.91,18.881 58.719,19.111C58.65,19.111 58.629,19.111 58.559,19.111C58.33,19.33 58.4,19.29 58.379,19.341L58.32,19.49L58.32,19.421C58.919,19.051 58.5,19.421 58.91,19.23C58.519,19.43 58.7,19.37 58.46,19.551C58.401,19.619 58.337,19.682 58.269,19.74C58.49,19.62 58.15,19.901 58.469,19.74C58.389,19.801 58.469,19.74 58.29,19.921C58.379,19.921 58.419,19.81 58.519,19.74C58.83,19.6 58.299,20.12 58.73,19.941C58.94,19.941 59.21,19.72 59.389,19.691C59.305,19.776 59.203,19.841 59.089,19.881C59.009,20.01 59.089,20.02 59.169,19.99C59.09,20.034 59.019,20.092 58.96,20.16C58.96,20.16 59.259,19.97 59.169,20.091L58.839,20.29C58.929,20.29 59.099,20.2 59.2,20.18C59.1,20.256 58.993,20.319 58.879,20.37C59.031,20.372 59.179,20.322 59.299,20.231L59.36,20.151C59.36,20.151 59.179,20.29 59.139,20.31C58.94,20.401 59.139,20.211 59.25,20.151L59.32,20.151C59.759,19.78 59.169,20.1 59.16,20.03L59.509,19.801L59.2,19.961C59.293,19.864 59.401,19.783 59.519,19.72C59.66,19.571 59.379,19.78 59.519,19.611L59.58,19.611L59.46,19.611C59.53,19.56 59.69,19.43 59.66,19.49C59.799,19.28 59.33,19.571 59.57,19.361C59.389,19.361 59.32,19.53 58.98,19.68L59.549,19.191L59.299,19.361L59.41,19.24C59.219,19.33 59.309,19.33 59.129,19.43C59.33,19.22 58.94,19.381 59.32,19.08C59.129,19.211 59.21,19.231 59.049,19.28C59.46,18.961 58.94,19.28 59.049,19.1C59.16,18.921 59.19,19.1 59.349,18.89C58.969,19.14 59.349,18.75 59.28,18.77C58.99,18.99 59.099,18.77 58.969,18.77C59.07,18.711 59.049,18.551 59.11,18.421C58.809,18.631 58.83,18.54 58.74,18.54C58.843,18.455 58.958,18.385 59.08,18.33C59.014,18.376 58.939,18.404 58.86,18.41L59.089,18.26C59.089,18.26 58.759,18.35 58.86,18.18C58.65,18.33 58.32,18.66 58.139,18.691C58.248,18.598 58.365,18.518 58.49,18.45C58.49,18.45 58.389,18.45 58.419,18.45L58.629,18.341C58.69,18.25 58.46,18.441 58.46,18.401C58.62,18.28 58.559,18.301 58.69,18.211C58.82,18.12 58.69,18.28 58.69,18.211C58.731,18.113 58.796,18.027 58.879,17.961C58.809,18.027 58.728,18.081 58.639,18.12C58.639,18.12 58.809,17.961 58.87,17.87C58.75,17.941 58.87,17.87 58.61,18C58.61,18 58.71,17.901 58.769,17.85C58.639,17.901 58.65,17.75 58.419,17.961C58.129,18.051 58.419,17.68 58.269,17.68L58.349,17.62C58.219,17.62 58.21,17.551 58.009,17.62C58.009,17.62 58.129,17.481 58.229,17.41C58.139,17.41 58.049,17.481 58.139,17.33C58.229,17.18 58.259,17.231 58.269,17.33C58.269,17.231 58.419,17.131 58.169,17.24C58.379,17.1 58.4,17.01 58.32,17.03L58.2,17.171L58.2,17.1L58.48,16.91C58.73,16.571 57.79,17.14 58.28,16.66C58.07,16.77 58.19,16.81 57.95,16.95C57.95,16.881 58.299,16.551 58.29,16.53C58.389,16.361 57.86,16.76 57.91,16.62C57.773,16.747 57.614,16.845 57.44,16.91C57.44,16.841 57.799,16.56 57.9,16.53C58,16.5 57.9,16.53 57.9,16.591C57.975,16.575 58.043,16.532 58.089,16.47L57.99,16.54C58.07,16.441 57.99,16.381 58.179,16.28C58.089,16.302 58.015,16.365 57.979,16.45C58.07,16.29 57.919,16.35 57.979,16.22C57.937,16.271 57.886,16.315 57.83,16.35C57.879,16.171 57.62,16.45 57.53,16.421C57.65,16.27 57.889,16.171 57.719,16.2C57.812,16.099 57.924,16.017 58.049,15.961C57.83,16.04 58.049,15.77 58.11,15.711L58.21,15.711C58.15,15.711 58.139,15.711 58.129,15.711L58,15.921C58.013,15.87 58.045,15.827 58.089,15.801C57.95,15.881 57.78,16.051 57.589,16.14C57.669,16.051 57.429,16.14 57.679,15.961C57.679,16.091 57.929,15.76 58.009,15.79C58.089,15.821 58.009,15.79 58.009,15.74L58.089,15.74C58.259,15.5 57.78,15.921 57.73,15.85C57.879,15.75 57.99,15.631 57.95,15.64C57.91,15.651 57.719,15.83 57.589,15.881C57.669,15.76 57.469,15.881 57.469,15.881L57.469,15.95C57.32,16.04 57.32,16.01 57.25,16.01C57.36,15.921 57.349,16.01 57.389,15.93C57.11,16.08 57.589,15.66 57.389,15.74C57.469,15.64 57.66,15.54 57.71,15.47C57.48,15.551 57.86,15.26 57.66,15.321C57.566,15.421 57.45,15.496 57.32,15.54L57.519,15.54L57.2,15.68C57.2,15.68 57.36,15.68 57.339,15.68C57.236,15.718 57.144,15.78 57.07,15.861C57.33,15.611 56.839,15.91 57,15.72L57.48,15.37C57.639,15.14 57.139,15.421 57.2,15.25L57.139,15.341C56.94,15.461 57.07,15.341 56.969,15.341C57.072,15.26 57.168,15.174 57.259,15.08C57.15,15.171 57.259,15 56.9,15.231L57,15.02C57,14.881 56.49,15.27 56.49,15.16C56.65,15.061 56.821,14.981 57,14.921C57,14.921 57,14.861 56.889,14.921C56.969,14.83 56.62,15.01 56.759,14.921C56.679,14.921 56.509,15.08 56.509,15.04L56.589,14.99C56.476,15.03 56.374,15.095 56.29,15.18C56.73,14.74 56.11,15 56.49,14.631C56.406,14.624 56.324,14.6 56.25,14.56C56.299,14.56 56.33,14.5 56.32,14.56C56.419,14.39 55.839,14.861 55.95,14.66C56.059,14.461 56.12,14.6 56.2,14.5C56.71,14.111 56.059,14.5 56.33,14.2C56.48,14.04 56.059,14.26 56.059,14.2L56.139,14.14C55.974,14.249 55.777,14.298 55.58,14.28C55.697,14.223 55.804,14.149 55.9,14.06C55.9,14.06 55.58,14.321 55.48,14.31C55.597,14.172 55.728,14.044 55.87,13.93C56.139,13.691 55.82,13.881 55.87,13.81L56,13.62C55.9,13.62 55.58,13.81 55.54,13.711L55.46,13.79C55.11,13.981 55.599,13.62 55.339,13.79L55.65,13.54C55.495,13.598 55.334,13.638 55.169,13.66C55.359,13.564 55.556,13.484 55.759,13.421C55.759,13.421 55.66,13.341 55.49,13.421C55.49,13.421 55.62,13.37 55.58,13.421C55.299,13.571 55.15,13.611 55.11,13.551C55.73,13.1 55.11,13.28 55.599,12.89C55.299,12.95 55.549,12.611 55.419,12.52C54.98,12.921 55.419,12.52 54.9,12.87L55.129,12.571C55.259,12.441 55.25,12.52 55.36,12.43C55.469,12.341 55.549,12.25 55.65,12.111C55.48,12.25 55.389,12.28 55.429,12.2L55.24,12.41C54.91,12.52 55.589,12.03 55.24,12.14L55.419,12.051C55.29,12.051 55.299,11.89 54.87,12.14C54.938,12.073 55.015,12.016 55.099,11.97C55.099,11.821 54.509,12.051 54.69,11.79L54.82,11.711C54.82,11.711 54.57,11.841 54.669,11.711L54.799,11.611C54.75,11.611 54.549,11.711 54.599,11.611L54.75,11.53C54.83,11.31 54.299,11.62 54.16,11.591C54.509,11.33 54.57,11.16 54.589,11.08L54.65,11.08C54.65,10.921 54.2,11.08 53.98,11.08C54.32,10.731 53.98,10.731 54.11,10.461C54.012,10.549 53.901,10.62 53.78,10.671C53.78,10.591 53.48,10.781 53.78,10.551C54.08,10.29 53.96,10.301 53.94,10.261L53.509,10.56C54.04,10 53.07,10.45 53.58,9.981C53.45,10.031 53.429,9.981 53.309,10.051L53.53,9.881C53.53,9.77 53.53,9.711 53.419,9.66L53.599,9.56C53.599,9.5 52.889,9.981 52.839,9.95L53.169,9.68C53.099,9.6 53.339,9.29 52.96,9.43C52.96,9.43 53.11,9.321 53.139,9.33C53.169,9.341 53.25,9 52.79,9.33C53.099,9.1 52.79,9.211 52.589,9.261L52.82,9.111C52.5,9.281 52.419,9.33 52.299,9.341C52.179,9.35 52.469,9.191 52.429,9.25C52.509,9.12 52.19,9.381 52.269,9.25L52.429,9.171C52.429,9.111 52.339,9.171 52.15,9.27C51.96,9.37 52.15,9.14 52.339,8.981C52.21,9.071 52.03,9.171 52.07,9.1C52.115,9.061 52.166,9.028 52.219,9C52.32,8.81 51.879,9.08 52.059,8.861C52.109,8.831 52.152,8.794 52.19,8.75C52.19,8.821 52.25,8.881 52.19,8.881C52.351,8.733 52.525,8.599 52.71,8.481C52.53,8.56 52.139,8.741 52.2,8.62L52.269,8.56C52.269,8.56 52.269,8.491 52.269,8.47C52.44,8.341 52.269,8.35 52.269,8.321C52.049,8.491 52.059,8.43 51.9,8.591L52.019,8.591C51.889,8.66 51.78,8.711 51.879,8.591L51.49,8.83C51.78,8.56 51.91,8.37 52.089,8.22C51.855,8.166 51.608,8.221 51.419,8.37C51.349,8.37 51.53,8.261 51.589,8.2C51.65,8.14 51.589,8.2 51.71,8.2C51.57,8.2 51.57,8.111 51.269,8.321C51.36,8.16 51.559,8.14 51.46,8.111L51.559,8.051C51.929,7.551 50.629,8.381 51.12,7.77L51.03,7.861C51.16,7.481 50.5,7.671 50.79,7.18C50.839,7.06 50.65,7.18 50.48,7.27L50.71,7.08L50.389,7.241C50.129,7.31 50.889,6.671 50.389,6.861L50.429,6.921C50.429,6.861 50.25,6.921 50.429,6.75C50.429,6.75 50.259,6.861 50.33,6.75L50.46,6.651L50.179,6.731C50.179,6.6 50.69,6.37 50.639,6.25C50.455,6.307 50.279,6.391 50.12,6.5C50.12,6.5 50.07,6.6 49.94,6.691L49.849,6.691C49.483,6.913 49.147,7.182 48.849,7.491L49.12,7.381L49,7.631C48.849,7.79 49,7.691 49.129,7.631C49.063,7.679 49.002,7.737 48.95,7.801L49.339,7.591C49.2,7.711 49.03,7.781 48.98,7.881C49.169,7.781 49.29,7.611 49.429,7.571C49.28,7.731 49.139,7.821 49.299,7.75C49.237,7.805 49.167,7.849 49.089,7.881C49.23,7.821 49.2,7.881 49.41,7.781C49.219,7.97 49.53,7.841 49.169,8.1C49.257,8.028 49.355,7.967 49.46,7.921C49,8.191 49.46,8.04 49.04,8.361C49.45,8.111 49.309,8.361 49.559,8.27C49.559,8.27 49.46,8.27 49.48,8.27C49.5,8.27 49.37,8.43 49.309,8.5C49.525,8.365 49.756,8.257 50,8.18C49.785,8.356 49.557,8.516 49.32,8.66C49.58,8.461 49.629,8.54 49.839,8.37C49.74,8.477 49.632,8.577 49.519,8.671C49.91,8.39 49.61,8.671 49.87,8.5C49.71,8.691 49.509,8.79 49.66,8.75C49.571,8.83 49.464,8.888 49.349,8.921Z" style="fill:rgb(148,188,229);fill-rule:nonzero;"/>
        <path d="M52.099,8.551L52.179,8.551L52.099,8.551Z" style="fill:rgb(148,188,229);fill-rule:nonzero;"/>
        <path d="M58.639,18.071" style="fill:rgb(148,188,229);fill-rule:nonzero;"/>
        <path d="M51.629,11.47L51.679,11.43L51.629,11.45L51.629,11.47Z" style="fill:rgb(148,188,229);fill-rule:nonzero;"/>
        <path d="M58.28,19.211L58.23,19.26L58.28,19.211Z" style="fill:rgb(148,188,229);fill-rule:nonzero;"/>
        <path d="M58.41,19.49L58.41,19.591C58.412,19.557 58.412,19.524 58.41,19.49Z" style="fill:rgb(148,188,229);fill-rule:nonzero;"/>
        <path d="M58.44,19.76L58.54,19.7L58.44,19.76Z" style="fill:rgb(148,188,229);fill-rule:nonzero;"/>
        <path d="M56,16.981C55.889,17 55.919,17 56,16.981Z" style="fill:rgb(148,188,229);fill-rule:nonzero;"/>
        <path d="M57.15,17.481L57.019,17.53C57.019,17.53 57,17.571 57.15,17.481Z" style="fill:rgb(148,188,229);fill-rule:nonzero;"/>
        <path d="M54.96,16.2L54.969,16.191L54.96,16.191L54.96,16.2Z" style="fill:rgb(148,188,229);fill-rule:nonzero;"/>
        <path d="M57,17.49C57,17.49 57,17.54 57,17.49C57,17.441 57,17.47 57,17.49Z" style="fill:rgb(148,188,229);fill-rule:nonzero;"/>
        <path d="M58.94,20.651" style="fill:rgb(148,188,229);fill-rule:nonzero;"/>
        <path d="M59,20.64C59,20.64 59,20.62 59,20.64Z" style="fill:rgb(148,188,229);fill-rule:nonzero;"/>
        <path d="M59.08,20.611L59,20.611C59,20.611 59,20.651 59.08,20.611Z" style="fill:rgb(148,188,229);fill-rule:nonzero;"/>
        <path d="M58.86,20.33L58.769,20.381L58.86,20.33Z" style="fill:rgb(148,188,229);fill-rule:nonzero;"/>
        <path d="M58.78,20.27C58.78,20.27 58.639,20.441 58.71,20.43L58.769,20.381C58.639,20.461 58.929,20.18 58.78,20.27Z" style="fill:rgb(148,188,229);fill-rule:nonzero;"/>
        <path d="M59.559,19.2L59.559,19.321C59.639,19.24 59.74,19.14 59.79,19.151C60,18.921 59.58,19.31 59.559,19.2Z" style="fill:rgb(148,188,229);fill-rule:nonzero;"/>
        <path d="M59.54,18.921C59.599,18.921 59.66,18.83 59.719,18.801C59.645,18.812 59.58,18.856 59.54,18.921Z" style="fill:rgb(148,188,229);fill-rule:nonzero;"/>
        <path d="M58.49,17.5L58.7,17.35C58.65,17.35 58.62,17.41 58.49,17.5Z" style="fill:rgb(148,188,229);fill-rule:nonzero;"/>
        <path d="M57.23,18.02L57.12,18.14L57.32,18.01L57.23,18.02Z" style="fill:rgb(148,188,229);fill-rule:nonzero;"/>
        <path d="M58.57,16.77L58.61,16.76L58.509,16.77L58.57,16.77Z" style="fill:rgb(148,188,229);fill-rule:nonzero;"/>
        <path d="M56.74,14.45L56.49,14.651C56.549,14.631 56.839,14.421 56.74,14.45Z" style="fill:rgb(148,188,229);fill-rule:nonzero;"/>
        <path d="M55.719,13.62C55.839,13.51 55.9,13.421 55.719,13.5C55.54,13.58 55.679,13.631 55.719,13.62Z" style="fill:rgb(148,188,229);fill-rule:nonzero;"/>
        <path d="M53.86,10.241L53.96,10.191L53.86,10.211L53.86,10.241Z" style="fill:rgb(148,188,229);fill-rule:nonzero;"/>
    </g>
</svg>
