<svg xmlns="http://www.w3.org/2000/svg" viewBox="0 0 147.54 67.48"><defs><style>.cls-1{fill:#aacbeb;}.cls-2{fill:#ef7d00;}</style></defs><title>Element 199</title><g id="Ebene_2" data-name="Ebene 2"><g id="Ebene_2-2" data-name="Ebene 2"><path class="cls-1" d="M135.43,37.94c.12.06.28-.07.13-.32l-.39,0Z"/><path class="cls-1" d="M135.23,35.93c-.28-.24-.69-.48-.88-.16.42.18.33.3.82.48.15.25.1.5,0,.5.12.06.11.44.36.5A1.34,1.34,0,0,0,135,36C135.05,35.88,135.17,35.94,135.23,35.93Z"/><path class="cls-1" d="M122.67,11.06l.08.17A.51.51,0,0,0,122.67,11.06Z"/><path class="cls-1" d="M108.58,1.08c.13,0,.19,0,.21,0C108.66,1,108.55,1,108.58,1.08Z"/><path class="cls-1" d="M105.57.35l.18,0C105.68.34,105.61.32,105.57.35Z"/><path class="cls-1" d="M122.67,11.06l-.2-.43C122.36,10.67,122.55,10.87,122.67,11.06Z"/><path class="cls-1" d="M133,32.73a.7.7,0,0,0,.18.2l-.13-.2Z"/><path class="cls-1" d="M127.16,17.3l.07.12.18,0Z"/><path class="cls-1" d="M130,22.45c-.05-.12-.32,0-.45,0a.39.39,0,0,1,.3.17A.35.35,0,0,0,130,22.45Z"/><path class="cls-1" d="M133.48,31.08l.11.13Z"/><path class="cls-1" d="M125,13.68a.21.21,0,0,0,.06-.1A.17.17,0,0,0,125,13.68Z"/><path class="cls-1" d="M12.6,37.66l.05,0S12.58,37.62,12.6,37.66Z"/><path class="cls-1" d="M10.88,31l.06.07.15,0Z"/><path class="cls-1" d="M99.89.48h0C100.06.42,100,.44,99.89.48Z"/><path class="cls-1" d="M69.9,39c.45-.41-.08,1,.52.31C70.29,39.33,70.33,38.42,69.9,39Z"/><path class="cls-1" d="M132.94,32.58l-.1-.22A1.2,1.2,0,0,0,132.94,32.58Z"/><path class="cls-1" d="M70.42,39.3h0l.06-.07Z"/><path class="cls-1" d="M88.52,6.67h.18S88.63,6.64,88.52,6.67Z"/><path class="cls-1" d="M96.85,1.93l-.24,0A.75.75,0,0,0,96.85,1.93Z"/><path class="cls-1" d="M85.43,10.54a.66.66,0,0,0-.25.25l.06,0A.38.38,0,0,1,85.43,10.54Z"/><path class="cls-1" d="M82.42,14.63l.1,0,.07-.14Z"/><path class="cls-1" d="M20.37,50.9a1.06,1.06,0,0,1,.08-.34C20.33,50.74,19.86,50.16,20.37,50.9Z"/><path class="cls-1" d="M133.11,32.67a.2.2,0,0,1-.17-.09l.08.15S133.1,32.71,133.11,32.67Z"/><path class="cls-1" d="M87,12.1a5.47,5.47,0,0,0-.51.57Z"/><path class="cls-1" d="M51.44,66.62l-.17.1A.27.27,0,0,0,51.44,66.62Z"/><path class="cls-1" d="M85.16,14.53a1,1,0,0,0-.41.25s0,.08,0,.11A4.64,4.64,0,0,1,85.16,14.53Z"/><path class="cls-1" d="M20.45,50.56Z"/><path class="cls-1" d="M17.05,46.43c.39.66.5.12.76.15.57.73,0,.51,0,.87.38.44.9.64,1.11,1,0,.06,0,.14-.13.1.56.35,1,1.49,1.7,1.87a.23.23,0,0,1,0,.13.72.72,0,0,1,.36-.37c.2.28.55.39.42.63-.11-.17-.2-.13-.32-.17l.29.24c-.11.46-.37-.34-.59-.2A10.84,10.84,0,0,1,22,52.2c-.21.29-.84-1-.66-.19-.13-.25-.26-.5-.37-.76-.09.84-.25-.44-.4.37.56,1,.87.9,1.44,1.85.3.08.17-.23.47-.15,1.19,1,.06,1.51,1.15,2.12.37.09.77-.1,1.12.67l-.47,0c.67.84.78.13,1.36,1.11-.25,0-.67-.53-.59-.38.27.74.51.23.9.63l-.17.32c.41.39.88.78,1.36,1.17s1,.73,1.52,1.13c-.12,0-.36,0-.2.24.65.48,1.27,1.06,1.95,1.59s1.25,1.19,1.88,1.66l.68.06c.11.07.15.25,0,.22.47.41.12-.15.43-.1s.31.38.08.35c1,.41,3,.88,3.89,1.64h-.24c.8.41,1.15-.26,1.83.24h-.16c.44.17.91.33,1.38.46l1.43.26c.46.08.92.18,1.34.29a7.82,7.82,0,0,1,1.18.3c.3-.41,1.9.31,2-.29a8.77,8.77,0,0,0,2.41.42c.44,0,.57-.49,1.06-.66l.08.3.61-.47.47.26.46-.19c-.2,0-.45,0-.45-.12.7-.3,1.81-.46,1.9-.3l.8-.46c.25-.17.48-.38.72-.56,0,.13-.21.32-.39.51.7-.76.31.2.95-.5-.14,0,0-.19,0-.26a3.06,3.06,0,0,0,.92-.36,5.07,5.07,0,0,0,.95-.75v.26a11.18,11.18,0,0,0,1.62-1.34c.5-.52,1-1.06,1.54-1.57-.45.3-.63,0-.34-.36l.35.09c0-.34-.39.26-.2-.34.39-.38.52,0,.39.29l.35-.58c.1,0,0,.18.1.3,0-.34,1-.66,1-1.19l.1,0c.91-1.15,1.2-1.75,1.88-2.72-.22-.18.09-.53.09-.95a14.18,14.18,0,0,0,1.76-2.26c.24-.7-.1-.3-.08-.67.25.09.75-.82.64-.26a17.27,17.27,0,0,0,1.28-2.88c-.17.1-.3.24-.33.11s.4-.51.49-.42l0,.08c.47-1.72,2.49-3.28,2.59-4.77v.08l.36-1.42c.32-.58,0,.44.36.06.25-1.59,1.07-2.2,1.33-3.48,1.09-.6,1.37-3.22,2.34-4.24H74c0-.39.26-.34.4-.56-.14,0-.3.28-.3,0a57,57,0,0,1,4.08-8c.5-.95-.57-.95.4-2l.13.49a16.3,16.3,0,0,1,1.33-3,22.11,22.11,0,0,0,1.43-2.94c0,.15.09.2,0,.38.41-.28.84-1.42.68-1.53.18-.27.19,0,.38-.1.35-.31.31-1.12.64-1.2,0,0,0,.15,0,.23,0-.33.76-1.13.37-1.05.55-.58.73-1.33,1.22-1.76,0-.53.92-1,.64-1.37.34.32,1.11-.89,1.26-1.4,0,.21.39-.24.41,0,.37-.43.64-.88.4-1A2.3,2.3,0,0,0,88.51,10c.26-.38.51-.72,1-.68l.76-1c.25-.32.54-.58.81-.87a14.44,14.44,0,0,1,1.7-1.55c.11.21-.24.41-.55.67s-.58.52-.41.69c.24-.26.45-.51.65-.74L93,5.92a6.22,6.22,0,0,1,1.47-1.08c.36-.1-.1.26-.15.41a10.49,10.49,0,0,1,1.78-1c.58-.32,1.19-.51,1.74-.82,0,0-.1.12-.21.2.23-.1.56-.12.47-.31l-.21.13c-.48-.15.75-.91.76-1.08-.12.36.19.28.47.25s.55,0,.32.45c.15-.07.32-.2.26-.33.24,0,.34.06.13.26.84-.28.49-.43,1.29-.58,0,.09-.14.16-.2.29a1.88,1.88,0,0,1,1.44-.51c0,.06,0,.13-.16.14A9.29,9.29,0,0,0,103.83,2a6.66,6.66,0,0,1,.8-.17,3.52,3.52,0,0,1,.9.06c-.39.42.44.16.48.53l.69,0-.26-.21c.6.08,1.18-.14,1.67.1l-.47.06,1.12.15-.6-.26c.65-.07,0-.48.82-.22-.17,0,.6.18.85.47h0a1.44,1.44,0,0,1,1.07.2c.07.15-.23.35-.19.45a1.44,1.44,0,0,1,.89.12,1.79,1.79,0,0,0,1,.19c-.15,0-.24.19-.22.24l.34-.12c.22.19.24.26.13.37.72.45,0-.55.78.11-.08,0-.07,0-.23,0,.43.28.87.5,1.29.73a4.69,4.69,0,0,1,1.19.8c0,.46-.72-.41-.64,0a15.05,15.05,0,0,1,3.38,2.33l-.14-.2c.5-.25.51.88,1.15,1.18-.14-.1-.36.05-.28,0a29.41,29.41,0,0,0,2.33,2.23l-.21,0c.23.5.82,1.15,1.1,1.66.21.06.39.34.43.06.41,1.88,2.29,2.59,2.56,4.3-.1-.16-.34-.32-.26-.19.26.36.54.72.8,1.09.14-.21,0-.22,0-.56a1.63,1.63,0,0,1,.66.65c-.44-.45-.32.19-.3.49,0-.08.15,0,.2-.09,0,.82.47-.13.7.85l-.13,0a4.14,4.14,0,0,1,.69.86c-.16.27-.3-.28-.5-.19.28.47,1,.71,1,1.28-.17-.17-.33-.47-.5-.64a1.67,1.67,0,0,0,.21,1v0l.3.89,0-.25c.93.3.75,1.19,1.56,1.82-.78-.62-.29,0-.59.05,0,.25.1.61,0,.56.41.29.15.74.73,1.14-.08.07.19.43-.07.44.31.48.09-.19.22-.2.68.65.51,2,1.45,3,.62.91,1,1,1.56,1.82,0,.38-.44-.11-.44-.11a3.06,3.06,0,0,0,.6,1.36c-.12-.06-.15.07-.18.26.19.37.44.11.52.67a1.46,1.46,0,0,1-.52-.22c.28.41.64.78.92,1.21-.1.2-.36-.17-.53-.29.3.49.73,1.29,1.05,1.35l-.06-.38c.09.19-.17.19-.28.07-.38-.36-.19-.68-.11-.75l.2.31c.37-.57-.66-1.3-.93-2l.5.11L133.3,32c0-.18.2-.38.4-.07,0-.56-.32-.37-.29-.87,0-.06,0-.05.07,0l-.32-.42c.12.06.24-.2.31.11-.15-.93-.89-1.22-.74-1.67l.05.06c-.65-1.1-.33,0-1.05-.71l.42-.89h-.33c0-.12-.13-.37,0-.38-.4-.35-.09.13-.39,0,0-.69-.85-1.52-.47-1.86-.31-.11.09.62-.34.08.39-.4-.42-.66-.46-1.29.32,0,.43.6.4,0-.57-.11-.41-1.05-.71-1.45-.34.14-.61-.89-1.1-1.55a14.6,14.6,0,0,0-.81-2.2H128c-.39,0-.72-.68-1.07-1.14.2-.09.32,0,.56.18l-.27-.47a1.11,1.11,0,0,1-.51-.44l.3,0A10.87,10.87,0,0,1,125.65,15c-.24.09-.2,1-.87.27.1-.11.28-.26.46-.08-.06-.06-.26-.19-.3-.36l.41.2c-.14-.41-.28-.08-.45-.38.17-.1,0-.28.14-.33s.09.29.23.36a2.18,2.18,0,0,1-.3-1c-.07.1-.22.15-.4-.06-.41-.59.06-.34-.09-.75-.21-.07-.37-.52-.62-.36-.12-.17,0-.28,0-.4-.31-.23-1.08-1.38-1.07-.85l0,.09,0,0h0c-1-.79-1.47-2.09-2.39-2.9l.07-.07A9.5,9.5,0,0,0,118.74,7c-.16-.14-.26-.47-.11-.5a3.42,3.42,0,0,1-1.1-.92c.55.23,0-.24.53.27-.51-.52-.54-.77-1.33-1,.37-.05-.26-.59-.59-.73l.31.45c-.34-.19-.59-.43-.88-.62l.34-.18a3.57,3.57,0,0,0-1.85-1,2.75,2.75,0,0,1-1.6-.89c-.46.05.69.49.25.59-.6-.34-1.11-1-1.33-1.11-.86-.51-1,.18-1.93-.22.09.16.13.47-.61.42s-.73-.65-.28-.66c.17,0,.24.08.23.12.23,0,.53,0,.29-.17L109,1c-.31-.18-1.27-.36-1-.51-.55,0-.25.15.13.29a4.09,4.09,0,0,0-1.14-.24c-.36,0-.72-.07-1.18-.14.15.08.27.22.13.21-1.35-.18-.61.17-1.51.26-.51-.15.18-.45-.73-.24-.57-.09-.14-.31.08-.42a4.86,4.86,0,0,1-2.09-.06l.44-.12c-.26.08-.49.07-.71.13a2.4,2.4,0,0,1,.29.19c-.27,0-.49,0-.5,0-.24.2.26.35-.23.66-.36-.05-1,.33-1.18,0,1.09-.1-.19-.28.72-.51a2,2,0,0,1-.66.12s0-.07.09-.1c-1.1,0-.41.4-1.46.68C98.52,1,98.1.92,97.94,1c.42-.13.28.22-.06.48-.7.09-.68.34-1,.44l.41-.07c-.07.21-.4.3-.83.5-.09-.11.37-.22.19-.23-.4.43-1.23.19-1.82.7-.37,0-.18-.29-.49-.22-.65.58-1,.17-1.61.83.34.06.34,0-.06.53a10.82,10.82,0,0,1,1.15-.9,6.73,6.73,0,0,0-.62.77,4.74,4.74,0,0,1,1-.67c-.31.36-.29.29,0,.37-.72-.07-.89.79-1.59.93L92.24,4A3.24,3.24,0,0,0,91,4.81,5.27,5.27,0,0,1,89.76,6l.4-.19c0,.3-.62.55-.89.89-.1-.17-.36-.06-.57,0,.11.09-.71.68-.52,1L87.57,8c-.86.67-.45,1.26-1.17,2,0-.38-.37-.11,0-.74-.23.26-.46.47-.36.57-.22.07-.42.89-.77,1,0,.16.1.32-.14.62-.06,0-.07-.06-.07-.06s-.26.56.11.43c-1.12.46-1.72,2.35-2.62,2.83-.37.65-.81,1.43-1.13,2,0-.07-.09-.06,0-.15-.64.7.19.78-.53,1.58-.55.3.14-.57-.13-.35-.63-.2-.6,1.14-1.25,1.58l0-.17c-.45.37-.42,1.28-.88,2,0,0,0-.07-.09-.05a9.37,9.37,0,0,1-.71,2.55c-.11-.35.05-.4-.25-.38-.14.36.42.09.14.8-.24.16-.59.59-.87.54l.31-.65c-.49.17-.41.84-.62,1.15L76.44,25c-.43,1-.08,1.2-.62,2.25l.16-.06c.08.75-.43.4-.43,1.1h-.44a19.33,19.33,0,0,1-.52,2.24,8,8,0,0,1,.22-2,4.23,4.23,0,0,0-.49,1.59c0-.17,0-.4.16-.53a3.91,3.91,0,0,1-.42,2.05c-.63-.45-1.07,1.91-1.85,2.23-.34,1.47-1.3,2.64-1.95,4.24.79-.32-.19.46.41.61-.13.39-.2.52-.25.54l-.83,1c-.28.19,0-.4-.11-.43-.4.78-.38.23-.77.7.25,0,.16.4-.12.82l.54-.52c-.21,1.25-.89.75-1.12,2V42.4c-.17.62-1,2.11-.82,2.88-.11.07-.32.13-.24-.14-.74,1.31-1,3.25-1.85,4.13L65,49.1c-.09.27,0,.56-.28.8,0,0-.07-.17-.14-.06a2.4,2.4,0,0,1-.38,1.06v-.35c-.91,1.15-.76,2.15-1.33,3.24-.37-.23-1.11.64-1.48,1.08l0,0a17.21,17.21,0,0,0-1.16,1.92l-.47,1c-.19.31-.38.62-.6.94A8.48,8.48,0,0,0,57.44,60a8.7,8.7,0,0,1-2,1.57c.23-.08.19.29,0,.49-.34.14-.61.85-.79.49l.1-.07c-.42-.14-1,.25-1.47.54l.17.51a7.07,7.07,0,0,0-2.44.86,3.9,3.9,0,0,1-1.15.41,1.28,1.28,0,0,1-.88,0,2.18,2.18,0,0,1-.53.26,4.42,4.42,0,0,0-.55.17v-.28c-1,0-1.43.09-2.67,0l.26-.19c-.68-.06-.92.76-1.58.74l-.16-.43a9.18,9.18,0,0,1-1.78-.41,7.81,7.81,0,0,0-1.81-.24.25.25,0,0,1,.29-.12c-.54-.18-2-.92-2-.32.1-.31-1.15-.49-1.83-.62l.21-.22a2.12,2.12,0,0,1-1.48-.07c-.14-.13,0-.28.14-.09-.46-.44-.54,0-1.12-.53h.33a1.09,1.09,0,0,0-1-.24,1.79,1.79,0,0,1-.66-.42.79.79,0,0,1-.27-.57A.81.81,0,0,1,32,61c0-.11.16-.07.24-.06-.75-.79-1.52-.67-1.89-1.4a.2.2,0,0,0,0-.21c.61.6,1.19,1,1.12,1,.15-.21-.37-.64.29-.6a4,4,0,0,1-2-1,.49.49,0,0,1,0-.12l.08,0a.94.94,0,0,0-.35-.25,2.48,2.48,0,0,0-.36-.42c.08-.2-.48-.64-.71-.89-.18.21-.46-.15-.33.32,0-.05.06,0,.23.19a.62.62,0,0,0,.12.08h0a7.73,7.73,0,0,0,.63.59,1,1,0,0,1-.75-.58,5.4,5.4,0,0,1-.66,0c-.05-.62-.53-1.42-.43-1.68-.85-.65-1.69-1.82-2.54-2-.25-.19-.11-.36-.11-.5.15.11.28.27.4.29-.52-.36-1.13-1.39-1.52-1.28-.32-.72.53.14-.14-.67l.17,0a5.69,5.69,0,0,0-1.71-2.15,4.56,4.56,0,0,1-1.62-2.43c.05.16.07.24,0,.3-1.1-2.4-3.06-4.5-3.82-7-.25-.71-.49-.67-.86-1l.19-.29L15,38.64c-.74-.85-.19-2-1.24-3l-.11.25c-.18-.47-.81-1.36-.56-1.39-.06,0-.26-.05-.25-.28L13,34.1l-.77-1c-.3-.9.63-.13.06-1.39-.27-.44-1-1.13-1.06-.91s.14.52,0,.6L10.94,31c-.46.13-1,0-.84,1.19l.61.6-.1.34-.3-.61c0,.44.25.58.48.77a.56.56,0,0,0-.08.41l.75.53c-.12.16-.48-.17-.34.36.35.24.21-.5.6,0,0,.44-.23.41.14.74-.08.11-.2.06-.32-.08.31.3.53.93.85,1-.06.48.67,1.19.26,1.35a2.92,2.92,0,0,1,.81.81c-.79-.36.61,1.25,0,1.35.65.23,1,1.52,1.68,2.18-.05,0-.17-.07-.18-.16a3.91,3.91,0,0,1,.22,1c.38-.13.84.51,1.26.76,0,.72-.59-.1-.81.24.26-.18.81.78.93.47,0,.52.1.41-.06.78.47-.17.29.34.74.53.15.71-.3.39.22,1C17.55,46.92,17.05,46.43,17.05,46.43ZM28.76,60.06h0l-.29-.24Zm1.14,1-.49-.44c0-.11.13-.15.24-.05C29.55,60.58,29.78,60.86,29.9,61.07Zm-1-3.54c.18.14.21.22.19.29l-.31-.26H28.7A.53.53,0,0,1,28.87,57.53Z"/><path class="cls-1" d="M28.32,57.5l-.08-.06c0,.05,0,.1.05.15h.12Z"/><path class="cls-1" d="M122.77,11.26l0,0a.11.11,0,0,1,0,.08S122.77,11.28,122.77,11.26Z"/><polygon class="cls-1" points="49.74 67.19 49.73 67.12 49.6 67.22 49.74 67.19"/><path class="cls-1" d="M126.45,18.63s0,.06,0,.12A.31.31,0,0,0,126.45,18.63Z"/><path class="cls-1" d="M128.07,21.74l.14.49A3.09,3.09,0,0,0,128.07,21.74Z"/><path class="cls-1" d="M129.17,24.22a.27.27,0,0,0,.13,0h-.13Z"/><path class="cls-1" d="M97.67,3.64l-.09,0C97.38,3.81,97.52,3.74,97.67,3.64Z"/><path class="cls-1" d="M109.83,2.48a2.1,2.1,0,0,1-.43,0C109.61,2.58,109.78,2.64,109.83,2.48Z"/><polygon class="cls-1" points="87.07 12.04 87.06 12.04 87.01 12.1 87.07 12.04"/><path class="cls-1" d="M108.84,2.35a1.31,1.31,0,0,0,.56.15A1.79,1.79,0,0,0,108.84,2.35Z"/><path class="cls-1" d="M133.91,35l0,.13H134Z"/><path class="cls-1" d="M134,35.08l.09.12C134.06,35.14,134,35.09,134,35.08Z"/><path class="cls-1" d="M134.28,35.46l-.19-.26C134.13,35.3,134.17,35.42,134.28,35.46Z"/><path class="cls-1" d="M132.59,31.62h0Z"/><path class="cls-1" d="M132.12,30.63a3.78,3.78,0,0,0,.27,1h.09C132.27,31.53,132.38,30.79,132.12,30.63Z"/><path class="cls-1" d="M131.37,26l.32.86c0-.19.07-.44.27-.07C131.77,25.56,131.85,27.07,131.37,26Z"/><path class="cls-1" d="M130.28,23.32c.26.42.13-.08.2-.08C130.25,23,130.2,22.94,130.28,23.32Z"/><path class="cls-1" d="M118.54,6.32l.21-.16C118.43,5.92,118.68,6.23,118.54,6.32Z"/><polygon class="cls-1" points="114.63 4.98 114.85 5.31 115.12 5.21 114.63 4.98"/><path class="cls-1" d="M113.49,2.23l.17,0c-.2-.08-.43-.13-.64-.2Z"/><path class="cls-1" d="M82.71,13.74l.32.08C83.13,13.58,82.87,13.33,82.71,13.74Z"/><path class="cls-1" d="M75.72,27.05a.77.77,0,0,0-.45.71A6.21,6.21,0,0,0,75.72,27.05Z"/><path class="cls-1" d="M52.64,63.55l.19-.24a2.65,2.65,0,0,1-.42.33A.92.92,0,0,0,52.64,63.55Z"/><path class="cls-2" d="M40.58,50.16H39.47l0-2c1,0,2,0,3,0l.06,2C41.88,50.15,41.23,50.16,40.58,50.16Zm-4.13-.08c-1,0-2.05-.09-3-.16l.14-2c1,.07,1.94.12,3,.16Zm9.1-.13-.17-2c1-.09,2-.2,2.91-.34l.29,2C47.6,49.75,46.58,49.86,45.55,50ZM30.4,49.64c-1-.11-2-.25-3-.4l.31-2c.94.14,1.93.27,2.93.39Zm21.19-.58-.42-2c1-.2,1.91-.44,2.83-.71l.56,1.92C53.59,48.59,52.59,48.84,51.59,49.06Zm-27.21-.37c-1-.22-2-.46-3-.72L21.94,46c.92.25,1.88.49,2.86.69Zm33.09-1.34-.7-1.88c.9-.34,1.81-.71,2.7-1.12l.83,1.82C59.37,46.6,58.42,47,57.47,47.35Zm-39-.28c-1-.33-1.93-.7-2.86-1.09l.77-1.85c.89.38,1.82.73,2.74,1ZM63,44.8l-1-1.76c.84-.46,1.67-.94,2.54-1.48l1,1.7C64.78,43.81,63.9,44.33,63,44.8Zm-50.2-.08c-.89-.44-1.77-.91-2.7-1.42l1-1.75c.89.5,1.74,1,2.6,1.37Zm-5.32-3c-.85-.52-1.7-1.06-2.55-1.63l1.1-1.67c.84.56,1.67,1.09,2.5,1.6Zm60.7-.16-1.14-1.65c.82-.56,1.62-1.14,2.42-1.72l1.18,1.61C69.87,40.43,69.05,41,68.22,41.59ZM2.47,38.43,0,36.71l1.15-1.64L3.6,36.79ZM73.1,38l-1.21-1.6,2.4-1.8,1.2,1.6Zm73.22-2.94c-.79-.61-1.57-1.21-2.37-1.81l1.2-1.6c.8.6,1.6,1.21,2.39,1.83Zm-68.43-.62-1.17-1.63c.82-.58,1.64-1.16,2.49-1.72l1.11,1.66C79.49,33.34,78.68,33.91,77.89,34.48Zm63.66-2.92c-.86-.6-1.66-1.12-2.47-1.62l1-1.7c.83.51,1.67,1.06,2.56,1.67ZM82.81,31.2l-1-1.71c.88-.54,1.77-1,2.65-1.51l.94,1.76C84.52,30.19,83.66,30.68,82.81,31.2Zm53.73-2.71c-.86-.45-1.75-.88-2.63-1.27l.79-1.83c.94.41,1.87.85,2.77,1.33ZM88,28.42l-.85-1.81c.92-.43,1.87-.83,2.81-1.2l.73,1.86C89.78,27.63,88.87,28,88,28.42Zm5.45-2.14-.62-1.9c1-.31,2-.6,2.93-.86l.51,1.94C95.31,25.71,94.36,26,93.44,26.28Zm37.74-.12c-.9-.31-1.84-.61-2.79-.86l.52-1.93c1,.27,2,.57,2.93.9ZM99.12,24.79l-.4-2c1-.19,2-.37,3-.53l.3,2C101,24.43,100.06,24.6,99.12,24.79Zm26.41-.16c-.93-.19-1.91-.36-2.89-.5l.28-2c1,.14,2,.32,3,.51Zm-20.59-.72-.21-2c1-.11,2-.19,3-.26l.12,2C106.87,23.72,105.89,23.81,104.94,23.91Zm14.77-.12c-.95-.09-1.93-.15-2.95-.2l.1-2c1,.05,2.06.12,3,.21Zm-8.87-.26,0-2q1.09,0,2.25,0h.78l0,2H113C112.29,23.5,111.56,23.51,110.84,23.53Z"/></g></g></svg>