<?xml version="1.0" encoding="UTF-8" standalone="no"?>
<!DOCTYPE svg PUBLIC "-//W3C//DTD SVG 1.1//EN" "http://www.w3.org/Graphics/SVG/1.1/DTD/svg11.dtd">
<svg width="100%" height="100%" viewBox="0 0 78 85" version="1.1" xmlns="http://www.w3.org/2000/svg" xmlns:xlink="http://www.w3.org/1999/xlink" xml:space="preserve" xmlns:serif="http://www.serif.com/" style="fill-rule:evenodd;clip-rule:evenodd;stroke-miterlimit:1.41421;">
    <g>
        <path d="M1.003,2.67C9.803,14.52 23.533,24.57 38.113,23.79C55.183,22.88 63.623,-0.37 69.453,2.46C77.453,6.331 76.453,23.07 51.133,34.031C28.743,43.73 -12.346,67.79 7.003,67.79C33.813,67.79 73.283,43.451 76.333,50.051C76.963,51.421 69.543,72.36 36.453,83.24" style="fill:none;stroke:rgb(239,125,5);stroke-width:2.5px;stroke-dasharray:5,5;"/>
        <path d="M61.003,40.5C61.083,40.59 61.283,40.5 61.234,40.29L60.893,40.121L61.003,40.5Z" style="fill:rgb(148,188,229);fill-rule:nonzero;"/>
        <path d="M61.543,38.81C61.373,38.531 61.083,38.221 60.793,38.44C61.123,38.69 60.993,38.77 61.383,39.06C61.383,39.3 61.293,39.5 61.173,39.46C61.263,39.54 61.123,39.84 61.333,39.971C61.58,39.623 61.58,39.158 61.333,38.81C61.393,38.71 61.484,38.8 61.543,38.81Z" style="fill:rgb(148,188,229);fill-rule:nonzero;"/>
        <path d="M48.763,18.971L48.883,19.08C48.851,19.037 48.81,18.999 48.763,18.971Z" style="fill:rgb(148,188,229);fill-rule:nonzero;"/>
        <path d="M33.663,16.65C33.773,16.65 33.823,16.58 33.823,16.55C33.823,16.52 33.633,16.621 33.663,16.65Z" style="fill:rgb(148,188,229);fill-rule:nonzero;"/>
        <path d="M31.003,16.971L31.163,16.971C31.112,16.949 31.054,16.949 31.003,16.971Z" style="fill:rgb(148,188,229);fill-rule:nonzero;"/>
        <path d="M48.763,18.971L48.433,18.701C48.363,18.761 48.593,18.84 48.763,18.971Z" style="fill:rgb(148,188,229);fill-rule:nonzero;"/>
        <path d="M60.323,35.641C60.352,35.712 60.397,35.777 60.453,35.83L60.373,35.641L60.323,35.641Z" style="fill:rgb(148,188,229);fill-rule:nonzero;"/>
        <path d="M54.533,22.61L54.633,22.701L54.803,22.701L54.533,22.61Z" style="fill:rgb(148,188,229);fill-rule:nonzero;"/>
        <path d="M58.063,26.56C58.003,26.451 57.753,26.56 57.623,26.61C57.736,26.598 57.849,26.635 57.933,26.71C57.988,26.672 58.033,26.621 58.063,26.56Z" style="fill:rgb(148,188,229);fill-rule:nonzero;"/>
        <path d="M61.123,34.281L61.194,34.411L61.123,34.281Z" style="fill:rgb(148,188,229);fill-rule:nonzero;"/>
        <path d="M51.613,20.201C51.622,20.164 51.622,20.126 51.613,20.09C51.598,20.125 51.598,20.165 51.613,20.201Z" style="fill:rgb(148,188,229);fill-rule:nonzero;"/>
        <path d="M59.353,45.971C59.353,45.971 59.363,45.9 59.353,45.971Z" style="fill:rgb(148,188,229);fill-rule:nonzero;"/>
        <path d="M61.753,40.5L61.753,40.58L61.913,40.58L61.753,40.5Z" style="fill:rgb(148,188,229);fill-rule:nonzero;"/>
        <path d="M26.233,18.491C26.363,18.4 26.293,18.44 26.233,18.491Z" style="fill:rgb(148,188,229);fill-rule:nonzero;"/>
        <path d="M19.563,57.971C19.563,57.41 20.223,58.53 20.103,57.74C20.003,57.82 19.403,57.32 19.563,57.971Z" style="fill:rgb(148,188,229);fill-rule:nonzero;"/>
        <path d="M60.323,35.511L60.323,35.31C60.314,35.377 60.314,35.444 60.323,35.511Z" style="fill:rgb(148,188,229);fill-rule:nonzero;"/>
        <path d="M20.103,57.711" style="fill:rgb(148,188,229);fill-rule:nonzero;"/>
        <path d="M17.793,26.201C17.849,26.216 17.907,26.216 17.963,26.201C17.963,26.201 17.893,26.161 17.793,26.201Z" style="fill:rgb(148,188,229);fill-rule:nonzero;"/>
        <path d="M24.053,20.511L23.863,20.601L24.053,20.511Z" style="fill:rgb(148,188,229);fill-rule:nonzero;"/>
        <path d="M15.933,30.201C15.854,30.272 15.799,30.367 15.773,30.471L15.823,30.471C15.813,30.371 15.833,30.3 15.933,30.201Z" style="fill:rgb(148,188,229);fill-rule:nonzero;"/>
        <path d="M14.413,34.48C14.439,34.46 14.463,34.436 14.483,34.411L14.483,34.27L14.413,34.48Z" style="fill:rgb(148,188,229);fill-rule:nonzero;"/>
        <path d="M53.944,57.881C54.044,57.852 54.152,57.852 54.253,57.881C54.053,57.79 54.313,57.2 53.944,57.881Z" style="fill:rgb(148,188,229);fill-rule:nonzero;"/>
        <path d="M60.473,35.61C60.408,35.608 60.35,35.57 60.323,35.511L60.323,35.641C60.357,35.677 60.414,35.679 60.45,35.644C60.46,35.635 60.468,35.623 60.473,35.61Z" style="fill:rgb(148,188,229);fill-rule:nonzero;"/>
        <path d="M17.823,31.27L17.503,31.851C17.62,31.663 17.727,31.47 17.823,31.27Z" style="fill:rgb(148,188,229);fill-rule:nonzero;"/>
        <path d="M37.763,81.04L37.813,81.04C37.813,81.04 37.793,81.03 37.763,81.04Z" style="fill:rgb(148,188,229);fill-rule:nonzero;"/>
        <path d="M16.873,33.701C16.748,33.768 16.647,33.873 16.583,34C16.578,34.03 16.578,34.06 16.583,34.09C16.672,33.955 16.769,33.825 16.873,33.701Z" style="fill:rgb(148,188,229);fill-rule:nonzero;"/>
        <path d="M51.123,67.03C51.043,67.23 50.963,67.261 50.903,67.251C50.843,67.24 51.003,67.06 51.073,66.931C51.086,66.962 51.093,66.996 51.093,67.03L51.123,67.03ZM48.003,68.301C48.103,68.171 48.213,68.011 48.333,67.83C48.433,67.83 48.484,67.94 48.413,68.051C48.373,67.971 48.153,68.181 48.003,68.301ZM48.694,67.211L48.853,66.94L48.694,67.211ZM55.833,53.511C55.533,54.091 56.013,53.94 56.133,54.16C55.863,54.9 55.734,54.36 55.444,54.511C55.293,54.99 55.444,55.511 55.234,55.801C55.163,55.801 55.113,55.801 55.083,55.74C55.083,56.33 54.363,57.101 54.373,57.801L54.263,57.801C54.436,57.803 54.604,57.858 54.743,57.961C54.593,58.221 54.663,58.551 54.403,58.53C54.503,58.381 54.403,58.32 54.403,58.211L54.333,58.53C53.903,58.601 54.444,58.101 54.223,57.98C54.104,58.573 53.891,59.143 53.593,59.671C53.263,59.591 54.043,58.671 53.473,59.06L53.944,58.501C53.213,58.711 54.194,58.141 53.453,58.301C52.903,59.07 53.073,59.301 52.513,60.06C52.563,60.33 52.783,60.141 52.833,60.41C52.433,61.74 51.573,60.881 51.444,61.961C51.493,62.29 51.803,62.601 51.243,63.08L51.053,62.681C50.533,63.431 51.234,63.41 50.503,64.091C50.503,63.86 50.783,63.41 50.673,63.501C50.093,63.87 50.613,63.99 50.363,64.4L50.023,64.301C49.543,65.15 49.163,66.19 48.613,67.12C48.613,67.02 48.613,66.81 48.363,66.961C47.668,68.201 46.803,69.339 45.793,70.341L45.793,70.91C45.723,71.011 45.563,71.02 45.583,70.91C45.203,71.27 45.723,71.04 45.673,71.31C45.623,71.58 45.313,71.53 45.353,71.31C44.981,72.444 44.343,73.473 43.493,74.31L43.493,74.11C42.963,74.65 43.493,75.11 42.853,75.54L42.853,75.4C41.853,76.641 40.953,78.23 39.853,78.961C40.043,79.391 38.743,80.12 39.143,80.551C38.92,80.723 38.674,80.864 38.413,80.971C38.307,80.98 38.199,80.98 38.093,80.971C38.082,81.226 38.052,81.479 38.003,81.73L38.003,81.251C37.973,81.363 37.911,81.464 37.823,81.54C37.831,81.366 37.851,81.192 37.883,81.02C37.851,81.03 37.816,81.03 37.783,81.02C37.805,81.123 37.805,81.228 37.783,81.33C37.663,81.33 37.603,81.131 37.563,80.931C37.523,80.73 37.413,80.37 37.463,80.32L36.363,79.32C36.483,79.32 36.663,79.45 36.843,79.56C36.123,79.11 37.013,79.251 36.353,78.841C36.353,78.961 36.173,78.91 36.113,78.931C35.898,78.361 35.556,77.848 35.113,77.431L35.343,77.431C34.733,76.511 33.893,75.62 33.173,74.61C33.353,75.03 33.003,75.16 32.763,74.881L32.933,74.58C32.643,74.5 33.063,74.961 32.583,74.711C32.343,74.31 32.693,74.24 32.933,74.4L32.523,73.971C32.583,73.881 32.703,73.971 32.823,73.921C32.523,73.851 32.523,72.921 32.053,72.921L32.113,72.841C31.403,71.841 30.993,71.431 30.403,70.62C30.163,70.761 29.993,70.4 29.643,70.28C29.314,69.525 28.933,68.793 28.503,68.091C28.033,67.65 28.203,68.091 27.913,67.921C28.093,67.751 27.583,67.02 27.993,67.301C27.471,66.553 26.903,65.838 26.293,65.16C26.293,65.341 26.293,65.511 26.213,65.48C26.133,65.45 26.003,64.95 26.123,64.921L26.183,64.921C25.033,63.841 24.943,61.57 23.873,60.81L23.933,60.81L23.053,59.971C22.803,59.45 23.393,60.171 23.313,59.73C22.313,58.73 22.313,57.86 21.513,57.03C21.753,55.921 20.013,54.381 19.933,53.131L19.813,53.261C19.523,53.07 19.743,52.9 19.683,52.681C19.573,52.77 19.683,53.04 19.513,52.921C18.328,50.618 17.483,48.155 17.003,45.61C16.803,44.73 16.003,45.36 16.083,44.13L16.473,44.37C16.277,43.949 16.119,43.511 16.003,43.06C15.893,42.61 15.853,42.161 15.783,41.71C15.713,41.261 15.783,40.82 15.713,40.38C15.713,39.908 15.676,39.437 15.603,38.971C15.673,39.08 15.773,39.09 15.763,39.27C15.957,38.807 15.927,38.28 15.683,37.84C15.743,37.57 15.863,37.84 15.993,37.641C16.183,37.29 15.833,36.641 16.093,36.491C16.143,36.491 16.153,36.61 16.163,36.681C16.135,36.468 16.135,36.253 16.163,36.04C16.163,35.81 16.223,35.65 16.053,35.73C16.353,35.11 16.263,34.451 16.553,33.971C16.343,33.53 17.073,32.971 16.703,32.681C17.113,32.88 17.403,31.681 17.443,31.221C17.503,31.411 17.733,30.951 17.833,31.17C18.033,30.741 18.153,30.3 17.913,30.27C18.257,29.985 18.499,29.595 18.603,29.161C18.733,28.77 18.863,28.431 19.283,28.391C19.831,27.118 20.551,25.927 21.423,24.851C21.713,25.19 20.473,25.96 20.863,26.221C21.553,25.221 21.733,24.351 22.753,23.621C23.033,23.451 22.753,23.891 22.753,24.011C23.523,23.011 24.613,22.52 25.353,21.65C25.353,21.65 25.303,21.8 25.233,21.891C25.393,21.741 25.693,21.67 25.563,21.511L25.403,21.67C24.943,21.61 25.823,20.67 25.783,20.55C25.783,21.23 26.783,20.09 26.673,21.03C26.773,20.92 26.883,20.741 26.783,20.641C26.993,20.57 27.083,20.641 26.973,20.851C27.593,20.34 27.263,20.32 27.903,20C27.903,20.09 27.833,20.19 27.823,20.32C28.068,19.926 28.443,19.629 28.883,19.48C28.883,19.55 28.973,19.59 28.813,19.661C29.263,19.4 29.643,19.181 30.033,18.911C30.449,18.614 30.928,18.419 31.433,18.34C31.223,18.83 31.853,18.34 32.003,18.721L32.563,18.46L32.283,18.351C32.803,18.241 33.203,17.81 33.693,17.871C33.566,17.936 33.442,18.01 33.323,18.09C33.653,17.991 33.983,17.94 34.323,17.86L33.723,17.81C34.233,17.54 33.583,17.36 34.323,17.351C34.183,17.411 34.873,17.27 35.183,17.451C35.443,17.238 35.781,17.146 36.113,17.201C36.223,17.31 36.063,17.61 36.113,17.681C36.353,17.36 37.373,17.53 37.703,17.19C37.609,17.263 37.575,17.391 37.623,17.5L37.843,17.241C38.093,17.3 38.133,17.36 38.093,17.511C38.843,17.59 37.853,17.03 38.753,17.27C38.683,17.27 38.753,17.33 38.563,17.36C39.453,17.53 40.323,17.241 41.133,17.53C41.323,17.931 40.403,17.53 40.643,17.86C41.234,17.92 41.853,17.86 42.473,17.86C43.074,17.88 43.671,17.984 44.243,18.17L44.043,18.08C44.343,17.63 44.823,18.511 45.433,18.5C45.283,18.5 45.163,18.71 45.213,18.67C45.913,19.04 46.793,19.03 47.933,19.451L47.743,19.511C48.103,19.83 48.823,20.07 49.223,20.4C49.413,20.4 49.653,20.53 49.593,20.27C50.067,20.871 50.692,21.333 51.403,21.61C52.023,21.96 52.723,22.23 53.013,22.951C52.893,22.84 52.653,22.78 52.743,22.871L53.743,23.56C53.823,23.33 53.743,23.36 53.653,23.06C53.931,23.096 54.19,23.218 54.393,23.411C53.893,23.161 54.153,23.681 54.234,23.92C54.234,23.84 54.363,23.84 54.393,23.78C54.563,24.491 54.803,23.52 55.183,24.34L55.073,24.34C55.359,24.492 55.618,24.687 55.843,24.92C55.743,25.201 55.523,24.75 55.353,24.92C55.673,25.261 56.353,25.28 56.433,25.81C56.255,25.65 56.069,25.499 55.873,25.36C55.9,25.672 56.014,25.971 56.203,26.221L56.563,26.94L56.563,26.73C57.473,26.8 57.403,27.61 58.173,28.08C57.403,27.63 57.903,28.08 57.613,28.201C57.613,28.42 57.734,28.73 57.613,28.701C58.013,28.9 57.783,29.32 58.343,29.61C58.273,29.67 58.513,29.971 58.263,30.011C58.533,30.411 58.363,29.83 58.484,29.81C59.083,30.36 58.944,31.54 59.683,32.4C60.163,33.221 60.583,33.27 60.944,34.101C60.863,34.431 60.543,33.951 60.543,33.951C60.524,34.393 60.635,34.831 60.863,35.21C60.753,35.141 60.713,35.21 60.643,35.4C60.743,35.741 61.063,35.56 60.993,36.06C60.83,35.996 60.681,35.901 60.553,35.78C60.713,36.17 60.944,36.56 61.103,36.98C60.953,37.121 60.813,36.761 60.683,36.621C60.823,37.09 61.023,37.851 61.303,37.98L61.303,37.65C61.303,37.83 61.093,37.77 61.023,37.65C60.753,37.261 61.023,37.04 61.113,37L61.223,37.3C61.713,36.9 60.973,36.05 60.843,35.44L61.313,35.621L60.813,35.05C60.883,34.891 61.083,34.75 61.223,35.05C61.303,34.55 60.984,34.69 61.093,34.25C61.093,34.201 61.143,34.25 61.173,34.25L60.944,33.84C61.043,33.9 61.194,33.681 61.213,33.971C61.213,33.101 60.513,32.81 60.713,32.42L60.763,32.471C60.243,31.471 60.444,32.471 59.823,31.81C59.984,31.54 60.163,31.27 60.303,30.991L59.984,30.991C59.984,30.88 59.863,30.661 59.984,30.65C59.603,30.351 59.893,30.77 59.603,30.65C59.603,30.03 58.833,29.32 59.194,28.98C58.893,28.92 59.283,29.54 58.863,29.09C59.223,28.69 58.433,28.54 58.363,27.991C58.673,27.991 58.813,28.48 58.743,27.911C58.194,27.911 58.323,26.98 57.973,26.681C57.673,26.871 57.283,26.011 56.753,25.491C56.903,25.431 56.003,24.33 55.633,23.73L55.694,23.73C55.513,23.8 55.323,23.73 55.123,23.53C54.923,23.33 54.683,23.181 54.473,23.04C54.633,22.891 54.763,22.891 55.033,23.04L54.673,22.721C54.46,22.707 54.257,22.627 54.093,22.491L54.363,22.371C54.097,22.165 53.82,21.975 53.533,21.8C53.19,21.634 52.88,21.403 52.623,21.121C52.444,21.3 52.723,22.06 51.944,21.69C51.993,21.56 52.103,21.351 52.323,21.44C52.253,21.44 52.043,21.38 51.953,21.241L52.373,21.241C52.123,20.94 52.103,21.241 51.873,21.08C51.993,20.931 51.773,20.84 51.873,20.741C51.973,20.641 52.033,20.96 52.173,20.971C51.929,20.764 51.739,20.499 51.623,20.201C51.623,20.31 51.473,20.42 51.253,20.31C50.694,19.991 51.183,20 50.913,19.721C50.713,19.721 50.423,19.42 50.273,19.661C50.113,19.56 50.153,19.431 50.123,19.32C49.793,19.221 48.723,18.63 48.923,19.07L48.984,19.07C48.439,18.934 47.924,18.701 47.463,18.38C46.979,18.108 46.465,17.89 45.933,17.73L45.933,17.641C45.307,17.456 44.654,17.378 44.003,17.411C43.823,17.36 43.613,17.121 43.713,17.031C43.289,17.039 42.869,16.953 42.484,16.781C43.003,16.69 42.343,16.601 43.003,16.781C42.554,16.536 42.031,16.465 41.533,16.58C41.813,16.371 41.093,16.19 40.783,16.221L41.213,16.471C40.863,16.471 40.573,16.36 40.263,16.34L40.463,16.02C39.133,15.57 38.043,16.531 37.033,15.96C36.693,16.21 37.763,16.09 37.453,16.371C36.957,16.253 36.472,16.092 36.003,15.891C35.143,15.741 35.273,16.451 34.403,16.44C34.523,16.54 34.673,16.83 34.053,17.04C33.463,17.04 33.233,16.67 33.603,16.52C33.743,16.52 33.823,16.52 33.823,16.52C34.003,16.451 34.253,16.36 33.993,16.281L33.933,16.4C33.613,16.32 32.783,16.48 32.933,16.27C32.503,16.491 32.783,16.5 33.123,16.48C32.323,16.48 31.933,16.781 31.123,16.871C31.273,16.871 31.423,17 31.293,17.031C30.113,17.201 30.863,17.4 30.133,17.69C29.643,17.69 30.133,17.241 29.433,17.69C28.923,17.741 29.223,17.431 29.383,17.281C29.089,17.488 28.743,17.613 28.383,17.641C28.114,17.679 27.847,17.733 27.583,17.8L27.903,17.54C27.738,17.673 27.557,17.784 27.363,17.871L27.663,17.98C27.433,18.04 27.263,18.13 27.223,18.04C27.073,18.281 27.553,18.31 27.223,18.701C26.903,18.701 26.453,19.201 26.223,19C27.123,18.65 25.973,18.761 26.683,18.36C26.523,18.475 26.343,18.56 26.153,18.61C26.103,18.61 26.153,18.54 26.203,18.491C25.263,18.721 26.003,19.02 25.203,19.491C25.203,19.281 24.843,19.33 24.723,19.44C25.053,19.241 25.033,19.59 24.803,19.891C24.203,20.08 24.303,20.32 24.043,20.5L24.363,20.33C24.363,20.55 24.113,20.71 23.813,21.011C23.703,20.92 24.063,20.701 23.903,20.75C23.713,21.27 22.903,21.121 22.473,21.69C22.173,21.8 22.243,21.451 21.993,21.57C21.593,22.241 21.233,21.94 20.773,22.57C21.103,22.57 21.093,22.57 20.853,23.05L21.683,22.05L21.303,22.851C21.593,22.601 21.803,22.201 22.003,22.08C21.833,22.48 21.833,22.411 22.093,22.431C21.473,22.531 21.463,23.261 20.883,23.511L20.483,23.09C19.693,23.61 19.563,24.46 18.743,25.31L19.053,25.07C19.133,25.34 18.643,25.67 18.483,26.07C18.353,25.931 18.153,26.07 17.953,26.141C18.083,26.21 17.423,26.84 17.703,27.141L17.213,27.46C16.643,28.241 17.083,28.65 16.643,29.46C16.573,29.11 16.273,29.46 16.413,28.8C16.273,29.08 16.123,29.31 16.243,29.38C16.053,29.491 16.103,30.25 15.813,30.38C15.813,30.53 16.003,30.65 15.813,30.951L15.723,30.951C15.723,30.951 15.653,31.5 15.953,31.3C15.521,31.72 15.224,32.26 15.103,32.851C14.873,33.44 14.813,34.07 14.443,34.391C14.393,34.721 14.323,35.09 14.263,35.44C14.203,35.79 14.193,36.15 14.153,36.44C14.153,36.44 14.053,36.44 14.093,36.32C13.793,37.11 14.563,36.9 14.223,37.8C13.843,38.241 14.133,37.29 13.973,37.57C13.283,37.63 13.973,38.71 13.553,39.32L13.553,39.17C13.323,39.661 13.693,40.36 13.723,41.17C13.692,41.154 13.654,41.154 13.623,41.17C13.967,41.9 14.242,42.66 14.443,43.44C14.153,43.261 14.243,43.13 14.023,43.32C14.133,43.65 14.403,43.15 14.613,43.79C14.533,44.031 14.523,44.54 14.273,44.671L14.113,44.04C13.843,44.45 14.313,44.86 14.353,45.2L14.203,45.2C14.523,46.141 14.883,46.04 15.203,47.04L15.273,46.9C15.823,47.32 15.273,47.431 15.683,47.9L15.383,48.2C15.613,48.52 16.193,49.31 16.533,49.891C16.077,49.511 15.68,49.065 15.353,48.57C15.493,48.921 15.843,49.761 16.103,49.86C16.013,49.73 15.843,49.601 15.843,49.431C16.376,49.815 16.78,50.352 17.003,50.971C16.253,51.16 17.633,52.81 17.353,53.551C18.183,54.61 18.413,55.94 19.193,57.28C19.443,56.52 19.423,57.66 19.903,57.28C20.103,57.57 20.163,57.7 20.143,57.751L20.363,58.86C20.363,59.171 20.073,58.631 19.973,58.73C20.323,59.431 19.913,59.141 20.033,59.671C20.173,59.471 20.443,59.751 20.593,60.181L20.513,59.501C21.333,60.28 20.513,60.57 21.383,61.36L21.003,61.11C21.383,61.551 22.073,62.91 22.773,63.11C22.773,63.23 22.693,63.431 22.533,63.24C23.173,64.431 24.533,65.511 24.873,66.551L24.693,66.551C24.863,66.74 25.163,66.77 25.213,67.12C25.153,67.12 25.033,67.12 25.083,67.211C25.374,67.4 25.614,67.657 25.783,67.961L25.483,67.81C26.043,69.011 26.933,69.27 27.633,70.12C27.273,70.36 27.733,71.301 27.973,71.761L27.913,71.761C28.725,72.846 29.639,73.851 30.643,74.761C30.763,75.761 32.213,77.29 32.843,78.58C32.773,78.36 33.133,78.41 33.313,78.58C33.443,78.9 34.103,79.141 33.753,79.33L33.693,79.23C33.523,79.66 34.013,80.15 34.323,80.58L34.793,80.341C34.869,80.7 35.019,81.041 35.233,81.341C35.345,81.509 35.469,81.669 35.603,81.82L36.043,82.33C36.831,83.123 37.504,84.021 38.043,85C38.09,84.991 38.137,84.991 38.183,85C38.533,84.341 38.963,83.81 39.233,83.24L39.343,83.551L40.543,82.131C40.783,81.83 41.013,81.511 41.343,81.03L41.343,81.341C41.753,80.83 41.203,80.2 41.543,79.711L41.984,79.82C42.653,78.91 43.633,78.2 43.984,77.08C44.062,77.165 44.062,77.296 43.984,77.381C44.313,76.961 45.423,75.881 44.843,75.7C45.153,75.91 45.553,74.77 45.773,74.181L45.944,74.421C45.878,73.956 45.973,73.483 46.213,73.08C46.343,72.961 46.484,73.08 46.293,73.23C46.734,72.851 46.293,72.721 46.853,72.23L46.853,72.541C47.203,72.07 47.103,72.06 47.113,71.681C47.123,71.301 47.803,70.801 48.053,70.87C47.962,70.599 48.036,70.299 48.243,70.101C48.343,70.101 48.323,70.251 48.313,70.32C49.003,69.61 48.863,68.94 49.453,68.53C49.515,68.566 49.591,68.566 49.653,68.53C49.213,69.181 48.853,69.681 48.873,69.631C49.073,69.77 49.463,69.27 49.473,69.881C49.565,69.195 49.815,68.542 50.203,67.971L50.313,67.971L50.313,68.04C50.403,67.946 50.466,67.828 50.493,67.7C50.622,67.585 50.736,67.454 50.833,67.31C51.053,67.37 51.323,66.77 51.503,66.511C51.253,66.381 51.503,66.06 51.113,66.261C51.113,66.261 51.113,66.33 51.003,66.511C50.982,66.552 50.965,66.596 50.953,66.641L50.543,67.301C50.528,66.998 50.666,66.707 50.913,66.53C50.856,66.33 50.813,66.127 50.783,65.921C51.333,65.77 51.953,65.19 52.213,65.211C52.593,64.32 53.323,63.211 53.213,62.461C53.293,62.2 53.503,62.27 53.623,62.23C53.623,62.391 53.484,62.551 53.503,62.66C53.673,62.131 54.293,61.251 54.043,60.95C54.533,60.45 54.133,61.461 54.563,60.62L54.563,60.78C56.003,59.471 55.263,57.721 56.893,56.27C56.783,56.381 56.734,56.431 56.663,56.431C58.063,54.511 58.593,52.011 59.963,50.08C60.323,49.511 60.123,49.351 60.103,48.91L60.433,48.91L60.363,48.15C60.453,47.15 61.643,46.791 61.523,45.44L61.283,45.541C61.463,45.12 61.533,44.141 61.734,44.27C61.734,44.21 61.563,44.08 61.734,43.931L61.883,43.931C61.887,43.55 61.869,43.169 61.833,42.79C62.063,41.96 62.433,43.031 62.623,41.79C62.623,41.29 62.243,40.4 62.133,40.58C62.023,40.761 62.003,40.971 61.823,40.971L61.763,40.55C61.313,40.46 60.863,40.19 60.493,41.11C60.563,41.33 60.663,41.55 60.723,41.781L60.473,41.971C60.499,41.788 60.517,41.604 60.523,41.42C60.303,41.71 60.433,41.92 60.523,42.161C60.4,42.197 60.298,42.284 60.243,42.4C60.353,42.641 60.473,42.88 60.563,43.13C60.373,43.13 60.283,42.77 60.083,43.181C60.213,43.531 60.543,42.971 60.563,43.5C60.283,43.781 60.143,43.65 60.234,44.06C60.113,44.06 60.053,43.991 60.033,43.83C60.113,44.19 59.873,44.711 60.033,44.95C59.703,45.211 59.783,46.08 59.363,45.95C59.445,46.278 59.445,46.622 59.363,46.95C59.073,46.23 58.933,48.06 58.453,47.721C58.743,48.28 58.083,49.23 58.013,50.03C58.013,50.03 57.963,49.87 58.013,49.82C57.861,50.071 57.669,50.294 57.444,50.48C57.773,50.681 57.563,51.33 57.633,51.761C57.073,52.091 57.353,51.28 56.963,51.28C57.253,51.391 56.853,52.28 57.163,52.2C56.783,52.461 56.913,52.461 56.533,52.511C56.933,52.79 56.444,52.891 56.533,53.32C56.063,53.74 56.063,53.251 55.913,53.9C55.734,54.091 55.833,53.511 55.833,53.511Z" style="fill:rgb(148,188,229);fill-rule:nonzero;"/>
        <path d="M51.003,66.52C50.999,66.494 50.999,66.467 51.003,66.44L50.883,66.511L50.883,66.62L51.003,66.52Z" style="fill:rgb(148,188,229);fill-rule:nonzero;"/>
        <path d="M48.913,19.07L48.913,19.13C48.905,19.111 48.905,19.09 48.913,19.07Z" style="fill:rgb(148,188,229);fill-rule:nonzero;"/>
        <path d="M38.033,81.171L38.033,81.28L38.053,81.2L38.033,81.171Z" style="fill:rgb(148,188,229);fill-rule:nonzero;"/>
        <path d="M54.194,23.971C54.175,24.005 54.175,24.046 54.194,24.08C54.194,24.08 54.203,24.04 54.194,23.971Z" style="fill:rgb(148,188,229);fill-rule:nonzero;"/>
        <path d="M56.163,26.3L56.343,26.701C56.292,26.563 56.232,26.43 56.163,26.3Z" style="fill:rgb(148,188,229);fill-rule:nonzero;"/>
        <path d="M57.393,28.281C57.433,28.288 57.474,28.288 57.513,28.281L57.393,28.281Z" style="fill:rgb(148,188,229);fill-rule:nonzero;"/>
        <path d="M25.233,21.971L25.173,22.04C25.003,22.15 25.143,22.05 25.233,21.971Z" style="fill:rgb(148,188,229);fill-rule:nonzero;"/>
        <path d="M35.173,17.48C35.063,17.546 34.949,17.606 34.833,17.661C35.003,17.65 35.183,17.63 35.173,17.48Z" style="fill:rgb(148,188,229);fill-rule:nonzero;"/>
        <path d="M17.863,31.21L17.863,31.201L17.823,31.27L17.863,31.21Z" style="fill:rgb(148,188,229);fill-rule:nonzero;"/>
        <path d="M34.323,17.73C34.496,17.755 34.673,17.731 34.833,17.661C34.661,17.659 34.489,17.683 34.323,17.73Z" style="fill:rgb(148,188,229);fill-rule:nonzero;"/>
        <path d="M60.633,37.67L60.633,37.79L60.633,37.67Z" style="fill:rgb(148,188,229);fill-rule:nonzero;"/>
        <path d="M60.683,37.79L60.683,37.911C60.683,37.911 60.713,37.81 60.683,37.79Z" style="fill:rgb(148,188,229);fill-rule:nonzero;"/>
        <path d="M60.843,38.161L60.734,37.911C60.743,37.971 60.753,38.11 60.843,38.161Z" style="fill:rgb(148,188,229);fill-rule:nonzero;"/>
        <path d="M60.173,34.65L60.063,34.65C60.099,34.662 60.137,34.662 60.173,34.65Z" style="fill:rgb(148,188,229);fill-rule:nonzero;"/>
        <path d="M59.913,33.75C59.913,33.98 59.843,34.351 59.984,34.63L60.063,34.63C59.883,34.54 60.123,33.911 59.913,33.75Z" style="fill:rgb(148,188,229);fill-rule:nonzero;"/>
        <path d="M59.533,29.601L59.823,30.38C59.823,30.201 59.903,29.971 60.083,30.3C59.923,29.221 60.003,30.59 59.533,29.601Z" style="fill:rgb(148,188,229);fill-rule:nonzero;"/>
        <path d="M58.393,27.3C58.673,27.661 58.523,27.221 58.583,27.201C58.353,26.971 58.303,26.971 58.393,27.3Z" style="fill:rgb(148,188,229);fill-rule:nonzero;"/>
        <path d="M43.573,16.891L43.683,16.661C43.333,16.61 43.653,16.75 43.573,16.891Z" style="fill:rgb(148,188,229);fill-rule:nonzero;"/>
        <path d="M39.973,17.63L40.273,17.8L40.444,17.58L39.973,17.63Z" style="fill:rgb(148,188,229);fill-rule:nonzero;"/>
        <path d="M38.003,15.75L38.153,15.75L37.573,15.86L38.003,15.75Z" style="fill:rgb(148,188,229);fill-rule:nonzero;"/>
        <path d="M14.373,33.63L14.703,33.63C14.703,33.371 14.383,33.221 14.373,33.63Z" style="fill:rgb(148,188,229);fill-rule:nonzero;"/>
        <path d="M15.003,47.02C14.893,47.274 14.953,47.569 15.153,47.761C15.124,47.51 15.074,47.263 15.003,47.02Z" style="fill:rgb(148,188,229);fill-rule:nonzero;"/>
        <path d="M34.883,81.12L34.633,80.971L35.013,81.32L34.883,81.12Z" style="fill:rgb(148,188,229);fill-rule:nonzero;"/>
        <path d="M45.273,39.911C45.363,39.911 45.553,39.911 45.513,39.851L45.183,39.851L45.273,39.911Z" style="fill:rgb(148,188,229);fill-rule:nonzero;"/>
        <path d="M45.853,39.431C45.619,39.33 45.361,39.306 45.113,39.36C45.433,39.42 45.303,39.44 45.673,39.511C45.673,39.58 45.583,39.63 45.463,39.63C45.543,39.63 45.393,39.73 45.603,39.761C45.813,39.79 45.853,39.55 45.603,39.44C45.685,39.418 45.77,39.414 45.853,39.431Z" style="fill:rgb(148,188,229);fill-rule:nonzero;"/>
        <path d="M42.883,33.13L42.883,33.19C42.883,33.19 42.893,33.141 42.883,33.13Z" style="fill:rgb(148,188,229);fill-rule:nonzero;"/>
        <path d="M38.613,31.431C38.648,31.425 38.674,31.395 38.673,31.36C38.673,31.36 38.613,31.4 38.613,31.431Z" style="fill:rgb(148,188,229);fill-rule:nonzero;"/>
        <path d="M37.803,31.05L37.853,31.05C37.853,31.05 37.813,31.031 37.803,31.05Z" style="fill:rgb(148,188,229);fill-rule:nonzero;"/>
        <path d="M42.883,33.13L42.833,32.971C42.773,33.05 42.843,33.07 42.883,33.13Z" style="fill:rgb(148,188,229);fill-rule:nonzero;"/>
        <path d="M45.003,38.621C45.032,38.628 45.064,38.628 45.093,38.621L45.003,38.621Z" style="fill:rgb(148,188,229);fill-rule:nonzero;"/>
        <path d="M44.573,34.32L44.703,34.261L44.573,34.32Z" style="fill:rgb(148,188,229);fill-rule:nonzero;"/>
        <path d="M45.543,35.601C45.543,35.601 45.283,35.69 45.173,35.741C45.241,35.72 45.315,35.72 45.383,35.741L45.543,35.601Z" style="fill:rgb(148,188,229);fill-rule:nonzero;"/>
        <path d="M43.803,33.46C43.827,33.434 43.848,33.403 43.863,33.371C43.84,33.398 43.82,33.428 43.803,33.46Z" style="fill:rgb(148,188,229);fill-rule:nonzero;"/>
        <path d="M44.484,41.33C44.484,41.33 44.484,41.32 44.484,41.33Z" style="fill:rgb(148,188,229);fill-rule:nonzero;"/>
        <path d="M46.003,39.911L46.013,39.94L46.163,39.94L46.003,39.911Z" style="fill:rgb(148,188,229);fill-rule:nonzero;"/>
        <path d="M36.213,30.871C36.213,30.871 36.243,30.851 36.213,30.871Z" style="fill:rgb(148,188,229);fill-rule:nonzero;"/>
        <path d="M29.243,41.82C29.443,41.61 29.613,42 29.823,41.71C29.723,41.761 29.343,41.59 29.243,41.82Z" style="fill:rgb(148,188,229);fill-rule:nonzero;"/>
        <path d="M45.003,38.58" style="fill:rgb(148,188,229);fill-rule:nonzero;"/>
        <path d="M29.823,41.71" style="fill:rgb(148,188,229);fill-rule:nonzero;"/>
        <path d="M33.003,32.431L33.103,32.511C33.078,32.475 33.044,32.447 33.003,32.431Z" style="fill:rgb(148,188,229);fill-rule:nonzero;"/>
        <path d="M35.473,31.641L35.403,31.641C35.426,31.647 35.45,31.647 35.473,31.641Z" style="fill:rgb(148,188,229);fill-rule:nonzero;"/>
        <path d="M32.143,33.59C32.143,33.59 32.063,33.59 32.053,33.59C32.053,33.59 32.083,33.58 32.143,33.59Z" style="fill:rgb(148,188,229);fill-rule:nonzero;"/>
        <path d="M31.213,34.61L31.263,34.61L31.213,34.61Z" style="fill:rgb(148,188,229);fill-rule:nonzero;"/>
        <path d="M43.173,44.251C43.249,44.284 43.323,44.324 43.393,44.37C43.234,44.261 43.293,44.101 43.173,44.251Z" style="fill:rgb(148,188,229);fill-rule:nonzero;"/>
        <path d="M45.123,38.59C45.084,38.603 45.042,38.603 45.003,38.59L45.123,38.59Z" style="fill:rgb(148,188,229);fill-rule:nonzero;"/>
        <path d="M33.593,35.201L33.443,35.281C33.5,35.268 33.551,35.241 33.593,35.201Z" style="fill:rgb(148,188,229);fill-rule:nonzero;"/>
        <path d="M36.183,46.4C36.183,46.4 36.203,46.37 36.183,46.4Z" style="fill:rgb(148,188,229);fill-rule:nonzero;"/>
        <path d="M33.143,35.681C33.079,35.643 33.007,35.623 32.933,35.621L32.933,35.681L33.143,35.681Z" style="fill:rgb(148,188,229);fill-rule:nonzero;"/>
        <path d="M42.633,47.721C42.633,47.79 42.543,47.721 42.503,47.721L42.593,47.631C42.609,47.659 42.622,47.689 42.633,47.721ZM41.023,46.4C41.07,46.407 41.116,46.407 41.163,46.4C41.213,46.48 41.243,46.57 41.213,46.58C41.183,46.591 41.103,46.45 41.003,46.4L41.023,46.4ZM41.333,46.251L41.403,46.2L41.333,46.251ZM43.503,43.09C43.413,43.21 43.763,43.33 43.923,43.471C43.923,43.69 43.653,43.4 43.463,43.36C43.463,43.511 43.713,43.78 43.643,43.84C43.592,43.824 43.547,43.792 43.513,43.75C43.663,44.03 43.293,44.07 43.513,44.421L43.433,44.37C43.572,44.462 43.706,44.561 43.833,44.671C43.833,44.74 43.903,44.931 43.703,44.801C43.703,44.801 43.703,44.7 43.633,44.641L43.633,44.77C43.323,44.601 43.633,44.61 43.423,44.44C43.423,44.631 43.484,44.961 43.333,44.99C43.073,44.78 43.444,44.7 43.113,44.62L43.333,44.62C42.853,44.37 43.433,44.56 42.933,44.28C42.703,44.381 42.933,44.591 42.653,44.681C42.743,44.851 42.853,44.87 42.944,45.03C42.944,45.52 42.194,44.591 42.303,45.091C42.403,45.301 42.643,45.641 42.353,45.57L42.173,45.24C41.973,45.341 42.393,45.751 42.043,45.69C41.993,45.551 42.123,45.48 42.043,45.471C41.753,45.32 42.043,45.711 41.984,45.78L41.773,45.52C41.603,45.681 41.503,46.04 41.273,46.221C41.273,46.131 41.273,46.011 41.133,45.95C40.913,46.261 40.453,46.221 40.133,46.131L40.133,46.45C40.133,46.45 40.043,46.33 40.063,46.27C39.903,46.2 40.063,46.45 40.063,46.57C40.063,46.69 39.923,46.44 39.943,46.341C39.803,46.631 39.433,47.02 39.133,46.74L39.133,46.65C38.933,46.56 39.003,47.27 38.793,47.03L38.793,46.971C38.383,46.881 37.913,47.16 37.623,46.7C37.533,47.11 37.253,46.501 37.163,47.06C36.963,46.74 37.043,46.641 36.763,46.41C36.693,46.41 36.573,46.74 36.453,46.77L36.513,46.471L36.303,46.74L36.303,46.381L36.193,46.381C36.193,46.381 36.193,46.53 36.193,46.61C35.993,46.711 35.873,46.31 35.933,46.16L35.503,46.27C35.503,46.16 35.623,46.141 35.693,46.091C35.403,46.31 35.783,45.78 35.513,45.98C35.513,46.051 35.433,46.141 35.403,46.2C35.387,46.024 35.232,45.894 35.056,45.91C35.055,45.91 35.054,45.91 35.053,45.91L35.163,45.74C34.953,45.591 34.633,45.57 34.383,45.41C34.383,45.54 34.203,45.841 34.103,45.82L34.253,45.53C34.093,45.671 34.253,45.681 34.023,45.82C33.953,45.721 34.173,45.48 34.283,45.431L34.103,45.431C34.153,45.341 34.213,45.32 34.283,45.23C34.123,45.351 34.283,44.83 34.023,45.06L34.073,44.98C33.843,44.81 33.683,44.79 33.493,44.641C33.293,44.841 33.273,44.73 33.053,44.841C32.993,44.631 33.053,44.341 32.853,44.201C32.653,44.06 32.643,44.31 32.473,44.36C32.653,44.19 32.473,44.03 32.723,44.011C32.551,43.836 32.348,43.697 32.123,43.601C32.053,43.69 32.043,43.75 31.953,43.781C31.863,43.81 31.953,43.59 32.073,43.54C31.513,43.38 32.303,42.451 31.723,42.4L31.363,42.201C31.363,42.05 31.563,42.201 31.673,42.07C31.153,41.891 31.593,41.56 31.243,41.36C31.933,41.02 31.053,40.63 31.523,40.29L31.353,40.29C31.183,40.23 31.453,40.201 31.483,40.15C31.353,40.15 31.333,40.23 31.233,40.15C30.983,39.52 31.523,38.86 31.813,38.34C31.913,38.141 30.973,37.98 31.453,37.8L31.743,37.98C31.651,37.744 31.673,37.478 31.803,37.261C31.94,37.054 32.007,36.808 31.993,36.56C32.043,36.621 32.123,36.67 32.103,36.71C32.353,36.71 32.293,36.42 32.103,36.31C32.163,36.31 32.263,36.391 32.363,36.4C32.463,36.411 32.233,36.03 32.463,36.121C32.463,36.121 32.513,36.181 32.513,36.21C32.513,36.241 32.713,35.991 32.453,35.88C32.663,35.82 32.553,35.53 32.773,35.53C32.603,35.27 33.083,35.411 32.773,35.101C33.093,35.411 33.223,35.101 33.173,34.9C33.243,35.02 33.343,34.9 33.433,35.101C33.523,35.02 33.553,34.88 33.383,34.721C33.883,34.971 33.483,34.09 34.003,34.55C34.133,34.17 34.353,33.828 34.643,33.55C34.833,33.931 34.323,33.77 34.573,34.17C34.733,33.84 34.753,33.44 35.093,33.391C35.193,33.391 35.093,33.58 35.093,33.661C35.323,33.36 35.673,33.471 35.883,33.161C35.897,33.203 35.897,33.248 35.883,33.29C35.883,33.29 36.033,33.29 35.963,33.13L35.963,33.19C35.783,32.94 36.023,32.55 35.963,32.4C35.963,32.98 36.293,32.46 36.303,33.21C36.336,33.12 36.336,33.021 36.303,32.931C36.373,32.931 36.403,33.02 36.383,33.19C36.553,33.031 36.443,32.851 36.633,32.82C36.633,32.911 36.633,32.96 36.633,33.07C36.633,32.871 36.753,32.67 36.933,32.721C36.933,32.78 36.933,32.86 36.933,32.86C37.183,32.78 37.353,32.32 37.683,32.48C37.603,32.911 37.793,32.61 37.813,32.98L37.973,32.871L37.913,32.69C38.053,32.69 38.193,32.44 38.313,32.57L38.193,32.71L38.473,32.661L38.323,32.511C38.483,32.33 38.323,32.05 38.533,32.161C38.533,32.161 38.693,32.161 38.743,32.4C38.833,32.3 38.923,32.19 39.023,32.3C39.123,32.411 38.943,32.69 38.953,32.77C39.063,32.48 39.303,32.77 39.453,32.44C39.403,32.529 39.375,32.629 39.373,32.73L39.483,32.511C39.533,32.601 39.533,32.641 39.483,32.79C39.673,32.88 39.483,32.32 39.723,32.58C39.723,32.58 39.723,32.63 39.653,32.661C39.863,32.82 40.163,32.661 40.333,32.82C40.273,33.19 40.123,32.82 40.093,33.161C40.403,33.161 40.873,32.971 41.093,33.161L41.093,33.101C41.363,32.661 41.194,33.431 41.444,33.29C41.393,33.29 41.263,33.511 41.303,33.471C41.444,33.65 41.734,33.57 42.103,33.621L41.993,33.71C41.993,33.88 42.223,33.96 42.293,34.09C42.413,34.011 42.463,34.09 42.543,33.891C42.484,34.31 42.673,34.38 42.903,34.42C43.133,34.46 43.363,34.52 43.253,34.871C43.253,34.871 43.103,34.871 43.123,34.871L43.423,35.02C43.583,34.86 43.503,34.9 43.593,34.73C43.695,34.673 43.82,34.673 43.923,34.73C43.703,34.73 43.643,34.971 43.583,35.101C43.637,35.051 43.694,35.004 43.753,34.96C43.543,35.351 44.123,34.701 44.053,35.06L43.953,35.13C44.053,35.13 44.234,35.13 44.263,35.23C44.073,35.42 44.103,35.23 43.933,35.351C44.013,35.44 44.503,35.28 44.343,35.53C44.253,35.53 44.213,35.451 44.113,35.451C43.944,35.721 44.003,35.701 44.013,35.8L44.013,36.06L44.063,35.971C44.723,35.761 44.353,36.181 44.833,36.181C44.363,36.181 44.603,36.261 44.333,36.38C44.333,36.471 44.234,36.58 44.153,36.601C44.413,36.601 44.053,36.83 44.433,36.8C44.343,36.8 44.433,36.9 44.243,36.98C44.363,37.07 44.383,36.891 44.493,36.851C44.883,36.911 44.283,37.431 44.813,37.55C45.063,37.741 45.383,37.701 45.603,37.911C45.473,38.03 45.243,37.911 45.243,37.911C45.143,38.07 45.243,38.15 45.323,38.261C45.232,38.261 45.144,38.293 45.073,38.351C45.073,38.44 45.423,38.351 45.303,38.5C45.174,38.516 45.043,38.516 44.913,38.5C45.013,38.601 45.213,38.681 45.313,38.79C45.153,38.84 45.053,38.79 44.944,38.73C45.035,38.909 45.205,39.034 45.403,39.07L45.493,38.971C45.493,39.02 45.263,38.971 45.213,38.971C44.993,38.88 45.283,38.8 45.373,38.78L45.453,38.86C45.993,38.701 45.303,38.511 45.313,38.34L45.723,38.34L45.363,38.21C45.463,38.161 45.683,38.08 45.753,38.161C45.923,37.991 45.583,38.08 45.753,37.911C45.776,37.901 45.801,37.901 45.823,37.911L45.663,37.81C45.753,37.81 45.944,37.721 45.903,37.81C46.073,37.511 45.513,37.511 45.783,37.34C45.553,37.06 45.493,37.34 45.083,37.28L45.723,36.88L45.433,36.951C45.433,36.951 45.433,36.84 45.543,36.81C45.303,36.81 45.423,36.88 45.223,36.88C45.423,36.621 44.944,36.52 45.353,36.3C45.123,36.3 45.263,36.511 45.043,36.42C45.484,36.161 44.873,36.28 45.043,36.04C45.303,35.96 45.243,36.161 45.383,35.911C44.953,36.03 45.383,35.601 45.194,35.52C44.873,35.701 44.913,35.36 44.703,35.241C44.823,35.181 44.633,34.8 44.603,34.55L44.663,34.55C44.343,34.741 44.283,34.55 44.123,34.46C44.293,34.33 44.373,34.29 44.503,34.3L44.403,34.19C44.315,34.235 44.211,34.235 44.123,34.19L44.353,34.04C44.203,33.9 43.863,33.96 43.813,33.661C43.633,33.84 43.453,34.28 43.163,34.241C43.253,34.141 43.403,33.96 43.493,33.971C43.583,33.98 43.353,33.971 43.363,33.971L43.593,33.871C43.593,33.721 43.423,33.971 43.373,33.871C43.503,33.73 43.373,33.721 43.533,33.621C43.694,33.52 43.533,33.73 43.613,33.701C43.558,33.573 43.558,33.428 43.613,33.3C43.553,33.391 43.444,33.491 43.373,33.46C43.303,33.431 43.473,33.241 43.453,33.09C43.333,33.161 43.323,32.971 43.133,33.201C43.133,33.201 43.133,33.05 43.203,32.971C43.043,32.971 42.793,32.721 42.703,33.04C42.293,33.04 42.243,32.54 41.903,32.471L41.903,32.391C41.694,32.391 41.493,32.261 41.283,32.391C41.283,32.391 41.283,32.181 41.283,32.08C41.113,32.08 41.063,32.17 40.923,31.951C41.133,31.851 40.923,31.79 41.113,31.891C40.963,31.75 40.973,31.58 40.683,31.761C40.843,31.55 40.683,31.411 40.543,31.451L40.613,31.67C40.514,31.662 40.42,31.623 40.343,31.56L40.493,31.27C40.183,30.77 39.613,31.721 39.493,31.02C39.343,31.23 39.683,31.21 39.493,31.46C39.333,31.391 39.213,30.9 39.153,30.891C38.913,30.67 38.853,31.32 38.603,31.17C38.603,31.29 38.603,31.601 38.433,31.701C38.263,31.65 38.243,31.201 38.363,31.11C38.483,31.02 38.423,31.11 38.423,31.181C38.423,31.25 38.573,31.101 38.503,30.971L38.503,31.08C38.413,30.96 38.153,30.96 38.223,30.77C38.073,30.871 38.153,30.96 38.223,31.02C37.983,30.851 37.843,31.02 37.593,30.891C37.593,30.96 37.673,31.09 37.593,31.09C37.233,30.971 37.443,31.32 37.213,31.38C37.063,31.21 37.213,30.96 37.003,31.121C36.833,31.011 36.933,30.81 37.003,30.721C36.793,30.94 36.553,30.621 36.413,30.601L36.523,30.491C36.469,30.536 36.403,30.564 36.333,30.57L36.433,30.79C36.353,30.79 36.293,30.79 36.283,30.67C36.283,30.83 36.393,31.05 36.283,31.27C36.173,31.17 36.033,31.44 35.943,31.15C36.253,31.201 35.843,30.851 36.083,30.761C36.029,30.797 35.957,30.797 35.903,30.761C35.903,30.761 35.903,30.69 35.903,30.67C35.563,30.471 35.843,31.05 35.563,31.11C35.563,30.931 35.413,30.81 35.373,30.86C35.493,30.86 35.503,31.13 35.433,31.28C35.213,31.201 35.263,31.431 35.163,31.44L35.293,31.44C35.293,31.621 35.213,31.621 35.113,31.71C35.063,31.59 35.193,31.59 35.113,31.54C35.113,31.88 34.703,31.351 34.583,31.621C34.453,31.54 34.453,31.32 34.353,31.27C34.213,31.56 34.023,31.15 33.873,31.431C34.033,31.61 34.013,31.55 33.963,31.83L34.253,31.511L34.163,31.931C34.263,31.931 34.323,31.69 34.403,31.701C34.403,31.92 34.403,31.86 34.483,32.02C34.203,31.761 34.293,32.34 34.033,32.201L33.783,31.681C33.403,31.57 33.473,32.17 33.103,32.23L33.253,32.23C33.333,32.451 33.083,32.371 33.033,32.511C32.959,32.394 32.851,32.303 32.723,32.25C32.803,32.36 32.493,32.4 32.723,32.73L32.443,32.621C32.143,32.721 32.513,33.25 32.283,33.38C32.203,33.161 32.023,33.141 32.063,32.9C31.993,32.971 31.903,33 31.993,33.101C31.873,33.101 31.993,33.471 31.793,33.391C31.793,33.48 31.953,33.63 31.863,33.69L31.793,33.621C31.863,33.681 31.793,33.82 31.993,33.911C31.373,33.701 31.503,34.491 30.993,34.36C30.932,34.566 30.848,34.764 30.743,34.951C30.743,34.9 30.663,34.891 30.693,34.871C30.413,34.991 31.083,35.31 30.773,35.431C30.433,35.431 30.703,35.221 30.553,35.23C29.993,34.94 30.443,35.57 30.033,35.56L30.033,35.5C29.773,35.5 30.083,35.94 29.943,36.141C29.914,36.133 29.882,36.133 29.853,36.141C30.026,36.385 30.107,36.682 30.083,36.98C29.873,36.83 29.993,36.84 29.743,36.79C29.743,36.9 30.133,36.9 30.133,37.11C29.947,37.176 29.749,37.197 29.553,37.17C29.573,37.108 29.59,37.045 29.603,36.98C29.233,36.98 29.533,37.23 29.453,37.31L29.313,37.25C29.313,37.57 29.653,37.661 29.553,37.96L29.673,37.96C30.013,38.201 29.433,38.06 29.673,38.281L29.283,38.281C29.431,38.484 29.552,38.706 29.643,38.94C29.363,38.8 29.263,38.54 29.113,38.36C29.113,38.471 29.113,38.761 29.263,38.84C29.263,38.84 29.153,38.721 29.213,38.681C29.493,38.86 29.643,39.05 29.623,39.261C28.873,39.19 29.393,39.84 28.843,40.02C29.123,40.42 28.773,40.86 28.903,41.36C29.453,41.08 28.903,41.5 29.533,41.36C29.583,41.46 29.593,41.5 29.533,41.52L29.263,41.931C29.123,42.05 29.113,41.86 28.983,41.931C28.983,42.19 28.763,42.101 28.653,42.31C28.853,42.221 28.973,42.31 28.933,42.48L29.143,42.201C29.533,42.44 28.753,42.65 29.143,42.891L28.933,42.891C29.093,43.03 29.173,43.55 29.693,43.511C29.643,43.57 29.513,43.67 29.443,43.621C29.563,44.07 30.343,44.23 30.263,44.62L30.123,44.62C30.203,44.671 30.423,44.62 30.363,44.751C30.303,44.881 30.223,44.81 30.243,44.851C30.263,44.891 30.583,44.851 30.573,45.011L30.383,45.011C30.493,45.48 31.103,45.29 31.383,45.461C31.157,45.668 31.107,46.006 31.263,46.27C31.603,46.66 32.133,46.591 32.603,46.711C32.543,47.27 33.283,47.41 33.603,47.841C33.603,47.74 33.763,47.551 33.853,47.54C33.943,47.53 34.243,47.4 34.063,47.751C33.973,48.131 34.223,48.15 34.383,48.211L34.603,47.74C34.673,48.16 34.983,48.221 35.263,48.211C35.543,48.2 35.793,48.211 35.843,48.54C35.973,48.44 36.113,48.461 36.243,48.351L36.183,48.62C36.438,48.755 36.727,48.81 37.013,48.78L36.913,48.971C37.133,48.971 37.253,48.19 37.433,48.181L37.433,48.601C37.783,48.601 38.183,48.95 38.523,48.601C38.523,48.66 38.523,48.78 38.463,48.801C38.633,48.801 39.183,49.001 39.033,48.44C39.093,48.81 39.423,48.44 39.573,48.23L39.573,48.501C39.663,48.12 39.643,48.03 39.833,47.881C39.893,47.881 39.933,48.08 39.833,48.03C40.043,48.12 39.893,47.74 40.143,47.83L40.143,48.02C40.323,48.02 40.283,47.91 40.313,47.681C40.343,47.45 40.653,47.681 40.763,47.851C40.763,47.7 40.763,47.48 40.883,47.511C40.911,47.567 40.911,47.634 40.883,47.69C41.253,47.77 41.173,47.221 41.473,47.381C41.473,47.461 41.543,47.501 41.573,47.511C41.353,47.61 41.163,47.69 41.173,47.66C41.273,47.891 41.484,47.841 41.473,48.23C41.553,47.98 41.623,47.49 41.843,47.511L41.913,47.58C41.913,47.58 41.993,47.58 42.003,47.49C42.061,47.512 42.125,47.512 42.183,47.49C42.303,47.66 42.444,47.49 42.533,47.431C42.383,47.19 42.533,47.16 42.293,47.03L42.243,47.12L42.043,47.261C42.043,47.101 42.043,46.961 42.223,47.03C42.173,46.851 42.123,46.671 42.103,46.58C42.413,46.851 42.753,46.881 42.913,47.051C43.073,46.73 43.453,46.53 43.243,46.051C43.243,45.94 43.413,46.051 43.493,46.131C43.573,46.211 43.493,46.24 43.493,46.31C43.493,46.101 43.833,45.931 43.613,45.65C43.883,45.65 43.763,45.971 43.933,45.721L43.933,45.83C44.333,45.83 44.333,45.471 44.333,45.16C44.333,44.851 44.333,44.54 44.793,44.501C44.745,44.519 44.692,44.519 44.643,44.501C45.333,44.07 45.133,43.13 45.833,42.661C46.003,42.5 45.833,42.4 45.663,42.241L45.963,42.29L45.694,41.991C45.503,41.65 46.543,41.661 46.133,41.181L45.933,41.181C45.984,41.05 45.873,40.75 46.103,40.8C46.103,40.8 45.903,40.73 46.013,40.69L46.163,40.69C46.097,40.564 46.021,40.443 45.933,40.33C46.063,40.09 46.543,40.42 46.593,40.04C46.543,39.88 46.163,39.621 46.053,39.681C46.007,39.775 45.907,39.831 45.803,39.82L46.003,39.971C45.582,39.875 45.142,39.925 44.753,40.11L45.023,40.3L44.793,40.351L44.793,40.17C44.583,40.241 44.793,40.3 44.883,40.371C44.796,40.372 44.711,40.393 44.633,40.431L45.063,40.641C44.883,40.641 44.723,40.531 44.603,40.641C44.793,40.741 45.013,40.641 45.123,40.75C44.903,40.82 44.743,40.75 44.903,40.891C44.819,40.902 44.733,40.872 44.673,40.81C44.793,40.92 44.673,41.05 44.923,41.13C44.663,41.181 44.923,41.451 44.513,41.351C44.613,41.351 44.803,41.57 44.803,41.661C44.343,41.38 44.703,41.94 44.173,41.75C44.603,41.991 44.243,42.17 44.423,42.44C44.423,42.44 44.333,42.371 44.363,42.36C44.393,42.351 44.153,42.431 44.043,42.46C44.393,42.621 44.403,42.8 44.573,42.991C44.173,42.991 44.203,42.73 43.853,42.621C44.143,42.741 44.043,42.951 44.293,43.03C44.143,43.048 43.99,43.024 43.853,42.96C44.263,43.201 43.853,43.08 44.093,43.29C43.813,43.29 43.683,43.101 43.734,43.29C43.573,43.29 43.503,43.09 43.503,43.09Z" style="fill:rgb(148,188,229);fill-rule:nonzero;"/>
        <path d="M42.543,47.351L42.473,47.351L42.473,47.44L42.543,47.351Z" style="fill:rgb(148,188,229);fill-rule:nonzero;"/>
        <path d="M42.893,33.201" style="fill:rgb(148,188,229);fill-rule:nonzero;"/>
        <path d="M36.563,46.351L36.543,46.421L36.583,46.37L36.563,46.351Z" style="fill:rgb(148,188,229);fill-rule:nonzero;"/>
        <path d="M43.743,35.281L43.743,35.34L43.743,35.281Z" style="fill:rgb(148,188,229);fill-rule:nonzero;"/>
        <path d="M44.173,35.971L44.173,36.121C44.181,36.071 44.181,36.02 44.173,35.971Z" style="fill:rgb(148,188,229);fill-rule:nonzero;"/>
        <path d="M44.373,36.59L44.484,36.59L44.373,36.59Z" style="fill:rgb(148,188,229);fill-rule:nonzero;"/>
        <path d="M36.063,33.391C36.063,33.391 36.003,33.44 36.063,33.391Z" style="fill:rgb(148,188,229);fill-rule:nonzero;"/>
        <path d="M38.913,32.5C38.882,32.545 38.844,32.585 38.803,32.621C38.853,32.65 38.893,32.661 38.913,32.5Z" style="fill:rgb(148,188,229);fill-rule:nonzero;"/>
        <path d="M33.613,35.19L33.603,35.19L33.593,35.201L33.613,35.19Z" style="fill:rgb(148,188,229);fill-rule:nonzero;"/>
        <path d="M38.663,32.61C38.702,32.648 38.764,32.648 38.803,32.61C38.803,32.61 38.713,32.57 38.663,32.61Z" style="fill:rgb(148,188,229);fill-rule:nonzero;"/>
        <path d="M45.003,39.161" style="fill:rgb(148,188,229);fill-rule:nonzero;"/>
        <path d="M45.063,39.19C45.063,39.19 45.093,39.19 45.063,39.19Z" style="fill:rgb(148,188,229);fill-rule:nonzero;"/>
        <path d="M45.173,39.29L45.103,39.221C45.103,39.221 45.093,39.281 45.173,39.29Z" style="fill:rgb(148,188,229);fill-rule:nonzero;"/>
        <path d="M44.923,38.11C44.923,38.17 44.753,38.3 44.833,38.36L44.913,38.36C44.763,38.351 45.103,38.121 44.923,38.11Z" style="fill:rgb(148,188,229);fill-rule:nonzero;"/>
        <path d="M45.734,36.641L45.734,36.891C45.823,36.82 45.933,36.71 46.003,36.81C46.194,36.391 45.813,36.971 45.734,36.641Z" style="fill:rgb(148,188,229);fill-rule:nonzero;"/>
        <path d="M45.543,35.88C45.643,35.98 45.673,35.81 45.734,35.781C45.603,35.75 45.573,35.75 45.543,35.88Z" style="fill:rgb(148,188,229);fill-rule:nonzero;"/>
        <path d="M41.523,32.15L41.633,31.92C41.523,31.911 41.593,31.971 41.523,32.15Z" style="fill:rgb(148,188,229);fill-rule:nonzero;"/>
        <path d="M40.143,32.971L40.143,33.141L40.243,32.94L40.143,32.971Z" style="fill:rgb(148,188,229);fill-rule:nonzero;"/>
        <path d="M40.013,31.13L40.073,31.11L39.873,31.161L40.013,31.13Z" style="fill:rgb(148,188,229);fill-rule:nonzero;"/>
        <path d="M31.173,34.261L31.423,34.431C31.433,34.34 31.173,34.101 31.173,34.261Z" style="fill:rgb(148,188,229);fill-rule:nonzero;"/>
        <path d="M29.653,38.11C29.483,38.11 29.373,38.221 29.503,38.32C29.543,38.23 29.673,38.161 29.653,38.11Z" style="fill:rgb(148,188,229);fill-rule:nonzero;"/>
        <path d="M34.903,48.44L34.783,48.511L34.973,48.48L34.903,48.44Z" style="fill:rgb(148,188,229);fill-rule:nonzero;"/>
    </g>
</svg>
