<svg xmlns="http://www.w3.org/2000/svg" viewBox="0 0 110.72 92.87"><defs><style>.cls-1{fill:#9fc4e8;}.cls-2{fill:#ee7d00;}</style></defs><title>Element 202</title><g id="Ebene_2" data-name="Ebene 2"><g id="Ebene_2-2" data-name="Ebene 2"><path class="cls-1" d="M38.93,41.79c0-.1,0-.34,0-.29l0,.4Z"/><path class="cls-1" d="M38.55,41a2,2,0,0,0-.1.92c.06-.39.08-.23.15-.7.06,0,.1.13.09.28,0-.1.09.09.12-.16s-.17-.33-.27-.07A.8.8,0,0,1,38.55,41Z"/><path class="cls-1" d="M33,40.4l0,.05Z"/><path class="cls-1" d="M29.61,40.18s0,0,0-.09S29.6,40.15,29.61,40.18Z"/><path class="cls-1" d="M29,39.73l0,0S29,39.7,29,39.73Z"/><path class="cls-1" d="M33,40.4l-.09-.12C32.93,40.41,33,40.37,33,40.4Z"/><path class="cls-1" d="M37.79,42a.38.38,0,0,0,.05-.11l-.05.05Z"/><path class="cls-1" d="M34.54,40.07h0s0-.1,0-.16Z"/><path class="cls-1" d="M35.69,40a3.13,3.13,0,0,0,0,.48.46.46,0,0,1,.05-.23A2.36,2.36,0,0,0,35.69,40Z"/><path class="cls-1" d="M37.53,40.62l0,0Z"/><path class="cls-1" d="M33.71,40s0-.1,0-.12A.49.49,0,0,0,33.71,40Z"/><path class="cls-1" d="M1.35,42.6v-.06S1.34,42.6,1.35,42.6Z"/><path class="cls-1" d="M0,40.89v0a1.34,1.34,0,0,0,0-.2Z"/><path class="cls-1" d="M28,39.29h0S28,39.26,28,39.29Z"/><path class="cls-1" d="M18.15,39.54c.11.31-.19.4,0,.74C18.12,40.15,18.28,39.74,18.15,39.54Z"/><path class="cls-1" d="M37.76,42h0A0,0,0,0,0,37.76,42Z"/><path class="cls-1" d="M18.13,40.28h0l0,0Z"/><path class="cls-1" d="M25.49,39.5l0,.15A.56.56,0,0,0,25.49,39.5Z"/><path class="cls-1" d="M27.33,40l0-.05Z"/><path class="cls-1" d="M24.54,40s0-.07-.07,0a.06.06,0,0,1,0,0S24.51,39.93,24.54,40Z"/><path class="cls-1" d="M23.55,40a.25.25,0,0,0,0,.07l0,0Z"/><path class="cls-1" d="M4.36,42.43a2.87,2.87,0,0,1-.05-.31C4.33,42.37,4.18,42.45,4.36,42.43Z"/><path class="cls-1" d="M37.79,41.83a.61.61,0,0,1,0,.15l0,0Z"/><path class="cls-1" d="M24.5,42.71l-.16-.05A.24.24,0,0,0,24.5,42.71Z"/><path class="cls-1" d="M11.47,42.38l0,0S11.46,42.42,11.47,42.38Z"/><path class="cls-1" d="M23.88,42.71a.86.86,0,0,0-.09-.24.24.24,0,0,0,0,.09Z"/><path class="cls-1" d="M4.31,42.12Z"/><path class="cls-1" d="M3.28,42.94c.15,0,.07-.45.1-.71.18-.13.08.34.14.57.11-.12.2-.54.28-.52a.44.44,0,0,1,0,.2c.11-.36.35,0,.49-.48a.53.53,0,0,1,0,.12c0-.23,0-.46,0-.63.07,0,.13-.28.15,0,0,0,0,.12-.06.21l.07-.13c.06.43-.1.15-.1.46.14-.14.3-.49.41-.37,0,.42-.25.14-.11.51L4.49,42c.12.66-.1,0,0,.66.22.12.24-.21.46-.09,0-.23,0-.34,0-.57.3-.42.24,1,.46.49.06-.28.08-.81.24-.53l-.05.47c.2,0,.11-.67.33-.36,0,.19-.16.16-.13.22.14.37.1-.27.21-.27l0,.42c.22-.07.47-.37.71-.45a.74.74,0,0,0,0,.39c.31-.21.66.05,1,.29l.11-.36s.05.17,0,.24c.12.13,0-.23.07-.37s.08.2,0,.31c.21-.3.58-.66.8-.27l0,.11c.17.14.19-.74.34-.41l0,.07c.37.15.77-.18,1,.37.05-.52.36.23.38-.5.21.36.15.49.45.74.07,0,.11-.46.21-.53v.38l.13-.4.07.45.09-.1a.53.53,0,0,1-.07-.28c.14-.17.35.27.35.46l.34-.32a.65.65,0,0,1-.11.3c.18-.38,0,.4.2.05a1,1,0,0,1,0-.3.25.25,0,0,0,.41.13l0,.26c.25.07.53-.12.81-.12a.74.74,0,0,1,0-.62l0,.4c.06-.24-.08-.15,0-.45.1,0,.07.46,0,.59l.12-.14a2.12,2.12,0,0,1,0,.33c.06-.25.22.4.3,0v.12c.27,0,.4-.13.63-.15,0-.35.09-.27.16-.55.17.11.35.38.55.35s0-.29.11-.5c0,.32.21.29.11.51a1,1,0,0,0,.61-.31.68.68,0,0,1-.05-.3c.06-.05.13.14.12.29l0,0c.35-.47.8.92,1.07.26v0l.28-.34c.13.06-.08.24,0,.43.3-.52.48.08.73-.27.2.93.69-.07,1,.53l0-.22c.07-.22.08.12.13.17,0-.17-.07-.19,0-.31.58-.27,1.19.32,1.78.52.22.05.12-1.14.4-.61l-.08.4c.44-.49.89,0,1.32-.39,0,.09,0,.21-.07.21.09.29.33,0,.34-.23.06,0,0,.22,0,.34s.23-.37.28-.08a.19.19,0,0,1-.05.12c.06-.14.28,0,.22-.31.16.17.31-.15.44,0,.08-.38.27.19.3-.35,0,.56.28.45.38.19,0,.16.09.17.05.4.11,0,.22-.11.2-.39.21.66.43-.54.55.31a3.54,3.54,0,0,1,1-.63c0,.56-.34.06-.33.64.29-.23.46-.71.75-.57.08.07,0,.24-.07.33.3-.22.57.05.83-.25a.28.28,0,0,1-.06.15c.06,0,.12.08.12-.17l-.05.07c-.08-.37.2-.76.21-1-.09.73.26.18.12,1.1a.61.61,0,0,0,.07-.34c.05,0,.06.15,0,.34.19-.14.12-.4.29-.4,0,.12,0,.17-.05.31.08-.23.17-.47.31-.37,0,.08,0,.17,0,.17.24,0,.42-.63.68-.4-.08.53.09.17.1.63l.15-.14-.06-.22c.13,0,.24-.33.34-.18l-.09.19.23-.08-.13-.18c.13-.24,0-.58.15-.45,0,0,.13,0,.19.27h0c.07-.15.13-.31.22-.19s0,.51,0,.6c.06-.38.29-.1.37-.51a1.35,1.35,0,0,0,0,.39l.05-.32a.47.47,0,0,1,.06.34c.17.06-.06-.58.15-.33,0,0,0,.07,0,.12.2.13.4-.2.59,0,.05.46-.17.11-.1.5.27-.08.57-.55.83-.44L32,41.56c0-.65.2.33.33,0a.93.93,0,0,0,0,.29c.18.1.37-.16.65-.37l0,.17c.11.15.29.09.4.16,0-.16.1-.14.06-.38.36.95.69-.51,1,.28,0,0-.09.15-.06.15l.27-.15a1,1,0,0,0-.09-.4c0-.17.11-.3.18-.3-.12.19,0,.46,0,.62a2.35,2.35,0,0,1,0-.27c.14.5,0-.58.21-.24v.15c.07-.07.14-.27.22-.23,0,.33-.08.16-.08.43.11,0,.21-.63.31-.3,0,.09-.11.09-.16.19.11.38.12.28.2.35h0l.19.17,0-.1c.14-.86.28-.16.47-.72-.18.53,0,.31-.05.68a.57.57,0,0,1,.1.32c.09-.3.15.24.27-.2,0,.12.09,0,.07.31.11-.09,0-.21,0-.36.18-.41.41.5.67-.06.21-.23.25-.64.45-.84a.67.67,0,0,1,0,.44c.11.17.19.14.29,0a.77.77,0,0,0,0,.33c.09,0,.06-.43.17-.26a3.7,3.7,0,0,1-.08.48c.09-.11.19-.33.29-.44a.9.9,0,0,1-.1.46.65.65,0,0,0,.33-.52l-.07-.12s0,.28,0,.34c-.1.26-.14-.11-.14-.23l.07-.08c-.08-.7-.29.11-.44.07l.06-.51-.14.42a.74.74,0,0,1,0-.49c-.1-.25-.09.18-.18-.1a.13.13,0,0,1,0-.09l-.1.15c0-.1,0-.36,0-.28-.18-.3-.29.38-.36,0v0c-.25.17,0,.38-.21.82l-.13-.93,0,.38s-.08,0-.07-.2c-.1.26,0,.17,0,.41-.12-.34-.34.16-.37-.44-.05.29.12.22,0,.42,0-.64-.15.11-.27-.19,0-.33.15-.15,0-.45-.07.56-.22-.12-.32,0,0,.44-.21.18-.37.33,0-.15-.3-.24-.45-.41v-.07c0,.45-.18.37-.3.46a1.1,1.1,0,0,1,.09-.5h-.11a.43.43,0,0,1-.12.28l0-.34c-.14,0-.28.4-.46.17,0,.32.14.88,0,1.09a1.42,1.42,0,0,1,0-.53s-.06.14-.09.07l.08-.29c-.08-.13,0,.24-.11.21,0-.24,0-.17,0-.36,0,0,.06.1.08,0a.58.58,0,0,1-.19-.37c0,.14,0,.33-.06.36s0-.29-.13-.42c0,.17-.12,0-.13.36,0,0,0-.17-.06-.27-.07.16-.34,0-.26.43l0,0h0c-.24.36-.5-.2-.74,0v-.12c-.14.14-.32.08-.42.34,0,0-.1-.22-.08-.36-.11.09-.12.22-.28,0,.11-.21,0-.18.11-.15-.14-.11-.17-.3-.32,0,0-.31-.11-.39-.17-.3l.09.23a.23.23,0,0,1-.2,0l0-.41c-.29-.5-.52.84-.74,0-.08.29.16.2.09.54-.13-.06-.27-.65-.31-.65-.19-.22-.17.6-.37.45,0,.14.05.53-.09.67-.13-.05-.16-.61-.08-.73s0,0,0,.08a.23.23,0,0,0,0-.27V40c-.07-.15-.25-.14-.21-.38a.23.23,0,0,0,0,.32c-.17-.21-.27,0-.44-.15,0,.08.05.25,0,.25-.25-.18-.11.28-.28.34-.1-.22,0-.53-.14-.34-.11-.15,0-.39,0-.51-.16.28-.3-.19-.4-.24l.09-.11a.12.12,0,0,1-.13.06l0,.29c-.05,0-.09,0-.09-.17-.05.19,0,.49-.06.75-.07-.15-.2.16-.22-.23.2.13,0-.39.15-.45,0,0-.08,0-.13,0a.15.15,0,0,1,0-.1c-.2-.35-.1.44-.3.43,0-.22-.05-.42-.08-.37s0,.36,0,.53c-.13-.17-.14.13-.21.11l.08.08c0,.22-.1.19-.19.26,0-.17.09-.12.05-.19-.1.38-.23-.4-.37-.14-.07-.15,0-.41-.07-.51-.16.28-.17-.3-.34-.07.05.29.06.22-.06.51l.28-.21-.18.43c.08,0,.18-.19.23-.14-.09.24-.08.17,0,.41-.11-.44-.23.26-.36,0v-.72c-.2-.33-.36.37-.61.19l.08.12c0,.29-.16,0-.24.16a1.44,1.44,0,0,0-.08-.48c0,.18-.19,0-.21.47l-.12-.32c-.21-.13-.24.69-.43.61.06-.27,0-.44.1-.63-.07,0-.13-.05-.13.12,0-.15-.18.33-.25.1,0,.11,0,.36-.11.34a.44.44,0,0,1,0-.12c0,.12-.11.16-.05.43-.2-.76-.57.06-.75-.59a1.3,1.3,0,0,1-.46.17c0-.07,0-.12,0-.09-.18-.23-.11.7-.32.44s.11-.21.05-.36c0-.8-.26.11-.39-.36l0,0c-.11-.27-.26.3-.44.24a1.05,1.05,0,0,0,0-.12,1.06,1.06,0,0,1-.52.66c.06-.31.08-.17.05-.48-.08,0,0,.51-.13.59a1.87,1.87,0,0,1-.17-.66h.14c-.07-.44-.18,0-.26-.07v-.19c-.22.07-.22.55-.45.51l0,.15c-.12.48-.1-.27-.23.09l0-.49a2.31,2.31,0,0,1-.44.56,2.69,2.69,0,0,1,.37-.76.32.32,0,0,0-.33.28s.08-.17.11-.09c-.1.38-.24.57-.4.56,0-.94-.44-.24-.56-1-.29.35-.58-.15-.92-.09.12.73-.1,0-.08.77-.08.05-.11,0-.12,0l-.24-.45c-.06-.22.08-.17.07-.34-.18,0-.07-.32-.19-.52,0,.27-.06.39-.16.29l.14.34c-.24.4-.21-.63-.46-.23l.08-.24c-.12.14-.46,0-.59.6,0-.08-.05-.29,0-.35-.3-.09-.67.65-.91.28l0-.19c-.05.06-.09.35-.16.16s0-.18,0-.19-.15.32-.22.21l.06-.2c-.29-.24-.45.5-.7.63a.86.86,0,0,0-.34-.81V39.2c-.34-.06-.58.45-.9.67-.19-.59-.66-.25-1-.58a.77.77,0,0,1-.06.48c-.08-.11-.21.37-.2-.12h0c-.06-.49-.21-.36-.33-.38l0,.65c-.31-.94-.81.35-1-.5-.08.17-.17.17-.25.33v-.35a.66.66,0,0,0-.57,0l.05-.25c-.14,0-.18,1-.32,1l0-.52c-.25,0-.51-.45-.76,0,0-.08,0-.23.06-.25-.12,0-.47-.35-.42.36,0-.46-.26,0-.4.16l0-.34c-.11.44-.12.56-.28.68,0,0,0-.28,0-.19-.13-.18-.1.33-.26.14L8,40c-.13,0-.12.1-.19.35s-.25-.09-.27-.4c0,.19-.09.45-.17.36a.41.41,0,0,1,0-.23c-.22-.23-.33.4-.48.06a.4.4,0,0,0,0-.2c.18,0,.32,0,.31,0,0-.31-.15-.37,0-.81-.12.24-.31.76-.45.61s0-.06,0-.11v0s-.06,0-.09,0-.07-.09-.11-.1c0-.26-.16-.14-.23-.15,0,.34-.09.29,0,.57,0,0,0,0,.06,0l0,0v0l.18,0c-.06.18-.12.32-.19.13l-.1.56c-.1-.48-.28-.74-.31-1-.21.19-.5.13-.64.78-.06.08-.07-.19-.09-.29s.08-.06.1-.15c-.12.17-.36.06-.39.52-.16-.21.08-.42-.13-.35l0-.13c-.41-.73-.67,1.15-1.13.22a.3.3,0,0,1,0,.16c-.52-.41-1.08.39-1.6-.26-.14-.13-.16.16-.25.38l0-.38-.15.43c-.22.32-.38-.91-.65-.32l0,.25c-.1,0-.31.15-.3-.14,0,.05,0,.26-.07.13v-.19l-.24.33c-.19-.14,0-.77-.25-.81a1.27,1.27,0,0,0-.25.7s.1.12.11.32l-.1.1a3.38,3.38,0,0,0,.14,1.56l.16-.35.06.27-.14,0c.08.26.13,0,.18-.13a.83.83,0,0,0,.07.31L.64,42c0,.23-.07.45,0,.57.07-.25-.07-.5,0-.67.08.26.05.47.14.25a.47.47,0,0,1,0,.31c.08-.18.21-.08.25-.38.08.32.27-.09.27.46,0-.13.14-.43.21-.45-.13.65.28,0,.24.73.1-.58.36-.26.53-.58,0,0,0,.14,0,.11s.13.22.19.34a2.32,2.32,0,0,1,.25-.89c.12.46-.07.56,0,1,0-.39.22-.39.17-.72a1.37,1.37,0,0,1,.13.54c0-.6.09-.1.16-.47.14.3,0,.56.19.38A.52.52,0,0,1,3.28,42.94Zm3.5-1h0l-.07,0Zm.3,0H7c0-.12,0-.24,0-.24S7,41.79,7.08,41.89Zm-.63-2.4s.06,0,.07.09a.25.25,0,0,0-.08.05.08.08,0,0,1,0,0C6.44,39.6,6.44,39.54,6.45,39.49Z"/><path class="cls-1" d="M6.37,40l0,0,0,.08s0-.07,0-.11Z"/><path class="cls-1" d="M33.07,40.46h0l0,0A.06.06,0,0,1,33.07,40.46Z"/><polygon class="cls-1" points="11.14 42.55 11.14 42.47 11.12 42.54 11.14 42.55"/><path class="cls-1" d="M34.69,41.65a.29.29,0,0,0,0,.09A.29.29,0,0,0,34.69,41.65Z"/><path class="cls-1" d="M35.39,41.73l.1.12A.32.32,0,0,0,35.39,41.73Z"/><path class="cls-1" d="M35.93,41.9a.86.86,0,0,0,0-.15h0Z"/><path class="cls-1" d="M27.36,42.3s0,0,0,0S27.33,42.36,27.36,42.3Z"/><path class="cls-1" d="M29.91,41.5a.6.6,0,0,1-.08.16C29.88,41.69,29.91,41.69,29.91,41.5Z"/><path class="cls-1" d="M24.52,42.72h0Z"/><path class="cls-1" d="M29.71,41.65c.05.07.09.06.12,0S29.75,41.6,29.71,41.65Z"/><path class="cls-1" d="M38.27,42.05l0,0a.13.13,0,0,1,0-.06Z"/><path class="cls-1" d="M38.3,42l0,0S38.3,42,38.3,42Z"/><path class="cls-1" d="M38.39,41.88l-.07.09S38.37,42,38.39,41.88Z"/><path class="cls-1" d="M37.55,41.89v0Z"/><path class="cls-1" d="M37.34,41.93s.13.27.2.19V42C37.51,42.21,37.39,41.72,37.34,41.93Z"/><path class="cls-1" d="M36.43,40.38l.18.1c0-.13-.07-.31,0-.35C36.39,39.74,36.67,40.43,36.43,40.38Z"/><path class="cls-1" d="M35.87,40.19c.1-.07,0-.2,0-.27C35.81,40,35.8,40.07,35.87,40.19Z"/><path class="cls-1" d="M31.8,40.18v-.31C31.73,39.91,31.81,40,31.8,40.18Z"/><polygon class="cls-1" points="31.02 41.81 31.09 42.01 31.13 41.72 31.02 41.81"/><polygon class="cls-1" points="30.56 39.57 30.59 39.52 30.47 39.64 30.56 39.57"/><path class="cls-1" d="M23.73,39.68l0,.39C23.8,40,23.81,39.56,23.73,39.68Z"/><path class="cls-1" d="M20.78,40.08c0-.2-.12-.32-.17-.13C20.68,40,20.74,40.13,20.78,40.08Z"/><polygon class="cls-1" points="11.93 39.45 11.98 39.31 11.87 39.42 11.93 39.45"/><path class="cls-1" d="M38.93,34.67c0-.11,0-.35,0-.3l0,.41Z"/><path class="cls-1" d="M38.55,33.91a2.07,2.07,0,0,0-.1.92c.06-.39.08-.22.15-.69.06,0,.1.13.09.28,0-.1.09.09.12-.17s-.17-.32-.27-.06A.87.87,0,0,1,38.55,33.91Z"/><path class="cls-1" d="M33,33.28l0,0A.11.11,0,0,0,33,33.28Z"/><path class="cls-1" d="M29.61,33.06s0-.05,0-.09S29.6,33,29.61,33.06Z"/><path class="cls-1" d="M29,32.61l0,0S29,32.58,29,32.61Z"/><path class="cls-1" d="M33,33.28l-.09-.13C32.93,33.28,33,33.25,33,33.28Z"/><path class="cls-1" d="M37.79,34.9a.38.38,0,0,0,.05-.11l-.05,0Z"/><path class="cls-1" d="M34.54,33h0c0-.05,0-.1,0-.17Z"/><path class="cls-1" d="M35.69,32.89a3,3,0,0,0,0,.48.56.56,0,0,1,.05-.24A2.27,2.27,0,0,0,35.69,32.89Z"/><path class="cls-1" d="M37.53,33.5l0,0Z"/><path class="cls-1" d="M33.71,32.87s0-.09,0-.12A.45.45,0,0,0,33.71,32.87Z"/><path class="cls-1" d="M1.35,35.47v-.06S1.34,35.47,1.35,35.47Z"/><path class="cls-1" d="M0,33.76v0a1.21,1.21,0,0,0,0-.19Z"/><path class="cls-1" d="M28,32.16h0S28,32.14,28,32.16Z"/><path class="cls-1" d="M18.15,32.42c.11.31-.19.4,0,.74C18.12,33,18.28,32.62,18.15,32.42Z"/><path class="cls-1" d="M37.76,34.85h0S37.74,34.87,37.76,34.85Z"/><path class="cls-1" d="M18.13,33.16h0l0,0Z"/><path class="cls-1" d="M25.49,32.37l0,.15A.64.64,0,0,0,25.49,32.37Z"/><path class="cls-1" d="M27.33,32.86l0,0S27.31,32.86,27.33,32.86Z"/><path class="cls-1" d="M24.54,32.86s0-.07-.07,0a.08.08,0,0,1,0,0S24.51,32.81,24.54,32.86Z"/><path class="cls-1" d="M23.55,32.86a.14.14,0,0,0,0,.07l0,0Z"/><path class="cls-1" d="M4.36,35.31c0-.1,0-.21-.05-.31C4.33,35.24,4.18,35.33,4.36,35.31Z"/><path class="cls-1" d="M37.79,34.7a.51.51,0,0,1,0,.15l0,0Z"/><path class="cls-1" d="M24.5,35.59l-.16-.05A.3.3,0,0,0,24.5,35.59Z"/><path class="cls-1" d="M11.47,35.26l0,0S11.46,35.3,11.47,35.26Z"/><path class="cls-1" d="M23.88,35.59a.86.86,0,0,0-.09-.24.24.24,0,0,0,0,.09Z"/><path class="cls-1" d="M4.31,35h0Z"/><path class="cls-1" d="M3.28,35.81c.15,0,.07-.44.1-.7.18-.13.08.33.14.57.11-.12.2-.54.28-.52a.39.39,0,0,1,0,.19c.11-.36.35,0,.49-.47a.45.45,0,0,1,0,.11c0-.22,0-.46,0-.62.07,0,.13-.29.15,0,0,0,0,.11-.06.2l.07-.13c.06.43-.1.15-.1.47.14-.14.3-.49.41-.37,0,.41-.25.14-.11.51l-.16-.16c.12.66-.1,0,0,.66.22.12.24-.21.46-.09,0-.24,0-.35,0-.58.3-.42.24,1,.46.5.06-.28.08-.81.24-.53l-.05.47c.2.05.11-.68.33-.36,0,.18-.16.16-.13.21.14.37.1-.27.21-.27l0,.42c.22-.06.47-.37.71-.44a.7.7,0,0,0,0,.38c.31-.21.66,0,1,.3l.11-.36s.05.16,0,.23c.12.14,0-.23.07-.37s.08.21,0,.32c.21-.31.58-.66.8-.28l0,.11c.17.15.19-.74.34-.4l0,.06c.37.16.77-.17,1,.37.05-.52.36.24.38-.49.21.36.15.49.45.73.07,0,.11-.45.21-.53v.38l.13-.4.07.46.09-.1a.53.53,0,0,1-.07-.28c.14-.17.35.26.35.46l.34-.32a.75.75,0,0,1-.11.3c.18-.39,0,.4.2,0a1,1,0,0,1,0-.3.25.25,0,0,0,.41.14l0,.26c.25.06.53-.13.81-.12a.74.74,0,0,1,0-.62l0,.4c.06-.25-.08-.15,0-.45.1,0,.07.45,0,.58l.12-.14a2.24,2.24,0,0,1,0,.34c.06-.25.22.4.3,0v.12c.27,0,.4-.14.63-.16,0-.34.09-.27.16-.55.17.11.35.39.55.36s0-.3.11-.5c0,.31.21.28.11.51A1,1,0,0,0,16,35c0-.13-.07-.18-.05-.29s.13.13.12.28l0,0c.35-.47.8.92,1.07.27v0l.28-.34c.13,0-.08.23,0,.43.3-.53.48.07.73-.28.2.93.69-.06,1,.53l0-.22c.07-.21.08.13.13.18,0-.17-.07-.2,0-.32.58-.26,1.19.32,1.78.52.22.06.12-1.13.4-.61l-.08.41c.44-.49.89,0,1.32-.4,0,.09,0,.22-.07.21.09.3.33,0,.34-.22.06,0,0,.22,0,.34s.23-.38.28-.08a.19.19,0,0,1-.05.11c.06-.14.28,0,.22-.3.16.16.31-.15.44.05.08-.38.27.18.3-.36,0,.56.28.45.38.19,0,.17.09.18.05.41.11,0,.22-.11.2-.4.21.67.43-.53.55.32a3.54,3.54,0,0,1,1-.63c0,.55-.34,0-.33.64.29-.23.46-.71.75-.58.08.08,0,.24-.07.34.3-.23.57,0,.83-.25a.28.28,0,0,1-.06.15c.06,0,.12.08.12-.17l-.05.07c-.08-.37.2-.77.21-1-.09.72.26.18.12,1.09a.55.55,0,0,0,.07-.33c.05,0,.06.15,0,.34.19-.14.12-.41.29-.4,0,.12,0,.17-.05.31.08-.24.17-.48.31-.37,0,.07,0,.17,0,.16.24,0,.42-.63.68-.4-.08.53.09.18.1.63l.15-.13-.06-.23c.13,0,.24-.32.34-.17l-.09.19.23-.09-.13-.17c.13-.24,0-.59.15-.46,0,0,.13,0,.19.28h0c.07-.15.13-.3.22-.19s0,.51,0,.61c.06-.38.29-.11.37-.52a1.35,1.35,0,0,0,0,.39l.05-.31a.47.47,0,0,1,.06.34c.17.06-.06-.58.15-.33,0,0,0,.07,0,.12.2.13.4-.2.59,0,.05.46-.17.12-.1.51.27-.09.57-.56.83-.45L32,34.44c0-.65.2.32.33,0a1,1,0,0,0,0,.29c.18.11.37-.16.65-.36l0,.17c.11.15.29.08.4.16,0-.17.1-.14.06-.39.36,1,.69-.51,1,.29,0,0-.09.14-.06.15l.27-.16a1,1,0,0,0-.09-.39c0-.17.11-.3.18-.3-.12.19,0,.45,0,.61a2.53,2.53,0,0,1,0-.27c.14.51,0-.57.21-.23v.15c.07-.08.14-.27.22-.23,0,.33-.08.15-.08.42.11,0,.21-.62.31-.29,0,.09-.11.09-.16.18.11.39.12.29.2.35h0l.19.18,0-.11c.14-.86.28-.15.47-.72-.18.54,0,.31-.05.68A.6.6,0,0,1,36,35c.09-.3.15.23.27-.2,0,.12.09,0,.07.31.11-.1,0-.21,0-.36.18-.41.41.5.67-.07.21-.23.25-.63.45-.83a.64.64,0,0,1,0,.43c.11.18.19.15.29,0a.79.79,0,0,0,0,.33c.09,0,.06-.44.17-.26a4,4,0,0,1-.08.48c.09-.11.19-.33.29-.44a.86.86,0,0,1-.1.45.64.64,0,0,0,.33-.52l-.07-.12s0,.29,0,.35c-.1.26-.14-.12-.14-.24l.07-.08c-.08-.7-.29.12-.44.08l.06-.51-.14.42a.77.77,0,0,1,0-.5c-.1-.25-.09.19-.18-.1a.1.1,0,0,1,0-.08l-.1.15c0-.11,0-.36,0-.29-.18-.29-.29.38-.36,0v0c-.25.17,0,.37-.21.81l-.13-.93,0,.38s-.08,0-.07-.19c-.1.26,0,.16,0,.4-.12-.34-.34.16-.37-.43-.05.28.12.22,0,.42,0-.65-.15.11-.27-.19,0-.33.15-.16,0-.45-.07.56-.22-.13-.32,0,0,.45-.21.19-.37.34,0-.15-.3-.25-.45-.41V33c0,.46-.18.37-.3.47a1.07,1.07,0,0,1,.09-.5h-.11a.4.4,0,0,1-.12.27l0-.34c-.14,0-.28.4-.46.18,0,.31.14.87,0,1.08a1.42,1.42,0,0,1,0-.53s-.06.14-.09.07l.08-.29c-.08-.12,0,.24-.11.22,0-.25,0-.18,0-.37,0,0,.06.1.08,0a.61.61,0,0,1-.19-.38c0,.14,0,.33-.06.36s0-.29-.13-.41c0,.16-.12,0-.13.35,0,0,0-.17-.06-.27-.07.16-.34.05-.26.44l0,0s0,0,0,0h0c-.24.36-.5-.21-.74-.05v-.12c-.14.13-.32.08-.42.34,0,0-.1-.22-.08-.37-.11.09-.12.23-.28,0,.11-.21,0-.19.11-.16-.14-.1-.17-.3-.32,0,0-.31-.11-.39-.17-.3l.09.22a.18.18,0,0,1-.2,0l0-.41c-.29-.5-.52.85-.74,0-.08.28.16.2.09.53-.13,0-.27-.64-.31-.64-.19-.23-.17.6-.37.44,0,.15.05.54-.09.68-.13-.06-.16-.62-.08-.73s0,0,0,.08a.23.23,0,0,0,0-.27v.14c-.07-.15-.25-.13-.21-.37a.21.21,0,0,0,0,.31c-.17-.21-.27,0-.44-.14,0,.08.05.25,0,.25-.25-.19-.11.27-.28.34-.1-.23,0-.53-.14-.35a.55.55,0,0,1,0-.5c-.16.28-.3-.19-.4-.24l.09-.12a.13.13,0,0,1-.13.07l0,.29c-.05-.05-.09-.05-.09-.17-.05.19,0,.48-.06.74-.07-.14-.2.16-.22-.22.2.13,0-.39.15-.46,0,0-.08,0-.13,0a.18.18,0,0,1,0-.11c-.2-.34-.1.44-.3.43,0-.21-.05-.41-.08-.36s0,.36,0,.53c-.13-.17-.14.12-.21.1l.08.08c0,.22-.1.19-.19.26,0-.17.09-.11.05-.19-.1.38-.23-.4-.37-.14-.07-.15,0-.41-.07-.51-.16.28-.17-.3-.34-.06.05.29.06.22-.06.5l.28-.2-.18.42c.08,0,.18-.18.23-.13-.09.24-.08.17,0,.41-.11-.44-.23.26-.36,0v-.73c-.2-.32-.36.38-.61.19l.08.13c0,.29-.16,0-.24.16a1.46,1.46,0,0,0-.08-.49c0,.18-.19,0-.21.47l-.12-.32c-.21-.13-.24.69-.43.61.06-.26,0-.43.1-.62-.07,0-.13,0-.13.12,0-.15-.18.33-.25.09,0,.11,0,.37-.11.35a.44.44,0,0,1,0-.12c0,.12-.11.16-.05.43-.2-.76-.57,0-.75-.6a1.56,1.56,0,0,1-.46.18c0-.07,0-.12,0-.1-.18-.22-.11.7-.32.45s.11-.21.05-.36c0-.8-.26.11-.39-.36l0-.05c-.11-.27-.26.31-.44.25a1.05,1.05,0,0,0,0-.12,1,1,0,0,1-.52.65c.06-.31.08-.16.05-.48-.08,0,0,.51-.13.6a1.87,1.87,0,0,1-.17-.66l.14,0c-.07-.44-.18,0-.26-.06v-.19c-.22.06-.22.54-.45.51l0,.14c-.12.48-.1-.26-.23.09l0-.48a2.52,2.52,0,0,1-.44.56,2.56,2.56,0,0,1,.37-.76.3.3,0,0,0-.33.27s.08-.16.11-.09c-.1.38-.24.57-.4.56,0-.94-.44-.23-.56-1-.29.35-.58-.14-.92-.09.12.73-.1,0-.08.78-.08,0-.11,0-.12,0l-.24-.45c-.06-.22.08-.16.07-.33-.18-.06-.07-.32-.19-.52,0,.27-.06.39-.16.28l.14.35c-.24.4-.21-.63-.46-.24l.08-.23c-.12.14-.46,0-.59.6,0-.09-.05-.3,0-.35-.3-.09-.67.64-.91.27l0-.18c-.05,0-.09.34-.16.16s0-.19,0-.2-.15.33-.22.22l.06-.21c-.29-.24-.45.51-.7.63a.84.84,0,0,0-.34-.8v-.08c-.34-.07-.58.45-.9.66-.19-.59-.66-.25-1-.57a.74.74,0,0,1-.06.47c-.08-.11-.21.38-.2-.12h0c-.06-.49-.21-.36-.33-.37l0,.65c-.31-1-.81.35-1-.5-.08.16-.17.16-.25.32v-.35a.7.7,0,0,0-.57-.05l.05-.24c-.14,0-.18,1-.32,1l0-.52c-.25,0-.51-.45-.76,0,0-.07,0-.22.06-.24-.12,0-.47-.36-.42.36,0-.47-.26-.05-.4.16l0-.35c-.11.44-.12.56-.28.68,0,0,0-.27,0-.18-.13-.18-.1.32-.26.14L8,32.86c-.13,0-.12.09-.19.35s-.25-.09-.27-.4c0,.19-.09.44-.17.35a.37.37,0,0,1,0-.22c-.22-.24-.33.4-.48.06a.48.48,0,0,0,0-.21c.18,0,.32,0,.31.06,0-.32-.15-.38,0-.81-.12.24-.31.75-.45.61s0-.06,0-.11v0s-.06,0-.09,0-.07-.09-.11-.09c0-.26-.16-.14-.23-.16,0,.35-.09.29,0,.58,0,0,0,0,.06-.06s0,0,0,0v0l.18,0c-.06.18-.12.33-.19.14,0,.22-.08.45-.1.55-.1-.48-.28-.74-.31-1-.21.2-.5.13-.64.78-.06.09-.07-.18-.09-.29s.08,0,.1-.15c-.12.17-.36.07-.39.52-.16-.2.08-.41-.13-.34l0-.14c-.41-.72-.67,1.16-1.13.23a.28.28,0,0,1,0,.16c-.52-.41-1.08.38-1.6-.27-.14-.13-.16.16-.25.38l0-.37-.15.43c-.22.31-.38-.91-.65-.32l0,.25c-.1-.05-.31.15-.3-.14,0,0,0,.26-.07.13v-.19l-.24.33c-.19-.14,0-.77-.25-.81a1.21,1.21,0,0,0-.25.7s.1.12.11.31l-.1.1A3.36,3.36,0,0,0,.16,35.3L.32,35l.06.28-.14,0c.08.26.13,0,.18-.13a.72.72,0,0,0,.07.3l.15-.54c0,.22-.07.44,0,.57.07-.26-.07-.51,0-.67.08.26.05.47.14.25a.44.44,0,0,1,0,.3c.08-.17.21-.07.25-.38.08.33.27-.08.27.46A.94.94,0,0,1,1.56,35c-.13.65.28,0,.24.74.1-.59.36-.26.53-.58,0,0,0,.14,0,.11s.13.22.19.33a2.44,2.44,0,0,1,.25-.89c.12.47-.07.57,0,1,0-.39.22-.39.17-.71a1.37,1.37,0,0,1,.13.54c0-.61.09-.1.16-.48.14.3,0,.57.19.39A.51.51,0,0,1,3.28,35.81Zm3.5-1h0l-.07,0Zm.3,0a.3.3,0,0,0-.13,0c0-.12,0-.24,0-.23S7,34.67,7.08,34.77Zm-.63-2.4s.06,0,.07.09l-.08,0a.06.06,0,0,1,0,0C6.44,32.48,6.44,32.42,6.45,32.37Z"/><path class="cls-1" d="M6.37,32.82s0,0,0,0l0,.08s0-.08,0-.11Z"/><path class="cls-1" d="M33.07,33.34h0s0,0,0,.05A.08.08,0,0,1,33.07,33.34Z"/><polygon class="cls-1" points="11.14 35.43 11.14 35.34 11.12 35.42 11.14 35.43"/><path class="cls-1" d="M34.69,34.52a.29.29,0,0,0,0,.09A.51.51,0,0,0,34.69,34.52Z"/><path class="cls-1" d="M35.39,34.6l.1.12A.32.32,0,0,0,35.39,34.6Z"/><path class="cls-1" d="M35.93,34.77a.81.81,0,0,0,0-.15h0Z"/><path class="cls-1" d="M27.36,35.18h0C27.3,35.26,27.33,35.23,27.36,35.18Z"/><path class="cls-1" d="M29.91,34.37a.6.6,0,0,1-.08.16C29.88,34.56,29.91,34.57,29.91,34.37Z"/><path class="cls-1" d="M24.52,35.59Z"/><path class="cls-1" d="M29.71,34.53c.05.07.09,0,.12,0S29.75,34.48,29.71,34.53Z"/><path class="cls-1" d="M38.27,34.93h0a.07.07,0,0,1,0,0Z"/><path class="cls-1" d="M38.3,34.89l0,0S38.3,34.85,38.3,34.89Z"/><path class="cls-1" d="M38.39,34.76l-.07.09S38.37,34.86,38.39,34.76Z"/><path class="cls-1" d="M37.55,34.77v0Z"/><path class="cls-1" d="M37.34,34.81s.13.26.2.18v-.1C37.51,35.08,37.39,34.59,37.34,34.81Z"/><path class="cls-1" d="M36.43,33.26l.18.1c0-.14-.07-.32,0-.35C36.39,32.61,36.67,33.31,36.43,33.26Z"/><path class="cls-1" d="M35.87,33.06c.1-.06,0-.19,0-.27C35.81,32.91,35.8,32.94,35.87,33.06Z"/><path class="cls-1" d="M31.8,33.06v-.31C31.73,32.79,31.81,32.87,31.8,33.06Z"/><polygon class="cls-1" points="31.02 34.69 31.09 34.88 31.13 34.59 31.02 34.69"/><polygon class="cls-1" points="30.56 32.45 30.59 32.4 30.47 32.51 30.56 32.45"/><path class="cls-1" d="M23.73,32.56l0,.38C23.8,32.87,23.81,32.44,23.73,32.56Z"/><path class="cls-1" d="M20.78,33c0-.19-.12-.32-.17-.13C20.68,32.85,20.74,33,20.78,33Z"/><polygon class="cls-1" points="11.93 32.32 11.98 32.19 11.87 32.3 11.93 32.32"/><path class="cls-1" d="M54.34,20.1c.09.08.29,0,.23-.18l-.34-.15Z"/><path class="cls-1" d="M54.87,18.61c-.17-.25-.51-.5-.78-.3.36.2.21.28.61.52,0,.22-.09.39-.21.36.09.07-.05.34.16.45a.84.84,0,0,0,0-1C54.71,18.52,54.8,18.59,54.87,18.61Z"/><path class="cls-1" d="M41.05,3.09l.13.08A.29.29,0,0,0,41.05,3.09Z"/><path class="cls-1" d="M27.38,3.28c.1,0,.13-.08.13-.11S27.35,3.26,27.38,3.28Z"/><path class="cls-1" d="M25,3.81l.15,0C25.09,3.77,25,3.77,25,3.81Z"/><path class="cls-1" d="M41.05,3.09a2.17,2.17,0,0,0-.33-.19C40.67,3,40.89,3,41.05,3.09Z"/><path class="cls-1" d="M53.5,15.91a.5.5,0,0,0,.14.15l-.09-.16Z"/><path class="cls-1" d="M46.78,5.25l.1.06L47,5.25Z"/><path class="cls-1" d="M50.56,8.12c-.07-.08-.29.09-.41.15a.37.37,0,0,1,.3,0A.38.38,0,0,0,50.56,8.12Z"/><path class="cls-1" d="M54.26,14.58l.09.11Z"/><path class="cls-1" d="M43.77,3.68a.2.2,0,0,0,0-.11A.2.2,0,0,0,43.77,3.68Z"/><path class="cls-1" d="M52.84,60.85h0S52.86,60.82,52.84,60.85Z"/><path class="cls-1" d="M55.08,56.09v.08h.16Z"/><path class="cls-1" d="M21,5.75h0C21.07,5.64,21,5.69,21,5.75Z"/><path class="cls-1" d="M13.49,43.33c.25-.44.33.71.61.05C14,43.44,13.66,42.78,13.49,43.33Z"/><path class="cls-1" d="M53.5,15.79a1.09,1.09,0,0,1,0-.17A.49.49,0,0,0,53.5,15.79Z"/><path class="cls-1" d="M14.1,43.38h0l0-.07Z"/><path class="cls-1" d="M14.68,13.93a.3.3,0,0,0,.16,0A.29.29,0,0,0,14.68,13.93Z"/><path class="cls-1" d="M19.33,7.88l-.16.1Z"/><path class="cls-1" d="M14,17.9a.45.45,0,0,0-.07.27l0,0A.22.22,0,0,1,14,17.9Z"/><path class="cls-1" d="M13.85,21.93s0-.05.06-.07v-.13Z"/><path class="cls-1" d="M45.91,69.23a.74.74,0,0,1,.27.12C46,69.21,46.45,68.86,45.91,69.23Z"/><path class="cls-1" d="M53.65,15.86a.16.16,0,0,1-.15-.07l0,.11A.11.11,0,0,0,53.65,15.86Z"/><path class="cls-1" d="M16.19,18.35a3.44,3.44,0,0,0-.09.56C16.14,18.75,16.14,18.55,16.19,18.35Z"/><path class="cls-1" d="M21,67.26l.12.06A.17.17,0,0,0,21,67.26Z"/><path class="cls-1" d="M16.07,20.64a.81.81,0,0,0-.19.35.16.16,0,0,0,.07.07Z"/><path class="cls-1" d="M46.19,69.35h0Z"/><path class="cls-1" d="M48.8,66.47c-.4.37.06.44.12.67-.42.54-.41,0-.7,0-.24.34-.29.79-.54,1,0,0-.12,0-.11-.11a1.69,1.69,0,0,1-.6.67,1.73,1.73,0,0,0-.68.69.13.13,0,0,1-.1,0,1,1,0,0,1,.34.39c-.22.14-.29.46-.5.31.14-.08.1-.17.12-.28L46,70c-.38-.17.25-.31.11-.52a3.42,3.42,0,0,1-1.19,1c-.23-.26.78-.54.16-.55l.61-.18c-.68-.24.35-.14-.32-.43-.74.28-.7.56-1.45.84-.09.24.17.23.08.47-.94.76-1.16-.44-1.76.3-.13.28-.07.71-.73.68l.08-.43c-.75.19-.26.67-1.13.65.11-.16.56-.3.44-.31-.59-.12-.31.32-.71.41L40,71.64c-.4.12-.81.29-1.24.46a11.45,11.45,0,0,1-1.34.36c0-.1.19-.23,0-.3a5.17,5.17,0,0,1-1.81.14A7.79,7.79,0,0,1,33.8,72l-.44.28c-.1,0-.17-.14-.06-.2-.43-.13,0,.19-.26.29s-.31-.19-.15-.26a4.57,4.57,0,0,1-3-.26l.18,0c-.59-.27-.86.45-1.36,0h.13c-1.29-.51-2.84-.82-3.58-1.7-.37.27-1.11-.78-1.47-.34-.51-.68-.27-.64-1.07-1.4-.21-.2-.56,0-.88-.15L22,68l-.59,0,0-.44a2.91,2.91,0,0,1-.3-.17c.08.11.11.31,0,.36-.48-.27-.79-1.05-.69-1.17a10.64,10.64,0,0,1-1-.73c.11-.06.28.07.44.14-.66-.29.17-.31-.44-.57,0,.1-.17.08-.23.11a3.51,3.51,0,0,0-.81-1.26l.23,0c-.12-.19-.26-.37-.39-.57L17.9,63a6.2,6.2,0,0,1-.73-1.31c0,.37-.32.45-.47.18L17,61.6c-.26-.1,0,.34-.37.07-.12-.38.24-.38.42-.22l-.28-.39c.08-.06.17,0,.29,0-.28-.1.06-.85-.35-1l.08,0a20.22,20.22,0,0,1-.61-2.19c-.29,0-.25-.31-.49-.54,0-.63.22-1.3.22-2.12-.14-.56-.24-.17-.41-.42.26,0,.23-.84.42-.42a14,14,0,0,0-.26-2.44c-.11.14-.15.28-.24.21s.11-.5.23-.47l0,.06c-.39-1.36.74-3.14.21-4.22l0,.06-.28-1.13c0-.51.19.31.35-.07-.43-1.21.06-1.91-.22-2.91.75-.77-.06-2.74.43-3.78L16,39.7c-.18-.27.1-.33.14-.52-.14,0-.16.29-.26.12a45.52,45.52,0,0,1,.42-7c.05-.85-.92-.48-.49-1.56l.33.31c-.4-1.73,0-3.53-.32-5.22.07.1.17.1.17.27.24-.36,0-1.32-.18-1.33,0-.26.17-.06.27-.22.14-.36-.3-.9-.06-1.09,0,0,.07.1.09.16-.11-.23,0-1.08-.25-.86.14-.63-.12-1.21.05-1.72-.32-.33.14-1.08-.28-1.17.46,0,.43-1,.24-1.4.12.14.2-.3.36-.13.07-.41.05-.8-.19-.77.62-.65,0-1.64.75-1.87a13.06,13.06,0,0,1,.39-1.8c.21-.56.44-1.11.68-1.64.36.27-.58,1.14-.14,1.32a6,6,0,0,1,1.11-2.59c.22-.18.05.24.07.37a26.6,26.6,0,0,1,1.93-2.4s0,.14-.07.23c.13-.14.37-.25.22-.39l-.1.17c-.43,0,.14-1,.1-1.13.11.66.87-.5.92.41.07-.11.14-.28,0-.37.17-.09.27-.06.21.18.48-.51.14-.56.68-.9.05.09,0,.19,0,.32a1.59,1.59,0,0,1,.82-.89c0,.07.1.1,0,.19.37-.28.66-.56,1-.84a2.71,2.71,0,0,1,1.16-.68c-.1.51.38,0,.58.32l.45-.31-.27-.08c.44-.17.74-.61,1.18-.6l-.29.25.83-.34-.53,0c.41-.33-.2-.43.46-.53-.12.08.47-.14.77,0h0a1.06,1.06,0,0,1,.79-.34c.12.1,0,.42.1.48.16-.34,1.07-.35,1.32-.7a.29.29,0,0,0,0,.32l.15-.27c.24,0,.28.08.26.24.68,0-.28-.44.55-.34-.06,0,0,.06-.15.12a15.32,15.32,0,0,1,2.28-.23c.23.37-.64.12-.38.43A12.18,12.18,0,0,1,37,3.34l-.19-.06c.19-.52.73.36,1.28.18-.14,0-.21.27-.17.21a21.36,21.36,0,0,0,2.52.18l-.17.1c.38.18,1,.36,1.44.55.17-.09.41,0,.32-.22a3.22,3.22,0,0,0,1.8.86A2.41,2.41,0,0,1,45.44,6c-.13-.06-.36,0-.26,0a7.45,7.45,0,0,1,1,.4c0-.24,0-.19-.13-.46a1,1,0,0,1,.71.17c-.49-.13-.19.31-.1.53,0-.08.11-.11.14-.18.23.64.33-.33.82.31l-.11.08a2.36,2.36,0,0,1,.79.36c-.07.29-.32-.08-.46.08.33.25,1,.13,1.11.57-.19,0-.4-.21-.58-.27.13.51.22.46.42.7l0,0,.42.59-.07-.19c.85-.13.89.62,1.67.87-.78-.24-.26.08-.52.24.06.19.16.46.05.46.4.09.22.52.78.67-.07.07.19.29,0,.38.3.3.07-.19.19-.23.33.17.47.55.65.95a2.28,2.28,0,0,0,.74,1.14c.59.62.88.66,1.36,1.33,0,.3-.41-.07-.41-.07a2.3,2.3,0,0,0,.39,1.07c-.1,0-.15.05-.22.2.12.29.4.1.38.54a1.45,1.45,0,0,1-.46-.19,8.45,8.45,0,0,1,.63,1c-.15.13-.3-.18-.43-.29.15.41.35,1.06.64,1.16l0-.29c0,.15-.21.11-.28,0a.36.36,0,0,1,.09-.59l.11.26c.25-.19.19-.48,0-.76a3.42,3.42,0,0,1-.49-.85l.46.11L54,15.36c.06-.15.26-.31.4-.06.07-.46-.23-.3-.16-.71,0-.05,0,0,.07,0L54,14.25c.11,0,.24-.17.28.08-.07-.77-.72-1-.59-1.34l.06,0c-.62-.82-.33.05-1-.43.13-.27.27-.54.4-.82l-.31.07c0-.1-.14-.29,0-.32-.4-.2-.08.13-.37.05-.06-.57-.9-1-.58-1.43-.28,0,.14.5-.3.17.31-.45-.47-.41-.59-.91.3-.07.48.36.36-.16-.53.1-.52-.75-.89-1-.27.26-.71-.48-1.28-.82.1-.06-.84-.92-1.27-1.39L48,6c-.32.24-.8-.16-1.23-.34.13-.18.25-.21.51-.15l-.36-.24a.77.77,0,0,1-.56-.09L46.55,5c-.52-.27-1.18-.26-1.75-.77-.15.22.2.9-.55.72,0-.13.11-.36.31-.33-.06,0-.26,0-.36-.09l.38-.1c-.26-.22-.24.11-.48,0,.09-.18-.12-.2,0-.33s.18.16.31.13a1.41,1.41,0,0,1-.62-.58.22.22,0,0,1-.31.18c-.54-.2-.1-.29-.38-.52-.17.07-.48-.16-.59.11-.16-.05-.14-.19-.18-.29-.33,0-1.34-.38-1.11,0l.07,0h-.05a4.37,4.37,0,0,1-1.46-.3,3.71,3.71,0,0,0-1.44-.35l0-.1a6.12,6.12,0,0,0-1.7.08c-.17,0-.39-.19-.31-.31a1.75,1.75,0,0,1-1.13,0c.45-.16-.15-.16.46-.11-.57-.1-.7-.3-1.32,0,.21-.26-.44-.3-.71-.21l.41.16a4.12,4.12,0,0,1-.85,0l.12-.34A2.26,2.26,0,0,0,31.7,2a1.65,1.65,0,0,1-1.42.12c-.27.29.66,0,.43.35-.53.07-1.19-.27-1.36-.24-.79,0-.57.61-1.34.73.13.08.3.36-.21.64-.52.11-.79-.28-.49-.47.12-.05.19,0,.2,0s.36-.21.12-.27l0,.13c-.29,0-1,.21-.91,0-.35.26-.1.23.21.2a14,14,0,0,0-1.73.57c.13,0,.28.11.18.15-1,.28-.33.4-.94.76-.45,0-.07-.46-.64,0-.45.1-.24-.23-.12-.4-.49.49-1.17.49-1.52.67l.25-.28a1.72,1.72,0,0,1-.45.35l.3.09c-.19.08-.34.18-.4.09-.09.25.36.24.13.65-.31,0-.6.57-.86.38.74-.44-.27-.2.29-.68a1.31,1.31,0,0,1-.42.31c-.05,0,0-.07,0-.12-.84.3-.09.52-.77,1,0-.21-.38-.14-.46,0,.28-.21.31.12.16.43-.49.27-.36.48-.58.67l.28-.18c0,.21-.17.37-.4.67-.12-.07.18-.3,0-.25,0,.25-.27.35-.52.47a1.23,1.23,0,0,0-.62.57c-.27.13-.27-.2-.49-.07-.26.65-.67.4-.93,1.1.31,0,.28-.08.19.45.18-.33.34-.7.54-1a7.25,7.25,0,0,0-.16.81c.19-.29.3-.69.48-.81-.08.39-.1.32.16.32-.59.13-.37.87-.88,1.16l-.48-.35a1.7,1.7,0,0,0-.61,1A3.78,3.78,0,0,1,15.38,13c.07-.09.17-.17.25-.26.13.22-.25.61-.3,1-.17-.11-.32.06-.49.15.15,0-.34.73,0,1l-.38.38c-.34.81.22,1.08,0,1.87-.17-.29-.37.06-.42-.53-.05.28-.13.52,0,.55-.15.14.13.8-.1,1,.06.12.27.18.24.49,0,0-.1,0-.1,0s.1.49.34.24a2.24,2.24,0,0,0-.35,1.55,2.4,2.4,0,0,1-.21,1.45c.07.57.13,1.27.14,1.79-.05,0-.09,0-.07-.1-.19.72.56.44.36,1.27-.32.41-.17-.44-.29-.18-.65.11.08,1-.3,1.54l0-.13c-.22.42.24,1,.2,1.72a.11.11,0,0,0-.1,0,5.23,5.23,0,0,1,.53,2c-.25-.21-.13-.31-.39-.18,0,.3.41-.09.49.51-.14.19-.27.62-.54.68l0-.56c-.35.28,0,.72-.05,1l-.15,0c.05.86.44.87.41,1.79l.12-.09c.39.5-.22.42.07.92L13.9,34a13.2,13.2,0,0,1,.45,1.77,5.84,5.84,0,0,1-.61-1.47c0,.33,0,1.12.22,1.29,0-.13-.13-.3-.07-.43a2.48,2.48,0,0,1,.45,1.59c-.76-.11-.19,1.72-.78,2.19.28,1.17-.13,2.31-.08,3.66.6-.48,0,.4.63.32,0,.31,0,.43,0,.46l-.37,1c-.18.22-.13-.3-.27-.27-.05.69-.26.28-.42.74.22-.09.31.24.23.64l.28-.56c.33,1-.51.84-.19,1.81l-.19-.31c.11.5,0,1.84.48,2.33-.07.09-.23.21-.28,0-.07,1.19.53,2.65.22,3.58l-.15-.09c.05.22.28.39.13.67-.06,0-.15-.09-.15,0a1.61,1.61,0,0,1,.17.89l-.17-.25c-.19,1.16.4,1.77.53,2.77-.45,0-.53,1-.57,1.5h-.06a6.43,6.43,0,0,0,.49,1.92c.25.57.59,1.08.85,1.69a4,4,0,0,0,.43,1.86c.34.7.74,1.43,1,2.07,0-.21.31-.16.48,0s.74.52.39.72l-.06-.1a.75.75,0,0,0,.11.67c.14.21.35.41.51.61L18,67a2.32,2.32,0,0,0,.5,1,8.5,8.5,0,0,0,.91.78c.6.5,1.24.81,1.3,1.32.34.08.63.34,1,.39l-.17.22a8.07,8.07,0,0,0,2,1.28l-.29.08c.54.3,1.06-.37,1.55-.13l0,.46c1,.39,1.83,1.19,3,1.1a.24.24,0,0,1-.27.13c.23.08.67.29,1.06.41s.71.08.69-.22c-.08.36,1,.28,1.63.21l-.13.26a1.84,1.84,0,0,1,1.22-.39c.15,0,.11.23-.09.14.5.2.43-.2,1,0l-.25.15c.53.07.5,0,.8-.23s1,.11,1.08.37a.69.69,0,0,1,.68-.29c0,.09-.07.16-.13.19.91.15,1.31-.38,1.94-.14a.23.23,0,0,0,.12.16,8.29,8.29,0,0,1-1.23,0c0,.25.59.27.14.65a4.92,4.92,0,0,1,1.8-.65.6.6,0,0,1,.08.08l0,0a.59.59,0,0,0,.35-.09,2,2,0,0,0,.48,0c.1.21.68,0,1,0-.08-.27.3-.31-.09-.46,0,0-.05,0-.23.1l-.12,0,0,0a6.62,6.62,0,0,1-.71.13.81.81,0,0,1,.76-.23c.11-.21.23-.42.3-.53.45.3,1.24.34,1.41.55.81-.4,2-.68,2.3-1.41.2-.15.32,0,.43.08-.11.1-.27.16-.31.26.41-.32,1.35-.61,1.3-1,.62-.14-.17.47.57,0l-.06.15a2.89,2.89,0,0,0,1.89-1.24,5.43,5.43,0,0,1,.8-.79A2.77,2.77,0,0,1,49,69.28c-.13,0-.2.07-.26,0a5.42,5.42,0,0,0,1.3-1,9.86,9.86,0,0,0,1.11-1.22,26.53,26.53,0,0,1,2.12-2.49c.38-.48.21-.66.23-1.06l.33,0a4.21,4.21,0,0,0,0-.71c.1-.9,1.34-1.13,1.18-2.4l-.24.08c.17-.38.24-1.25.43-1.14,0,0-.19-.18-.06-.31l.16,0-.09-1c.2-.75.63.2.74-.95,0-.44-.39-1.22-.51-1.06s-.12.42-.28.43l-.06-.37c-.46-.08-.92-.32-1.3.5l.25.61-.24.17,0-.49c-.23.26,0,.45.06.66a.49.49,0,0,0-.27.22l.34.63c-.19,0-.31-.31-.48.05.16.3.45-.19.5.28-.26.24-.41.12-.29.49-.12,0-.19-.07-.22-.21.12.33-.14.76.06,1-.33.2-.22,1-.63.8a1.6,1.6,0,0,1,0,.86c-.3-.66-.42.93-.89.55.22.52-.41,1.26-.59,1.92,0,0,0-.15,0-.18a2.36,2.36,0,0,1-.63.42c.28.25,0,.8,0,1.18-.59.1-.17-.5-.55-.62.26.18-.26.79,0,.85-.41.1-.29.15-.64.06.31.37-.13.31-.13.71-.54.18-.42-.24-.71.25C48.57,66.92,48.8,66.47,48.8,66.47ZM37.44,72.56h0l.27,0Zm-1.12.11h.49a.12.12,0,0,1-.1.19C36.76,72.78,36.49,72.74,36.32,72.67ZM39,74.32c-.18.06-.26,0-.29,0l.33-.07v0A.38.38,0,0,1,39,74.32Z"/><path class="cls-1" d="M39.3,73.89s0,0,.07,0l-.12,0,0,.1Z"/><path class="cls-1" d="M41.2,3.18h0a.1.1,0,0,1,0,.05Z"/><polygon class="cls-1" points="22.06 67.93 22.02 67.98 22.13 67.99 22.06 67.93"/><path class="cls-1" d="M46.62,6.67a.3.3,0,0,0,0,.11S46.64,6.72,46.62,6.67Z"/><path class="cls-1" d="M48.75,8.32l.21.34A2.09,2.09,0,0,0,48.75,8.32Z"/><path class="cls-1" d="M50.11,9.86a.27.27,0,0,0,.12,0h0Z"/><path class="cls-1" d="M20.73,9.14l-.05.06C20.59,9.37,20.66,9.27,20.73,9.14Z"/><path class="cls-1" d="M28.85,3.94a1.78,1.78,0,0,1-.26.22C28.76,4.13,28.89,4.09,28.85,3.94Z"/><polygon class="cls-1" points="16.21 18.29 16.2 18.29 16.19 18.35 16.21 18.29"/><path class="cls-1" d="M28.15,4.29a.7.7,0,0,0,.44-.13A1.39,1.39,0,0,0,28.15,4.29Z"/><path class="cls-1" d="M53.89,17.65v.1h0Z"/><path class="cls-1" d="M53.94,17.75l.06.11C54,17.81,54,17.76,53.94,17.75Z"/><path class="cls-1" d="M54.11,18.07,54,17.86C54,17.93,54,18,54.11,18.07Z"/><path class="cls-1" d="M53.33,15h-.1A.19.19,0,0,0,53.33,15Z"/><path class="cls-1" d="M53,14.3c0,.19,0,.53.15.75h.09C53,15,53.22,14.41,53,14.3Z"/><path class="cls-1" d="M52.31,10.61l.36.65c0-.17,0-.39.25-.13C52.65,10.18,52.83,11.43,52.31,10.61Z"/><path class="cls-1" d="M51,8.73c.3.27.11-.11.17-.14C50.9,8.47,50.84,8.44,51,8.73Z"/><path class="cls-1" d="M36.17,2.14l0-.26C35.91,1.91,36.22,2,36.17,2.14Z"/><polygon class="cls-1" points="33.11 3.48 33.4 3.62 33.52 3.38 33.11 3.48"/><polygon class="cls-1" points="31.08 1.88 31.21 1.83 30.7 1.99 31.08 1.88"/><path class="cls-1" d="M13.61,21.23l.31-.09C13.86,20.94,13.51,20.9,13.61,21.23Z"/><path class="cls-1" d="M13.93,32.92a.51.51,0,0,0-.11.65C13.84,33.31,14,33.05,13.93,32.92Z"/><polygon class="cls-1" points="18.08 67.68 17.83 67.56 18.21 67.86 18.08 67.68"/><polygon class="cls-2" points="61.94 25.23 61.7 25.11 61.46 25.23 61.3 24.92 60.14 24.35 61.7 21.16 63.25 24.35 62.09 24.92 61.94 25.23"/><path class="cls-2" d="M69.62,42,68.26,39.2l1.8-.88,1.36,2.79ZM66.9,36.4l-1.36-2.79,1.8-.88,1.36,2.8Zm-2.72-5.58L62.82,28l1.79-.87L66,29.94Z"/><polygon class="cls-2" points="73.88 46.9 71.87 46.6 70.98 44.78 72.78 43.91 73.21 44.78 74.17 44.92 73.88 46.9"/><path class="cls-2" d="M92.12,49.58l-3-.44.29-2,3,.45ZM86,48.69l-3-.45.29-2,3,.45ZM80,47.79l-3-.44.29-2,3,.45Z"/><polygon class="cls-2" points="96.42 51.02 95.49 50.08 95.16 50.03 95.19 49.78 95.02 49.6 95.25 49.37 95.45 48.05 98.92 48.56 96.42 51.02"/><path class="cls-2" d="M83.21,64.06l-1.4-1.42L84,60.47l1.41,1.42Zm4.41-4.34-1.41-1.43,2.2-2.17,1.41,1.43ZM92,55.37,90.61,54l2.21-2.17,1.4,1.42Z"/><polygon class="cls-2" points="78.51 68.22 78.17 66.23 79.61 64.81 81.01 66.24 80.31 66.92 80.48 67.89 78.51 68.22"/><path class="cls-2" d="M81.63,86.65l-.52-3.07,2-.33.52,3.07Zm-1-6.14-.52-3.07,2-.34.52,3.08Zm-1-6.14L79,71.3,81,71,81.52,74Z"/><polygon class="cls-2" points="84.71 92.87 81.59 91.21 82.2 90.06 82.15 89.72 82.41 89.68 82.53 89.45 82.83 89.61 84.12 89.39 84.71 92.87"/><path class="cls-2" d="M78.87,89.76l-2.72-1.44.94-1.77L79.81,88Zm-5.44-2.89-2.72-1.45.94-1.77,2.72,1.45ZM68,84l-2.72-1.45.94-1.76,2.72,1.45Z"/><polygon class="cls-2" points="60.84 81.08 59.9 79.31 61.7 78.36 63.49 79.31 62.55 81.08 61.7 80.62 60.84 81.08"/><path class="cls-2" d="M44.52,89.76,43.58,88l2.72-1.45.94,1.77ZM50,86.87,49,85.1l2.72-1.45.94,1.77ZM55.4,84l-.94-1.76,2.72-1.45.94,1.76Z"/><polygon class="cls-2" points="38.69 92.87 39.27 89.39 40.56 89.61 40.86 89.45 40.99 89.68 41.25 89.72 41.19 90.06 41.8 91.21 38.69 92.87"/><path class="cls-2" d="M41.77,86.65l-2-.33.52-3.07,2,.33Zm1-6.14-2-.33.52-3.08,2,.34Zm1-6.14-2-.34L42.4,71l2,.34Z"/><polygon class="cls-2" points="44.89 68.22 42.92 67.89 43.08 66.92 42.38 66.24 43.79 64.81 45.23 66.23 44.89 68.22"/><path class="cls-2" d="M40.18,64.06,38,61.89l1.4-1.42,2.21,2.17Zm-4.4-4.34-2.2-2.17L35,56.12l2.2,2.17Zm-4.4-4.35L29.17,53.2l1.41-1.42L32.78,54Z"/><polygon class="cls-2" points="26.97 51.02 24.48 48.56 27.95 48.05 28.14 49.37 28.38 49.6 28.2 49.78 28.24 50.03 27.91 50.08 26.97 51.02"/><path class="cls-2" d="M31.28,49.58l-.29-2,3-.45.29,2Zm6.08-.89-.29-2,3-.45.29,2Zm6.08-.9-.29-2,3-.45.3,2Z"/><polygon class="cls-2" points="49.52 46.9 49.22 44.92 50.19 44.78 50.61 43.91 52.41 44.78 51.52 46.6 49.52 46.9"/><path class="cls-2" d="M53.77,42,52,41.11l1.36-2.79,1.8.88Zm2.72-5.59-1.79-.87,1.36-2.8,1.8.88Zm2.73-5.58-1.8-.88,1.36-2.79,1.8.87Z"/><polygon class="cls-2" points="92.71 4.07 92.47 3.95 92.23 4.07 92.08 3.76 90.91 3.19 92.47 0 94.02 3.19 92.86 3.76 92.71 4.07"/><rect class="cls-2" x="93.96" y="6" width="2" height="2.79" transform="translate(6.36 42.34) rotate(-25.98)"/><polygon class="cls-2" points="98.79 13.71 96.78 13.42 95.89 11.59 97.69 10.72 98.12 11.59 99.08 11.73 98.79 13.71"/><rect class="cls-2" x="102.02" y="11.95" width="2" height="2.75" transform="translate(74.84 113.3) rotate(-81.63)"/><polygon class="cls-2" points="108.22 15.91 107.29 14.96 106.96 14.91 107 14.66 106.82 14.48 107.06 14.25 107.25 12.94 110.72 13.45 108.22 15.91"/><rect class="cls-2" x="103.17" y="17.12" width="2.78" height="2" transform="translate(17.43 78.7) rotate(-44.64)"/><polygon class="cls-2" points="99.79 23.75 99.45 21.75 100.89 20.33 102.3 21.76 101.6 22.45 101.76 23.41 99.79 23.75"/><rect class="cls-2" x="100.48" y="26.32" width="2" height="2.8" transform="translate(-3.2 17.34) rotate(-9.61)"/><polygon class="cls-2" points="103.76 35.17 100.64 33.51 101.25 32.36 101.19 32.02 101.45 31.98 101.58 31.75 101.88 31.91 103.17 31.69 103.76 35.17"/><rect class="cls-2" x="96.45" y="29.3" width="2" height="2.76" transform="translate(24.57 102.28) rotate(-61.97)"/><polygon class="cls-2" points="91.61 29.62 90.67 27.85 92.47 26.9 94.26 27.85 93.32 29.62 92.47 29.16 91.61 29.62"/><rect class="cls-2" x="86.1" y="29.68" width="2.76" height="2" transform="translate(-4.15 44.73) rotate(-28.04)"/><polygon class="cls-2" points="81.18 35.17 81.77 31.69 83.06 31.91 83.36 31.75 83.48 31.98 83.74 32.02 83.68 32.36 84.3 33.51 81.18 35.17"/><rect class="cls-2" x="82.06" y="26.72" width="2.8" height="2" transform="translate(42.19 105.37) rotate(-80.39)"/><polygon class="cls-2" points="85.14 23.75 83.17 23.41 83.33 22.45 82.64 21.76 84.04 20.33 85.48 21.75 85.14 23.75"/><rect class="cls-2" x="79.38" y="16.73" width="2" height="2.78" transform="translate(11.01 62.59) rotate(-45.37)"/><polygon class="cls-2" points="76.71 15.91 74.22 13.45 77.69 12.94 77.88 14.25 78.12 14.48 77.94 14.66 77.98 14.91 77.65 14.96 76.71 15.91"/><rect class="cls-2" x="80.54" y="12.32" width="2.75" height="2" transform="translate(-1.07 12.06) rotate(-8.37)"/><polygon class="cls-2" points="86.15 13.71 85.86 11.73 86.82 11.59 87.24 10.72 89.04 11.59 88.15 13.42 86.15 13.71"/><rect class="cls-2" x="88.58" y="6.39" width="2.79" height="2" transform="translate(43.92 85.04) rotate(-64.02)"/></g></g></svg>